G04 #@! TF.GenerationSoftware,KiCad,Pcbnew,6.0.0-rc1-unknown-4b44cbe~66~ubuntu18.04.1*
G04 #@! TF.CreationDate,2018-10-29T13:39:10-04:00*
G04 #@! TF.ProjectId,backlight_controller_3x2,6261636B6C696768745F636F6E74726F,1.2*
G04 #@! TF.SameCoordinates,Original*
G04 #@! TF.FileFunction,Copper,L2,Bot*
G04 #@! TF.FilePolarity,Positive*
%FSLAX46Y46*%
G04 Gerber Fmt 4.6, Leading zero omitted, Abs format (unit mm)*
G04 Created by KiCad (PCBNEW 6.0.0-rc1-unknown-4b44cbe~66~ubuntu18.04.1) date Mon 29 Oct 2018 01:39:10 PM EDT*
%MOMM*%
%LPD*%
G01*
G04 APERTURE LIST*
G04 #@! TA.AperFunction,NonConductor*
%ADD10C,0.228600*%
G04 #@! TD*
G04 #@! TA.AperFunction,ComponentPad*
%ADD11C,2.200000*%
G04 #@! TD*
G04 #@! TA.AperFunction,ComponentPad*
%ADD12C,3.556000*%
G04 #@! TD*
G04 #@! TA.AperFunction,ComponentPad*
%ADD13O,1.854200X2.540000*%
G04 #@! TD*
G04 #@! TA.AperFunction,ComponentPad*
%ADD14R,1.854200X2.540000*%
G04 #@! TD*
G04 #@! TA.AperFunction,SMDPad,CuDef*
%ADD15R,1.270000X2.540000*%
G04 #@! TD*
G04 #@! TA.AperFunction,SMDPad,CuDef*
%ADD16R,4.960000X3.800000*%
G04 #@! TD*
G04 #@! TA.AperFunction,SMDPad,CuDef*
%ADD17R,1.440000X1.600000*%
G04 #@! TD*
G04 #@! TA.AperFunction,SMDPad,CuDef*
%ADD18R,5.800000X6.400000*%
G04 #@! TD*
G04 #@! TA.AperFunction,SMDPad,CuDef*
%ADD19R,0.800000X2.200000*%
G04 #@! TD*
G04 #@! TA.AperFunction,ComponentPad*
%ADD20O,2.032000X1.524000*%
G04 #@! TD*
G04 #@! TA.AperFunction,ComponentPad*
%ADD21C,4.000000*%
G04 #@! TD*
G04 #@! TA.AperFunction,ComponentPad*
%ADD22R,4.000000X3.000000*%
G04 #@! TD*
G04 #@! TA.AperFunction,ComponentPad*
%ADD23O,4.000000X3.000000*%
G04 #@! TD*
G04 #@! TA.AperFunction,SMDPad,CuDef*
%ADD24R,2.540000X1.270000*%
G04 #@! TD*
G04 #@! TA.AperFunction,SMDPad,CuDef*
%ADD25R,2.000000X0.600000*%
G04 #@! TD*
G04 #@! TA.AperFunction,ComponentPad*
%ADD26C,1.600000*%
G04 #@! TD*
G04 #@! TA.AperFunction,ComponentPad*
%ADD27C,2.000000*%
G04 #@! TD*
G04 #@! TA.AperFunction,SMDPad,CuDef*
%ADD28R,0.800000X0.900000*%
G04 #@! TD*
G04 #@! TA.AperFunction,SMDPad,CuDef*
%ADD29R,0.787400X1.600200*%
G04 #@! TD*
G04 #@! TA.AperFunction,ViaPad*
%ADD30C,0.889000*%
G04 #@! TD*
G04 #@! TA.AperFunction,ViaPad*
%ADD31C,0.635000*%
G04 #@! TD*
G04 #@! TA.AperFunction,Conductor*
%ADD32C,0.406400*%
G04 #@! TD*
G04 #@! TA.AperFunction,Conductor*
%ADD33C,0.812800*%
G04 #@! TD*
G04 #@! TA.AperFunction,Conductor*
%ADD34C,0.203200*%
G04 #@! TD*
G04 #@! TA.AperFunction,Conductor*
%ADD35C,0.254000*%
G04 #@! TD*
G04 APERTURE END LIST*
D10*
X156210000Y-67945000D02*
X85725000Y-67945000D01*
X156210000Y-109855000D02*
X156210000Y-67945000D01*
X85725000Y-109855000D02*
X156210000Y-109855000D01*
X85725000Y-67945000D02*
X85725000Y-109855000D01*
D11*
G04 #@! TO.P,J2,*
G04 #@! TO.N,*
X115010000Y-76400000D03*
X115010000Y-101400000D03*
G04 #@! TD*
G04 #@! TO.P,J1,*
G04 #@! TO.N,*
X97230000Y-76400000D03*
X97230000Y-101400000D03*
G04 #@! TD*
D12*
G04 #@! TO.P,MDB1,*
G04 #@! TO.N,*
X130175000Y-71120000D03*
X130175000Y-106680000D03*
X89535000Y-101600000D03*
X89535000Y-76200000D03*
D13*
G04 #@! TO.P,MDB1,AREF*
G04 #@! TO.N,N/C*
X88265000Y-106680000D03*
G04 #@! TO.P,MDB1,VEE*
G04 #@! TO.N,VEE*
X90805000Y-106680000D03*
G04 #@! TO.P,MDB1,AGND*
G04 #@! TO.N,N/C*
X93345000Y-106680000D03*
G04 #@! TO.P,MDB1,3V3*
X95885000Y-106680000D03*
G04 #@! TO.P,MDB1,23*
G04 #@! TO.N,/CHANNEL_9*
X98425000Y-106680000D03*
G04 #@! TO.P,MDB1,22*
G04 #@! TO.N,/CHANNEL_8*
X100965000Y-106680000D03*
G04 #@! TO.P,MDB1,21*
G04 #@! TO.N,/CHANNEL_7*
X103505000Y-106680000D03*
G04 #@! TO.P,MDB1,20*
G04 #@! TO.N,/CHANNEL_6*
X106045000Y-106680000D03*
G04 #@! TO.P,MDB1,19*
G04 #@! TO.N,N/C*
X108585000Y-106680000D03*
G04 #@! TO.P,MDB1,18*
X111125000Y-106680000D03*
G04 #@! TO.P,MDB1,17*
X113665000Y-106680000D03*
G04 #@! TO.P,MDB1,16*
X116205000Y-106680000D03*
G04 #@! TO.P,MDB1,15*
X118745000Y-106680000D03*
G04 #@! TO.P,MDB1,14*
X121285000Y-106680000D03*
G04 #@! TO.P,MDB1,13*
X123825000Y-106680000D03*
G04 #@! TO.P,MDB1,DAC*
X126365000Y-106680000D03*
G04 #@! TO.P,MDB1,28*
X126365000Y-71120000D03*
G04 #@! TO.P,MDB1,12*
X123825000Y-71120000D03*
G04 #@! TO.P,MDB1,11*
X121285000Y-71120000D03*
G04 #@! TO.P,MDB1,10*
G04 #@! TO.N,/CHANNEL_5*
X118745000Y-71120000D03*
G04 #@! TO.P,MDB1,9*
G04 #@! TO.N,/CHANNEL_4*
X116205000Y-71120000D03*
G04 #@! TO.P,MDB1,29*
G04 #@! TO.N,N/C*
X113665000Y-71120000D03*
G04 #@! TO.P,MDB1,30*
X111125000Y-71120000D03*
G04 #@! TO.P,MDB1,6*
G04 #@! TO.N,/CHANNEL_3*
X108585000Y-71120000D03*
G04 #@! TO.P,MDB1,5*
G04 #@! TO.N,/CHANNEL_2*
X106045000Y-71120000D03*
G04 #@! TO.P,MDB1,4*
G04 #@! TO.N,/CHANNEL_1*
X103505000Y-71120000D03*
G04 #@! TO.P,MDB1,3*
G04 #@! TO.N,/CHANNEL_0*
X100965000Y-71120000D03*
G04 #@! TO.P,MDB1,2*
G04 #@! TO.N,/~ENABLE*
X98425000Y-71120000D03*
G04 #@! TO.P,MDB1,25*
G04 #@! TO.N,N/C*
X95885000Y-71120000D03*
D14*
G04 #@! TO.P,MDB1,VDD*
G04 #@! TO.N,VDD*
X88265000Y-71120000D03*
D13*
G04 #@! TO.P,MDB1,24*
G04 #@! TO.N,N/C*
X93345000Y-71120000D03*
G04 #@! TO.P,MDB1,GND*
G04 #@! TO.N,GND*
X90805000Y-71120000D03*
G04 #@! TD*
D15*
G04 #@! TO.P,C1,1*
G04 #@! TO.N,VEE*
X118491000Y-88900000D03*
G04 #@! TO.P,C1,2*
G04 #@! TO.N,GND*
X121539000Y-88900000D03*
G04 #@! TD*
G04 #@! TO.P,C2,2*
G04 #@! TO.N,GND*
X124841000Y-88900000D03*
G04 #@! TO.P,C2,1*
G04 #@! TO.N,VEE*
X127889000Y-88900000D03*
G04 #@! TD*
G04 #@! TO.P,C3,1*
G04 #@! TO.N,VDD*
X113919000Y-92710000D03*
G04 #@! TO.P,C3,2*
G04 #@! TO.N,GND*
X110871000Y-92710000D03*
G04 #@! TD*
G04 #@! TO.P,C4,1*
G04 #@! TO.N,VDD*
X106299000Y-92710000D03*
G04 #@! TO.P,C4,2*
G04 #@! TO.N,GND*
X103251000Y-92710000D03*
G04 #@! TD*
G04 #@! TO.P,C5,1*
G04 #@! TO.N,VDD*
X98679000Y-92710000D03*
G04 #@! TO.P,C5,2*
G04 #@! TO.N,GND*
X95631000Y-92710000D03*
G04 #@! TD*
G04 #@! TO.P,C6,2*
G04 #@! TO.N,GND*
X88011000Y-92710000D03*
G04 #@! TO.P,C6,1*
G04 #@! TO.N,VDD*
X91059000Y-92710000D03*
G04 #@! TD*
D16*
G04 #@! TO.P,D1,1*
G04 #@! TO.N,VDD*
X103755000Y-75565000D03*
D17*
G04 #@! TO.P,D1,2*
G04 #@! TO.N,VAA*
X107555000Y-76630000D03*
X107555000Y-74500000D03*
G04 #@! TD*
D18*
G04 #@! TO.P,HPS1,6*
G04 #@! TO.N,/backlight_3x2/high_voltage_outputs/OUTPUT_0*
X112395000Y-83235000D03*
D19*
G04 #@! TO.P,HPS1,1*
G04 #@! TO.N,VDD*
X114675000Y-89535000D03*
G04 #@! TO.P,HPS1,2*
G04 #@! TO.N,/backlight_3x2/high_voltage_outputs/high_voltage_output_0/FAULT*
X113535000Y-89535000D03*
G04 #@! TO.P,HPS1,4*
G04 #@! TO.N,N/C*
X111255000Y-89535000D03*
G04 #@! TO.P,HPS1,5*
G04 #@! TO.N,GND*
X110115000Y-89535000D03*
G04 #@! TD*
D18*
G04 #@! TO.P,HPS2,6*
G04 #@! TO.N,/backlight_3x2/high_voltage_outputs/OUTPUT_1*
X104775000Y-83235000D03*
D19*
G04 #@! TO.P,HPS2,1*
G04 #@! TO.N,VDD*
X107055000Y-89535000D03*
G04 #@! TO.P,HPS2,2*
G04 #@! TO.N,/backlight_3x2/high_voltage_outputs/high_voltage_output_1/FAULT*
X105915000Y-89535000D03*
G04 #@! TO.P,HPS2,4*
G04 #@! TO.N,N/C*
X103635000Y-89535000D03*
G04 #@! TO.P,HPS2,5*
G04 #@! TO.N,GND*
X102495000Y-89535000D03*
G04 #@! TD*
G04 #@! TO.P,HPS3,5*
G04 #@! TO.N,GND*
X94875000Y-89535000D03*
G04 #@! TO.P,HPS3,4*
G04 #@! TO.N,N/C*
X96015000Y-89535000D03*
G04 #@! TO.P,HPS3,2*
G04 #@! TO.N,/backlight_3x2/high_voltage_outputs/high_voltage_output_2/FAULT*
X98295000Y-89535000D03*
G04 #@! TO.P,HPS3,1*
G04 #@! TO.N,VDD*
X99435000Y-89535000D03*
D18*
G04 #@! TO.P,HPS3,6*
G04 #@! TO.N,/backlight_3x2/high_voltage_outputs/OUTPUT_2*
X97155000Y-83235000D03*
G04 #@! TD*
D19*
G04 #@! TO.P,HPS4,5*
G04 #@! TO.N,GND*
X87255000Y-89535000D03*
G04 #@! TO.P,HPS4,4*
G04 #@! TO.N,N/C*
X88395000Y-89535000D03*
G04 #@! TO.P,HPS4,2*
G04 #@! TO.N,/backlight_3x2/high_voltage_outputs/high_voltage_output_3/FAULT*
X90675000Y-89535000D03*
G04 #@! TO.P,HPS4,1*
G04 #@! TO.N,VDD*
X91815000Y-89535000D03*
D18*
G04 #@! TO.P,HPS4,6*
G04 #@! TO.N,/backlight_3x2/high_voltage_outputs/OUTPUT_3*
X89535000Y-83235000D03*
G04 #@! TD*
D20*
G04 #@! TO.P,L1,1*
G04 #@! TO.N,VAA*
X144780000Y-96520000D03*
G04 #@! TO.P,L1,2*
G04 #@! TO.N,GND*
X139700000Y-96520000D03*
G04 #@! TD*
G04 #@! TO.P,L2,2*
G04 #@! TO.N,GND*
X137160000Y-97790000D03*
G04 #@! TO.P,L2,1*
G04 #@! TO.N,/backlight_3x2/C_0*
X132080000Y-97790000D03*
G04 #@! TD*
G04 #@! TO.P,L3,1*
G04 #@! TO.N,/backlight_3x2/C_1*
X132080000Y-95250000D03*
G04 #@! TO.P,L3,2*
G04 #@! TO.N,GND*
X137160000Y-95250000D03*
G04 #@! TD*
G04 #@! TO.P,L4,2*
G04 #@! TO.N,GND*
X137160000Y-92710000D03*
G04 #@! TO.P,L4,1*
G04 #@! TO.N,/backlight_3x2/C_2*
X132080000Y-92710000D03*
G04 #@! TD*
G04 #@! TO.P,L5,1*
G04 #@! TO.N,/backlight_3x2/C_3*
X132080000Y-90170000D03*
G04 #@! TO.P,L5,2*
G04 #@! TO.N,GND*
X137160000Y-90170000D03*
G04 #@! TD*
G04 #@! TO.P,L6,2*
G04 #@! TO.N,GND*
X137160000Y-87630000D03*
G04 #@! TO.P,L6,1*
G04 #@! TO.N,/backlight_3x2/C_4*
X132080000Y-87630000D03*
G04 #@! TD*
G04 #@! TO.P,L7,2*
G04 #@! TO.N,GND*
X137160000Y-85090000D03*
G04 #@! TO.P,L7,1*
G04 #@! TO.N,/backlight_3x2/C_5*
X132080000Y-85090000D03*
G04 #@! TD*
G04 #@! TO.P,L8,1*
G04 #@! TO.N,/backlight_3x2/C_6*
X132080000Y-82550000D03*
G04 #@! TO.P,L8,2*
G04 #@! TO.N,GND*
X137160000Y-82550000D03*
G04 #@! TD*
G04 #@! TO.P,L9,1*
G04 #@! TO.N,/backlight_3x2/C_7*
X132080000Y-80010000D03*
G04 #@! TO.P,L9,2*
G04 #@! TO.N,GND*
X137160000Y-80010000D03*
G04 #@! TD*
G04 #@! TO.P,L10,1*
G04 #@! TO.N,/backlight_3x2/C_8*
X132080000Y-77470000D03*
G04 #@! TO.P,L10,2*
G04 #@! TO.N,GND*
X137160000Y-77470000D03*
G04 #@! TD*
G04 #@! TO.P,L11,2*
G04 #@! TO.N,GND*
X137160000Y-100330000D03*
G04 #@! TO.P,L11,1*
G04 #@! TO.N,/backlight_3x2/C_9*
X132080000Y-100330000D03*
G04 #@! TD*
D21*
G04 #@! TO.P,P1,*
G04 #@! TO.N,*
X153670000Y-84700000D03*
X153670000Y-93100000D03*
D22*
G04 #@! TO.P,P1,1*
G04 #@! TO.N,VAA*
X146370000Y-84700000D03*
D23*
G04 #@! TO.P,P1,2*
X146370000Y-88900000D03*
G04 #@! TO.P,P1,3*
X146370000Y-93100000D03*
G04 #@! TO.P,P1,4*
G04 #@! TO.N,GND*
X140870000Y-84700000D03*
G04 #@! TO.P,P1,5*
X140870000Y-88900000D03*
G04 #@! TO.P,P1,6*
X140870000Y-93100000D03*
G04 #@! TD*
D24*
G04 #@! TO.P,R1,2*
G04 #@! TO.N,/backlight_3x2/C_0*
X112395000Y-98679000D03*
G04 #@! TO.P,R1,1*
G04 #@! TO.N,/backlight_3x2/high_voltage_outputs/high_voltage_output_0/FAULT*
X112395000Y-95631000D03*
G04 #@! TD*
G04 #@! TO.P,R2,2*
G04 #@! TO.N,/backlight_3x2/C_1*
X104775000Y-98679000D03*
G04 #@! TO.P,R2,1*
G04 #@! TO.N,/backlight_3x2/high_voltage_outputs/high_voltage_output_1/FAULT*
X104775000Y-95631000D03*
G04 #@! TD*
G04 #@! TO.P,R3,2*
G04 #@! TO.N,/backlight_3x2/C_2*
X97155000Y-98679000D03*
G04 #@! TO.P,R3,1*
G04 #@! TO.N,/backlight_3x2/high_voltage_outputs/high_voltage_output_2/FAULT*
X97155000Y-95631000D03*
G04 #@! TD*
G04 #@! TO.P,R4,1*
G04 #@! TO.N,/backlight_3x2/high_voltage_outputs/high_voltage_output_3/FAULT*
X89535000Y-95631000D03*
G04 #@! TO.P,R4,2*
G04 #@! TO.N,/backlight_3x2/C_3*
X89535000Y-98679000D03*
G04 #@! TD*
D25*
G04 #@! TO.P,U1,20*
G04 #@! TO.N,VEE*
X127840000Y-103505000D03*
G04 #@! TO.P,U1,19*
G04 #@! TO.N,GND*
X127840000Y-102235000D03*
G04 #@! TO.P,U1,18*
G04 #@! TO.N,/backlight_3x2/C_0*
X127840000Y-100965000D03*
G04 #@! TO.P,U1,17*
G04 #@! TO.N,/backlight_3x2/C_1*
X127840000Y-99695000D03*
G04 #@! TO.P,U1,16*
G04 #@! TO.N,/backlight_3x2/C_2*
X127840000Y-98425000D03*
G04 #@! TO.P,U1,15*
G04 #@! TO.N,/backlight_3x2/C_3*
X127840000Y-97155000D03*
G04 #@! TO.P,U1,14*
G04 #@! TO.N,/backlight_3x2/C_4*
X127840000Y-95885000D03*
G04 #@! TO.P,U1,13*
G04 #@! TO.N,/backlight_3x2/C_5*
X127840000Y-94615000D03*
G04 #@! TO.P,U1,12*
G04 #@! TO.N,/backlight_3x2/C_6*
X127840000Y-93345000D03*
G04 #@! TO.P,U1,11*
G04 #@! TO.N,/backlight_3x2/C_7*
X127840000Y-92075000D03*
G04 #@! TO.P,U1,10*
G04 #@! TO.N,GND*
X118540000Y-92075000D03*
G04 #@! TO.P,U1,9*
G04 #@! TO.N,/CHANNEL_7*
X118540000Y-93345000D03*
G04 #@! TO.P,U1,8*
G04 #@! TO.N,/CHANNEL_6*
X118540000Y-94615000D03*
G04 #@! TO.P,U1,7*
G04 #@! TO.N,/CHANNEL_5*
X118540000Y-95885000D03*
G04 #@! TO.P,U1,6*
G04 #@! TO.N,/CHANNEL_4*
X118540000Y-97155000D03*
G04 #@! TO.P,U1,5*
G04 #@! TO.N,/CHANNEL_3*
X118540000Y-98425000D03*
G04 #@! TO.P,U1,4*
G04 #@! TO.N,/CHANNEL_2*
X118540000Y-99695000D03*
G04 #@! TO.P,U1,3*
G04 #@! TO.N,/CHANNEL_1*
X118540000Y-100965000D03*
G04 #@! TO.P,U1,2*
G04 #@! TO.N,/CHANNEL_0*
X118540000Y-102235000D03*
G04 #@! TO.P,U1,1*
G04 #@! TO.N,/~ENABLE*
X118540000Y-103505000D03*
G04 #@! TD*
G04 #@! TO.P,U2,1*
G04 #@! TO.N,/~ENABLE*
X118540000Y-85725000D03*
G04 #@! TO.P,U2,2*
G04 #@! TO.N,/CHANNEL_8*
X118540000Y-84455000D03*
G04 #@! TO.P,U2,3*
G04 #@! TO.N,/CHANNEL_9*
X118540000Y-83185000D03*
G04 #@! TO.P,U2,4*
G04 #@! TO.N,GND*
X118540000Y-81915000D03*
G04 #@! TO.P,U2,5*
X118540000Y-80645000D03*
G04 #@! TO.P,U2,6*
X118540000Y-79375000D03*
G04 #@! TO.P,U2,7*
X118540000Y-78105000D03*
G04 #@! TO.P,U2,8*
X118540000Y-76835000D03*
G04 #@! TO.P,U2,9*
X118540000Y-75565000D03*
G04 #@! TO.P,U2,10*
X118540000Y-74295000D03*
G04 #@! TO.P,U2,11*
G04 #@! TO.N,N/C*
X127840000Y-74295000D03*
G04 #@! TO.P,U2,12*
X127840000Y-75565000D03*
G04 #@! TO.P,U2,13*
X127840000Y-76835000D03*
G04 #@! TO.P,U2,14*
X127840000Y-78105000D03*
G04 #@! TO.P,U2,15*
X127840000Y-79375000D03*
G04 #@! TO.P,U2,16*
X127840000Y-80645000D03*
G04 #@! TO.P,U2,17*
G04 #@! TO.N,/backlight_3x2/C_9*
X127840000Y-81915000D03*
G04 #@! TO.P,U2,18*
G04 #@! TO.N,/backlight_3x2/C_8*
X127840000Y-83185000D03*
G04 #@! TO.P,U2,19*
G04 #@! TO.N,GND*
X127840000Y-84455000D03*
G04 #@! TO.P,U2,20*
G04 #@! TO.N,VEE*
X127840000Y-85725000D03*
G04 #@! TD*
D26*
G04 #@! TO.P,J3,*
G04 #@! TO.N,*
X153090000Y-72390000D03*
D27*
X144090000Y-72390000D03*
G04 #@! TD*
G04 #@! TO.P,J4,*
G04 #@! TO.N,*
X144090000Y-105410000D03*
D26*
X153090000Y-105410000D03*
G04 #@! TD*
D28*
G04 #@! TO.P,U3,3*
G04 #@! TO.N,/backlight_3x2/backlight_outputs/ir/NPN*
X148590000Y-74565000D03*
G04 #@! TO.P,U3,2*
G04 #@! TO.N,GND*
X147640000Y-76565000D03*
G04 #@! TO.P,U3,1*
G04 #@! TO.N,/backlight_3x2/C_8*
X149540000Y-76565000D03*
G04 #@! TD*
G04 #@! TO.P,U4,1*
G04 #@! TO.N,/backlight_3x2/C_9*
X147640000Y-101235000D03*
G04 #@! TO.P,U4,2*
G04 #@! TO.N,GND*
X149540000Y-101235000D03*
G04 #@! TO.P,U4,3*
G04 #@! TO.N,/backlight_3x2/backlight_outputs/visible/NPN*
X148590000Y-103235000D03*
G04 #@! TD*
D29*
G04 #@! TO.P,R5,2*
G04 #@! TO.N,/backlight_3x2/C_4*
X134848600Y-107315000D03*
G04 #@! TO.P,R5,1*
G04 #@! TO.N,/backlight_3x2/low_voltage_outputs/OUTPUT_0*
X136931400Y-107315000D03*
G04 #@! TD*
G04 #@! TO.P,R6,1*
G04 #@! TO.N,/backlight_3x2/low_voltage_outputs/OUTPUT_1*
X136931400Y-103505000D03*
G04 #@! TO.P,R6,2*
G04 #@! TO.N,/backlight_3x2/C_5*
X134848600Y-103505000D03*
G04 #@! TD*
G04 #@! TO.P,R7,2*
G04 #@! TO.N,/backlight_3x2/C_6*
X134848600Y-74295000D03*
G04 #@! TO.P,R7,1*
G04 #@! TO.N,/backlight_3x2/low_voltage_outputs/OUTPUT_2*
X136931400Y-74295000D03*
G04 #@! TD*
G04 #@! TO.P,R8,1*
G04 #@! TO.N,/backlight_3x2/low_voltage_outputs/OUTPUT_3*
X136931400Y-70485000D03*
G04 #@! TO.P,R8,2*
G04 #@! TO.N,/backlight_3x2/C_7*
X134848600Y-70485000D03*
G04 #@! TD*
D30*
G04 #@! TO.N,GND*
X112066300Y-92663100D03*
X121680900Y-84672500D03*
X150360000Y-105434700D03*
X116699200Y-90270000D03*
G04 #@! TO.N,VAA*
X101322800Y-81242200D03*
G04 #@! TO.N,/backlight_3x2/high_voltage_outputs/OUTPUT_0*
X108393800Y-84196600D03*
G04 #@! TO.N,/backlight_3x2/high_voltage_outputs/OUTPUT_1*
X103099400Y-79454000D03*
G04 #@! TO.N,/backlight_3x2/high_voltage_outputs/OUTPUT_2*
X99496800Y-87218500D03*
G04 #@! TO.N,/backlight_3x2/high_voltage_outputs/OUTPUT_3*
X95775000Y-87168300D03*
D31*
G04 #@! TO.N,/backlight_3x2/low_voltage_outputs/OUTPUT_3*
X134422600Y-76474700D03*
G04 #@! TO.N,/backlight_3x2/low_voltage_outputs/OUTPUT_2*
X135758300Y-76500700D03*
G04 #@! TO.N,/backlight_3x2/low_voltage_outputs/OUTPUT_1*
X130620100Y-100411000D03*
G04 #@! TO.N,/backlight_3x2/low_voltage_outputs/OUTPUT_0*
X123562600Y-94830500D03*
G04 #@! TO.N,/backlight_3x2/C_9*
X129367700Y-82430200D03*
G04 #@! TO.N,/backlight_3x2/C_0*
X114782600Y-97790000D03*
G04 #@! TO.N,/backlight_3x2/C_1*
X109103500Y-96013900D03*
G04 #@! TO.N,/backlight_3x2/C_2*
X108697800Y-95373500D03*
G04 #@! TO.N,/backlight_3x2/C_3*
X109233800Y-94840800D03*
G04 #@! TO.N,/CHANNEL_9*
X117475000Y-105240800D03*
G04 #@! TO.N,/CHANNEL_8*
X108757200Y-97117000D03*
X116995300Y-84809700D03*
G04 #@! TO.N,/CHANNEL_5*
X123465400Y-88061800D03*
X119070300Y-91231800D03*
G04 #@! TO.N,/CHANNEL_1*
X108580700Y-104393200D03*
G04 #@! TO.N,/CHANNEL_0*
X111169200Y-103918100D03*
G04 #@! TO.N,/backlight_3x2/backlight_outputs/ir/NPN*
X149463100Y-71469100D03*
G04 #@! TO.N,/backlight_3x2/backlight_outputs/visible/NPN*
X148742100Y-104209500D03*
G04 #@! TD*
D32*
G04 #@! TO.N,VEE*
X127840000Y-85725000D02*
X127889000Y-85774000D01*
X127889000Y-85774000D02*
X127889000Y-88900000D01*
X124846700Y-94207900D02*
X124846700Y-101841900D01*
X124846700Y-101841900D02*
X126509800Y-103505000D01*
X124846700Y-90936400D02*
X124846700Y-94207900D01*
X124846700Y-94207900D02*
X123304700Y-94207900D01*
X123304700Y-94207900D02*
X122660100Y-94852500D01*
X122660100Y-94852500D02*
X122660100Y-103003900D01*
X122660100Y-103003900D02*
X120015000Y-105649000D01*
X120015000Y-105649000D02*
X120015000Y-107522200D01*
X120015000Y-107522200D02*
X119277200Y-108260000D01*
X119277200Y-108260000D02*
X92778400Y-108260000D01*
X92778400Y-108260000D02*
X92062300Y-107543900D01*
X92062300Y-107543900D02*
X92062300Y-106680000D01*
X124846700Y-90936400D02*
X121221100Y-90936400D01*
X121221100Y-90936400D02*
X119456200Y-89171500D01*
X119456200Y-89171500D02*
X119456200Y-88900000D01*
X126923800Y-88900000D02*
X126923800Y-89170000D01*
X126923800Y-89170000D02*
X125157400Y-90936400D01*
X125157400Y-90936400D02*
X124846700Y-90936400D01*
X90805000Y-106680000D02*
X92062300Y-106680000D01*
X127840000Y-103505000D02*
X126509800Y-103505000D01*
X118491000Y-88900000D02*
X119456200Y-88900000D01*
X127889000Y-88900000D02*
X126923800Y-88900000D01*
D33*
G04 #@! TO.N,GND*
X111004700Y-92576300D02*
X111004700Y-92058100D01*
X111004700Y-92058100D02*
X110115000Y-91168400D01*
X110871000Y-92710000D02*
X111004700Y-92576300D01*
X111004700Y-92576300D02*
X111979500Y-92576300D01*
X111979500Y-92576300D02*
X112066300Y-92663100D01*
X118540000Y-80645000D02*
X118540000Y-81915000D01*
X118540000Y-79375000D02*
X118540000Y-80645000D01*
X118540000Y-81915000D02*
X120073400Y-81915000D01*
X121576400Y-84672500D02*
X121576400Y-83418000D01*
X121576400Y-83418000D02*
X120073400Y-81915000D01*
X121576400Y-84672500D02*
X121680900Y-84672500D01*
X120370600Y-88900000D02*
X120370600Y-85878300D01*
X120370600Y-85878300D02*
X121576400Y-84672500D01*
X127840000Y-102235000D02*
X129373400Y-102235000D01*
X149073300Y-101235000D02*
X149073300Y-101370600D01*
X149073300Y-101370600D02*
X148215100Y-102228800D01*
X148215100Y-102228800D02*
X142869600Y-102228800D01*
X142869600Y-102228800D02*
X140284300Y-104814100D01*
X140284300Y-104814100D02*
X131952500Y-104814100D01*
X131952500Y-104814100D02*
X129373400Y-102235000D01*
X149073300Y-101235000D02*
X148606600Y-101235000D01*
X149540000Y-101235000D02*
X149073300Y-101235000D01*
X137160000Y-97790000D02*
X137160000Y-100330000D01*
X139645600Y-96520000D02*
X142755200Y-99629600D01*
X142755200Y-99629600D02*
X147613700Y-99629600D01*
X147613700Y-99629600D02*
X148606600Y-100622500D01*
X148606600Y-100622500D02*
X148606600Y-101235000D01*
X139645600Y-96520000D02*
X139700000Y-96520000D01*
X137160000Y-96520000D02*
X139645600Y-96520000D01*
X118540000Y-78105000D02*
X118540000Y-79375000D01*
X118540000Y-76835000D02*
X118540000Y-78105000D01*
X118540000Y-75565000D02*
X118540000Y-76835000D01*
X118540000Y-74295000D02*
X118540000Y-75565000D01*
X116699200Y-90270000D02*
X116699200Y-91767600D01*
X116699200Y-91767600D02*
X117006600Y-92075000D01*
X149540000Y-101235000D02*
X149540000Y-102218400D01*
X149540000Y-102218400D02*
X150360000Y-103038400D01*
X150360000Y-103038400D02*
X150360000Y-105434700D01*
X118540000Y-92075000D02*
X117006600Y-92075000D01*
X121539000Y-88900000D02*
X123672600Y-88900000D01*
X124841000Y-88900000D02*
X123672600Y-88900000D01*
X121539000Y-88900000D02*
X120370600Y-88900000D01*
X125106700Y-88900000D02*
X125362600Y-88900000D01*
X125362600Y-88900000D02*
X125362600Y-85399000D01*
X125362600Y-85399000D02*
X126306600Y-84455000D01*
X127840000Y-84455000D02*
X126306600Y-84455000D01*
X125106700Y-88900000D02*
X124841000Y-88900000D01*
X95335300Y-96451900D02*
X95335300Y-94809100D01*
X95335300Y-94809100D02*
X95631000Y-94513400D01*
X102495000Y-92710000D02*
X102495000Y-92952500D01*
X102495000Y-92952500D02*
X98649300Y-96798200D01*
X98649300Y-96798200D02*
X95681600Y-96798200D01*
X95681600Y-96798200D02*
X95335300Y-96451900D01*
X95335300Y-96451900D02*
X94963400Y-96823800D01*
X94963400Y-96823800D02*
X88070400Y-96823800D01*
X88070400Y-96823800D02*
X87715300Y-96468700D01*
X87715300Y-96468700D02*
X87715300Y-94809100D01*
X87715300Y-94809100D02*
X88011000Y-94513400D01*
X88011000Y-92710000D02*
X88011000Y-94513400D01*
X87255000Y-89535000D02*
X87255000Y-91954000D01*
X87255000Y-91954000D02*
X88011000Y-92710000D01*
X95631000Y-92710000D02*
X95631000Y-94513400D01*
X102495000Y-89535000D02*
X102495000Y-92710000D01*
X102495000Y-92710000D02*
X103251000Y-92710000D01*
X110115000Y-89535000D02*
X110115000Y-91168400D01*
X110115000Y-89535000D02*
X110115000Y-87901600D01*
X102495000Y-89535000D02*
X102495000Y-87901600D01*
X102495000Y-87901600D02*
X110115000Y-87901600D01*
X94875000Y-89535000D02*
X94875000Y-91168400D01*
X94875000Y-91168400D02*
X95631000Y-91924400D01*
X95631000Y-91924400D02*
X95631000Y-92710000D01*
X147640000Y-76565000D02*
X146706600Y-76565000D01*
X140870000Y-84700000D02*
X140870000Y-82666600D01*
X140870000Y-82666600D02*
X146706600Y-76830000D01*
X146706600Y-76830000D02*
X146706600Y-76565000D01*
X140870000Y-84700000D02*
X140870000Y-88900000D01*
X137160000Y-80010000D02*
X137160000Y-82550000D01*
X137160000Y-77470000D02*
X137160000Y-80010000D01*
X137160000Y-85090000D02*
X137160000Y-87630000D01*
X137160000Y-83820000D02*
X137160000Y-85090000D01*
X137160000Y-95250000D02*
X137160000Y-96520000D01*
X137160000Y-93980000D02*
X137160000Y-95250000D01*
X140870000Y-88900000D02*
X140870000Y-93100000D01*
X137160000Y-88900000D02*
X137160000Y-90170000D01*
X137160000Y-87630000D02*
X137160000Y-88900000D01*
X140870000Y-88900000D02*
X137160000Y-88900000D01*
X137160000Y-96520000D02*
X137160000Y-97790000D01*
X137160000Y-92710000D02*
X137160000Y-93980000D01*
X137160000Y-93980000D02*
X137160000Y-95250000D01*
X137160000Y-90170000D02*
X137160000Y-92710000D01*
X137160000Y-82550000D02*
X137160000Y-83820000D01*
X137160000Y-83820000D02*
X137160000Y-85090000D01*
D32*
G04 #@! TO.N,VDD*
X107055000Y-89535000D02*
X107055000Y-90965200D01*
X107055000Y-90965200D02*
X107264200Y-91174400D01*
X107264200Y-91174400D02*
X107264200Y-92710000D01*
X106299000Y-92710000D02*
X107264200Y-92710000D01*
X113436400Y-92710000D02*
X111811200Y-94335200D01*
X111811200Y-94335200D02*
X110116600Y-94335200D01*
X110116600Y-94335200D02*
X108491500Y-92710100D01*
X108491500Y-92710100D02*
X107264200Y-92710100D01*
X107264200Y-92710100D02*
X107264200Y-92710000D01*
X113436400Y-92710000D02*
X112953800Y-92710000D01*
X113919000Y-92710000D02*
X113436400Y-92710000D01*
X112784900Y-88104800D02*
X114675000Y-88104800D01*
X100643200Y-87144400D02*
X111824500Y-87144400D01*
X111824500Y-87144400D02*
X112784900Y-88104800D01*
X112784900Y-88104800D02*
X112784900Y-91575900D01*
X112784900Y-91575900D02*
X112953800Y-91744800D01*
X112953800Y-91744800D02*
X112953800Y-92710000D01*
X100643200Y-87144400D02*
X99682800Y-88104800D01*
X99682800Y-88104800D02*
X99435000Y-88104800D01*
X100568100Y-78603200D02*
X100568100Y-87069300D01*
X100568100Y-87069300D02*
X100643200Y-87144400D01*
X114675000Y-89535000D02*
X114675000Y-88104800D01*
X91815000Y-89535000D02*
X91815000Y-88104800D01*
X99435000Y-88104800D02*
X91815000Y-88104800D01*
X99435000Y-89535000D02*
X99435000Y-88104800D01*
X99435000Y-89924900D02*
X99435000Y-89535000D01*
X91815000Y-89535000D02*
X91815000Y-90965200D01*
X91059000Y-92710000D02*
X91059000Y-91109800D01*
X91815000Y-90965200D02*
X91203600Y-90965200D01*
X91203600Y-90965200D02*
X91059000Y-91109800D01*
X100568100Y-78603200D02*
X96141100Y-78603200D01*
X96141100Y-78603200D02*
X89522300Y-71984400D01*
X89522300Y-71984400D02*
X89522300Y-71120000D01*
X103755000Y-75565000D02*
X100716800Y-78603200D01*
X100716800Y-78603200D02*
X100568100Y-78603200D01*
X88265000Y-71120000D02*
X89522300Y-71120000D01*
X99435000Y-89924900D02*
X99435000Y-90965200D01*
X98679000Y-92710000D02*
X98679000Y-91109800D01*
X98679000Y-91109800D02*
X99290400Y-91109800D01*
X99290400Y-91109800D02*
X99435000Y-90965200D01*
D33*
G04 #@! TO.N,VAA*
X107555000Y-76630000D02*
X107555000Y-77963400D01*
X107555000Y-77963400D02*
X107545000Y-77973400D01*
X107545000Y-77973400D02*
X103180600Y-77973400D01*
X103180600Y-77973400D02*
X101322800Y-79831200D01*
X101322800Y-79831200D02*
X101322800Y-81242200D01*
X107555000Y-74500000D02*
X107555000Y-76630000D01*
G04 #@! TO.N,/backlight_3x2/high_voltage_outputs/OUTPUT_0*
X112395000Y-83235000D02*
X108961600Y-83235000D01*
X108961600Y-83235000D02*
X108961600Y-83628800D01*
X108961600Y-83628800D02*
X108393800Y-84196600D01*
D34*
G04 #@! TO.N,/backlight_3x2/high_voltage_outputs/high_voltage_output_0/FAULT*
X112395000Y-95631000D02*
X113893600Y-95631000D01*
X113535000Y-89535000D02*
X113535000Y-90863600D01*
X113535000Y-90863600D02*
X114306400Y-90863600D01*
X114306400Y-90863600D02*
X114757600Y-91314800D01*
X114757600Y-91314800D02*
X114757600Y-94767000D01*
X114757600Y-94767000D02*
X113893600Y-95631000D01*
D33*
G04 #@! TO.N,/backlight_3x2/high_voltage_outputs/OUTPUT_1*
X104775000Y-83235000D02*
X104775000Y-79501600D01*
X104775000Y-79501600D02*
X103147000Y-79501600D01*
X103147000Y-79501600D02*
X103099400Y-79454000D01*
D34*
G04 #@! TO.N,/backlight_3x2/high_voltage_outputs/high_voltage_output_1/FAULT*
X105915000Y-89535000D02*
X105915000Y-90863600D01*
X105915000Y-90863600D02*
X104775000Y-92003600D01*
X104775000Y-92003600D02*
X104775000Y-95631000D01*
G04 #@! TO.N,/backlight_3x2/high_voltage_outputs/high_voltage_output_2/FAULT*
X98295000Y-89535000D02*
X98295000Y-90863600D01*
X98295000Y-90863600D02*
X97155000Y-92003600D01*
X97155000Y-92003600D02*
X97155000Y-95631000D01*
D33*
G04 #@! TO.N,/backlight_3x2/high_voltage_outputs/OUTPUT_2*
X97155000Y-83235000D02*
X97155000Y-86968400D01*
X97155000Y-86968400D02*
X99246700Y-86968400D01*
X99246700Y-86968400D02*
X99496800Y-87218500D01*
D34*
G04 #@! TO.N,/backlight_3x2/high_voltage_outputs/high_voltage_output_3/FAULT*
X90675000Y-89535000D02*
X90675000Y-90863600D01*
X90675000Y-90863600D02*
X89535000Y-92003600D01*
X89535000Y-92003600D02*
X89535000Y-95631000D01*
D33*
G04 #@! TO.N,/backlight_3x2/high_voltage_outputs/OUTPUT_3*
X89535000Y-83235000D02*
X92968400Y-83235000D01*
X92968400Y-83235000D02*
X92968400Y-85875500D01*
X92968400Y-85875500D02*
X94261200Y-87168300D01*
X94261200Y-87168300D02*
X95775000Y-87168300D01*
D35*
G04 #@! TO.N,/backlight_3x2/low_voltage_outputs/OUTPUT_3*
X136931400Y-70485000D02*
X136931400Y-71539100D01*
X136931400Y-71539100D02*
X136308700Y-72161800D01*
X136308700Y-72161800D02*
X136308700Y-74588600D01*
X136308700Y-74588600D02*
X134422600Y-76474700D01*
G04 #@! TO.N,/backlight_3x2/low_voltage_outputs/OUTPUT_2*
X136931400Y-74295000D02*
X136931400Y-75349100D01*
X136931400Y-75349100D02*
X136909900Y-75349100D01*
X136909900Y-75349100D02*
X135758300Y-76500700D01*
G04 #@! TO.N,/backlight_3x2/low_voltage_outputs/OUTPUT_1*
X136283700Y-103505000D02*
X136283700Y-103343100D01*
X136283700Y-103343100D02*
X135344900Y-102404300D01*
X135344900Y-102404300D02*
X132436000Y-102404300D01*
X132436000Y-102404300D02*
X130620100Y-100588400D01*
X130620100Y-100588400D02*
X130620100Y-100411000D01*
X136931400Y-103505000D02*
X136283700Y-103505000D01*
G04 #@! TO.N,/backlight_3x2/low_voltage_outputs/OUTPUT_0*
X136283700Y-107315000D02*
X136283700Y-107476900D01*
X136283700Y-107476900D02*
X134741900Y-109018700D01*
X134741900Y-109018700D02*
X129147300Y-109018700D01*
X129147300Y-109018700D02*
X127582100Y-107453500D01*
X127582100Y-107453500D02*
X127582100Y-105306900D01*
X127582100Y-105306900D02*
X123562600Y-101287400D01*
X123562600Y-101287400D02*
X123562600Y-94830500D01*
X136931400Y-107315000D02*
X136283700Y-107315000D01*
D34*
G04 #@! TO.N,/backlight_3x2/C_8*
X129068600Y-83185000D02*
X129349800Y-83185000D01*
X129349800Y-83185000D02*
X130166600Y-82368200D01*
X130166600Y-82368200D02*
X130166600Y-80290900D01*
X130166600Y-80290900D02*
X131996900Y-78460600D01*
X131996900Y-78460600D02*
X132080000Y-78460600D01*
X132080000Y-77470000D02*
X132080000Y-78460600D01*
X127840000Y-83185000D02*
X129068600Y-83185000D01*
X132080000Y-77470000D02*
X132080000Y-76479400D01*
X149540000Y-76565000D02*
X148911400Y-76565000D01*
X148911400Y-76565000D02*
X147815300Y-75468900D01*
X147815300Y-75468900D02*
X144936900Y-75468900D01*
X144936900Y-75468900D02*
X138949300Y-69481300D01*
X138949300Y-69481300D02*
X134354100Y-69481300D01*
X134354100Y-69481300D02*
X132744400Y-71091000D01*
X132744400Y-71091000D02*
X132744400Y-75815000D01*
X132744400Y-75815000D02*
X132080000Y-76479400D01*
G04 #@! TO.N,/backlight_3x2/C_9*
X127840000Y-81915000D02*
X129068600Y-81915000D01*
X129367700Y-82430200D02*
X129068600Y-82131100D01*
X129068600Y-82131100D02*
X129068600Y-81915000D01*
X132080000Y-100330000D02*
X132080000Y-101320600D01*
X147640000Y-101235000D02*
X147011400Y-101235000D01*
X147011400Y-101235000D02*
X146925800Y-101320600D01*
X146925800Y-101320600D02*
X132080000Y-101320600D01*
G04 #@! TO.N,/backlight_3x2/C_0*
X127840000Y-100965000D02*
X129068600Y-100965000D01*
X129068600Y-100965000D02*
X129068600Y-100710200D01*
X129068600Y-100710200D02*
X131988800Y-97790000D01*
X131988800Y-97790000D02*
X132080000Y-97790000D01*
X113893600Y-98679000D02*
X114782600Y-97790000D01*
X112395000Y-98679000D02*
X113893600Y-98679000D01*
G04 #@! TO.N,/backlight_3x2/C_1*
X106273600Y-98679000D02*
X108938700Y-96013900D01*
X108938700Y-96013900D02*
X109103500Y-96013900D01*
X104775000Y-98679000D02*
X106273600Y-98679000D01*
X132080000Y-95250000D02*
X132080000Y-96240600D01*
X127840000Y-99695000D02*
X129068600Y-99695000D01*
X129068600Y-99695000D02*
X129068600Y-99176600D01*
X129068600Y-99176600D02*
X132004600Y-96240600D01*
X132004600Y-96240600D02*
X132080000Y-96240600D01*
G04 #@! TO.N,/backlight_3x2/C_2*
X98653600Y-98679000D02*
X99492100Y-97840500D01*
X99492100Y-97840500D02*
X106230800Y-97840500D01*
X106230800Y-97840500D02*
X108697800Y-95373500D01*
X97155000Y-98679000D02*
X98653600Y-98679000D01*
X132080000Y-92710000D02*
X132080000Y-93700600D01*
X127840000Y-98425000D02*
X129068600Y-98425000D01*
X129068600Y-98425000D02*
X130707900Y-96785700D01*
X130707900Y-96785700D02*
X130707900Y-94993600D01*
X130707900Y-94993600D02*
X132000900Y-93700600D01*
X132000900Y-93700600D02*
X132080000Y-93700600D01*
G04 #@! TO.N,/backlight_3x2/C_3*
X89535000Y-97815400D02*
X89916600Y-97433800D01*
X89916600Y-97433800D02*
X105792000Y-97433800D01*
X105792000Y-97433800D02*
X108385000Y-94840800D01*
X108385000Y-94840800D02*
X109233800Y-94840800D01*
X89535000Y-98679000D02*
X89535000Y-97815400D01*
X132080000Y-91160600D02*
X132007600Y-91160600D01*
X132007600Y-91160600D02*
X130860500Y-92307700D01*
X130860500Y-92307700D02*
X130860500Y-94172000D01*
X130860500Y-94172000D02*
X130250300Y-94782200D01*
X130250300Y-94782200D02*
X130250300Y-95973300D01*
X130250300Y-95973300D02*
X129068600Y-97155000D01*
X127840000Y-97155000D02*
X129068600Y-97155000D01*
X132080000Y-90170000D02*
X132080000Y-91160600D01*
G04 #@! TO.N,/backlight_3x2/C_4*
X127840000Y-95885000D02*
X126611400Y-95885000D01*
X134848600Y-107315000D02*
X134226300Y-107315000D01*
X134226300Y-107315000D02*
X132853200Y-108688100D01*
X132853200Y-108688100D02*
X129361900Y-108688100D01*
X129361900Y-108688100D02*
X128192100Y-107518300D01*
X128192100Y-107518300D02*
X128192100Y-105549900D01*
X128192100Y-105549900D02*
X129043600Y-104698400D01*
X129043600Y-104698400D02*
X129043600Y-103078900D01*
X129043600Y-103078900D02*
X128966100Y-103001400D01*
X128966100Y-103001400D02*
X127000400Y-103001400D01*
X127000400Y-103001400D02*
X126611400Y-102612400D01*
X126611400Y-102612400D02*
X126611400Y-95885000D01*
X129068600Y-95885000D02*
X129068600Y-95046700D01*
X129068600Y-95046700D02*
X130555400Y-93559900D01*
X130555400Y-93559900D02*
X130555400Y-90062100D01*
X130555400Y-90062100D02*
X131996900Y-88620600D01*
X131996900Y-88620600D02*
X132080000Y-88620600D01*
X132080000Y-87630000D02*
X132080000Y-88620600D01*
X127840000Y-95885000D02*
X129068600Y-95885000D01*
G04 #@! TO.N,/backlight_3x2/C_5*
X134848600Y-103505000D02*
X132970700Y-103505000D01*
X132970700Y-103505000D02*
X130057900Y-100592200D01*
X130057900Y-100592200D02*
X130057900Y-100236000D01*
X130057900Y-100236000D02*
X130960800Y-99333100D01*
X130960800Y-99333100D02*
X132164600Y-99333100D01*
X132164600Y-99333100D02*
X133302000Y-98195700D01*
X133302000Y-98195700D02*
X133302000Y-87180200D01*
X133302000Y-87180200D02*
X132202400Y-86080600D01*
X132202400Y-86080600D02*
X132080000Y-86080600D01*
X132080000Y-85090000D02*
X132080000Y-86080600D01*
X127840000Y-94615000D02*
X129068600Y-94615000D01*
X132080000Y-86080600D02*
X131956200Y-86080600D01*
X131956200Y-86080600D02*
X130223000Y-87813800D01*
X130223000Y-87813800D02*
X130223000Y-93460600D01*
X130223000Y-93460600D02*
X129068600Y-94615000D01*
G04 #@! TO.N,/backlight_3x2/C_6*
X134226300Y-74295000D02*
X133901600Y-74619700D01*
X133901600Y-74619700D02*
X133901600Y-79820900D01*
X133901600Y-79820900D02*
X132163100Y-81559400D01*
X132163100Y-81559400D02*
X132080000Y-81559400D01*
X132080000Y-82550000D02*
X132080000Y-81559400D01*
X134848600Y-74295000D02*
X134226300Y-74295000D01*
X129068600Y-93345000D02*
X129674600Y-92739000D01*
X129674600Y-92739000D02*
X129674600Y-85862900D01*
X129674600Y-85862900D02*
X131996900Y-83540600D01*
X131996900Y-83540600D02*
X132080000Y-83540600D01*
X132080000Y-82550000D02*
X132080000Y-83540600D01*
X127840000Y-93345000D02*
X129068600Y-93345000D01*
G04 #@! TO.N,/backlight_3x2/C_7*
X134226300Y-70485000D02*
X133596500Y-71114800D01*
X133596500Y-71114800D02*
X133596500Y-77586000D01*
X133596500Y-77586000D02*
X132163100Y-79019400D01*
X132163100Y-79019400D02*
X132080000Y-79019400D01*
X132080000Y-80010000D02*
X132080000Y-81000600D01*
X127840000Y-92075000D02*
X129068600Y-92075000D01*
X129068600Y-92075000D02*
X129068600Y-83928900D01*
X129068600Y-83928900D02*
X131996900Y-81000600D01*
X131996900Y-81000600D02*
X132080000Y-81000600D01*
X132080000Y-80010000D02*
X132080000Y-79019400D01*
X134848600Y-70485000D02*
X134226300Y-70485000D01*
G04 #@! TO.N,/CHANNEL_9*
X117475000Y-105240800D02*
X117589500Y-105126300D01*
X117589500Y-105126300D02*
X118611600Y-105126300D01*
X118611600Y-105126300D02*
X120766700Y-102971200D01*
X120766700Y-102971200D02*
X120766700Y-91753800D01*
X120766700Y-91753800D02*
X119386500Y-90373600D01*
X119386500Y-90373600D02*
X117738600Y-90373600D01*
X117738600Y-90373600D02*
X117652400Y-90287400D01*
X117652400Y-90287400D02*
X117652400Y-87531700D01*
X117652400Y-87531700D02*
X118356600Y-86827500D01*
X118356600Y-86827500D02*
X119061000Y-86827500D01*
X119061000Y-86827500D02*
X119743600Y-86144900D01*
X119743600Y-86144900D02*
X119743600Y-85524400D01*
X119743600Y-85524400D02*
X120048700Y-85219300D01*
X120048700Y-85219300D02*
X120048700Y-83465100D01*
X120048700Y-83465100D02*
X119768600Y-83185000D01*
X118540000Y-83185000D02*
X119768600Y-83185000D01*
G04 #@! TO.N,/CHANNEL_8*
X118540000Y-84455000D02*
X117311400Y-84455000D01*
X108757200Y-97117000D02*
X100965000Y-104909200D01*
X100965000Y-104909200D02*
X100965000Y-106680000D01*
X117311400Y-84455000D02*
X117311400Y-84493600D01*
X117311400Y-84493600D02*
X116995300Y-84809700D01*
G04 #@! TO.N,/CHANNEL_7*
X103505000Y-106680000D02*
X104660700Y-106680000D01*
X118540000Y-93345000D02*
X118179800Y-93345000D01*
X118179800Y-93345000D02*
X117336500Y-94188300D01*
X117336500Y-94188300D02*
X117336500Y-94999300D01*
X117336500Y-94999300D02*
X117455800Y-95118600D01*
X117455800Y-95118600D02*
X119366400Y-95118600D01*
X119366400Y-95118600D02*
X119743500Y-95495700D01*
X119743500Y-95495700D02*
X119743500Y-100083700D01*
X119743500Y-100083700D02*
X119560000Y-100267200D01*
X119560000Y-100267200D02*
X115798400Y-100267200D01*
X115798400Y-100267200D02*
X115610900Y-100079700D01*
X115610900Y-100079700D02*
X110644600Y-100079700D01*
X110644600Y-100079700D02*
X104660700Y-106063600D01*
X104660700Y-106063600D02*
X104660700Y-106680000D01*
G04 #@! TO.N,/CHANNEL_6*
X106045000Y-106680000D02*
X107200700Y-106680000D01*
X118540000Y-94615000D02*
X119768600Y-94615000D01*
X119768600Y-94615000D02*
X120075400Y-94921800D01*
X120075400Y-94921800D02*
X120075400Y-101061600D01*
X120075400Y-101061600D02*
X119437800Y-101699200D01*
X119437800Y-101699200D02*
X117336400Y-101699200D01*
X117336400Y-101699200D02*
X115647500Y-103388100D01*
X115647500Y-103388100D02*
X110399100Y-103388100D01*
X110399100Y-103388100D02*
X108834700Y-104952500D01*
X108834700Y-104952500D02*
X108288500Y-104952500D01*
X108288500Y-104952500D02*
X107200700Y-106040300D01*
X107200700Y-106040300D02*
X107200700Y-106680000D01*
G04 #@! TO.N,/CHANNEL_5*
X119070300Y-91231800D02*
X119314600Y-91231800D01*
X119314600Y-91231800D02*
X119770900Y-91688100D01*
X119770900Y-91688100D02*
X119770900Y-92502200D01*
X119770900Y-92502200D02*
X119440400Y-92832700D01*
X119440400Y-92832700D02*
X117444500Y-92832700D01*
X117444500Y-92832700D02*
X117006300Y-93270900D01*
X117006300Y-93270900D02*
X117006300Y-95579900D01*
X117006300Y-95579900D02*
X117311400Y-95885000D01*
X118540000Y-95885000D02*
X117311400Y-95885000D01*
X118745000Y-71120000D02*
X119900700Y-71120000D01*
X123465400Y-88061800D02*
X123465400Y-75840400D01*
X123465400Y-75840400D02*
X119900700Y-72275700D01*
X119900700Y-72275700D02*
X119900700Y-71120000D01*
G04 #@! TO.N,/CHANNEL_4*
X116205000Y-71120000D02*
X116205000Y-72618600D01*
X118540000Y-97155000D02*
X117311400Y-97155000D01*
X117311400Y-97155000D02*
X116051200Y-95894800D01*
X116051200Y-95894800D02*
X116051200Y-89566100D01*
X116051200Y-89566100D02*
X116348900Y-89268400D01*
X116348900Y-89268400D02*
X116348900Y-72762500D01*
X116348900Y-72762500D02*
X116205000Y-72618600D01*
G04 #@! TO.N,/CHANNEL_3*
X108585000Y-71120000D02*
X108585000Y-72618600D01*
X118540000Y-98425000D02*
X117311400Y-98425000D01*
X117311400Y-98425000D02*
X115746100Y-96859700D01*
X115746100Y-96859700D02*
X115746100Y-89287300D01*
X115746100Y-89287300D02*
X115820200Y-89213200D01*
X115820200Y-89213200D02*
X115820200Y-79726200D01*
X115820200Y-79726200D02*
X108712600Y-72618600D01*
X108712600Y-72618600D02*
X108585000Y-72618600D01*
G04 #@! TO.N,/CHANNEL_2*
X107200700Y-71120000D02*
X107200700Y-71723200D01*
X107200700Y-71723200D02*
X108938900Y-73461400D01*
X108938900Y-73461400D02*
X109011800Y-73461400D01*
X109011800Y-73461400D02*
X115512300Y-79961900D01*
X115512300Y-79961900D02*
X115512300Y-89089600D01*
X115512300Y-89089600D02*
X115441000Y-89160900D01*
X115441000Y-89160900D02*
X115441000Y-97824600D01*
X115441000Y-97824600D02*
X117311400Y-99695000D01*
X106045000Y-71120000D02*
X107200700Y-71120000D01*
X118540000Y-99695000D02*
X117311400Y-99695000D01*
G04 #@! TO.N,/CHANNEL_1*
X117311400Y-100965000D02*
X115230400Y-103046000D01*
X115230400Y-103046000D02*
X109927800Y-103046000D01*
X109927800Y-103046000D02*
X109927800Y-103046100D01*
X109927800Y-103046100D02*
X108580700Y-104393200D01*
X118540000Y-100965000D02*
X117311400Y-100965000D01*
G04 #@! TO.N,/CHANNEL_0*
X117311400Y-102235000D02*
X115628300Y-103918100D01*
X115628300Y-103918100D02*
X111169200Y-103918100D01*
X118540000Y-102235000D02*
X117311400Y-102235000D01*
G04 #@! TO.N,/~ENABLE*
X119768600Y-103505000D02*
X120380600Y-102893000D01*
X120380600Y-102893000D02*
X120380600Y-91799400D01*
X120380600Y-91799400D02*
X119261500Y-90680300D01*
X119261500Y-90680300D02*
X117613800Y-90680300D01*
X117613800Y-90680300D02*
X117347300Y-90413800D01*
X117347300Y-90413800D02*
X117347300Y-85759300D01*
X117347300Y-85759300D02*
X117381600Y-85725000D01*
X98425000Y-71120000D02*
X99580700Y-71120000D01*
X118540000Y-85725000D02*
X118865800Y-85725000D01*
X118865800Y-85725000D02*
X119743600Y-84847200D01*
X119743600Y-84847200D02*
X119743600Y-83974000D01*
X119743600Y-83974000D02*
X119664100Y-83894500D01*
X119664100Y-83894500D02*
X117627300Y-83894500D01*
X117627300Y-83894500D02*
X117336500Y-83603700D01*
X117336500Y-83603700D02*
X117336500Y-70249700D01*
X117336500Y-70249700D02*
X116694700Y-69607900D01*
X116694700Y-69607900D02*
X100476400Y-69607900D01*
X100476400Y-69607900D02*
X99580700Y-70503600D01*
X99580700Y-70503600D02*
X99580700Y-71120000D01*
X118014600Y-85725000D02*
X118540000Y-85725000D01*
X118014600Y-85725000D02*
X117381600Y-85725000D01*
X118540000Y-103505000D02*
X119768600Y-103505000D01*
G04 #@! TO.N,/backlight_3x2/backlight_outputs/ir/NPN*
X148590000Y-74565000D02*
X149218600Y-74565000D01*
X149218600Y-74565000D02*
X149218600Y-71713600D01*
X149218600Y-71713600D02*
X149463100Y-71469100D01*
G04 #@! TO.N,/backlight_3x2/backlight_outputs/visible/NPN*
X148590000Y-103235000D02*
X148590000Y-103913600D01*
X148590000Y-103913600D02*
X148742100Y-104065700D01*
X148742100Y-104065700D02*
X148742100Y-104209500D01*
G04 #@! TD*
D35*
G04 #@! TO.N,GND*
G36*
X155765501Y-83669880D02*
X155645448Y-83380048D01*
X154989952Y-82724552D01*
X154133506Y-82369800D01*
X153206494Y-82369800D01*
X152350048Y-82724552D01*
X151694552Y-83380048D01*
X151339800Y-84236494D01*
X151339800Y-85163506D01*
X151694552Y-86019952D01*
X152350048Y-86675448D01*
X153206494Y-87030200D01*
X154133506Y-87030200D01*
X154989952Y-86675448D01*
X155645448Y-86019952D01*
X155765501Y-85730120D01*
X155765500Y-92069880D01*
X155645448Y-91780048D01*
X154989952Y-91124552D01*
X154133506Y-90769800D01*
X153206494Y-90769800D01*
X152350048Y-91124552D01*
X151694552Y-91780048D01*
X151339800Y-92636494D01*
X151339800Y-93563506D01*
X151694552Y-94419952D01*
X152350048Y-95075448D01*
X153206494Y-95430200D01*
X154133506Y-95430200D01*
X154989952Y-95075448D01*
X155645448Y-94419952D01*
X155765500Y-94130120D01*
X155765500Y-109410500D01*
X134978469Y-109410500D01*
X135071523Y-109348323D01*
X135097032Y-109310146D01*
X136216136Y-108191042D01*
X136226658Y-108243938D01*
X136299639Y-108353161D01*
X136408862Y-108426142D01*
X136537700Y-108451769D01*
X137325100Y-108451769D01*
X137453938Y-108426142D01*
X137563161Y-108353161D01*
X137636142Y-108243938D01*
X137661769Y-108115100D01*
X137661769Y-106514900D01*
X137636142Y-106386062D01*
X137563161Y-106276839D01*
X137453938Y-106203858D01*
X137325100Y-106178231D01*
X136537700Y-106178231D01*
X136408862Y-106203858D01*
X136299639Y-106276839D01*
X136226658Y-106386062D01*
X136201031Y-106514900D01*
X136201031Y-106865287D01*
X136105309Y-106884327D01*
X135954077Y-106985377D01*
X135853027Y-107136609D01*
X135822142Y-107291880D01*
X135578969Y-107535053D01*
X135578969Y-106514900D01*
X135553342Y-106386062D01*
X135480361Y-106276839D01*
X135371138Y-106203858D01*
X135242300Y-106178231D01*
X134454900Y-106178231D01*
X134326062Y-106203858D01*
X134216839Y-106276839D01*
X134143858Y-106386062D01*
X134118231Y-106514900D01*
X134118231Y-106896237D01*
X134057820Y-106908254D01*
X133951041Y-106979601D01*
X133951040Y-106979602D01*
X133914990Y-107003690D01*
X133890902Y-107039740D01*
X132674343Y-108256300D01*
X131580145Y-108256300D01*
X131962246Y-107874199D01*
X132283200Y-107099347D01*
X132283200Y-106260653D01*
X131962246Y-105485801D01*
X131612543Y-105136098D01*
X142713000Y-105136098D01*
X142713000Y-105683902D01*
X142922636Y-106190008D01*
X143309992Y-106577364D01*
X143816098Y-106787000D01*
X144363902Y-106787000D01*
X144870008Y-106577364D01*
X145257364Y-106190008D01*
X145467000Y-105683902D01*
X145467000Y-105136098D01*
X151713000Y-105136098D01*
X151713000Y-105683902D01*
X151922636Y-106190008D01*
X152309992Y-106577364D01*
X152816098Y-106787000D01*
X153363902Y-106787000D01*
X153870008Y-106577364D01*
X154257364Y-106190008D01*
X154467000Y-105683902D01*
X154467000Y-105136098D01*
X154257364Y-104629992D01*
X153870008Y-104242636D01*
X153363902Y-104033000D01*
X152816098Y-104033000D01*
X152309992Y-104242636D01*
X151922636Y-104629992D01*
X151713000Y-105136098D01*
X145467000Y-105136098D01*
X145257364Y-104629992D01*
X144870008Y-104242636D01*
X144363902Y-104033000D01*
X143816098Y-104033000D01*
X143309992Y-104242636D01*
X142922636Y-104629992D01*
X142713000Y-105136098D01*
X131612543Y-105136098D01*
X131369199Y-104892754D01*
X130594347Y-104571800D01*
X129755653Y-104571800D01*
X129481282Y-104685448D01*
X129475400Y-104655878D01*
X129475400Y-103121426D01*
X129483859Y-103078900D01*
X129464456Y-102981354D01*
X129450346Y-102910420D01*
X129401868Y-102837867D01*
X129475000Y-102661310D01*
X129475000Y-102520750D01*
X129316250Y-102362000D01*
X127967000Y-102362000D01*
X127967000Y-102382000D01*
X127713000Y-102382000D01*
X127713000Y-102362000D01*
X127693000Y-102362000D01*
X127693000Y-102108000D01*
X127713000Y-102108000D01*
X127713000Y-102088000D01*
X127967000Y-102088000D01*
X127967000Y-102108000D01*
X129316250Y-102108000D01*
X129475000Y-101949250D01*
X129475000Y-101808690D01*
X129378327Y-101575301D01*
X129199698Y-101396673D01*
X129171170Y-101384856D01*
X129237080Y-101371746D01*
X129379910Y-101276310D01*
X129475346Y-101133480D01*
X129508859Y-100965000D01*
X129500400Y-100922474D01*
X129500400Y-100889057D01*
X129647442Y-100742015D01*
X129651154Y-100760679D01*
X129746590Y-100903510D01*
X129782643Y-100927600D01*
X132635300Y-103780257D01*
X132659390Y-103816310D01*
X132802220Y-103911746D01*
X132928174Y-103936800D01*
X132928177Y-103936800D01*
X132970699Y-103945258D01*
X133013221Y-103936800D01*
X134118231Y-103936800D01*
X134118231Y-104305100D01*
X134143858Y-104433938D01*
X134216839Y-104543161D01*
X134326062Y-104616142D01*
X134454900Y-104641769D01*
X135242300Y-104641769D01*
X135371138Y-104616142D01*
X135480361Y-104543161D01*
X135553342Y-104433938D01*
X135578969Y-104305100D01*
X135578969Y-103284947D01*
X135822142Y-103528120D01*
X135853027Y-103683391D01*
X135923769Y-103789264D01*
X135954077Y-103834623D01*
X136105309Y-103935673D01*
X136201031Y-103954713D01*
X136201031Y-104305100D01*
X136226658Y-104433938D01*
X136299639Y-104543161D01*
X136408862Y-104616142D01*
X136537700Y-104641769D01*
X137325100Y-104641769D01*
X137453938Y-104616142D01*
X137563161Y-104543161D01*
X137636142Y-104433938D01*
X137661769Y-104305100D01*
X137661769Y-102785000D01*
X147853331Y-102785000D01*
X147853331Y-103685000D01*
X147878958Y-103813838D01*
X147951939Y-103923061D01*
X148061162Y-103996042D01*
X148124254Y-104008591D01*
X148094400Y-104080664D01*
X148094400Y-104338336D01*
X148193007Y-104576392D01*
X148375208Y-104758593D01*
X148613264Y-104857200D01*
X148870936Y-104857200D01*
X149108992Y-104758593D01*
X149291193Y-104576392D01*
X149389800Y-104338336D01*
X149389800Y-104080664D01*
X149291193Y-103842608D01*
X149285573Y-103836988D01*
X149301042Y-103813838D01*
X149326669Y-103685000D01*
X149326669Y-102785000D01*
X149301042Y-102656162D01*
X149228061Y-102546939D01*
X149118838Y-102473958D01*
X148990000Y-102448331D01*
X148190000Y-102448331D01*
X148061162Y-102473958D01*
X147951939Y-102546939D01*
X147878958Y-102656162D01*
X147853331Y-102785000D01*
X137661769Y-102785000D01*
X137661769Y-102704900D01*
X137636142Y-102576062D01*
X137563161Y-102466839D01*
X137453938Y-102393858D01*
X137325100Y-102368231D01*
X136537700Y-102368231D01*
X136408862Y-102393858D01*
X136299639Y-102466839D01*
X136226658Y-102576062D01*
X136216136Y-102628958D01*
X135700032Y-102112854D01*
X135674523Y-102074677D01*
X135523291Y-101973627D01*
X135389930Y-101947100D01*
X135344900Y-101938143D01*
X135299870Y-101947100D01*
X132625378Y-101947100D01*
X132430678Y-101752400D01*
X146883278Y-101752400D01*
X146918116Y-101759330D01*
X146928958Y-101813838D01*
X147001939Y-101923061D01*
X147111162Y-101996042D01*
X147240000Y-102021669D01*
X148040000Y-102021669D01*
X148168838Y-101996042D01*
X148278061Y-101923061D01*
X148351042Y-101813838D01*
X148376669Y-101685000D01*
X148376669Y-101520750D01*
X148505000Y-101520750D01*
X148505000Y-101811310D01*
X148601673Y-102044699D01*
X148780302Y-102223327D01*
X149013691Y-102320000D01*
X149254250Y-102320000D01*
X149413000Y-102161250D01*
X149413000Y-101362000D01*
X149667000Y-101362000D01*
X149667000Y-102161250D01*
X149825750Y-102320000D01*
X150066309Y-102320000D01*
X150299698Y-102223327D01*
X150478327Y-102044699D01*
X150575000Y-101811310D01*
X150575000Y-101520750D01*
X150416250Y-101362000D01*
X149667000Y-101362000D01*
X149413000Y-101362000D01*
X148663750Y-101362000D01*
X148505000Y-101520750D01*
X148376669Y-101520750D01*
X148376669Y-100785000D01*
X148351545Y-100658690D01*
X148505000Y-100658690D01*
X148505000Y-100949250D01*
X148663750Y-101108000D01*
X149413000Y-101108000D01*
X149413000Y-100308750D01*
X149667000Y-100308750D01*
X149667000Y-101108000D01*
X150416250Y-101108000D01*
X150575000Y-100949250D01*
X150575000Y-100658690D01*
X150478327Y-100425301D01*
X150299698Y-100246673D01*
X150066309Y-100150000D01*
X149825750Y-100150000D01*
X149667000Y-100308750D01*
X149413000Y-100308750D01*
X149254250Y-100150000D01*
X149013691Y-100150000D01*
X148780302Y-100246673D01*
X148601673Y-100425301D01*
X148505000Y-100658690D01*
X148351545Y-100658690D01*
X148351042Y-100656162D01*
X148278061Y-100546939D01*
X148168838Y-100473958D01*
X148040000Y-100448331D01*
X147240000Y-100448331D01*
X147111162Y-100473958D01*
X147001939Y-100546939D01*
X146928958Y-100656162D01*
X146903331Y-100785000D01*
X146903331Y-100816237D01*
X146842920Y-100828254D01*
X146752307Y-100888800D01*
X138676241Y-100888800D01*
X138753260Y-100747277D01*
X138768220Y-100673070D01*
X138645720Y-100457000D01*
X137287000Y-100457000D01*
X137287000Y-100477000D01*
X137033000Y-100477000D01*
X137033000Y-100457000D01*
X135674280Y-100457000D01*
X135551780Y-100673070D01*
X135566740Y-100747277D01*
X135643759Y-100888800D01*
X133274199Y-100888800D01*
X133362829Y-100756155D01*
X133447597Y-100330000D01*
X133362829Y-99903845D01*
X133121432Y-99542568D01*
X132788348Y-99320009D01*
X133577258Y-98531099D01*
X133613310Y-98507010D01*
X133708746Y-98364180D01*
X133733800Y-98238226D01*
X133733800Y-98238225D01*
X133742259Y-98195700D01*
X133733800Y-98153174D01*
X133733800Y-98133070D01*
X135551780Y-98133070D01*
X135566740Y-98207277D01*
X135828370Y-98688026D01*
X136254059Y-99032059D01*
X136348723Y-99060000D01*
X136254059Y-99087941D01*
X135828370Y-99431974D01*
X135566740Y-99912723D01*
X135551780Y-99986930D01*
X135674280Y-100203000D01*
X137033000Y-100203000D01*
X137033000Y-97917000D01*
X137287000Y-97917000D01*
X137287000Y-100203000D01*
X138645720Y-100203000D01*
X138768220Y-99986930D01*
X138753260Y-99912723D01*
X138491630Y-99431974D01*
X138065941Y-99087941D01*
X137971277Y-99060000D01*
X138065941Y-99032059D01*
X138491630Y-98688026D01*
X138753260Y-98207277D01*
X138768220Y-98133070D01*
X138645720Y-97917000D01*
X137287000Y-97917000D01*
X137033000Y-97917000D01*
X135674280Y-97917000D01*
X135551780Y-98133070D01*
X133733800Y-98133070D01*
X133733800Y-95593070D01*
X135551780Y-95593070D01*
X135566740Y-95667277D01*
X135828370Y-96148026D01*
X136254059Y-96492059D01*
X136348723Y-96520000D01*
X136254059Y-96547941D01*
X135828370Y-96891974D01*
X135566740Y-97372723D01*
X135551780Y-97446930D01*
X135674280Y-97663000D01*
X137033000Y-97663000D01*
X137033000Y-95377000D01*
X137287000Y-95377000D01*
X137287000Y-97663000D01*
X138645720Y-97663000D01*
X138653817Y-97648718D01*
X138794059Y-97762059D01*
X139319000Y-97917000D01*
X139573000Y-97917000D01*
X139573000Y-96647000D01*
X139827000Y-96647000D01*
X139827000Y-97917000D01*
X140081000Y-97917000D01*
X140605941Y-97762059D01*
X141031630Y-97418026D01*
X141293260Y-96937277D01*
X141308220Y-96863070D01*
X141185720Y-96647000D01*
X139827000Y-96647000D01*
X139573000Y-96647000D01*
X138214280Y-96647000D01*
X138206183Y-96661282D01*
X138065941Y-96547941D01*
X137971277Y-96520000D01*
X143412403Y-96520000D01*
X143497171Y-96946155D01*
X143738568Y-97307432D01*
X144099845Y-97548829D01*
X144418431Y-97612200D01*
X145141569Y-97612200D01*
X145460155Y-97548829D01*
X145821432Y-97307432D01*
X146062829Y-96946155D01*
X146147597Y-96520000D01*
X146062829Y-96093845D01*
X145821432Y-95732568D01*
X145460155Y-95491171D01*
X145141569Y-95427800D01*
X144418431Y-95427800D01*
X144099845Y-95491171D01*
X143738568Y-95732568D01*
X143497171Y-96093845D01*
X143412403Y-96520000D01*
X137971277Y-96520000D01*
X138065941Y-96492059D01*
X138206183Y-96378718D01*
X138214280Y-96393000D01*
X139573000Y-96393000D01*
X139573000Y-95123000D01*
X139319000Y-95123000D01*
X138794059Y-95277941D01*
X138653817Y-95391282D01*
X138645720Y-95377000D01*
X137287000Y-95377000D01*
X137033000Y-95377000D01*
X135674280Y-95377000D01*
X135551780Y-95593070D01*
X133733800Y-95593070D01*
X133733800Y-93053070D01*
X135551780Y-93053070D01*
X135566740Y-93127277D01*
X135828370Y-93608026D01*
X136254059Y-93952059D01*
X136348723Y-93980000D01*
X136254059Y-94007941D01*
X135828370Y-94351974D01*
X135566740Y-94832723D01*
X135551780Y-94906930D01*
X135674280Y-95123000D01*
X137033000Y-95123000D01*
X137033000Y-92837000D01*
X135674280Y-92837000D01*
X135551780Y-93053070D01*
X133733800Y-93053070D01*
X133733800Y-90513070D01*
X135551780Y-90513070D01*
X135566740Y-90587277D01*
X135828370Y-91068026D01*
X136254059Y-91412059D01*
X136348723Y-91440000D01*
X136254059Y-91467941D01*
X135828370Y-91811974D01*
X135566740Y-92292723D01*
X135551780Y-92366930D01*
X135674280Y-92583000D01*
X137033000Y-92583000D01*
X137033000Y-90297000D01*
X135674280Y-90297000D01*
X135551780Y-90513070D01*
X133733800Y-90513070D01*
X133733800Y-87973070D01*
X135551780Y-87973070D01*
X135566740Y-88047277D01*
X135828370Y-88528026D01*
X136254059Y-88872059D01*
X136348723Y-88900000D01*
X136254059Y-88927941D01*
X135828370Y-89271974D01*
X135566740Y-89752723D01*
X135551780Y-89826930D01*
X135674280Y-90043000D01*
X137033000Y-90043000D01*
X137033000Y-87757000D01*
X135674280Y-87757000D01*
X135551780Y-87973070D01*
X133733800Y-87973070D01*
X133733800Y-87222721D01*
X133742258Y-87180199D01*
X133733800Y-87137677D01*
X133733800Y-87137674D01*
X133708746Y-87011720D01*
X133613310Y-86868890D01*
X133577257Y-86844800D01*
X132814784Y-86082327D01*
X133121432Y-85877432D01*
X133362829Y-85516155D01*
X133379355Y-85433070D01*
X135551780Y-85433070D01*
X135566740Y-85507277D01*
X135828370Y-85988026D01*
X136254059Y-86332059D01*
X136348723Y-86360000D01*
X136254059Y-86387941D01*
X135828370Y-86731974D01*
X135566740Y-87212723D01*
X135551780Y-87286930D01*
X135674280Y-87503000D01*
X137033000Y-87503000D01*
X137033000Y-85217000D01*
X135674280Y-85217000D01*
X135551780Y-85433070D01*
X133379355Y-85433070D01*
X133447597Y-85090000D01*
X133362829Y-84663845D01*
X133121432Y-84302568D01*
X132760155Y-84061171D01*
X132441569Y-83997800D01*
X132150358Y-83997800D01*
X132188976Y-83959182D01*
X132248480Y-83947346D01*
X132391310Y-83851910D01*
X132486746Y-83709080D01*
X132502459Y-83630088D01*
X132760155Y-83578829D01*
X133121432Y-83337432D01*
X133362829Y-82976155D01*
X133379355Y-82893070D01*
X135551780Y-82893070D01*
X135566740Y-82967277D01*
X135828370Y-83448026D01*
X136254059Y-83792059D01*
X136348723Y-83820000D01*
X136254059Y-83847941D01*
X135828370Y-84191974D01*
X135566740Y-84672723D01*
X135551780Y-84746930D01*
X135674280Y-84963000D01*
X137033000Y-84963000D01*
X137033000Y-82677000D01*
X137287000Y-82677000D01*
X137287000Y-84963000D01*
X137307000Y-84963000D01*
X137307000Y-85217000D01*
X137287000Y-85217000D01*
X137287000Y-87503000D01*
X137307000Y-87503000D01*
X137307000Y-87757000D01*
X137287000Y-87757000D01*
X137287000Y-90043000D01*
X137307000Y-90043000D01*
X137307000Y-90297000D01*
X137287000Y-90297000D01*
X137287000Y-92583000D01*
X137307000Y-92583000D01*
X137307000Y-92837000D01*
X137287000Y-92837000D01*
X137287000Y-95123000D01*
X138645720Y-95123000D01*
X138768220Y-94906930D01*
X138753260Y-94832723D01*
X138491630Y-94351974D01*
X138065941Y-94007941D01*
X137971277Y-93980000D01*
X138065941Y-93952059D01*
X138332213Y-93736863D01*
X138348916Y-93799696D01*
X138770524Y-94519870D01*
X139435638Y-95023882D01*
X139827000Y-95126220D01*
X139827000Y-96393000D01*
X141185720Y-96393000D01*
X141308220Y-96176930D01*
X141293260Y-96102723D01*
X141031630Y-95621974D01*
X140605941Y-95277941D01*
X140460457Y-95235000D01*
X140743000Y-95235000D01*
X140743000Y-93227000D01*
X140997000Y-93227000D01*
X140997000Y-95235000D01*
X141497000Y-95235000D01*
X142304362Y-95023882D01*
X142969476Y-94519870D01*
X143391084Y-93799696D01*
X143455113Y-93558833D01*
X143342165Y-93227000D01*
X140997000Y-93227000D01*
X140743000Y-93227000D01*
X140723000Y-93227000D01*
X140723000Y-93100000D01*
X144003945Y-93100000D01*
X144145990Y-93814108D01*
X144550500Y-94419500D01*
X145155892Y-94824010D01*
X145689745Y-94930200D01*
X147050255Y-94930200D01*
X147584108Y-94824010D01*
X148189500Y-94419500D01*
X148594010Y-93814108D01*
X148736055Y-93100000D01*
X148594010Y-92385892D01*
X148189500Y-91780500D01*
X147584108Y-91375990D01*
X147050255Y-91269800D01*
X145689745Y-91269800D01*
X145155892Y-91375990D01*
X144550500Y-91780500D01*
X144145990Y-92385892D01*
X144003945Y-93100000D01*
X140723000Y-93100000D01*
X140723000Y-92973000D01*
X140743000Y-92973000D01*
X140743000Y-89027000D01*
X140997000Y-89027000D01*
X140997000Y-92973000D01*
X143342165Y-92973000D01*
X143455113Y-92641167D01*
X143391084Y-92400304D01*
X142969476Y-91680130D01*
X142304362Y-91176118D01*
X141630848Y-91000000D01*
X142304362Y-90823882D01*
X142969476Y-90319870D01*
X143391084Y-89599696D01*
X143455113Y-89358833D01*
X143342165Y-89027000D01*
X140997000Y-89027000D01*
X140743000Y-89027000D01*
X138397835Y-89027000D01*
X138352676Y-89159674D01*
X138065941Y-88927941D01*
X137971277Y-88900000D01*
X144003945Y-88900000D01*
X144145990Y-89614108D01*
X144550500Y-90219500D01*
X145155892Y-90624010D01*
X145689745Y-90730200D01*
X147050255Y-90730200D01*
X147584108Y-90624010D01*
X148189500Y-90219500D01*
X148594010Y-89614108D01*
X148736055Y-88900000D01*
X148594010Y-88185892D01*
X148189500Y-87580500D01*
X147584108Y-87175990D01*
X147050255Y-87069800D01*
X145689745Y-87069800D01*
X145155892Y-87175990D01*
X144550500Y-87580500D01*
X144145990Y-88185892D01*
X144003945Y-88900000D01*
X137971277Y-88900000D01*
X138065941Y-88872059D01*
X138352676Y-88640326D01*
X138397835Y-88773000D01*
X140743000Y-88773000D01*
X140743000Y-84827000D01*
X140997000Y-84827000D01*
X140997000Y-88773000D01*
X143342165Y-88773000D01*
X143455113Y-88441167D01*
X143391084Y-88200304D01*
X142969476Y-87480130D01*
X142304362Y-86976118D01*
X141630848Y-86800000D01*
X142304362Y-86623882D01*
X142969476Y-86119870D01*
X143391084Y-85399696D01*
X143455113Y-85158833D01*
X143342165Y-84827000D01*
X140997000Y-84827000D01*
X140743000Y-84827000D01*
X140723000Y-84827000D01*
X140723000Y-84573000D01*
X140743000Y-84573000D01*
X140743000Y-82565000D01*
X140997000Y-82565000D01*
X140997000Y-84573000D01*
X143342165Y-84573000D01*
X143455113Y-84241167D01*
X143391084Y-84000304D01*
X142969476Y-83280130D01*
X142863734Y-83200000D01*
X144033331Y-83200000D01*
X144033331Y-86200000D01*
X144058958Y-86328838D01*
X144131939Y-86438061D01*
X144241162Y-86511042D01*
X144370000Y-86536669D01*
X148370000Y-86536669D01*
X148498838Y-86511042D01*
X148608061Y-86438061D01*
X148681042Y-86328838D01*
X148706669Y-86200000D01*
X148706669Y-83200000D01*
X148681042Y-83071162D01*
X148608061Y-82961939D01*
X148498838Y-82888958D01*
X148370000Y-82863331D01*
X144370000Y-82863331D01*
X144241162Y-82888958D01*
X144131939Y-82961939D01*
X144058958Y-83071162D01*
X144033331Y-83200000D01*
X142863734Y-83200000D01*
X142304362Y-82776118D01*
X141497000Y-82565000D01*
X140997000Y-82565000D01*
X140743000Y-82565000D01*
X140243000Y-82565000D01*
X139435638Y-82776118D01*
X138770524Y-83280130D01*
X138348916Y-84000304D01*
X138332213Y-84063137D01*
X138065941Y-83847941D01*
X137971277Y-83820000D01*
X138065941Y-83792059D01*
X138491630Y-83448026D01*
X138753260Y-82967277D01*
X138768220Y-82893070D01*
X138645720Y-82677000D01*
X137287000Y-82677000D01*
X137033000Y-82677000D01*
X135674280Y-82677000D01*
X135551780Y-82893070D01*
X133379355Y-82893070D01*
X133447597Y-82550000D01*
X133362829Y-82123845D01*
X133121432Y-81762568D01*
X132791225Y-81541932D01*
X133980087Y-80353070D01*
X135551780Y-80353070D01*
X135566740Y-80427277D01*
X135828370Y-80908026D01*
X136254059Y-81252059D01*
X136348723Y-81280000D01*
X136254059Y-81307941D01*
X135828370Y-81651974D01*
X135566740Y-82132723D01*
X135551780Y-82206930D01*
X135674280Y-82423000D01*
X137033000Y-82423000D01*
X137033000Y-80137000D01*
X137287000Y-80137000D01*
X137287000Y-82423000D01*
X138645720Y-82423000D01*
X138768220Y-82206930D01*
X138753260Y-82132723D01*
X138491630Y-81651974D01*
X138065941Y-81307941D01*
X137971277Y-81280000D01*
X138065941Y-81252059D01*
X138491630Y-80908026D01*
X138753260Y-80427277D01*
X138768220Y-80353070D01*
X138645720Y-80137000D01*
X137287000Y-80137000D01*
X137033000Y-80137000D01*
X135674280Y-80137000D01*
X135551780Y-80353070D01*
X133980087Y-80353070D01*
X134176857Y-80156300D01*
X134212910Y-80132210D01*
X134308346Y-79989380D01*
X134333400Y-79863426D01*
X134333400Y-79863423D01*
X134341858Y-79820901D01*
X134333400Y-79778379D01*
X134333400Y-77813070D01*
X135551780Y-77813070D01*
X135566740Y-77887277D01*
X135828370Y-78368026D01*
X136254059Y-78712059D01*
X136348723Y-78740000D01*
X136254059Y-78767941D01*
X135828370Y-79111974D01*
X135566740Y-79592723D01*
X135551780Y-79666930D01*
X135674280Y-79883000D01*
X137033000Y-79883000D01*
X137033000Y-77597000D01*
X137287000Y-77597000D01*
X137287000Y-79883000D01*
X138645720Y-79883000D01*
X138768220Y-79666930D01*
X138753260Y-79592723D01*
X138491630Y-79111974D01*
X138065941Y-78767941D01*
X137971277Y-78740000D01*
X138065941Y-78712059D01*
X138491630Y-78368026D01*
X138753260Y-77887277D01*
X138768220Y-77813070D01*
X138645720Y-77597000D01*
X137287000Y-77597000D01*
X137033000Y-77597000D01*
X135674280Y-77597000D01*
X135551780Y-77813070D01*
X134333400Y-77813070D01*
X134333400Y-77122400D01*
X134551436Y-77122400D01*
X134789492Y-77023793D01*
X134971693Y-76841592D01*
X135070300Y-76603536D01*
X135070300Y-76473578D01*
X135110600Y-76433278D01*
X135110600Y-76629536D01*
X135209207Y-76867592D01*
X135391408Y-77049793D01*
X135553772Y-77117047D01*
X135551780Y-77126930D01*
X135674280Y-77343000D01*
X137033000Y-77343000D01*
X137033000Y-76073000D01*
X137287000Y-76073000D01*
X137287000Y-77343000D01*
X138645720Y-77343000D01*
X138768220Y-77126930D01*
X138753260Y-77052723D01*
X138643344Y-76850750D01*
X146605000Y-76850750D01*
X146605000Y-77141310D01*
X146701673Y-77374699D01*
X146880302Y-77553327D01*
X147113691Y-77650000D01*
X147354250Y-77650000D01*
X147513000Y-77491250D01*
X147513000Y-76692000D01*
X146763750Y-76692000D01*
X146605000Y-76850750D01*
X138643344Y-76850750D01*
X138491630Y-76571974D01*
X138065941Y-76227941D01*
X137541000Y-76073000D01*
X137287000Y-76073000D01*
X137033000Y-76073000D01*
X136832578Y-76073000D01*
X137158052Y-75747526D01*
X137261023Y-75678723D01*
X137362073Y-75527491D01*
X137383421Y-75420169D01*
X137453938Y-75406142D01*
X137563161Y-75333161D01*
X137636142Y-75223938D01*
X137661769Y-75095100D01*
X137661769Y-73494900D01*
X137636142Y-73366062D01*
X137563161Y-73256839D01*
X137453938Y-73183858D01*
X137325100Y-73158231D01*
X136765900Y-73158231D01*
X136765900Y-72351178D01*
X137222849Y-71894230D01*
X137261023Y-71868723D01*
X137362073Y-71717491D01*
X137383421Y-71610169D01*
X137453938Y-71596142D01*
X137563161Y-71523161D01*
X137636142Y-71413938D01*
X137661769Y-71285100D01*
X137661769Y-69913100D01*
X138770443Y-69913100D01*
X144601502Y-75744160D01*
X144625590Y-75780210D01*
X144661640Y-75804298D01*
X144661641Y-75804299D01*
X144752487Y-75865000D01*
X144768420Y-75875646D01*
X144894374Y-75900700D01*
X144894377Y-75900700D01*
X144936899Y-75909158D01*
X144979421Y-75900700D01*
X146641447Y-75900700D01*
X146605000Y-75988690D01*
X146605000Y-76279250D01*
X146763750Y-76438000D01*
X147513000Y-76438000D01*
X147513000Y-76418000D01*
X147767000Y-76418000D01*
X147767000Y-76438000D01*
X147787000Y-76438000D01*
X147787000Y-76692000D01*
X147767000Y-76692000D01*
X147767000Y-77491250D01*
X147925750Y-77650000D01*
X148166309Y-77650000D01*
X148399698Y-77553327D01*
X148578327Y-77374699D01*
X148675000Y-77141310D01*
X148675000Y-76926363D01*
X148742920Y-76971746D01*
X148803331Y-76983763D01*
X148803331Y-77015000D01*
X148828958Y-77143838D01*
X148901939Y-77253061D01*
X149011162Y-77326042D01*
X149140000Y-77351669D01*
X149940000Y-77351669D01*
X150068838Y-77326042D01*
X150178061Y-77253061D01*
X150251042Y-77143838D01*
X150276669Y-77015000D01*
X150276669Y-76115000D01*
X150251042Y-75986162D01*
X150178061Y-75876939D01*
X150068838Y-75803958D01*
X149940000Y-75778331D01*
X149140000Y-75778331D01*
X149011162Y-75803958D01*
X148901939Y-75876939D01*
X148874725Y-75917668D01*
X148308726Y-75351669D01*
X148990000Y-75351669D01*
X149118838Y-75326042D01*
X149228061Y-75253061D01*
X149301042Y-75143838D01*
X149326669Y-75015000D01*
X149326669Y-74983763D01*
X149387080Y-74971746D01*
X149529910Y-74876310D01*
X149625346Y-74733480D01*
X149658859Y-74565000D01*
X149650400Y-74522474D01*
X149650400Y-72116098D01*
X151713000Y-72116098D01*
X151713000Y-72663902D01*
X151922636Y-73170008D01*
X152309992Y-73557364D01*
X152816098Y-73767000D01*
X153363902Y-73767000D01*
X153870008Y-73557364D01*
X154257364Y-73170008D01*
X154467000Y-72663902D01*
X154467000Y-72116098D01*
X154257364Y-71609992D01*
X153870008Y-71222636D01*
X153363902Y-71013000D01*
X152816098Y-71013000D01*
X152309992Y-71222636D01*
X151922636Y-71609992D01*
X151713000Y-72116098D01*
X149650400Y-72116098D01*
X149650400Y-72092583D01*
X149829992Y-72018193D01*
X150012193Y-71835992D01*
X150110800Y-71597936D01*
X150110800Y-71340264D01*
X150012193Y-71102208D01*
X149829992Y-70920007D01*
X149591936Y-70821400D01*
X149334264Y-70821400D01*
X149096208Y-70920007D01*
X148914007Y-71102208D01*
X148815400Y-71340264D01*
X148815400Y-71539814D01*
X148811854Y-71545121D01*
X148778342Y-71713600D01*
X148786801Y-71756127D01*
X148786800Y-73778331D01*
X148190000Y-73778331D01*
X148061162Y-73803958D01*
X147951939Y-73876939D01*
X147878958Y-73986162D01*
X147853331Y-74115000D01*
X147853331Y-75015000D01*
X147857723Y-75037080D01*
X147815300Y-75028642D01*
X147772778Y-75037100D01*
X145115758Y-75037100D01*
X143845658Y-73767000D01*
X144363902Y-73767000D01*
X144870008Y-73557364D01*
X145257364Y-73170008D01*
X145467000Y-72663902D01*
X145467000Y-72116098D01*
X145257364Y-71609992D01*
X144870008Y-71222636D01*
X144363902Y-71013000D01*
X143816098Y-71013000D01*
X143309992Y-71222636D01*
X142922636Y-71609992D01*
X142713000Y-72116098D01*
X142713000Y-72634342D01*
X139284700Y-69206043D01*
X139260610Y-69169990D01*
X139117780Y-69074554D01*
X138991826Y-69049500D01*
X138991822Y-69049500D01*
X138949300Y-69041042D01*
X138906778Y-69049500D01*
X134396626Y-69049500D01*
X134354100Y-69041041D01*
X134311574Y-69049500D01*
X134185620Y-69074554D01*
X134042790Y-69169990D01*
X134018700Y-69206043D01*
X132469143Y-70755600D01*
X132433090Y-70779690D01*
X132337654Y-70922521D01*
X132312600Y-71048475D01*
X132312600Y-71048478D01*
X132304142Y-71091000D01*
X132312600Y-71133522D01*
X132312601Y-75636142D01*
X131804741Y-76144002D01*
X131768691Y-76168090D01*
X131744603Y-76204140D01*
X131744601Y-76204142D01*
X131673254Y-76310921D01*
X131657542Y-76389912D01*
X131399845Y-76441171D01*
X131038568Y-76682568D01*
X130797171Y-77043845D01*
X130712403Y-77470000D01*
X130797171Y-77896155D01*
X131038568Y-78257432D01*
X131368774Y-78478068D01*
X129891340Y-79955503D01*
X129855291Y-79979590D01*
X129831203Y-80015640D01*
X129831201Y-80015642D01*
X129759854Y-80122421D01*
X129726342Y-80290900D01*
X129734801Y-80333427D01*
X129734800Y-81881315D01*
X129734592Y-81881107D01*
X129496536Y-81782500D01*
X129482503Y-81782500D01*
X129475346Y-81746520D01*
X129379910Y-81603690D01*
X129237080Y-81508254D01*
X129152073Y-81491345D01*
X129151042Y-81486162D01*
X129078061Y-81376939D01*
X128968838Y-81303958D01*
X128848391Y-81280000D01*
X128968838Y-81256042D01*
X129078061Y-81183061D01*
X129151042Y-81073838D01*
X129176669Y-80945000D01*
X129176669Y-80345000D01*
X129151042Y-80216162D01*
X129078061Y-80106939D01*
X128968838Y-80033958D01*
X128848391Y-80010000D01*
X128968838Y-79986042D01*
X129078061Y-79913061D01*
X129151042Y-79803838D01*
X129176669Y-79675000D01*
X129176669Y-79075000D01*
X129151042Y-78946162D01*
X129078061Y-78836939D01*
X128968838Y-78763958D01*
X128848391Y-78740000D01*
X128968838Y-78716042D01*
X129078061Y-78643061D01*
X129151042Y-78533838D01*
X129176669Y-78405000D01*
X129176669Y-77805000D01*
X129151042Y-77676162D01*
X129078061Y-77566939D01*
X128968838Y-77493958D01*
X128848391Y-77470000D01*
X128968838Y-77446042D01*
X129078061Y-77373061D01*
X129151042Y-77263838D01*
X129176669Y-77135000D01*
X129176669Y-76535000D01*
X129151042Y-76406162D01*
X129078061Y-76296939D01*
X128968838Y-76223958D01*
X128848391Y-76200000D01*
X128968838Y-76176042D01*
X129078061Y-76103061D01*
X129151042Y-75993838D01*
X129176669Y-75865000D01*
X129176669Y-75265000D01*
X129151042Y-75136162D01*
X129078061Y-75026939D01*
X128968838Y-74953958D01*
X128848391Y-74930000D01*
X128968838Y-74906042D01*
X129078061Y-74833061D01*
X129151042Y-74723838D01*
X129176669Y-74595000D01*
X129176669Y-73995000D01*
X129151042Y-73866162D01*
X129078061Y-73756939D01*
X128968838Y-73683958D01*
X128840000Y-73658331D01*
X126840000Y-73658331D01*
X126711162Y-73683958D01*
X126601939Y-73756939D01*
X126528958Y-73866162D01*
X126503331Y-73995000D01*
X126503331Y-74595000D01*
X126528958Y-74723838D01*
X126601939Y-74833061D01*
X126711162Y-74906042D01*
X126831609Y-74930000D01*
X126711162Y-74953958D01*
X126601939Y-75026939D01*
X126528958Y-75136162D01*
X126503331Y-75265000D01*
X126503331Y-75865000D01*
X126528958Y-75993838D01*
X126601939Y-76103061D01*
X126711162Y-76176042D01*
X126831609Y-76200000D01*
X126711162Y-76223958D01*
X126601939Y-76296939D01*
X126528958Y-76406162D01*
X126503331Y-76535000D01*
X126503331Y-77135000D01*
X126528958Y-77263838D01*
X126601939Y-77373061D01*
X126711162Y-77446042D01*
X126831609Y-77470000D01*
X126711162Y-77493958D01*
X126601939Y-77566939D01*
X126528958Y-77676162D01*
X126503331Y-77805000D01*
X126503331Y-78405000D01*
X126528958Y-78533838D01*
X126601939Y-78643061D01*
X126711162Y-78716042D01*
X126831609Y-78740000D01*
X126711162Y-78763958D01*
X126601939Y-78836939D01*
X126528958Y-78946162D01*
X126503331Y-79075000D01*
X126503331Y-79675000D01*
X126528958Y-79803838D01*
X126601939Y-79913061D01*
X126711162Y-79986042D01*
X126831609Y-80010000D01*
X126711162Y-80033958D01*
X126601939Y-80106939D01*
X126528958Y-80216162D01*
X126503331Y-80345000D01*
X126503331Y-80945000D01*
X126528958Y-81073838D01*
X126601939Y-81183061D01*
X126711162Y-81256042D01*
X126831609Y-81280000D01*
X126711162Y-81303958D01*
X126601939Y-81376939D01*
X126528958Y-81486162D01*
X126503331Y-81615000D01*
X126503331Y-82215000D01*
X126528958Y-82343838D01*
X126601939Y-82453061D01*
X126711162Y-82526042D01*
X126831609Y-82550000D01*
X126711162Y-82573958D01*
X126601939Y-82646939D01*
X126528958Y-82756162D01*
X126503331Y-82885000D01*
X126503331Y-83485000D01*
X126525775Y-83597837D01*
X126480302Y-83616673D01*
X126301673Y-83795301D01*
X126205000Y-84028690D01*
X126205000Y-84169250D01*
X126363750Y-84328000D01*
X127713000Y-84328000D01*
X127713000Y-84308000D01*
X127967000Y-84308000D01*
X127967000Y-84328000D01*
X127987000Y-84328000D01*
X127987000Y-84582000D01*
X127967000Y-84582000D01*
X127967000Y-84602000D01*
X127713000Y-84602000D01*
X127713000Y-84582000D01*
X126363750Y-84582000D01*
X126205000Y-84740750D01*
X126205000Y-84881310D01*
X126301673Y-85114699D01*
X126480302Y-85293327D01*
X126525775Y-85312163D01*
X126503331Y-85425000D01*
X126503331Y-86025000D01*
X126528958Y-86153838D01*
X126601939Y-86263061D01*
X126711162Y-86336042D01*
X126840000Y-86361669D01*
X127355600Y-86361669D01*
X127355600Y-87293331D01*
X127254000Y-87293331D01*
X127125162Y-87318958D01*
X127015939Y-87391939D01*
X126942958Y-87501162D01*
X126917331Y-87630000D01*
X126917331Y-88357438D01*
X126871269Y-88366600D01*
X126715678Y-88397549D01*
X126539241Y-88515441D01*
X126421349Y-88691878D01*
X126379951Y-88900000D01*
X126389824Y-88949635D01*
X126111000Y-89228459D01*
X126111000Y-89185750D01*
X125952250Y-89027000D01*
X124968000Y-89027000D01*
X124968000Y-89047000D01*
X124714000Y-89047000D01*
X124714000Y-89027000D01*
X123729750Y-89027000D01*
X123571000Y-89185750D01*
X123571000Y-90296310D01*
X123615192Y-90403000D01*
X122764808Y-90403000D01*
X122809000Y-90296310D01*
X122809000Y-89185750D01*
X122650250Y-89027000D01*
X121666000Y-89027000D01*
X121666000Y-89047000D01*
X121412000Y-89047000D01*
X121412000Y-89027000D01*
X120427750Y-89027000D01*
X120269000Y-89185750D01*
X120269000Y-89229959D01*
X119989927Y-88950887D01*
X120000049Y-88900000D01*
X119958651Y-88691878D01*
X119840759Y-88515441D01*
X119664322Y-88397549D01*
X119508731Y-88366600D01*
X119462669Y-88357438D01*
X119462669Y-87630000D01*
X119437545Y-87503690D01*
X120269000Y-87503690D01*
X120269000Y-88614250D01*
X120427750Y-88773000D01*
X121412000Y-88773000D01*
X121412000Y-87153750D01*
X121666000Y-87153750D01*
X121666000Y-88773000D01*
X122650250Y-88773000D01*
X122809000Y-88614250D01*
X122809000Y-87503690D01*
X122712327Y-87270301D01*
X122533698Y-87091673D01*
X122300309Y-86995000D01*
X121824750Y-86995000D01*
X121666000Y-87153750D01*
X121412000Y-87153750D01*
X121253250Y-86995000D01*
X120777691Y-86995000D01*
X120544302Y-87091673D01*
X120365673Y-87270301D01*
X120269000Y-87503690D01*
X119437545Y-87503690D01*
X119437042Y-87501162D01*
X119364061Y-87391939D01*
X119254838Y-87318958D01*
X119126000Y-87293331D01*
X118501426Y-87293331D01*
X118535457Y-87259300D01*
X119018478Y-87259300D01*
X119061000Y-87267758D01*
X119103522Y-87259300D01*
X119103526Y-87259300D01*
X119229480Y-87234246D01*
X119372310Y-87138810D01*
X119396399Y-87102758D01*
X120018861Y-86480297D01*
X120054910Y-86456210D01*
X120088087Y-86406558D01*
X120150346Y-86313380D01*
X120163136Y-86249079D01*
X120175400Y-86187426D01*
X120175400Y-86187423D01*
X120183858Y-86144901D01*
X120175400Y-86102379D01*
X120175400Y-85703257D01*
X120323958Y-85554699D01*
X120360010Y-85530610D01*
X120455446Y-85387780D01*
X120480500Y-85261826D01*
X120480500Y-85261825D01*
X120488959Y-85219300D01*
X120480500Y-85176774D01*
X120480500Y-83507621D01*
X120488958Y-83465099D01*
X120480500Y-83422577D01*
X120480500Y-83422574D01*
X120455446Y-83296620D01*
X120360010Y-83153790D01*
X120323957Y-83129700D01*
X120103999Y-82909742D01*
X120079910Y-82873690D01*
X119937080Y-82778254D01*
X119871170Y-82765144D01*
X119899698Y-82753327D01*
X120078327Y-82574699D01*
X120175000Y-82341310D01*
X120175000Y-82200750D01*
X120016250Y-82042000D01*
X118667000Y-82042000D01*
X118667000Y-82062000D01*
X118413000Y-82062000D01*
X118413000Y-82042000D01*
X118393000Y-82042000D01*
X118393000Y-81788000D01*
X118413000Y-81788000D01*
X118413000Y-80772000D01*
X118667000Y-80772000D01*
X118667000Y-81788000D01*
X120016250Y-81788000D01*
X120175000Y-81629250D01*
X120175000Y-81488690D01*
X120088558Y-81280000D01*
X120175000Y-81071310D01*
X120175000Y-80930750D01*
X120016250Y-80772000D01*
X118667000Y-80772000D01*
X118413000Y-80772000D01*
X118393000Y-80772000D01*
X118393000Y-80518000D01*
X118413000Y-80518000D01*
X118413000Y-79502000D01*
X118667000Y-79502000D01*
X118667000Y-80518000D01*
X120016250Y-80518000D01*
X120175000Y-80359250D01*
X120175000Y-80218690D01*
X120088558Y-80010000D01*
X120175000Y-79801310D01*
X120175000Y-79660750D01*
X120016250Y-79502000D01*
X118667000Y-79502000D01*
X118413000Y-79502000D01*
X118393000Y-79502000D01*
X118393000Y-79248000D01*
X118413000Y-79248000D01*
X118413000Y-78232000D01*
X118667000Y-78232000D01*
X118667000Y-79248000D01*
X120016250Y-79248000D01*
X120175000Y-79089250D01*
X120175000Y-78948690D01*
X120088558Y-78740000D01*
X120175000Y-78531310D01*
X120175000Y-78390750D01*
X120016250Y-78232000D01*
X118667000Y-78232000D01*
X118413000Y-78232000D01*
X118393000Y-78232000D01*
X118393000Y-77978000D01*
X118413000Y-77978000D01*
X118413000Y-76962000D01*
X118667000Y-76962000D01*
X118667000Y-77978000D01*
X120016250Y-77978000D01*
X120175000Y-77819250D01*
X120175000Y-77678690D01*
X120088558Y-77470000D01*
X120175000Y-77261310D01*
X120175000Y-77120750D01*
X120016250Y-76962000D01*
X118667000Y-76962000D01*
X118413000Y-76962000D01*
X118393000Y-76962000D01*
X118393000Y-76708000D01*
X118413000Y-76708000D01*
X118413000Y-75692000D01*
X118667000Y-75692000D01*
X118667000Y-76708000D01*
X120016250Y-76708000D01*
X120175000Y-76549250D01*
X120175000Y-76408690D01*
X120088558Y-76200000D01*
X120175000Y-75991310D01*
X120175000Y-75850750D01*
X120016250Y-75692000D01*
X118667000Y-75692000D01*
X118413000Y-75692000D01*
X118393000Y-75692000D01*
X118393000Y-75438000D01*
X118413000Y-75438000D01*
X118413000Y-74422000D01*
X118667000Y-74422000D01*
X118667000Y-75438000D01*
X120016250Y-75438000D01*
X120175000Y-75279250D01*
X120175000Y-75138690D01*
X120088558Y-74930000D01*
X120175000Y-74721310D01*
X120175000Y-74580750D01*
X120016250Y-74422000D01*
X118667000Y-74422000D01*
X118413000Y-74422000D01*
X118393000Y-74422000D01*
X118393000Y-74168000D01*
X118413000Y-74168000D01*
X118413000Y-73518750D01*
X118667000Y-73518750D01*
X118667000Y-74168000D01*
X120016250Y-74168000D01*
X120175000Y-74009250D01*
X120175000Y-73868690D01*
X120078327Y-73635301D01*
X119899698Y-73456673D01*
X119666309Y-73360000D01*
X118825750Y-73360000D01*
X118667000Y-73518750D01*
X118413000Y-73518750D01*
X118254250Y-73360000D01*
X117768300Y-73360000D01*
X117768300Y-72264242D01*
X117838539Y-72369362D01*
X118254427Y-72647250D01*
X118745000Y-72744831D01*
X119235574Y-72647250D01*
X119508009Y-72465214D01*
X119589390Y-72587010D01*
X119625443Y-72611100D01*
X123033601Y-76019259D01*
X123033600Y-87577615D01*
X122916307Y-87694908D01*
X122817700Y-87932964D01*
X122817700Y-88190636D01*
X122916307Y-88428692D01*
X123098508Y-88610893D01*
X123336564Y-88709500D01*
X123594236Y-88709500D01*
X123645157Y-88688407D01*
X123729750Y-88773000D01*
X124714000Y-88773000D01*
X124714000Y-87153750D01*
X124968000Y-87153750D01*
X124968000Y-88773000D01*
X125952250Y-88773000D01*
X126111000Y-88614250D01*
X126111000Y-87503690D01*
X126014327Y-87270301D01*
X125835698Y-87091673D01*
X125602309Y-86995000D01*
X125126750Y-86995000D01*
X124968000Y-87153750D01*
X124714000Y-87153750D01*
X124555250Y-86995000D01*
X124079691Y-86995000D01*
X123897200Y-87070590D01*
X123897200Y-75882921D01*
X123905658Y-75840399D01*
X123897200Y-75797877D01*
X123897200Y-75797874D01*
X123872146Y-75671920D01*
X123849067Y-75637380D01*
X123800799Y-75565141D01*
X123800798Y-75565140D01*
X123776710Y-75529090D01*
X123740660Y-75505002D01*
X120904877Y-72669220D01*
X121285000Y-72744831D01*
X121775574Y-72647250D01*
X122191462Y-72369362D01*
X122469350Y-71953474D01*
X122542300Y-71586728D01*
X122542300Y-70653272D01*
X122567700Y-70653272D01*
X122567700Y-71586729D01*
X122640650Y-71953474D01*
X122918539Y-72369362D01*
X123334427Y-72647250D01*
X123825000Y-72744831D01*
X124315574Y-72647250D01*
X124731462Y-72369362D01*
X125009350Y-71953474D01*
X125082300Y-71586728D01*
X125082300Y-70653272D01*
X125107700Y-70653272D01*
X125107700Y-71586729D01*
X125180650Y-71953474D01*
X125458539Y-72369362D01*
X125874427Y-72647250D01*
X126365000Y-72744831D01*
X126855574Y-72647250D01*
X127271462Y-72369362D01*
X127549350Y-71953474D01*
X127622300Y-71586728D01*
X127622300Y-70700653D01*
X128066800Y-70700653D01*
X128066800Y-71539347D01*
X128387754Y-72314199D01*
X128980801Y-72907246D01*
X129755653Y-73228200D01*
X130594347Y-73228200D01*
X131369199Y-72907246D01*
X131962246Y-72314199D01*
X132283200Y-71539347D01*
X132283200Y-70700653D01*
X131962246Y-69925801D01*
X131369199Y-69332754D01*
X130594347Y-69011800D01*
X129755653Y-69011800D01*
X128980801Y-69332754D01*
X128387754Y-69925801D01*
X128066800Y-70700653D01*
X127622300Y-70700653D01*
X127622300Y-70653271D01*
X127549350Y-70286526D01*
X127271462Y-69870638D01*
X126855573Y-69592750D01*
X126365000Y-69495169D01*
X125874426Y-69592750D01*
X125458538Y-69870638D01*
X125180650Y-70286527D01*
X125107700Y-70653272D01*
X125082300Y-70653272D01*
X125082300Y-70653271D01*
X125009350Y-70286526D01*
X124731462Y-69870638D01*
X124315573Y-69592750D01*
X123825000Y-69495169D01*
X123334426Y-69592750D01*
X122918538Y-69870638D01*
X122640650Y-70286527D01*
X122567700Y-70653272D01*
X122542300Y-70653272D01*
X122542300Y-70653271D01*
X122469350Y-70286526D01*
X122191462Y-69870638D01*
X121775573Y-69592750D01*
X121285000Y-69495169D01*
X120794426Y-69592750D01*
X120378538Y-69870638D01*
X120100650Y-70286527D01*
X120027700Y-70653272D01*
X120027700Y-70705003D01*
X120002300Y-70699951D01*
X120002300Y-70653271D01*
X119929350Y-70286526D01*
X119651462Y-69870638D01*
X119235573Y-69592750D01*
X118745000Y-69495169D01*
X118254426Y-69592750D01*
X117838538Y-69870638D01*
X117720539Y-70047236D01*
X117647810Y-69938390D01*
X117611757Y-69914300D01*
X117030100Y-69332643D01*
X117006010Y-69296590D01*
X116863180Y-69201154D01*
X116737226Y-69176100D01*
X116737222Y-69176100D01*
X116694700Y-69167642D01*
X116652178Y-69176100D01*
X100518921Y-69176100D01*
X100476399Y-69167642D01*
X100433877Y-69176100D01*
X100433874Y-69176100D01*
X100307920Y-69201154D01*
X100201141Y-69272501D01*
X100201140Y-69272502D01*
X100165090Y-69296590D01*
X100141002Y-69332640D01*
X99440227Y-70033416D01*
X99331462Y-69870638D01*
X98915573Y-69592750D01*
X98425000Y-69495169D01*
X97934426Y-69592750D01*
X97518538Y-69870638D01*
X97240650Y-70286527D01*
X97167700Y-70653272D01*
X97167700Y-71586729D01*
X97240650Y-71953474D01*
X97518539Y-72369362D01*
X97934427Y-72647250D01*
X98425000Y-72744831D01*
X98915574Y-72647250D01*
X99331462Y-72369362D01*
X99609350Y-71953474D01*
X99682300Y-71586728D01*
X99682300Y-71540049D01*
X99707700Y-71534997D01*
X99707700Y-71586729D01*
X99780650Y-71953474D01*
X100058539Y-72369362D01*
X100474427Y-72647250D01*
X100965000Y-72744831D01*
X101455574Y-72647250D01*
X101871462Y-72369362D01*
X102149350Y-71953474D01*
X102222300Y-71586728D01*
X102222300Y-70653271D01*
X102149350Y-70286526D01*
X101984426Y-70039700D01*
X102485574Y-70039700D01*
X102320650Y-70286527D01*
X102247700Y-70653272D01*
X102247700Y-71586729D01*
X102320650Y-71953474D01*
X102598539Y-72369362D01*
X103014427Y-72647250D01*
X103505000Y-72744831D01*
X103995574Y-72647250D01*
X104411462Y-72369362D01*
X104689350Y-71953474D01*
X104762300Y-71586728D01*
X104762300Y-70653271D01*
X104689350Y-70286526D01*
X104524426Y-70039700D01*
X105025574Y-70039700D01*
X104860650Y-70286527D01*
X104787700Y-70653272D01*
X104787700Y-71586729D01*
X104860650Y-71953474D01*
X105138539Y-72369362D01*
X105554427Y-72647250D01*
X106045000Y-72744831D01*
X106535574Y-72647250D01*
X106951462Y-72369362D01*
X107065514Y-72198671D01*
X108230173Y-73363331D01*
X106835000Y-73363331D01*
X106706162Y-73388958D01*
X106596939Y-73461939D01*
X106546341Y-73537664D01*
X106546042Y-73536162D01*
X106473061Y-73426939D01*
X106363838Y-73353958D01*
X106235000Y-73328331D01*
X101275000Y-73328331D01*
X101146162Y-73353958D01*
X101036939Y-73426939D01*
X100963958Y-73536162D01*
X100938331Y-73665000D01*
X100938331Y-77465000D01*
X100963958Y-77593838D01*
X100967108Y-77598552D01*
X100495860Y-78069800D01*
X96362041Y-78069800D01*
X94407757Y-76115516D01*
X95799800Y-76115516D01*
X95799800Y-76684484D01*
X96017535Y-77210143D01*
X96419857Y-77612465D01*
X96945516Y-77830200D01*
X97514484Y-77830200D01*
X98040143Y-77612465D01*
X98442465Y-77210143D01*
X98660200Y-76684484D01*
X98660200Y-76115516D01*
X98442465Y-75589857D01*
X98040143Y-75187535D01*
X97514484Y-74969800D01*
X96945516Y-74969800D01*
X96419857Y-75187535D01*
X96017535Y-75589857D01*
X95799800Y-76115516D01*
X94407757Y-76115516D01*
X91254242Y-72962002D01*
X91285458Y-72954692D01*
X91819769Y-72657273D01*
X92199591Y-72178022D01*
X92232794Y-72061445D01*
X92438539Y-72369362D01*
X92854427Y-72647250D01*
X93345000Y-72744831D01*
X93835574Y-72647250D01*
X94251462Y-72369362D01*
X94529350Y-71953474D01*
X94602300Y-71586728D01*
X94602300Y-70653272D01*
X94627700Y-70653272D01*
X94627700Y-71586729D01*
X94700650Y-71953474D01*
X94978539Y-72369362D01*
X95394427Y-72647250D01*
X95885000Y-72744831D01*
X96375574Y-72647250D01*
X96791462Y-72369362D01*
X97069350Y-71953474D01*
X97142300Y-71586728D01*
X97142300Y-70653271D01*
X97069350Y-70286526D01*
X96791462Y-69870638D01*
X96375573Y-69592750D01*
X95885000Y-69495169D01*
X95394426Y-69592750D01*
X94978538Y-69870638D01*
X94700650Y-70286527D01*
X94627700Y-70653272D01*
X94602300Y-70653272D01*
X94602300Y-70653271D01*
X94529350Y-70286526D01*
X94251462Y-69870638D01*
X93835573Y-69592750D01*
X93345000Y-69495169D01*
X92854426Y-69592750D01*
X92438538Y-69870638D01*
X92232794Y-70178555D01*
X92199591Y-70061978D01*
X91819769Y-69582727D01*
X91285458Y-69285308D01*
X91173994Y-69259207D01*
X90932000Y-69379508D01*
X90932000Y-70993000D01*
X90952000Y-70993000D01*
X90952000Y-71247000D01*
X90932000Y-71247000D01*
X90932000Y-71267000D01*
X90678000Y-71267000D01*
X90678000Y-71247000D01*
X90658000Y-71247000D01*
X90658000Y-70993000D01*
X90678000Y-70993000D01*
X90678000Y-69379508D01*
X90436006Y-69259207D01*
X90324542Y-69285308D01*
X89790231Y-69582727D01*
X89528769Y-69912634D01*
X89528769Y-69850000D01*
X89503142Y-69721162D01*
X89430161Y-69611939D01*
X89320938Y-69538958D01*
X89192100Y-69513331D01*
X87337900Y-69513331D01*
X87209062Y-69538958D01*
X87099839Y-69611939D01*
X87026858Y-69721162D01*
X87001231Y-69850000D01*
X87001231Y-72390000D01*
X87026858Y-72518838D01*
X87099839Y-72628061D01*
X87209062Y-72701042D01*
X87337900Y-72726669D01*
X89192100Y-72726669D01*
X89320938Y-72701042D01*
X89419047Y-72635487D01*
X95726785Y-78943226D01*
X95756541Y-78987759D01*
X95932978Y-79105651D01*
X96088569Y-79136600D01*
X96088573Y-79136600D01*
X96141100Y-79147048D01*
X96193627Y-79136600D01*
X100034700Y-79136600D01*
X100034700Y-79698331D01*
X94255000Y-79698331D01*
X94126162Y-79723958D01*
X94016939Y-79796939D01*
X93943958Y-79906162D01*
X93918331Y-80035000D01*
X93918331Y-85783722D01*
X93705000Y-85570391D01*
X93705000Y-83307543D01*
X93719430Y-83235000D01*
X93662261Y-82947593D01*
X93499458Y-82703942D01*
X93255807Y-82541139D01*
X93040944Y-82498400D01*
X92968400Y-82483970D01*
X92895856Y-82498400D01*
X92771669Y-82498400D01*
X92771669Y-80035000D01*
X92746042Y-79906162D01*
X92673061Y-79796939D01*
X92563838Y-79723958D01*
X92435000Y-79698331D01*
X86635000Y-79698331D01*
X86506162Y-79723958D01*
X86396939Y-79796939D01*
X86323958Y-79906162D01*
X86298331Y-80035000D01*
X86298331Y-86435000D01*
X86323958Y-86563838D01*
X86396939Y-86673061D01*
X86506162Y-86746042D01*
X86635000Y-86771669D01*
X92435000Y-86771669D01*
X92563838Y-86746042D01*
X92673061Y-86673061D01*
X92693565Y-86642374D01*
X93622590Y-87571400D01*
X91867531Y-87571400D01*
X91815000Y-87560951D01*
X91762470Y-87571400D01*
X91762469Y-87571400D01*
X91606878Y-87602349D01*
X91430441Y-87720241D01*
X91312549Y-87896678D01*
X91271151Y-88104800D01*
X91276276Y-88130564D01*
X91245000Y-88151462D01*
X91203838Y-88123958D01*
X91075000Y-88098331D01*
X90275000Y-88098331D01*
X90146162Y-88123958D01*
X90036939Y-88196939D01*
X89963958Y-88306162D01*
X89938331Y-88435000D01*
X89938331Y-90635000D01*
X89963958Y-90763838D01*
X90036939Y-90873061D01*
X90047695Y-90880248D01*
X89281000Y-91646943D01*
X89281000Y-91313690D01*
X89184327Y-91080301D01*
X89005698Y-90901673D01*
X88996156Y-90897720D01*
X89033061Y-90873061D01*
X89106042Y-90763838D01*
X89131669Y-90635000D01*
X89131669Y-88435000D01*
X89106042Y-88306162D01*
X89033061Y-88196939D01*
X88923838Y-88123958D01*
X88795000Y-88098331D01*
X88202866Y-88098331D01*
X88193327Y-88075301D01*
X88014698Y-87896673D01*
X87781309Y-87800000D01*
X87540750Y-87800000D01*
X87382000Y-87958750D01*
X87382000Y-89408000D01*
X87402000Y-89408000D01*
X87402000Y-89662000D01*
X87382000Y-89662000D01*
X87382000Y-89682000D01*
X87128000Y-89682000D01*
X87128000Y-89662000D01*
X86378750Y-89662000D01*
X86220000Y-89820750D01*
X86220000Y-90761310D01*
X86316673Y-90994699D01*
X86495302Y-91173327D01*
X86728691Y-91270000D01*
X86759097Y-91270000D01*
X86741000Y-91313690D01*
X86741000Y-92424250D01*
X86899750Y-92583000D01*
X87884000Y-92583000D01*
X87884000Y-92563000D01*
X88138000Y-92563000D01*
X88138000Y-92583000D01*
X88158000Y-92583000D01*
X88158000Y-92837000D01*
X88138000Y-92837000D01*
X88138000Y-94456250D01*
X88296750Y-94615000D01*
X88772309Y-94615000D01*
X89005698Y-94518327D01*
X89103201Y-94420825D01*
X89103201Y-94659331D01*
X88265000Y-94659331D01*
X88136162Y-94684958D01*
X88026939Y-94757939D01*
X87953958Y-94867162D01*
X87928331Y-94996000D01*
X87928331Y-96266000D01*
X87953958Y-96394838D01*
X88026939Y-96504061D01*
X88136162Y-96577042D01*
X88265000Y-96602669D01*
X90805000Y-96602669D01*
X90933838Y-96577042D01*
X91043061Y-96504061D01*
X91116042Y-96394838D01*
X91141669Y-96266000D01*
X91141669Y-94996000D01*
X91116042Y-94867162D01*
X91043061Y-94757939D01*
X90933838Y-94684958D01*
X90805000Y-94659331D01*
X89966800Y-94659331D01*
X89966800Y-92182457D01*
X90087331Y-92061926D01*
X90087331Y-93980000D01*
X90112958Y-94108838D01*
X90185939Y-94218061D01*
X90295162Y-94291042D01*
X90424000Y-94316669D01*
X91694000Y-94316669D01*
X91822838Y-94291042D01*
X91932061Y-94218061D01*
X92005042Y-94108838D01*
X92030669Y-93980000D01*
X92030669Y-92995750D01*
X94361000Y-92995750D01*
X94361000Y-94106310D01*
X94457673Y-94339699D01*
X94636302Y-94518327D01*
X94869691Y-94615000D01*
X95345250Y-94615000D01*
X95504000Y-94456250D01*
X95504000Y-92837000D01*
X94519750Y-92837000D01*
X94361000Y-92995750D01*
X92030669Y-92995750D01*
X92030669Y-91462608D01*
X92199559Y-91349759D01*
X92317451Y-91173322D01*
X92348400Y-91017731D01*
X92358849Y-90965200D01*
X92353724Y-90939436D01*
X92453061Y-90873061D01*
X92526042Y-90763838D01*
X92551669Y-90635000D01*
X92551669Y-88638200D01*
X93840000Y-88638200D01*
X93840000Y-89249250D01*
X93998750Y-89408000D01*
X94748000Y-89408000D01*
X94748000Y-89388000D01*
X95002000Y-89388000D01*
X95002000Y-89408000D01*
X95022000Y-89408000D01*
X95022000Y-89662000D01*
X95002000Y-89662000D01*
X95002000Y-89682000D01*
X94748000Y-89682000D01*
X94748000Y-89662000D01*
X93998750Y-89662000D01*
X93840000Y-89820750D01*
X93840000Y-90761310D01*
X93936673Y-90994699D01*
X94115302Y-91173327D01*
X94348691Y-91270000D01*
X94379097Y-91270000D01*
X94361000Y-91313690D01*
X94361000Y-92424250D01*
X94519750Y-92583000D01*
X95504000Y-92583000D01*
X95504000Y-92563000D01*
X95758000Y-92563000D01*
X95758000Y-92583000D01*
X95778000Y-92583000D01*
X95778000Y-92837000D01*
X95758000Y-92837000D01*
X95758000Y-94456250D01*
X95916750Y-94615000D01*
X96392309Y-94615000D01*
X96625698Y-94518327D01*
X96723201Y-94420825D01*
X96723201Y-94659331D01*
X95885000Y-94659331D01*
X95756162Y-94684958D01*
X95646939Y-94757939D01*
X95573958Y-94867162D01*
X95548331Y-94996000D01*
X95548331Y-96266000D01*
X95573958Y-96394838D01*
X95646939Y-96504061D01*
X95756162Y-96577042D01*
X95885000Y-96602669D01*
X98425000Y-96602669D01*
X98553838Y-96577042D01*
X98663061Y-96504061D01*
X98736042Y-96394838D01*
X98761669Y-96266000D01*
X98761669Y-94996000D01*
X98736042Y-94867162D01*
X98663061Y-94757939D01*
X98553838Y-94684958D01*
X98425000Y-94659331D01*
X97586800Y-94659331D01*
X97586800Y-92182457D01*
X97707331Y-92061926D01*
X97707331Y-93980000D01*
X97732958Y-94108838D01*
X97805939Y-94218061D01*
X97915162Y-94291042D01*
X98044000Y-94316669D01*
X99314000Y-94316669D01*
X99442838Y-94291042D01*
X99552061Y-94218061D01*
X99625042Y-94108838D01*
X99650669Y-93980000D01*
X99650669Y-92995750D01*
X101981000Y-92995750D01*
X101981000Y-94106310D01*
X102077673Y-94339699D01*
X102256302Y-94518327D01*
X102489691Y-94615000D01*
X102965250Y-94615000D01*
X103124000Y-94456250D01*
X103124000Y-92837000D01*
X102139750Y-92837000D01*
X101981000Y-92995750D01*
X99650669Y-92995750D01*
X99650669Y-91510589D01*
X99674959Y-91494359D01*
X99704717Y-91449823D01*
X99775023Y-91379517D01*
X99819559Y-91349759D01*
X99937451Y-91173322D01*
X99968400Y-91017731D01*
X99968400Y-91017726D01*
X99978848Y-90965201D01*
X99973723Y-90939437D01*
X100073061Y-90873061D01*
X100146042Y-90763838D01*
X100171669Y-90635000D01*
X100171669Y-88435000D01*
X100160930Y-88381010D01*
X100233250Y-88308690D01*
X101460000Y-88308690D01*
X101460000Y-89249250D01*
X101618750Y-89408000D01*
X102368000Y-89408000D01*
X102368000Y-87958750D01*
X102209250Y-87800000D01*
X101968691Y-87800000D01*
X101735302Y-87896673D01*
X101556673Y-88075301D01*
X101460000Y-88308690D01*
X100233250Y-88308690D01*
X100864141Y-87677800D01*
X111603560Y-87677800D01*
X112251500Y-88325741D01*
X112251501Y-91523369D01*
X112241052Y-91575900D01*
X112251501Y-91628431D01*
X112282450Y-91784022D01*
X112400342Y-91960459D01*
X112420400Y-91973862D01*
X112420401Y-92657465D01*
X112409951Y-92710000D01*
X112451349Y-92918122D01*
X112460397Y-92931663D01*
X112141000Y-93251060D01*
X112141000Y-92995750D01*
X111982250Y-92837000D01*
X110998000Y-92837000D01*
X110998000Y-92857000D01*
X110744000Y-92857000D01*
X110744000Y-92837000D01*
X109759750Y-92837000D01*
X109601000Y-92995750D01*
X109601000Y-93065259D01*
X108905817Y-92370077D01*
X108876059Y-92325541D01*
X108699622Y-92207649D01*
X108544031Y-92176700D01*
X108544026Y-92176700D01*
X108491500Y-92166252D01*
X108438974Y-92176700D01*
X107797600Y-92176700D01*
X107797600Y-91226925D01*
X107808048Y-91174399D01*
X107797600Y-91121873D01*
X107797600Y-91121869D01*
X107766651Y-90966278D01*
X107698713Y-90864602D01*
X107766042Y-90763838D01*
X107791669Y-90635000D01*
X107791669Y-89820750D01*
X109080000Y-89820750D01*
X109080000Y-90761310D01*
X109176673Y-90994699D01*
X109355302Y-91173327D01*
X109588691Y-91270000D01*
X109619097Y-91270000D01*
X109601000Y-91313690D01*
X109601000Y-92424250D01*
X109759750Y-92583000D01*
X110744000Y-92583000D01*
X110744000Y-92563000D01*
X110998000Y-92563000D01*
X110998000Y-92583000D01*
X111982250Y-92583000D01*
X112141000Y-92424250D01*
X112141000Y-91313690D01*
X112044327Y-91080301D01*
X111865698Y-90901673D01*
X111856156Y-90897720D01*
X111893061Y-90873061D01*
X111966042Y-90763838D01*
X111991669Y-90635000D01*
X111991669Y-88435000D01*
X111966042Y-88306162D01*
X111893061Y-88196939D01*
X111783838Y-88123958D01*
X111655000Y-88098331D01*
X111062866Y-88098331D01*
X111053327Y-88075301D01*
X110874698Y-87896673D01*
X110641309Y-87800000D01*
X110400750Y-87800000D01*
X110242000Y-87958750D01*
X110242000Y-89408000D01*
X110262000Y-89408000D01*
X110262000Y-89662000D01*
X110242000Y-89662000D01*
X110242000Y-89682000D01*
X109988000Y-89682000D01*
X109988000Y-89662000D01*
X109238750Y-89662000D01*
X109080000Y-89820750D01*
X107791669Y-89820750D01*
X107791669Y-88435000D01*
X107766545Y-88308690D01*
X109080000Y-88308690D01*
X109080000Y-89249250D01*
X109238750Y-89408000D01*
X109988000Y-89408000D01*
X109988000Y-87958750D01*
X109829250Y-87800000D01*
X109588691Y-87800000D01*
X109355302Y-87896673D01*
X109176673Y-88075301D01*
X109080000Y-88308690D01*
X107766545Y-88308690D01*
X107766042Y-88306162D01*
X107693061Y-88196939D01*
X107583838Y-88123958D01*
X107455000Y-88098331D01*
X106655000Y-88098331D01*
X106526162Y-88123958D01*
X106485000Y-88151462D01*
X106443838Y-88123958D01*
X106315000Y-88098331D01*
X105515000Y-88098331D01*
X105386162Y-88123958D01*
X105276939Y-88196939D01*
X105203958Y-88306162D01*
X105178331Y-88435000D01*
X105178331Y-90635000D01*
X105203958Y-90763838D01*
X105276939Y-90873061D01*
X105287695Y-90880248D01*
X104521000Y-91646943D01*
X104521000Y-91313690D01*
X104424327Y-91080301D01*
X104245698Y-90901673D01*
X104236156Y-90897720D01*
X104273061Y-90873061D01*
X104346042Y-90763838D01*
X104371669Y-90635000D01*
X104371669Y-88435000D01*
X104346042Y-88306162D01*
X104273061Y-88196939D01*
X104163838Y-88123958D01*
X104035000Y-88098331D01*
X103442866Y-88098331D01*
X103433327Y-88075301D01*
X103254698Y-87896673D01*
X103021309Y-87800000D01*
X102780750Y-87800000D01*
X102622000Y-87958750D01*
X102622000Y-89408000D01*
X102642000Y-89408000D01*
X102642000Y-89662000D01*
X102622000Y-89662000D01*
X102622000Y-89682000D01*
X102368000Y-89682000D01*
X102368000Y-89662000D01*
X101618750Y-89662000D01*
X101460000Y-89820750D01*
X101460000Y-90761310D01*
X101556673Y-90994699D01*
X101735302Y-91173327D01*
X101968691Y-91270000D01*
X101999097Y-91270000D01*
X101981000Y-91313690D01*
X101981000Y-92424250D01*
X102139750Y-92583000D01*
X103124000Y-92583000D01*
X103124000Y-92563000D01*
X103378000Y-92563000D01*
X103378000Y-92583000D01*
X103398000Y-92583000D01*
X103398000Y-92837000D01*
X103378000Y-92837000D01*
X103378000Y-94456250D01*
X103536750Y-94615000D01*
X104012309Y-94615000D01*
X104245698Y-94518327D01*
X104343201Y-94420825D01*
X104343201Y-94659331D01*
X103505000Y-94659331D01*
X103376162Y-94684958D01*
X103266939Y-94757939D01*
X103193958Y-94867162D01*
X103168331Y-94996000D01*
X103168331Y-96266000D01*
X103193958Y-96394838D01*
X103266939Y-96504061D01*
X103376162Y-96577042D01*
X103505000Y-96602669D01*
X106012474Y-96602669D01*
X105613143Y-97002000D01*
X89959122Y-97002000D01*
X89916600Y-96993542D01*
X89874078Y-97002000D01*
X89874074Y-97002000D01*
X89748120Y-97027054D01*
X89641341Y-97098401D01*
X89641340Y-97098402D01*
X89605290Y-97122490D01*
X89581202Y-97158540D01*
X89259740Y-97480003D01*
X89223691Y-97504090D01*
X89199603Y-97540140D01*
X89199601Y-97540142D01*
X89128254Y-97646921D01*
X89116238Y-97707331D01*
X88265000Y-97707331D01*
X88136162Y-97732958D01*
X88026939Y-97805939D01*
X87953958Y-97915162D01*
X87928331Y-98044000D01*
X87928331Y-99314000D01*
X87953958Y-99442838D01*
X88026939Y-99552061D01*
X88136162Y-99625042D01*
X88265000Y-99650669D01*
X88732109Y-99650669D01*
X88340801Y-99812754D01*
X87747754Y-100405801D01*
X87426800Y-101180653D01*
X87426800Y-102019347D01*
X87747754Y-102794199D01*
X88340801Y-103387246D01*
X89115653Y-103708200D01*
X89954347Y-103708200D01*
X90729199Y-103387246D01*
X91322246Y-102794199D01*
X91643200Y-102019347D01*
X91643200Y-101180653D01*
X91616220Y-101115516D01*
X95799800Y-101115516D01*
X95799800Y-101684484D01*
X96017535Y-102210143D01*
X96419857Y-102612465D01*
X96945516Y-102830200D01*
X97514484Y-102830200D01*
X98040143Y-102612465D01*
X98442465Y-102210143D01*
X98660200Y-101684484D01*
X98660200Y-101115516D01*
X98442465Y-100589857D01*
X98040143Y-100187535D01*
X97514484Y-99969800D01*
X96945516Y-99969800D01*
X96419857Y-100187535D01*
X96017535Y-100589857D01*
X95799800Y-101115516D01*
X91616220Y-101115516D01*
X91322246Y-100405801D01*
X90729199Y-99812754D01*
X90337891Y-99650669D01*
X90805000Y-99650669D01*
X90933838Y-99625042D01*
X91043061Y-99552061D01*
X91116042Y-99442838D01*
X91141669Y-99314000D01*
X91141669Y-98044000D01*
X91116042Y-97915162D01*
X91082925Y-97865600D01*
X95607075Y-97865600D01*
X95573958Y-97915162D01*
X95548331Y-98044000D01*
X95548331Y-99314000D01*
X95573958Y-99442838D01*
X95646939Y-99552061D01*
X95756162Y-99625042D01*
X95885000Y-99650669D01*
X98425000Y-99650669D01*
X98553838Y-99625042D01*
X98663061Y-99552061D01*
X98736042Y-99442838D01*
X98761669Y-99314000D01*
X98761669Y-99097763D01*
X98822080Y-99085746D01*
X98964910Y-98990310D01*
X98988999Y-98954258D01*
X99670958Y-98272300D01*
X103168331Y-98272300D01*
X103168331Y-99314000D01*
X103193958Y-99442838D01*
X103266939Y-99552061D01*
X103376162Y-99625042D01*
X103505000Y-99650669D01*
X105612873Y-99650669D01*
X100689743Y-104573800D01*
X100653690Y-104597890D01*
X100558254Y-104740721D01*
X100533200Y-104866675D01*
X100533200Y-104866678D01*
X100524742Y-104909200D01*
X100533200Y-104951722D01*
X100533200Y-105141059D01*
X100474426Y-105152750D01*
X100058538Y-105430638D01*
X99780650Y-105846527D01*
X99707700Y-106213272D01*
X99707700Y-107146729D01*
X99780650Y-107513474D01*
X99923057Y-107726600D01*
X99466943Y-107726600D01*
X99609350Y-107513474D01*
X99682300Y-107146728D01*
X99682300Y-106213271D01*
X99609350Y-105846526D01*
X99331462Y-105430638D01*
X98915573Y-105152750D01*
X98425000Y-105055169D01*
X97934426Y-105152750D01*
X97518538Y-105430638D01*
X97240650Y-105846527D01*
X97167700Y-106213272D01*
X97167700Y-107146729D01*
X97240650Y-107513474D01*
X97383057Y-107726600D01*
X96926943Y-107726600D01*
X97069350Y-107513474D01*
X97142300Y-107146728D01*
X97142300Y-106213271D01*
X97069350Y-105846526D01*
X96791462Y-105430638D01*
X96375573Y-105152750D01*
X95885000Y-105055169D01*
X95394426Y-105152750D01*
X94978538Y-105430638D01*
X94700650Y-105846527D01*
X94627700Y-106213272D01*
X94627700Y-107146729D01*
X94700650Y-107513474D01*
X94843057Y-107726600D01*
X94386943Y-107726600D01*
X94529350Y-107513474D01*
X94602300Y-107146728D01*
X94602300Y-106213271D01*
X94529350Y-105846526D01*
X94251462Y-105430638D01*
X93835573Y-105152750D01*
X93345000Y-105055169D01*
X92854426Y-105152750D01*
X92438538Y-105430638D01*
X92160650Y-105846527D01*
X92101490Y-106143946D01*
X92062300Y-106136151D01*
X92047544Y-106139086D01*
X91989350Y-105846526D01*
X91711462Y-105430638D01*
X91295573Y-105152750D01*
X90805000Y-105055169D01*
X90314426Y-105152750D01*
X89898538Y-105430638D01*
X89620650Y-105846527D01*
X89547700Y-106213272D01*
X89547700Y-107146729D01*
X89620650Y-107513474D01*
X89898539Y-107929362D01*
X90314427Y-108207250D01*
X90805000Y-108304831D01*
X91295574Y-108207250D01*
X91695277Y-107940176D01*
X91722277Y-107958217D01*
X92364084Y-108600025D01*
X92393841Y-108644559D01*
X92570278Y-108762451D01*
X92725869Y-108793400D01*
X92725873Y-108793400D01*
X92778399Y-108803848D01*
X92830925Y-108793400D01*
X119224674Y-108793400D01*
X119277200Y-108803848D01*
X119329726Y-108793400D01*
X119329731Y-108793400D01*
X119485322Y-108762451D01*
X119661759Y-108644559D01*
X119691517Y-108600023D01*
X120355025Y-107936516D01*
X120374586Y-107923446D01*
X120378539Y-107929362D01*
X120794427Y-108207250D01*
X121285000Y-108304831D01*
X121775574Y-108207250D01*
X122191462Y-107929362D01*
X122469350Y-107513474D01*
X122542300Y-107146728D01*
X122542300Y-106213272D01*
X122567700Y-106213272D01*
X122567700Y-107146729D01*
X122640650Y-107513474D01*
X122918539Y-107929362D01*
X123334427Y-108207250D01*
X123825000Y-108304831D01*
X124315574Y-108207250D01*
X124731462Y-107929362D01*
X125009350Y-107513474D01*
X125082300Y-107146728D01*
X125082300Y-106213271D01*
X125009350Y-105846526D01*
X124731462Y-105430638D01*
X124315573Y-105152750D01*
X123825000Y-105055169D01*
X123334426Y-105152750D01*
X122918538Y-105430638D01*
X122640650Y-105846527D01*
X122567700Y-106213272D01*
X122542300Y-106213272D01*
X122542300Y-106213271D01*
X122469350Y-105846526D01*
X122191462Y-105430638D01*
X121775573Y-105152750D01*
X121350202Y-105068138D01*
X123000125Y-103418215D01*
X123044659Y-103388459D01*
X123162551Y-103212022D01*
X123193500Y-103056431D01*
X123193500Y-103056427D01*
X123203948Y-103003901D01*
X123193500Y-102951375D01*
X123193500Y-101557941D01*
X123232977Y-101617023D01*
X123271154Y-101642532D01*
X126762948Y-105134326D01*
X126365000Y-105055169D01*
X125874426Y-105152750D01*
X125458538Y-105430638D01*
X125180650Y-105846527D01*
X125107700Y-106213272D01*
X125107700Y-107146729D01*
X125180650Y-107513474D01*
X125458539Y-107929362D01*
X125874427Y-108207250D01*
X126365000Y-108304831D01*
X126855574Y-108207250D01*
X127271462Y-107929362D01*
X127327507Y-107845485D01*
X128792170Y-109310149D01*
X128817677Y-109348323D01*
X128855851Y-109373830D01*
X128910731Y-109410500D01*
X86169500Y-109410500D01*
X86169500Y-106213272D01*
X87007700Y-106213272D01*
X87007700Y-107146729D01*
X87080650Y-107513474D01*
X87358539Y-107929362D01*
X87774427Y-108207250D01*
X88265000Y-108304831D01*
X88755574Y-108207250D01*
X89171462Y-107929362D01*
X89449350Y-107513474D01*
X89522300Y-107146728D01*
X89522300Y-106213271D01*
X89449350Y-105846526D01*
X89171462Y-105430638D01*
X88755573Y-105152750D01*
X88265000Y-105055169D01*
X87774426Y-105152750D01*
X87358538Y-105430638D01*
X87080650Y-105846527D01*
X87007700Y-106213272D01*
X86169500Y-106213272D01*
X86169500Y-92995750D01*
X86741000Y-92995750D01*
X86741000Y-94106310D01*
X86837673Y-94339699D01*
X87016302Y-94518327D01*
X87249691Y-94615000D01*
X87725250Y-94615000D01*
X87884000Y-94456250D01*
X87884000Y-92837000D01*
X86899750Y-92837000D01*
X86741000Y-92995750D01*
X86169500Y-92995750D01*
X86169500Y-88308690D01*
X86220000Y-88308690D01*
X86220000Y-89249250D01*
X86378750Y-89408000D01*
X87128000Y-89408000D01*
X87128000Y-87958750D01*
X86969250Y-87800000D01*
X86728691Y-87800000D01*
X86495302Y-87896673D01*
X86316673Y-88075301D01*
X86220000Y-88308690D01*
X86169500Y-88308690D01*
X86169500Y-75780653D01*
X87426800Y-75780653D01*
X87426800Y-76619347D01*
X87747754Y-77394199D01*
X88340801Y-77987246D01*
X89115653Y-78308200D01*
X89954347Y-78308200D01*
X90729199Y-77987246D01*
X91322246Y-77394199D01*
X91643200Y-76619347D01*
X91643200Y-75780653D01*
X91322246Y-75005801D01*
X90729199Y-74412754D01*
X89954347Y-74091800D01*
X89115653Y-74091800D01*
X88340801Y-74412754D01*
X87747754Y-75005801D01*
X87426800Y-75780653D01*
X86169500Y-75780653D01*
X86169500Y-68389500D01*
X155765501Y-68389500D01*
X155765501Y-83669880D01*
X155765501Y-83669880D01*
G37*
X155765501Y-83669880D02*
X155645448Y-83380048D01*
X154989952Y-82724552D01*
X154133506Y-82369800D01*
X153206494Y-82369800D01*
X152350048Y-82724552D01*
X151694552Y-83380048D01*
X151339800Y-84236494D01*
X151339800Y-85163506D01*
X151694552Y-86019952D01*
X152350048Y-86675448D01*
X153206494Y-87030200D01*
X154133506Y-87030200D01*
X154989952Y-86675448D01*
X155645448Y-86019952D01*
X155765501Y-85730120D01*
X155765500Y-92069880D01*
X155645448Y-91780048D01*
X154989952Y-91124552D01*
X154133506Y-90769800D01*
X153206494Y-90769800D01*
X152350048Y-91124552D01*
X151694552Y-91780048D01*
X151339800Y-92636494D01*
X151339800Y-93563506D01*
X151694552Y-94419952D01*
X152350048Y-95075448D01*
X153206494Y-95430200D01*
X154133506Y-95430200D01*
X154989952Y-95075448D01*
X155645448Y-94419952D01*
X155765500Y-94130120D01*
X155765500Y-109410500D01*
X134978469Y-109410500D01*
X135071523Y-109348323D01*
X135097032Y-109310146D01*
X136216136Y-108191042D01*
X136226658Y-108243938D01*
X136299639Y-108353161D01*
X136408862Y-108426142D01*
X136537700Y-108451769D01*
X137325100Y-108451769D01*
X137453938Y-108426142D01*
X137563161Y-108353161D01*
X137636142Y-108243938D01*
X137661769Y-108115100D01*
X137661769Y-106514900D01*
X137636142Y-106386062D01*
X137563161Y-106276839D01*
X137453938Y-106203858D01*
X137325100Y-106178231D01*
X136537700Y-106178231D01*
X136408862Y-106203858D01*
X136299639Y-106276839D01*
X136226658Y-106386062D01*
X136201031Y-106514900D01*
X136201031Y-106865287D01*
X136105309Y-106884327D01*
X135954077Y-106985377D01*
X135853027Y-107136609D01*
X135822142Y-107291880D01*
X135578969Y-107535053D01*
X135578969Y-106514900D01*
X135553342Y-106386062D01*
X135480361Y-106276839D01*
X135371138Y-106203858D01*
X135242300Y-106178231D01*
X134454900Y-106178231D01*
X134326062Y-106203858D01*
X134216839Y-106276839D01*
X134143858Y-106386062D01*
X134118231Y-106514900D01*
X134118231Y-106896237D01*
X134057820Y-106908254D01*
X133951041Y-106979601D01*
X133951040Y-106979602D01*
X133914990Y-107003690D01*
X133890902Y-107039740D01*
X132674343Y-108256300D01*
X131580145Y-108256300D01*
X131962246Y-107874199D01*
X132283200Y-107099347D01*
X132283200Y-106260653D01*
X131962246Y-105485801D01*
X131612543Y-105136098D01*
X142713000Y-105136098D01*
X142713000Y-105683902D01*
X142922636Y-106190008D01*
X143309992Y-106577364D01*
X143816098Y-106787000D01*
X144363902Y-106787000D01*
X144870008Y-106577364D01*
X145257364Y-106190008D01*
X145467000Y-105683902D01*
X145467000Y-105136098D01*
X151713000Y-105136098D01*
X151713000Y-105683902D01*
X151922636Y-106190008D01*
X152309992Y-106577364D01*
X152816098Y-106787000D01*
X153363902Y-106787000D01*
X153870008Y-106577364D01*
X154257364Y-106190008D01*
X154467000Y-105683902D01*
X154467000Y-105136098D01*
X154257364Y-104629992D01*
X153870008Y-104242636D01*
X153363902Y-104033000D01*
X152816098Y-104033000D01*
X152309992Y-104242636D01*
X151922636Y-104629992D01*
X151713000Y-105136098D01*
X145467000Y-105136098D01*
X145257364Y-104629992D01*
X144870008Y-104242636D01*
X144363902Y-104033000D01*
X143816098Y-104033000D01*
X143309992Y-104242636D01*
X142922636Y-104629992D01*
X142713000Y-105136098D01*
X131612543Y-105136098D01*
X131369199Y-104892754D01*
X130594347Y-104571800D01*
X129755653Y-104571800D01*
X129481282Y-104685448D01*
X129475400Y-104655878D01*
X129475400Y-103121426D01*
X129483859Y-103078900D01*
X129464456Y-102981354D01*
X129450346Y-102910420D01*
X129401868Y-102837867D01*
X129475000Y-102661310D01*
X129475000Y-102520750D01*
X129316250Y-102362000D01*
X127967000Y-102362000D01*
X127967000Y-102382000D01*
X127713000Y-102382000D01*
X127713000Y-102362000D01*
X127693000Y-102362000D01*
X127693000Y-102108000D01*
X127713000Y-102108000D01*
X127713000Y-102088000D01*
X127967000Y-102088000D01*
X127967000Y-102108000D01*
X129316250Y-102108000D01*
X129475000Y-101949250D01*
X129475000Y-101808690D01*
X129378327Y-101575301D01*
X129199698Y-101396673D01*
X129171170Y-101384856D01*
X129237080Y-101371746D01*
X129379910Y-101276310D01*
X129475346Y-101133480D01*
X129508859Y-100965000D01*
X129500400Y-100922474D01*
X129500400Y-100889057D01*
X129647442Y-100742015D01*
X129651154Y-100760679D01*
X129746590Y-100903510D01*
X129782643Y-100927600D01*
X132635300Y-103780257D01*
X132659390Y-103816310D01*
X132802220Y-103911746D01*
X132928174Y-103936800D01*
X132928177Y-103936800D01*
X132970699Y-103945258D01*
X133013221Y-103936800D01*
X134118231Y-103936800D01*
X134118231Y-104305100D01*
X134143858Y-104433938D01*
X134216839Y-104543161D01*
X134326062Y-104616142D01*
X134454900Y-104641769D01*
X135242300Y-104641769D01*
X135371138Y-104616142D01*
X135480361Y-104543161D01*
X135553342Y-104433938D01*
X135578969Y-104305100D01*
X135578969Y-103284947D01*
X135822142Y-103528120D01*
X135853027Y-103683391D01*
X135923769Y-103789264D01*
X135954077Y-103834623D01*
X136105309Y-103935673D01*
X136201031Y-103954713D01*
X136201031Y-104305100D01*
X136226658Y-104433938D01*
X136299639Y-104543161D01*
X136408862Y-104616142D01*
X136537700Y-104641769D01*
X137325100Y-104641769D01*
X137453938Y-104616142D01*
X137563161Y-104543161D01*
X137636142Y-104433938D01*
X137661769Y-104305100D01*
X137661769Y-102785000D01*
X147853331Y-102785000D01*
X147853331Y-103685000D01*
X147878958Y-103813838D01*
X147951939Y-103923061D01*
X148061162Y-103996042D01*
X148124254Y-104008591D01*
X148094400Y-104080664D01*
X148094400Y-104338336D01*
X148193007Y-104576392D01*
X148375208Y-104758593D01*
X148613264Y-104857200D01*
X148870936Y-104857200D01*
X149108992Y-104758593D01*
X149291193Y-104576392D01*
X149389800Y-104338336D01*
X149389800Y-104080664D01*
X149291193Y-103842608D01*
X149285573Y-103836988D01*
X149301042Y-103813838D01*
X149326669Y-103685000D01*
X149326669Y-102785000D01*
X149301042Y-102656162D01*
X149228061Y-102546939D01*
X149118838Y-102473958D01*
X148990000Y-102448331D01*
X148190000Y-102448331D01*
X148061162Y-102473958D01*
X147951939Y-102546939D01*
X147878958Y-102656162D01*
X147853331Y-102785000D01*
X137661769Y-102785000D01*
X137661769Y-102704900D01*
X137636142Y-102576062D01*
X137563161Y-102466839D01*
X137453938Y-102393858D01*
X137325100Y-102368231D01*
X136537700Y-102368231D01*
X136408862Y-102393858D01*
X136299639Y-102466839D01*
X136226658Y-102576062D01*
X136216136Y-102628958D01*
X135700032Y-102112854D01*
X135674523Y-102074677D01*
X135523291Y-101973627D01*
X135389930Y-101947100D01*
X135344900Y-101938143D01*
X135299870Y-101947100D01*
X132625378Y-101947100D01*
X132430678Y-101752400D01*
X146883278Y-101752400D01*
X146918116Y-101759330D01*
X146928958Y-101813838D01*
X147001939Y-101923061D01*
X147111162Y-101996042D01*
X147240000Y-102021669D01*
X148040000Y-102021669D01*
X148168838Y-101996042D01*
X148278061Y-101923061D01*
X148351042Y-101813838D01*
X148376669Y-101685000D01*
X148376669Y-101520750D01*
X148505000Y-101520750D01*
X148505000Y-101811310D01*
X148601673Y-102044699D01*
X148780302Y-102223327D01*
X149013691Y-102320000D01*
X149254250Y-102320000D01*
X149413000Y-102161250D01*
X149413000Y-101362000D01*
X149667000Y-101362000D01*
X149667000Y-102161250D01*
X149825750Y-102320000D01*
X150066309Y-102320000D01*
X150299698Y-102223327D01*
X150478327Y-102044699D01*
X150575000Y-101811310D01*
X150575000Y-101520750D01*
X150416250Y-101362000D01*
X149667000Y-101362000D01*
X149413000Y-101362000D01*
X148663750Y-101362000D01*
X148505000Y-101520750D01*
X148376669Y-101520750D01*
X148376669Y-100785000D01*
X148351545Y-100658690D01*
X148505000Y-100658690D01*
X148505000Y-100949250D01*
X148663750Y-101108000D01*
X149413000Y-101108000D01*
X149413000Y-100308750D01*
X149667000Y-100308750D01*
X149667000Y-101108000D01*
X150416250Y-101108000D01*
X150575000Y-100949250D01*
X150575000Y-100658690D01*
X150478327Y-100425301D01*
X150299698Y-100246673D01*
X150066309Y-100150000D01*
X149825750Y-100150000D01*
X149667000Y-100308750D01*
X149413000Y-100308750D01*
X149254250Y-100150000D01*
X149013691Y-100150000D01*
X148780302Y-100246673D01*
X148601673Y-100425301D01*
X148505000Y-100658690D01*
X148351545Y-100658690D01*
X148351042Y-100656162D01*
X148278061Y-100546939D01*
X148168838Y-100473958D01*
X148040000Y-100448331D01*
X147240000Y-100448331D01*
X147111162Y-100473958D01*
X147001939Y-100546939D01*
X146928958Y-100656162D01*
X146903331Y-100785000D01*
X146903331Y-100816237D01*
X146842920Y-100828254D01*
X146752307Y-100888800D01*
X138676241Y-100888800D01*
X138753260Y-100747277D01*
X138768220Y-100673070D01*
X138645720Y-100457000D01*
X137287000Y-100457000D01*
X137287000Y-100477000D01*
X137033000Y-100477000D01*
X137033000Y-100457000D01*
X135674280Y-100457000D01*
X135551780Y-100673070D01*
X135566740Y-100747277D01*
X135643759Y-100888800D01*
X133274199Y-100888800D01*
X133362829Y-100756155D01*
X133447597Y-100330000D01*
X133362829Y-99903845D01*
X133121432Y-99542568D01*
X132788348Y-99320009D01*
X133577258Y-98531099D01*
X133613310Y-98507010D01*
X133708746Y-98364180D01*
X133733800Y-98238226D01*
X133733800Y-98238225D01*
X133742259Y-98195700D01*
X133733800Y-98153174D01*
X133733800Y-98133070D01*
X135551780Y-98133070D01*
X135566740Y-98207277D01*
X135828370Y-98688026D01*
X136254059Y-99032059D01*
X136348723Y-99060000D01*
X136254059Y-99087941D01*
X135828370Y-99431974D01*
X135566740Y-99912723D01*
X135551780Y-99986930D01*
X135674280Y-100203000D01*
X137033000Y-100203000D01*
X137033000Y-97917000D01*
X137287000Y-97917000D01*
X137287000Y-100203000D01*
X138645720Y-100203000D01*
X138768220Y-99986930D01*
X138753260Y-99912723D01*
X138491630Y-99431974D01*
X138065941Y-99087941D01*
X137971277Y-99060000D01*
X138065941Y-99032059D01*
X138491630Y-98688026D01*
X138753260Y-98207277D01*
X138768220Y-98133070D01*
X138645720Y-97917000D01*
X137287000Y-97917000D01*
X137033000Y-97917000D01*
X135674280Y-97917000D01*
X135551780Y-98133070D01*
X133733800Y-98133070D01*
X133733800Y-95593070D01*
X135551780Y-95593070D01*
X135566740Y-95667277D01*
X135828370Y-96148026D01*
X136254059Y-96492059D01*
X136348723Y-96520000D01*
X136254059Y-96547941D01*
X135828370Y-96891974D01*
X135566740Y-97372723D01*
X135551780Y-97446930D01*
X135674280Y-97663000D01*
X137033000Y-97663000D01*
X137033000Y-95377000D01*
X137287000Y-95377000D01*
X137287000Y-97663000D01*
X138645720Y-97663000D01*
X138653817Y-97648718D01*
X138794059Y-97762059D01*
X139319000Y-97917000D01*
X139573000Y-97917000D01*
X139573000Y-96647000D01*
X139827000Y-96647000D01*
X139827000Y-97917000D01*
X140081000Y-97917000D01*
X140605941Y-97762059D01*
X141031630Y-97418026D01*
X141293260Y-96937277D01*
X141308220Y-96863070D01*
X141185720Y-96647000D01*
X139827000Y-96647000D01*
X139573000Y-96647000D01*
X138214280Y-96647000D01*
X138206183Y-96661282D01*
X138065941Y-96547941D01*
X137971277Y-96520000D01*
X143412403Y-96520000D01*
X143497171Y-96946155D01*
X143738568Y-97307432D01*
X144099845Y-97548829D01*
X144418431Y-97612200D01*
X145141569Y-97612200D01*
X145460155Y-97548829D01*
X145821432Y-97307432D01*
X146062829Y-96946155D01*
X146147597Y-96520000D01*
X146062829Y-96093845D01*
X145821432Y-95732568D01*
X145460155Y-95491171D01*
X145141569Y-95427800D01*
X144418431Y-95427800D01*
X144099845Y-95491171D01*
X143738568Y-95732568D01*
X143497171Y-96093845D01*
X143412403Y-96520000D01*
X137971277Y-96520000D01*
X138065941Y-96492059D01*
X138206183Y-96378718D01*
X138214280Y-96393000D01*
X139573000Y-96393000D01*
X139573000Y-95123000D01*
X139319000Y-95123000D01*
X138794059Y-95277941D01*
X138653817Y-95391282D01*
X138645720Y-95377000D01*
X137287000Y-95377000D01*
X137033000Y-95377000D01*
X135674280Y-95377000D01*
X135551780Y-95593070D01*
X133733800Y-95593070D01*
X133733800Y-93053070D01*
X135551780Y-93053070D01*
X135566740Y-93127277D01*
X135828370Y-93608026D01*
X136254059Y-93952059D01*
X136348723Y-93980000D01*
X136254059Y-94007941D01*
X135828370Y-94351974D01*
X135566740Y-94832723D01*
X135551780Y-94906930D01*
X135674280Y-95123000D01*
X137033000Y-95123000D01*
X137033000Y-92837000D01*
X135674280Y-92837000D01*
X135551780Y-93053070D01*
X133733800Y-93053070D01*
X133733800Y-90513070D01*
X135551780Y-90513070D01*
X135566740Y-90587277D01*
X135828370Y-91068026D01*
X136254059Y-91412059D01*
X136348723Y-91440000D01*
X136254059Y-91467941D01*
X135828370Y-91811974D01*
X135566740Y-92292723D01*
X135551780Y-92366930D01*
X135674280Y-92583000D01*
X137033000Y-92583000D01*
X137033000Y-90297000D01*
X135674280Y-90297000D01*
X135551780Y-90513070D01*
X133733800Y-90513070D01*
X133733800Y-87973070D01*
X135551780Y-87973070D01*
X135566740Y-88047277D01*
X135828370Y-88528026D01*
X136254059Y-88872059D01*
X136348723Y-88900000D01*
X136254059Y-88927941D01*
X135828370Y-89271974D01*
X135566740Y-89752723D01*
X135551780Y-89826930D01*
X135674280Y-90043000D01*
X137033000Y-90043000D01*
X137033000Y-87757000D01*
X135674280Y-87757000D01*
X135551780Y-87973070D01*
X133733800Y-87973070D01*
X133733800Y-87222721D01*
X133742258Y-87180199D01*
X133733800Y-87137677D01*
X133733800Y-87137674D01*
X133708746Y-87011720D01*
X133613310Y-86868890D01*
X133577257Y-86844800D01*
X132814784Y-86082327D01*
X133121432Y-85877432D01*
X133362829Y-85516155D01*
X133379355Y-85433070D01*
X135551780Y-85433070D01*
X135566740Y-85507277D01*
X135828370Y-85988026D01*
X136254059Y-86332059D01*
X136348723Y-86360000D01*
X136254059Y-86387941D01*
X135828370Y-86731974D01*
X135566740Y-87212723D01*
X135551780Y-87286930D01*
X135674280Y-87503000D01*
X137033000Y-87503000D01*
X137033000Y-85217000D01*
X135674280Y-85217000D01*
X135551780Y-85433070D01*
X133379355Y-85433070D01*
X133447597Y-85090000D01*
X133362829Y-84663845D01*
X133121432Y-84302568D01*
X132760155Y-84061171D01*
X132441569Y-83997800D01*
X132150358Y-83997800D01*
X132188976Y-83959182D01*
X132248480Y-83947346D01*
X132391310Y-83851910D01*
X132486746Y-83709080D01*
X132502459Y-83630088D01*
X132760155Y-83578829D01*
X133121432Y-83337432D01*
X133362829Y-82976155D01*
X133379355Y-82893070D01*
X135551780Y-82893070D01*
X135566740Y-82967277D01*
X135828370Y-83448026D01*
X136254059Y-83792059D01*
X136348723Y-83820000D01*
X136254059Y-83847941D01*
X135828370Y-84191974D01*
X135566740Y-84672723D01*
X135551780Y-84746930D01*
X135674280Y-84963000D01*
X137033000Y-84963000D01*
X137033000Y-82677000D01*
X137287000Y-82677000D01*
X137287000Y-84963000D01*
X137307000Y-84963000D01*
X137307000Y-85217000D01*
X137287000Y-85217000D01*
X137287000Y-87503000D01*
X137307000Y-87503000D01*
X137307000Y-87757000D01*
X137287000Y-87757000D01*
X137287000Y-90043000D01*
X137307000Y-90043000D01*
X137307000Y-90297000D01*
X137287000Y-90297000D01*
X137287000Y-92583000D01*
X137307000Y-92583000D01*
X137307000Y-92837000D01*
X137287000Y-92837000D01*
X137287000Y-95123000D01*
X138645720Y-95123000D01*
X138768220Y-94906930D01*
X138753260Y-94832723D01*
X138491630Y-94351974D01*
X138065941Y-94007941D01*
X137971277Y-93980000D01*
X138065941Y-93952059D01*
X138332213Y-93736863D01*
X138348916Y-93799696D01*
X138770524Y-94519870D01*
X139435638Y-95023882D01*
X139827000Y-95126220D01*
X139827000Y-96393000D01*
X141185720Y-96393000D01*
X141308220Y-96176930D01*
X141293260Y-96102723D01*
X141031630Y-95621974D01*
X140605941Y-95277941D01*
X140460457Y-95235000D01*
X140743000Y-95235000D01*
X140743000Y-93227000D01*
X140997000Y-93227000D01*
X140997000Y-95235000D01*
X141497000Y-95235000D01*
X142304362Y-95023882D01*
X142969476Y-94519870D01*
X143391084Y-93799696D01*
X143455113Y-93558833D01*
X143342165Y-93227000D01*
X140997000Y-93227000D01*
X140743000Y-93227000D01*
X140723000Y-93227000D01*
X140723000Y-93100000D01*
X144003945Y-93100000D01*
X144145990Y-93814108D01*
X144550500Y-94419500D01*
X145155892Y-94824010D01*
X145689745Y-94930200D01*
X147050255Y-94930200D01*
X147584108Y-94824010D01*
X148189500Y-94419500D01*
X148594010Y-93814108D01*
X148736055Y-93100000D01*
X148594010Y-92385892D01*
X148189500Y-91780500D01*
X147584108Y-91375990D01*
X147050255Y-91269800D01*
X145689745Y-91269800D01*
X145155892Y-91375990D01*
X144550500Y-91780500D01*
X144145990Y-92385892D01*
X144003945Y-93100000D01*
X140723000Y-93100000D01*
X140723000Y-92973000D01*
X140743000Y-92973000D01*
X140743000Y-89027000D01*
X140997000Y-89027000D01*
X140997000Y-92973000D01*
X143342165Y-92973000D01*
X143455113Y-92641167D01*
X143391084Y-92400304D01*
X142969476Y-91680130D01*
X142304362Y-91176118D01*
X141630848Y-91000000D01*
X142304362Y-90823882D01*
X142969476Y-90319870D01*
X143391084Y-89599696D01*
X143455113Y-89358833D01*
X143342165Y-89027000D01*
X140997000Y-89027000D01*
X140743000Y-89027000D01*
X138397835Y-89027000D01*
X138352676Y-89159674D01*
X138065941Y-88927941D01*
X137971277Y-88900000D01*
X144003945Y-88900000D01*
X144145990Y-89614108D01*
X144550500Y-90219500D01*
X145155892Y-90624010D01*
X145689745Y-90730200D01*
X147050255Y-90730200D01*
X147584108Y-90624010D01*
X148189500Y-90219500D01*
X148594010Y-89614108D01*
X148736055Y-88900000D01*
X148594010Y-88185892D01*
X148189500Y-87580500D01*
X147584108Y-87175990D01*
X147050255Y-87069800D01*
X145689745Y-87069800D01*
X145155892Y-87175990D01*
X144550500Y-87580500D01*
X144145990Y-88185892D01*
X144003945Y-88900000D01*
X137971277Y-88900000D01*
X138065941Y-88872059D01*
X138352676Y-88640326D01*
X138397835Y-88773000D01*
X140743000Y-88773000D01*
X140743000Y-84827000D01*
X140997000Y-84827000D01*
X140997000Y-88773000D01*
X143342165Y-88773000D01*
X143455113Y-88441167D01*
X143391084Y-88200304D01*
X142969476Y-87480130D01*
X142304362Y-86976118D01*
X141630848Y-86800000D01*
X142304362Y-86623882D01*
X142969476Y-86119870D01*
X143391084Y-85399696D01*
X143455113Y-85158833D01*
X143342165Y-84827000D01*
X140997000Y-84827000D01*
X140743000Y-84827000D01*
X140723000Y-84827000D01*
X140723000Y-84573000D01*
X140743000Y-84573000D01*
X140743000Y-82565000D01*
X140997000Y-82565000D01*
X140997000Y-84573000D01*
X143342165Y-84573000D01*
X143455113Y-84241167D01*
X143391084Y-84000304D01*
X142969476Y-83280130D01*
X142863734Y-83200000D01*
X144033331Y-83200000D01*
X144033331Y-86200000D01*
X144058958Y-86328838D01*
X144131939Y-86438061D01*
X144241162Y-86511042D01*
X144370000Y-86536669D01*
X148370000Y-86536669D01*
X148498838Y-86511042D01*
X148608061Y-86438061D01*
X148681042Y-86328838D01*
X148706669Y-86200000D01*
X148706669Y-83200000D01*
X148681042Y-83071162D01*
X148608061Y-82961939D01*
X148498838Y-82888958D01*
X148370000Y-82863331D01*
X144370000Y-82863331D01*
X144241162Y-82888958D01*
X144131939Y-82961939D01*
X144058958Y-83071162D01*
X144033331Y-83200000D01*
X142863734Y-83200000D01*
X142304362Y-82776118D01*
X141497000Y-82565000D01*
X140997000Y-82565000D01*
X140743000Y-82565000D01*
X140243000Y-82565000D01*
X139435638Y-82776118D01*
X138770524Y-83280130D01*
X138348916Y-84000304D01*
X138332213Y-84063137D01*
X138065941Y-83847941D01*
X137971277Y-83820000D01*
X138065941Y-83792059D01*
X138491630Y-83448026D01*
X138753260Y-82967277D01*
X138768220Y-82893070D01*
X138645720Y-82677000D01*
X137287000Y-82677000D01*
X137033000Y-82677000D01*
X135674280Y-82677000D01*
X135551780Y-82893070D01*
X133379355Y-82893070D01*
X133447597Y-82550000D01*
X133362829Y-82123845D01*
X133121432Y-81762568D01*
X132791225Y-81541932D01*
X133980087Y-80353070D01*
X135551780Y-80353070D01*
X135566740Y-80427277D01*
X135828370Y-80908026D01*
X136254059Y-81252059D01*
X136348723Y-81280000D01*
X136254059Y-81307941D01*
X135828370Y-81651974D01*
X135566740Y-82132723D01*
X135551780Y-82206930D01*
X135674280Y-82423000D01*
X137033000Y-82423000D01*
X137033000Y-80137000D01*
X137287000Y-80137000D01*
X137287000Y-82423000D01*
X138645720Y-82423000D01*
X138768220Y-82206930D01*
X138753260Y-82132723D01*
X138491630Y-81651974D01*
X138065941Y-81307941D01*
X137971277Y-81280000D01*
X138065941Y-81252059D01*
X138491630Y-80908026D01*
X138753260Y-80427277D01*
X138768220Y-80353070D01*
X138645720Y-80137000D01*
X137287000Y-80137000D01*
X137033000Y-80137000D01*
X135674280Y-80137000D01*
X135551780Y-80353070D01*
X133980087Y-80353070D01*
X134176857Y-80156300D01*
X134212910Y-80132210D01*
X134308346Y-79989380D01*
X134333400Y-79863426D01*
X134333400Y-79863423D01*
X134341858Y-79820901D01*
X134333400Y-79778379D01*
X134333400Y-77813070D01*
X135551780Y-77813070D01*
X135566740Y-77887277D01*
X135828370Y-78368026D01*
X136254059Y-78712059D01*
X136348723Y-78740000D01*
X136254059Y-78767941D01*
X135828370Y-79111974D01*
X135566740Y-79592723D01*
X135551780Y-79666930D01*
X135674280Y-79883000D01*
X137033000Y-79883000D01*
X137033000Y-77597000D01*
X137287000Y-77597000D01*
X137287000Y-79883000D01*
X138645720Y-79883000D01*
X138768220Y-79666930D01*
X138753260Y-79592723D01*
X138491630Y-79111974D01*
X138065941Y-78767941D01*
X137971277Y-78740000D01*
X138065941Y-78712059D01*
X138491630Y-78368026D01*
X138753260Y-77887277D01*
X138768220Y-77813070D01*
X138645720Y-77597000D01*
X137287000Y-77597000D01*
X137033000Y-77597000D01*
X135674280Y-77597000D01*
X135551780Y-77813070D01*
X134333400Y-77813070D01*
X134333400Y-77122400D01*
X134551436Y-77122400D01*
X134789492Y-77023793D01*
X134971693Y-76841592D01*
X135070300Y-76603536D01*
X135070300Y-76473578D01*
X135110600Y-76433278D01*
X135110600Y-76629536D01*
X135209207Y-76867592D01*
X135391408Y-77049793D01*
X135553772Y-77117047D01*
X135551780Y-77126930D01*
X135674280Y-77343000D01*
X137033000Y-77343000D01*
X137033000Y-76073000D01*
X137287000Y-76073000D01*
X137287000Y-77343000D01*
X138645720Y-77343000D01*
X138768220Y-77126930D01*
X138753260Y-77052723D01*
X138643344Y-76850750D01*
X146605000Y-76850750D01*
X146605000Y-77141310D01*
X146701673Y-77374699D01*
X146880302Y-77553327D01*
X147113691Y-77650000D01*
X147354250Y-77650000D01*
X147513000Y-77491250D01*
X147513000Y-76692000D01*
X146763750Y-76692000D01*
X146605000Y-76850750D01*
X138643344Y-76850750D01*
X138491630Y-76571974D01*
X138065941Y-76227941D01*
X137541000Y-76073000D01*
X137287000Y-76073000D01*
X137033000Y-76073000D01*
X136832578Y-76073000D01*
X137158052Y-75747526D01*
X137261023Y-75678723D01*
X137362073Y-75527491D01*
X137383421Y-75420169D01*
X137453938Y-75406142D01*
X137563161Y-75333161D01*
X137636142Y-75223938D01*
X137661769Y-75095100D01*
X137661769Y-73494900D01*
X137636142Y-73366062D01*
X137563161Y-73256839D01*
X137453938Y-73183858D01*
X137325100Y-73158231D01*
X136765900Y-73158231D01*
X136765900Y-72351178D01*
X137222849Y-71894230D01*
X137261023Y-71868723D01*
X137362073Y-71717491D01*
X137383421Y-71610169D01*
X137453938Y-71596142D01*
X137563161Y-71523161D01*
X137636142Y-71413938D01*
X137661769Y-71285100D01*
X137661769Y-69913100D01*
X138770443Y-69913100D01*
X144601502Y-75744160D01*
X144625590Y-75780210D01*
X144661640Y-75804298D01*
X144661641Y-75804299D01*
X144752487Y-75865000D01*
X144768420Y-75875646D01*
X144894374Y-75900700D01*
X144894377Y-75900700D01*
X144936899Y-75909158D01*
X144979421Y-75900700D01*
X146641447Y-75900700D01*
X146605000Y-75988690D01*
X146605000Y-76279250D01*
X146763750Y-76438000D01*
X147513000Y-76438000D01*
X147513000Y-76418000D01*
X147767000Y-76418000D01*
X147767000Y-76438000D01*
X147787000Y-76438000D01*
X147787000Y-76692000D01*
X147767000Y-76692000D01*
X147767000Y-77491250D01*
X147925750Y-77650000D01*
X148166309Y-77650000D01*
X148399698Y-77553327D01*
X148578327Y-77374699D01*
X148675000Y-77141310D01*
X148675000Y-76926363D01*
X148742920Y-76971746D01*
X148803331Y-76983763D01*
X148803331Y-77015000D01*
X148828958Y-77143838D01*
X148901939Y-77253061D01*
X149011162Y-77326042D01*
X149140000Y-77351669D01*
X149940000Y-77351669D01*
X150068838Y-77326042D01*
X150178061Y-77253061D01*
X150251042Y-77143838D01*
X150276669Y-77015000D01*
X150276669Y-76115000D01*
X150251042Y-75986162D01*
X150178061Y-75876939D01*
X150068838Y-75803958D01*
X149940000Y-75778331D01*
X149140000Y-75778331D01*
X149011162Y-75803958D01*
X148901939Y-75876939D01*
X148874725Y-75917668D01*
X148308726Y-75351669D01*
X148990000Y-75351669D01*
X149118838Y-75326042D01*
X149228061Y-75253061D01*
X149301042Y-75143838D01*
X149326669Y-75015000D01*
X149326669Y-74983763D01*
X149387080Y-74971746D01*
X149529910Y-74876310D01*
X149625346Y-74733480D01*
X149658859Y-74565000D01*
X149650400Y-74522474D01*
X149650400Y-72116098D01*
X151713000Y-72116098D01*
X151713000Y-72663902D01*
X151922636Y-73170008D01*
X152309992Y-73557364D01*
X152816098Y-73767000D01*
X153363902Y-73767000D01*
X153870008Y-73557364D01*
X154257364Y-73170008D01*
X154467000Y-72663902D01*
X154467000Y-72116098D01*
X154257364Y-71609992D01*
X153870008Y-71222636D01*
X153363902Y-71013000D01*
X152816098Y-71013000D01*
X152309992Y-71222636D01*
X151922636Y-71609992D01*
X151713000Y-72116098D01*
X149650400Y-72116098D01*
X149650400Y-72092583D01*
X149829992Y-72018193D01*
X150012193Y-71835992D01*
X150110800Y-71597936D01*
X150110800Y-71340264D01*
X150012193Y-71102208D01*
X149829992Y-70920007D01*
X149591936Y-70821400D01*
X149334264Y-70821400D01*
X149096208Y-70920007D01*
X148914007Y-71102208D01*
X148815400Y-71340264D01*
X148815400Y-71539814D01*
X148811854Y-71545121D01*
X148778342Y-71713600D01*
X148786801Y-71756127D01*
X148786800Y-73778331D01*
X148190000Y-73778331D01*
X148061162Y-73803958D01*
X147951939Y-73876939D01*
X147878958Y-73986162D01*
X147853331Y-74115000D01*
X147853331Y-75015000D01*
X147857723Y-75037080D01*
X147815300Y-75028642D01*
X147772778Y-75037100D01*
X145115758Y-75037100D01*
X143845658Y-73767000D01*
X144363902Y-73767000D01*
X144870008Y-73557364D01*
X145257364Y-73170008D01*
X145467000Y-72663902D01*
X145467000Y-72116098D01*
X145257364Y-71609992D01*
X144870008Y-71222636D01*
X144363902Y-71013000D01*
X143816098Y-71013000D01*
X143309992Y-71222636D01*
X142922636Y-71609992D01*
X142713000Y-72116098D01*
X142713000Y-72634342D01*
X139284700Y-69206043D01*
X139260610Y-69169990D01*
X139117780Y-69074554D01*
X138991826Y-69049500D01*
X138991822Y-69049500D01*
X138949300Y-69041042D01*
X138906778Y-69049500D01*
X134396626Y-69049500D01*
X134354100Y-69041041D01*
X134311574Y-69049500D01*
X134185620Y-69074554D01*
X134042790Y-69169990D01*
X134018700Y-69206043D01*
X132469143Y-70755600D01*
X132433090Y-70779690D01*
X132337654Y-70922521D01*
X132312600Y-71048475D01*
X132312600Y-71048478D01*
X132304142Y-71091000D01*
X132312600Y-71133522D01*
X132312601Y-75636142D01*
X131804741Y-76144002D01*
X131768691Y-76168090D01*
X131744603Y-76204140D01*
X131744601Y-76204142D01*
X131673254Y-76310921D01*
X131657542Y-76389912D01*
X131399845Y-76441171D01*
X131038568Y-76682568D01*
X130797171Y-77043845D01*
X130712403Y-77470000D01*
X130797171Y-77896155D01*
X131038568Y-78257432D01*
X131368774Y-78478068D01*
X129891340Y-79955503D01*
X129855291Y-79979590D01*
X129831203Y-80015640D01*
X129831201Y-80015642D01*
X129759854Y-80122421D01*
X129726342Y-80290900D01*
X129734801Y-80333427D01*
X129734800Y-81881315D01*
X129734592Y-81881107D01*
X129496536Y-81782500D01*
X129482503Y-81782500D01*
X129475346Y-81746520D01*
X129379910Y-81603690D01*
X129237080Y-81508254D01*
X129152073Y-81491345D01*
X129151042Y-81486162D01*
X129078061Y-81376939D01*
X128968838Y-81303958D01*
X128848391Y-81280000D01*
X128968838Y-81256042D01*
X129078061Y-81183061D01*
X129151042Y-81073838D01*
X129176669Y-80945000D01*
X129176669Y-80345000D01*
X129151042Y-80216162D01*
X129078061Y-80106939D01*
X128968838Y-80033958D01*
X128848391Y-80010000D01*
X128968838Y-79986042D01*
X129078061Y-79913061D01*
X129151042Y-79803838D01*
X129176669Y-79675000D01*
X129176669Y-79075000D01*
X129151042Y-78946162D01*
X129078061Y-78836939D01*
X128968838Y-78763958D01*
X128848391Y-78740000D01*
X128968838Y-78716042D01*
X129078061Y-78643061D01*
X129151042Y-78533838D01*
X129176669Y-78405000D01*
X129176669Y-77805000D01*
X129151042Y-77676162D01*
X129078061Y-77566939D01*
X128968838Y-77493958D01*
X128848391Y-77470000D01*
X128968838Y-77446042D01*
X129078061Y-77373061D01*
X129151042Y-77263838D01*
X129176669Y-77135000D01*
X129176669Y-76535000D01*
X129151042Y-76406162D01*
X129078061Y-76296939D01*
X128968838Y-76223958D01*
X128848391Y-76200000D01*
X128968838Y-76176042D01*
X129078061Y-76103061D01*
X129151042Y-75993838D01*
X129176669Y-75865000D01*
X129176669Y-75265000D01*
X129151042Y-75136162D01*
X129078061Y-75026939D01*
X128968838Y-74953958D01*
X128848391Y-74930000D01*
X128968838Y-74906042D01*
X129078061Y-74833061D01*
X129151042Y-74723838D01*
X129176669Y-74595000D01*
X129176669Y-73995000D01*
X129151042Y-73866162D01*
X129078061Y-73756939D01*
X128968838Y-73683958D01*
X128840000Y-73658331D01*
X126840000Y-73658331D01*
X126711162Y-73683958D01*
X126601939Y-73756939D01*
X126528958Y-73866162D01*
X126503331Y-73995000D01*
X126503331Y-74595000D01*
X126528958Y-74723838D01*
X126601939Y-74833061D01*
X126711162Y-74906042D01*
X126831609Y-74930000D01*
X126711162Y-74953958D01*
X126601939Y-75026939D01*
X126528958Y-75136162D01*
X126503331Y-75265000D01*
X126503331Y-75865000D01*
X126528958Y-75993838D01*
X126601939Y-76103061D01*
X126711162Y-76176042D01*
X126831609Y-76200000D01*
X126711162Y-76223958D01*
X126601939Y-76296939D01*
X126528958Y-76406162D01*
X126503331Y-76535000D01*
X126503331Y-77135000D01*
X126528958Y-77263838D01*
X126601939Y-77373061D01*
X126711162Y-77446042D01*
X126831609Y-77470000D01*
X126711162Y-77493958D01*
X126601939Y-77566939D01*
X126528958Y-77676162D01*
X126503331Y-77805000D01*
X126503331Y-78405000D01*
X126528958Y-78533838D01*
X126601939Y-78643061D01*
X126711162Y-78716042D01*
X126831609Y-78740000D01*
X126711162Y-78763958D01*
X126601939Y-78836939D01*
X126528958Y-78946162D01*
X126503331Y-79075000D01*
X126503331Y-79675000D01*
X126528958Y-79803838D01*
X126601939Y-79913061D01*
X126711162Y-79986042D01*
X126831609Y-80010000D01*
X126711162Y-80033958D01*
X126601939Y-80106939D01*
X126528958Y-80216162D01*
X126503331Y-80345000D01*
X126503331Y-80945000D01*
X126528958Y-81073838D01*
X126601939Y-81183061D01*
X126711162Y-81256042D01*
X126831609Y-81280000D01*
X126711162Y-81303958D01*
X126601939Y-81376939D01*
X126528958Y-81486162D01*
X126503331Y-81615000D01*
X126503331Y-82215000D01*
X126528958Y-82343838D01*
X126601939Y-82453061D01*
X126711162Y-82526042D01*
X126831609Y-82550000D01*
X126711162Y-82573958D01*
X126601939Y-82646939D01*
X126528958Y-82756162D01*
X126503331Y-82885000D01*
X126503331Y-83485000D01*
X126525775Y-83597837D01*
X126480302Y-83616673D01*
X126301673Y-83795301D01*
X126205000Y-84028690D01*
X126205000Y-84169250D01*
X126363750Y-84328000D01*
X127713000Y-84328000D01*
X127713000Y-84308000D01*
X127967000Y-84308000D01*
X127967000Y-84328000D01*
X127987000Y-84328000D01*
X127987000Y-84582000D01*
X127967000Y-84582000D01*
X127967000Y-84602000D01*
X127713000Y-84602000D01*
X127713000Y-84582000D01*
X126363750Y-84582000D01*
X126205000Y-84740750D01*
X126205000Y-84881310D01*
X126301673Y-85114699D01*
X126480302Y-85293327D01*
X126525775Y-85312163D01*
X126503331Y-85425000D01*
X126503331Y-86025000D01*
X126528958Y-86153838D01*
X126601939Y-86263061D01*
X126711162Y-86336042D01*
X126840000Y-86361669D01*
X127355600Y-86361669D01*
X127355600Y-87293331D01*
X127254000Y-87293331D01*
X127125162Y-87318958D01*
X127015939Y-87391939D01*
X126942958Y-87501162D01*
X126917331Y-87630000D01*
X126917331Y-88357438D01*
X126871269Y-88366600D01*
X126715678Y-88397549D01*
X126539241Y-88515441D01*
X126421349Y-88691878D01*
X126379951Y-88900000D01*
X126389824Y-88949635D01*
X126111000Y-89228459D01*
X126111000Y-89185750D01*
X125952250Y-89027000D01*
X124968000Y-89027000D01*
X124968000Y-89047000D01*
X124714000Y-89047000D01*
X124714000Y-89027000D01*
X123729750Y-89027000D01*
X123571000Y-89185750D01*
X123571000Y-90296310D01*
X123615192Y-90403000D01*
X122764808Y-90403000D01*
X122809000Y-90296310D01*
X122809000Y-89185750D01*
X122650250Y-89027000D01*
X121666000Y-89027000D01*
X121666000Y-89047000D01*
X121412000Y-89047000D01*
X121412000Y-89027000D01*
X120427750Y-89027000D01*
X120269000Y-89185750D01*
X120269000Y-89229959D01*
X119989927Y-88950887D01*
X120000049Y-88900000D01*
X119958651Y-88691878D01*
X119840759Y-88515441D01*
X119664322Y-88397549D01*
X119508731Y-88366600D01*
X119462669Y-88357438D01*
X119462669Y-87630000D01*
X119437545Y-87503690D01*
X120269000Y-87503690D01*
X120269000Y-88614250D01*
X120427750Y-88773000D01*
X121412000Y-88773000D01*
X121412000Y-87153750D01*
X121666000Y-87153750D01*
X121666000Y-88773000D01*
X122650250Y-88773000D01*
X122809000Y-88614250D01*
X122809000Y-87503690D01*
X122712327Y-87270301D01*
X122533698Y-87091673D01*
X122300309Y-86995000D01*
X121824750Y-86995000D01*
X121666000Y-87153750D01*
X121412000Y-87153750D01*
X121253250Y-86995000D01*
X120777691Y-86995000D01*
X120544302Y-87091673D01*
X120365673Y-87270301D01*
X120269000Y-87503690D01*
X119437545Y-87503690D01*
X119437042Y-87501162D01*
X119364061Y-87391939D01*
X119254838Y-87318958D01*
X119126000Y-87293331D01*
X118501426Y-87293331D01*
X118535457Y-87259300D01*
X119018478Y-87259300D01*
X119061000Y-87267758D01*
X119103522Y-87259300D01*
X119103526Y-87259300D01*
X119229480Y-87234246D01*
X119372310Y-87138810D01*
X119396399Y-87102758D01*
X120018861Y-86480297D01*
X120054910Y-86456210D01*
X120088087Y-86406558D01*
X120150346Y-86313380D01*
X120163136Y-86249079D01*
X120175400Y-86187426D01*
X120175400Y-86187423D01*
X120183858Y-86144901D01*
X120175400Y-86102379D01*
X120175400Y-85703257D01*
X120323958Y-85554699D01*
X120360010Y-85530610D01*
X120455446Y-85387780D01*
X120480500Y-85261826D01*
X120480500Y-85261825D01*
X120488959Y-85219300D01*
X120480500Y-85176774D01*
X120480500Y-83507621D01*
X120488958Y-83465099D01*
X120480500Y-83422577D01*
X120480500Y-83422574D01*
X120455446Y-83296620D01*
X120360010Y-83153790D01*
X120323957Y-83129700D01*
X120103999Y-82909742D01*
X120079910Y-82873690D01*
X119937080Y-82778254D01*
X119871170Y-82765144D01*
X119899698Y-82753327D01*
X120078327Y-82574699D01*
X120175000Y-82341310D01*
X120175000Y-82200750D01*
X120016250Y-82042000D01*
X118667000Y-82042000D01*
X118667000Y-82062000D01*
X118413000Y-82062000D01*
X118413000Y-82042000D01*
X118393000Y-82042000D01*
X118393000Y-81788000D01*
X118413000Y-81788000D01*
X118413000Y-80772000D01*
X118667000Y-80772000D01*
X118667000Y-81788000D01*
X120016250Y-81788000D01*
X120175000Y-81629250D01*
X120175000Y-81488690D01*
X120088558Y-81280000D01*
X120175000Y-81071310D01*
X120175000Y-80930750D01*
X120016250Y-80772000D01*
X118667000Y-80772000D01*
X118413000Y-80772000D01*
X118393000Y-80772000D01*
X118393000Y-80518000D01*
X118413000Y-80518000D01*
X118413000Y-79502000D01*
X118667000Y-79502000D01*
X118667000Y-80518000D01*
X120016250Y-80518000D01*
X120175000Y-80359250D01*
X120175000Y-80218690D01*
X120088558Y-80010000D01*
X120175000Y-79801310D01*
X120175000Y-79660750D01*
X120016250Y-79502000D01*
X118667000Y-79502000D01*
X118413000Y-79502000D01*
X118393000Y-79502000D01*
X118393000Y-79248000D01*
X118413000Y-79248000D01*
X118413000Y-78232000D01*
X118667000Y-78232000D01*
X118667000Y-79248000D01*
X120016250Y-79248000D01*
X120175000Y-79089250D01*
X120175000Y-78948690D01*
X120088558Y-78740000D01*
X120175000Y-78531310D01*
X120175000Y-78390750D01*
X120016250Y-78232000D01*
X118667000Y-78232000D01*
X118413000Y-78232000D01*
X118393000Y-78232000D01*
X118393000Y-77978000D01*
X118413000Y-77978000D01*
X118413000Y-76962000D01*
X118667000Y-76962000D01*
X118667000Y-77978000D01*
X120016250Y-77978000D01*
X120175000Y-77819250D01*
X120175000Y-77678690D01*
X120088558Y-77470000D01*
X120175000Y-77261310D01*
X120175000Y-77120750D01*
X120016250Y-76962000D01*
X118667000Y-76962000D01*
X118413000Y-76962000D01*
X118393000Y-76962000D01*
X118393000Y-76708000D01*
X118413000Y-76708000D01*
X118413000Y-75692000D01*
X118667000Y-75692000D01*
X118667000Y-76708000D01*
X120016250Y-76708000D01*
X120175000Y-76549250D01*
X120175000Y-76408690D01*
X120088558Y-76200000D01*
X120175000Y-75991310D01*
X120175000Y-75850750D01*
X120016250Y-75692000D01*
X118667000Y-75692000D01*
X118413000Y-75692000D01*
X118393000Y-75692000D01*
X118393000Y-75438000D01*
X118413000Y-75438000D01*
X118413000Y-74422000D01*
X118667000Y-74422000D01*
X118667000Y-75438000D01*
X120016250Y-75438000D01*
X120175000Y-75279250D01*
X120175000Y-75138690D01*
X120088558Y-74930000D01*
X120175000Y-74721310D01*
X120175000Y-74580750D01*
X120016250Y-74422000D01*
X118667000Y-74422000D01*
X118413000Y-74422000D01*
X118393000Y-74422000D01*
X118393000Y-74168000D01*
X118413000Y-74168000D01*
X118413000Y-73518750D01*
X118667000Y-73518750D01*
X118667000Y-74168000D01*
X120016250Y-74168000D01*
X120175000Y-74009250D01*
X120175000Y-73868690D01*
X120078327Y-73635301D01*
X119899698Y-73456673D01*
X119666309Y-73360000D01*
X118825750Y-73360000D01*
X118667000Y-73518750D01*
X118413000Y-73518750D01*
X118254250Y-73360000D01*
X117768300Y-73360000D01*
X117768300Y-72264242D01*
X117838539Y-72369362D01*
X118254427Y-72647250D01*
X118745000Y-72744831D01*
X119235574Y-72647250D01*
X119508009Y-72465214D01*
X119589390Y-72587010D01*
X119625443Y-72611100D01*
X123033601Y-76019259D01*
X123033600Y-87577615D01*
X122916307Y-87694908D01*
X122817700Y-87932964D01*
X122817700Y-88190636D01*
X122916307Y-88428692D01*
X123098508Y-88610893D01*
X123336564Y-88709500D01*
X123594236Y-88709500D01*
X123645157Y-88688407D01*
X123729750Y-88773000D01*
X124714000Y-88773000D01*
X124714000Y-87153750D01*
X124968000Y-87153750D01*
X124968000Y-88773000D01*
X125952250Y-88773000D01*
X126111000Y-88614250D01*
X126111000Y-87503690D01*
X126014327Y-87270301D01*
X125835698Y-87091673D01*
X125602309Y-86995000D01*
X125126750Y-86995000D01*
X124968000Y-87153750D01*
X124714000Y-87153750D01*
X124555250Y-86995000D01*
X124079691Y-86995000D01*
X123897200Y-87070590D01*
X123897200Y-75882921D01*
X123905658Y-75840399D01*
X123897200Y-75797877D01*
X123897200Y-75797874D01*
X123872146Y-75671920D01*
X123849067Y-75637380D01*
X123800799Y-75565141D01*
X123800798Y-75565140D01*
X123776710Y-75529090D01*
X123740660Y-75505002D01*
X120904877Y-72669220D01*
X121285000Y-72744831D01*
X121775574Y-72647250D01*
X122191462Y-72369362D01*
X122469350Y-71953474D01*
X122542300Y-71586728D01*
X122542300Y-70653272D01*
X122567700Y-70653272D01*
X122567700Y-71586729D01*
X122640650Y-71953474D01*
X122918539Y-72369362D01*
X123334427Y-72647250D01*
X123825000Y-72744831D01*
X124315574Y-72647250D01*
X124731462Y-72369362D01*
X125009350Y-71953474D01*
X125082300Y-71586728D01*
X125082300Y-70653272D01*
X125107700Y-70653272D01*
X125107700Y-71586729D01*
X125180650Y-71953474D01*
X125458539Y-72369362D01*
X125874427Y-72647250D01*
X126365000Y-72744831D01*
X126855574Y-72647250D01*
X127271462Y-72369362D01*
X127549350Y-71953474D01*
X127622300Y-71586728D01*
X127622300Y-70700653D01*
X128066800Y-70700653D01*
X128066800Y-71539347D01*
X128387754Y-72314199D01*
X128980801Y-72907246D01*
X129755653Y-73228200D01*
X130594347Y-73228200D01*
X131369199Y-72907246D01*
X131962246Y-72314199D01*
X132283200Y-71539347D01*
X132283200Y-70700653D01*
X131962246Y-69925801D01*
X131369199Y-69332754D01*
X130594347Y-69011800D01*
X129755653Y-69011800D01*
X128980801Y-69332754D01*
X128387754Y-69925801D01*
X128066800Y-70700653D01*
X127622300Y-70700653D01*
X127622300Y-70653271D01*
X127549350Y-70286526D01*
X127271462Y-69870638D01*
X126855573Y-69592750D01*
X126365000Y-69495169D01*
X125874426Y-69592750D01*
X125458538Y-69870638D01*
X125180650Y-70286527D01*
X125107700Y-70653272D01*
X125082300Y-70653272D01*
X125082300Y-70653271D01*
X125009350Y-70286526D01*
X124731462Y-69870638D01*
X124315573Y-69592750D01*
X123825000Y-69495169D01*
X123334426Y-69592750D01*
X122918538Y-69870638D01*
X122640650Y-70286527D01*
X122567700Y-70653272D01*
X122542300Y-70653272D01*
X122542300Y-70653271D01*
X122469350Y-70286526D01*
X122191462Y-69870638D01*
X121775573Y-69592750D01*
X121285000Y-69495169D01*
X120794426Y-69592750D01*
X120378538Y-69870638D01*
X120100650Y-70286527D01*
X120027700Y-70653272D01*
X120027700Y-70705003D01*
X120002300Y-70699951D01*
X120002300Y-70653271D01*
X119929350Y-70286526D01*
X119651462Y-69870638D01*
X119235573Y-69592750D01*
X118745000Y-69495169D01*
X118254426Y-69592750D01*
X117838538Y-69870638D01*
X117720539Y-70047236D01*
X117647810Y-69938390D01*
X117611757Y-69914300D01*
X117030100Y-69332643D01*
X117006010Y-69296590D01*
X116863180Y-69201154D01*
X116737226Y-69176100D01*
X116737222Y-69176100D01*
X116694700Y-69167642D01*
X116652178Y-69176100D01*
X100518921Y-69176100D01*
X100476399Y-69167642D01*
X100433877Y-69176100D01*
X100433874Y-69176100D01*
X100307920Y-69201154D01*
X100201141Y-69272501D01*
X100201140Y-69272502D01*
X100165090Y-69296590D01*
X100141002Y-69332640D01*
X99440227Y-70033416D01*
X99331462Y-69870638D01*
X98915573Y-69592750D01*
X98425000Y-69495169D01*
X97934426Y-69592750D01*
X97518538Y-69870638D01*
X97240650Y-70286527D01*
X97167700Y-70653272D01*
X97167700Y-71586729D01*
X97240650Y-71953474D01*
X97518539Y-72369362D01*
X97934427Y-72647250D01*
X98425000Y-72744831D01*
X98915574Y-72647250D01*
X99331462Y-72369362D01*
X99609350Y-71953474D01*
X99682300Y-71586728D01*
X99682300Y-71540049D01*
X99707700Y-71534997D01*
X99707700Y-71586729D01*
X99780650Y-71953474D01*
X100058539Y-72369362D01*
X100474427Y-72647250D01*
X100965000Y-72744831D01*
X101455574Y-72647250D01*
X101871462Y-72369362D01*
X102149350Y-71953474D01*
X102222300Y-71586728D01*
X102222300Y-70653271D01*
X102149350Y-70286526D01*
X101984426Y-70039700D01*
X102485574Y-70039700D01*
X102320650Y-70286527D01*
X102247700Y-70653272D01*
X102247700Y-71586729D01*
X102320650Y-71953474D01*
X102598539Y-72369362D01*
X103014427Y-72647250D01*
X103505000Y-72744831D01*
X103995574Y-72647250D01*
X104411462Y-72369362D01*
X104689350Y-71953474D01*
X104762300Y-71586728D01*
X104762300Y-70653271D01*
X104689350Y-70286526D01*
X104524426Y-70039700D01*
X105025574Y-70039700D01*
X104860650Y-70286527D01*
X104787700Y-70653272D01*
X104787700Y-71586729D01*
X104860650Y-71953474D01*
X105138539Y-72369362D01*
X105554427Y-72647250D01*
X106045000Y-72744831D01*
X106535574Y-72647250D01*
X106951462Y-72369362D01*
X107065514Y-72198671D01*
X108230173Y-73363331D01*
X106835000Y-73363331D01*
X106706162Y-73388958D01*
X106596939Y-73461939D01*
X106546341Y-73537664D01*
X106546042Y-73536162D01*
X106473061Y-73426939D01*
X106363838Y-73353958D01*
X106235000Y-73328331D01*
X101275000Y-73328331D01*
X101146162Y-73353958D01*
X101036939Y-73426939D01*
X100963958Y-73536162D01*
X100938331Y-73665000D01*
X100938331Y-77465000D01*
X100963958Y-77593838D01*
X100967108Y-77598552D01*
X100495860Y-78069800D01*
X96362041Y-78069800D01*
X94407757Y-76115516D01*
X95799800Y-76115516D01*
X95799800Y-76684484D01*
X96017535Y-77210143D01*
X96419857Y-77612465D01*
X96945516Y-77830200D01*
X97514484Y-77830200D01*
X98040143Y-77612465D01*
X98442465Y-77210143D01*
X98660200Y-76684484D01*
X98660200Y-76115516D01*
X98442465Y-75589857D01*
X98040143Y-75187535D01*
X97514484Y-74969800D01*
X96945516Y-74969800D01*
X96419857Y-75187535D01*
X96017535Y-75589857D01*
X95799800Y-76115516D01*
X94407757Y-76115516D01*
X91254242Y-72962002D01*
X91285458Y-72954692D01*
X91819769Y-72657273D01*
X92199591Y-72178022D01*
X92232794Y-72061445D01*
X92438539Y-72369362D01*
X92854427Y-72647250D01*
X93345000Y-72744831D01*
X93835574Y-72647250D01*
X94251462Y-72369362D01*
X94529350Y-71953474D01*
X94602300Y-71586728D01*
X94602300Y-70653272D01*
X94627700Y-70653272D01*
X94627700Y-71586729D01*
X94700650Y-71953474D01*
X94978539Y-72369362D01*
X95394427Y-72647250D01*
X95885000Y-72744831D01*
X96375574Y-72647250D01*
X96791462Y-72369362D01*
X97069350Y-71953474D01*
X97142300Y-71586728D01*
X97142300Y-70653271D01*
X97069350Y-70286526D01*
X96791462Y-69870638D01*
X96375573Y-69592750D01*
X95885000Y-69495169D01*
X95394426Y-69592750D01*
X94978538Y-69870638D01*
X94700650Y-70286527D01*
X94627700Y-70653272D01*
X94602300Y-70653272D01*
X94602300Y-70653271D01*
X94529350Y-70286526D01*
X94251462Y-69870638D01*
X93835573Y-69592750D01*
X93345000Y-69495169D01*
X92854426Y-69592750D01*
X92438538Y-69870638D01*
X92232794Y-70178555D01*
X92199591Y-70061978D01*
X91819769Y-69582727D01*
X91285458Y-69285308D01*
X91173994Y-69259207D01*
X90932000Y-69379508D01*
X90932000Y-70993000D01*
X90952000Y-70993000D01*
X90952000Y-71247000D01*
X90932000Y-71247000D01*
X90932000Y-71267000D01*
X90678000Y-71267000D01*
X90678000Y-71247000D01*
X90658000Y-71247000D01*
X90658000Y-70993000D01*
X90678000Y-70993000D01*
X90678000Y-69379508D01*
X90436006Y-69259207D01*
X90324542Y-69285308D01*
X89790231Y-69582727D01*
X89528769Y-69912634D01*
X89528769Y-69850000D01*
X89503142Y-69721162D01*
X89430161Y-69611939D01*
X89320938Y-69538958D01*
X89192100Y-69513331D01*
X87337900Y-69513331D01*
X87209062Y-69538958D01*
X87099839Y-69611939D01*
X87026858Y-69721162D01*
X87001231Y-69850000D01*
X87001231Y-72390000D01*
X87026858Y-72518838D01*
X87099839Y-72628061D01*
X87209062Y-72701042D01*
X87337900Y-72726669D01*
X89192100Y-72726669D01*
X89320938Y-72701042D01*
X89419047Y-72635487D01*
X95726785Y-78943226D01*
X95756541Y-78987759D01*
X95932978Y-79105651D01*
X96088569Y-79136600D01*
X96088573Y-79136600D01*
X96141100Y-79147048D01*
X96193627Y-79136600D01*
X100034700Y-79136600D01*
X100034700Y-79698331D01*
X94255000Y-79698331D01*
X94126162Y-79723958D01*
X94016939Y-79796939D01*
X93943958Y-79906162D01*
X93918331Y-80035000D01*
X93918331Y-85783722D01*
X93705000Y-85570391D01*
X93705000Y-83307543D01*
X93719430Y-83235000D01*
X93662261Y-82947593D01*
X93499458Y-82703942D01*
X93255807Y-82541139D01*
X93040944Y-82498400D01*
X92968400Y-82483970D01*
X92895856Y-82498400D01*
X92771669Y-82498400D01*
X92771669Y-80035000D01*
X92746042Y-79906162D01*
X92673061Y-79796939D01*
X92563838Y-79723958D01*
X92435000Y-79698331D01*
X86635000Y-79698331D01*
X86506162Y-79723958D01*
X86396939Y-79796939D01*
X86323958Y-79906162D01*
X86298331Y-80035000D01*
X86298331Y-86435000D01*
X86323958Y-86563838D01*
X86396939Y-86673061D01*
X86506162Y-86746042D01*
X86635000Y-86771669D01*
X92435000Y-86771669D01*
X92563838Y-86746042D01*
X92673061Y-86673061D01*
X92693565Y-86642374D01*
X93622590Y-87571400D01*
X91867531Y-87571400D01*
X91815000Y-87560951D01*
X91762470Y-87571400D01*
X91762469Y-87571400D01*
X91606878Y-87602349D01*
X91430441Y-87720241D01*
X91312549Y-87896678D01*
X91271151Y-88104800D01*
X91276276Y-88130564D01*
X91245000Y-88151462D01*
X91203838Y-88123958D01*
X91075000Y-88098331D01*
X90275000Y-88098331D01*
X90146162Y-88123958D01*
X90036939Y-88196939D01*
X89963958Y-88306162D01*
X89938331Y-88435000D01*
X89938331Y-90635000D01*
X89963958Y-90763838D01*
X90036939Y-90873061D01*
X90047695Y-90880248D01*
X89281000Y-91646943D01*
X89281000Y-91313690D01*
X89184327Y-91080301D01*
X89005698Y-90901673D01*
X88996156Y-90897720D01*
X89033061Y-90873061D01*
X89106042Y-90763838D01*
X89131669Y-90635000D01*
X89131669Y-88435000D01*
X89106042Y-88306162D01*
X89033061Y-88196939D01*
X88923838Y-88123958D01*
X88795000Y-88098331D01*
X88202866Y-88098331D01*
X88193327Y-88075301D01*
X88014698Y-87896673D01*
X87781309Y-87800000D01*
X87540750Y-87800000D01*
X87382000Y-87958750D01*
X87382000Y-89408000D01*
X87402000Y-89408000D01*
X87402000Y-89662000D01*
X87382000Y-89662000D01*
X87382000Y-89682000D01*
X87128000Y-89682000D01*
X87128000Y-89662000D01*
X86378750Y-89662000D01*
X86220000Y-89820750D01*
X86220000Y-90761310D01*
X86316673Y-90994699D01*
X86495302Y-91173327D01*
X86728691Y-91270000D01*
X86759097Y-91270000D01*
X86741000Y-91313690D01*
X86741000Y-92424250D01*
X86899750Y-92583000D01*
X87884000Y-92583000D01*
X87884000Y-92563000D01*
X88138000Y-92563000D01*
X88138000Y-92583000D01*
X88158000Y-92583000D01*
X88158000Y-92837000D01*
X88138000Y-92837000D01*
X88138000Y-94456250D01*
X88296750Y-94615000D01*
X88772309Y-94615000D01*
X89005698Y-94518327D01*
X89103201Y-94420825D01*
X89103201Y-94659331D01*
X88265000Y-94659331D01*
X88136162Y-94684958D01*
X88026939Y-94757939D01*
X87953958Y-94867162D01*
X87928331Y-94996000D01*
X87928331Y-96266000D01*
X87953958Y-96394838D01*
X88026939Y-96504061D01*
X88136162Y-96577042D01*
X88265000Y-96602669D01*
X90805000Y-96602669D01*
X90933838Y-96577042D01*
X91043061Y-96504061D01*
X91116042Y-96394838D01*
X91141669Y-96266000D01*
X91141669Y-94996000D01*
X91116042Y-94867162D01*
X91043061Y-94757939D01*
X90933838Y-94684958D01*
X90805000Y-94659331D01*
X89966800Y-94659331D01*
X89966800Y-92182457D01*
X90087331Y-92061926D01*
X90087331Y-93980000D01*
X90112958Y-94108838D01*
X90185939Y-94218061D01*
X90295162Y-94291042D01*
X90424000Y-94316669D01*
X91694000Y-94316669D01*
X91822838Y-94291042D01*
X91932061Y-94218061D01*
X92005042Y-94108838D01*
X92030669Y-93980000D01*
X92030669Y-92995750D01*
X94361000Y-92995750D01*
X94361000Y-94106310D01*
X94457673Y-94339699D01*
X94636302Y-94518327D01*
X94869691Y-94615000D01*
X95345250Y-94615000D01*
X95504000Y-94456250D01*
X95504000Y-92837000D01*
X94519750Y-92837000D01*
X94361000Y-92995750D01*
X92030669Y-92995750D01*
X92030669Y-91462608D01*
X92199559Y-91349759D01*
X92317451Y-91173322D01*
X92348400Y-91017731D01*
X92358849Y-90965200D01*
X92353724Y-90939436D01*
X92453061Y-90873061D01*
X92526042Y-90763838D01*
X92551669Y-90635000D01*
X92551669Y-88638200D01*
X93840000Y-88638200D01*
X93840000Y-89249250D01*
X93998750Y-89408000D01*
X94748000Y-89408000D01*
X94748000Y-89388000D01*
X95002000Y-89388000D01*
X95002000Y-89408000D01*
X95022000Y-89408000D01*
X95022000Y-89662000D01*
X95002000Y-89662000D01*
X95002000Y-89682000D01*
X94748000Y-89682000D01*
X94748000Y-89662000D01*
X93998750Y-89662000D01*
X93840000Y-89820750D01*
X93840000Y-90761310D01*
X93936673Y-90994699D01*
X94115302Y-91173327D01*
X94348691Y-91270000D01*
X94379097Y-91270000D01*
X94361000Y-91313690D01*
X94361000Y-92424250D01*
X94519750Y-92583000D01*
X95504000Y-92583000D01*
X95504000Y-92563000D01*
X95758000Y-92563000D01*
X95758000Y-92583000D01*
X95778000Y-92583000D01*
X95778000Y-92837000D01*
X95758000Y-92837000D01*
X95758000Y-94456250D01*
X95916750Y-94615000D01*
X96392309Y-94615000D01*
X96625698Y-94518327D01*
X96723201Y-94420825D01*
X96723201Y-94659331D01*
X95885000Y-94659331D01*
X95756162Y-94684958D01*
X95646939Y-94757939D01*
X95573958Y-94867162D01*
X95548331Y-94996000D01*
X95548331Y-96266000D01*
X95573958Y-96394838D01*
X95646939Y-96504061D01*
X95756162Y-96577042D01*
X95885000Y-96602669D01*
X98425000Y-96602669D01*
X98553838Y-96577042D01*
X98663061Y-96504061D01*
X98736042Y-96394838D01*
X98761669Y-96266000D01*
X98761669Y-94996000D01*
X98736042Y-94867162D01*
X98663061Y-94757939D01*
X98553838Y-94684958D01*
X98425000Y-94659331D01*
X97586800Y-94659331D01*
X97586800Y-92182457D01*
X97707331Y-92061926D01*
X97707331Y-93980000D01*
X97732958Y-94108838D01*
X97805939Y-94218061D01*
X97915162Y-94291042D01*
X98044000Y-94316669D01*
X99314000Y-94316669D01*
X99442838Y-94291042D01*
X99552061Y-94218061D01*
X99625042Y-94108838D01*
X99650669Y-93980000D01*
X99650669Y-92995750D01*
X101981000Y-92995750D01*
X101981000Y-94106310D01*
X102077673Y-94339699D01*
X102256302Y-94518327D01*
X102489691Y-94615000D01*
X102965250Y-94615000D01*
X103124000Y-94456250D01*
X103124000Y-92837000D01*
X102139750Y-92837000D01*
X101981000Y-92995750D01*
X99650669Y-92995750D01*
X99650669Y-91510589D01*
X99674959Y-91494359D01*
X99704717Y-91449823D01*
X99775023Y-91379517D01*
X99819559Y-91349759D01*
X99937451Y-91173322D01*
X99968400Y-91017731D01*
X99968400Y-91017726D01*
X99978848Y-90965201D01*
X99973723Y-90939437D01*
X100073061Y-90873061D01*
X100146042Y-90763838D01*
X100171669Y-90635000D01*
X100171669Y-88435000D01*
X100160930Y-88381010D01*
X100233250Y-88308690D01*
X101460000Y-88308690D01*
X101460000Y-89249250D01*
X101618750Y-89408000D01*
X102368000Y-89408000D01*
X102368000Y-87958750D01*
X102209250Y-87800000D01*
X101968691Y-87800000D01*
X101735302Y-87896673D01*
X101556673Y-88075301D01*
X101460000Y-88308690D01*
X100233250Y-88308690D01*
X100864141Y-87677800D01*
X111603560Y-87677800D01*
X112251500Y-88325741D01*
X112251501Y-91523369D01*
X112241052Y-91575900D01*
X112251501Y-91628431D01*
X112282450Y-91784022D01*
X112400342Y-91960459D01*
X112420400Y-91973862D01*
X112420401Y-92657465D01*
X112409951Y-92710000D01*
X112451349Y-92918122D01*
X112460397Y-92931663D01*
X112141000Y-93251060D01*
X112141000Y-92995750D01*
X111982250Y-92837000D01*
X110998000Y-92837000D01*
X110998000Y-92857000D01*
X110744000Y-92857000D01*
X110744000Y-92837000D01*
X109759750Y-92837000D01*
X109601000Y-92995750D01*
X109601000Y-93065259D01*
X108905817Y-92370077D01*
X108876059Y-92325541D01*
X108699622Y-92207649D01*
X108544031Y-92176700D01*
X108544026Y-92176700D01*
X108491500Y-92166252D01*
X108438974Y-92176700D01*
X107797600Y-92176700D01*
X107797600Y-91226925D01*
X107808048Y-91174399D01*
X107797600Y-91121873D01*
X107797600Y-91121869D01*
X107766651Y-90966278D01*
X107698713Y-90864602D01*
X107766042Y-90763838D01*
X107791669Y-90635000D01*
X107791669Y-89820750D01*
X109080000Y-89820750D01*
X109080000Y-90761310D01*
X109176673Y-90994699D01*
X109355302Y-91173327D01*
X109588691Y-91270000D01*
X109619097Y-91270000D01*
X109601000Y-91313690D01*
X109601000Y-92424250D01*
X109759750Y-92583000D01*
X110744000Y-92583000D01*
X110744000Y-92563000D01*
X110998000Y-92563000D01*
X110998000Y-92583000D01*
X111982250Y-92583000D01*
X112141000Y-92424250D01*
X112141000Y-91313690D01*
X112044327Y-91080301D01*
X111865698Y-90901673D01*
X111856156Y-90897720D01*
X111893061Y-90873061D01*
X111966042Y-90763838D01*
X111991669Y-90635000D01*
X111991669Y-88435000D01*
X111966042Y-88306162D01*
X111893061Y-88196939D01*
X111783838Y-88123958D01*
X111655000Y-88098331D01*
X111062866Y-88098331D01*
X111053327Y-88075301D01*
X110874698Y-87896673D01*
X110641309Y-87800000D01*
X110400750Y-87800000D01*
X110242000Y-87958750D01*
X110242000Y-89408000D01*
X110262000Y-89408000D01*
X110262000Y-89662000D01*
X110242000Y-89662000D01*
X110242000Y-89682000D01*
X109988000Y-89682000D01*
X109988000Y-89662000D01*
X109238750Y-89662000D01*
X109080000Y-89820750D01*
X107791669Y-89820750D01*
X107791669Y-88435000D01*
X107766545Y-88308690D01*
X109080000Y-88308690D01*
X109080000Y-89249250D01*
X109238750Y-89408000D01*
X109988000Y-89408000D01*
X109988000Y-87958750D01*
X109829250Y-87800000D01*
X109588691Y-87800000D01*
X109355302Y-87896673D01*
X109176673Y-88075301D01*
X109080000Y-88308690D01*
X107766545Y-88308690D01*
X107766042Y-88306162D01*
X107693061Y-88196939D01*
X107583838Y-88123958D01*
X107455000Y-88098331D01*
X106655000Y-88098331D01*
X106526162Y-88123958D01*
X106485000Y-88151462D01*
X106443838Y-88123958D01*
X106315000Y-88098331D01*
X105515000Y-88098331D01*
X105386162Y-88123958D01*
X105276939Y-88196939D01*
X105203958Y-88306162D01*
X105178331Y-88435000D01*
X105178331Y-90635000D01*
X105203958Y-90763838D01*
X105276939Y-90873061D01*
X105287695Y-90880248D01*
X104521000Y-91646943D01*
X104521000Y-91313690D01*
X104424327Y-91080301D01*
X104245698Y-90901673D01*
X104236156Y-90897720D01*
X104273061Y-90873061D01*
X104346042Y-90763838D01*
X104371669Y-90635000D01*
X104371669Y-88435000D01*
X104346042Y-88306162D01*
X104273061Y-88196939D01*
X104163838Y-88123958D01*
X104035000Y-88098331D01*
X103442866Y-88098331D01*
X103433327Y-88075301D01*
X103254698Y-87896673D01*
X103021309Y-87800000D01*
X102780750Y-87800000D01*
X102622000Y-87958750D01*
X102622000Y-89408000D01*
X102642000Y-89408000D01*
X102642000Y-89662000D01*
X102622000Y-89662000D01*
X102622000Y-89682000D01*
X102368000Y-89682000D01*
X102368000Y-89662000D01*
X101618750Y-89662000D01*
X101460000Y-89820750D01*
X101460000Y-90761310D01*
X101556673Y-90994699D01*
X101735302Y-91173327D01*
X101968691Y-91270000D01*
X101999097Y-91270000D01*
X101981000Y-91313690D01*
X101981000Y-92424250D01*
X102139750Y-92583000D01*
X103124000Y-92583000D01*
X103124000Y-92563000D01*
X103378000Y-92563000D01*
X103378000Y-92583000D01*
X103398000Y-92583000D01*
X103398000Y-92837000D01*
X103378000Y-92837000D01*
X103378000Y-94456250D01*
X103536750Y-94615000D01*
X104012309Y-94615000D01*
X104245698Y-94518327D01*
X104343201Y-94420825D01*
X104343201Y-94659331D01*
X103505000Y-94659331D01*
X103376162Y-94684958D01*
X103266939Y-94757939D01*
X103193958Y-94867162D01*
X103168331Y-94996000D01*
X103168331Y-96266000D01*
X103193958Y-96394838D01*
X103266939Y-96504061D01*
X103376162Y-96577042D01*
X103505000Y-96602669D01*
X106012474Y-96602669D01*
X105613143Y-97002000D01*
X89959122Y-97002000D01*
X89916600Y-96993542D01*
X89874078Y-97002000D01*
X89874074Y-97002000D01*
X89748120Y-97027054D01*
X89641341Y-97098401D01*
X89641340Y-97098402D01*
X89605290Y-97122490D01*
X89581202Y-97158540D01*
X89259740Y-97480003D01*
X89223691Y-97504090D01*
X89199603Y-97540140D01*
X89199601Y-97540142D01*
X89128254Y-97646921D01*
X89116238Y-97707331D01*
X88265000Y-97707331D01*
X88136162Y-97732958D01*
X88026939Y-97805939D01*
X87953958Y-97915162D01*
X87928331Y-98044000D01*
X87928331Y-99314000D01*
X87953958Y-99442838D01*
X88026939Y-99552061D01*
X88136162Y-99625042D01*
X88265000Y-99650669D01*
X88732109Y-99650669D01*
X88340801Y-99812754D01*
X87747754Y-100405801D01*
X87426800Y-101180653D01*
X87426800Y-102019347D01*
X87747754Y-102794199D01*
X88340801Y-103387246D01*
X89115653Y-103708200D01*
X89954347Y-103708200D01*
X90729199Y-103387246D01*
X91322246Y-102794199D01*
X91643200Y-102019347D01*
X91643200Y-101180653D01*
X91616220Y-101115516D01*
X95799800Y-101115516D01*
X95799800Y-101684484D01*
X96017535Y-102210143D01*
X96419857Y-102612465D01*
X96945516Y-102830200D01*
X97514484Y-102830200D01*
X98040143Y-102612465D01*
X98442465Y-102210143D01*
X98660200Y-101684484D01*
X98660200Y-101115516D01*
X98442465Y-100589857D01*
X98040143Y-100187535D01*
X97514484Y-99969800D01*
X96945516Y-99969800D01*
X96419857Y-100187535D01*
X96017535Y-100589857D01*
X95799800Y-101115516D01*
X91616220Y-101115516D01*
X91322246Y-100405801D01*
X90729199Y-99812754D01*
X90337891Y-99650669D01*
X90805000Y-99650669D01*
X90933838Y-99625042D01*
X91043061Y-99552061D01*
X91116042Y-99442838D01*
X91141669Y-99314000D01*
X91141669Y-98044000D01*
X91116042Y-97915162D01*
X91082925Y-97865600D01*
X95607075Y-97865600D01*
X95573958Y-97915162D01*
X95548331Y-98044000D01*
X95548331Y-99314000D01*
X95573958Y-99442838D01*
X95646939Y-99552061D01*
X95756162Y-99625042D01*
X95885000Y-99650669D01*
X98425000Y-99650669D01*
X98553838Y-99625042D01*
X98663061Y-99552061D01*
X98736042Y-99442838D01*
X98761669Y-99314000D01*
X98761669Y-99097763D01*
X98822080Y-99085746D01*
X98964910Y-98990310D01*
X98988999Y-98954258D01*
X99670958Y-98272300D01*
X103168331Y-98272300D01*
X103168331Y-99314000D01*
X103193958Y-99442838D01*
X103266939Y-99552061D01*
X103376162Y-99625042D01*
X103505000Y-99650669D01*
X105612873Y-99650669D01*
X100689743Y-104573800D01*
X100653690Y-104597890D01*
X100558254Y-104740721D01*
X100533200Y-104866675D01*
X100533200Y-104866678D01*
X100524742Y-104909200D01*
X100533200Y-104951722D01*
X100533200Y-105141059D01*
X100474426Y-105152750D01*
X100058538Y-105430638D01*
X99780650Y-105846527D01*
X99707700Y-106213272D01*
X99707700Y-107146729D01*
X99780650Y-107513474D01*
X99923057Y-107726600D01*
X99466943Y-107726600D01*
X99609350Y-107513474D01*
X99682300Y-107146728D01*
X99682300Y-106213271D01*
X99609350Y-105846526D01*
X99331462Y-105430638D01*
X98915573Y-105152750D01*
X98425000Y-105055169D01*
X97934426Y-105152750D01*
X97518538Y-105430638D01*
X97240650Y-105846527D01*
X97167700Y-106213272D01*
X97167700Y-107146729D01*
X97240650Y-107513474D01*
X97383057Y-107726600D01*
X96926943Y-107726600D01*
X97069350Y-107513474D01*
X97142300Y-107146728D01*
X97142300Y-106213271D01*
X97069350Y-105846526D01*
X96791462Y-105430638D01*
X96375573Y-105152750D01*
X95885000Y-105055169D01*
X95394426Y-105152750D01*
X94978538Y-105430638D01*
X94700650Y-105846527D01*
X94627700Y-106213272D01*
X94627700Y-107146729D01*
X94700650Y-107513474D01*
X94843057Y-107726600D01*
X94386943Y-107726600D01*
X94529350Y-107513474D01*
X94602300Y-107146728D01*
X94602300Y-106213271D01*
X94529350Y-105846526D01*
X94251462Y-105430638D01*
X93835573Y-105152750D01*
X93345000Y-105055169D01*
X92854426Y-105152750D01*
X92438538Y-105430638D01*
X92160650Y-105846527D01*
X92101490Y-106143946D01*
X92062300Y-106136151D01*
X92047544Y-106139086D01*
X91989350Y-105846526D01*
X91711462Y-105430638D01*
X91295573Y-105152750D01*
X90805000Y-105055169D01*
X90314426Y-105152750D01*
X89898538Y-105430638D01*
X89620650Y-105846527D01*
X89547700Y-106213272D01*
X89547700Y-107146729D01*
X89620650Y-107513474D01*
X89898539Y-107929362D01*
X90314427Y-108207250D01*
X90805000Y-108304831D01*
X91295574Y-108207250D01*
X91695277Y-107940176D01*
X91722277Y-107958217D01*
X92364084Y-108600025D01*
X92393841Y-108644559D01*
X92570278Y-108762451D01*
X92725869Y-108793400D01*
X92725873Y-108793400D01*
X92778399Y-108803848D01*
X92830925Y-108793400D01*
X119224674Y-108793400D01*
X119277200Y-108803848D01*
X119329726Y-108793400D01*
X119329731Y-108793400D01*
X119485322Y-108762451D01*
X119661759Y-108644559D01*
X119691517Y-108600023D01*
X120355025Y-107936516D01*
X120374586Y-107923446D01*
X120378539Y-107929362D01*
X120794427Y-108207250D01*
X121285000Y-108304831D01*
X121775574Y-108207250D01*
X122191462Y-107929362D01*
X122469350Y-107513474D01*
X122542300Y-107146728D01*
X122542300Y-106213272D01*
X122567700Y-106213272D01*
X122567700Y-107146729D01*
X122640650Y-107513474D01*
X122918539Y-107929362D01*
X123334427Y-108207250D01*
X123825000Y-108304831D01*
X124315574Y-108207250D01*
X124731462Y-107929362D01*
X125009350Y-107513474D01*
X125082300Y-107146728D01*
X125082300Y-106213271D01*
X125009350Y-105846526D01*
X124731462Y-105430638D01*
X124315573Y-105152750D01*
X123825000Y-105055169D01*
X123334426Y-105152750D01*
X122918538Y-105430638D01*
X122640650Y-105846527D01*
X122567700Y-106213272D01*
X122542300Y-106213272D01*
X122542300Y-106213271D01*
X122469350Y-105846526D01*
X122191462Y-105430638D01*
X121775573Y-105152750D01*
X121350202Y-105068138D01*
X123000125Y-103418215D01*
X123044659Y-103388459D01*
X123162551Y-103212022D01*
X123193500Y-103056431D01*
X123193500Y-103056427D01*
X123203948Y-103003901D01*
X123193500Y-102951375D01*
X123193500Y-101557941D01*
X123232977Y-101617023D01*
X123271154Y-101642532D01*
X126762948Y-105134326D01*
X126365000Y-105055169D01*
X125874426Y-105152750D01*
X125458538Y-105430638D01*
X125180650Y-105846527D01*
X125107700Y-106213272D01*
X125107700Y-107146729D01*
X125180650Y-107513474D01*
X125458539Y-107929362D01*
X125874427Y-108207250D01*
X126365000Y-108304831D01*
X126855574Y-108207250D01*
X127271462Y-107929362D01*
X127327507Y-107845485D01*
X128792170Y-109310149D01*
X128817677Y-109348323D01*
X128855851Y-109373830D01*
X128910731Y-109410500D01*
X86169500Y-109410500D01*
X86169500Y-106213272D01*
X87007700Y-106213272D01*
X87007700Y-107146729D01*
X87080650Y-107513474D01*
X87358539Y-107929362D01*
X87774427Y-108207250D01*
X88265000Y-108304831D01*
X88755574Y-108207250D01*
X89171462Y-107929362D01*
X89449350Y-107513474D01*
X89522300Y-107146728D01*
X89522300Y-106213271D01*
X89449350Y-105846526D01*
X89171462Y-105430638D01*
X88755573Y-105152750D01*
X88265000Y-105055169D01*
X87774426Y-105152750D01*
X87358538Y-105430638D01*
X87080650Y-105846527D01*
X87007700Y-106213272D01*
X86169500Y-106213272D01*
X86169500Y-92995750D01*
X86741000Y-92995750D01*
X86741000Y-94106310D01*
X86837673Y-94339699D01*
X87016302Y-94518327D01*
X87249691Y-94615000D01*
X87725250Y-94615000D01*
X87884000Y-94456250D01*
X87884000Y-92837000D01*
X86899750Y-92837000D01*
X86741000Y-92995750D01*
X86169500Y-92995750D01*
X86169500Y-88308690D01*
X86220000Y-88308690D01*
X86220000Y-89249250D01*
X86378750Y-89408000D01*
X87128000Y-89408000D01*
X87128000Y-87958750D01*
X86969250Y-87800000D01*
X86728691Y-87800000D01*
X86495302Y-87896673D01*
X86316673Y-88075301D01*
X86220000Y-88308690D01*
X86169500Y-88308690D01*
X86169500Y-75780653D01*
X87426800Y-75780653D01*
X87426800Y-76619347D01*
X87747754Y-77394199D01*
X88340801Y-77987246D01*
X89115653Y-78308200D01*
X89954347Y-78308200D01*
X90729199Y-77987246D01*
X91322246Y-77394199D01*
X91643200Y-76619347D01*
X91643200Y-75780653D01*
X91322246Y-75005801D01*
X90729199Y-74412754D01*
X89954347Y-74091800D01*
X89115653Y-74091800D01*
X88340801Y-74412754D01*
X87747754Y-75005801D01*
X87426800Y-75780653D01*
X86169500Y-75780653D01*
X86169500Y-68389500D01*
X155765501Y-68389500D01*
X155765501Y-83669880D01*
G36*
X116866464Y-85457400D02*
X117029703Y-85457400D01*
X117011903Y-85484040D01*
X117011901Y-85484042D01*
X116940554Y-85590821D01*
X116907042Y-85759300D01*
X116915501Y-85801827D01*
X116915500Y-90371278D01*
X116907042Y-90413800D01*
X116915500Y-90456322D01*
X116915500Y-90456325D01*
X116940554Y-90582279D01*
X117035990Y-90725110D01*
X117072043Y-90749200D01*
X117278400Y-90955557D01*
X117302490Y-90991610D01*
X117445320Y-91087046D01*
X117571274Y-91112100D01*
X117571278Y-91112100D01*
X117613800Y-91120558D01*
X117656322Y-91112100D01*
X118422600Y-91112100D01*
X118422600Y-91140000D01*
X118412998Y-91140000D01*
X118412998Y-91298748D01*
X118254250Y-91140000D01*
X117413691Y-91140000D01*
X117180302Y-91236673D01*
X117001673Y-91415301D01*
X116905000Y-91648690D01*
X116905000Y-91789250D01*
X117063750Y-91948000D01*
X118413000Y-91948000D01*
X118413000Y-91928000D01*
X118667000Y-91928000D01*
X118667000Y-91948000D01*
X118687000Y-91948000D01*
X118687000Y-92202000D01*
X118667000Y-92202000D01*
X118667000Y-92222000D01*
X118413000Y-92222000D01*
X118413000Y-92202000D01*
X117063750Y-92202000D01*
X116905000Y-92360750D01*
X116905000Y-92501310D01*
X116981221Y-92685322D01*
X116731043Y-92935500D01*
X116694990Y-92959590D01*
X116599554Y-93102421D01*
X116574500Y-93228375D01*
X116574500Y-93228378D01*
X116566042Y-93270900D01*
X116574500Y-93313422D01*
X116574501Y-95537373D01*
X116566042Y-95579900D01*
X116599554Y-95748379D01*
X116670901Y-95855158D01*
X116670903Y-95855160D01*
X116694991Y-95891210D01*
X116731041Y-95915298D01*
X116976000Y-96160257D01*
X117000090Y-96196310D01*
X117123588Y-96278829D01*
X117142920Y-96291746D01*
X117227927Y-96308655D01*
X117228958Y-96313838D01*
X117301939Y-96423061D01*
X117411162Y-96496042D01*
X117531609Y-96520000D01*
X117411162Y-96543958D01*
X117351129Y-96584071D01*
X116483000Y-95715943D01*
X116483000Y-89744957D01*
X116624158Y-89603799D01*
X116660210Y-89579710D01*
X116755646Y-89436880D01*
X116780700Y-89310926D01*
X116780700Y-89310922D01*
X116789158Y-89268401D01*
X116780700Y-89225880D01*
X116780700Y-85421875D01*
X116866464Y-85457400D01*
X116866464Y-85457400D01*
G37*
X116866464Y-85457400D02*
X117029703Y-85457400D01*
X117011903Y-85484040D01*
X117011901Y-85484042D01*
X116940554Y-85590821D01*
X116907042Y-85759300D01*
X116915501Y-85801827D01*
X116915500Y-90371278D01*
X116907042Y-90413800D01*
X116915500Y-90456322D01*
X116915500Y-90456325D01*
X116940554Y-90582279D01*
X117035990Y-90725110D01*
X117072043Y-90749200D01*
X117278400Y-90955557D01*
X117302490Y-90991610D01*
X117445320Y-91087046D01*
X117571274Y-91112100D01*
X117571278Y-91112100D01*
X117613800Y-91120558D01*
X117656322Y-91112100D01*
X118422600Y-91112100D01*
X118422600Y-91140000D01*
X118412998Y-91140000D01*
X118412998Y-91298748D01*
X118254250Y-91140000D01*
X117413691Y-91140000D01*
X117180302Y-91236673D01*
X117001673Y-91415301D01*
X116905000Y-91648690D01*
X116905000Y-91789250D01*
X117063750Y-91948000D01*
X118413000Y-91948000D01*
X118413000Y-91928000D01*
X118667000Y-91928000D01*
X118667000Y-91948000D01*
X118687000Y-91948000D01*
X118687000Y-92202000D01*
X118667000Y-92202000D01*
X118667000Y-92222000D01*
X118413000Y-92222000D01*
X118413000Y-92202000D01*
X117063750Y-92202000D01*
X116905000Y-92360750D01*
X116905000Y-92501310D01*
X116981221Y-92685322D01*
X116731043Y-92935500D01*
X116694990Y-92959590D01*
X116599554Y-93102421D01*
X116574500Y-93228375D01*
X116574500Y-93228378D01*
X116566042Y-93270900D01*
X116574500Y-93313422D01*
X116574501Y-95537373D01*
X116566042Y-95579900D01*
X116599554Y-95748379D01*
X116670901Y-95855158D01*
X116670903Y-95855160D01*
X116694991Y-95891210D01*
X116731041Y-95915298D01*
X116976000Y-96160257D01*
X117000090Y-96196310D01*
X117123588Y-96278829D01*
X117142920Y-96291746D01*
X117227927Y-96308655D01*
X117228958Y-96313838D01*
X117301939Y-96423061D01*
X117411162Y-96496042D01*
X117531609Y-96520000D01*
X117411162Y-96543958D01*
X117351129Y-96584071D01*
X116483000Y-95715943D01*
X116483000Y-89744957D01*
X116624158Y-89603799D01*
X116660210Y-89579710D01*
X116755646Y-89436880D01*
X116780700Y-89310926D01*
X116780700Y-89310922D01*
X116789158Y-89268401D01*
X116780700Y-89225880D01*
X116780700Y-85421875D01*
X116866464Y-85457400D01*
G04 #@! TD*
M02*
