G04 #@! TF.GenerationSoftware,KiCad,Pcbnew,6.0.0-rc1-unknown-ab92882~66~ubuntu18.04.1*
G04 #@! TF.CreationDate,2018-09-14T10:08:46-04:00*
G04 #@! TF.ProjectId,backlight_controller_3x2,6261636B6C696768745F636F6E74726F,1.0*
G04 #@! TF.SameCoordinates,Original*
G04 #@! TF.FileFunction,Soldermask,Bot*
G04 #@! TF.FilePolarity,Negative*
%FSLAX46Y46*%
G04 Gerber Fmt 4.6, Leading zero omitted, Abs format (unit mm)*
G04 Created by KiCad (PCBNEW 6.0.0-rc1-unknown-ab92882~66~ubuntu18.04.1) date Fri Sep 14 10:08:46 2018*
%MOMM*%
%LPD*%
G01*
G04 APERTURE LIST*
%ADD10C,0.228600*%
%ADD11C,0.100000*%
G04 APERTURE END LIST*
D10*
X156210000Y-67945000D02*
X85725000Y-67945000D01*
X156210000Y-109855000D02*
X156210000Y-67945000D01*
X85725000Y-109855000D02*
X156210000Y-109855000D01*
X85725000Y-67945000D02*
X85725000Y-109855000D01*
D11*
G36*
X138049000Y-108585000D02*
X136779000Y-108585000D01*
X136779000Y-106045000D01*
X138049000Y-106045000D01*
X138049000Y-108585000D01*
X138049000Y-108585000D01*
G37*
G36*
X135001000Y-108585000D02*
X133731000Y-108585000D01*
X133731000Y-106045000D01*
X135001000Y-106045000D01*
X135001000Y-108585000D01*
X135001000Y-108585000D01*
G37*
G36*
X130693623Y-104970327D02*
X131017198Y-105104356D01*
X131308412Y-105298939D01*
X131556061Y-105546588D01*
X131750644Y-105837802D01*
X131884673Y-106161377D01*
X131953000Y-106504881D01*
X131953000Y-106855119D01*
X131884673Y-107198623D01*
X131750644Y-107522198D01*
X131556061Y-107813412D01*
X131308412Y-108061061D01*
X131017198Y-108255644D01*
X130693623Y-108389673D01*
X130350119Y-108458000D01*
X129999881Y-108458000D01*
X129656377Y-108389673D01*
X129332802Y-108255644D01*
X129041588Y-108061061D01*
X128793939Y-107813412D01*
X128599356Y-107522198D01*
X128465327Y-107198623D01*
X128397000Y-106855119D01*
X128397000Y-106504881D01*
X128465327Y-106161377D01*
X128599356Y-105837802D01*
X128793939Y-105546588D01*
X129041588Y-105298939D01*
X129332802Y-105104356D01*
X129656377Y-104970327D01*
X129999881Y-104902000D01*
X130350119Y-104902000D01*
X130693623Y-104970327D01*
X130693623Y-104970327D01*
G37*
G36*
X113846742Y-105423415D02*
X114021501Y-105476428D01*
X114021503Y-105476429D01*
X114021506Y-105476430D01*
X114182561Y-105562515D01*
X114323730Y-105678370D01*
X114439585Y-105819539D01*
X114525672Y-105980598D01*
X114578685Y-106155357D01*
X114592100Y-106291563D01*
X114592100Y-107068437D01*
X114578685Y-107204643D01*
X114578684Y-107204645D01*
X114525672Y-107379403D01*
X114502664Y-107422446D01*
X114439585Y-107540461D01*
X114323730Y-107681630D01*
X114182561Y-107797485D01*
X114021502Y-107883572D01*
X113846743Y-107936585D01*
X113665000Y-107954485D01*
X113483258Y-107936585D01*
X113308499Y-107883572D01*
X113147440Y-107797485D01*
X113006271Y-107681630D01*
X112890416Y-107540461D01*
X112804329Y-107379402D01*
X112787773Y-107324826D01*
X112751315Y-107204645D01*
X112737900Y-107068439D01*
X112737900Y-106291562D01*
X112751315Y-106155361D01*
X112751315Y-106155358D01*
X112804328Y-105980599D01*
X112804329Y-105980597D01*
X112804330Y-105980594D01*
X112890415Y-105819539D01*
X113006270Y-105678370D01*
X113147439Y-105562515D01*
X113308498Y-105476428D01*
X113483257Y-105423415D01*
X113665000Y-105405515D01*
X113846742Y-105423415D01*
X113846742Y-105423415D01*
G37*
G36*
X126546742Y-105423415D02*
X126721501Y-105476428D01*
X126721503Y-105476429D01*
X126721506Y-105476430D01*
X126882561Y-105562515D01*
X127023730Y-105678370D01*
X127139585Y-105819539D01*
X127225672Y-105980598D01*
X127278685Y-106155357D01*
X127292100Y-106291563D01*
X127292100Y-107068437D01*
X127278685Y-107204643D01*
X127278684Y-107204645D01*
X127225672Y-107379403D01*
X127202664Y-107422446D01*
X127139585Y-107540461D01*
X127023730Y-107681630D01*
X126882561Y-107797485D01*
X126721502Y-107883572D01*
X126546743Y-107936585D01*
X126365000Y-107954485D01*
X126183258Y-107936585D01*
X126008499Y-107883572D01*
X125847440Y-107797485D01*
X125706271Y-107681630D01*
X125590416Y-107540461D01*
X125504329Y-107379402D01*
X125487773Y-107324826D01*
X125451315Y-107204645D01*
X125437900Y-107068439D01*
X125437900Y-106291562D01*
X125451315Y-106155361D01*
X125451315Y-106155358D01*
X125504328Y-105980599D01*
X125504329Y-105980597D01*
X125504330Y-105980594D01*
X125590415Y-105819539D01*
X125706270Y-105678370D01*
X125847439Y-105562515D01*
X126008498Y-105476428D01*
X126183257Y-105423415D01*
X126365000Y-105405515D01*
X126546742Y-105423415D01*
X126546742Y-105423415D01*
G37*
G36*
X124006742Y-105423415D02*
X124181501Y-105476428D01*
X124181503Y-105476429D01*
X124181506Y-105476430D01*
X124342561Y-105562515D01*
X124483730Y-105678370D01*
X124599585Y-105819539D01*
X124685672Y-105980598D01*
X124738685Y-106155357D01*
X124752100Y-106291563D01*
X124752100Y-107068437D01*
X124738685Y-107204643D01*
X124738684Y-107204645D01*
X124685672Y-107379403D01*
X124662664Y-107422446D01*
X124599585Y-107540461D01*
X124483730Y-107681630D01*
X124342561Y-107797485D01*
X124181502Y-107883572D01*
X124006743Y-107936585D01*
X123825000Y-107954485D01*
X123643258Y-107936585D01*
X123468499Y-107883572D01*
X123307440Y-107797485D01*
X123166271Y-107681630D01*
X123050416Y-107540461D01*
X122964329Y-107379402D01*
X122947773Y-107324826D01*
X122911315Y-107204645D01*
X122897900Y-107068439D01*
X122897900Y-106291562D01*
X122911315Y-106155361D01*
X122911315Y-106155358D01*
X122964328Y-105980599D01*
X122964329Y-105980597D01*
X122964330Y-105980594D01*
X123050415Y-105819539D01*
X123166270Y-105678370D01*
X123307439Y-105562515D01*
X123468498Y-105476428D01*
X123643257Y-105423415D01*
X123825000Y-105405515D01*
X124006742Y-105423415D01*
X124006742Y-105423415D01*
G37*
G36*
X121466742Y-105423415D02*
X121641501Y-105476428D01*
X121641503Y-105476429D01*
X121641506Y-105476430D01*
X121802561Y-105562515D01*
X121943730Y-105678370D01*
X122059585Y-105819539D01*
X122145672Y-105980598D01*
X122198685Y-106155357D01*
X122212100Y-106291563D01*
X122212100Y-107068437D01*
X122198685Y-107204643D01*
X122198684Y-107204645D01*
X122145672Y-107379403D01*
X122122664Y-107422446D01*
X122059585Y-107540461D01*
X121943730Y-107681630D01*
X121802561Y-107797485D01*
X121641502Y-107883572D01*
X121466743Y-107936585D01*
X121285000Y-107954485D01*
X121103258Y-107936585D01*
X120928499Y-107883572D01*
X120767440Y-107797485D01*
X120626271Y-107681630D01*
X120510416Y-107540461D01*
X120424329Y-107379402D01*
X120407773Y-107324826D01*
X120371315Y-107204645D01*
X120357900Y-107068439D01*
X120357900Y-106291562D01*
X120371315Y-106155361D01*
X120371315Y-106155358D01*
X120424328Y-105980599D01*
X120424329Y-105980597D01*
X120424330Y-105980594D01*
X120510415Y-105819539D01*
X120626270Y-105678370D01*
X120767439Y-105562515D01*
X120928498Y-105476428D01*
X121103257Y-105423415D01*
X121285000Y-105405515D01*
X121466742Y-105423415D01*
X121466742Y-105423415D01*
G37*
G36*
X118926742Y-105423415D02*
X119101501Y-105476428D01*
X119101503Y-105476429D01*
X119101506Y-105476430D01*
X119262561Y-105562515D01*
X119403730Y-105678370D01*
X119519585Y-105819539D01*
X119605672Y-105980598D01*
X119658685Y-106155357D01*
X119672100Y-106291563D01*
X119672100Y-107068437D01*
X119658685Y-107204643D01*
X119658684Y-107204645D01*
X119605672Y-107379403D01*
X119582664Y-107422446D01*
X119519585Y-107540461D01*
X119403730Y-107681630D01*
X119262561Y-107797485D01*
X119101502Y-107883572D01*
X118926743Y-107936585D01*
X118745000Y-107954485D01*
X118563258Y-107936585D01*
X118388499Y-107883572D01*
X118227440Y-107797485D01*
X118086271Y-107681630D01*
X117970416Y-107540461D01*
X117884329Y-107379402D01*
X117867773Y-107324826D01*
X117831315Y-107204645D01*
X117817900Y-107068439D01*
X117817900Y-106291562D01*
X117831315Y-106155361D01*
X117831315Y-106155358D01*
X117884328Y-105980599D01*
X117884329Y-105980597D01*
X117884330Y-105980594D01*
X117970415Y-105819539D01*
X118086270Y-105678370D01*
X118227439Y-105562515D01*
X118388498Y-105476428D01*
X118563257Y-105423415D01*
X118745000Y-105405515D01*
X118926742Y-105423415D01*
X118926742Y-105423415D01*
G37*
G36*
X116386742Y-105423415D02*
X116561501Y-105476428D01*
X116561503Y-105476429D01*
X116561506Y-105476430D01*
X116722561Y-105562515D01*
X116863730Y-105678370D01*
X116979585Y-105819539D01*
X117065672Y-105980598D01*
X117118685Y-106155357D01*
X117132100Y-106291563D01*
X117132100Y-107068437D01*
X117118685Y-107204643D01*
X117118684Y-107204645D01*
X117065672Y-107379403D01*
X117042664Y-107422446D01*
X116979585Y-107540461D01*
X116863730Y-107681630D01*
X116722561Y-107797485D01*
X116561502Y-107883572D01*
X116386743Y-107936585D01*
X116205000Y-107954485D01*
X116023258Y-107936585D01*
X115848499Y-107883572D01*
X115687440Y-107797485D01*
X115546271Y-107681630D01*
X115430416Y-107540461D01*
X115344329Y-107379402D01*
X115327773Y-107324826D01*
X115291315Y-107204645D01*
X115277900Y-107068439D01*
X115277900Y-106291562D01*
X115291315Y-106155361D01*
X115291315Y-106155358D01*
X115344328Y-105980599D01*
X115344329Y-105980597D01*
X115344330Y-105980594D01*
X115430415Y-105819539D01*
X115546270Y-105678370D01*
X115687439Y-105562515D01*
X115848498Y-105476428D01*
X116023257Y-105423415D01*
X116205000Y-105405515D01*
X116386742Y-105423415D01*
X116386742Y-105423415D01*
G37*
G36*
X111306742Y-105423415D02*
X111481501Y-105476428D01*
X111481503Y-105476429D01*
X111481506Y-105476430D01*
X111642561Y-105562515D01*
X111783730Y-105678370D01*
X111899585Y-105819539D01*
X111985672Y-105980598D01*
X112038685Y-106155357D01*
X112052100Y-106291563D01*
X112052100Y-107068437D01*
X112038685Y-107204643D01*
X112038684Y-107204645D01*
X111985672Y-107379403D01*
X111962664Y-107422446D01*
X111899585Y-107540461D01*
X111783730Y-107681630D01*
X111642561Y-107797485D01*
X111481502Y-107883572D01*
X111306743Y-107936585D01*
X111125000Y-107954485D01*
X110943258Y-107936585D01*
X110768499Y-107883572D01*
X110607440Y-107797485D01*
X110466271Y-107681630D01*
X110350416Y-107540461D01*
X110264329Y-107379402D01*
X110247773Y-107324826D01*
X110211315Y-107204645D01*
X110197900Y-107068439D01*
X110197900Y-106291562D01*
X110211315Y-106155361D01*
X110211315Y-106155358D01*
X110264328Y-105980599D01*
X110264329Y-105980597D01*
X110264330Y-105980594D01*
X110350415Y-105819539D01*
X110466270Y-105678370D01*
X110607439Y-105562515D01*
X110768498Y-105476428D01*
X110943257Y-105423415D01*
X111125000Y-105405515D01*
X111306742Y-105423415D01*
X111306742Y-105423415D01*
G37*
G36*
X108766742Y-105423415D02*
X108941501Y-105476428D01*
X108941503Y-105476429D01*
X108941506Y-105476430D01*
X109102561Y-105562515D01*
X109243730Y-105678370D01*
X109359585Y-105819539D01*
X109445672Y-105980598D01*
X109498685Y-106155357D01*
X109512100Y-106291563D01*
X109512100Y-107068437D01*
X109498685Y-107204643D01*
X109498684Y-107204645D01*
X109445672Y-107379403D01*
X109422664Y-107422446D01*
X109359585Y-107540461D01*
X109243730Y-107681630D01*
X109102561Y-107797485D01*
X108941502Y-107883572D01*
X108766743Y-107936585D01*
X108585000Y-107954485D01*
X108403258Y-107936585D01*
X108228499Y-107883572D01*
X108067440Y-107797485D01*
X107926271Y-107681630D01*
X107810416Y-107540461D01*
X107724329Y-107379402D01*
X107707773Y-107324826D01*
X107671315Y-107204645D01*
X107657900Y-107068439D01*
X107657900Y-106291562D01*
X107671315Y-106155361D01*
X107671315Y-106155358D01*
X107724328Y-105980599D01*
X107724329Y-105980597D01*
X107724330Y-105980594D01*
X107810415Y-105819539D01*
X107926270Y-105678370D01*
X108067439Y-105562515D01*
X108228498Y-105476428D01*
X108403257Y-105423415D01*
X108585000Y-105405515D01*
X108766742Y-105423415D01*
X108766742Y-105423415D01*
G37*
G36*
X106226742Y-105423415D02*
X106401501Y-105476428D01*
X106401503Y-105476429D01*
X106401506Y-105476430D01*
X106562561Y-105562515D01*
X106703730Y-105678370D01*
X106819585Y-105819539D01*
X106905672Y-105980598D01*
X106958685Y-106155357D01*
X106972100Y-106291563D01*
X106972100Y-107068437D01*
X106958685Y-107204643D01*
X106958684Y-107204645D01*
X106905672Y-107379403D01*
X106882664Y-107422446D01*
X106819585Y-107540461D01*
X106703730Y-107681630D01*
X106562561Y-107797485D01*
X106401502Y-107883572D01*
X106226743Y-107936585D01*
X106045000Y-107954485D01*
X105863258Y-107936585D01*
X105688499Y-107883572D01*
X105527440Y-107797485D01*
X105386271Y-107681630D01*
X105270416Y-107540461D01*
X105184329Y-107379402D01*
X105167773Y-107324826D01*
X105131315Y-107204645D01*
X105117900Y-107068439D01*
X105117900Y-106291562D01*
X105131315Y-106155361D01*
X105131315Y-106155358D01*
X105184328Y-105980599D01*
X105184329Y-105980597D01*
X105184330Y-105980594D01*
X105270415Y-105819539D01*
X105386270Y-105678370D01*
X105527439Y-105562515D01*
X105688498Y-105476428D01*
X105863257Y-105423415D01*
X106045000Y-105405515D01*
X106226742Y-105423415D01*
X106226742Y-105423415D01*
G37*
G36*
X101146742Y-105423415D02*
X101321501Y-105476428D01*
X101321503Y-105476429D01*
X101321506Y-105476430D01*
X101482561Y-105562515D01*
X101623730Y-105678370D01*
X101739585Y-105819539D01*
X101825672Y-105980598D01*
X101878685Y-106155357D01*
X101892100Y-106291563D01*
X101892100Y-107068437D01*
X101878685Y-107204643D01*
X101878684Y-107204645D01*
X101825672Y-107379403D01*
X101802664Y-107422446D01*
X101739585Y-107540461D01*
X101623730Y-107681630D01*
X101482561Y-107797485D01*
X101321502Y-107883572D01*
X101146743Y-107936585D01*
X100965000Y-107954485D01*
X100783258Y-107936585D01*
X100608499Y-107883572D01*
X100447440Y-107797485D01*
X100306271Y-107681630D01*
X100190416Y-107540461D01*
X100104329Y-107379402D01*
X100087773Y-107324826D01*
X100051315Y-107204645D01*
X100037900Y-107068439D01*
X100037900Y-106291562D01*
X100051315Y-106155361D01*
X100051315Y-106155358D01*
X100104328Y-105980599D01*
X100104329Y-105980597D01*
X100104330Y-105980594D01*
X100190415Y-105819539D01*
X100306270Y-105678370D01*
X100447439Y-105562515D01*
X100608498Y-105476428D01*
X100783257Y-105423415D01*
X100965000Y-105405515D01*
X101146742Y-105423415D01*
X101146742Y-105423415D01*
G37*
G36*
X98606742Y-105423415D02*
X98781501Y-105476428D01*
X98781503Y-105476429D01*
X98781506Y-105476430D01*
X98942561Y-105562515D01*
X99083730Y-105678370D01*
X99199585Y-105819539D01*
X99285672Y-105980598D01*
X99338685Y-106155357D01*
X99352100Y-106291563D01*
X99352100Y-107068437D01*
X99338685Y-107204643D01*
X99338684Y-107204645D01*
X99285672Y-107379403D01*
X99262664Y-107422446D01*
X99199585Y-107540461D01*
X99083730Y-107681630D01*
X98942561Y-107797485D01*
X98781502Y-107883572D01*
X98606743Y-107936585D01*
X98425000Y-107954485D01*
X98243258Y-107936585D01*
X98068499Y-107883572D01*
X97907440Y-107797485D01*
X97766271Y-107681630D01*
X97650416Y-107540461D01*
X97564329Y-107379402D01*
X97547773Y-107324826D01*
X97511315Y-107204645D01*
X97497900Y-107068439D01*
X97497900Y-106291562D01*
X97511315Y-106155361D01*
X97511315Y-106155358D01*
X97564328Y-105980599D01*
X97564329Y-105980597D01*
X97564330Y-105980594D01*
X97650415Y-105819539D01*
X97766270Y-105678370D01*
X97907439Y-105562515D01*
X98068498Y-105476428D01*
X98243257Y-105423415D01*
X98425000Y-105405515D01*
X98606742Y-105423415D01*
X98606742Y-105423415D01*
G37*
G36*
X96066742Y-105423415D02*
X96241501Y-105476428D01*
X96241503Y-105476429D01*
X96241506Y-105476430D01*
X96402561Y-105562515D01*
X96543730Y-105678370D01*
X96659585Y-105819539D01*
X96745672Y-105980598D01*
X96798685Y-106155357D01*
X96812100Y-106291563D01*
X96812100Y-107068437D01*
X96798685Y-107204643D01*
X96798684Y-107204645D01*
X96745672Y-107379403D01*
X96722664Y-107422446D01*
X96659585Y-107540461D01*
X96543730Y-107681630D01*
X96402561Y-107797485D01*
X96241502Y-107883572D01*
X96066743Y-107936585D01*
X95885000Y-107954485D01*
X95703258Y-107936585D01*
X95528499Y-107883572D01*
X95367440Y-107797485D01*
X95226271Y-107681630D01*
X95110416Y-107540461D01*
X95024329Y-107379402D01*
X95007773Y-107324826D01*
X94971315Y-107204645D01*
X94957900Y-107068439D01*
X94957900Y-106291562D01*
X94971315Y-106155361D01*
X94971315Y-106155358D01*
X95024328Y-105980599D01*
X95024329Y-105980597D01*
X95024330Y-105980594D01*
X95110415Y-105819539D01*
X95226270Y-105678370D01*
X95367439Y-105562515D01*
X95528498Y-105476428D01*
X95703257Y-105423415D01*
X95885000Y-105405515D01*
X96066742Y-105423415D01*
X96066742Y-105423415D01*
G37*
G36*
X93526742Y-105423415D02*
X93701501Y-105476428D01*
X93701503Y-105476429D01*
X93701506Y-105476430D01*
X93862561Y-105562515D01*
X94003730Y-105678370D01*
X94119585Y-105819539D01*
X94205672Y-105980598D01*
X94258685Y-106155357D01*
X94272100Y-106291563D01*
X94272100Y-107068437D01*
X94258685Y-107204643D01*
X94258684Y-107204645D01*
X94205672Y-107379403D01*
X94182664Y-107422446D01*
X94119585Y-107540461D01*
X94003730Y-107681630D01*
X93862561Y-107797485D01*
X93701502Y-107883572D01*
X93526743Y-107936585D01*
X93345000Y-107954485D01*
X93163258Y-107936585D01*
X92988499Y-107883572D01*
X92827440Y-107797485D01*
X92686271Y-107681630D01*
X92570416Y-107540461D01*
X92484329Y-107379402D01*
X92467773Y-107324826D01*
X92431315Y-107204645D01*
X92417900Y-107068439D01*
X92417900Y-106291562D01*
X92431315Y-106155361D01*
X92431315Y-106155358D01*
X92484328Y-105980599D01*
X92484329Y-105980597D01*
X92484330Y-105980594D01*
X92570415Y-105819539D01*
X92686270Y-105678370D01*
X92827439Y-105562515D01*
X92988498Y-105476428D01*
X93163257Y-105423415D01*
X93345000Y-105405515D01*
X93526742Y-105423415D01*
X93526742Y-105423415D01*
G37*
G36*
X90986742Y-105423415D02*
X91161501Y-105476428D01*
X91161503Y-105476429D01*
X91161506Y-105476430D01*
X91322561Y-105562515D01*
X91463730Y-105678370D01*
X91579585Y-105819539D01*
X91665672Y-105980598D01*
X91718685Y-106155357D01*
X91732100Y-106291563D01*
X91732100Y-107068437D01*
X91718685Y-107204643D01*
X91718684Y-107204645D01*
X91665672Y-107379403D01*
X91642664Y-107422446D01*
X91579585Y-107540461D01*
X91463730Y-107681630D01*
X91322561Y-107797485D01*
X91161502Y-107883572D01*
X90986743Y-107936585D01*
X90805000Y-107954485D01*
X90623258Y-107936585D01*
X90448499Y-107883572D01*
X90287440Y-107797485D01*
X90146271Y-107681630D01*
X90030416Y-107540461D01*
X89944329Y-107379402D01*
X89927773Y-107324826D01*
X89891315Y-107204645D01*
X89877900Y-107068439D01*
X89877900Y-106291562D01*
X89891315Y-106155361D01*
X89891315Y-106155358D01*
X89944328Y-105980599D01*
X89944329Y-105980597D01*
X89944330Y-105980594D01*
X90030415Y-105819539D01*
X90146270Y-105678370D01*
X90287439Y-105562515D01*
X90448498Y-105476428D01*
X90623257Y-105423415D01*
X90805000Y-105405515D01*
X90986742Y-105423415D01*
X90986742Y-105423415D01*
G37*
G36*
X88446742Y-105423415D02*
X88621501Y-105476428D01*
X88621503Y-105476429D01*
X88621506Y-105476430D01*
X88782561Y-105562515D01*
X88923730Y-105678370D01*
X89039585Y-105819539D01*
X89125672Y-105980598D01*
X89178685Y-106155357D01*
X89192100Y-106291563D01*
X89192100Y-107068437D01*
X89178685Y-107204643D01*
X89178684Y-107204645D01*
X89125672Y-107379403D01*
X89102664Y-107422446D01*
X89039585Y-107540461D01*
X88923730Y-107681630D01*
X88782561Y-107797485D01*
X88621502Y-107883572D01*
X88446743Y-107936585D01*
X88265000Y-107954485D01*
X88083258Y-107936585D01*
X87908499Y-107883572D01*
X87747440Y-107797485D01*
X87606271Y-107681630D01*
X87490416Y-107540461D01*
X87404329Y-107379402D01*
X87387773Y-107324826D01*
X87351315Y-107204645D01*
X87337900Y-107068439D01*
X87337900Y-106291562D01*
X87351315Y-106155361D01*
X87351315Y-106155358D01*
X87404328Y-105980599D01*
X87404329Y-105980597D01*
X87404330Y-105980594D01*
X87490415Y-105819539D01*
X87606270Y-105678370D01*
X87747439Y-105562515D01*
X87908498Y-105476428D01*
X88083257Y-105423415D01*
X88265000Y-105405515D01*
X88446742Y-105423415D01*
X88446742Y-105423415D01*
G37*
G36*
X103686742Y-105423415D02*
X103861501Y-105476428D01*
X103861503Y-105476429D01*
X103861506Y-105476430D01*
X104022561Y-105562515D01*
X104163730Y-105678370D01*
X104279585Y-105819539D01*
X104365672Y-105980598D01*
X104418685Y-106155357D01*
X104432100Y-106291563D01*
X104432100Y-107068437D01*
X104418685Y-107204643D01*
X104418684Y-107204645D01*
X104365672Y-107379403D01*
X104342664Y-107422446D01*
X104279585Y-107540461D01*
X104163730Y-107681630D01*
X104022561Y-107797485D01*
X103861502Y-107883572D01*
X103686743Y-107936585D01*
X103505000Y-107954485D01*
X103323258Y-107936585D01*
X103148499Y-107883572D01*
X102987440Y-107797485D01*
X102846271Y-107681630D01*
X102730416Y-107540461D01*
X102644329Y-107379402D01*
X102627773Y-107324826D01*
X102591315Y-107204645D01*
X102577900Y-107068439D01*
X102577900Y-106291562D01*
X102591315Y-106155361D01*
X102591315Y-106155358D01*
X102644328Y-105980599D01*
X102644329Y-105980597D01*
X102644330Y-105980594D01*
X102730415Y-105819539D01*
X102846270Y-105678370D01*
X102987439Y-105562515D01*
X103148498Y-105476428D01*
X103323257Y-105423415D01*
X103505000Y-105405515D01*
X103686742Y-105423415D01*
X103686742Y-105423415D01*
G37*
G36*
X153544827Y-106438652D02*
X153686201Y-106481538D01*
X153816494Y-106551180D01*
X153930696Y-106644904D01*
X154024420Y-106759106D01*
X154094062Y-106889399D01*
X154136948Y-107030773D01*
X154151428Y-107177800D01*
X154136948Y-107324827D01*
X154094062Y-107466201D01*
X154024420Y-107596494D01*
X153930696Y-107710696D01*
X153816494Y-107804420D01*
X153686201Y-107874062D01*
X153544827Y-107916948D01*
X153434639Y-107927800D01*
X152360961Y-107927800D01*
X152250773Y-107916948D01*
X152109399Y-107874062D01*
X151979106Y-107804420D01*
X151864904Y-107710696D01*
X151771180Y-107596494D01*
X151701538Y-107466201D01*
X151658652Y-107324827D01*
X151644172Y-107177800D01*
X151658652Y-107030773D01*
X151701538Y-106889399D01*
X151771180Y-106759106D01*
X151864904Y-106644904D01*
X151979106Y-106551180D01*
X152109399Y-106481538D01*
X152250773Y-106438652D01*
X152360961Y-106427800D01*
X153434639Y-106427800D01*
X153544827Y-106438652D01*
X153544827Y-106438652D01*
G37*
G36*
X150009227Y-106438652D02*
X150150601Y-106481538D01*
X150280894Y-106551180D01*
X150395096Y-106644904D01*
X150488820Y-106759106D01*
X150558462Y-106889399D01*
X150601348Y-107030773D01*
X150615828Y-107177800D01*
X150601348Y-107324827D01*
X150558462Y-107466201D01*
X150488820Y-107596494D01*
X150395096Y-107710696D01*
X150280894Y-107804420D01*
X150150601Y-107874062D01*
X150009227Y-107916948D01*
X149899039Y-107927800D01*
X148825361Y-107927800D01*
X148715173Y-107916948D01*
X148573799Y-107874062D01*
X148443506Y-107804420D01*
X148329304Y-107710696D01*
X148235580Y-107596494D01*
X148165938Y-107466201D01*
X148123052Y-107324827D01*
X148108572Y-107177800D01*
X148123052Y-107030773D01*
X148165938Y-106889399D01*
X148235580Y-106759106D01*
X148329304Y-106644904D01*
X148443506Y-106551180D01*
X148573799Y-106481538D01*
X148715173Y-106438652D01*
X148825361Y-106427800D01*
X149899039Y-106427800D01*
X150009227Y-106438652D01*
X150009227Y-106438652D01*
G37*
G36*
X144470935Y-103948429D02*
X144567534Y-103967644D01*
X144840517Y-104080717D01*
X144981763Y-104175095D01*
X145086197Y-104244876D01*
X145295124Y-104453803D01*
X145459284Y-104699485D01*
X145572356Y-104972467D01*
X145630000Y-105262261D01*
X145630000Y-105557739D01*
X145606005Y-105678370D01*
X145572356Y-105847534D01*
X145459283Y-106120517D01*
X145436001Y-106155361D01*
X145295124Y-106366197D01*
X145086197Y-106575124D01*
X145086194Y-106575126D01*
X144840517Y-106739283D01*
X144567534Y-106852356D01*
X144553648Y-106855118D01*
X144277739Y-106910000D01*
X143982261Y-106910000D01*
X143706352Y-106855118D01*
X143692466Y-106852356D01*
X143419483Y-106739283D01*
X143173806Y-106575126D01*
X143173803Y-106575124D01*
X142964876Y-106366197D01*
X142823999Y-106155361D01*
X142800717Y-106120517D01*
X142687644Y-105847534D01*
X142653995Y-105678370D01*
X142630000Y-105557739D01*
X142630000Y-105262261D01*
X142687644Y-104972467D01*
X142800716Y-104699485D01*
X142964876Y-104453803D01*
X143173803Y-104244876D01*
X143278237Y-104175095D01*
X143419483Y-104080717D01*
X143692466Y-103967644D01*
X143789065Y-103948429D01*
X143982261Y-103910000D01*
X144277739Y-103910000D01*
X144470935Y-103948429D01*
X144470935Y-103948429D01*
G37*
G36*
X151777027Y-104670852D02*
X151918401Y-104713738D01*
X152048694Y-104783380D01*
X152162896Y-104877104D01*
X152256620Y-104991306D01*
X152326262Y-105121599D01*
X152369148Y-105262973D01*
X152383628Y-105410000D01*
X152369148Y-105557027D01*
X152326262Y-105698401D01*
X152256620Y-105828694D01*
X152162896Y-105942896D01*
X152048694Y-106036620D01*
X151918401Y-106106262D01*
X151777027Y-106149148D01*
X151666839Y-106160000D01*
X150593161Y-106160000D01*
X150482973Y-106149148D01*
X150341599Y-106106262D01*
X150211306Y-106036620D01*
X150097104Y-105942896D01*
X150003380Y-105828694D01*
X149933738Y-105698401D01*
X149890852Y-105557027D01*
X149876372Y-105410000D01*
X149890852Y-105262973D01*
X149933738Y-105121599D01*
X150003380Y-104991306D01*
X150097104Y-104877104D01*
X150211306Y-104783380D01*
X150341599Y-104713738D01*
X150482973Y-104670852D01*
X150593161Y-104660000D01*
X151666839Y-104660000D01*
X151777027Y-104670852D01*
X151777027Y-104670852D01*
G37*
G36*
X135001000Y-104775000D02*
X133731000Y-104775000D01*
X133731000Y-102235000D01*
X135001000Y-102235000D01*
X135001000Y-104775000D01*
X135001000Y-104775000D01*
G37*
G36*
X138049000Y-104775000D02*
X136779000Y-104775000D01*
X136779000Y-102235000D01*
X138049000Y-102235000D01*
X138049000Y-104775000D01*
X138049000Y-104775000D01*
G37*
G36*
X153544827Y-102903052D02*
X153686201Y-102945938D01*
X153816494Y-103015580D01*
X153930696Y-103109304D01*
X154024420Y-103223506D01*
X154094062Y-103353799D01*
X154136948Y-103495173D01*
X154151428Y-103642200D01*
X154136948Y-103789227D01*
X154094062Y-103930601D01*
X154024420Y-104060894D01*
X153930696Y-104175096D01*
X153816494Y-104268820D01*
X153686201Y-104338462D01*
X153544827Y-104381348D01*
X153434639Y-104392200D01*
X152360961Y-104392200D01*
X152250773Y-104381348D01*
X152109399Y-104338462D01*
X151979106Y-104268820D01*
X151864904Y-104175096D01*
X151771180Y-104060894D01*
X151701538Y-103930601D01*
X151658652Y-103789227D01*
X151644172Y-103642200D01*
X151658652Y-103495173D01*
X151701538Y-103353799D01*
X151771180Y-103223506D01*
X151864904Y-103109304D01*
X151979106Y-103015580D01*
X152109399Y-102945938D01*
X152250773Y-102903052D01*
X152360961Y-102892200D01*
X153434639Y-102892200D01*
X153544827Y-102903052D01*
X153544827Y-102903052D01*
G37*
G36*
X150009227Y-102903052D02*
X150150601Y-102945938D01*
X150280894Y-103015580D01*
X150395096Y-103109304D01*
X150488820Y-103223506D01*
X150558462Y-103353799D01*
X150601348Y-103495173D01*
X150615828Y-103642200D01*
X150601348Y-103789227D01*
X150558462Y-103930601D01*
X150488820Y-104060894D01*
X150395096Y-104175096D01*
X150280894Y-104268820D01*
X150150601Y-104338462D01*
X150009227Y-104381348D01*
X149899039Y-104392200D01*
X148825361Y-104392200D01*
X148715173Y-104381348D01*
X148573799Y-104338462D01*
X148443506Y-104268820D01*
X148329304Y-104175096D01*
X148235580Y-104060894D01*
X148165938Y-103930601D01*
X148123052Y-103789227D01*
X148108572Y-103642200D01*
X148123052Y-103495173D01*
X148165938Y-103353799D01*
X148235580Y-103223506D01*
X148329304Y-103109304D01*
X148443506Y-103015580D01*
X148573799Y-102945938D01*
X148715173Y-102903052D01*
X148825361Y-102892200D01*
X149899039Y-102892200D01*
X150009227Y-102903052D01*
X150009227Y-102903052D01*
G37*
G36*
X120245000Y-103875000D02*
X118105000Y-103875000D01*
X118105000Y-103135000D01*
X120245000Y-103135000D01*
X120245000Y-103875000D01*
X120245000Y-103875000D01*
G37*
G36*
X129545000Y-103875000D02*
X127405000Y-103875000D01*
X127405000Y-103135000D01*
X129545000Y-103135000D01*
X129545000Y-103875000D01*
X129545000Y-103875000D01*
G37*
G36*
X90053623Y-99890327D02*
X90377198Y-100024356D01*
X90668412Y-100218939D01*
X90916061Y-100466588D01*
X91110644Y-100757802D01*
X91244673Y-101081377D01*
X91313000Y-101424881D01*
X91313000Y-101775119D01*
X91244673Y-102118623D01*
X91110644Y-102442198D01*
X90916061Y-102733412D01*
X90668412Y-102981061D01*
X90377198Y-103175644D01*
X90053623Y-103309673D01*
X89710119Y-103378000D01*
X89359881Y-103378000D01*
X89016377Y-103309673D01*
X88692802Y-103175644D01*
X88401588Y-102981061D01*
X88153939Y-102733412D01*
X87959356Y-102442198D01*
X87825327Y-102118623D01*
X87757000Y-101775119D01*
X87757000Y-101424881D01*
X87825327Y-101081377D01*
X87959356Y-100757802D01*
X88153939Y-100466588D01*
X88401588Y-100218939D01*
X88692802Y-100024356D01*
X89016377Y-99890327D01*
X89359881Y-99822000D01*
X89710119Y-99822000D01*
X90053623Y-99890327D01*
X90053623Y-99890327D01*
G37*
G36*
X129545000Y-102605000D02*
X127405000Y-102605000D01*
X127405000Y-101865000D01*
X129545000Y-101865000D01*
X129545000Y-102605000D01*
X129545000Y-102605000D01*
G37*
G36*
X120245000Y-102605000D02*
X118105000Y-102605000D01*
X118105000Y-101865000D01*
X120245000Y-101865000D01*
X120245000Y-102605000D01*
X120245000Y-102605000D01*
G37*
G36*
X98312857Y-100342272D02*
X98513042Y-100425191D01*
X98693213Y-100545578D01*
X98846422Y-100698787D01*
X98846424Y-100698790D01*
X98846425Y-100698791D01*
X98884246Y-100755394D01*
X98966809Y-100878958D01*
X99049728Y-101079143D01*
X99092000Y-101291658D01*
X99092000Y-101508342D01*
X99049728Y-101720857D01*
X98966809Y-101921042D01*
X98846422Y-102101213D01*
X98693213Y-102254422D01*
X98513042Y-102374809D01*
X98312857Y-102457728D01*
X98100342Y-102500000D01*
X97883658Y-102500000D01*
X97671143Y-102457728D01*
X97470958Y-102374809D01*
X97290787Y-102254422D01*
X97137578Y-102101213D01*
X97017191Y-101921042D01*
X96934272Y-101720857D01*
X96892000Y-101508342D01*
X96892000Y-101291658D01*
X96934272Y-101079143D01*
X97017191Y-100878958D01*
X97099754Y-100755394D01*
X97137575Y-100698791D01*
X97137576Y-100698790D01*
X97137578Y-100698787D01*
X97290787Y-100545578D01*
X97470958Y-100425191D01*
X97671143Y-100342272D01*
X97883658Y-100300000D01*
X98100342Y-100300000D01*
X98312857Y-100342272D01*
X98312857Y-100342272D01*
G37*
G36*
X117108857Y-100342272D02*
X117309042Y-100425191D01*
X117489213Y-100545578D01*
X117642422Y-100698787D01*
X117642424Y-100698790D01*
X117642425Y-100698791D01*
X117680246Y-100755394D01*
X117762809Y-100878958D01*
X117845728Y-101079143D01*
X117857402Y-101137832D01*
X117864515Y-101161281D01*
X117876066Y-101182892D01*
X117891612Y-101201834D01*
X117910554Y-101217380D01*
X117932165Y-101228931D01*
X117955614Y-101236044D01*
X117980000Y-101238446D01*
X118004386Y-101236044D01*
X118027835Y-101228931D01*
X118049446Y-101217380D01*
X118068388Y-101201834D01*
X118083934Y-101182892D01*
X118095485Y-101161281D01*
X118102598Y-101137832D01*
X118105000Y-101113446D01*
X118105000Y-100595000D01*
X120245000Y-100595000D01*
X120245000Y-101335000D01*
X118013000Y-101335000D01*
X117988614Y-101337402D01*
X117965165Y-101344515D01*
X117943554Y-101356066D01*
X117924612Y-101371612D01*
X117909066Y-101390554D01*
X117897515Y-101412165D01*
X117890402Y-101435614D01*
X117888000Y-101460000D01*
X117888000Y-101508342D01*
X117845728Y-101720857D01*
X117762809Y-101921042D01*
X117642422Y-102101213D01*
X117489213Y-102254422D01*
X117309042Y-102374809D01*
X117108857Y-102457728D01*
X116896342Y-102500000D01*
X116679658Y-102500000D01*
X116467143Y-102457728D01*
X116266958Y-102374809D01*
X116086787Y-102254422D01*
X115933578Y-102101213D01*
X115813191Y-101921042D01*
X115730272Y-101720857D01*
X115688000Y-101508342D01*
X115688000Y-101291658D01*
X115730272Y-101079143D01*
X115813191Y-100878958D01*
X115895754Y-100755394D01*
X115933575Y-100698791D01*
X115933576Y-100698790D01*
X115933578Y-100698787D01*
X116086787Y-100545578D01*
X116266958Y-100425191D01*
X116467143Y-100342272D01*
X116679658Y-100300000D01*
X116896342Y-100300000D01*
X117108857Y-100342272D01*
X117108857Y-100342272D01*
G37*
G36*
X129545000Y-101335000D02*
X127405000Y-101335000D01*
X127405000Y-100595000D01*
X129545000Y-100595000D01*
X129545000Y-101335000D01*
X129545000Y-101335000D01*
G37*
G36*
X137488743Y-99571675D02*
X137563378Y-99579026D01*
X137659136Y-99608074D01*
X137707016Y-99622598D01*
X137755299Y-99648406D01*
X137839392Y-99693355D01*
X137955422Y-99788578D01*
X138050645Y-99904608D01*
X138095594Y-99988701D01*
X138121402Y-100036984D01*
X138121402Y-100036985D01*
X138164974Y-100180622D01*
X138179686Y-100330000D01*
X138164974Y-100479378D01*
X138144893Y-100545575D01*
X138121402Y-100623016D01*
X138095594Y-100671299D01*
X138050645Y-100755392D01*
X137955422Y-100871422D01*
X137839392Y-100966645D01*
X137755299Y-101011594D01*
X137707016Y-101037402D01*
X137659136Y-101051926D01*
X137563378Y-101080974D01*
X137488743Y-101088325D01*
X137451427Y-101092000D01*
X136868573Y-101092000D01*
X136831257Y-101088325D01*
X136756622Y-101080974D01*
X136660864Y-101051926D01*
X136612984Y-101037402D01*
X136564701Y-101011594D01*
X136480608Y-100966645D01*
X136364578Y-100871422D01*
X136269355Y-100755392D01*
X136224406Y-100671299D01*
X136198598Y-100623016D01*
X136175107Y-100545575D01*
X136155026Y-100479378D01*
X136140314Y-100330000D01*
X136155026Y-100180622D01*
X136198598Y-100036985D01*
X136198598Y-100036984D01*
X136224406Y-99988701D01*
X136269355Y-99904608D01*
X136364578Y-99788578D01*
X136480608Y-99693355D01*
X136564701Y-99648406D01*
X136612984Y-99622598D01*
X136660864Y-99608074D01*
X136756622Y-99579026D01*
X136831257Y-99571675D01*
X136868573Y-99568000D01*
X137451427Y-99568000D01*
X137488743Y-99571675D01*
X137488743Y-99571675D01*
G37*
G36*
X132408743Y-99571675D02*
X132483378Y-99579026D01*
X132579136Y-99608074D01*
X132627016Y-99622598D01*
X132675299Y-99648406D01*
X132759392Y-99693355D01*
X132875422Y-99788578D01*
X132970645Y-99904608D01*
X133015594Y-99988701D01*
X133041402Y-100036984D01*
X133041402Y-100036985D01*
X133084974Y-100180622D01*
X133099686Y-100330000D01*
X133084974Y-100479378D01*
X133064893Y-100545575D01*
X133041402Y-100623016D01*
X133015594Y-100671299D01*
X132970645Y-100755392D01*
X132875422Y-100871422D01*
X132759392Y-100966645D01*
X132675299Y-101011594D01*
X132627016Y-101037402D01*
X132579136Y-101051926D01*
X132483378Y-101080974D01*
X132408743Y-101088325D01*
X132371427Y-101092000D01*
X131788573Y-101092000D01*
X131751257Y-101088325D01*
X131676622Y-101080974D01*
X131580864Y-101051926D01*
X131532984Y-101037402D01*
X131484701Y-101011594D01*
X131400608Y-100966645D01*
X131284578Y-100871422D01*
X131189355Y-100755392D01*
X131144406Y-100671299D01*
X131118598Y-100623016D01*
X131095107Y-100545575D01*
X131075026Y-100479378D01*
X131060314Y-100330000D01*
X131075026Y-100180622D01*
X131118598Y-100036985D01*
X131118598Y-100036984D01*
X131144406Y-99988701D01*
X131189355Y-99904608D01*
X131284578Y-99788578D01*
X131400608Y-99693355D01*
X131484701Y-99648406D01*
X131532984Y-99622598D01*
X131580864Y-99608074D01*
X131676622Y-99579026D01*
X131751257Y-99571675D01*
X131788573Y-99568000D01*
X132371427Y-99568000D01*
X132408743Y-99571675D01*
X132408743Y-99571675D01*
G37*
G36*
X120245000Y-100065000D02*
X118105000Y-100065000D01*
X118105000Y-99325000D01*
X120245000Y-99325000D01*
X120245000Y-100065000D01*
X120245000Y-100065000D01*
G37*
G36*
X129545000Y-100065000D02*
X127405000Y-100065000D01*
X127405000Y-99325000D01*
X129545000Y-99325000D01*
X129545000Y-100065000D01*
X129545000Y-100065000D01*
G37*
G36*
X113665000Y-99314000D02*
X111125000Y-99314000D01*
X111125000Y-98044000D01*
X113665000Y-98044000D01*
X113665000Y-99314000D01*
X113665000Y-99314000D01*
G37*
G36*
X106045000Y-99314000D02*
X103505000Y-99314000D01*
X103505000Y-98044000D01*
X106045000Y-98044000D01*
X106045000Y-99314000D01*
X106045000Y-99314000D01*
G37*
G36*
X98425000Y-99314000D02*
X95885000Y-99314000D01*
X95885000Y-98044000D01*
X98425000Y-98044000D01*
X98425000Y-99314000D01*
X98425000Y-99314000D01*
G37*
G36*
X90805000Y-99314000D02*
X88265000Y-99314000D01*
X88265000Y-98044000D01*
X90805000Y-98044000D01*
X90805000Y-99314000D01*
X90805000Y-99314000D01*
G37*
G36*
X120245000Y-98795000D02*
X118105000Y-98795000D01*
X118105000Y-98055000D01*
X120245000Y-98055000D01*
X120245000Y-98795000D01*
X120245000Y-98795000D01*
G37*
G36*
X129545000Y-98795000D02*
X127405000Y-98795000D01*
X127405000Y-98055000D01*
X129545000Y-98055000D01*
X129545000Y-98795000D01*
X129545000Y-98795000D01*
G37*
G36*
X132408743Y-97031675D02*
X132483378Y-97039026D01*
X132557207Y-97061422D01*
X132627016Y-97082598D01*
X132675299Y-97108406D01*
X132759392Y-97153355D01*
X132875422Y-97248578D01*
X132970645Y-97364608D01*
X133015594Y-97448701D01*
X133041402Y-97496984D01*
X133041402Y-97496985D01*
X133084974Y-97640622D01*
X133099686Y-97790000D01*
X133084974Y-97939378D01*
X133055926Y-98035136D01*
X133041402Y-98083016D01*
X133015594Y-98131299D01*
X132970645Y-98215392D01*
X132875422Y-98331422D01*
X132759392Y-98426645D01*
X132675299Y-98471594D01*
X132627016Y-98497402D01*
X132579136Y-98511926D01*
X132483378Y-98540974D01*
X132408743Y-98548325D01*
X132371427Y-98552000D01*
X131788573Y-98552000D01*
X131751257Y-98548325D01*
X131676622Y-98540974D01*
X131580864Y-98511926D01*
X131532984Y-98497402D01*
X131484701Y-98471594D01*
X131400608Y-98426645D01*
X131284578Y-98331422D01*
X131189355Y-98215392D01*
X131144406Y-98131299D01*
X131118598Y-98083016D01*
X131104074Y-98035136D01*
X131075026Y-97939378D01*
X131060314Y-97790000D01*
X131075026Y-97640622D01*
X131118598Y-97496985D01*
X131118598Y-97496984D01*
X131144406Y-97448701D01*
X131189355Y-97364608D01*
X131284578Y-97248578D01*
X131400608Y-97153355D01*
X131484701Y-97108406D01*
X131532984Y-97082598D01*
X131602793Y-97061422D01*
X131676622Y-97039026D01*
X131751257Y-97031675D01*
X131788573Y-97028000D01*
X132371427Y-97028000D01*
X132408743Y-97031675D01*
X132408743Y-97031675D01*
G37*
G36*
X137488743Y-97031675D02*
X137563378Y-97039026D01*
X137637207Y-97061422D01*
X137707016Y-97082598D01*
X137755299Y-97108406D01*
X137839392Y-97153355D01*
X137955422Y-97248578D01*
X138050645Y-97364608D01*
X138095594Y-97448701D01*
X138121402Y-97496984D01*
X138121402Y-97496985D01*
X138164974Y-97640622D01*
X138179686Y-97790000D01*
X138164974Y-97939378D01*
X138135926Y-98035136D01*
X138121402Y-98083016D01*
X138095594Y-98131299D01*
X138050645Y-98215392D01*
X137955422Y-98331422D01*
X137839392Y-98426645D01*
X137755299Y-98471594D01*
X137707016Y-98497402D01*
X137659136Y-98511926D01*
X137563378Y-98540974D01*
X137488743Y-98548325D01*
X137451427Y-98552000D01*
X136868573Y-98552000D01*
X136831257Y-98548325D01*
X136756622Y-98540974D01*
X136660864Y-98511926D01*
X136612984Y-98497402D01*
X136564701Y-98471594D01*
X136480608Y-98426645D01*
X136364578Y-98331422D01*
X136269355Y-98215392D01*
X136224406Y-98131299D01*
X136198598Y-98083016D01*
X136184074Y-98035136D01*
X136155026Y-97939378D01*
X136140314Y-97790000D01*
X136155026Y-97640622D01*
X136198598Y-97496985D01*
X136198598Y-97496984D01*
X136224406Y-97448701D01*
X136269355Y-97364608D01*
X136364578Y-97248578D01*
X136480608Y-97153355D01*
X136564701Y-97108406D01*
X136612984Y-97082598D01*
X136682793Y-97061422D01*
X136756622Y-97039026D01*
X136831257Y-97031675D01*
X136868573Y-97028000D01*
X137451427Y-97028000D01*
X137488743Y-97031675D01*
X137488743Y-97031675D01*
G37*
G36*
X129545000Y-97525000D02*
X127405000Y-97525000D01*
X127405000Y-96785000D01*
X129545000Y-96785000D01*
X129545000Y-97525000D01*
X129545000Y-97525000D01*
G37*
G36*
X120245000Y-97525000D02*
X118105000Y-97525000D01*
X118105000Y-96785000D01*
X120245000Y-96785000D01*
X120245000Y-97525000D01*
X120245000Y-97525000D01*
G37*
G36*
X140028743Y-95761675D02*
X140103378Y-95769026D01*
X140177207Y-95791422D01*
X140247016Y-95812598D01*
X140295299Y-95838406D01*
X140379392Y-95883355D01*
X140495422Y-95978578D01*
X140590645Y-96094608D01*
X140635594Y-96178701D01*
X140661402Y-96226984D01*
X140661402Y-96226985D01*
X140704974Y-96370622D01*
X140719686Y-96520000D01*
X140704974Y-96669378D01*
X140675926Y-96765136D01*
X140661402Y-96813016D01*
X140635594Y-96861299D01*
X140590645Y-96945392D01*
X140495422Y-97061422D01*
X140379392Y-97156645D01*
X140295299Y-97201594D01*
X140247016Y-97227402D01*
X140199136Y-97241926D01*
X140103378Y-97270974D01*
X140028743Y-97278325D01*
X139991427Y-97282000D01*
X139408573Y-97282000D01*
X139371257Y-97278325D01*
X139296622Y-97270974D01*
X139200864Y-97241926D01*
X139152984Y-97227402D01*
X139104701Y-97201594D01*
X139020608Y-97156645D01*
X138904578Y-97061422D01*
X138809355Y-96945392D01*
X138764406Y-96861299D01*
X138738598Y-96813016D01*
X138724074Y-96765136D01*
X138695026Y-96669378D01*
X138680314Y-96520000D01*
X138695026Y-96370622D01*
X138738598Y-96226985D01*
X138738598Y-96226984D01*
X138764406Y-96178701D01*
X138809355Y-96094608D01*
X138904578Y-95978578D01*
X139020608Y-95883355D01*
X139104701Y-95838406D01*
X139152984Y-95812598D01*
X139222793Y-95791422D01*
X139296622Y-95769026D01*
X139371257Y-95761675D01*
X139408573Y-95758000D01*
X139991427Y-95758000D01*
X140028743Y-95761675D01*
X140028743Y-95761675D01*
G37*
G36*
X145108743Y-95761675D02*
X145183378Y-95769026D01*
X145257207Y-95791422D01*
X145327016Y-95812598D01*
X145375299Y-95838406D01*
X145459392Y-95883355D01*
X145575422Y-95978578D01*
X145670645Y-96094608D01*
X145715594Y-96178701D01*
X145741402Y-96226984D01*
X145741402Y-96226985D01*
X145784974Y-96370622D01*
X145799686Y-96520000D01*
X145784974Y-96669378D01*
X145755926Y-96765136D01*
X145741402Y-96813016D01*
X145715594Y-96861299D01*
X145670645Y-96945392D01*
X145575422Y-97061422D01*
X145459392Y-97156645D01*
X145375299Y-97201594D01*
X145327016Y-97227402D01*
X145279136Y-97241926D01*
X145183378Y-97270974D01*
X145108743Y-97278325D01*
X145071427Y-97282000D01*
X144488573Y-97282000D01*
X144451257Y-97278325D01*
X144376622Y-97270974D01*
X144280864Y-97241926D01*
X144232984Y-97227402D01*
X144184701Y-97201594D01*
X144100608Y-97156645D01*
X143984578Y-97061422D01*
X143889355Y-96945392D01*
X143844406Y-96861299D01*
X143818598Y-96813016D01*
X143804074Y-96765136D01*
X143775026Y-96669378D01*
X143760314Y-96520000D01*
X143775026Y-96370622D01*
X143818598Y-96226985D01*
X143818598Y-96226984D01*
X143844406Y-96178701D01*
X143889355Y-96094608D01*
X143984578Y-95978578D01*
X144100608Y-95883355D01*
X144184701Y-95838406D01*
X144232984Y-95812598D01*
X144302793Y-95791422D01*
X144376622Y-95769026D01*
X144451257Y-95761675D01*
X144488573Y-95758000D01*
X145071427Y-95758000D01*
X145108743Y-95761675D01*
X145108743Y-95761675D01*
G37*
G36*
X98425000Y-96266000D02*
X95885000Y-96266000D01*
X95885000Y-94996000D01*
X98425000Y-94996000D01*
X98425000Y-96266000D01*
X98425000Y-96266000D01*
G37*
G36*
X106045000Y-96266000D02*
X103505000Y-96266000D01*
X103505000Y-94996000D01*
X106045000Y-94996000D01*
X106045000Y-96266000D01*
X106045000Y-96266000D01*
G37*
G36*
X113665000Y-96266000D02*
X111125000Y-96266000D01*
X111125000Y-94996000D01*
X113665000Y-94996000D01*
X113665000Y-96266000D01*
X113665000Y-96266000D01*
G37*
G36*
X90805000Y-96266000D02*
X88265000Y-96266000D01*
X88265000Y-94996000D01*
X90805000Y-94996000D01*
X90805000Y-96266000D01*
X90805000Y-96266000D01*
G37*
G36*
X129545000Y-96255000D02*
X127405000Y-96255000D01*
X127405000Y-95515000D01*
X129545000Y-95515000D01*
X129545000Y-96255000D01*
X129545000Y-96255000D01*
G37*
G36*
X120245000Y-96255000D02*
X118105000Y-96255000D01*
X118105000Y-95515000D01*
X120245000Y-95515000D01*
X120245000Y-96255000D01*
X120245000Y-96255000D01*
G37*
G36*
X132408743Y-94491675D02*
X132483378Y-94499026D01*
X132579136Y-94528074D01*
X132627016Y-94542598D01*
X132675299Y-94568406D01*
X132759392Y-94613355D01*
X132875422Y-94708578D01*
X132970645Y-94824608D01*
X133015594Y-94908701D01*
X133041402Y-94956984D01*
X133041402Y-94956985D01*
X133084974Y-95100622D01*
X133099686Y-95250000D01*
X133084974Y-95399378D01*
X133055926Y-95495136D01*
X133041402Y-95543016D01*
X133015594Y-95591299D01*
X132970645Y-95675392D01*
X132875422Y-95791422D01*
X132759392Y-95886645D01*
X132675299Y-95931594D01*
X132627016Y-95957402D01*
X132579136Y-95971926D01*
X132483378Y-96000974D01*
X132408743Y-96008325D01*
X132371427Y-96012000D01*
X131788573Y-96012000D01*
X131751257Y-96008325D01*
X131676622Y-96000974D01*
X131580864Y-95971926D01*
X131532984Y-95957402D01*
X131484701Y-95931594D01*
X131400608Y-95886645D01*
X131284578Y-95791422D01*
X131189355Y-95675392D01*
X131144406Y-95591299D01*
X131118598Y-95543016D01*
X131104074Y-95495136D01*
X131075026Y-95399378D01*
X131060314Y-95250000D01*
X131075026Y-95100622D01*
X131118598Y-94956985D01*
X131118598Y-94956984D01*
X131144406Y-94908701D01*
X131189355Y-94824608D01*
X131284578Y-94708578D01*
X131400608Y-94613355D01*
X131484701Y-94568406D01*
X131532984Y-94542598D01*
X131580864Y-94528074D01*
X131676622Y-94499026D01*
X131751257Y-94491675D01*
X131788573Y-94488000D01*
X132371427Y-94488000D01*
X132408743Y-94491675D01*
X132408743Y-94491675D01*
G37*
G36*
X137488743Y-94491675D02*
X137563378Y-94499026D01*
X137659136Y-94528074D01*
X137707016Y-94542598D01*
X137755299Y-94568406D01*
X137839392Y-94613355D01*
X137955422Y-94708578D01*
X138050645Y-94824608D01*
X138095594Y-94908701D01*
X138121402Y-94956984D01*
X138121402Y-94956985D01*
X138164974Y-95100622D01*
X138179686Y-95250000D01*
X138164974Y-95399378D01*
X138135926Y-95495136D01*
X138121402Y-95543016D01*
X138095594Y-95591299D01*
X138050645Y-95675392D01*
X137955422Y-95791422D01*
X137839392Y-95886645D01*
X137755299Y-95931594D01*
X137707016Y-95957402D01*
X137659136Y-95971926D01*
X137563378Y-96000974D01*
X137488743Y-96008325D01*
X137451427Y-96012000D01*
X136868573Y-96012000D01*
X136831257Y-96008325D01*
X136756622Y-96000974D01*
X136660864Y-95971926D01*
X136612984Y-95957402D01*
X136564701Y-95931594D01*
X136480608Y-95886645D01*
X136364578Y-95791422D01*
X136269355Y-95675392D01*
X136224406Y-95591299D01*
X136198598Y-95543016D01*
X136184074Y-95495136D01*
X136155026Y-95399378D01*
X136140314Y-95250000D01*
X136155026Y-95100622D01*
X136198598Y-94956985D01*
X136198598Y-94956984D01*
X136224406Y-94908701D01*
X136269355Y-94824608D01*
X136364578Y-94708578D01*
X136480608Y-94613355D01*
X136564701Y-94568406D01*
X136612984Y-94542598D01*
X136660864Y-94528074D01*
X136756622Y-94499026D01*
X136831257Y-94491675D01*
X136868573Y-94488000D01*
X137451427Y-94488000D01*
X137488743Y-94491675D01*
X137488743Y-94491675D01*
G37*
G36*
X154253378Y-91176859D02*
X154617354Y-91327622D01*
X154944929Y-91546501D01*
X155223499Y-91825071D01*
X155442378Y-92152646D01*
X155593141Y-92516622D01*
X155670000Y-92903016D01*
X155670000Y-93296984D01*
X155593141Y-93683378D01*
X155442378Y-94047354D01*
X155223499Y-94374929D01*
X154944929Y-94653499D01*
X154617354Y-94872378D01*
X154253378Y-95023141D01*
X153866984Y-95100000D01*
X153473016Y-95100000D01*
X153086622Y-95023141D01*
X152722646Y-94872378D01*
X152395071Y-94653499D01*
X152116501Y-94374929D01*
X151897622Y-94047354D01*
X151746859Y-93683378D01*
X151670000Y-93296984D01*
X151670000Y-92903016D01*
X151746859Y-92516622D01*
X151897622Y-92152646D01*
X152116501Y-91825071D01*
X152395071Y-91546501D01*
X152722646Y-91327622D01*
X153086622Y-91176859D01*
X153473016Y-91100000D01*
X153866984Y-91100000D01*
X154253378Y-91176859D01*
X154253378Y-91176859D01*
G37*
G36*
X129545000Y-94985000D02*
X127405000Y-94985000D01*
X127405000Y-94245000D01*
X129545000Y-94245000D01*
X129545000Y-94985000D01*
X129545000Y-94985000D01*
G37*
G36*
X120245000Y-94985000D02*
X118105000Y-94985000D01*
X118105000Y-94245000D01*
X120245000Y-94245000D01*
X120245000Y-94985000D01*
X120245000Y-94985000D01*
G37*
G36*
X147164048Y-91621704D02*
X147164051Y-91621705D01*
X147446802Y-91707476D01*
X147446804Y-91707477D01*
X147707389Y-91846763D01*
X147935792Y-92034208D01*
X148123237Y-92262611D01*
X148262523Y-92523196D01*
X148348296Y-92805952D01*
X148377257Y-93100000D01*
X148348296Y-93394048D01*
X148262523Y-93676804D01*
X148123237Y-93937389D01*
X147935792Y-94165792D01*
X147707389Y-94353237D01*
X147707387Y-94353238D01*
X147446802Y-94492524D01*
X147281729Y-94542598D01*
X147164048Y-94578296D01*
X146943684Y-94600000D01*
X145796316Y-94600000D01*
X145575952Y-94578296D01*
X145458271Y-94542598D01*
X145293198Y-94492524D01*
X145032613Y-94353238D01*
X145032611Y-94353237D01*
X144804208Y-94165792D01*
X144616763Y-93937389D01*
X144477477Y-93676804D01*
X144391704Y-93394048D01*
X144362743Y-93100000D01*
X144391704Y-92805952D01*
X144477477Y-92523196D01*
X144616763Y-92262611D01*
X144804208Y-92034208D01*
X145032611Y-91846763D01*
X145293196Y-91707477D01*
X145293198Y-91707476D01*
X145575949Y-91621705D01*
X145575952Y-91621704D01*
X145796316Y-91600000D01*
X146943684Y-91600000D01*
X147164048Y-91621704D01*
X147164048Y-91621704D01*
G37*
G36*
X141664048Y-91621704D02*
X141664051Y-91621705D01*
X141946802Y-91707476D01*
X141946804Y-91707477D01*
X142207389Y-91846763D01*
X142435792Y-92034208D01*
X142623237Y-92262611D01*
X142762523Y-92523196D01*
X142848296Y-92805952D01*
X142877257Y-93100000D01*
X142848296Y-93394048D01*
X142762523Y-93676804D01*
X142623237Y-93937389D01*
X142435792Y-94165792D01*
X142207389Y-94353237D01*
X142207387Y-94353238D01*
X141946802Y-94492524D01*
X141781729Y-94542598D01*
X141664048Y-94578296D01*
X141443684Y-94600000D01*
X140296316Y-94600000D01*
X140075952Y-94578296D01*
X139958271Y-94542598D01*
X139793198Y-94492524D01*
X139532613Y-94353238D01*
X139532611Y-94353237D01*
X139304208Y-94165792D01*
X139116763Y-93937389D01*
X138977477Y-93676804D01*
X138891704Y-93394048D01*
X138862743Y-93100000D01*
X138891704Y-92805952D01*
X138977477Y-92523196D01*
X139116763Y-92262611D01*
X139304208Y-92034208D01*
X139532611Y-91846763D01*
X139793196Y-91707477D01*
X139793198Y-91707476D01*
X140075949Y-91621705D01*
X140075952Y-91621704D01*
X140296316Y-91600000D01*
X141443684Y-91600000D01*
X141664048Y-91621704D01*
X141664048Y-91621704D01*
G37*
G36*
X114554000Y-93980000D02*
X113284000Y-93980000D01*
X113284000Y-91440000D01*
X114554000Y-91440000D01*
X114554000Y-93980000D01*
X114554000Y-93980000D01*
G37*
G36*
X91694000Y-93980000D02*
X90424000Y-93980000D01*
X90424000Y-91440000D01*
X91694000Y-91440000D01*
X91694000Y-93980000D01*
X91694000Y-93980000D01*
G37*
G36*
X88646000Y-93980000D02*
X87376000Y-93980000D01*
X87376000Y-91440000D01*
X88646000Y-91440000D01*
X88646000Y-93980000D01*
X88646000Y-93980000D01*
G37*
G36*
X96266000Y-93980000D02*
X94996000Y-93980000D01*
X94996000Y-91440000D01*
X96266000Y-91440000D01*
X96266000Y-93980000D01*
X96266000Y-93980000D01*
G37*
G36*
X111506000Y-93980000D02*
X110236000Y-93980000D01*
X110236000Y-91440000D01*
X111506000Y-91440000D01*
X111506000Y-93980000D01*
X111506000Y-93980000D01*
G37*
G36*
X99314000Y-93980000D02*
X98044000Y-93980000D01*
X98044000Y-91440000D01*
X99314000Y-91440000D01*
X99314000Y-93980000D01*
X99314000Y-93980000D01*
G37*
G36*
X103886000Y-93980000D02*
X102616000Y-93980000D01*
X102616000Y-91440000D01*
X103886000Y-91440000D01*
X103886000Y-93980000D01*
X103886000Y-93980000D01*
G37*
G36*
X106934000Y-93980000D02*
X105664000Y-93980000D01*
X105664000Y-91440000D01*
X106934000Y-91440000D01*
X106934000Y-93980000D01*
X106934000Y-93980000D01*
G37*
G36*
X129545000Y-93715000D02*
X127405000Y-93715000D01*
X127405000Y-92975000D01*
X129545000Y-92975000D01*
X129545000Y-93715000D01*
X129545000Y-93715000D01*
G37*
G36*
X120245000Y-93715000D02*
X118105000Y-93715000D01*
X118105000Y-92975000D01*
X120245000Y-92975000D01*
X120245000Y-93715000D01*
X120245000Y-93715000D01*
G37*
G36*
X132408743Y-91951675D02*
X132483378Y-91959026D01*
X132579136Y-91988074D01*
X132627016Y-92002598D01*
X132675299Y-92028406D01*
X132759392Y-92073355D01*
X132875422Y-92168578D01*
X132970645Y-92284608D01*
X133015594Y-92368701D01*
X133041402Y-92416984D01*
X133041402Y-92416985D01*
X133084974Y-92560622D01*
X133099686Y-92710000D01*
X133084974Y-92859378D01*
X133071736Y-92903016D01*
X133041402Y-93003016D01*
X133015594Y-93051299D01*
X132970645Y-93135392D01*
X132875422Y-93251422D01*
X132759392Y-93346645D01*
X132675299Y-93391594D01*
X132627016Y-93417402D01*
X132579136Y-93431926D01*
X132483378Y-93460974D01*
X132408743Y-93468325D01*
X132371427Y-93472000D01*
X131788573Y-93472000D01*
X131751257Y-93468325D01*
X131676622Y-93460974D01*
X131580864Y-93431926D01*
X131532984Y-93417402D01*
X131484701Y-93391594D01*
X131400608Y-93346645D01*
X131284578Y-93251422D01*
X131189355Y-93135392D01*
X131144406Y-93051299D01*
X131118598Y-93003016D01*
X131088264Y-92903016D01*
X131075026Y-92859378D01*
X131060314Y-92710000D01*
X131075026Y-92560622D01*
X131118598Y-92416985D01*
X131118598Y-92416984D01*
X131144406Y-92368701D01*
X131189355Y-92284608D01*
X131284578Y-92168578D01*
X131400608Y-92073355D01*
X131484701Y-92028406D01*
X131532984Y-92002598D01*
X131580864Y-91988074D01*
X131676622Y-91959026D01*
X131751257Y-91951675D01*
X131788573Y-91948000D01*
X132371427Y-91948000D01*
X132408743Y-91951675D01*
X132408743Y-91951675D01*
G37*
G36*
X137488743Y-91951675D02*
X137563378Y-91959026D01*
X137659136Y-91988074D01*
X137707016Y-92002598D01*
X137755299Y-92028406D01*
X137839392Y-92073355D01*
X137955422Y-92168578D01*
X138050645Y-92284608D01*
X138095594Y-92368701D01*
X138121402Y-92416984D01*
X138121402Y-92416985D01*
X138164974Y-92560622D01*
X138179686Y-92710000D01*
X138164974Y-92859378D01*
X138151736Y-92903016D01*
X138121402Y-93003016D01*
X138095594Y-93051299D01*
X138050645Y-93135392D01*
X137955422Y-93251422D01*
X137839392Y-93346645D01*
X137755299Y-93391594D01*
X137707016Y-93417402D01*
X137659136Y-93431926D01*
X137563378Y-93460974D01*
X137488743Y-93468325D01*
X137451427Y-93472000D01*
X136868573Y-93472000D01*
X136831257Y-93468325D01*
X136756622Y-93460974D01*
X136660864Y-93431926D01*
X136612984Y-93417402D01*
X136564701Y-93391594D01*
X136480608Y-93346645D01*
X136364578Y-93251422D01*
X136269355Y-93135392D01*
X136224406Y-93051299D01*
X136198598Y-93003016D01*
X136168264Y-92903016D01*
X136155026Y-92859378D01*
X136140314Y-92710000D01*
X136155026Y-92560622D01*
X136198598Y-92416985D01*
X136198598Y-92416984D01*
X136224406Y-92368701D01*
X136269355Y-92284608D01*
X136364578Y-92168578D01*
X136480608Y-92073355D01*
X136564701Y-92028406D01*
X136612984Y-92002598D01*
X136660864Y-91988074D01*
X136756622Y-91959026D01*
X136831257Y-91951675D01*
X136868573Y-91948000D01*
X137451427Y-91948000D01*
X137488743Y-91951675D01*
X137488743Y-91951675D01*
G37*
G36*
X120245000Y-92445000D02*
X118105000Y-92445000D01*
X118105000Y-91705000D01*
X120245000Y-91705000D01*
X120245000Y-92445000D01*
X120245000Y-92445000D01*
G37*
G36*
X129545000Y-92445000D02*
X127405000Y-92445000D01*
X127405000Y-91705000D01*
X129545000Y-91705000D01*
X129545000Y-92445000D01*
X129545000Y-92445000D01*
G37*
G36*
X137488743Y-89411675D02*
X137563378Y-89419026D01*
X137659136Y-89448074D01*
X137707016Y-89462598D01*
X137733589Y-89476802D01*
X137839392Y-89533355D01*
X137955422Y-89628578D01*
X138050645Y-89744608D01*
X138095594Y-89828701D01*
X138121402Y-89876984D01*
X138121402Y-89876985D01*
X138164974Y-90020622D01*
X138179686Y-90170000D01*
X138164974Y-90319378D01*
X138147101Y-90378296D01*
X138121402Y-90463016D01*
X138095594Y-90511299D01*
X138050645Y-90595392D01*
X137955422Y-90711422D01*
X137839392Y-90806645D01*
X137755299Y-90851594D01*
X137707016Y-90877402D01*
X137659136Y-90891926D01*
X137563378Y-90920974D01*
X137488743Y-90928325D01*
X137451427Y-90932000D01*
X136868573Y-90932000D01*
X136831257Y-90928325D01*
X136756622Y-90920974D01*
X136660864Y-90891926D01*
X136612984Y-90877402D01*
X136564701Y-90851594D01*
X136480608Y-90806645D01*
X136364578Y-90711422D01*
X136269355Y-90595392D01*
X136224406Y-90511299D01*
X136198598Y-90463016D01*
X136172899Y-90378296D01*
X136155026Y-90319378D01*
X136140314Y-90170000D01*
X136155026Y-90020622D01*
X136198598Y-89876985D01*
X136198598Y-89876984D01*
X136224406Y-89828701D01*
X136269355Y-89744608D01*
X136364578Y-89628578D01*
X136480608Y-89533355D01*
X136586411Y-89476802D01*
X136612984Y-89462598D01*
X136660864Y-89448074D01*
X136756622Y-89419026D01*
X136831257Y-89411675D01*
X136868573Y-89408000D01*
X137451427Y-89408000D01*
X137488743Y-89411675D01*
X137488743Y-89411675D01*
G37*
G36*
X132408743Y-89411675D02*
X132483378Y-89419026D01*
X132579136Y-89448074D01*
X132627016Y-89462598D01*
X132653589Y-89476802D01*
X132759392Y-89533355D01*
X132875422Y-89628578D01*
X132970645Y-89744608D01*
X133015594Y-89828701D01*
X133041402Y-89876984D01*
X133041402Y-89876985D01*
X133084974Y-90020622D01*
X133099686Y-90170000D01*
X133084974Y-90319378D01*
X133067101Y-90378296D01*
X133041402Y-90463016D01*
X133015594Y-90511299D01*
X132970645Y-90595392D01*
X132875422Y-90711422D01*
X132759392Y-90806645D01*
X132675299Y-90851594D01*
X132627016Y-90877402D01*
X132579136Y-90891926D01*
X132483378Y-90920974D01*
X132408743Y-90928325D01*
X132371427Y-90932000D01*
X131788573Y-90932000D01*
X131751257Y-90928325D01*
X131676622Y-90920974D01*
X131580864Y-90891926D01*
X131532984Y-90877402D01*
X131484701Y-90851594D01*
X131400608Y-90806645D01*
X131284578Y-90711422D01*
X131189355Y-90595392D01*
X131144406Y-90511299D01*
X131118598Y-90463016D01*
X131092899Y-90378296D01*
X131075026Y-90319378D01*
X131060314Y-90170000D01*
X131075026Y-90020622D01*
X131118598Y-89876985D01*
X131118598Y-89876984D01*
X131144406Y-89828701D01*
X131189355Y-89744608D01*
X131284578Y-89628578D01*
X131400608Y-89533355D01*
X131506411Y-89476802D01*
X131532984Y-89462598D01*
X131580864Y-89448074D01*
X131676622Y-89419026D01*
X131751257Y-89411675D01*
X131788573Y-89408000D01*
X132371427Y-89408000D01*
X132408743Y-89411675D01*
X132408743Y-89411675D01*
G37*
G36*
X102895000Y-90635000D02*
X102095000Y-90635000D01*
X102095000Y-88435000D01*
X102895000Y-88435000D01*
X102895000Y-90635000D01*
X102895000Y-90635000D01*
G37*
G36*
X95275000Y-90635000D02*
X94475000Y-90635000D01*
X94475000Y-88435000D01*
X95275000Y-88435000D01*
X95275000Y-90635000D01*
X95275000Y-90635000D01*
G37*
G36*
X104035000Y-90635000D02*
X103235000Y-90635000D01*
X103235000Y-88435000D01*
X104035000Y-88435000D01*
X104035000Y-90635000D01*
X104035000Y-90635000D01*
G37*
G36*
X106315000Y-90635000D02*
X105515000Y-90635000D01*
X105515000Y-88435000D01*
X106315000Y-88435000D01*
X106315000Y-90635000D01*
X106315000Y-90635000D01*
G37*
G36*
X107455000Y-90635000D02*
X106655000Y-90635000D01*
X106655000Y-88435000D01*
X107455000Y-88435000D01*
X107455000Y-90635000D01*
X107455000Y-90635000D01*
G37*
G36*
X98695000Y-90635000D02*
X97895000Y-90635000D01*
X97895000Y-88435000D01*
X98695000Y-88435000D01*
X98695000Y-90635000D01*
X98695000Y-90635000D01*
G37*
G36*
X110515000Y-90635000D02*
X109715000Y-90635000D01*
X109715000Y-88435000D01*
X110515000Y-88435000D01*
X110515000Y-90635000D01*
X110515000Y-90635000D01*
G37*
G36*
X111655000Y-90635000D02*
X110855000Y-90635000D01*
X110855000Y-88435000D01*
X111655000Y-88435000D01*
X111655000Y-90635000D01*
X111655000Y-90635000D01*
G37*
G36*
X113935000Y-90635000D02*
X113135000Y-90635000D01*
X113135000Y-88435000D01*
X113935000Y-88435000D01*
X113935000Y-90635000D01*
X113935000Y-90635000D01*
G37*
G36*
X115075000Y-90635000D02*
X114275000Y-90635000D01*
X114275000Y-88435000D01*
X115075000Y-88435000D01*
X115075000Y-90635000D01*
X115075000Y-90635000D01*
G37*
G36*
X92215000Y-90635000D02*
X91415000Y-90635000D01*
X91415000Y-88435000D01*
X92215000Y-88435000D01*
X92215000Y-90635000D01*
X92215000Y-90635000D01*
G37*
G36*
X91075000Y-90635000D02*
X90275000Y-90635000D01*
X90275000Y-88435000D01*
X91075000Y-88435000D01*
X91075000Y-90635000D01*
X91075000Y-90635000D01*
G37*
G36*
X88795000Y-90635000D02*
X87995000Y-90635000D01*
X87995000Y-88435000D01*
X88795000Y-88435000D01*
X88795000Y-90635000D01*
X88795000Y-90635000D01*
G37*
G36*
X99835000Y-90635000D02*
X99035000Y-90635000D01*
X99035000Y-88435000D01*
X99835000Y-88435000D01*
X99835000Y-90635000D01*
X99835000Y-90635000D01*
G37*
G36*
X87655000Y-90635000D02*
X86855000Y-90635000D01*
X86855000Y-88435000D01*
X87655000Y-88435000D01*
X87655000Y-90635000D01*
X87655000Y-90635000D01*
G37*
G36*
X96415000Y-90635000D02*
X95615000Y-90635000D01*
X95615000Y-88435000D01*
X96415000Y-88435000D01*
X96415000Y-90635000D01*
X96415000Y-90635000D01*
G37*
G36*
X147164048Y-87421704D02*
X147164051Y-87421705D01*
X147446802Y-87507476D01*
X147446804Y-87507477D01*
X147707389Y-87646763D01*
X147935792Y-87834208D01*
X148123237Y-88062611D01*
X148123238Y-88062613D01*
X148262524Y-88323198D01*
X148332329Y-88553315D01*
X148348296Y-88605952D01*
X148377257Y-88900000D01*
X148348296Y-89194048D01*
X148348295Y-89194051D01*
X148266833Y-89462598D01*
X148262523Y-89476804D01*
X148123237Y-89737389D01*
X147935792Y-89965792D01*
X147707389Y-90153237D01*
X147707387Y-90153238D01*
X147446802Y-90292524D01*
X147216685Y-90362329D01*
X147164048Y-90378296D01*
X146943684Y-90400000D01*
X145796316Y-90400000D01*
X145575952Y-90378296D01*
X145523315Y-90362329D01*
X145293198Y-90292524D01*
X145032613Y-90153238D01*
X145032611Y-90153237D01*
X144804208Y-89965792D01*
X144616763Y-89737389D01*
X144477477Y-89476804D01*
X144473168Y-89462598D01*
X144391705Y-89194051D01*
X144391704Y-89194048D01*
X144362743Y-88900000D01*
X144391704Y-88605952D01*
X144407671Y-88553315D01*
X144477476Y-88323198D01*
X144616762Y-88062613D01*
X144616763Y-88062611D01*
X144804208Y-87834208D01*
X145032611Y-87646763D01*
X145293196Y-87507477D01*
X145293198Y-87507476D01*
X145575949Y-87421705D01*
X145575952Y-87421704D01*
X145796316Y-87400000D01*
X146943684Y-87400000D01*
X147164048Y-87421704D01*
X147164048Y-87421704D01*
G37*
G36*
X141664048Y-87421704D02*
X141664051Y-87421705D01*
X141946802Y-87507476D01*
X141946804Y-87507477D01*
X142207389Y-87646763D01*
X142435792Y-87834208D01*
X142623237Y-88062611D01*
X142623238Y-88062613D01*
X142762524Y-88323198D01*
X142832329Y-88553315D01*
X142848296Y-88605952D01*
X142877257Y-88900000D01*
X142848296Y-89194048D01*
X142848295Y-89194051D01*
X142766833Y-89462598D01*
X142762523Y-89476804D01*
X142623237Y-89737389D01*
X142435792Y-89965792D01*
X142207389Y-90153237D01*
X142207387Y-90153238D01*
X141946802Y-90292524D01*
X141716685Y-90362329D01*
X141664048Y-90378296D01*
X141443684Y-90400000D01*
X140296316Y-90400000D01*
X140075952Y-90378296D01*
X140023315Y-90362329D01*
X139793198Y-90292524D01*
X139532613Y-90153238D01*
X139532611Y-90153237D01*
X139304208Y-89965792D01*
X139116763Y-89737389D01*
X138977477Y-89476804D01*
X138973168Y-89462598D01*
X138891705Y-89194051D01*
X138891704Y-89194048D01*
X138862743Y-88900000D01*
X138891704Y-88605952D01*
X138907671Y-88553315D01*
X138977476Y-88323198D01*
X139116762Y-88062613D01*
X139116763Y-88062611D01*
X139304208Y-87834208D01*
X139532611Y-87646763D01*
X139793196Y-87507477D01*
X139793198Y-87507476D01*
X140075949Y-87421705D01*
X140075952Y-87421704D01*
X140296316Y-87400000D01*
X141443684Y-87400000D01*
X141664048Y-87421704D01*
X141664048Y-87421704D01*
G37*
G36*
X129159000Y-90170000D02*
X127889000Y-90170000D01*
X127889000Y-87630000D01*
X129159000Y-87630000D01*
X129159000Y-90170000D01*
X129159000Y-90170000D01*
G37*
G36*
X126111000Y-90170000D02*
X124841000Y-90170000D01*
X124841000Y-87630000D01*
X126111000Y-87630000D01*
X126111000Y-90170000D01*
X126111000Y-90170000D01*
G37*
G36*
X119761000Y-90170000D02*
X118491000Y-90170000D01*
X118491000Y-87630000D01*
X119761000Y-87630000D01*
X119761000Y-90170000D01*
X119761000Y-90170000D01*
G37*
G36*
X122809000Y-90170000D02*
X121539000Y-90170000D01*
X121539000Y-87630000D01*
X122809000Y-87630000D01*
X122809000Y-90170000D01*
X122809000Y-90170000D01*
G37*
G36*
X132408743Y-86871675D02*
X132483378Y-86879026D01*
X132579136Y-86908074D01*
X132627016Y-86922598D01*
X132675299Y-86948406D01*
X132759392Y-86993355D01*
X132875422Y-87088578D01*
X132970645Y-87204608D01*
X133015594Y-87288701D01*
X133041402Y-87336984D01*
X133041402Y-87336985D01*
X133084974Y-87480622D01*
X133099686Y-87630000D01*
X133084974Y-87779378D01*
X133068341Y-87834208D01*
X133041402Y-87923016D01*
X133015594Y-87971299D01*
X132970645Y-88055392D01*
X132875422Y-88171422D01*
X132759392Y-88266645D01*
X132675299Y-88311594D01*
X132627016Y-88337402D01*
X132579136Y-88351926D01*
X132483378Y-88380974D01*
X132408743Y-88388325D01*
X132371427Y-88392000D01*
X131788573Y-88392000D01*
X131751257Y-88388325D01*
X131676622Y-88380974D01*
X131580864Y-88351926D01*
X131532984Y-88337402D01*
X131484701Y-88311594D01*
X131400608Y-88266645D01*
X131284578Y-88171422D01*
X131189355Y-88055392D01*
X131144406Y-87971299D01*
X131118598Y-87923016D01*
X131091659Y-87834208D01*
X131075026Y-87779378D01*
X131060314Y-87630000D01*
X131075026Y-87480622D01*
X131118598Y-87336985D01*
X131118598Y-87336984D01*
X131144406Y-87288701D01*
X131189355Y-87204608D01*
X131284578Y-87088578D01*
X131400608Y-86993355D01*
X131484701Y-86948406D01*
X131532984Y-86922598D01*
X131580864Y-86908074D01*
X131676622Y-86879026D01*
X131751257Y-86871675D01*
X131788573Y-86868000D01*
X132371427Y-86868000D01*
X132408743Y-86871675D01*
X132408743Y-86871675D01*
G37*
G36*
X137488743Y-86871675D02*
X137563378Y-86879026D01*
X137659136Y-86908074D01*
X137707016Y-86922598D01*
X137755299Y-86948406D01*
X137839392Y-86993355D01*
X137955422Y-87088578D01*
X138050645Y-87204608D01*
X138095594Y-87288701D01*
X138121402Y-87336984D01*
X138121402Y-87336985D01*
X138164974Y-87480622D01*
X138179686Y-87630000D01*
X138164974Y-87779378D01*
X138148341Y-87834208D01*
X138121402Y-87923016D01*
X138095594Y-87971299D01*
X138050645Y-88055392D01*
X137955422Y-88171422D01*
X137839392Y-88266645D01*
X137755299Y-88311594D01*
X137707016Y-88337402D01*
X137659136Y-88351926D01*
X137563378Y-88380974D01*
X137488743Y-88388325D01*
X137451427Y-88392000D01*
X136868573Y-88392000D01*
X136831257Y-88388325D01*
X136756622Y-88380974D01*
X136660864Y-88351926D01*
X136612984Y-88337402D01*
X136564701Y-88311594D01*
X136480608Y-88266645D01*
X136364578Y-88171422D01*
X136269355Y-88055392D01*
X136224406Y-87971299D01*
X136198598Y-87923016D01*
X136171659Y-87834208D01*
X136155026Y-87779378D01*
X136140314Y-87630000D01*
X136155026Y-87480622D01*
X136198598Y-87336985D01*
X136198598Y-87336984D01*
X136224406Y-87288701D01*
X136269355Y-87204608D01*
X136364578Y-87088578D01*
X136480608Y-86993355D01*
X136564701Y-86948406D01*
X136612984Y-86922598D01*
X136660864Y-86908074D01*
X136756622Y-86879026D01*
X136831257Y-86871675D01*
X136868573Y-86868000D01*
X137451427Y-86868000D01*
X137488743Y-86871675D01*
X137488743Y-86871675D01*
G37*
G36*
X154253378Y-82776859D02*
X154617354Y-82927622D01*
X154944929Y-83146501D01*
X155223499Y-83425071D01*
X155442378Y-83752646D01*
X155593141Y-84116622D01*
X155670000Y-84503016D01*
X155670000Y-84896984D01*
X155593141Y-85283378D01*
X155442378Y-85647354D01*
X155223499Y-85974929D01*
X154944929Y-86253499D01*
X154617354Y-86472378D01*
X154253378Y-86623141D01*
X153866984Y-86700000D01*
X153473016Y-86700000D01*
X153086622Y-86623141D01*
X152722646Y-86472378D01*
X152395071Y-86253499D01*
X152116501Y-85974929D01*
X151897622Y-85647354D01*
X151746859Y-85283378D01*
X151670000Y-84896984D01*
X151670000Y-84503016D01*
X151746859Y-84116622D01*
X151897622Y-83752646D01*
X152116501Y-83425071D01*
X152395071Y-83146501D01*
X152722646Y-82927622D01*
X153086622Y-82776859D01*
X153473016Y-82700000D01*
X153866984Y-82700000D01*
X154253378Y-82776859D01*
X154253378Y-82776859D01*
G37*
G36*
X100055000Y-86435000D02*
X94255000Y-86435000D01*
X94255000Y-80035000D01*
X100055000Y-80035000D01*
X100055000Y-86435000D01*
X100055000Y-86435000D01*
G37*
G36*
X115295000Y-86435000D02*
X109495000Y-86435000D01*
X109495000Y-80035000D01*
X115295000Y-80035000D01*
X115295000Y-86435000D01*
X115295000Y-86435000D01*
G37*
G36*
X107675000Y-86435000D02*
X101875000Y-86435000D01*
X101875000Y-80035000D01*
X107675000Y-80035000D01*
X107675000Y-86435000D01*
X107675000Y-86435000D01*
G37*
G36*
X92435000Y-86435000D02*
X86635000Y-86435000D01*
X86635000Y-80035000D01*
X92435000Y-80035000D01*
X92435000Y-86435000D01*
X92435000Y-86435000D01*
G37*
G36*
X148370000Y-86200000D02*
X144370000Y-86200000D01*
X144370000Y-83200000D01*
X148370000Y-83200000D01*
X148370000Y-86200000D01*
X148370000Y-86200000D01*
G37*
G36*
X141664048Y-83221704D02*
X141664051Y-83221705D01*
X141946802Y-83307476D01*
X141946804Y-83307477D01*
X142207389Y-83446763D01*
X142435792Y-83634208D01*
X142623237Y-83862611D01*
X142762523Y-84123196D01*
X142848296Y-84405952D01*
X142877257Y-84700000D01*
X142848296Y-84994048D01*
X142762523Y-85276804D01*
X142623237Y-85537389D01*
X142435792Y-85765792D01*
X142207389Y-85953237D01*
X142207387Y-85953238D01*
X141946802Y-86092524D01*
X141716685Y-86162329D01*
X141664048Y-86178296D01*
X141443684Y-86200000D01*
X140296316Y-86200000D01*
X140075952Y-86178296D01*
X140023315Y-86162329D01*
X139793198Y-86092524D01*
X139532613Y-85953238D01*
X139532611Y-85953237D01*
X139304208Y-85765792D01*
X139116763Y-85537389D01*
X138977477Y-85276804D01*
X138891704Y-84994048D01*
X138862743Y-84700000D01*
X138891704Y-84405952D01*
X138977477Y-84123196D01*
X139116763Y-83862611D01*
X139304208Y-83634208D01*
X139532611Y-83446763D01*
X139793196Y-83307477D01*
X139793198Y-83307476D01*
X140075949Y-83221705D01*
X140075952Y-83221704D01*
X140296316Y-83200000D01*
X141443684Y-83200000D01*
X141664048Y-83221704D01*
X141664048Y-83221704D01*
G37*
G36*
X129545000Y-86095000D02*
X127405000Y-86095000D01*
X127405000Y-85355000D01*
X129545000Y-85355000D01*
X129545000Y-86095000D01*
X129545000Y-86095000D01*
G37*
G36*
X120245000Y-86095000D02*
X118105000Y-86095000D01*
X118105000Y-85355000D01*
X120245000Y-85355000D01*
X120245000Y-86095000D01*
X120245000Y-86095000D01*
G37*
G36*
X137488743Y-84331675D02*
X137563378Y-84339026D01*
X137659136Y-84368074D01*
X137707016Y-84382598D01*
X137750702Y-84405949D01*
X137839392Y-84453355D01*
X137955422Y-84548578D01*
X138050645Y-84664608D01*
X138069562Y-84700000D01*
X138121402Y-84796984D01*
X138121402Y-84796985D01*
X138164974Y-84940622D01*
X138179686Y-85090000D01*
X138164974Y-85239378D01*
X138135926Y-85335136D01*
X138121402Y-85383016D01*
X138095594Y-85431299D01*
X138050645Y-85515392D01*
X137955422Y-85631422D01*
X137839392Y-85726645D01*
X137766153Y-85765792D01*
X137707016Y-85797402D01*
X137659136Y-85811926D01*
X137563378Y-85840974D01*
X137488743Y-85848325D01*
X137451427Y-85852000D01*
X136868573Y-85852000D01*
X136831257Y-85848325D01*
X136756622Y-85840974D01*
X136660864Y-85811926D01*
X136612984Y-85797402D01*
X136553847Y-85765792D01*
X136480608Y-85726645D01*
X136364578Y-85631422D01*
X136269355Y-85515392D01*
X136224406Y-85431299D01*
X136198598Y-85383016D01*
X136184074Y-85335136D01*
X136155026Y-85239378D01*
X136140314Y-85090000D01*
X136155026Y-84940622D01*
X136198598Y-84796985D01*
X136198598Y-84796984D01*
X136250438Y-84700000D01*
X136269355Y-84664608D01*
X136364578Y-84548578D01*
X136480608Y-84453355D01*
X136569298Y-84405949D01*
X136612984Y-84382598D01*
X136660864Y-84368074D01*
X136756622Y-84339026D01*
X136831257Y-84331675D01*
X136868573Y-84328000D01*
X137451427Y-84328000D01*
X137488743Y-84331675D01*
X137488743Y-84331675D01*
G37*
G36*
X132408743Y-84331675D02*
X132483378Y-84339026D01*
X132579136Y-84368074D01*
X132627016Y-84382598D01*
X132670702Y-84405949D01*
X132759392Y-84453355D01*
X132875422Y-84548578D01*
X132970645Y-84664608D01*
X132989562Y-84700000D01*
X133041402Y-84796984D01*
X133041402Y-84796985D01*
X133084974Y-84940622D01*
X133099686Y-85090000D01*
X133084974Y-85239378D01*
X133055926Y-85335136D01*
X133041402Y-85383016D01*
X133015594Y-85431299D01*
X132970645Y-85515392D01*
X132875422Y-85631422D01*
X132759392Y-85726645D01*
X132686153Y-85765792D01*
X132627016Y-85797402D01*
X132579136Y-85811926D01*
X132483378Y-85840974D01*
X132408743Y-85848325D01*
X132371427Y-85852000D01*
X131788573Y-85852000D01*
X131751257Y-85848325D01*
X131676622Y-85840974D01*
X131580864Y-85811926D01*
X131532984Y-85797402D01*
X131473847Y-85765792D01*
X131400608Y-85726645D01*
X131284578Y-85631422D01*
X131189355Y-85515392D01*
X131144406Y-85431299D01*
X131118598Y-85383016D01*
X131104074Y-85335136D01*
X131075026Y-85239378D01*
X131060314Y-85090000D01*
X131075026Y-84940622D01*
X131118598Y-84796985D01*
X131118598Y-84796984D01*
X131170438Y-84700000D01*
X131189355Y-84664608D01*
X131284578Y-84548578D01*
X131400608Y-84453355D01*
X131489298Y-84405949D01*
X131532984Y-84382598D01*
X131580864Y-84368074D01*
X131676622Y-84339026D01*
X131751257Y-84331675D01*
X131788573Y-84328000D01*
X132371427Y-84328000D01*
X132408743Y-84331675D01*
X132408743Y-84331675D01*
G37*
G36*
X120245000Y-84825000D02*
X118105000Y-84825000D01*
X118105000Y-84085000D01*
X120245000Y-84085000D01*
X120245000Y-84825000D01*
X120245000Y-84825000D01*
G37*
G36*
X129545000Y-84825000D02*
X127405000Y-84825000D01*
X127405000Y-84085000D01*
X129545000Y-84085000D01*
X129545000Y-84825000D01*
X129545000Y-84825000D01*
G37*
G36*
X120245000Y-83555000D02*
X118105000Y-83555000D01*
X118105000Y-82815000D01*
X120245000Y-82815000D01*
X120245000Y-83555000D01*
X120245000Y-83555000D01*
G37*
G36*
X129545000Y-83555000D02*
X127405000Y-83555000D01*
X127405000Y-82815000D01*
X129545000Y-82815000D01*
X129545000Y-83555000D01*
X129545000Y-83555000D01*
G37*
G36*
X137488743Y-81791675D02*
X137563378Y-81799026D01*
X137659136Y-81828074D01*
X137707016Y-81842598D01*
X137755299Y-81868406D01*
X137839392Y-81913355D01*
X137955422Y-82008578D01*
X138050645Y-82124608D01*
X138095594Y-82208701D01*
X138121402Y-82256984D01*
X138121402Y-82256985D01*
X138164974Y-82400622D01*
X138179686Y-82550000D01*
X138164974Y-82699378D01*
X138164785Y-82700000D01*
X138121402Y-82843016D01*
X138095594Y-82891299D01*
X138050645Y-82975392D01*
X137955422Y-83091422D01*
X137839392Y-83186645D01*
X137773801Y-83221704D01*
X137707016Y-83257402D01*
X137659136Y-83271926D01*
X137563378Y-83300974D01*
X137497360Y-83307476D01*
X137451427Y-83312000D01*
X136868573Y-83312000D01*
X136822640Y-83307476D01*
X136756622Y-83300974D01*
X136660864Y-83271926D01*
X136612984Y-83257402D01*
X136546199Y-83221704D01*
X136480608Y-83186645D01*
X136364578Y-83091422D01*
X136269355Y-82975392D01*
X136224406Y-82891299D01*
X136198598Y-82843016D01*
X136155215Y-82700000D01*
X136155026Y-82699378D01*
X136140314Y-82550000D01*
X136155026Y-82400622D01*
X136198598Y-82256985D01*
X136198598Y-82256984D01*
X136224406Y-82208701D01*
X136269355Y-82124608D01*
X136364578Y-82008578D01*
X136480608Y-81913355D01*
X136564701Y-81868406D01*
X136612984Y-81842598D01*
X136660864Y-81828074D01*
X136756622Y-81799026D01*
X136831257Y-81791675D01*
X136868573Y-81788000D01*
X137451427Y-81788000D01*
X137488743Y-81791675D01*
X137488743Y-81791675D01*
G37*
G36*
X132408743Y-81791675D02*
X132483378Y-81799026D01*
X132579136Y-81828074D01*
X132627016Y-81842598D01*
X132675299Y-81868406D01*
X132759392Y-81913355D01*
X132875422Y-82008578D01*
X132970645Y-82124608D01*
X133015594Y-82208701D01*
X133041402Y-82256984D01*
X133041402Y-82256985D01*
X133084974Y-82400622D01*
X133099686Y-82550000D01*
X133084974Y-82699378D01*
X133084785Y-82700000D01*
X133041402Y-82843016D01*
X133015594Y-82891299D01*
X132970645Y-82975392D01*
X132875422Y-83091422D01*
X132759392Y-83186645D01*
X132693801Y-83221704D01*
X132627016Y-83257402D01*
X132579136Y-83271926D01*
X132483378Y-83300974D01*
X132417360Y-83307476D01*
X132371427Y-83312000D01*
X131788573Y-83312000D01*
X131742640Y-83307476D01*
X131676622Y-83300974D01*
X131580864Y-83271926D01*
X131532984Y-83257402D01*
X131466199Y-83221704D01*
X131400608Y-83186645D01*
X131284578Y-83091422D01*
X131189355Y-82975392D01*
X131144406Y-82891299D01*
X131118598Y-82843016D01*
X131075215Y-82700000D01*
X131075026Y-82699378D01*
X131060314Y-82550000D01*
X131075026Y-82400622D01*
X131118598Y-82256985D01*
X131118598Y-82256984D01*
X131144406Y-82208701D01*
X131189355Y-82124608D01*
X131284578Y-82008578D01*
X131400608Y-81913355D01*
X131484701Y-81868406D01*
X131532984Y-81842598D01*
X131580864Y-81828074D01*
X131676622Y-81799026D01*
X131751257Y-81791675D01*
X131788573Y-81788000D01*
X132371427Y-81788000D01*
X132408743Y-81791675D01*
X132408743Y-81791675D01*
G37*
G36*
X129545000Y-82285000D02*
X127405000Y-82285000D01*
X127405000Y-81545000D01*
X129545000Y-81545000D01*
X129545000Y-82285000D01*
X129545000Y-82285000D01*
G37*
G36*
X120245000Y-82285000D02*
X118105000Y-82285000D01*
X118105000Y-81545000D01*
X120245000Y-81545000D01*
X120245000Y-82285000D01*
X120245000Y-82285000D01*
G37*
G36*
X120245000Y-81015000D02*
X118105000Y-81015000D01*
X118105000Y-80275000D01*
X120245000Y-80275000D01*
X120245000Y-81015000D01*
X120245000Y-81015000D01*
G37*
G36*
X129545000Y-81015000D02*
X127405000Y-81015000D01*
X127405000Y-80275000D01*
X129545000Y-80275000D01*
X129545000Y-81015000D01*
X129545000Y-81015000D01*
G37*
G36*
X137488743Y-79251675D02*
X137563378Y-79259026D01*
X137659136Y-79288074D01*
X137707016Y-79302598D01*
X137755299Y-79328406D01*
X137839392Y-79373355D01*
X137955422Y-79468578D01*
X138050645Y-79584608D01*
X138095594Y-79668701D01*
X138121402Y-79716984D01*
X138121402Y-79716985D01*
X138164974Y-79860622D01*
X138179686Y-80010000D01*
X138164974Y-80159378D01*
X138135926Y-80255136D01*
X138121402Y-80303016D01*
X138095594Y-80351299D01*
X138050645Y-80435392D01*
X137955422Y-80551422D01*
X137839392Y-80646645D01*
X137755299Y-80691594D01*
X137707016Y-80717402D01*
X137659136Y-80731926D01*
X137563378Y-80760974D01*
X137488743Y-80768325D01*
X137451427Y-80772000D01*
X136868573Y-80772000D01*
X136831257Y-80768325D01*
X136756622Y-80760974D01*
X136660864Y-80731926D01*
X136612984Y-80717402D01*
X136564701Y-80691594D01*
X136480608Y-80646645D01*
X136364578Y-80551422D01*
X136269355Y-80435392D01*
X136224406Y-80351299D01*
X136198598Y-80303016D01*
X136184074Y-80255136D01*
X136155026Y-80159378D01*
X136140314Y-80010000D01*
X136155026Y-79860622D01*
X136198598Y-79716985D01*
X136198598Y-79716984D01*
X136224406Y-79668701D01*
X136269355Y-79584608D01*
X136364578Y-79468578D01*
X136480608Y-79373355D01*
X136564701Y-79328406D01*
X136612984Y-79302598D01*
X136660864Y-79288074D01*
X136756622Y-79259026D01*
X136831257Y-79251675D01*
X136868573Y-79248000D01*
X137451427Y-79248000D01*
X137488743Y-79251675D01*
X137488743Y-79251675D01*
G37*
G36*
X132408743Y-79251675D02*
X132483378Y-79259026D01*
X132579136Y-79288074D01*
X132627016Y-79302598D01*
X132675299Y-79328406D01*
X132759392Y-79373355D01*
X132875422Y-79468578D01*
X132970645Y-79584608D01*
X133015594Y-79668701D01*
X133041402Y-79716984D01*
X133041402Y-79716985D01*
X133084974Y-79860622D01*
X133099686Y-80010000D01*
X133084974Y-80159378D01*
X133055926Y-80255136D01*
X133041402Y-80303016D01*
X133015594Y-80351299D01*
X132970645Y-80435392D01*
X132875422Y-80551422D01*
X132759392Y-80646645D01*
X132675299Y-80691594D01*
X132627016Y-80717402D01*
X132579136Y-80731926D01*
X132483378Y-80760974D01*
X132408743Y-80768325D01*
X132371427Y-80772000D01*
X131788573Y-80772000D01*
X131751257Y-80768325D01*
X131676622Y-80760974D01*
X131580864Y-80731926D01*
X131532984Y-80717402D01*
X131484701Y-80691594D01*
X131400608Y-80646645D01*
X131284578Y-80551422D01*
X131189355Y-80435392D01*
X131144406Y-80351299D01*
X131118598Y-80303016D01*
X131104074Y-80255136D01*
X131075026Y-80159378D01*
X131060314Y-80010000D01*
X131075026Y-79860622D01*
X131118598Y-79716985D01*
X131118598Y-79716984D01*
X131144406Y-79668701D01*
X131189355Y-79584608D01*
X131284578Y-79468578D01*
X131400608Y-79373355D01*
X131484701Y-79328406D01*
X131532984Y-79302598D01*
X131580864Y-79288074D01*
X131676622Y-79259026D01*
X131751257Y-79251675D01*
X131788573Y-79248000D01*
X132371427Y-79248000D01*
X132408743Y-79251675D01*
X132408743Y-79251675D01*
G37*
G36*
X129545000Y-79745000D02*
X127405000Y-79745000D01*
X127405000Y-79005000D01*
X129545000Y-79005000D01*
X129545000Y-79745000D01*
X129545000Y-79745000D01*
G37*
G36*
X120245000Y-79745000D02*
X118105000Y-79745000D01*
X118105000Y-79005000D01*
X120245000Y-79005000D01*
X120245000Y-79745000D01*
X120245000Y-79745000D01*
G37*
G36*
X120245000Y-78475000D02*
X118105000Y-78475000D01*
X118105000Y-77735000D01*
X120245000Y-77735000D01*
X120245000Y-78475000D01*
X120245000Y-78475000D01*
G37*
G36*
X129545000Y-78475000D02*
X127405000Y-78475000D01*
X127405000Y-77735000D01*
X129545000Y-77735000D01*
X129545000Y-78475000D01*
X129545000Y-78475000D01*
G37*
G36*
X137488743Y-76711675D02*
X137563378Y-76719026D01*
X137659136Y-76748074D01*
X137707016Y-76762598D01*
X137755299Y-76788406D01*
X137839392Y-76833355D01*
X137955422Y-76928578D01*
X138050645Y-77044608D01*
X138080899Y-77101209D01*
X138121402Y-77176984D01*
X138121402Y-77176985D01*
X138164974Y-77320622D01*
X138179686Y-77470000D01*
X138164974Y-77619378D01*
X138135926Y-77715136D01*
X138121402Y-77763016D01*
X138114652Y-77775644D01*
X138050645Y-77895392D01*
X137955422Y-78011422D01*
X137839392Y-78106645D01*
X137755299Y-78151594D01*
X137707016Y-78177402D01*
X137659136Y-78191926D01*
X137563378Y-78220974D01*
X137488743Y-78228325D01*
X137451427Y-78232000D01*
X136868573Y-78232000D01*
X136831257Y-78228325D01*
X136756622Y-78220974D01*
X136660864Y-78191926D01*
X136612984Y-78177402D01*
X136564701Y-78151594D01*
X136480608Y-78106645D01*
X136364578Y-78011422D01*
X136269355Y-77895392D01*
X136205348Y-77775644D01*
X136198598Y-77763016D01*
X136184074Y-77715136D01*
X136155026Y-77619378D01*
X136140314Y-77470000D01*
X136155026Y-77320622D01*
X136198598Y-77176985D01*
X136198598Y-77176984D01*
X136239101Y-77101209D01*
X136269355Y-77044608D01*
X136364578Y-76928578D01*
X136480608Y-76833355D01*
X136564701Y-76788406D01*
X136612984Y-76762598D01*
X136660864Y-76748074D01*
X136756622Y-76719026D01*
X136831257Y-76711675D01*
X136868573Y-76708000D01*
X137451427Y-76708000D01*
X137488743Y-76711675D01*
X137488743Y-76711675D01*
G37*
G36*
X132408743Y-76711675D02*
X132483378Y-76719026D01*
X132579136Y-76748074D01*
X132627016Y-76762598D01*
X132675299Y-76788406D01*
X132759392Y-76833355D01*
X132875422Y-76928578D01*
X132970645Y-77044608D01*
X133000899Y-77101209D01*
X133041402Y-77176984D01*
X133041402Y-77176985D01*
X133084974Y-77320622D01*
X133099686Y-77470000D01*
X133084974Y-77619378D01*
X133055926Y-77715136D01*
X133041402Y-77763016D01*
X133034652Y-77775644D01*
X132970645Y-77895392D01*
X132875422Y-78011422D01*
X132759392Y-78106645D01*
X132675299Y-78151594D01*
X132627016Y-78177402D01*
X132579136Y-78191926D01*
X132483378Y-78220974D01*
X132408743Y-78228325D01*
X132371427Y-78232000D01*
X131788573Y-78232000D01*
X131751257Y-78228325D01*
X131676622Y-78220974D01*
X131580864Y-78191926D01*
X131532984Y-78177402D01*
X131484701Y-78151594D01*
X131400608Y-78106645D01*
X131284578Y-78011422D01*
X131189355Y-77895392D01*
X131125348Y-77775644D01*
X131118598Y-77763016D01*
X131104074Y-77715136D01*
X131075026Y-77619378D01*
X131060314Y-77470000D01*
X131075026Y-77320622D01*
X131118598Y-77176985D01*
X131118598Y-77176984D01*
X131159101Y-77101209D01*
X131189355Y-77044608D01*
X131284578Y-76928578D01*
X131400608Y-76833355D01*
X131484701Y-76788406D01*
X131532984Y-76762598D01*
X131580864Y-76748074D01*
X131676622Y-76719026D01*
X131751257Y-76711675D01*
X131788573Y-76708000D01*
X132371427Y-76708000D01*
X132408743Y-76711675D01*
X132408743Y-76711675D01*
G37*
G36*
X90053623Y-74490327D02*
X90377198Y-74624356D01*
X90668412Y-74818939D01*
X90916061Y-75066588D01*
X91110644Y-75357802D01*
X91244673Y-75681377D01*
X91313000Y-76024881D01*
X91313000Y-76375119D01*
X91244673Y-76718623D01*
X91110644Y-77042198D01*
X90916061Y-77333412D01*
X90668412Y-77581061D01*
X90377198Y-77775644D01*
X90053623Y-77909673D01*
X89710119Y-77978000D01*
X89359881Y-77978000D01*
X89016377Y-77909673D01*
X88692802Y-77775644D01*
X88401588Y-77581061D01*
X88153939Y-77333412D01*
X87959356Y-77042198D01*
X87825327Y-76718623D01*
X87757000Y-76375119D01*
X87757000Y-76024881D01*
X87825327Y-75681377D01*
X87959356Y-75357802D01*
X88153939Y-75066588D01*
X88401588Y-74818939D01*
X88692802Y-74624356D01*
X89016377Y-74490327D01*
X89359881Y-74422000D01*
X89710119Y-74422000D01*
X90053623Y-74490327D01*
X90053623Y-74490327D01*
G37*
G36*
X106335000Y-77565000D02*
X101175000Y-77565000D01*
X101175000Y-73565000D01*
X106335000Y-73565000D01*
X106335000Y-77565000D01*
X106335000Y-77565000D01*
G37*
G36*
X108375000Y-77530000D02*
X106735000Y-77530000D01*
X106735000Y-75730000D01*
X108375000Y-75730000D01*
X108375000Y-77530000D01*
X108375000Y-77530000D01*
G37*
G36*
X98312857Y-75342272D02*
X98513042Y-75425191D01*
X98693213Y-75545578D01*
X98846422Y-75698787D01*
X98966809Y-75878958D01*
X99049728Y-76079143D01*
X99092000Y-76291658D01*
X99092000Y-76508342D01*
X99049728Y-76720857D01*
X98966809Y-76921042D01*
X98966807Y-76921045D01*
X98884245Y-77044608D01*
X98846422Y-77101213D01*
X98693213Y-77254422D01*
X98513042Y-77374809D01*
X98312857Y-77457728D01*
X98100342Y-77500000D01*
X97883658Y-77500000D01*
X97671143Y-77457728D01*
X97470958Y-77374809D01*
X97290787Y-77254422D01*
X97137578Y-77101213D01*
X97099756Y-77044608D01*
X97017193Y-76921045D01*
X97017191Y-76921042D01*
X96934272Y-76720857D01*
X96892000Y-76508342D01*
X96892000Y-76291658D01*
X96934272Y-76079143D01*
X97017191Y-75878958D01*
X97137578Y-75698787D01*
X97290787Y-75545578D01*
X97470958Y-75425191D01*
X97671143Y-75342272D01*
X97883658Y-75300000D01*
X98100342Y-75300000D01*
X98312857Y-75342272D01*
X98312857Y-75342272D01*
G37*
G36*
X117108857Y-75342272D02*
X117309042Y-75425191D01*
X117489213Y-75545578D01*
X117642422Y-75698787D01*
X117762809Y-75878958D01*
X117845728Y-76079143D01*
X117888000Y-76291658D01*
X117888000Y-76340000D01*
X117890402Y-76364386D01*
X117897515Y-76387835D01*
X117909066Y-76409446D01*
X117924612Y-76428388D01*
X117943554Y-76443934D01*
X117965165Y-76455485D01*
X117988614Y-76462598D01*
X118013000Y-76465000D01*
X120245000Y-76465000D01*
X120245000Y-77205000D01*
X118105000Y-77205000D01*
X118105000Y-76686554D01*
X118102598Y-76662168D01*
X118095485Y-76638719D01*
X118083934Y-76617108D01*
X118068388Y-76598166D01*
X118049446Y-76582620D01*
X118027835Y-76571069D01*
X118004386Y-76563956D01*
X117980000Y-76561554D01*
X117955614Y-76563956D01*
X117932165Y-76571069D01*
X117910554Y-76582620D01*
X117891612Y-76598166D01*
X117876066Y-76617108D01*
X117864515Y-76638719D01*
X117857402Y-76662168D01*
X117845728Y-76720857D01*
X117762809Y-76921042D01*
X117762807Y-76921045D01*
X117680245Y-77044608D01*
X117642422Y-77101213D01*
X117489213Y-77254422D01*
X117309042Y-77374809D01*
X117108857Y-77457728D01*
X116896342Y-77500000D01*
X116679658Y-77500000D01*
X116467143Y-77457728D01*
X116266958Y-77374809D01*
X116086787Y-77254422D01*
X115933578Y-77101213D01*
X115895756Y-77044608D01*
X115813193Y-76921045D01*
X115813191Y-76921042D01*
X115730272Y-76720857D01*
X115688000Y-76508342D01*
X115688000Y-76291658D01*
X115730272Y-76079143D01*
X115813191Y-75878958D01*
X115933578Y-75698787D01*
X116086787Y-75545578D01*
X116266958Y-75425191D01*
X116467143Y-75342272D01*
X116679658Y-75300000D01*
X116896342Y-75300000D01*
X117108857Y-75342272D01*
X117108857Y-75342272D01*
G37*
G36*
X129545000Y-77205000D02*
X127405000Y-77205000D01*
X127405000Y-76465000D01*
X129545000Y-76465000D01*
X129545000Y-77205000D01*
X129545000Y-77205000D01*
G37*
G36*
X129545000Y-75935000D02*
X127405000Y-75935000D01*
X127405000Y-75195000D01*
X129545000Y-75195000D01*
X129545000Y-75935000D01*
X129545000Y-75935000D01*
G37*
G36*
X120245000Y-75935000D02*
X118105000Y-75935000D01*
X118105000Y-75195000D01*
X120245000Y-75195000D01*
X120245000Y-75935000D01*
X120245000Y-75935000D01*
G37*
G36*
X135001000Y-75565000D02*
X133731000Y-75565000D01*
X133731000Y-73025000D01*
X135001000Y-73025000D01*
X135001000Y-75565000D01*
X135001000Y-75565000D01*
G37*
G36*
X138049000Y-75565000D02*
X136779000Y-75565000D01*
X136779000Y-73025000D01*
X138049000Y-73025000D01*
X138049000Y-75565000D01*
X138049000Y-75565000D01*
G37*
G36*
X108375000Y-75400000D02*
X106735000Y-75400000D01*
X106735000Y-73600000D01*
X108375000Y-73600000D01*
X108375000Y-75400000D01*
X108375000Y-75400000D01*
G37*
G36*
X150009227Y-73418652D02*
X150150601Y-73461538D01*
X150280894Y-73531180D01*
X150395096Y-73624904D01*
X150488820Y-73739106D01*
X150558462Y-73869399D01*
X150601348Y-74010773D01*
X150615828Y-74157800D01*
X150601348Y-74304827D01*
X150558462Y-74446201D01*
X150488820Y-74576494D01*
X150395096Y-74690696D01*
X150280894Y-74784420D01*
X150150601Y-74854062D01*
X150009227Y-74896948D01*
X149899039Y-74907800D01*
X148825361Y-74907800D01*
X148715173Y-74896948D01*
X148573799Y-74854062D01*
X148443506Y-74784420D01*
X148329304Y-74690696D01*
X148235580Y-74576494D01*
X148165938Y-74446201D01*
X148123052Y-74304827D01*
X148108572Y-74157800D01*
X148123052Y-74010773D01*
X148165938Y-73869399D01*
X148235580Y-73739106D01*
X148329304Y-73624904D01*
X148443506Y-73531180D01*
X148573799Y-73461538D01*
X148715173Y-73418652D01*
X148825361Y-73407800D01*
X149899039Y-73407800D01*
X150009227Y-73418652D01*
X150009227Y-73418652D01*
G37*
G36*
X153544827Y-73418652D02*
X153686201Y-73461538D01*
X153816494Y-73531180D01*
X153930696Y-73624904D01*
X154024420Y-73739106D01*
X154094062Y-73869399D01*
X154136948Y-74010773D01*
X154151428Y-74157800D01*
X154136948Y-74304827D01*
X154094062Y-74446201D01*
X154024420Y-74576494D01*
X153930696Y-74690696D01*
X153816494Y-74784420D01*
X153686201Y-74854062D01*
X153544827Y-74896948D01*
X153434639Y-74907800D01*
X152360961Y-74907800D01*
X152250773Y-74896948D01*
X152109399Y-74854062D01*
X151979106Y-74784420D01*
X151864904Y-74690696D01*
X151771180Y-74576494D01*
X151701538Y-74446201D01*
X151658652Y-74304827D01*
X151644172Y-74157800D01*
X151658652Y-74010773D01*
X151701538Y-73869399D01*
X151771180Y-73739106D01*
X151864904Y-73624904D01*
X151979106Y-73531180D01*
X152109399Y-73461538D01*
X152250773Y-73418652D01*
X152360961Y-73407800D01*
X153434639Y-73407800D01*
X153544827Y-73418652D01*
X153544827Y-73418652D01*
G37*
G36*
X129545000Y-74665000D02*
X127405000Y-74665000D01*
X127405000Y-73925000D01*
X129545000Y-73925000D01*
X129545000Y-74665000D01*
X129545000Y-74665000D01*
G37*
G36*
X120245000Y-74665000D02*
X118105000Y-74665000D01*
X118105000Y-73925000D01*
X120245000Y-73925000D01*
X120245000Y-74665000D01*
X120245000Y-74665000D01*
G37*
G36*
X144470935Y-70928429D02*
X144567534Y-70947644D01*
X144840517Y-71060717D01*
X144981763Y-71155095D01*
X145086197Y-71224876D01*
X145295124Y-71433803D01*
X145295126Y-71433806D01*
X145459283Y-71679483D01*
X145572356Y-71952466D01*
X145577925Y-71980462D01*
X145630000Y-72242261D01*
X145630000Y-72537739D01*
X145572356Y-72827533D01*
X145459284Y-73100515D01*
X145295124Y-73346197D01*
X145086197Y-73555124D01*
X145086194Y-73555126D01*
X144840517Y-73719283D01*
X144567534Y-73832356D01*
X144470935Y-73851571D01*
X144277739Y-73890000D01*
X143982261Y-73890000D01*
X143789065Y-73851571D01*
X143692466Y-73832356D01*
X143419483Y-73719283D01*
X143173806Y-73555126D01*
X143173803Y-73555124D01*
X142964876Y-73346197D01*
X142800716Y-73100515D01*
X142687644Y-72827533D01*
X142630000Y-72537739D01*
X142630000Y-72242261D01*
X142682075Y-71980462D01*
X142687644Y-71952466D01*
X142800717Y-71679483D01*
X142964874Y-71433806D01*
X142964876Y-71433803D01*
X143173803Y-71224876D01*
X143278237Y-71155095D01*
X143419483Y-71060717D01*
X143692466Y-70947644D01*
X143789065Y-70928429D01*
X143982261Y-70890000D01*
X144277739Y-70890000D01*
X144470935Y-70928429D01*
X144470935Y-70928429D01*
G37*
G36*
X151777027Y-71650852D02*
X151918401Y-71693738D01*
X152048694Y-71763380D01*
X152162896Y-71857104D01*
X152256620Y-71971306D01*
X152326262Y-72101599D01*
X152369148Y-72242973D01*
X152383628Y-72390000D01*
X152369148Y-72537027D01*
X152326262Y-72678401D01*
X152256620Y-72808694D01*
X152162896Y-72922896D01*
X152048694Y-73016620D01*
X151918401Y-73086262D01*
X151777027Y-73129148D01*
X151666839Y-73140000D01*
X150593161Y-73140000D01*
X150482973Y-73129148D01*
X150341599Y-73086262D01*
X150211306Y-73016620D01*
X150097104Y-72922896D01*
X150003380Y-72808694D01*
X149933738Y-72678401D01*
X149890852Y-72537027D01*
X149876372Y-72390000D01*
X149890852Y-72242973D01*
X149933738Y-72101599D01*
X150003380Y-71971306D01*
X150097104Y-71857104D01*
X150211306Y-71763380D01*
X150341599Y-71693738D01*
X150482973Y-71650852D01*
X150593161Y-71640000D01*
X151666839Y-71640000D01*
X151777027Y-71650852D01*
X151777027Y-71650852D01*
G37*
G36*
X130693623Y-69410327D02*
X131017198Y-69544356D01*
X131308412Y-69738939D01*
X131556061Y-69986588D01*
X131750644Y-70277802D01*
X131884673Y-70601377D01*
X131953000Y-70944881D01*
X131953000Y-71295119D01*
X131884673Y-71638623D01*
X131750644Y-71962198D01*
X131556061Y-72253412D01*
X131308412Y-72501061D01*
X131017198Y-72695644D01*
X130693623Y-72829673D01*
X130350119Y-72898000D01*
X129999881Y-72898000D01*
X129656377Y-72829673D01*
X129332802Y-72695644D01*
X129041588Y-72501061D01*
X128793939Y-72253412D01*
X128599356Y-71962198D01*
X128465327Y-71638623D01*
X128397000Y-71295119D01*
X128397000Y-70944881D01*
X128465327Y-70601377D01*
X128599356Y-70277802D01*
X128793939Y-69986588D01*
X129041588Y-69738939D01*
X129332802Y-69544356D01*
X129656377Y-69410327D01*
X129999881Y-69342000D01*
X130350119Y-69342000D01*
X130693623Y-69410327D01*
X130693623Y-69410327D01*
G37*
G36*
X90986742Y-69863415D02*
X91161501Y-69916428D01*
X91161503Y-69916429D01*
X91161506Y-69916430D01*
X91322561Y-70002515D01*
X91428313Y-70089304D01*
X91463730Y-70118370D01*
X91579585Y-70259539D01*
X91665672Y-70420598D01*
X91718685Y-70595357D01*
X91732100Y-70731563D01*
X91732100Y-71508437D01*
X91718685Y-71644643D01*
X91685208Y-71755000D01*
X91665672Y-71819403D01*
X91645520Y-71857104D01*
X91579585Y-71980461D01*
X91463730Y-72121630D01*
X91322561Y-72237485D01*
X91161502Y-72323572D01*
X90986743Y-72376585D01*
X90805000Y-72394485D01*
X90623258Y-72376585D01*
X90448499Y-72323572D01*
X90287440Y-72237485D01*
X90146271Y-72121630D01*
X90030416Y-71980461D01*
X89944329Y-71819402D01*
X89944328Y-71819400D01*
X89891315Y-71644645D01*
X89877900Y-71508439D01*
X89877900Y-70731562D01*
X89883266Y-70677082D01*
X89891315Y-70595358D01*
X89944328Y-70420599D01*
X89944329Y-70420597D01*
X89944330Y-70420594D01*
X90030415Y-70259539D01*
X90146270Y-70118370D01*
X90181687Y-70089304D01*
X90287439Y-70002515D01*
X90448498Y-69916428D01*
X90623257Y-69863415D01*
X90805000Y-69845515D01*
X90986742Y-69863415D01*
X90986742Y-69863415D01*
G37*
G36*
X98606742Y-69863415D02*
X98781501Y-69916428D01*
X98781503Y-69916429D01*
X98781506Y-69916430D01*
X98942561Y-70002515D01*
X99048313Y-70089304D01*
X99083730Y-70118370D01*
X99199585Y-70259539D01*
X99285672Y-70420598D01*
X99338685Y-70595357D01*
X99352100Y-70731563D01*
X99352100Y-71508437D01*
X99338685Y-71644643D01*
X99305208Y-71755000D01*
X99285672Y-71819403D01*
X99265520Y-71857104D01*
X99199585Y-71980461D01*
X99083730Y-72121630D01*
X98942561Y-72237485D01*
X98781502Y-72323572D01*
X98606743Y-72376585D01*
X98425000Y-72394485D01*
X98243258Y-72376585D01*
X98068499Y-72323572D01*
X97907440Y-72237485D01*
X97766271Y-72121630D01*
X97650416Y-71980461D01*
X97564329Y-71819402D01*
X97564328Y-71819400D01*
X97511315Y-71644645D01*
X97497900Y-71508439D01*
X97497900Y-70731562D01*
X97503266Y-70677082D01*
X97511315Y-70595358D01*
X97564328Y-70420599D01*
X97564329Y-70420597D01*
X97564330Y-70420594D01*
X97650415Y-70259539D01*
X97766270Y-70118370D01*
X97801687Y-70089304D01*
X97907439Y-70002515D01*
X98068498Y-69916428D01*
X98243257Y-69863415D01*
X98425000Y-69845515D01*
X98606742Y-69863415D01*
X98606742Y-69863415D01*
G37*
G36*
X101146742Y-69863415D02*
X101321501Y-69916428D01*
X101321503Y-69916429D01*
X101321506Y-69916430D01*
X101482561Y-70002515D01*
X101588313Y-70089304D01*
X101623730Y-70118370D01*
X101739585Y-70259539D01*
X101825672Y-70420598D01*
X101878685Y-70595357D01*
X101892100Y-70731563D01*
X101892100Y-71508437D01*
X101878685Y-71644643D01*
X101845208Y-71755000D01*
X101825672Y-71819403D01*
X101805520Y-71857104D01*
X101739585Y-71980461D01*
X101623730Y-72121630D01*
X101482561Y-72237485D01*
X101321502Y-72323572D01*
X101146743Y-72376585D01*
X100965000Y-72394485D01*
X100783258Y-72376585D01*
X100608499Y-72323572D01*
X100447440Y-72237485D01*
X100306271Y-72121630D01*
X100190416Y-71980461D01*
X100104329Y-71819402D01*
X100104328Y-71819400D01*
X100051315Y-71644645D01*
X100037900Y-71508439D01*
X100037900Y-70731562D01*
X100043266Y-70677082D01*
X100051315Y-70595358D01*
X100104328Y-70420599D01*
X100104329Y-70420597D01*
X100104330Y-70420594D01*
X100190415Y-70259539D01*
X100306270Y-70118370D01*
X100341687Y-70089304D01*
X100447439Y-70002515D01*
X100608498Y-69916428D01*
X100783257Y-69863415D01*
X100965000Y-69845515D01*
X101146742Y-69863415D01*
X101146742Y-69863415D01*
G37*
G36*
X93526742Y-69863415D02*
X93701501Y-69916428D01*
X93701503Y-69916429D01*
X93701506Y-69916430D01*
X93862561Y-70002515D01*
X93968313Y-70089304D01*
X94003730Y-70118370D01*
X94119585Y-70259539D01*
X94205672Y-70420598D01*
X94258685Y-70595357D01*
X94272100Y-70731563D01*
X94272100Y-71508437D01*
X94258685Y-71644643D01*
X94225208Y-71755000D01*
X94205672Y-71819403D01*
X94185520Y-71857104D01*
X94119585Y-71980461D01*
X94003730Y-72121630D01*
X93862561Y-72237485D01*
X93701502Y-72323572D01*
X93526743Y-72376585D01*
X93345000Y-72394485D01*
X93163258Y-72376585D01*
X92988499Y-72323572D01*
X92827440Y-72237485D01*
X92686271Y-72121630D01*
X92570416Y-71980461D01*
X92484329Y-71819402D01*
X92484328Y-71819400D01*
X92431315Y-71644645D01*
X92417900Y-71508439D01*
X92417900Y-70731562D01*
X92423266Y-70677082D01*
X92431315Y-70595358D01*
X92484328Y-70420599D01*
X92484329Y-70420597D01*
X92484330Y-70420594D01*
X92570415Y-70259539D01*
X92686270Y-70118370D01*
X92721687Y-70089304D01*
X92827439Y-70002515D01*
X92988498Y-69916428D01*
X93163257Y-69863415D01*
X93345000Y-69845515D01*
X93526742Y-69863415D01*
X93526742Y-69863415D01*
G37*
G36*
X103686742Y-69863415D02*
X103861501Y-69916428D01*
X103861503Y-69916429D01*
X103861506Y-69916430D01*
X104022561Y-70002515D01*
X104128313Y-70089304D01*
X104163730Y-70118370D01*
X104279585Y-70259539D01*
X104365672Y-70420598D01*
X104418685Y-70595357D01*
X104432100Y-70731563D01*
X104432100Y-71508437D01*
X104418685Y-71644643D01*
X104385208Y-71755000D01*
X104365672Y-71819403D01*
X104345520Y-71857104D01*
X104279585Y-71980461D01*
X104163730Y-72121630D01*
X104022561Y-72237485D01*
X103861502Y-72323572D01*
X103686743Y-72376585D01*
X103505000Y-72394485D01*
X103323258Y-72376585D01*
X103148499Y-72323572D01*
X102987440Y-72237485D01*
X102846271Y-72121630D01*
X102730416Y-71980461D01*
X102644329Y-71819402D01*
X102644328Y-71819400D01*
X102591315Y-71644645D01*
X102577900Y-71508439D01*
X102577900Y-70731562D01*
X102583266Y-70677082D01*
X102591315Y-70595358D01*
X102644328Y-70420599D01*
X102644329Y-70420597D01*
X102644330Y-70420594D01*
X102730415Y-70259539D01*
X102846270Y-70118370D01*
X102881687Y-70089304D01*
X102987439Y-70002515D01*
X103148498Y-69916428D01*
X103323257Y-69863415D01*
X103505000Y-69845515D01*
X103686742Y-69863415D01*
X103686742Y-69863415D01*
G37*
G36*
X106226742Y-69863415D02*
X106401501Y-69916428D01*
X106401503Y-69916429D01*
X106401506Y-69916430D01*
X106562561Y-70002515D01*
X106668313Y-70089304D01*
X106703730Y-70118370D01*
X106819585Y-70259539D01*
X106905672Y-70420598D01*
X106958685Y-70595357D01*
X106972100Y-70731563D01*
X106972100Y-71508437D01*
X106958685Y-71644643D01*
X106925208Y-71755000D01*
X106905672Y-71819403D01*
X106885520Y-71857104D01*
X106819585Y-71980461D01*
X106703730Y-72121630D01*
X106562561Y-72237485D01*
X106401502Y-72323572D01*
X106226743Y-72376585D01*
X106045000Y-72394485D01*
X105863258Y-72376585D01*
X105688499Y-72323572D01*
X105527440Y-72237485D01*
X105386271Y-72121630D01*
X105270416Y-71980461D01*
X105184329Y-71819402D01*
X105184328Y-71819400D01*
X105131315Y-71644645D01*
X105117900Y-71508439D01*
X105117900Y-70731562D01*
X105123266Y-70677082D01*
X105131315Y-70595358D01*
X105184328Y-70420599D01*
X105184329Y-70420597D01*
X105184330Y-70420594D01*
X105270415Y-70259539D01*
X105386270Y-70118370D01*
X105421687Y-70089304D01*
X105527439Y-70002515D01*
X105688498Y-69916428D01*
X105863257Y-69863415D01*
X106045000Y-69845515D01*
X106226742Y-69863415D01*
X106226742Y-69863415D01*
G37*
G36*
X108766742Y-69863415D02*
X108941501Y-69916428D01*
X108941503Y-69916429D01*
X108941506Y-69916430D01*
X109102561Y-70002515D01*
X109208313Y-70089304D01*
X109243730Y-70118370D01*
X109359585Y-70259539D01*
X109445672Y-70420598D01*
X109498685Y-70595357D01*
X109512100Y-70731563D01*
X109512100Y-71508437D01*
X109498685Y-71644643D01*
X109465208Y-71755000D01*
X109445672Y-71819403D01*
X109425520Y-71857104D01*
X109359585Y-71980461D01*
X109243730Y-72121630D01*
X109102561Y-72237485D01*
X108941502Y-72323572D01*
X108766743Y-72376585D01*
X108585000Y-72394485D01*
X108403258Y-72376585D01*
X108228499Y-72323572D01*
X108067440Y-72237485D01*
X107926271Y-72121630D01*
X107810416Y-71980461D01*
X107724329Y-71819402D01*
X107724328Y-71819400D01*
X107671315Y-71644645D01*
X107657900Y-71508439D01*
X107657900Y-70731562D01*
X107663266Y-70677082D01*
X107671315Y-70595358D01*
X107724328Y-70420599D01*
X107724329Y-70420597D01*
X107724330Y-70420594D01*
X107810415Y-70259539D01*
X107926270Y-70118370D01*
X107961687Y-70089304D01*
X108067439Y-70002515D01*
X108228498Y-69916428D01*
X108403257Y-69863415D01*
X108585000Y-69845515D01*
X108766742Y-69863415D01*
X108766742Y-69863415D01*
G37*
G36*
X111306742Y-69863415D02*
X111481501Y-69916428D01*
X111481503Y-69916429D01*
X111481506Y-69916430D01*
X111642561Y-70002515D01*
X111748313Y-70089304D01*
X111783730Y-70118370D01*
X111899585Y-70259539D01*
X111985672Y-70420598D01*
X112038685Y-70595357D01*
X112052100Y-70731563D01*
X112052100Y-71508437D01*
X112038685Y-71644643D01*
X112005208Y-71755000D01*
X111985672Y-71819403D01*
X111965520Y-71857104D01*
X111899585Y-71980461D01*
X111783730Y-72121630D01*
X111642561Y-72237485D01*
X111481502Y-72323572D01*
X111306743Y-72376585D01*
X111125000Y-72394485D01*
X110943258Y-72376585D01*
X110768499Y-72323572D01*
X110607440Y-72237485D01*
X110466271Y-72121630D01*
X110350416Y-71980461D01*
X110264329Y-71819402D01*
X110264328Y-71819400D01*
X110211315Y-71644645D01*
X110197900Y-71508439D01*
X110197900Y-70731562D01*
X110203266Y-70677082D01*
X110211315Y-70595358D01*
X110264328Y-70420599D01*
X110264329Y-70420597D01*
X110264330Y-70420594D01*
X110350415Y-70259539D01*
X110466270Y-70118370D01*
X110501687Y-70089304D01*
X110607439Y-70002515D01*
X110768498Y-69916428D01*
X110943257Y-69863415D01*
X111125000Y-69845515D01*
X111306742Y-69863415D01*
X111306742Y-69863415D01*
G37*
G36*
X113846742Y-69863415D02*
X114021501Y-69916428D01*
X114021503Y-69916429D01*
X114021506Y-69916430D01*
X114182561Y-70002515D01*
X114288313Y-70089304D01*
X114323730Y-70118370D01*
X114439585Y-70259539D01*
X114525672Y-70420598D01*
X114578685Y-70595357D01*
X114592100Y-70731563D01*
X114592100Y-71508437D01*
X114578685Y-71644643D01*
X114545208Y-71755000D01*
X114525672Y-71819403D01*
X114505520Y-71857104D01*
X114439585Y-71980461D01*
X114323730Y-72121630D01*
X114182561Y-72237485D01*
X114021502Y-72323572D01*
X113846743Y-72376585D01*
X113665000Y-72394485D01*
X113483258Y-72376585D01*
X113308499Y-72323572D01*
X113147440Y-72237485D01*
X113006271Y-72121630D01*
X112890416Y-71980461D01*
X112804329Y-71819402D01*
X112804328Y-71819400D01*
X112751315Y-71644645D01*
X112737900Y-71508439D01*
X112737900Y-70731562D01*
X112743266Y-70677082D01*
X112751315Y-70595358D01*
X112804328Y-70420599D01*
X112804329Y-70420597D01*
X112804330Y-70420594D01*
X112890415Y-70259539D01*
X113006270Y-70118370D01*
X113041687Y-70089304D01*
X113147439Y-70002515D01*
X113308498Y-69916428D01*
X113483257Y-69863415D01*
X113665000Y-69845515D01*
X113846742Y-69863415D01*
X113846742Y-69863415D01*
G37*
G36*
X96066742Y-69863415D02*
X96241501Y-69916428D01*
X96241503Y-69916429D01*
X96241506Y-69916430D01*
X96402561Y-70002515D01*
X96508313Y-70089304D01*
X96543730Y-70118370D01*
X96659585Y-70259539D01*
X96745672Y-70420598D01*
X96798685Y-70595357D01*
X96812100Y-70731563D01*
X96812100Y-71508437D01*
X96798685Y-71644643D01*
X96765208Y-71755000D01*
X96745672Y-71819403D01*
X96725520Y-71857104D01*
X96659585Y-71980461D01*
X96543730Y-72121630D01*
X96402561Y-72237485D01*
X96241502Y-72323572D01*
X96066743Y-72376585D01*
X95885000Y-72394485D01*
X95703258Y-72376585D01*
X95528499Y-72323572D01*
X95367440Y-72237485D01*
X95226271Y-72121630D01*
X95110416Y-71980461D01*
X95024329Y-71819402D01*
X95024328Y-71819400D01*
X94971315Y-71644645D01*
X94957900Y-71508439D01*
X94957900Y-70731562D01*
X94963266Y-70677082D01*
X94971315Y-70595358D01*
X95024328Y-70420599D01*
X95024329Y-70420597D01*
X95024330Y-70420594D01*
X95110415Y-70259539D01*
X95226270Y-70118370D01*
X95261687Y-70089304D01*
X95367439Y-70002515D01*
X95528498Y-69916428D01*
X95703257Y-69863415D01*
X95885000Y-69845515D01*
X96066742Y-69863415D01*
X96066742Y-69863415D01*
G37*
G36*
X118926742Y-69863415D02*
X119101501Y-69916428D01*
X119101503Y-69916429D01*
X119101506Y-69916430D01*
X119262561Y-70002515D01*
X119368313Y-70089304D01*
X119403730Y-70118370D01*
X119519585Y-70259539D01*
X119605672Y-70420598D01*
X119658685Y-70595357D01*
X119672100Y-70731563D01*
X119672100Y-71508437D01*
X119658685Y-71644643D01*
X119625208Y-71755000D01*
X119605672Y-71819403D01*
X119585520Y-71857104D01*
X119519585Y-71980461D01*
X119403730Y-72121630D01*
X119262561Y-72237485D01*
X119101502Y-72323572D01*
X118926743Y-72376585D01*
X118745000Y-72394485D01*
X118563258Y-72376585D01*
X118388499Y-72323572D01*
X118227440Y-72237485D01*
X118086271Y-72121630D01*
X117970416Y-71980461D01*
X117884329Y-71819402D01*
X117884328Y-71819400D01*
X117831315Y-71644645D01*
X117817900Y-71508439D01*
X117817900Y-70731562D01*
X117823266Y-70677082D01*
X117831315Y-70595358D01*
X117884328Y-70420599D01*
X117884329Y-70420597D01*
X117884330Y-70420594D01*
X117970415Y-70259539D01*
X118086270Y-70118370D01*
X118121687Y-70089304D01*
X118227439Y-70002515D01*
X118388498Y-69916428D01*
X118563257Y-69863415D01*
X118745000Y-69845515D01*
X118926742Y-69863415D01*
X118926742Y-69863415D01*
G37*
G36*
X121466742Y-69863415D02*
X121641501Y-69916428D01*
X121641503Y-69916429D01*
X121641506Y-69916430D01*
X121802561Y-70002515D01*
X121908313Y-70089304D01*
X121943730Y-70118370D01*
X122059585Y-70259539D01*
X122145672Y-70420598D01*
X122198685Y-70595357D01*
X122212100Y-70731563D01*
X122212100Y-71508437D01*
X122198685Y-71644643D01*
X122165208Y-71755000D01*
X122145672Y-71819403D01*
X122125520Y-71857104D01*
X122059585Y-71980461D01*
X121943730Y-72121630D01*
X121802561Y-72237485D01*
X121641502Y-72323572D01*
X121466743Y-72376585D01*
X121285000Y-72394485D01*
X121103258Y-72376585D01*
X120928499Y-72323572D01*
X120767440Y-72237485D01*
X120626271Y-72121630D01*
X120510416Y-71980461D01*
X120424329Y-71819402D01*
X120424328Y-71819400D01*
X120371315Y-71644645D01*
X120357900Y-71508439D01*
X120357900Y-70731562D01*
X120363266Y-70677082D01*
X120371315Y-70595358D01*
X120424328Y-70420599D01*
X120424329Y-70420597D01*
X120424330Y-70420594D01*
X120510415Y-70259539D01*
X120626270Y-70118370D01*
X120661687Y-70089304D01*
X120767439Y-70002515D01*
X120928498Y-69916428D01*
X121103257Y-69863415D01*
X121285000Y-69845515D01*
X121466742Y-69863415D01*
X121466742Y-69863415D01*
G37*
G36*
X124006742Y-69863415D02*
X124181501Y-69916428D01*
X124181503Y-69916429D01*
X124181506Y-69916430D01*
X124342561Y-70002515D01*
X124448313Y-70089304D01*
X124483730Y-70118370D01*
X124599585Y-70259539D01*
X124685672Y-70420598D01*
X124738685Y-70595357D01*
X124752100Y-70731563D01*
X124752100Y-71508437D01*
X124738685Y-71644643D01*
X124705208Y-71755000D01*
X124685672Y-71819403D01*
X124665520Y-71857104D01*
X124599585Y-71980461D01*
X124483730Y-72121630D01*
X124342561Y-72237485D01*
X124181502Y-72323572D01*
X124006743Y-72376585D01*
X123825000Y-72394485D01*
X123643258Y-72376585D01*
X123468499Y-72323572D01*
X123307440Y-72237485D01*
X123166271Y-72121630D01*
X123050416Y-71980461D01*
X122964329Y-71819402D01*
X122964328Y-71819400D01*
X122911315Y-71644645D01*
X122897900Y-71508439D01*
X122897900Y-70731562D01*
X122903266Y-70677082D01*
X122911315Y-70595358D01*
X122964328Y-70420599D01*
X122964329Y-70420597D01*
X122964330Y-70420594D01*
X123050415Y-70259539D01*
X123166270Y-70118370D01*
X123201687Y-70089304D01*
X123307439Y-70002515D01*
X123468498Y-69916428D01*
X123643257Y-69863415D01*
X123825000Y-69845515D01*
X124006742Y-69863415D01*
X124006742Y-69863415D01*
G37*
G36*
X126546742Y-69863415D02*
X126721501Y-69916428D01*
X126721503Y-69916429D01*
X126721506Y-69916430D01*
X126882561Y-70002515D01*
X126988313Y-70089304D01*
X127023730Y-70118370D01*
X127139585Y-70259539D01*
X127225672Y-70420598D01*
X127278685Y-70595357D01*
X127292100Y-70731563D01*
X127292100Y-71508437D01*
X127278685Y-71644643D01*
X127245208Y-71755000D01*
X127225672Y-71819403D01*
X127205520Y-71857104D01*
X127139585Y-71980461D01*
X127023730Y-72121630D01*
X126882561Y-72237485D01*
X126721502Y-72323572D01*
X126546743Y-72376585D01*
X126365000Y-72394485D01*
X126183258Y-72376585D01*
X126008499Y-72323572D01*
X125847440Y-72237485D01*
X125706271Y-72121630D01*
X125590416Y-71980461D01*
X125504329Y-71819402D01*
X125504328Y-71819400D01*
X125451315Y-71644645D01*
X125437900Y-71508439D01*
X125437900Y-70731562D01*
X125443266Y-70677082D01*
X125451315Y-70595358D01*
X125504328Y-70420599D01*
X125504329Y-70420597D01*
X125504330Y-70420594D01*
X125590415Y-70259539D01*
X125706270Y-70118370D01*
X125741687Y-70089304D01*
X125847439Y-70002515D01*
X126008498Y-69916428D01*
X126183257Y-69863415D01*
X126365000Y-69845515D01*
X126546742Y-69863415D01*
X126546742Y-69863415D01*
G37*
G36*
X116386742Y-69863415D02*
X116561501Y-69916428D01*
X116561503Y-69916429D01*
X116561506Y-69916430D01*
X116722561Y-70002515D01*
X116828313Y-70089304D01*
X116863730Y-70118370D01*
X116979585Y-70259539D01*
X117065672Y-70420598D01*
X117118685Y-70595357D01*
X117132100Y-70731563D01*
X117132100Y-71508437D01*
X117118685Y-71644643D01*
X117085208Y-71755000D01*
X117065672Y-71819403D01*
X117045520Y-71857104D01*
X116979585Y-71980461D01*
X116863730Y-72121630D01*
X116722561Y-72237485D01*
X116561502Y-72323572D01*
X116386743Y-72376585D01*
X116205000Y-72394485D01*
X116023258Y-72376585D01*
X115848499Y-72323572D01*
X115687440Y-72237485D01*
X115546271Y-72121630D01*
X115430416Y-71980461D01*
X115344329Y-71819402D01*
X115344328Y-71819400D01*
X115291315Y-71644645D01*
X115277900Y-71508439D01*
X115277900Y-70731562D01*
X115283266Y-70677082D01*
X115291315Y-70595358D01*
X115344328Y-70420599D01*
X115344329Y-70420597D01*
X115344330Y-70420594D01*
X115430415Y-70259539D01*
X115546270Y-70118370D01*
X115581687Y-70089304D01*
X115687439Y-70002515D01*
X115848498Y-69916428D01*
X116023257Y-69863415D01*
X116205000Y-69845515D01*
X116386742Y-69863415D01*
X116386742Y-69863415D01*
G37*
G36*
X89192100Y-72390000D02*
X87337900Y-72390000D01*
X87337900Y-69850000D01*
X89192100Y-69850000D01*
X89192100Y-72390000D01*
X89192100Y-72390000D01*
G37*
G36*
X135001000Y-71755000D02*
X133731000Y-71755000D01*
X133731000Y-69215000D01*
X135001000Y-69215000D01*
X135001000Y-71755000D01*
X135001000Y-71755000D01*
G37*
G36*
X138049000Y-71755000D02*
X136779000Y-71755000D01*
X136779000Y-69215000D01*
X138049000Y-69215000D01*
X138049000Y-71755000D01*
X138049000Y-71755000D01*
G37*
G36*
X150009227Y-69883052D02*
X150150601Y-69925938D01*
X150280894Y-69995580D01*
X150395096Y-70089304D01*
X150488820Y-70203506D01*
X150558462Y-70333799D01*
X150601348Y-70475173D01*
X150615828Y-70622200D01*
X150601348Y-70769227D01*
X150558462Y-70910601D01*
X150488820Y-71040894D01*
X150395096Y-71155096D01*
X150280894Y-71248820D01*
X150150601Y-71318462D01*
X150009227Y-71361348D01*
X149899039Y-71372200D01*
X148825361Y-71372200D01*
X148715173Y-71361348D01*
X148573799Y-71318462D01*
X148443506Y-71248820D01*
X148329304Y-71155096D01*
X148235580Y-71040894D01*
X148165938Y-70910601D01*
X148123052Y-70769227D01*
X148108572Y-70622200D01*
X148123052Y-70475173D01*
X148165938Y-70333799D01*
X148235580Y-70203506D01*
X148329304Y-70089304D01*
X148443506Y-69995580D01*
X148573799Y-69925938D01*
X148715173Y-69883052D01*
X148825361Y-69872200D01*
X149899039Y-69872200D01*
X150009227Y-69883052D01*
X150009227Y-69883052D01*
G37*
G36*
X153544827Y-69883052D02*
X153686201Y-69925938D01*
X153816494Y-69995580D01*
X153930696Y-70089304D01*
X154024420Y-70203506D01*
X154094062Y-70333799D01*
X154136948Y-70475173D01*
X154151428Y-70622200D01*
X154136948Y-70769227D01*
X154094062Y-70910601D01*
X154024420Y-71040894D01*
X153930696Y-71155096D01*
X153816494Y-71248820D01*
X153686201Y-71318462D01*
X153544827Y-71361348D01*
X153434639Y-71372200D01*
X152360961Y-71372200D01*
X152250773Y-71361348D01*
X152109399Y-71318462D01*
X151979106Y-71248820D01*
X151864904Y-71155096D01*
X151771180Y-71040894D01*
X151701538Y-70910601D01*
X151658652Y-70769227D01*
X151644172Y-70622200D01*
X151658652Y-70475173D01*
X151701538Y-70333799D01*
X151771180Y-70203506D01*
X151864904Y-70089304D01*
X151979106Y-69995580D01*
X152109399Y-69925938D01*
X152250773Y-69883052D01*
X152360961Y-69872200D01*
X153434639Y-69872200D01*
X153544827Y-69883052D01*
X153544827Y-69883052D01*
G37*
M02*
