G04 #@! TF.GenerationSoftware,KiCad,Pcbnew,6.0.0-rc1-unknown-ab92882~66~ubuntu18.04.1*
G04 #@! TF.CreationDate,2018-09-14T10:08:46-04:00*
G04 #@! TF.ProjectId,backlight_controller_3x2,6261636B6C696768745F636F6E74726F,1.0*
G04 #@! TF.SameCoordinates,Original*
G04 #@! TF.FileFunction,Legend,Top*
G04 #@! TF.FilePolarity,Positive*
%FSLAX46Y46*%
G04 Gerber Fmt 4.6, Leading zero omitted, Abs format (unit mm)*
G04 Created by KiCad (PCBNEW 6.0.0-rc1-unknown-ab92882~66~ubuntu18.04.1) date Fri Sep 14 10:08:46 2018*
%MOMM*%
%LPD*%
G01*
G04 APERTURE LIST*
%ADD10C,0.317500*%
%ADD11C,0.254000*%
%ADD12C,0.190500*%
%ADD13C,0.228600*%
%ADD14C,0.127000*%
%ADD15C,0.381000*%
%ADD16C,0.400000*%
%ADD17C,0.222250*%
%ADD18C,3.556000*%
%ADD19O,1.854200X2.540000*%
%ADD20R,1.854200X2.540000*%
%ADD21R,7.480000X1.000000*%
%ADD22R,16.000000X3.400000*%
%ADD23C,2.200000*%
%ADD24O,2.500000X1.500000*%
%ADD25C,3.000000*%
%ADD26O,2.032000X1.524000*%
%ADD27C,4.000000*%
%ADD28R,4.000000X3.000000*%
%ADD29O,4.000000X3.000000*%
G04 APERTURE END LIST*
D10*
X141998095Y-81340476D02*
X142058571Y-81280000D01*
X142179523Y-81219523D01*
X142481904Y-81219523D01*
X142602857Y-81280000D01*
X142663333Y-81340476D01*
X142723809Y-81461428D01*
X142723809Y-81582380D01*
X142663333Y-81763809D01*
X141937619Y-82489523D01*
X142723809Y-82489523D01*
X143812380Y-81642857D02*
X143812380Y-82489523D01*
X143510000Y-81159047D02*
X143207619Y-82066190D01*
X143993809Y-82066190D01*
X144296190Y-81219523D02*
X144719523Y-82489523D01*
X145142857Y-81219523D01*
D11*
X134765142Y-103964619D02*
X135103809Y-104980619D01*
X135442476Y-103964619D01*
X135781142Y-104980619D02*
X135781142Y-104303285D01*
X135781142Y-103964619D02*
X135732761Y-104013000D01*
X135781142Y-104061380D01*
X135829523Y-104013000D01*
X135781142Y-103964619D01*
X135781142Y-104061380D01*
X136216571Y-104932238D02*
X136313333Y-104980619D01*
X136506857Y-104980619D01*
X136603619Y-104932238D01*
X136652000Y-104835476D01*
X136652000Y-104787095D01*
X136603619Y-104690333D01*
X136506857Y-104641952D01*
X136361714Y-104641952D01*
X136264952Y-104593571D01*
X136216571Y-104496809D01*
X136216571Y-104448428D01*
X136264952Y-104351666D01*
X136361714Y-104303285D01*
X136506857Y-104303285D01*
X136603619Y-104351666D01*
X137087428Y-104980619D02*
X137087428Y-104303285D01*
X137087428Y-103964619D02*
X137039047Y-104013000D01*
X137087428Y-104061380D01*
X137135809Y-104013000D01*
X137087428Y-103964619D01*
X137087428Y-104061380D01*
X137571238Y-104980619D02*
X137571238Y-103964619D01*
X137571238Y-104351666D02*
X137668000Y-104303285D01*
X137861523Y-104303285D01*
X137958285Y-104351666D01*
X138006666Y-104400047D01*
X138055047Y-104496809D01*
X138055047Y-104787095D01*
X138006666Y-104883857D01*
X137958285Y-104932238D01*
X137861523Y-104980619D01*
X137668000Y-104980619D01*
X137571238Y-104932238D01*
X138635619Y-104980619D02*
X138538857Y-104932238D01*
X138490476Y-104835476D01*
X138490476Y-103964619D01*
X139409714Y-104932238D02*
X139312952Y-104980619D01*
X139119428Y-104980619D01*
X139022666Y-104932238D01*
X138974285Y-104835476D01*
X138974285Y-104448428D01*
X139022666Y-104351666D01*
X139119428Y-104303285D01*
X139312952Y-104303285D01*
X139409714Y-104351666D01*
X139458095Y-104448428D01*
X139458095Y-104545190D01*
X138974285Y-104641952D01*
X134208761Y-106226428D02*
X134353904Y-106274809D01*
X134402285Y-106323190D01*
X134450666Y-106419952D01*
X134450666Y-106565095D01*
X134402285Y-106661857D01*
X134353904Y-106710238D01*
X134257142Y-106758619D01*
X133870095Y-106758619D01*
X133870095Y-105742619D01*
X134208761Y-105742619D01*
X134305523Y-105791000D01*
X134353904Y-105839380D01*
X134402285Y-105936142D01*
X134402285Y-106032904D01*
X134353904Y-106129666D01*
X134305523Y-106178047D01*
X134208761Y-106226428D01*
X133870095Y-106226428D01*
X135321523Y-106758619D02*
X135321523Y-106226428D01*
X135273142Y-106129666D01*
X135176380Y-106081285D01*
X134982857Y-106081285D01*
X134886095Y-106129666D01*
X135321523Y-106710238D02*
X135224761Y-106758619D01*
X134982857Y-106758619D01*
X134886095Y-106710238D01*
X134837714Y-106613476D01*
X134837714Y-106516714D01*
X134886095Y-106419952D01*
X134982857Y-106371571D01*
X135224761Y-106371571D01*
X135321523Y-106323190D01*
X136240761Y-106710238D02*
X136144000Y-106758619D01*
X135950476Y-106758619D01*
X135853714Y-106710238D01*
X135805333Y-106661857D01*
X135756952Y-106565095D01*
X135756952Y-106274809D01*
X135805333Y-106178047D01*
X135853714Y-106129666D01*
X135950476Y-106081285D01*
X136144000Y-106081285D01*
X136240761Y-106129666D01*
X136676190Y-106758619D02*
X136676190Y-105742619D01*
X136772952Y-106371571D02*
X137063238Y-106758619D01*
X137063238Y-106081285D02*
X136676190Y-106468333D01*
X137643809Y-106758619D02*
X137547047Y-106710238D01*
X137498666Y-106613476D01*
X137498666Y-105742619D01*
X138030857Y-106758619D02*
X138030857Y-106081285D01*
X138030857Y-105742619D02*
X137982476Y-105791000D01*
X138030857Y-105839380D01*
X138079238Y-105791000D01*
X138030857Y-105742619D01*
X138030857Y-105839380D01*
X138950095Y-106081285D02*
X138950095Y-106903761D01*
X138901714Y-107000523D01*
X138853333Y-107048904D01*
X138756571Y-107097285D01*
X138611428Y-107097285D01*
X138514666Y-107048904D01*
X138950095Y-106710238D02*
X138853333Y-106758619D01*
X138659809Y-106758619D01*
X138563047Y-106710238D01*
X138514666Y-106661857D01*
X138466285Y-106565095D01*
X138466285Y-106274809D01*
X138514666Y-106178047D01*
X138563047Y-106129666D01*
X138659809Y-106081285D01*
X138853333Y-106081285D01*
X138950095Y-106129666D01*
X139433904Y-106758619D02*
X139433904Y-105742619D01*
X139869333Y-106758619D02*
X139869333Y-106226428D01*
X139820952Y-106129666D01*
X139724190Y-106081285D01*
X139579047Y-106081285D01*
X139482285Y-106129666D01*
X139433904Y-106178047D01*
X140208000Y-106081285D02*
X140595047Y-106081285D01*
X140353142Y-105742619D02*
X140353142Y-106613476D01*
X140401523Y-106710238D01*
X140498285Y-106758619D01*
X140595047Y-106758619D01*
X136017000Y-71960619D02*
X136017000Y-70944619D01*
X137081380Y-71960619D02*
X136742714Y-71476809D01*
X136500809Y-71960619D02*
X136500809Y-70944619D01*
X136887857Y-70944619D01*
X136984619Y-70993000D01*
X137033000Y-71041380D01*
X137081380Y-71138142D01*
X137081380Y-71283285D01*
X137033000Y-71380047D01*
X136984619Y-71428428D01*
X136887857Y-71476809D01*
X136500809Y-71476809D01*
X133573761Y-73206428D02*
X133718904Y-73254809D01*
X133767285Y-73303190D01*
X133815666Y-73399952D01*
X133815666Y-73545095D01*
X133767285Y-73641857D01*
X133718904Y-73690238D01*
X133622142Y-73738619D01*
X133235095Y-73738619D01*
X133235095Y-72722619D01*
X133573761Y-72722619D01*
X133670523Y-72771000D01*
X133718904Y-72819380D01*
X133767285Y-72916142D01*
X133767285Y-73012904D01*
X133718904Y-73109666D01*
X133670523Y-73158047D01*
X133573761Y-73206428D01*
X133235095Y-73206428D01*
X134686523Y-73738619D02*
X134686523Y-73206428D01*
X134638142Y-73109666D01*
X134541380Y-73061285D01*
X134347857Y-73061285D01*
X134251095Y-73109666D01*
X134686523Y-73690238D02*
X134589761Y-73738619D01*
X134347857Y-73738619D01*
X134251095Y-73690238D01*
X134202714Y-73593476D01*
X134202714Y-73496714D01*
X134251095Y-73399952D01*
X134347857Y-73351571D01*
X134589761Y-73351571D01*
X134686523Y-73303190D01*
X135605761Y-73690238D02*
X135509000Y-73738619D01*
X135315476Y-73738619D01*
X135218714Y-73690238D01*
X135170333Y-73641857D01*
X135121952Y-73545095D01*
X135121952Y-73254809D01*
X135170333Y-73158047D01*
X135218714Y-73109666D01*
X135315476Y-73061285D01*
X135509000Y-73061285D01*
X135605761Y-73109666D01*
X136041190Y-73738619D02*
X136041190Y-72722619D01*
X136137952Y-73351571D02*
X136428238Y-73738619D01*
X136428238Y-73061285D02*
X136041190Y-73448333D01*
X137008809Y-73738619D02*
X136912047Y-73690238D01*
X136863666Y-73593476D01*
X136863666Y-72722619D01*
X137395857Y-73738619D02*
X137395857Y-73061285D01*
X137395857Y-72722619D02*
X137347476Y-72771000D01*
X137395857Y-72819380D01*
X137444238Y-72771000D01*
X137395857Y-72722619D01*
X137395857Y-72819380D01*
X138315095Y-73061285D02*
X138315095Y-73883761D01*
X138266714Y-73980523D01*
X138218333Y-74028904D01*
X138121571Y-74077285D01*
X137976428Y-74077285D01*
X137879666Y-74028904D01*
X138315095Y-73690238D02*
X138218333Y-73738619D01*
X138024809Y-73738619D01*
X137928047Y-73690238D01*
X137879666Y-73641857D01*
X137831285Y-73545095D01*
X137831285Y-73254809D01*
X137879666Y-73158047D01*
X137928047Y-73109666D01*
X138024809Y-73061285D01*
X138218333Y-73061285D01*
X138315095Y-73109666D01*
X138798904Y-73738619D02*
X138798904Y-72722619D01*
X139234333Y-73738619D02*
X139234333Y-73206428D01*
X139185952Y-73109666D01*
X139089190Y-73061285D01*
X138944047Y-73061285D01*
X138847285Y-73109666D01*
X138798904Y-73158047D01*
X139573000Y-73061285D02*
X139960047Y-73061285D01*
X139718142Y-72722619D02*
X139718142Y-73593476D01*
X139766523Y-73690238D01*
X139863285Y-73738619D01*
X139960047Y-73738619D01*
D12*
X111437964Y-82495571D02*
X111437964Y-82858428D01*
X110675964Y-82858428D01*
X111437964Y-82132714D02*
X111401678Y-82205285D01*
X111365392Y-82241571D01*
X111292821Y-82277857D01*
X111075107Y-82277857D01*
X111002535Y-82241571D01*
X110966250Y-82205285D01*
X110929964Y-82132714D01*
X110929964Y-82023857D01*
X110966250Y-81951285D01*
X111002535Y-81915000D01*
X111075107Y-81878714D01*
X111292821Y-81878714D01*
X111365392Y-81915000D01*
X111401678Y-81951285D01*
X111437964Y-82023857D01*
X111437964Y-82132714D01*
X110929964Y-81624714D02*
X111437964Y-81479571D01*
X111075107Y-81334428D01*
X111437964Y-81189285D01*
X110929964Y-81044142D01*
X111437964Y-80173285D02*
X110675964Y-80173285D01*
X110675964Y-79883000D01*
X110712250Y-79810428D01*
X110748535Y-79774142D01*
X110821107Y-79737857D01*
X110929964Y-79737857D01*
X111002535Y-79774142D01*
X111038821Y-79810428D01*
X111075107Y-79883000D01*
X111075107Y-80173285D01*
X111437964Y-79302428D02*
X111401678Y-79375000D01*
X111365392Y-79411285D01*
X111292821Y-79447571D01*
X111075107Y-79447571D01*
X111002535Y-79411285D01*
X110966250Y-79375000D01*
X110929964Y-79302428D01*
X110929964Y-79193571D01*
X110966250Y-79121000D01*
X111002535Y-79084714D01*
X111075107Y-79048428D01*
X111292821Y-79048428D01*
X111365392Y-79084714D01*
X111401678Y-79121000D01*
X111437964Y-79193571D01*
X111437964Y-79302428D01*
X110929964Y-78794428D02*
X111437964Y-78649285D01*
X111075107Y-78504142D01*
X111437964Y-78359000D01*
X110929964Y-78213857D01*
X111401678Y-77633285D02*
X111437964Y-77705857D01*
X111437964Y-77851000D01*
X111401678Y-77923571D01*
X111329107Y-77959857D01*
X111038821Y-77959857D01*
X110966250Y-77923571D01*
X110929964Y-77851000D01*
X110929964Y-77705857D01*
X110966250Y-77633285D01*
X111038821Y-77597000D01*
X111111392Y-77597000D01*
X111183964Y-77959857D01*
X111437964Y-77270428D02*
X110929964Y-77270428D01*
X111075107Y-77270428D02*
X111002535Y-77234142D01*
X110966250Y-77197857D01*
X110929964Y-77125285D01*
X110929964Y-77052714D01*
X112698892Y-81987571D02*
X112735178Y-82023857D01*
X112771464Y-82132714D01*
X112771464Y-82205285D01*
X112735178Y-82314142D01*
X112662607Y-82386714D01*
X112590035Y-82423000D01*
X112444892Y-82459285D01*
X112336035Y-82459285D01*
X112190892Y-82423000D01*
X112118321Y-82386714D01*
X112045750Y-82314142D01*
X112009464Y-82205285D01*
X112009464Y-82132714D01*
X112045750Y-82023857D01*
X112082035Y-81987571D01*
X112771464Y-81661000D02*
X112009464Y-81661000D01*
X112771464Y-81334428D02*
X112372321Y-81334428D01*
X112299750Y-81370714D01*
X112263464Y-81443285D01*
X112263464Y-81552142D01*
X112299750Y-81624714D01*
X112336035Y-81661000D01*
X112771464Y-80645000D02*
X112372321Y-80645000D01*
X112299750Y-80681285D01*
X112263464Y-80753857D01*
X112263464Y-80899000D01*
X112299750Y-80971571D01*
X112735178Y-80645000D02*
X112771464Y-80717571D01*
X112771464Y-80899000D01*
X112735178Y-80971571D01*
X112662607Y-81007857D01*
X112590035Y-81007857D01*
X112517464Y-80971571D01*
X112481178Y-80899000D01*
X112481178Y-80717571D01*
X112444892Y-80645000D01*
X112263464Y-80282142D02*
X112771464Y-80282142D01*
X112336035Y-80282142D02*
X112299750Y-80245857D01*
X112263464Y-80173285D01*
X112263464Y-80064428D01*
X112299750Y-79991857D01*
X112372321Y-79955571D01*
X112771464Y-79955571D01*
X112263464Y-79592714D02*
X112771464Y-79592714D01*
X112336035Y-79592714D02*
X112299750Y-79556428D01*
X112263464Y-79483857D01*
X112263464Y-79375000D01*
X112299750Y-79302428D01*
X112372321Y-79266142D01*
X112771464Y-79266142D01*
X112735178Y-78613000D02*
X112771464Y-78685571D01*
X112771464Y-78830714D01*
X112735178Y-78903285D01*
X112662607Y-78939571D01*
X112372321Y-78939571D01*
X112299750Y-78903285D01*
X112263464Y-78830714D01*
X112263464Y-78685571D01*
X112299750Y-78613000D01*
X112372321Y-78576714D01*
X112444892Y-78576714D01*
X112517464Y-78939571D01*
X112771464Y-78141285D02*
X112735178Y-78213857D01*
X112662607Y-78250142D01*
X112009464Y-78250142D01*
X112735178Y-77887285D02*
X112771464Y-77814714D01*
X112771464Y-77669571D01*
X112735178Y-77597000D01*
X112662607Y-77560714D01*
X112626321Y-77560714D01*
X112553750Y-77597000D01*
X112517464Y-77669571D01*
X112517464Y-77778428D01*
X112481178Y-77851000D01*
X112408607Y-77887285D01*
X112372321Y-77887285D01*
X112299750Y-77851000D01*
X112263464Y-77778428D01*
X112263464Y-77669571D01*
X112299750Y-77597000D01*
X108897964Y-100856142D02*
X108135964Y-100856142D01*
X108498821Y-100856142D02*
X108498821Y-100420714D01*
X108897964Y-100420714D02*
X108135964Y-100420714D01*
X108897964Y-100057857D02*
X108389964Y-100057857D01*
X108135964Y-100057857D02*
X108172250Y-100094142D01*
X108208535Y-100057857D01*
X108172250Y-100021571D01*
X108135964Y-100057857D01*
X108208535Y-100057857D01*
X108389964Y-99368428D02*
X109006821Y-99368428D01*
X109079392Y-99404714D01*
X109115678Y-99441000D01*
X109151964Y-99513571D01*
X109151964Y-99622428D01*
X109115678Y-99695000D01*
X108861678Y-99368428D02*
X108897964Y-99441000D01*
X108897964Y-99586142D01*
X108861678Y-99658714D01*
X108825392Y-99695000D01*
X108752821Y-99731285D01*
X108535107Y-99731285D01*
X108462535Y-99695000D01*
X108426250Y-99658714D01*
X108389964Y-99586142D01*
X108389964Y-99441000D01*
X108426250Y-99368428D01*
X108897964Y-99005571D02*
X108135964Y-99005571D01*
X108897964Y-98679000D02*
X108498821Y-98679000D01*
X108426250Y-98715285D01*
X108389964Y-98787857D01*
X108389964Y-98896714D01*
X108426250Y-98969285D01*
X108462535Y-99005571D01*
X108897964Y-97735571D02*
X108135964Y-97735571D01*
X108135964Y-97445285D01*
X108172250Y-97372714D01*
X108208535Y-97336428D01*
X108281107Y-97300142D01*
X108389964Y-97300142D01*
X108462535Y-97336428D01*
X108498821Y-97372714D01*
X108535107Y-97445285D01*
X108535107Y-97735571D01*
X108897964Y-96864714D02*
X108861678Y-96937285D01*
X108825392Y-96973571D01*
X108752821Y-97009857D01*
X108535107Y-97009857D01*
X108462535Y-96973571D01*
X108426250Y-96937285D01*
X108389964Y-96864714D01*
X108389964Y-96755857D01*
X108426250Y-96683285D01*
X108462535Y-96647000D01*
X108535107Y-96610714D01*
X108752821Y-96610714D01*
X108825392Y-96647000D01*
X108861678Y-96683285D01*
X108897964Y-96755857D01*
X108897964Y-96864714D01*
X108389964Y-96356714D02*
X108897964Y-96211571D01*
X108535107Y-96066428D01*
X108897964Y-95921285D01*
X108389964Y-95776142D01*
X108861678Y-95195571D02*
X108897964Y-95268142D01*
X108897964Y-95413285D01*
X108861678Y-95485857D01*
X108789107Y-95522142D01*
X108498821Y-95522142D01*
X108426250Y-95485857D01*
X108389964Y-95413285D01*
X108389964Y-95268142D01*
X108426250Y-95195571D01*
X108498821Y-95159285D01*
X108571392Y-95159285D01*
X108643964Y-95522142D01*
X108897964Y-94832714D02*
X108389964Y-94832714D01*
X108535107Y-94832714D02*
X108462535Y-94796428D01*
X108426250Y-94760142D01*
X108389964Y-94687571D01*
X108389964Y-94615000D01*
X110158892Y-99767571D02*
X110195178Y-99803857D01*
X110231464Y-99912714D01*
X110231464Y-99985285D01*
X110195178Y-100094142D01*
X110122607Y-100166714D01*
X110050035Y-100203000D01*
X109904892Y-100239285D01*
X109796035Y-100239285D01*
X109650892Y-100203000D01*
X109578321Y-100166714D01*
X109505750Y-100094142D01*
X109469464Y-99985285D01*
X109469464Y-99912714D01*
X109505750Y-99803857D01*
X109542035Y-99767571D01*
X110231464Y-99441000D02*
X109469464Y-99441000D01*
X110231464Y-99114428D02*
X109832321Y-99114428D01*
X109759750Y-99150714D01*
X109723464Y-99223285D01*
X109723464Y-99332142D01*
X109759750Y-99404714D01*
X109796035Y-99441000D01*
X110231464Y-98425000D02*
X109832321Y-98425000D01*
X109759750Y-98461285D01*
X109723464Y-98533857D01*
X109723464Y-98679000D01*
X109759750Y-98751571D01*
X110195178Y-98425000D02*
X110231464Y-98497571D01*
X110231464Y-98679000D01*
X110195178Y-98751571D01*
X110122607Y-98787857D01*
X110050035Y-98787857D01*
X109977464Y-98751571D01*
X109941178Y-98679000D01*
X109941178Y-98497571D01*
X109904892Y-98425000D01*
X109723464Y-98062142D02*
X110231464Y-98062142D01*
X109796035Y-98062142D02*
X109759750Y-98025857D01*
X109723464Y-97953285D01*
X109723464Y-97844428D01*
X109759750Y-97771857D01*
X109832321Y-97735571D01*
X110231464Y-97735571D01*
X109723464Y-97372714D02*
X110231464Y-97372714D01*
X109796035Y-97372714D02*
X109759750Y-97336428D01*
X109723464Y-97263857D01*
X109723464Y-97155000D01*
X109759750Y-97082428D01*
X109832321Y-97046142D01*
X110231464Y-97046142D01*
X110195178Y-96393000D02*
X110231464Y-96465571D01*
X110231464Y-96610714D01*
X110195178Y-96683285D01*
X110122607Y-96719571D01*
X109832321Y-96719571D01*
X109759750Y-96683285D01*
X109723464Y-96610714D01*
X109723464Y-96465571D01*
X109759750Y-96393000D01*
X109832321Y-96356714D01*
X109904892Y-96356714D01*
X109977464Y-96719571D01*
X110231464Y-95921285D02*
X110195178Y-95993857D01*
X110122607Y-96030142D01*
X109469464Y-96030142D01*
X110195178Y-95667285D02*
X110231464Y-95594714D01*
X110231464Y-95449571D01*
X110195178Y-95377000D01*
X110122607Y-95340714D01*
X110086321Y-95340714D01*
X110013750Y-95377000D01*
X109977464Y-95449571D01*
X109977464Y-95558428D01*
X109941178Y-95631000D01*
X109868607Y-95667285D01*
X109832321Y-95667285D01*
X109759750Y-95631000D01*
X109723464Y-95558428D01*
X109723464Y-95449571D01*
X109759750Y-95377000D01*
D13*
X128270000Y-78740000D02*
X128270000Y-99060000D01*
X130810000Y-78740000D02*
X128270000Y-78740000D01*
X128270000Y-99060000D02*
X130810000Y-99060000D01*
X130810000Y-88900000D02*
X128270000Y-88900000D01*
D14*
X129134809Y-87400190D02*
X129134809Y-87642095D01*
X128626809Y-87642095D01*
X129134809Y-87158285D02*
X129110619Y-87206666D01*
X129086428Y-87230857D01*
X129038047Y-87255047D01*
X128892904Y-87255047D01*
X128844523Y-87230857D01*
X128820333Y-87206666D01*
X128796142Y-87158285D01*
X128796142Y-87085714D01*
X128820333Y-87037333D01*
X128844523Y-87013142D01*
X128892904Y-86988952D01*
X129038047Y-86988952D01*
X129086428Y-87013142D01*
X129110619Y-87037333D01*
X129134809Y-87085714D01*
X129134809Y-87158285D01*
X128796142Y-86819619D02*
X129134809Y-86722857D01*
X128892904Y-86626095D01*
X129134809Y-86529333D01*
X128796142Y-86432571D01*
X129134809Y-85852000D02*
X128626809Y-85852000D01*
X128626809Y-85658476D01*
X128651000Y-85610095D01*
X128675190Y-85585904D01*
X128723571Y-85561714D01*
X128796142Y-85561714D01*
X128844523Y-85585904D01*
X128868714Y-85610095D01*
X128892904Y-85658476D01*
X128892904Y-85852000D01*
X129134809Y-85271428D02*
X129110619Y-85319809D01*
X129086428Y-85344000D01*
X129038047Y-85368190D01*
X128892904Y-85368190D01*
X128844523Y-85344000D01*
X128820333Y-85319809D01*
X128796142Y-85271428D01*
X128796142Y-85198857D01*
X128820333Y-85150476D01*
X128844523Y-85126285D01*
X128892904Y-85102095D01*
X129038047Y-85102095D01*
X129086428Y-85126285D01*
X129110619Y-85150476D01*
X129134809Y-85198857D01*
X129134809Y-85271428D01*
X128796142Y-84932761D02*
X129134809Y-84836000D01*
X128892904Y-84739238D01*
X129134809Y-84642476D01*
X128796142Y-84545714D01*
X129110619Y-84158666D02*
X129134809Y-84207047D01*
X129134809Y-84303809D01*
X129110619Y-84352190D01*
X129062238Y-84376380D01*
X128868714Y-84376380D01*
X128820333Y-84352190D01*
X128796142Y-84303809D01*
X128796142Y-84207047D01*
X128820333Y-84158666D01*
X128868714Y-84134476D01*
X128917095Y-84134476D01*
X128965476Y-84376380D01*
X129134809Y-83916761D02*
X128796142Y-83916761D01*
X128892904Y-83916761D02*
X128844523Y-83892571D01*
X128820333Y-83868380D01*
X128796142Y-83820000D01*
X128796142Y-83771619D01*
X129086428Y-82924952D02*
X129110619Y-82949142D01*
X129134809Y-83021714D01*
X129134809Y-83070095D01*
X129110619Y-83142666D01*
X129062238Y-83191047D01*
X129013857Y-83215238D01*
X128917095Y-83239428D01*
X128844523Y-83239428D01*
X128747761Y-83215238D01*
X128699380Y-83191047D01*
X128651000Y-83142666D01*
X128626809Y-83070095D01*
X128626809Y-83021714D01*
X128651000Y-82949142D01*
X128675190Y-82924952D01*
X129134809Y-82707238D02*
X128626809Y-82707238D01*
X129134809Y-82489523D02*
X128868714Y-82489523D01*
X128820333Y-82513714D01*
X128796142Y-82562095D01*
X128796142Y-82634666D01*
X128820333Y-82683047D01*
X128844523Y-82707238D01*
X129134809Y-82029904D02*
X128868714Y-82029904D01*
X128820333Y-82054095D01*
X128796142Y-82102476D01*
X128796142Y-82199238D01*
X128820333Y-82247619D01*
X129110619Y-82029904D02*
X129134809Y-82078285D01*
X129134809Y-82199238D01*
X129110619Y-82247619D01*
X129062238Y-82271809D01*
X129013857Y-82271809D01*
X128965476Y-82247619D01*
X128941285Y-82199238D01*
X128941285Y-82078285D01*
X128917095Y-82029904D01*
X128796142Y-81788000D02*
X129134809Y-81788000D01*
X128844523Y-81788000D02*
X128820333Y-81763809D01*
X128796142Y-81715428D01*
X128796142Y-81642857D01*
X128820333Y-81594476D01*
X128868714Y-81570285D01*
X129134809Y-81570285D01*
X128796142Y-81328380D02*
X129134809Y-81328380D01*
X128844523Y-81328380D02*
X128820333Y-81304190D01*
X128796142Y-81255809D01*
X128796142Y-81183238D01*
X128820333Y-81134857D01*
X128868714Y-81110666D01*
X129134809Y-81110666D01*
X129110619Y-80675238D02*
X129134809Y-80723619D01*
X129134809Y-80820380D01*
X129110619Y-80868761D01*
X129062238Y-80892952D01*
X128868714Y-80892952D01*
X128820333Y-80868761D01*
X128796142Y-80820380D01*
X128796142Y-80723619D01*
X128820333Y-80675238D01*
X128868714Y-80651047D01*
X128917095Y-80651047D01*
X128965476Y-80892952D01*
X129134809Y-80360761D02*
X129110619Y-80409142D01*
X129062238Y-80433333D01*
X128626809Y-80433333D01*
X129110619Y-80191428D02*
X129134809Y-80143047D01*
X129134809Y-80046285D01*
X129110619Y-79997904D01*
X129062238Y-79973714D01*
X129038047Y-79973714D01*
X128989666Y-79997904D01*
X128965476Y-80046285D01*
X128965476Y-80118857D01*
X128941285Y-80167238D01*
X128892904Y-80191428D01*
X128868714Y-80191428D01*
X128820333Y-80167238D01*
X128796142Y-80118857D01*
X128796142Y-80046285D01*
X128820333Y-79997904D01*
X129134809Y-97947238D02*
X128626809Y-97947238D01*
X128868714Y-97947238D02*
X128868714Y-97656952D01*
X129134809Y-97656952D02*
X128626809Y-97656952D01*
X129134809Y-97415047D02*
X128796142Y-97415047D01*
X128626809Y-97415047D02*
X128651000Y-97439238D01*
X128675190Y-97415047D01*
X128651000Y-97390857D01*
X128626809Y-97415047D01*
X128675190Y-97415047D01*
X128796142Y-96955428D02*
X129207380Y-96955428D01*
X129255761Y-96979619D01*
X129279952Y-97003809D01*
X129304142Y-97052190D01*
X129304142Y-97124761D01*
X129279952Y-97173142D01*
X129110619Y-96955428D02*
X129134809Y-97003809D01*
X129134809Y-97100571D01*
X129110619Y-97148952D01*
X129086428Y-97173142D01*
X129038047Y-97197333D01*
X128892904Y-97197333D01*
X128844523Y-97173142D01*
X128820333Y-97148952D01*
X128796142Y-97100571D01*
X128796142Y-97003809D01*
X128820333Y-96955428D01*
X129134809Y-96713523D02*
X128626809Y-96713523D01*
X129134809Y-96495809D02*
X128868714Y-96495809D01*
X128820333Y-96520000D01*
X128796142Y-96568380D01*
X128796142Y-96640952D01*
X128820333Y-96689333D01*
X128844523Y-96713523D01*
X129134809Y-95866857D02*
X128626809Y-95866857D01*
X128626809Y-95673333D01*
X128651000Y-95624952D01*
X128675190Y-95600761D01*
X128723571Y-95576571D01*
X128796142Y-95576571D01*
X128844523Y-95600761D01*
X128868714Y-95624952D01*
X128892904Y-95673333D01*
X128892904Y-95866857D01*
X129134809Y-95286285D02*
X129110619Y-95334666D01*
X129086428Y-95358857D01*
X129038047Y-95383047D01*
X128892904Y-95383047D01*
X128844523Y-95358857D01*
X128820333Y-95334666D01*
X128796142Y-95286285D01*
X128796142Y-95213714D01*
X128820333Y-95165333D01*
X128844523Y-95141142D01*
X128892904Y-95116952D01*
X129038047Y-95116952D01*
X129086428Y-95141142D01*
X129110619Y-95165333D01*
X129134809Y-95213714D01*
X129134809Y-95286285D01*
X128796142Y-94947619D02*
X129134809Y-94850857D01*
X128892904Y-94754095D01*
X129134809Y-94657333D01*
X128796142Y-94560571D01*
X129110619Y-94173523D02*
X129134809Y-94221904D01*
X129134809Y-94318666D01*
X129110619Y-94367047D01*
X129062238Y-94391238D01*
X128868714Y-94391238D01*
X128820333Y-94367047D01*
X128796142Y-94318666D01*
X128796142Y-94221904D01*
X128820333Y-94173523D01*
X128868714Y-94149333D01*
X128917095Y-94149333D01*
X128965476Y-94391238D01*
X129134809Y-93931619D02*
X128796142Y-93931619D01*
X128892904Y-93931619D02*
X128844523Y-93907428D01*
X128820333Y-93883238D01*
X128796142Y-93834857D01*
X128796142Y-93786476D01*
X129086428Y-92939809D02*
X129110619Y-92964000D01*
X129134809Y-93036571D01*
X129134809Y-93084952D01*
X129110619Y-93157523D01*
X129062238Y-93205904D01*
X129013857Y-93230095D01*
X128917095Y-93254285D01*
X128844523Y-93254285D01*
X128747761Y-93230095D01*
X128699380Y-93205904D01*
X128651000Y-93157523D01*
X128626809Y-93084952D01*
X128626809Y-93036571D01*
X128651000Y-92964000D01*
X128675190Y-92939809D01*
X129134809Y-92722095D02*
X128626809Y-92722095D01*
X129134809Y-92504380D02*
X128868714Y-92504380D01*
X128820333Y-92528571D01*
X128796142Y-92576952D01*
X128796142Y-92649523D01*
X128820333Y-92697904D01*
X128844523Y-92722095D01*
X129134809Y-92044761D02*
X128868714Y-92044761D01*
X128820333Y-92068952D01*
X128796142Y-92117333D01*
X128796142Y-92214095D01*
X128820333Y-92262476D01*
X129110619Y-92044761D02*
X129134809Y-92093142D01*
X129134809Y-92214095D01*
X129110619Y-92262476D01*
X129062238Y-92286666D01*
X129013857Y-92286666D01*
X128965476Y-92262476D01*
X128941285Y-92214095D01*
X128941285Y-92093142D01*
X128917095Y-92044761D01*
X128796142Y-91802857D02*
X129134809Y-91802857D01*
X128844523Y-91802857D02*
X128820333Y-91778666D01*
X128796142Y-91730285D01*
X128796142Y-91657714D01*
X128820333Y-91609333D01*
X128868714Y-91585142D01*
X129134809Y-91585142D01*
X128796142Y-91343238D02*
X129134809Y-91343238D01*
X128844523Y-91343238D02*
X128820333Y-91319047D01*
X128796142Y-91270666D01*
X128796142Y-91198095D01*
X128820333Y-91149714D01*
X128868714Y-91125523D01*
X129134809Y-91125523D01*
X129110619Y-90690095D02*
X129134809Y-90738476D01*
X129134809Y-90835238D01*
X129110619Y-90883619D01*
X129062238Y-90907809D01*
X128868714Y-90907809D01*
X128820333Y-90883619D01*
X128796142Y-90835238D01*
X128796142Y-90738476D01*
X128820333Y-90690095D01*
X128868714Y-90665904D01*
X128917095Y-90665904D01*
X128965476Y-90907809D01*
X129134809Y-90375619D02*
X129110619Y-90424000D01*
X129062238Y-90448190D01*
X128626809Y-90448190D01*
X129110619Y-90206285D02*
X129134809Y-90157904D01*
X129134809Y-90061142D01*
X129110619Y-90012761D01*
X129062238Y-89988571D01*
X129038047Y-89988571D01*
X128989666Y-90012761D01*
X128965476Y-90061142D01*
X128965476Y-90133714D01*
X128941285Y-90182095D01*
X128892904Y-90206285D01*
X128868714Y-90206285D01*
X128820333Y-90182095D01*
X128796142Y-90133714D01*
X128796142Y-90061142D01*
X128820333Y-90012761D01*
D10*
X141307910Y-72238809D02*
X141186958Y-72178333D01*
X141126482Y-72117857D01*
X141066005Y-71996904D01*
X141066005Y-71936428D01*
X141126482Y-71815476D01*
X141186958Y-71755000D01*
X141307910Y-71694523D01*
X141549815Y-71694523D01*
X141670767Y-71755000D01*
X141731244Y-71815476D01*
X141791720Y-71936428D01*
X141791720Y-71996904D01*
X141731244Y-72117857D01*
X141670767Y-72178333D01*
X141549815Y-72238809D01*
X141307910Y-72238809D01*
X141186958Y-72299285D01*
X141126482Y-72359761D01*
X141066005Y-72480714D01*
X141066005Y-72722619D01*
X141126482Y-72843571D01*
X141186958Y-72904047D01*
X141307910Y-72964523D01*
X141549815Y-72964523D01*
X141670767Y-72904047D01*
X141731244Y-72843571D01*
X141791720Y-72722619D01*
X141791720Y-72480714D01*
X141731244Y-72359761D01*
X141670767Y-72299285D01*
X141549815Y-72238809D01*
X141186958Y-105984523D02*
X141428863Y-105984523D01*
X141549815Y-105924047D01*
X141610291Y-105863571D01*
X141731244Y-105682142D01*
X141791720Y-105440238D01*
X141791720Y-104956428D01*
X141731244Y-104835476D01*
X141670767Y-104775000D01*
X141549815Y-104714523D01*
X141307910Y-104714523D01*
X141186958Y-104775000D01*
X141126482Y-104835476D01*
X141066005Y-104956428D01*
X141066005Y-105258809D01*
X141126482Y-105379761D01*
X141186958Y-105440238D01*
X141307910Y-105500714D01*
X141549815Y-105500714D01*
X141670767Y-105440238D01*
X141731244Y-105379761D01*
X141791720Y-105258809D01*
X129938386Y-97094523D02*
X130059339Y-97094523D01*
X130180291Y-97155000D01*
X130240767Y-97215476D01*
X130301244Y-97336428D01*
X130361720Y-97578333D01*
X130361720Y-97880714D01*
X130301244Y-98122619D01*
X130240767Y-98243571D01*
X130180291Y-98304047D01*
X130059339Y-98364523D01*
X129938386Y-98364523D01*
X129817434Y-98304047D01*
X129756958Y-98243571D01*
X129696482Y-98122619D01*
X129636005Y-97880714D01*
X129636005Y-97578333D01*
X129696482Y-97336428D01*
X129756958Y-97215476D01*
X129817434Y-97155000D01*
X129938386Y-97094523D01*
X130361720Y-95824523D02*
X129636005Y-95824523D01*
X129998863Y-95824523D02*
X129998863Y-94554523D01*
X129877910Y-94735952D01*
X129756958Y-94856904D01*
X129636005Y-94917380D01*
X129636005Y-92135476D02*
X129696482Y-92075000D01*
X129817434Y-92014523D01*
X130119815Y-92014523D01*
X130240767Y-92075000D01*
X130301244Y-92135476D01*
X130361720Y-92256428D01*
X130361720Y-92377380D01*
X130301244Y-92558809D01*
X129575529Y-93284523D01*
X130361720Y-93284523D01*
X129575529Y-89474523D02*
X130361720Y-89474523D01*
X129938386Y-89958333D01*
X130119815Y-89958333D01*
X130240767Y-90018809D01*
X130301244Y-90079285D01*
X130361720Y-90200238D01*
X130361720Y-90502619D01*
X130301244Y-90623571D01*
X130240767Y-90684047D01*
X130119815Y-90744523D01*
X129756958Y-90744523D01*
X129636005Y-90684047D01*
X129575529Y-90623571D01*
X130240767Y-87357857D02*
X130240767Y-88204523D01*
X129938386Y-86874047D02*
X129636005Y-87781190D01*
X130422196Y-87781190D01*
X130301244Y-84394523D02*
X129696482Y-84394523D01*
X129636005Y-84999285D01*
X129696482Y-84938809D01*
X129817434Y-84878333D01*
X130119815Y-84878333D01*
X130240767Y-84938809D01*
X130301244Y-84999285D01*
X130361720Y-85120238D01*
X130361720Y-85422619D01*
X130301244Y-85543571D01*
X130240767Y-85604047D01*
X130119815Y-85664523D01*
X129817434Y-85664523D01*
X129696482Y-85604047D01*
X129636005Y-85543571D01*
X130240767Y-81854523D02*
X129998863Y-81854523D01*
X129877910Y-81915000D01*
X129817434Y-81975476D01*
X129696482Y-82156904D01*
X129636005Y-82398809D01*
X129636005Y-82882619D01*
X129696482Y-83003571D01*
X129756958Y-83064047D01*
X129877910Y-83124523D01*
X130119815Y-83124523D01*
X130240767Y-83064047D01*
X130301244Y-83003571D01*
X130361720Y-82882619D01*
X130361720Y-82580238D01*
X130301244Y-82459285D01*
X130240767Y-82398809D01*
X130119815Y-82338333D01*
X129877910Y-82338333D01*
X129756958Y-82398809D01*
X129696482Y-82459285D01*
X129636005Y-82580238D01*
X129575529Y-79314523D02*
X130422196Y-79314523D01*
X129877910Y-80584523D01*
X129877910Y-77318809D02*
X129756958Y-77258333D01*
X129696482Y-77197857D01*
X129636005Y-77076904D01*
X129636005Y-77016428D01*
X129696482Y-76895476D01*
X129756958Y-76835000D01*
X129877910Y-76774523D01*
X130119815Y-76774523D01*
X130240767Y-76835000D01*
X130301244Y-76895476D01*
X130361720Y-77016428D01*
X130361720Y-77076904D01*
X130301244Y-77197857D01*
X130240767Y-77258333D01*
X130119815Y-77318809D01*
X129877910Y-77318809D01*
X129756958Y-77379285D01*
X129696482Y-77439761D01*
X129636005Y-77560714D01*
X129636005Y-77802619D01*
X129696482Y-77923571D01*
X129756958Y-77984047D01*
X129877910Y-78044523D01*
X130119815Y-78044523D01*
X130240767Y-77984047D01*
X130301244Y-77923571D01*
X130361720Y-77802619D01*
X130361720Y-77560714D01*
X130301244Y-77439761D01*
X130240767Y-77379285D01*
X130119815Y-77318809D01*
X129756958Y-100904523D02*
X129998863Y-100904523D01*
X130119815Y-100844047D01*
X130180291Y-100783571D01*
X130301244Y-100602142D01*
X130361720Y-100360238D01*
X130361720Y-99876428D01*
X130301244Y-99755476D01*
X130240767Y-99695000D01*
X130119815Y-99634523D01*
X129877910Y-99634523D01*
X129756958Y-99695000D01*
X129696482Y-99755476D01*
X129636005Y-99876428D01*
X129636005Y-100178809D01*
X129696482Y-100299761D01*
X129756958Y-100360238D01*
X129877910Y-100420714D01*
X130119815Y-100420714D01*
X130240767Y-100360238D01*
X130301244Y-100299761D01*
X130361720Y-100178809D01*
D13*
X156210000Y-67945000D02*
X85725000Y-67945000D01*
X156210000Y-109855000D02*
X156210000Y-67945000D01*
X85725000Y-109855000D02*
X156210000Y-109855000D01*
X85725000Y-67945000D02*
X85725000Y-109855000D01*
D12*
X89897857Y-109044619D02*
X89897857Y-108028619D01*
X90333285Y-109044619D02*
X90333285Y-108512428D01*
X90284904Y-108415666D01*
X90188142Y-108367285D01*
X90043000Y-108367285D01*
X89946238Y-108415666D01*
X89897857Y-108464047D01*
X90671952Y-108367285D02*
X91059000Y-108367285D01*
X90817095Y-108028619D02*
X90817095Y-108899476D01*
X90865476Y-108996238D01*
X90962238Y-109044619D01*
X91059000Y-109044619D01*
X91252523Y-108367285D02*
X91639571Y-108367285D01*
X91397666Y-108028619D02*
X91397666Y-108899476D01*
X91446047Y-108996238D01*
X91542809Y-109044619D01*
X91639571Y-109044619D01*
X91978238Y-108367285D02*
X91978238Y-109383285D01*
X91978238Y-108415666D02*
X92075000Y-108367285D01*
X92268523Y-108367285D01*
X92365285Y-108415666D01*
X92413666Y-108464047D01*
X92462047Y-108560809D01*
X92462047Y-108851095D01*
X92413666Y-108947857D01*
X92365285Y-108996238D01*
X92268523Y-109044619D01*
X92075000Y-109044619D01*
X91978238Y-108996238D01*
X92849095Y-108996238D02*
X92945857Y-109044619D01*
X93139380Y-109044619D01*
X93236142Y-108996238D01*
X93284523Y-108899476D01*
X93284523Y-108851095D01*
X93236142Y-108754333D01*
X93139380Y-108705952D01*
X92994238Y-108705952D01*
X92897476Y-108657571D01*
X92849095Y-108560809D01*
X92849095Y-108512428D01*
X92897476Y-108415666D01*
X92994238Y-108367285D01*
X93139380Y-108367285D01*
X93236142Y-108415666D01*
X93719952Y-108947857D02*
X93768333Y-108996238D01*
X93719952Y-109044619D01*
X93671571Y-108996238D01*
X93719952Y-108947857D01*
X93719952Y-109044619D01*
X93719952Y-108415666D02*
X93768333Y-108464047D01*
X93719952Y-108512428D01*
X93671571Y-108464047D01*
X93719952Y-108415666D01*
X93719952Y-108512428D01*
X94929476Y-107980238D02*
X94058619Y-109286523D01*
X95993857Y-107980238D02*
X95123000Y-109286523D01*
X96767952Y-108367285D02*
X96767952Y-109189761D01*
X96719571Y-109286523D01*
X96671190Y-109334904D01*
X96574428Y-109383285D01*
X96429285Y-109383285D01*
X96332523Y-109334904D01*
X96767952Y-108996238D02*
X96671190Y-109044619D01*
X96477666Y-109044619D01*
X96380904Y-108996238D01*
X96332523Y-108947857D01*
X96284142Y-108851095D01*
X96284142Y-108560809D01*
X96332523Y-108464047D01*
X96380904Y-108415666D01*
X96477666Y-108367285D01*
X96671190Y-108367285D01*
X96767952Y-108415666D01*
X97251761Y-109044619D02*
X97251761Y-108367285D01*
X97251761Y-108028619D02*
X97203380Y-108077000D01*
X97251761Y-108125380D01*
X97300142Y-108077000D01*
X97251761Y-108028619D01*
X97251761Y-108125380D01*
X97590428Y-108367285D02*
X97977476Y-108367285D01*
X97735571Y-108028619D02*
X97735571Y-108899476D01*
X97783952Y-108996238D01*
X97880714Y-109044619D01*
X97977476Y-109044619D01*
X98316142Y-109044619D02*
X98316142Y-108028619D01*
X98751571Y-109044619D02*
X98751571Y-108512428D01*
X98703190Y-108415666D01*
X98606428Y-108367285D01*
X98461285Y-108367285D01*
X98364523Y-108415666D01*
X98316142Y-108464047D01*
X99670809Y-108367285D02*
X99670809Y-109044619D01*
X99235380Y-108367285D02*
X99235380Y-108899476D01*
X99283761Y-108996238D01*
X99380523Y-109044619D01*
X99525666Y-109044619D01*
X99622428Y-108996238D01*
X99670809Y-108947857D01*
X100154619Y-109044619D02*
X100154619Y-108028619D01*
X100154619Y-108415666D02*
X100251380Y-108367285D01*
X100444904Y-108367285D01*
X100541666Y-108415666D01*
X100590047Y-108464047D01*
X100638428Y-108560809D01*
X100638428Y-108851095D01*
X100590047Y-108947857D01*
X100541666Y-108996238D01*
X100444904Y-109044619D01*
X100251380Y-109044619D01*
X100154619Y-108996238D01*
X101073857Y-108947857D02*
X101122238Y-108996238D01*
X101073857Y-109044619D01*
X101025476Y-108996238D01*
X101073857Y-108947857D01*
X101073857Y-109044619D01*
X101993095Y-108996238D02*
X101896333Y-109044619D01*
X101702809Y-109044619D01*
X101606047Y-108996238D01*
X101557666Y-108947857D01*
X101509285Y-108851095D01*
X101509285Y-108560809D01*
X101557666Y-108464047D01*
X101606047Y-108415666D01*
X101702809Y-108367285D01*
X101896333Y-108367285D01*
X101993095Y-108415666D01*
X102573666Y-109044619D02*
X102476904Y-108996238D01*
X102428523Y-108947857D01*
X102380142Y-108851095D01*
X102380142Y-108560809D01*
X102428523Y-108464047D01*
X102476904Y-108415666D01*
X102573666Y-108367285D01*
X102718809Y-108367285D01*
X102815571Y-108415666D01*
X102863952Y-108464047D01*
X102912333Y-108560809D01*
X102912333Y-108851095D01*
X102863952Y-108947857D01*
X102815571Y-108996238D01*
X102718809Y-109044619D01*
X102573666Y-109044619D01*
X103347761Y-109044619D02*
X103347761Y-108367285D01*
X103347761Y-108464047D02*
X103396142Y-108415666D01*
X103492904Y-108367285D01*
X103638047Y-108367285D01*
X103734809Y-108415666D01*
X103783190Y-108512428D01*
X103783190Y-109044619D01*
X103783190Y-108512428D02*
X103831571Y-108415666D01*
X103928333Y-108367285D01*
X104073476Y-108367285D01*
X104170238Y-108415666D01*
X104218619Y-108512428D01*
X104218619Y-109044619D01*
X105428142Y-107980238D02*
X104557285Y-109286523D01*
X105766809Y-108367285D02*
X105766809Y-109238142D01*
X105718428Y-109334904D01*
X105621666Y-109383285D01*
X105573285Y-109383285D01*
X105766809Y-108028619D02*
X105718428Y-108077000D01*
X105766809Y-108125380D01*
X105815190Y-108077000D01*
X105766809Y-108028619D01*
X105766809Y-108125380D01*
X106686047Y-109044619D02*
X106686047Y-108512428D01*
X106637666Y-108415666D01*
X106540904Y-108367285D01*
X106347380Y-108367285D01*
X106250619Y-108415666D01*
X106686047Y-108996238D02*
X106589285Y-109044619D01*
X106347380Y-109044619D01*
X106250619Y-108996238D01*
X106202238Y-108899476D01*
X106202238Y-108802714D01*
X106250619Y-108705952D01*
X106347380Y-108657571D01*
X106589285Y-108657571D01*
X106686047Y-108609190D01*
X107169857Y-108367285D02*
X107169857Y-109044619D01*
X107169857Y-108464047D02*
X107218238Y-108415666D01*
X107315000Y-108367285D01*
X107460142Y-108367285D01*
X107556904Y-108415666D01*
X107605285Y-108512428D01*
X107605285Y-109044619D01*
X108476142Y-108996238D02*
X108379380Y-109044619D01*
X108185857Y-109044619D01*
X108089095Y-108996238D01*
X108040714Y-108899476D01*
X108040714Y-108512428D01*
X108089095Y-108415666D01*
X108185857Y-108367285D01*
X108379380Y-108367285D01*
X108476142Y-108415666D01*
X108524523Y-108512428D01*
X108524523Y-108609190D01*
X108040714Y-108705952D01*
X109105095Y-109044619D02*
X109008333Y-108996238D01*
X108959952Y-108899476D01*
X108959952Y-108028619D01*
X109492142Y-109044619D02*
X109492142Y-108367285D01*
X109492142Y-108028619D02*
X109443761Y-108077000D01*
X109492142Y-108125380D01*
X109540523Y-108077000D01*
X109492142Y-108028619D01*
X109492142Y-108125380D01*
X110411380Y-109044619D02*
X110411380Y-108512428D01*
X110363000Y-108415666D01*
X110266238Y-108367285D01*
X110072714Y-108367285D01*
X109975952Y-108415666D01*
X110411380Y-108996238D02*
X110314619Y-109044619D01*
X110072714Y-109044619D01*
X109975952Y-108996238D01*
X109927571Y-108899476D01*
X109927571Y-108802714D01*
X109975952Y-108705952D01*
X110072714Y-108657571D01*
X110314619Y-108657571D01*
X110411380Y-108609190D01*
X110895190Y-108657571D02*
X111669285Y-108657571D01*
X112153095Y-109044619D02*
X112153095Y-108367285D01*
X112153095Y-108464047D02*
X112201476Y-108415666D01*
X112298238Y-108367285D01*
X112443380Y-108367285D01*
X112540142Y-108415666D01*
X112588523Y-108512428D01*
X112588523Y-109044619D01*
X112588523Y-108512428D02*
X112636904Y-108415666D01*
X112733666Y-108367285D01*
X112878809Y-108367285D01*
X112975571Y-108415666D01*
X113023952Y-108512428D01*
X113023952Y-109044619D01*
X113652904Y-109044619D02*
X113556142Y-108996238D01*
X113507761Y-108947857D01*
X113459380Y-108851095D01*
X113459380Y-108560809D01*
X113507761Y-108464047D01*
X113556142Y-108415666D01*
X113652904Y-108367285D01*
X113798047Y-108367285D01*
X113894809Y-108415666D01*
X113943190Y-108464047D01*
X113991571Y-108560809D01*
X113991571Y-108851095D01*
X113943190Y-108947857D01*
X113894809Y-108996238D01*
X113798047Y-109044619D01*
X113652904Y-109044619D01*
X114862428Y-109044619D02*
X114862428Y-108028619D01*
X114862428Y-108996238D02*
X114765666Y-109044619D01*
X114572142Y-109044619D01*
X114475380Y-108996238D01*
X114427000Y-108947857D01*
X114378619Y-108851095D01*
X114378619Y-108560809D01*
X114427000Y-108464047D01*
X114475380Y-108415666D01*
X114572142Y-108367285D01*
X114765666Y-108367285D01*
X114862428Y-108415666D01*
X115781666Y-108367285D02*
X115781666Y-109044619D01*
X115346238Y-108367285D02*
X115346238Y-108899476D01*
X115394619Y-108996238D01*
X115491380Y-109044619D01*
X115636523Y-109044619D01*
X115733285Y-108996238D01*
X115781666Y-108947857D01*
X116410619Y-109044619D02*
X116313857Y-108996238D01*
X116265476Y-108899476D01*
X116265476Y-108028619D01*
X117233095Y-109044619D02*
X117233095Y-108512428D01*
X117184714Y-108415666D01*
X117087952Y-108367285D01*
X116894428Y-108367285D01*
X116797666Y-108415666D01*
X117233095Y-108996238D02*
X117136333Y-109044619D01*
X116894428Y-109044619D01*
X116797666Y-108996238D01*
X116749285Y-108899476D01*
X116749285Y-108802714D01*
X116797666Y-108705952D01*
X116894428Y-108657571D01*
X117136333Y-108657571D01*
X117233095Y-108609190D01*
X117716904Y-109044619D02*
X117716904Y-108367285D01*
X117716904Y-108560809D02*
X117765285Y-108464047D01*
X117813666Y-108415666D01*
X117910428Y-108367285D01*
X118007190Y-108367285D01*
X118345857Y-108657571D02*
X119119952Y-108657571D01*
X120039190Y-109044619D02*
X120039190Y-108028619D01*
X120039190Y-108996238D02*
X119942428Y-109044619D01*
X119748904Y-109044619D01*
X119652142Y-108996238D01*
X119603761Y-108947857D01*
X119555380Y-108851095D01*
X119555380Y-108560809D01*
X119603761Y-108464047D01*
X119652142Y-108415666D01*
X119748904Y-108367285D01*
X119942428Y-108367285D01*
X120039190Y-108415666D01*
X120910047Y-108996238D02*
X120813285Y-109044619D01*
X120619761Y-109044619D01*
X120523000Y-108996238D01*
X120474619Y-108899476D01*
X120474619Y-108512428D01*
X120523000Y-108415666D01*
X120619761Y-108367285D01*
X120813285Y-108367285D01*
X120910047Y-108415666D01*
X120958428Y-108512428D01*
X120958428Y-108609190D01*
X120474619Y-108705952D01*
X121297095Y-108367285D02*
X121539000Y-109044619D01*
X121780904Y-108367285D01*
X122167952Y-109044619D02*
X122167952Y-108367285D01*
X122167952Y-108028619D02*
X122119571Y-108077000D01*
X122167952Y-108125380D01*
X122216333Y-108077000D01*
X122167952Y-108028619D01*
X122167952Y-108125380D01*
X123087190Y-108996238D02*
X122990428Y-109044619D01*
X122796904Y-109044619D01*
X122700142Y-108996238D01*
X122651761Y-108947857D01*
X122603380Y-108851095D01*
X122603380Y-108560809D01*
X122651761Y-108464047D01*
X122700142Y-108415666D01*
X122796904Y-108367285D01*
X122990428Y-108367285D01*
X123087190Y-108415666D01*
X123909666Y-108996238D02*
X123812904Y-109044619D01*
X123619380Y-109044619D01*
X123522619Y-108996238D01*
X123474238Y-108899476D01*
X123474238Y-108512428D01*
X123522619Y-108415666D01*
X123619380Y-108367285D01*
X123812904Y-108367285D01*
X123909666Y-108415666D01*
X123958047Y-108512428D01*
X123958047Y-108609190D01*
X123474238Y-108705952D01*
X124345095Y-108996238D02*
X124441857Y-109044619D01*
X124635380Y-109044619D01*
X124732142Y-108996238D01*
X124780523Y-108899476D01*
X124780523Y-108851095D01*
X124732142Y-108754333D01*
X124635380Y-108705952D01*
X124490238Y-108705952D01*
X124393476Y-108657571D01*
X124345095Y-108560809D01*
X124345095Y-108512428D01*
X124393476Y-108415666D01*
X124490238Y-108367285D01*
X124635380Y-108367285D01*
X124732142Y-108415666D01*
D11*
X86184619Y-97294095D02*
X86910333Y-97294095D01*
X87055476Y-97342476D01*
X87152238Y-97439238D01*
X87200619Y-97584380D01*
X87200619Y-97681142D01*
X87200619Y-96374857D02*
X86668428Y-96374857D01*
X86571666Y-96423238D01*
X86523285Y-96520000D01*
X86523285Y-96713523D01*
X86571666Y-96810285D01*
X87152238Y-96374857D02*
X87200619Y-96471619D01*
X87200619Y-96713523D01*
X87152238Y-96810285D01*
X87055476Y-96858666D01*
X86958714Y-96858666D01*
X86861952Y-96810285D01*
X86813571Y-96713523D01*
X86813571Y-96471619D01*
X86765190Y-96374857D01*
X86523285Y-95891047D02*
X87200619Y-95891047D01*
X86620047Y-95891047D02*
X86571666Y-95842666D01*
X86523285Y-95745904D01*
X86523285Y-95600761D01*
X86571666Y-95504000D01*
X86668428Y-95455619D01*
X87200619Y-95455619D01*
X87152238Y-94584761D02*
X87200619Y-94681523D01*
X87200619Y-94875047D01*
X87152238Y-94971809D01*
X87055476Y-95020190D01*
X86668428Y-95020190D01*
X86571666Y-94971809D01*
X86523285Y-94875047D01*
X86523285Y-94681523D01*
X86571666Y-94584761D01*
X86668428Y-94536380D01*
X86765190Y-94536380D01*
X86861952Y-95020190D01*
X87200619Y-93955809D02*
X87152238Y-94052571D01*
X87055476Y-94100952D01*
X86184619Y-94100952D01*
X87200619Y-93568761D02*
X86523285Y-93568761D01*
X86184619Y-93568761D02*
X86233000Y-93617142D01*
X86281380Y-93568761D01*
X86233000Y-93520380D01*
X86184619Y-93568761D01*
X86281380Y-93568761D01*
X87200619Y-92649523D02*
X86668428Y-92649523D01*
X86571666Y-92697904D01*
X86523285Y-92794666D01*
X86523285Y-92988190D01*
X86571666Y-93084952D01*
X87152238Y-92649523D02*
X87200619Y-92746285D01*
X87200619Y-92988190D01*
X87152238Y-93084952D01*
X87055476Y-93133333D01*
X86958714Y-93133333D01*
X86861952Y-93084952D01*
X86813571Y-92988190D01*
X86813571Y-92746285D01*
X86765190Y-92649523D01*
X87200619Y-91391619D02*
X86184619Y-91391619D01*
X86910333Y-91052952D01*
X86184619Y-90714285D01*
X87200619Y-90714285D01*
X87200619Y-90085333D02*
X87152238Y-90182095D01*
X87103857Y-90230476D01*
X87007095Y-90278857D01*
X86716809Y-90278857D01*
X86620047Y-90230476D01*
X86571666Y-90182095D01*
X86523285Y-90085333D01*
X86523285Y-89940190D01*
X86571666Y-89843428D01*
X86620047Y-89795047D01*
X86716809Y-89746666D01*
X87007095Y-89746666D01*
X87103857Y-89795047D01*
X87152238Y-89843428D01*
X87200619Y-89940190D01*
X87200619Y-90085333D01*
X87200619Y-88875809D02*
X86184619Y-88875809D01*
X87152238Y-88875809D02*
X87200619Y-88972571D01*
X87200619Y-89166095D01*
X87152238Y-89262857D01*
X87103857Y-89311238D01*
X87007095Y-89359619D01*
X86716809Y-89359619D01*
X86620047Y-89311238D01*
X86571666Y-89262857D01*
X86523285Y-89166095D01*
X86523285Y-88972571D01*
X86571666Y-88875809D01*
X86523285Y-87956571D02*
X87200619Y-87956571D01*
X86523285Y-88392000D02*
X87055476Y-88392000D01*
X87152238Y-88343619D01*
X87200619Y-88246857D01*
X87200619Y-88101714D01*
X87152238Y-88004952D01*
X87103857Y-87956571D01*
X87200619Y-87327619D02*
X87152238Y-87424380D01*
X87055476Y-87472761D01*
X86184619Y-87472761D01*
X87200619Y-86505142D02*
X86668428Y-86505142D01*
X86571666Y-86553523D01*
X86523285Y-86650285D01*
X86523285Y-86843809D01*
X86571666Y-86940571D01*
X87152238Y-86505142D02*
X87200619Y-86601904D01*
X87200619Y-86843809D01*
X87152238Y-86940571D01*
X87055476Y-86988952D01*
X86958714Y-86988952D01*
X86861952Y-86940571D01*
X86813571Y-86843809D01*
X86813571Y-86601904D01*
X86765190Y-86505142D01*
X87200619Y-86021333D02*
X86523285Y-86021333D01*
X86716809Y-86021333D02*
X86620047Y-85972952D01*
X86571666Y-85924571D01*
X86523285Y-85827809D01*
X86523285Y-85731047D01*
X87200619Y-84618285D02*
X86184619Y-84618285D01*
X86184619Y-84376380D01*
X86233000Y-84231238D01*
X86329761Y-84134476D01*
X86426523Y-84086095D01*
X86620047Y-84037714D01*
X86765190Y-84037714D01*
X86958714Y-84086095D01*
X87055476Y-84134476D01*
X87152238Y-84231238D01*
X87200619Y-84376380D01*
X87200619Y-84618285D01*
X87152238Y-83215238D02*
X87200619Y-83312000D01*
X87200619Y-83505523D01*
X87152238Y-83602285D01*
X87055476Y-83650666D01*
X86668428Y-83650666D01*
X86571666Y-83602285D01*
X86523285Y-83505523D01*
X86523285Y-83312000D01*
X86571666Y-83215238D01*
X86668428Y-83166857D01*
X86765190Y-83166857D01*
X86861952Y-83650666D01*
X86523285Y-82828190D02*
X87200619Y-82586285D01*
X86523285Y-82344380D01*
X87200619Y-81957333D02*
X86523285Y-81957333D01*
X86184619Y-81957333D02*
X86233000Y-82005714D01*
X86281380Y-81957333D01*
X86233000Y-81908952D01*
X86184619Y-81957333D01*
X86281380Y-81957333D01*
X87152238Y-81038095D02*
X87200619Y-81134857D01*
X87200619Y-81328380D01*
X87152238Y-81425142D01*
X87103857Y-81473523D01*
X87007095Y-81521904D01*
X86716809Y-81521904D01*
X86620047Y-81473523D01*
X86571666Y-81425142D01*
X86523285Y-81328380D01*
X86523285Y-81134857D01*
X86571666Y-81038095D01*
X87152238Y-80215619D02*
X87200619Y-80312380D01*
X87200619Y-80505904D01*
X87152238Y-80602666D01*
X87055476Y-80651047D01*
X86668428Y-80651047D01*
X86571666Y-80602666D01*
X86523285Y-80505904D01*
X86523285Y-80312380D01*
X86571666Y-80215619D01*
X86668428Y-80167238D01*
X86765190Y-80167238D01*
X86861952Y-80651047D01*
X88978619Y-96229714D02*
X87962619Y-96229714D01*
X88349666Y-96229714D02*
X88301285Y-96132952D01*
X88301285Y-95939428D01*
X88349666Y-95842666D01*
X88398047Y-95794285D01*
X88494809Y-95745904D01*
X88785095Y-95745904D01*
X88881857Y-95794285D01*
X88930238Y-95842666D01*
X88978619Y-95939428D01*
X88978619Y-96132952D01*
X88930238Y-96229714D01*
X88978619Y-94875047D02*
X88446428Y-94875047D01*
X88349666Y-94923428D01*
X88301285Y-95020190D01*
X88301285Y-95213714D01*
X88349666Y-95310476D01*
X88930238Y-94875047D02*
X88978619Y-94971809D01*
X88978619Y-95213714D01*
X88930238Y-95310476D01*
X88833476Y-95358857D01*
X88736714Y-95358857D01*
X88639952Y-95310476D01*
X88591571Y-95213714D01*
X88591571Y-94971809D01*
X88543190Y-94875047D01*
X88930238Y-93955809D02*
X88978619Y-94052571D01*
X88978619Y-94246095D01*
X88930238Y-94342857D01*
X88881857Y-94391238D01*
X88785095Y-94439619D01*
X88494809Y-94439619D01*
X88398047Y-94391238D01*
X88349666Y-94342857D01*
X88301285Y-94246095D01*
X88301285Y-94052571D01*
X88349666Y-93955809D01*
X88978619Y-93520380D02*
X87962619Y-93520380D01*
X88591571Y-93423619D02*
X88978619Y-93133333D01*
X88301285Y-93133333D02*
X88688333Y-93520380D01*
X88978619Y-92552761D02*
X88930238Y-92649523D01*
X88833476Y-92697904D01*
X87962619Y-92697904D01*
X88978619Y-92165714D02*
X88301285Y-92165714D01*
X87962619Y-92165714D02*
X88011000Y-92214095D01*
X88059380Y-92165714D01*
X88011000Y-92117333D01*
X87962619Y-92165714D01*
X88059380Y-92165714D01*
X88301285Y-91246476D02*
X89123761Y-91246476D01*
X89220523Y-91294857D01*
X89268904Y-91343238D01*
X89317285Y-91440000D01*
X89317285Y-91585142D01*
X89268904Y-91681904D01*
X88930238Y-91246476D02*
X88978619Y-91343238D01*
X88978619Y-91536761D01*
X88930238Y-91633523D01*
X88881857Y-91681904D01*
X88785095Y-91730285D01*
X88494809Y-91730285D01*
X88398047Y-91681904D01*
X88349666Y-91633523D01*
X88301285Y-91536761D01*
X88301285Y-91343238D01*
X88349666Y-91246476D01*
X88978619Y-90762666D02*
X87962619Y-90762666D01*
X88978619Y-90327238D02*
X88446428Y-90327238D01*
X88349666Y-90375619D01*
X88301285Y-90472380D01*
X88301285Y-90617523D01*
X88349666Y-90714285D01*
X88398047Y-90762666D01*
X88301285Y-89988571D02*
X88301285Y-89601523D01*
X87962619Y-89843428D02*
X88833476Y-89843428D01*
X88930238Y-89795047D01*
X88978619Y-89698285D01*
X88978619Y-89601523D01*
X89075380Y-89504761D02*
X89075380Y-88730666D01*
X88930238Y-88053333D02*
X88978619Y-88150095D01*
X88978619Y-88343619D01*
X88930238Y-88440380D01*
X88881857Y-88488761D01*
X88785095Y-88537142D01*
X88494809Y-88537142D01*
X88398047Y-88488761D01*
X88349666Y-88440380D01*
X88301285Y-88343619D01*
X88301285Y-88150095D01*
X88349666Y-88053333D01*
X88978619Y-87472761D02*
X88930238Y-87569523D01*
X88881857Y-87617904D01*
X88785095Y-87666285D01*
X88494809Y-87666285D01*
X88398047Y-87617904D01*
X88349666Y-87569523D01*
X88301285Y-87472761D01*
X88301285Y-87327619D01*
X88349666Y-87230857D01*
X88398047Y-87182476D01*
X88494809Y-87134095D01*
X88785095Y-87134095D01*
X88881857Y-87182476D01*
X88930238Y-87230857D01*
X88978619Y-87327619D01*
X88978619Y-87472761D01*
X88301285Y-86698666D02*
X88978619Y-86698666D01*
X88398047Y-86698666D02*
X88349666Y-86650285D01*
X88301285Y-86553523D01*
X88301285Y-86408380D01*
X88349666Y-86311619D01*
X88446428Y-86263238D01*
X88978619Y-86263238D01*
X88301285Y-85924571D02*
X88301285Y-85537523D01*
X87962619Y-85779428D02*
X88833476Y-85779428D01*
X88930238Y-85731047D01*
X88978619Y-85634285D01*
X88978619Y-85537523D01*
X88978619Y-85198857D02*
X88301285Y-85198857D01*
X88494809Y-85198857D02*
X88398047Y-85150476D01*
X88349666Y-85102095D01*
X88301285Y-85005333D01*
X88301285Y-84908571D01*
X88978619Y-84424761D02*
X88930238Y-84521523D01*
X88881857Y-84569904D01*
X88785095Y-84618285D01*
X88494809Y-84618285D01*
X88398047Y-84569904D01*
X88349666Y-84521523D01*
X88301285Y-84424761D01*
X88301285Y-84279619D01*
X88349666Y-84182857D01*
X88398047Y-84134476D01*
X88494809Y-84086095D01*
X88785095Y-84086095D01*
X88881857Y-84134476D01*
X88930238Y-84182857D01*
X88978619Y-84279619D01*
X88978619Y-84424761D01*
X88978619Y-83505523D02*
X88930238Y-83602285D01*
X88833476Y-83650666D01*
X87962619Y-83650666D01*
X88978619Y-82973333D02*
X88930238Y-83070095D01*
X88833476Y-83118476D01*
X87962619Y-83118476D01*
X88930238Y-82199238D02*
X88978619Y-82296000D01*
X88978619Y-82489523D01*
X88930238Y-82586285D01*
X88833476Y-82634666D01*
X88446428Y-82634666D01*
X88349666Y-82586285D01*
X88301285Y-82489523D01*
X88301285Y-82296000D01*
X88349666Y-82199238D01*
X88446428Y-82150857D01*
X88543190Y-82150857D01*
X88639952Y-82634666D01*
X88978619Y-81715428D02*
X88301285Y-81715428D01*
X88494809Y-81715428D02*
X88398047Y-81667047D01*
X88349666Y-81618666D01*
X88301285Y-81521904D01*
X88301285Y-81425142D01*
X90079285Y-95939428D02*
X91095285Y-95939428D01*
X90127666Y-95939428D02*
X90079285Y-95842666D01*
X90079285Y-95649142D01*
X90127666Y-95552380D01*
X90176047Y-95504000D01*
X90272809Y-95455619D01*
X90563095Y-95455619D01*
X90659857Y-95504000D01*
X90708238Y-95552380D01*
X90756619Y-95649142D01*
X90756619Y-95842666D01*
X90708238Y-95939428D01*
X90756619Y-94584761D02*
X90224428Y-94584761D01*
X90127666Y-94633142D01*
X90079285Y-94729904D01*
X90079285Y-94923428D01*
X90127666Y-95020190D01*
X90708238Y-94584761D02*
X90756619Y-94681523D01*
X90756619Y-94923428D01*
X90708238Y-95020190D01*
X90611476Y-95068571D01*
X90514714Y-95068571D01*
X90417952Y-95020190D01*
X90369571Y-94923428D01*
X90369571Y-94681523D01*
X90321190Y-94584761D01*
X90756619Y-94100952D02*
X90079285Y-94100952D01*
X90272809Y-94100952D02*
X90176047Y-94052571D01*
X90127666Y-94004190D01*
X90079285Y-93907428D01*
X90079285Y-93810666D01*
X90079285Y-93617142D02*
X90079285Y-93230095D01*
X89740619Y-93472000D02*
X90611476Y-93472000D01*
X90708238Y-93423619D01*
X90756619Y-93326857D01*
X90756619Y-93230095D01*
X90853380Y-93133333D02*
X90853380Y-92359238D01*
X90079285Y-92117333D02*
X90756619Y-92117333D01*
X90176047Y-92117333D02*
X90127666Y-92068952D01*
X90079285Y-91972190D01*
X90079285Y-91827047D01*
X90127666Y-91730285D01*
X90224428Y-91681904D01*
X90756619Y-91681904D01*
X90079285Y-90762666D02*
X90756619Y-90762666D01*
X90079285Y-91198095D02*
X90611476Y-91198095D01*
X90708238Y-91149714D01*
X90756619Y-91052952D01*
X90756619Y-90907809D01*
X90708238Y-90811047D01*
X90659857Y-90762666D01*
X90756619Y-90278857D02*
X90079285Y-90278857D01*
X90176047Y-90278857D02*
X90127666Y-90230476D01*
X90079285Y-90133714D01*
X90079285Y-89988571D01*
X90127666Y-89891809D01*
X90224428Y-89843428D01*
X90756619Y-89843428D01*
X90224428Y-89843428D02*
X90127666Y-89795047D01*
X90079285Y-89698285D01*
X90079285Y-89553142D01*
X90127666Y-89456380D01*
X90224428Y-89408000D01*
X90756619Y-89408000D01*
X90756619Y-88924190D02*
X89740619Y-88924190D01*
X90127666Y-88924190D02*
X90079285Y-88827428D01*
X90079285Y-88633904D01*
X90127666Y-88537142D01*
X90176047Y-88488761D01*
X90272809Y-88440380D01*
X90563095Y-88440380D01*
X90659857Y-88488761D01*
X90708238Y-88537142D01*
X90756619Y-88633904D01*
X90756619Y-88827428D01*
X90708238Y-88924190D01*
X90708238Y-87617904D02*
X90756619Y-87714666D01*
X90756619Y-87908190D01*
X90708238Y-88004952D01*
X90611476Y-88053333D01*
X90224428Y-88053333D01*
X90127666Y-88004952D01*
X90079285Y-87908190D01*
X90079285Y-87714666D01*
X90127666Y-87617904D01*
X90224428Y-87569523D01*
X90321190Y-87569523D01*
X90417952Y-88053333D01*
X90756619Y-87134095D02*
X90079285Y-87134095D01*
X90272809Y-87134095D02*
X90176047Y-87085714D01*
X90127666Y-87037333D01*
X90079285Y-86940571D01*
X90079285Y-86843809D01*
X90659857Y-86505142D02*
X90708238Y-86456761D01*
X90756619Y-86505142D01*
X90708238Y-86553523D01*
X90659857Y-86505142D01*
X90756619Y-86505142D01*
X90127666Y-86505142D02*
X90176047Y-86456761D01*
X90224428Y-86505142D01*
X90176047Y-86553523D01*
X90127666Y-86505142D01*
X90224428Y-86505142D01*
X90756619Y-84715047D02*
X90756619Y-85295619D01*
X90756619Y-85005333D02*
X89740619Y-85005333D01*
X89885761Y-85102095D01*
X89982523Y-85198857D01*
X90030904Y-85295619D01*
X89837380Y-84328000D02*
X89789000Y-84279619D01*
X89740619Y-84182857D01*
X89740619Y-83940952D01*
X89789000Y-83844190D01*
X89837380Y-83795809D01*
X89934142Y-83747428D01*
X90030904Y-83747428D01*
X90176047Y-83795809D01*
X90756619Y-84376380D01*
X90756619Y-83747428D01*
X89740619Y-83408761D02*
X89740619Y-82731428D01*
X90756619Y-83166857D01*
X90756619Y-81812190D02*
X90756619Y-82392761D01*
X90756619Y-82102476D02*
X89740619Y-82102476D01*
X89885761Y-82199238D01*
X89982523Y-82295999D01*
X90030904Y-82392761D01*
X91518619Y-96786095D02*
X91518619Y-96689333D01*
X91567000Y-96592571D01*
X91615380Y-96544190D01*
X91712142Y-96495809D01*
X91905666Y-96447428D01*
X92147571Y-96447428D01*
X92341095Y-96495809D01*
X92437857Y-96544190D01*
X92486238Y-96592571D01*
X92534619Y-96689333D01*
X92534619Y-96786095D01*
X92486238Y-96882857D01*
X92437857Y-96931238D01*
X92341095Y-96979619D01*
X92147571Y-97028000D01*
X91905666Y-97028000D01*
X91712142Y-96979619D01*
X91615380Y-96931238D01*
X91567000Y-96882857D01*
X91518619Y-96786095D01*
X92534619Y-95963619D02*
X92534619Y-95770095D01*
X92486238Y-95673333D01*
X92437857Y-95624952D01*
X92292714Y-95528190D01*
X92099190Y-95479809D01*
X91712142Y-95479809D01*
X91615380Y-95528190D01*
X91567000Y-95576571D01*
X91518619Y-95673333D01*
X91518619Y-95866857D01*
X91567000Y-95963619D01*
X91615380Y-96012000D01*
X91712142Y-96060380D01*
X91954047Y-96060380D01*
X92050809Y-96012000D01*
X92099190Y-95963619D01*
X92147571Y-95866857D01*
X92147571Y-95673333D01*
X92099190Y-95576571D01*
X92050809Y-95528190D01*
X91954047Y-95479809D01*
X91470238Y-94318666D02*
X92776523Y-95189523D01*
X91615380Y-94028380D02*
X91567000Y-93980000D01*
X91518619Y-93883238D01*
X91518619Y-93641333D01*
X91567000Y-93544571D01*
X91615380Y-93496190D01*
X91712142Y-93447809D01*
X91808904Y-93447809D01*
X91954047Y-93496190D01*
X92534619Y-94076761D01*
X92534619Y-93447809D01*
X91518619Y-92818857D02*
X91518619Y-92722095D01*
X91567000Y-92625333D01*
X91615380Y-92576952D01*
X91712142Y-92528571D01*
X91905666Y-92480190D01*
X92147571Y-92480190D01*
X92341095Y-92528571D01*
X92437857Y-92576952D01*
X92486238Y-92625333D01*
X92534619Y-92722095D01*
X92534619Y-92818857D01*
X92486238Y-92915619D01*
X92437857Y-92964000D01*
X92341095Y-93012380D01*
X92147571Y-93060761D01*
X91905666Y-93060761D01*
X91712142Y-93012380D01*
X91615380Y-92964000D01*
X91567000Y-92915619D01*
X91518619Y-92818857D01*
X92534619Y-91512571D02*
X92534619Y-92093142D01*
X92534619Y-91802857D02*
X91518619Y-91802857D01*
X91663761Y-91899619D01*
X91760523Y-91996380D01*
X91808904Y-92093142D01*
X91954047Y-90932000D02*
X91905666Y-91028761D01*
X91857285Y-91077142D01*
X91760523Y-91125523D01*
X91712142Y-91125523D01*
X91615380Y-91077142D01*
X91567000Y-91028761D01*
X91518619Y-90932000D01*
X91518619Y-90738476D01*
X91567000Y-90641714D01*
X91615380Y-90593333D01*
X91712142Y-90544952D01*
X91760523Y-90544952D01*
X91857285Y-90593333D01*
X91905666Y-90641714D01*
X91954047Y-90738476D01*
X91954047Y-90932000D01*
X92002428Y-91028761D01*
X92050809Y-91077142D01*
X92147571Y-91125523D01*
X92341095Y-91125523D01*
X92437857Y-91077142D01*
X92486238Y-91028761D01*
X92534619Y-90932000D01*
X92534619Y-90738476D01*
X92486238Y-90641714D01*
X92437857Y-90593333D01*
X92341095Y-90544952D01*
X92147571Y-90544952D01*
X92050809Y-90593333D01*
X92002428Y-90641714D01*
X91954047Y-90738476D01*
X91857285Y-89432190D02*
X92534619Y-89190285D01*
X91857285Y-88948380D01*
X92486238Y-88174285D02*
X92534619Y-88271047D01*
X92534619Y-88464571D01*
X92486238Y-88561333D01*
X92389476Y-88609714D01*
X92002428Y-88609714D01*
X91905666Y-88561333D01*
X91857285Y-88464571D01*
X91857285Y-88271047D01*
X91905666Y-88174285D01*
X92002428Y-88125904D01*
X92099190Y-88125904D01*
X92195952Y-88609714D01*
X92534619Y-87690476D02*
X91857285Y-87690476D01*
X92050809Y-87690476D02*
X91954047Y-87642095D01*
X91905666Y-87593714D01*
X91857285Y-87496952D01*
X91857285Y-87400190D01*
X92534619Y-85755238D02*
X92534619Y-86335809D01*
X92534619Y-86045523D02*
X91518619Y-86045523D01*
X91663761Y-86142285D01*
X91760523Y-86239047D01*
X91808904Y-86335809D01*
X92437857Y-85319809D02*
X92486238Y-85271428D01*
X92534619Y-85319809D01*
X92486238Y-85368190D01*
X92437857Y-85319809D01*
X92534619Y-85319809D01*
X91518619Y-84642476D02*
X91518619Y-84545714D01*
X91567000Y-84448952D01*
X91615380Y-84400571D01*
X91712142Y-84352190D01*
X91905666Y-84303809D01*
X92147571Y-84303809D01*
X92341095Y-84352190D01*
X92437857Y-84400571D01*
X92486238Y-84448952D01*
X92534619Y-84545714D01*
X92534619Y-84642476D01*
X92486238Y-84739238D01*
X92437857Y-84787619D01*
X92341095Y-84836000D01*
X92147571Y-84884380D01*
X91905666Y-84884380D01*
X91712142Y-84836000D01*
X91615380Y-84787619D01*
X91567000Y-84739238D01*
X91518619Y-84642476D01*
X91518619Y-83191047D02*
X91518619Y-82562095D01*
X91905666Y-82900761D01*
X91905666Y-82755619D01*
X91954047Y-82658857D01*
X92002428Y-82610476D01*
X92099190Y-82562095D01*
X92341095Y-82562095D01*
X92437857Y-82610476D01*
X92486238Y-82658857D01*
X92534619Y-82755619D01*
X92534619Y-83045904D01*
X92486238Y-83142666D01*
X92437857Y-83191047D01*
X92534619Y-82223428D02*
X91857285Y-81691238D01*
X91857285Y-82223428D02*
X92534619Y-81691238D01*
X91615380Y-81352571D02*
X91567000Y-81304190D01*
X91518619Y-81207428D01*
X91518619Y-80965523D01*
X91567000Y-80868761D01*
X91615380Y-80820380D01*
X91712142Y-80772000D01*
X91808904Y-80772000D01*
X91954047Y-80820380D01*
X92534619Y-81400952D01*
X92534619Y-80772000D01*
D13*
G04 #@! TO.C,MDB1*
X132715000Y-71120000D02*
G75*
G03X132715000Y-71120000I-2540000J0D01*
G01*
X132715000Y-106680000D02*
G75*
G03X132715000Y-106680000I-2540000J0D01*
G01*
X92075000Y-101600000D02*
G75*
G03X92075000Y-101600000I-2540000J0D01*
G01*
X92075000Y-76200000D02*
G75*
G03X92075000Y-76200000I-2540000J0D01*
G01*
D15*
G04 #@! TO.C,J1*
X94842000Y-73340000D02*
X94842000Y-104460000D01*
X107342000Y-73340000D02*
X94842000Y-73340000D01*
X107342000Y-104460000D02*
X107342000Y-73340000D01*
X94842000Y-104460000D02*
X107342000Y-104460000D01*
G04 #@! TO.C,J2*
X113638000Y-73340000D02*
X113638000Y-104460000D01*
X126138000Y-73340000D02*
X113638000Y-73340000D01*
X126138000Y-104460000D02*
X126138000Y-73340000D01*
X113638000Y-104460000D02*
X126138000Y-104460000D01*
D16*
G04 #@! TO.C,J3*
X147230652Y-71387467D02*
G75*
G02X147230001Y-73389999I3899348J-1002533D01*
G01*
X147230000Y-71390000D02*
G75*
G02X147230000Y-73390000I0J-1000000D01*
G01*
X160030000Y-72390000D02*
G75*
G03X160030000Y-72390000I-8900000J0D01*
G01*
G04 #@! TO.C,J4*
X160030000Y-105410000D02*
G75*
G03X160030000Y-105410000I-8900000J0D01*
G01*
X147230000Y-104410000D02*
G75*
G02X147230000Y-106410000I0J-1000000D01*
G01*
X147230652Y-104407467D02*
G75*
G02X147230001Y-106409999I3899348J-1002533D01*
G01*
D13*
G04 #@! TO.C,L1*
X142748000Y-96012000D02*
X142748000Y-97028000D01*
X142240000Y-96520000D02*
X143256000Y-96520000D01*
X146050000Y-95250000D02*
X146050000Y-97790000D01*
X146050000Y-97790000D02*
X138430000Y-97790000D01*
X138430000Y-97790000D02*
X138430000Y-95250000D01*
X138430000Y-95250000D02*
X146050000Y-95250000D01*
G04 #@! TO.C,L2*
X138430000Y-99060000D02*
X130810000Y-99060000D01*
X138430000Y-96520000D02*
X138430000Y-99060000D01*
X130810000Y-96520000D02*
X138430000Y-96520000D01*
X130810000Y-99060000D02*
X130810000Y-96520000D01*
X134620000Y-97790000D02*
X133604000Y-97790000D01*
X134112000Y-98298000D02*
X134112000Y-97282000D01*
G04 #@! TO.C,L3*
X134112000Y-95758000D02*
X134112000Y-94742000D01*
X134620000Y-95250000D02*
X133604000Y-95250000D01*
X130810000Y-96520000D02*
X130810000Y-93980000D01*
X130810000Y-93980000D02*
X138430000Y-93980000D01*
X138430000Y-93980000D02*
X138430000Y-96520000D01*
X138430000Y-96520000D02*
X130810000Y-96520000D01*
G04 #@! TO.C,L4*
X138430000Y-93980000D02*
X130810000Y-93980000D01*
X138430000Y-91440000D02*
X138430000Y-93980000D01*
X130810000Y-91440000D02*
X138430000Y-91440000D01*
X130810000Y-93980000D02*
X130810000Y-91440000D01*
X134620000Y-92710000D02*
X133604000Y-92710000D01*
X134112000Y-93218000D02*
X134112000Y-92202000D01*
G04 #@! TO.C,L5*
X134112000Y-90678000D02*
X134112000Y-89662000D01*
X134620000Y-90170000D02*
X133604000Y-90170000D01*
X130810000Y-91440000D02*
X130810000Y-88900000D01*
X130810000Y-88900000D02*
X138430000Y-88900000D01*
X138430000Y-88900000D02*
X138430000Y-91440000D01*
X138430000Y-91440000D02*
X130810000Y-91440000D01*
G04 #@! TO.C,L6*
X138430000Y-88900000D02*
X130810000Y-88900000D01*
X138430000Y-86360000D02*
X138430000Y-88900000D01*
X130810000Y-86360000D02*
X138430000Y-86360000D01*
X130810000Y-88900000D02*
X130810000Y-86360000D01*
X134620000Y-87630000D02*
X133604000Y-87630000D01*
X134112000Y-88138000D02*
X134112000Y-87122000D01*
G04 #@! TO.C,L7*
X138430000Y-86360000D02*
X130810000Y-86360000D01*
X138430000Y-83820000D02*
X138430000Y-86360000D01*
X130810000Y-83820000D02*
X138430000Y-83820000D01*
X130810000Y-86360000D02*
X130810000Y-83820000D01*
X134620000Y-85090000D02*
X133604000Y-85090000D01*
X134112000Y-85598000D02*
X134112000Y-84582000D01*
G04 #@! TO.C,L8*
X134112000Y-83058000D02*
X134112000Y-82042000D01*
X134620000Y-82550000D02*
X133604000Y-82550000D01*
X130810000Y-83820000D02*
X130810000Y-81280000D01*
X130810000Y-81280000D02*
X138430000Y-81280000D01*
X138430000Y-81280000D02*
X138430000Y-83820000D01*
X138430000Y-83820000D02*
X130810000Y-83820000D01*
G04 #@! TO.C,L9*
X134112000Y-80518000D02*
X134112000Y-79502000D01*
X134620000Y-80010000D02*
X133604000Y-80010000D01*
X130810000Y-81280000D02*
X130810000Y-78740000D01*
X130810000Y-78740000D02*
X138430000Y-78740000D01*
X138430000Y-78740000D02*
X138430000Y-81280000D01*
X138430000Y-81280000D02*
X130810000Y-81280000D01*
G04 #@! TO.C,L10*
X134112000Y-77978000D02*
X134112000Y-76962000D01*
X134620000Y-77470000D02*
X133604000Y-77470000D01*
X130810000Y-78740000D02*
X130810000Y-76200000D01*
X130810000Y-76200000D02*
X138430000Y-76200000D01*
X138430000Y-76200000D02*
X138430000Y-78740000D01*
X138430000Y-78740000D02*
X130810000Y-78740000D01*
G04 #@! TO.C,L11*
X138430000Y-101600000D02*
X130810000Y-101600000D01*
X138430000Y-99060000D02*
X138430000Y-101600000D01*
X130810000Y-99060000D02*
X138430000Y-99060000D01*
X130810000Y-101600000D02*
X130810000Y-99060000D01*
X134620000Y-100330000D02*
X133604000Y-100330000D01*
X134112000Y-100838000D02*
X134112000Y-99822000D01*
D16*
G04 #@! TO.C,P1*
X160270000Y-95800000D02*
X160270000Y-82000000D01*
X147470000Y-95800000D02*
X147470000Y-82000000D01*
X147470000Y-95800000D02*
X160270000Y-95800000D01*
X147470000Y-82000000D02*
X160270000Y-82000000D01*
G04 #@! TD*
G04 #@! TO.C,J1*
D12*
X93584032Y-100547714D02*
X93584032Y-101092000D01*
X93547746Y-101200857D01*
X93475175Y-101273428D01*
X93366317Y-101309714D01*
X93293746Y-101309714D01*
X94346032Y-101309714D02*
X93910603Y-101309714D01*
X94128317Y-101309714D02*
X94128317Y-100547714D01*
X94055746Y-100656571D01*
X93983175Y-100729142D01*
X93910603Y-100765428D01*
D17*
X95885000Y-79311500D02*
X95588666Y-79311500D01*
X95588666Y-79777166D02*
X95588666Y-78888166D01*
X96012000Y-78888166D01*
X96350666Y-79311500D02*
X96647000Y-79311500D01*
X96774000Y-79777166D02*
X96350666Y-79777166D01*
X96350666Y-78888166D01*
X96774000Y-78888166D01*
X97155000Y-79777166D02*
X97155000Y-78888166D01*
X97451333Y-79523166D01*
X97747666Y-78888166D01*
X97747666Y-79777166D01*
X98128666Y-79523166D02*
X98552000Y-79523166D01*
X98044000Y-79777166D02*
X98340333Y-78888166D01*
X98636666Y-79777166D01*
X99356333Y-79777166D02*
X98933000Y-79777166D01*
X98933000Y-78888166D01*
X99652666Y-79311500D02*
X99949000Y-79311500D01*
X100076000Y-79777166D02*
X99652666Y-79777166D01*
X99652666Y-78888166D01*
X100076000Y-78888166D01*
X101092000Y-79734833D02*
X101219000Y-79777166D01*
X101430666Y-79777166D01*
X101515333Y-79734833D01*
X101557666Y-79692500D01*
X101600000Y-79607833D01*
X101600000Y-79523166D01*
X101557666Y-79438500D01*
X101515333Y-79396166D01*
X101430666Y-79353833D01*
X101261333Y-79311500D01*
X101176666Y-79269166D01*
X101134333Y-79226833D01*
X101092000Y-79142166D01*
X101092000Y-79057500D01*
X101134333Y-78972833D01*
X101176666Y-78930500D01*
X101261333Y-78888166D01*
X101473000Y-78888166D01*
X101600000Y-78930500D01*
X102150333Y-78888166D02*
X102319666Y-78888166D01*
X102404333Y-78930500D01*
X102489000Y-79015166D01*
X102531333Y-79184500D01*
X102531333Y-79480833D01*
X102489000Y-79650166D01*
X102404333Y-79734833D01*
X102319666Y-79777166D01*
X102150333Y-79777166D01*
X102065666Y-79734833D01*
X101981000Y-79650166D01*
X101938666Y-79480833D01*
X101938666Y-79184500D01*
X101981000Y-79015166D01*
X102065666Y-78930500D01*
X102150333Y-78888166D01*
X103420333Y-79692500D02*
X103378000Y-79734833D01*
X103251000Y-79777166D01*
X103166333Y-79777166D01*
X103039333Y-79734833D01*
X102954666Y-79650166D01*
X102912333Y-79565500D01*
X102870000Y-79396166D01*
X102870000Y-79269166D01*
X102912333Y-79099833D01*
X102954666Y-79015166D01*
X103039333Y-78930500D01*
X103166333Y-78888166D01*
X103251000Y-78888166D01*
X103378000Y-78930500D01*
X103420333Y-78972833D01*
X103801333Y-79777166D02*
X103801333Y-78888166D01*
X104309333Y-79777166D02*
X103928333Y-79269166D01*
X104309333Y-78888166D02*
X103801333Y-79396166D01*
X104690333Y-79311500D02*
X104986666Y-79311500D01*
X105113666Y-79777166D02*
X104690333Y-79777166D01*
X104690333Y-78888166D01*
X105113666Y-78888166D01*
X105367666Y-78888166D02*
X105875666Y-78888166D01*
X105621666Y-79777166D02*
X105621666Y-78888166D01*
X106129666Y-79734833D02*
X106256666Y-79777166D01*
X106468333Y-79777166D01*
X106553000Y-79734833D01*
X106595333Y-79692500D01*
X106637666Y-79607833D01*
X106637666Y-79523166D01*
X106595333Y-79438500D01*
X106553000Y-79396166D01*
X106468333Y-79353833D01*
X106299000Y-79311500D01*
X106214333Y-79269166D01*
X106172000Y-79226833D01*
X106129666Y-79142166D01*
X106129666Y-79057500D01*
X106172000Y-78972833D01*
X106214333Y-78930500D01*
X106299000Y-78888166D01*
X106510666Y-78888166D01*
X106637666Y-78930500D01*
G04 #@! TO.C,J2*
D12*
X126887967Y-100547714D02*
X126887967Y-101092000D01*
X126851682Y-101200857D01*
X126779110Y-101273428D01*
X126670253Y-101309714D01*
X126597682Y-101309714D01*
X127214539Y-100620285D02*
X127250825Y-100584000D01*
X127323396Y-100547714D01*
X127504825Y-100547714D01*
X127577396Y-100584000D01*
X127613682Y-100620285D01*
X127649967Y-100692857D01*
X127649967Y-100765428D01*
X127613682Y-100874285D01*
X127178253Y-101309714D01*
X127649967Y-101309714D01*
D17*
X116564833Y-79777166D02*
X116564833Y-78888166D01*
X116861166Y-79523166D01*
X117157500Y-78888166D01*
X117157500Y-79777166D01*
X117538500Y-79523166D02*
X117961833Y-79523166D01*
X117453833Y-79777166D02*
X117750166Y-78888166D01*
X118046500Y-79777166D01*
X118766166Y-79777166D02*
X118342833Y-79777166D01*
X118342833Y-78888166D01*
X119062500Y-79311500D02*
X119358833Y-79311500D01*
X119485833Y-79777166D02*
X119062500Y-79777166D01*
X119062500Y-78888166D01*
X119485833Y-78888166D01*
X120544166Y-79777166D02*
X120544166Y-78888166D01*
X120882833Y-78888166D01*
X120967500Y-78930500D01*
X121009833Y-78972833D01*
X121052166Y-79057500D01*
X121052166Y-79184500D01*
X121009833Y-79269166D01*
X120967500Y-79311500D01*
X120882833Y-79353833D01*
X120544166Y-79353833D01*
X121433166Y-79777166D02*
X121433166Y-78888166D01*
X121856500Y-79777166D02*
X121856500Y-78888166D01*
X122364500Y-79777166D01*
X122364500Y-78888166D01*
X122745500Y-79734833D02*
X122872500Y-79777166D01*
X123084166Y-79777166D01*
X123168833Y-79734833D01*
X123211166Y-79692500D01*
X123253500Y-79607833D01*
X123253500Y-79523166D01*
X123211166Y-79438500D01*
X123168833Y-79396166D01*
X123084166Y-79353833D01*
X122914833Y-79311500D01*
X122830166Y-79269166D01*
X122787833Y-79226833D01*
X122745500Y-79142166D01*
X122745500Y-79057500D01*
X122787833Y-78972833D01*
X122830166Y-78930500D01*
X122914833Y-78888166D01*
X123126500Y-78888166D01*
X123253500Y-78930500D01*
G04 #@! TO.C,J3*
D12*
X155179032Y-80862714D02*
X155179032Y-81407000D01*
X155142746Y-81515857D01*
X155070175Y-81588428D01*
X154961317Y-81624714D01*
X154888746Y-81624714D01*
X155469317Y-80862714D02*
X155941032Y-80862714D01*
X155687032Y-81153000D01*
X155795889Y-81153000D01*
X155868460Y-81189285D01*
X155904746Y-81225571D01*
X155941032Y-81298142D01*
X155941032Y-81479571D01*
X155904746Y-81552142D01*
X155868460Y-81588428D01*
X155795889Y-81624714D01*
X155578175Y-81624714D01*
X155505603Y-81588428D01*
X155469317Y-81552142D01*
G04 #@! TO.C,J4*
X155179032Y-96102714D02*
X155179032Y-96647000D01*
X155142746Y-96755857D01*
X155070175Y-96828428D01*
X154961317Y-96864714D01*
X154888746Y-96864714D01*
X155868460Y-96356714D02*
X155868460Y-96864714D01*
X155687032Y-96066428D02*
X155505603Y-96610714D01*
X155977317Y-96610714D01*
G04 #@! TO.C,L1*
X146718110Y-96864714D02*
X146355253Y-96864714D01*
X146355253Y-96102714D01*
X147371253Y-96864714D02*
X146935825Y-96864714D01*
X147153539Y-96864714D02*
X147153539Y-96102714D01*
X147080967Y-96211571D01*
X147008396Y-96284142D01*
X146935825Y-96320428D01*
D11*
X141554476Y-96979619D02*
X141215809Y-96495809D01*
X140973904Y-96979619D02*
X140973904Y-95963619D01*
X141360952Y-95963619D01*
X141457714Y-96012000D01*
X141506095Y-96060380D01*
X141554476Y-96157142D01*
X141554476Y-96302285D01*
X141506095Y-96399047D01*
X141457714Y-96447428D01*
X141360952Y-96495809D01*
X140973904Y-96495809D01*
G04 #@! TO.C,L2*
D12*
X139098110Y-98769714D02*
X138735253Y-98769714D01*
X138735253Y-98007714D01*
X139315825Y-98080285D02*
X139352110Y-98044000D01*
X139424682Y-98007714D01*
X139606110Y-98007714D01*
X139678682Y-98044000D01*
X139714967Y-98080285D01*
X139751253Y-98152857D01*
X139751253Y-98225428D01*
X139714967Y-98334285D01*
X139279539Y-98769714D01*
X139751253Y-98769714D01*
D11*
X135886095Y-97282000D02*
X135789333Y-97233619D01*
X135644190Y-97233619D01*
X135499047Y-97282000D01*
X135402285Y-97378761D01*
X135353904Y-97475523D01*
X135305523Y-97669047D01*
X135305523Y-97814190D01*
X135353904Y-98007714D01*
X135402285Y-98104476D01*
X135499047Y-98201238D01*
X135644190Y-98249619D01*
X135740952Y-98249619D01*
X135886095Y-98201238D01*
X135934476Y-98152857D01*
X135934476Y-97814190D01*
X135740952Y-97814190D01*
G04 #@! TO.C,L3*
X135886095Y-94742000D02*
X135789333Y-94693619D01*
X135644190Y-94693619D01*
X135499047Y-94742000D01*
X135402285Y-94838761D01*
X135353904Y-94935523D01*
X135305523Y-95129047D01*
X135305523Y-95274190D01*
X135353904Y-95467714D01*
X135402285Y-95564476D01*
X135499047Y-95661238D01*
X135644190Y-95709619D01*
X135740952Y-95709619D01*
X135886095Y-95661238D01*
X135934476Y-95612857D01*
X135934476Y-95274190D01*
X135740952Y-95274190D01*
G04 #@! TO.C,L4*
X135886095Y-92202000D02*
X135789333Y-92153619D01*
X135644190Y-92153619D01*
X135499047Y-92202000D01*
X135402285Y-92298761D01*
X135353904Y-92395523D01*
X135305523Y-92589047D01*
X135305523Y-92734190D01*
X135353904Y-92927714D01*
X135402285Y-93024476D01*
X135499047Y-93121238D01*
X135644190Y-93169619D01*
X135740952Y-93169619D01*
X135886095Y-93121238D01*
X135934476Y-93072857D01*
X135934476Y-92734190D01*
X135740952Y-92734190D01*
G04 #@! TO.C,L5*
X135886095Y-89662000D02*
X135789333Y-89613619D01*
X135644190Y-89613619D01*
X135499047Y-89662000D01*
X135402285Y-89758761D01*
X135353904Y-89855523D01*
X135305523Y-90049047D01*
X135305523Y-90194190D01*
X135353904Y-90387714D01*
X135402285Y-90484476D01*
X135499047Y-90581238D01*
X135644190Y-90629619D01*
X135740952Y-90629619D01*
X135886095Y-90581238D01*
X135934476Y-90532857D01*
X135934476Y-90194190D01*
X135740952Y-90194190D01*
G04 #@! TO.C,L6*
X135886095Y-87122000D02*
X135789333Y-87073619D01*
X135644190Y-87073619D01*
X135499047Y-87122000D01*
X135402285Y-87218761D01*
X135353904Y-87315523D01*
X135305523Y-87509047D01*
X135305523Y-87654190D01*
X135353904Y-87847714D01*
X135402285Y-87944476D01*
X135499047Y-88041238D01*
X135644190Y-88089619D01*
X135740952Y-88089619D01*
X135886095Y-88041238D01*
X135934476Y-87992857D01*
X135934476Y-87654190D01*
X135740952Y-87654190D01*
G04 #@! TO.C,L7*
X135886095Y-84582000D02*
X135789333Y-84533619D01*
X135644190Y-84533619D01*
X135499047Y-84582000D01*
X135402285Y-84678761D01*
X135353904Y-84775523D01*
X135305523Y-84969047D01*
X135305523Y-85114190D01*
X135353904Y-85307714D01*
X135402285Y-85404476D01*
X135499047Y-85501238D01*
X135644190Y-85549619D01*
X135740952Y-85549619D01*
X135886095Y-85501238D01*
X135934476Y-85452857D01*
X135934476Y-85114190D01*
X135740952Y-85114190D01*
G04 #@! TO.C,L8*
D12*
X139098110Y-82894714D02*
X138735253Y-82894714D01*
X138735253Y-82132714D01*
X139460967Y-82459285D02*
X139388396Y-82423000D01*
X139352110Y-82386714D01*
X139315825Y-82314142D01*
X139315825Y-82277857D01*
X139352110Y-82205285D01*
X139388396Y-82169000D01*
X139460967Y-82132714D01*
X139606110Y-82132714D01*
X139678682Y-82169000D01*
X139714967Y-82205285D01*
X139751253Y-82277857D01*
X139751253Y-82314142D01*
X139714967Y-82386714D01*
X139678682Y-82423000D01*
X139606110Y-82459285D01*
X139460967Y-82459285D01*
X139388396Y-82495571D01*
X139352110Y-82531857D01*
X139315825Y-82604428D01*
X139315825Y-82749571D01*
X139352110Y-82822142D01*
X139388396Y-82858428D01*
X139460967Y-82894714D01*
X139606110Y-82894714D01*
X139678682Y-82858428D01*
X139714967Y-82822142D01*
X139751253Y-82749571D01*
X139751253Y-82604428D01*
X139714967Y-82531857D01*
X139678682Y-82495571D01*
X139606110Y-82459285D01*
D11*
X135886095Y-82042000D02*
X135789333Y-81993619D01*
X135644190Y-81993619D01*
X135499047Y-82042000D01*
X135402285Y-82138761D01*
X135353904Y-82235523D01*
X135305523Y-82429047D01*
X135305523Y-82574190D01*
X135353904Y-82767714D01*
X135402285Y-82864476D01*
X135499047Y-82961238D01*
X135644190Y-83009619D01*
X135740952Y-83009619D01*
X135886095Y-82961238D01*
X135934476Y-82912857D01*
X135934476Y-82574190D01*
X135740952Y-82574190D01*
G04 #@! TO.C,L9*
D12*
X139098110Y-80354714D02*
X138735253Y-80354714D01*
X138735253Y-79592714D01*
X139388396Y-80354714D02*
X139533539Y-80354714D01*
X139606110Y-80318428D01*
X139642396Y-80282142D01*
X139714967Y-80173285D01*
X139751253Y-80028142D01*
X139751253Y-79737857D01*
X139714967Y-79665285D01*
X139678682Y-79629000D01*
X139606110Y-79592714D01*
X139460967Y-79592714D01*
X139388396Y-79629000D01*
X139352110Y-79665285D01*
X139315825Y-79737857D01*
X139315825Y-79919285D01*
X139352110Y-79991857D01*
X139388396Y-80028142D01*
X139460967Y-80064428D01*
X139606110Y-80064428D01*
X139678682Y-80028142D01*
X139714967Y-79991857D01*
X139751253Y-79919285D01*
D11*
X135886095Y-79502000D02*
X135789333Y-79453619D01*
X135644190Y-79453619D01*
X135499047Y-79502000D01*
X135402285Y-79598761D01*
X135353904Y-79695523D01*
X135305523Y-79889047D01*
X135305523Y-80034190D01*
X135353904Y-80227714D01*
X135402285Y-80324476D01*
X135499047Y-80421238D01*
X135644190Y-80469619D01*
X135740952Y-80469619D01*
X135886095Y-80421238D01*
X135934476Y-80372857D01*
X135934476Y-80034190D01*
X135740952Y-80034190D01*
G04 #@! TO.C,L10*
D12*
X139098110Y-77814714D02*
X138735253Y-77814714D01*
X138735253Y-77052714D01*
X139751253Y-77814714D02*
X139315825Y-77814714D01*
X139533539Y-77814714D02*
X139533539Y-77052714D01*
X139460967Y-77161571D01*
X139388396Y-77234142D01*
X139315825Y-77270428D01*
X140222967Y-77052714D02*
X140295539Y-77052714D01*
X140368110Y-77089000D01*
X140404396Y-77125285D01*
X140440682Y-77197857D01*
X140476967Y-77343000D01*
X140476967Y-77524428D01*
X140440682Y-77669571D01*
X140404396Y-77742142D01*
X140368110Y-77778428D01*
X140295539Y-77814714D01*
X140222967Y-77814714D01*
X140150396Y-77778428D01*
X140114110Y-77742142D01*
X140077825Y-77669571D01*
X140041539Y-77524428D01*
X140041539Y-77343000D01*
X140077825Y-77197857D01*
X140114110Y-77125285D01*
X140150396Y-77089000D01*
X140222967Y-77052714D01*
D11*
X135886095Y-76962000D02*
X135789333Y-76913619D01*
X135644190Y-76913619D01*
X135499047Y-76962000D01*
X135402285Y-77058761D01*
X135353904Y-77155523D01*
X135305523Y-77349047D01*
X135305523Y-77494190D01*
X135353904Y-77687714D01*
X135402285Y-77784476D01*
X135499047Y-77881238D01*
X135644190Y-77929619D01*
X135740952Y-77929619D01*
X135886095Y-77881238D01*
X135934476Y-77832857D01*
X135934476Y-77494190D01*
X135740952Y-77494190D01*
G04 #@! TO.C,L11*
D12*
X139098110Y-100674714D02*
X138735253Y-100674714D01*
X138735253Y-99912714D01*
X139751253Y-100674714D02*
X139315825Y-100674714D01*
X139533539Y-100674714D02*
X139533539Y-99912714D01*
X139460967Y-100021571D01*
X139388396Y-100094142D01*
X139315825Y-100130428D01*
X140476967Y-100674714D02*
X140041539Y-100674714D01*
X140259253Y-100674714D02*
X140259253Y-99912714D01*
X140186682Y-100021571D01*
X140114110Y-100094142D01*
X140041539Y-100130428D01*
D11*
X135886095Y-99822000D02*
X135789333Y-99773619D01*
X135644190Y-99773619D01*
X135499047Y-99822000D01*
X135402285Y-99918761D01*
X135353904Y-100015523D01*
X135305523Y-100209047D01*
X135305523Y-100354190D01*
X135353904Y-100547714D01*
X135402285Y-100644476D01*
X135499047Y-100741238D01*
X135644190Y-100789619D01*
X135740952Y-100789619D01*
X135886095Y-100741238D01*
X135934476Y-100692857D01*
X135934476Y-100354190D01*
X135740952Y-100354190D01*
G04 #@! TO.C,P1*
D12*
X145889889Y-82894714D02*
X145889889Y-82132714D01*
X146180175Y-82132714D01*
X146252746Y-82169000D01*
X146289032Y-82205285D01*
X146325317Y-82277857D01*
X146325317Y-82386714D01*
X146289032Y-82459285D01*
X146252746Y-82495571D01*
X146180175Y-82531857D01*
X145889889Y-82531857D01*
X147051032Y-82894714D02*
X146615603Y-82894714D01*
X146833317Y-82894714D02*
X146833317Y-82132714D01*
X146760746Y-82241571D01*
X146688175Y-82314142D01*
X146615603Y-82350428D01*
G04 #@! TD*
%LPC*%
D18*
G04 #@! TO.C,MDB1*
X130175000Y-71120000D03*
X130175000Y-106680000D03*
X89535000Y-101600000D03*
X89535000Y-76200000D03*
D19*
X88265000Y-106680000D03*
X90805000Y-106680000D03*
X93345000Y-106680000D03*
X95885000Y-106680000D03*
X98425000Y-106680000D03*
X100965000Y-106680000D03*
X103505000Y-106680000D03*
X106045000Y-106680000D03*
X108585000Y-106680000D03*
X111125000Y-106680000D03*
X113665000Y-106680000D03*
X116205000Y-106680000D03*
X118745000Y-106680000D03*
X121285000Y-106680000D03*
X123825000Y-106680000D03*
X126365000Y-106680000D03*
X126365000Y-71120000D03*
X123825000Y-71120000D03*
X121285000Y-71120000D03*
X118745000Y-71120000D03*
X116205000Y-71120000D03*
X113665000Y-71120000D03*
X111125000Y-71120000D03*
X108585000Y-71120000D03*
X106045000Y-71120000D03*
X103505000Y-71120000D03*
X100965000Y-71120000D03*
X98425000Y-71120000D03*
X95885000Y-71120000D03*
D20*
X88265000Y-71120000D03*
D19*
X93345000Y-71120000D03*
X90805000Y-71120000D03*
G04 #@! TD*
D21*
G04 #@! TO.C,J1*
X105352000Y-84790000D03*
X105352000Y-87530000D03*
X105352000Y-90270000D03*
X105352000Y-93010000D03*
X96832000Y-83420000D03*
X96832000Y-86160000D03*
X96832000Y-88900000D03*
X96832000Y-91640000D03*
X96832000Y-94380000D03*
D22*
X101092000Y-74700000D03*
X101092000Y-103100000D03*
D23*
X97992000Y-101400000D03*
X97992000Y-76400000D03*
G04 #@! TD*
D21*
G04 #@! TO.C,J2*
X124148000Y-84790000D03*
X124148000Y-87530000D03*
X124148000Y-90270000D03*
X124148000Y-93010000D03*
X115628000Y-83420000D03*
X115628000Y-86160000D03*
X115628000Y-88900000D03*
X115628000Y-91640000D03*
X115628000Y-94380000D03*
D22*
X119888000Y-74700000D03*
X119888000Y-103100000D03*
D23*
X116788000Y-101400000D03*
X116788000Y-76400000D03*
G04 #@! TD*
D24*
G04 #@! TO.C,J3*
X151130000Y-72390000D03*
X149362200Y-74157800D03*
X149362200Y-70622200D03*
X152897800Y-70622200D03*
X152897800Y-74157800D03*
D25*
X144130000Y-72390000D03*
G04 #@! TD*
G04 #@! TO.C,J4*
X144130000Y-105410000D03*
D24*
X152897800Y-107177800D03*
X152897800Y-103642200D03*
X149362200Y-103642200D03*
X149362200Y-107177800D03*
X151130000Y-105410000D03*
G04 #@! TD*
D26*
G04 #@! TO.C,L1*
X144780000Y-96520000D03*
X139700000Y-96520000D03*
G04 #@! TD*
G04 #@! TO.C,L2*
X137160000Y-97790000D03*
X132080000Y-97790000D03*
G04 #@! TD*
G04 #@! TO.C,L3*
X132080000Y-95250000D03*
X137160000Y-95250000D03*
G04 #@! TD*
G04 #@! TO.C,L4*
X137160000Y-92710000D03*
X132080000Y-92710000D03*
G04 #@! TD*
G04 #@! TO.C,L5*
X132080000Y-90170000D03*
X137160000Y-90170000D03*
G04 #@! TD*
G04 #@! TO.C,L6*
X137160000Y-87630000D03*
X132080000Y-87630000D03*
G04 #@! TD*
G04 #@! TO.C,L7*
X137160000Y-85090000D03*
X132080000Y-85090000D03*
G04 #@! TD*
G04 #@! TO.C,L8*
X132080000Y-82550000D03*
X137160000Y-82550000D03*
G04 #@! TD*
G04 #@! TO.C,L9*
X132080000Y-80010000D03*
X137160000Y-80010000D03*
G04 #@! TD*
G04 #@! TO.C,L10*
X132080000Y-77470000D03*
X137160000Y-77470000D03*
G04 #@! TD*
G04 #@! TO.C,L11*
X137160000Y-100330000D03*
X132080000Y-100330000D03*
G04 #@! TD*
D27*
G04 #@! TO.C,P1*
X153670000Y-84700000D03*
X153670000Y-93100000D03*
D28*
X146370000Y-84700000D03*
D29*
X146370000Y-88900000D03*
X146370000Y-93100000D03*
X140870000Y-84700000D03*
X140870000Y-88900000D03*
X140870000Y-93100000D03*
G04 #@! TD*
M02*
