G04 #@! TF.GenerationSoftware,KiCad,Pcbnew,6.0.0-rc1-unknown-576a0af~66~ubuntu18.04.1*
G04 #@! TF.CreationDate,2018-10-20T17:19:33-04:00*
G04 #@! TF.ProjectId,backlight_controller_3x2,6261636B6C696768745F636F6E74726F,1.1*
G04 #@! TF.SameCoordinates,Original*
G04 #@! TF.FileFunction,Legend,Bot*
G04 #@! TF.FilePolarity,Positive*
%FSLAX46Y46*%
G04 Gerber Fmt 4.6, Leading zero omitted, Abs format (unit mm)*
G04 Created by KiCad (PCBNEW 6.0.0-rc1-unknown-576a0af~66~ubuntu18.04.1) date Sat 20 Oct 2018 05:19:33 PM EDT*
%MOMM*%
%LPD*%
G01*
G04 APERTURE LIST*
%ADD10C,0.228600*%
%ADD11C,0.127000*%
%ADD12C,0.381000*%
%ADD13C,1.000000*%
%ADD14C,0.190500*%
%ADD15C,0.254000*%
%ADD16C,2.200000*%
%ADD17R,1.270000X2.540000*%
%ADD18C,3.556000*%
%ADD19O,1.854200X2.540000*%
%ADD20R,1.854200X2.540000*%
%ADD21R,5.160000X4.000000*%
%ADD22R,1.640000X1.800000*%
%ADD23R,5.800000X6.400000*%
%ADD24R,0.800000X2.200000*%
%ADD25O,2.032000X1.524000*%
%ADD26C,4.000000*%
%ADD27R,4.000000X3.000000*%
%ADD28O,4.000000X3.000000*%
%ADD29R,2.540000X1.270000*%
%ADD30R,2.140000X0.740000*%
%ADD31C,2.500000*%
%ADD32R,0.800000X0.900000*%
G04 APERTURE END LIST*
D10*
X156210000Y-67945000D02*
X85725000Y-67945000D01*
X156210000Y-109855000D02*
X156210000Y-67945000D01*
X85725000Y-109855000D02*
X156210000Y-109855000D01*
X85725000Y-67945000D02*
X85725000Y-109855000D01*
D11*
G04 #@! TO.C,R5*
X136652000Y-105918000D02*
X138176000Y-105918000D01*
X138176000Y-105918000D02*
X138176000Y-108712000D01*
X138176000Y-108712000D02*
X136652000Y-108712000D01*
X135128000Y-108712000D02*
X133604000Y-108712000D01*
X133604000Y-108712000D02*
X133604000Y-105918000D01*
X133604000Y-105918000D02*
X135128000Y-105918000D01*
D12*
G04 #@! TO.C,MDB1*
X127635000Y-69850000D02*
X86995000Y-69850000D01*
X127635000Y-72390000D02*
X127635000Y-69850000D01*
X86995000Y-72390000D02*
X127635000Y-72390000D01*
X86995000Y-69850000D02*
X86995000Y-72390000D01*
X127635000Y-105410000D02*
X86995000Y-105410000D01*
X127635000Y-107950000D02*
X127635000Y-105410000D01*
X86995000Y-107950000D02*
X127635000Y-107950000D01*
X86995000Y-105410000D02*
X86995000Y-107950000D01*
D11*
G04 #@! TO.C,C1*
X119253000Y-90297000D02*
X117729000Y-90297000D01*
X117729000Y-90297000D02*
X117729000Y-87503000D01*
X117729000Y-87503000D02*
X119253000Y-87503000D01*
X120777000Y-87503000D02*
X122301000Y-87503000D01*
X122301000Y-87503000D02*
X122301000Y-90297000D01*
X122301000Y-90297000D02*
X120777000Y-90297000D01*
G04 #@! TO.C,C2*
X124079000Y-87503000D02*
X125603000Y-87503000D01*
X124079000Y-90297000D02*
X124079000Y-87503000D01*
X125603000Y-90297000D02*
X124079000Y-90297000D01*
X128651000Y-90297000D02*
X127127000Y-90297000D01*
X128651000Y-87503000D02*
X128651000Y-90297000D01*
X127127000Y-87503000D02*
X128651000Y-87503000D01*
G04 #@! TO.C,C3*
X113157000Y-91313000D02*
X114681000Y-91313000D01*
X114681000Y-91313000D02*
X114681000Y-94107000D01*
X114681000Y-94107000D02*
X113157000Y-94107000D01*
X111633000Y-94107000D02*
X110109000Y-94107000D01*
X110109000Y-94107000D02*
X110109000Y-91313000D01*
X110109000Y-91313000D02*
X111633000Y-91313000D01*
G04 #@! TO.C,C4*
X105537000Y-91313000D02*
X107061000Y-91313000D01*
X107061000Y-91313000D02*
X107061000Y-94107000D01*
X107061000Y-94107000D02*
X105537000Y-94107000D01*
X104013000Y-94107000D02*
X102489000Y-94107000D01*
X102489000Y-94107000D02*
X102489000Y-91313000D01*
X102489000Y-91313000D02*
X104013000Y-91313000D01*
G04 #@! TO.C,C5*
X97917000Y-91313000D02*
X99441000Y-91313000D01*
X99441000Y-91313000D02*
X99441000Y-94107000D01*
X99441000Y-94107000D02*
X97917000Y-94107000D01*
X96393000Y-94107000D02*
X94869000Y-94107000D01*
X94869000Y-94107000D02*
X94869000Y-91313000D01*
X94869000Y-91313000D02*
X96393000Y-91313000D01*
G04 #@! TO.C,C6*
X87249000Y-91313000D02*
X88773000Y-91313000D01*
X87249000Y-94107000D02*
X87249000Y-91313000D01*
X88773000Y-94107000D02*
X87249000Y-94107000D01*
X91821000Y-94107000D02*
X90297000Y-94107000D01*
X91821000Y-91313000D02*
X91821000Y-94107000D01*
X90297000Y-91313000D02*
X91821000Y-91313000D01*
D10*
G04 #@! TO.C,D1*
X108525000Y-77865000D02*
X108525000Y-73265000D01*
X108525000Y-73265000D02*
X101025000Y-73265000D01*
X101025000Y-73265000D02*
X101025000Y-77865000D01*
X101025000Y-77865000D02*
X108525000Y-77865000D01*
D12*
G04 #@! TO.C,HPS1*
X112618607Y-86935000D02*
G75*
G03X112618607Y-86935000I-223607J0D01*
G01*
X115645000Y-81345000D02*
X109145000Y-81345000D01*
X109145000Y-81345000D02*
X109145000Y-87565000D01*
X109145000Y-87565000D02*
X115645000Y-87565000D01*
X115645000Y-87565000D02*
X115645000Y-81345000D01*
G04 #@! TO.C,HPS2*
X104998607Y-86935000D02*
G75*
G03X104998607Y-86935000I-223607J0D01*
G01*
X108025000Y-81345000D02*
X101525000Y-81345000D01*
X101525000Y-81345000D02*
X101525000Y-87565000D01*
X101525000Y-87565000D02*
X108025000Y-87565000D01*
X108025000Y-87565000D02*
X108025000Y-81345000D01*
G04 #@! TO.C,HPS3*
X100405000Y-87565000D02*
X100405000Y-81345000D01*
X93905000Y-87565000D02*
X100405000Y-87565000D01*
X93905000Y-81345000D02*
X93905000Y-87565000D01*
X100405000Y-81345000D02*
X93905000Y-81345000D01*
X97378607Y-86935000D02*
G75*
G03X97378607Y-86935000I-223607J0D01*
G01*
G04 #@! TO.C,HPS4*
X92785000Y-87565000D02*
X92785000Y-81345000D01*
X86285000Y-87565000D02*
X92785000Y-87565000D01*
X86285000Y-81345000D02*
X86285000Y-87565000D01*
X92785000Y-81345000D02*
X86285000Y-81345000D01*
X89758607Y-86935000D02*
G75*
G03X89758607Y-86935000I-223607J0D01*
G01*
D11*
G04 #@! TO.C,R1*
X110998000Y-99441000D02*
X110998000Y-97917000D01*
X113792000Y-99441000D02*
X110998000Y-99441000D01*
X113792000Y-97917000D02*
X113792000Y-99441000D01*
X113792000Y-94869000D02*
X113792000Y-96393000D01*
X110998000Y-94869000D02*
X113792000Y-94869000D01*
X110998000Y-96393000D02*
X110998000Y-94869000D01*
G04 #@! TO.C,R2*
X103378000Y-99441000D02*
X103378000Y-97917000D01*
X106172000Y-99441000D02*
X103378000Y-99441000D01*
X106172000Y-97917000D02*
X106172000Y-99441000D01*
X106172000Y-94869000D02*
X106172000Y-96393000D01*
X103378000Y-94869000D02*
X106172000Y-94869000D01*
X103378000Y-96393000D02*
X103378000Y-94869000D01*
G04 #@! TO.C,R3*
X95758000Y-99441000D02*
X95758000Y-97917000D01*
X98552000Y-99441000D02*
X95758000Y-99441000D01*
X98552000Y-97917000D02*
X98552000Y-99441000D01*
X98552000Y-94869000D02*
X98552000Y-96393000D01*
X95758000Y-94869000D02*
X98552000Y-94869000D01*
X95758000Y-96393000D02*
X95758000Y-94869000D01*
G04 #@! TO.C,R4*
X88138000Y-96393000D02*
X88138000Y-94869000D01*
X88138000Y-94869000D02*
X90932000Y-94869000D01*
X90932000Y-94869000D02*
X90932000Y-96393000D01*
X90932000Y-97917000D02*
X90932000Y-99441000D01*
X90932000Y-99441000D02*
X88138000Y-99441000D01*
X88138000Y-99441000D02*
X88138000Y-97917000D01*
G04 #@! TO.C,R6*
X133604000Y-102108000D02*
X135128000Y-102108000D01*
X133604000Y-104902000D02*
X133604000Y-102108000D01*
X135128000Y-104902000D02*
X133604000Y-104902000D01*
X138176000Y-104902000D02*
X136652000Y-104902000D01*
X138176000Y-102108000D02*
X138176000Y-104902000D01*
X136652000Y-102108000D02*
X138176000Y-102108000D01*
G04 #@! TO.C,R7*
X136652000Y-72898000D02*
X138176000Y-72898000D01*
X138176000Y-72898000D02*
X138176000Y-75692000D01*
X138176000Y-75692000D02*
X136652000Y-75692000D01*
X135128000Y-75692000D02*
X133604000Y-75692000D01*
X133604000Y-75692000D02*
X133604000Y-72898000D01*
X133604000Y-72898000D02*
X135128000Y-72898000D01*
G04 #@! TO.C,R8*
X133604000Y-69088000D02*
X135128000Y-69088000D01*
X133604000Y-71882000D02*
X133604000Y-69088000D01*
X135128000Y-71882000D02*
X133604000Y-71882000D01*
X138176000Y-71882000D02*
X136652000Y-71882000D01*
X138176000Y-69088000D02*
X138176000Y-71882000D01*
X136652000Y-69088000D02*
X138176000Y-69088000D01*
D12*
G04 #@! TO.C,U1*
X121285000Y-102870000D02*
G75*
G03X121285000Y-102870000I-635000J0D01*
G01*
X119440000Y-104290000D02*
X119440000Y-91290000D01*
X119440000Y-91290000D02*
X126940000Y-91290000D01*
X126940000Y-91290000D02*
X126940000Y-104290000D01*
X126940000Y-104290000D02*
X119440000Y-104290000D01*
G04 #@! TO.C,U2*
X126940000Y-86510000D02*
X119440000Y-86510000D01*
X126940000Y-73510000D02*
X126940000Y-86510000D01*
X119440000Y-73510000D02*
X126940000Y-73510000D01*
X119440000Y-86510000D02*
X119440000Y-73510000D01*
X121285000Y-85090000D02*
G75*
G03X121285000Y-85090000I-635000J0D01*
G01*
D13*
G04 #@! TO.C,U3*
X149590000Y-75565000D02*
X147590000Y-75565000D01*
G04 #@! TO.C,U4*
X147590000Y-102235000D02*
X149590000Y-102235000D01*
G04 #@! TD*
G04 #@! TO.C,R5*
D14*
X139409714Y-107188000D02*
X139046857Y-106934000D01*
X139409714Y-106752571D02*
X138647714Y-106752571D01*
X138647714Y-107042857D01*
X138684000Y-107115428D01*
X138720285Y-107151714D01*
X138792857Y-107188000D01*
X138901714Y-107188000D01*
X138974285Y-107151714D01*
X139010571Y-107115428D01*
X139046857Y-107042857D01*
X139046857Y-106752571D01*
X138647714Y-107877428D02*
X138647714Y-107514571D01*
X139010571Y-107478285D01*
X138974285Y-107514571D01*
X138938000Y-107587142D01*
X138938000Y-107768571D01*
X138974285Y-107841142D01*
X139010571Y-107877428D01*
X139083142Y-107913714D01*
X139264571Y-107913714D01*
X139337142Y-107877428D01*
X139373428Y-107841142D01*
X139409714Y-107768571D01*
X139409714Y-107587142D01*
X139373428Y-107514571D01*
X139337142Y-107478285D01*
X133059714Y-106807000D02*
X133059714Y-106371571D01*
X133059714Y-106589285D02*
X132297714Y-106589285D01*
X132406571Y-106516714D01*
X132479142Y-106444142D01*
X132515428Y-106371571D01*
X132551714Y-107460142D02*
X133059714Y-107460142D01*
X132261428Y-107278714D02*
X132805714Y-107097285D01*
X132805714Y-107569000D01*
X132297714Y-108004428D02*
X132297714Y-108077000D01*
X132334000Y-108149571D01*
X132370285Y-108185857D01*
X132442857Y-108222142D01*
X132588000Y-108258428D01*
X132769428Y-108258428D01*
X132914571Y-108222142D01*
X132987142Y-108185857D01*
X133023428Y-108149571D01*
X133059714Y-108077000D01*
X133059714Y-108004428D01*
X133023428Y-107931857D01*
X132987142Y-107895571D01*
X132914571Y-107859285D01*
X132769428Y-107823000D01*
X132588000Y-107823000D01*
X132442857Y-107859285D01*
X132370285Y-107895571D01*
X132334000Y-107931857D01*
X132297714Y-108004428D01*
G04 #@! TO.C,C1*
X118237000Y-87267142D02*
X118273285Y-87303428D01*
X118382142Y-87339714D01*
X118454714Y-87339714D01*
X118563571Y-87303428D01*
X118636142Y-87230857D01*
X118672428Y-87158285D01*
X118708714Y-87013142D01*
X118708714Y-86904285D01*
X118672428Y-86759142D01*
X118636142Y-86686571D01*
X118563571Y-86614000D01*
X118454714Y-86577714D01*
X118382142Y-86577714D01*
X118273285Y-86614000D01*
X118237000Y-86650285D01*
X117511285Y-87339714D02*
X117946714Y-87339714D01*
X117729000Y-87339714D02*
X117729000Y-86577714D01*
X117801571Y-86686571D01*
X117874142Y-86759142D01*
X117946714Y-86795428D01*
X116422714Y-87648142D02*
X116422714Y-87720714D01*
X116459000Y-87793285D01*
X116495285Y-87829571D01*
X116567857Y-87865857D01*
X116713000Y-87902142D01*
X116894428Y-87902142D01*
X117039571Y-87865857D01*
X117112142Y-87829571D01*
X117148428Y-87793285D01*
X117184714Y-87720714D01*
X117184714Y-87648142D01*
X117148428Y-87575571D01*
X117112142Y-87539285D01*
X117039571Y-87503000D01*
X116894428Y-87466714D01*
X116713000Y-87466714D01*
X116567857Y-87503000D01*
X116495285Y-87539285D01*
X116459000Y-87575571D01*
X116422714Y-87648142D01*
X117112142Y-88228714D02*
X117148428Y-88265000D01*
X117184714Y-88228714D01*
X117148428Y-88192428D01*
X117112142Y-88228714D01*
X117184714Y-88228714D01*
X117184714Y-88990714D02*
X117184714Y-88555285D01*
X117184714Y-88773000D02*
X116422714Y-88773000D01*
X116531571Y-88700428D01*
X116604142Y-88627857D01*
X116640428Y-88555285D01*
X116676714Y-89643857D02*
X117184714Y-89643857D01*
X116676714Y-89317285D02*
X117075857Y-89317285D01*
X117148428Y-89353571D01*
X117184714Y-89426142D01*
X117184714Y-89535000D01*
X117148428Y-89607571D01*
X117112142Y-89643857D01*
X116785571Y-90260714D02*
X116785571Y-90006714D01*
X117184714Y-90006714D02*
X116422714Y-90006714D01*
X116422714Y-90369571D01*
G04 #@! TO.C,C2*
X128397000Y-87267142D02*
X128433285Y-87303428D01*
X128542142Y-87339714D01*
X128614714Y-87339714D01*
X128723571Y-87303428D01*
X128796142Y-87230857D01*
X128832428Y-87158285D01*
X128868714Y-87013142D01*
X128868714Y-86904285D01*
X128832428Y-86759142D01*
X128796142Y-86686571D01*
X128723571Y-86614000D01*
X128614714Y-86577714D01*
X128542142Y-86577714D01*
X128433285Y-86614000D01*
X128397000Y-86650285D01*
X128106714Y-86650285D02*
X128070428Y-86614000D01*
X127997857Y-86577714D01*
X127816428Y-86577714D01*
X127743857Y-86614000D01*
X127707571Y-86650285D01*
X127671285Y-86722857D01*
X127671285Y-86795428D01*
X127707571Y-86904285D01*
X128143000Y-87339714D01*
X127671285Y-87339714D01*
X129122714Y-87648142D02*
X129122714Y-87720714D01*
X129159000Y-87793285D01*
X129195285Y-87829571D01*
X129267857Y-87865857D01*
X129413000Y-87902142D01*
X129594428Y-87902142D01*
X129739571Y-87865857D01*
X129812142Y-87829571D01*
X129848428Y-87793285D01*
X129884714Y-87720714D01*
X129884714Y-87648142D01*
X129848428Y-87575571D01*
X129812142Y-87539285D01*
X129739571Y-87503000D01*
X129594428Y-87466714D01*
X129413000Y-87466714D01*
X129267857Y-87503000D01*
X129195285Y-87539285D01*
X129159000Y-87575571D01*
X129122714Y-87648142D01*
X129812142Y-88228714D02*
X129848428Y-88265000D01*
X129884714Y-88228714D01*
X129848428Y-88192428D01*
X129812142Y-88228714D01*
X129884714Y-88228714D01*
X129884714Y-88990714D02*
X129884714Y-88555285D01*
X129884714Y-88773000D02*
X129122714Y-88773000D01*
X129231571Y-88700428D01*
X129304142Y-88627857D01*
X129340428Y-88555285D01*
X129376714Y-89643857D02*
X129884714Y-89643857D01*
X129376714Y-89317285D02*
X129775857Y-89317285D01*
X129848428Y-89353571D01*
X129884714Y-89426142D01*
X129884714Y-89535000D01*
X129848428Y-89607571D01*
X129812142Y-89643857D01*
X129485571Y-90260714D02*
X129485571Y-90006714D01*
X129884714Y-90006714D02*
X129122714Y-90006714D01*
X129122714Y-90369571D01*
G04 #@! TO.C,C3*
X109492142Y-92583000D02*
X109528428Y-92546714D01*
X109564714Y-92437857D01*
X109564714Y-92365285D01*
X109528428Y-92256428D01*
X109455857Y-92183857D01*
X109383285Y-92147571D01*
X109238142Y-92111285D01*
X109129285Y-92111285D01*
X108984142Y-92147571D01*
X108911571Y-92183857D01*
X108839000Y-92256428D01*
X108802714Y-92365285D01*
X108802714Y-92437857D01*
X108839000Y-92546714D01*
X108875285Y-92583000D01*
X108802714Y-92837000D02*
X108802714Y-93308714D01*
X109093000Y-93054714D01*
X109093000Y-93163571D01*
X109129285Y-93236142D01*
X109165571Y-93272428D01*
X109238142Y-93308714D01*
X109419571Y-93308714D01*
X109492142Y-93272428D01*
X109528428Y-93236142D01*
X109564714Y-93163571D01*
X109564714Y-92945857D01*
X109528428Y-92873285D01*
X109492142Y-92837000D01*
X115152714Y-91458142D02*
X115152714Y-91530714D01*
X115189000Y-91603285D01*
X115225285Y-91639571D01*
X115297857Y-91675857D01*
X115443000Y-91712142D01*
X115624428Y-91712142D01*
X115769571Y-91675857D01*
X115842142Y-91639571D01*
X115878428Y-91603285D01*
X115914714Y-91530714D01*
X115914714Y-91458142D01*
X115878428Y-91385571D01*
X115842142Y-91349285D01*
X115769571Y-91313000D01*
X115624428Y-91276714D01*
X115443000Y-91276714D01*
X115297857Y-91313000D01*
X115225285Y-91349285D01*
X115189000Y-91385571D01*
X115152714Y-91458142D01*
X115842142Y-92038714D02*
X115878428Y-92075000D01*
X115914714Y-92038714D01*
X115878428Y-92002428D01*
X115842142Y-92038714D01*
X115914714Y-92038714D01*
X115914714Y-92800714D02*
X115914714Y-92365285D01*
X115914714Y-92583000D02*
X115152714Y-92583000D01*
X115261571Y-92510428D01*
X115334142Y-92437857D01*
X115370428Y-92365285D01*
X115406714Y-93453857D02*
X115914714Y-93453857D01*
X115406714Y-93127285D02*
X115805857Y-93127285D01*
X115878428Y-93163571D01*
X115914714Y-93236142D01*
X115914714Y-93345000D01*
X115878428Y-93417571D01*
X115842142Y-93453857D01*
X115515571Y-94070714D02*
X115515571Y-93816714D01*
X115914714Y-93816714D02*
X115152714Y-93816714D01*
X115152714Y-94179571D01*
G04 #@! TO.C,C4*
X101872142Y-92583000D02*
X101908428Y-92546714D01*
X101944714Y-92437857D01*
X101944714Y-92365285D01*
X101908428Y-92256428D01*
X101835857Y-92183857D01*
X101763285Y-92147571D01*
X101618142Y-92111285D01*
X101509285Y-92111285D01*
X101364142Y-92147571D01*
X101291571Y-92183857D01*
X101219000Y-92256428D01*
X101182714Y-92365285D01*
X101182714Y-92437857D01*
X101219000Y-92546714D01*
X101255285Y-92583000D01*
X101436714Y-93236142D02*
X101944714Y-93236142D01*
X101146428Y-93054714D02*
X101690714Y-92873285D01*
X101690714Y-93345000D01*
X107532714Y-91458142D02*
X107532714Y-91530714D01*
X107569000Y-91603285D01*
X107605285Y-91639571D01*
X107677857Y-91675857D01*
X107823000Y-91712142D01*
X108004428Y-91712142D01*
X108149571Y-91675857D01*
X108222142Y-91639571D01*
X108258428Y-91603285D01*
X108294714Y-91530714D01*
X108294714Y-91458142D01*
X108258428Y-91385571D01*
X108222142Y-91349285D01*
X108149571Y-91313000D01*
X108004428Y-91276714D01*
X107823000Y-91276714D01*
X107677857Y-91313000D01*
X107605285Y-91349285D01*
X107569000Y-91385571D01*
X107532714Y-91458142D01*
X108222142Y-92038714D02*
X108258428Y-92075000D01*
X108294714Y-92038714D01*
X108258428Y-92002428D01*
X108222142Y-92038714D01*
X108294714Y-92038714D01*
X108294714Y-92800714D02*
X108294714Y-92365285D01*
X108294714Y-92583000D02*
X107532714Y-92583000D01*
X107641571Y-92510428D01*
X107714142Y-92437857D01*
X107750428Y-92365285D01*
X107786714Y-93453857D02*
X108294714Y-93453857D01*
X107786714Y-93127285D02*
X108185857Y-93127285D01*
X108258428Y-93163571D01*
X108294714Y-93236142D01*
X108294714Y-93345000D01*
X108258428Y-93417571D01*
X108222142Y-93453857D01*
X107895571Y-94070714D02*
X107895571Y-93816714D01*
X108294714Y-93816714D02*
X107532714Y-93816714D01*
X107532714Y-94179571D01*
G04 #@! TO.C,C5*
X94252142Y-92583000D02*
X94288428Y-92546714D01*
X94324714Y-92437857D01*
X94324714Y-92365285D01*
X94288428Y-92256428D01*
X94215857Y-92183857D01*
X94143285Y-92147571D01*
X93998142Y-92111285D01*
X93889285Y-92111285D01*
X93744142Y-92147571D01*
X93671571Y-92183857D01*
X93599000Y-92256428D01*
X93562714Y-92365285D01*
X93562714Y-92437857D01*
X93599000Y-92546714D01*
X93635285Y-92583000D01*
X93562714Y-93272428D02*
X93562714Y-92909571D01*
X93925571Y-92873285D01*
X93889285Y-92909571D01*
X93853000Y-92982142D01*
X93853000Y-93163571D01*
X93889285Y-93236142D01*
X93925571Y-93272428D01*
X93998142Y-93308714D01*
X94179571Y-93308714D01*
X94252142Y-93272428D01*
X94288428Y-93236142D01*
X94324714Y-93163571D01*
X94324714Y-92982142D01*
X94288428Y-92909571D01*
X94252142Y-92873285D01*
X99912714Y-91458142D02*
X99912714Y-91530714D01*
X99949000Y-91603285D01*
X99985285Y-91639571D01*
X100057857Y-91675857D01*
X100203000Y-91712142D01*
X100384428Y-91712142D01*
X100529571Y-91675857D01*
X100602142Y-91639571D01*
X100638428Y-91603285D01*
X100674714Y-91530714D01*
X100674714Y-91458142D01*
X100638428Y-91385571D01*
X100602142Y-91349285D01*
X100529571Y-91313000D01*
X100384428Y-91276714D01*
X100203000Y-91276714D01*
X100057857Y-91313000D01*
X99985285Y-91349285D01*
X99949000Y-91385571D01*
X99912714Y-91458142D01*
X100602142Y-92038714D02*
X100638428Y-92075000D01*
X100674714Y-92038714D01*
X100638428Y-92002428D01*
X100602142Y-92038714D01*
X100674714Y-92038714D01*
X100674714Y-92800714D02*
X100674714Y-92365285D01*
X100674714Y-92583000D02*
X99912714Y-92583000D01*
X100021571Y-92510428D01*
X100094142Y-92437857D01*
X100130428Y-92365285D01*
X100166714Y-93453857D02*
X100674714Y-93453857D01*
X100166714Y-93127285D02*
X100565857Y-93127285D01*
X100638428Y-93163571D01*
X100674714Y-93236142D01*
X100674714Y-93345000D01*
X100638428Y-93417571D01*
X100602142Y-93453857D01*
X100275571Y-94070714D02*
X100275571Y-93816714D01*
X100674714Y-93816714D02*
X99912714Y-93816714D01*
X99912714Y-94179571D01*
G04 #@! TO.C,C6*
X86632142Y-92583000D02*
X86668428Y-92546714D01*
X86704714Y-92437857D01*
X86704714Y-92365285D01*
X86668428Y-92256428D01*
X86595857Y-92183857D01*
X86523285Y-92147571D01*
X86378142Y-92111285D01*
X86269285Y-92111285D01*
X86124142Y-92147571D01*
X86051571Y-92183857D01*
X85979000Y-92256428D01*
X85942714Y-92365285D01*
X85942714Y-92437857D01*
X85979000Y-92546714D01*
X86015285Y-92583000D01*
X85942714Y-93236142D02*
X85942714Y-93091000D01*
X85979000Y-93018428D01*
X86015285Y-92982142D01*
X86124142Y-92909571D01*
X86269285Y-92873285D01*
X86559571Y-92873285D01*
X86632142Y-92909571D01*
X86668428Y-92945857D01*
X86704714Y-93018428D01*
X86704714Y-93163571D01*
X86668428Y-93236142D01*
X86632142Y-93272428D01*
X86559571Y-93308714D01*
X86378142Y-93308714D01*
X86305571Y-93272428D01*
X86269285Y-93236142D01*
X86233000Y-93163571D01*
X86233000Y-93018428D01*
X86269285Y-92945857D01*
X86305571Y-92909571D01*
X86378142Y-92873285D01*
X92292714Y-91458142D02*
X92292714Y-91530714D01*
X92329000Y-91603285D01*
X92365285Y-91639571D01*
X92437857Y-91675857D01*
X92583000Y-91712142D01*
X92764428Y-91712142D01*
X92909571Y-91675857D01*
X92982142Y-91639571D01*
X93018428Y-91603285D01*
X93054714Y-91530714D01*
X93054714Y-91458142D01*
X93018428Y-91385571D01*
X92982142Y-91349285D01*
X92909571Y-91313000D01*
X92764428Y-91276714D01*
X92583000Y-91276714D01*
X92437857Y-91313000D01*
X92365285Y-91349285D01*
X92329000Y-91385571D01*
X92292714Y-91458142D01*
X92982142Y-92038714D02*
X93018428Y-92075000D01*
X93054714Y-92038714D01*
X93018428Y-92002428D01*
X92982142Y-92038714D01*
X93054714Y-92038714D01*
X93054714Y-92800714D02*
X93054714Y-92365285D01*
X93054714Y-92583000D02*
X92292714Y-92583000D01*
X92401571Y-92510428D01*
X92474142Y-92437857D01*
X92510428Y-92365285D01*
X92546714Y-93453857D02*
X93054714Y-93453857D01*
X92546714Y-93127285D02*
X92945857Y-93127285D01*
X93018428Y-93163571D01*
X93054714Y-93236142D01*
X93054714Y-93345000D01*
X93018428Y-93417571D01*
X92982142Y-93453857D01*
X92655571Y-94070714D02*
X92655571Y-93816714D01*
X93054714Y-93816714D02*
X92292714Y-93816714D01*
X92292714Y-94179571D01*
G04 #@! TO.C,D1*
X100674714Y-75002571D02*
X99912714Y-75002571D01*
X99912714Y-75184000D01*
X99949000Y-75292857D01*
X100021571Y-75365428D01*
X100094142Y-75401714D01*
X100239285Y-75438000D01*
X100348142Y-75438000D01*
X100493285Y-75401714D01*
X100565857Y-75365428D01*
X100638428Y-75292857D01*
X100674714Y-75184000D01*
X100674714Y-75002571D01*
X100674714Y-76163714D02*
X100674714Y-75728285D01*
X100674714Y-75946000D02*
X99912714Y-75946000D01*
X100021571Y-75873428D01*
X100094142Y-75800857D01*
X100130428Y-75728285D01*
G04 #@! TO.C,HPS1*
X113719428Y-79719714D02*
X113719428Y-78957714D01*
X113719428Y-79320571D02*
X113284000Y-79320571D01*
X113284000Y-79719714D02*
X113284000Y-78957714D01*
X112921142Y-79719714D02*
X112921142Y-78957714D01*
X112630857Y-78957714D01*
X112558285Y-78994000D01*
X112522000Y-79030285D01*
X112485714Y-79102857D01*
X112485714Y-79211714D01*
X112522000Y-79284285D01*
X112558285Y-79320571D01*
X112630857Y-79356857D01*
X112921142Y-79356857D01*
X112195428Y-79683428D02*
X112086571Y-79719714D01*
X111905142Y-79719714D01*
X111832571Y-79683428D01*
X111796285Y-79647142D01*
X111760000Y-79574571D01*
X111760000Y-79502000D01*
X111796285Y-79429428D01*
X111832571Y-79393142D01*
X111905142Y-79356857D01*
X112050285Y-79320571D01*
X112122857Y-79284285D01*
X112159142Y-79248000D01*
X112195428Y-79175428D01*
X112195428Y-79102857D01*
X112159142Y-79030285D01*
X112122857Y-78994000D01*
X112050285Y-78957714D01*
X111868857Y-78957714D01*
X111760000Y-78994000D01*
X111034285Y-79719714D02*
X111469714Y-79719714D01*
X111252000Y-79719714D02*
X111252000Y-78957714D01*
X111324571Y-79066571D01*
X111397142Y-79139142D01*
X111469714Y-79175428D01*
G04 #@! TO.C,HPS2*
X106099428Y-79719714D02*
X106099428Y-78957714D01*
X106099428Y-79320571D02*
X105664000Y-79320571D01*
X105664000Y-79719714D02*
X105664000Y-78957714D01*
X105301142Y-79719714D02*
X105301142Y-78957714D01*
X105010857Y-78957714D01*
X104938285Y-78994000D01*
X104902000Y-79030285D01*
X104865714Y-79102857D01*
X104865714Y-79211714D01*
X104902000Y-79284285D01*
X104938285Y-79320571D01*
X105010857Y-79356857D01*
X105301142Y-79356857D01*
X104575428Y-79683428D02*
X104466571Y-79719714D01*
X104285142Y-79719714D01*
X104212571Y-79683428D01*
X104176285Y-79647142D01*
X104140000Y-79574571D01*
X104140000Y-79502000D01*
X104176285Y-79429428D01*
X104212571Y-79393142D01*
X104285142Y-79356857D01*
X104430285Y-79320571D01*
X104502857Y-79284285D01*
X104539142Y-79248000D01*
X104575428Y-79175428D01*
X104575428Y-79102857D01*
X104539142Y-79030285D01*
X104502857Y-78994000D01*
X104430285Y-78957714D01*
X104248857Y-78957714D01*
X104140000Y-78994000D01*
X103849714Y-79030285D02*
X103813428Y-78994000D01*
X103740857Y-78957714D01*
X103559428Y-78957714D01*
X103486857Y-78994000D01*
X103450571Y-79030285D01*
X103414285Y-79102857D01*
X103414285Y-79175428D01*
X103450571Y-79284285D01*
X103886000Y-79719714D01*
X103414285Y-79719714D01*
G04 #@! TO.C,HPS3*
X98479428Y-79719714D02*
X98479428Y-78957714D01*
X98479428Y-79320571D02*
X98044000Y-79320571D01*
X98044000Y-79719714D02*
X98044000Y-78957714D01*
X97681142Y-79719714D02*
X97681142Y-78957714D01*
X97390857Y-78957714D01*
X97318285Y-78994000D01*
X97282000Y-79030285D01*
X97245714Y-79102857D01*
X97245714Y-79211714D01*
X97282000Y-79284285D01*
X97318285Y-79320571D01*
X97390857Y-79356857D01*
X97681142Y-79356857D01*
X96955428Y-79683428D02*
X96846571Y-79719714D01*
X96665142Y-79719714D01*
X96592571Y-79683428D01*
X96556285Y-79647142D01*
X96520000Y-79574571D01*
X96520000Y-79502000D01*
X96556285Y-79429428D01*
X96592571Y-79393142D01*
X96665142Y-79356857D01*
X96810285Y-79320571D01*
X96882857Y-79284285D01*
X96919142Y-79248000D01*
X96955428Y-79175428D01*
X96955428Y-79102857D01*
X96919142Y-79030285D01*
X96882857Y-78994000D01*
X96810285Y-78957714D01*
X96628857Y-78957714D01*
X96520000Y-78994000D01*
X96266000Y-78957714D02*
X95794285Y-78957714D01*
X96048285Y-79248000D01*
X95939428Y-79248000D01*
X95866857Y-79284285D01*
X95830571Y-79320571D01*
X95794285Y-79393142D01*
X95794285Y-79574571D01*
X95830571Y-79647142D01*
X95866857Y-79683428D01*
X95939428Y-79719714D01*
X96157142Y-79719714D01*
X96229714Y-79683428D01*
X96266000Y-79647142D01*
G04 #@! TO.C,HPS4*
X90859428Y-79719714D02*
X90859428Y-78957714D01*
X90859428Y-79320571D02*
X90424000Y-79320571D01*
X90424000Y-79719714D02*
X90424000Y-78957714D01*
X90061142Y-79719714D02*
X90061142Y-78957714D01*
X89770857Y-78957714D01*
X89698285Y-78994000D01*
X89662000Y-79030285D01*
X89625714Y-79102857D01*
X89625714Y-79211714D01*
X89662000Y-79284285D01*
X89698285Y-79320571D01*
X89770857Y-79356857D01*
X90061142Y-79356857D01*
X89335428Y-79683428D02*
X89226571Y-79719714D01*
X89045142Y-79719714D01*
X88972571Y-79683428D01*
X88936285Y-79647142D01*
X88900000Y-79574571D01*
X88900000Y-79502000D01*
X88936285Y-79429428D01*
X88972571Y-79393142D01*
X89045142Y-79356857D01*
X89190285Y-79320571D01*
X89262857Y-79284285D01*
X89299142Y-79248000D01*
X89335428Y-79175428D01*
X89335428Y-79102857D01*
X89299142Y-79030285D01*
X89262857Y-78994000D01*
X89190285Y-78957714D01*
X89008857Y-78957714D01*
X88900000Y-78994000D01*
X88246857Y-79211714D02*
X88246857Y-79719714D01*
X88428285Y-78921428D02*
X88609714Y-79465714D01*
X88138000Y-79465714D01*
G04 #@! TO.C,R1*
X110453714Y-97028000D02*
X110090857Y-96774000D01*
X110453714Y-96592571D02*
X109691714Y-96592571D01*
X109691714Y-96882857D01*
X109728000Y-96955428D01*
X109764285Y-96991714D01*
X109836857Y-97028000D01*
X109945714Y-97028000D01*
X110018285Y-96991714D01*
X110054571Y-96955428D01*
X110090857Y-96882857D01*
X110090857Y-96592571D01*
X110453714Y-97753714D02*
X110453714Y-97318285D01*
X110453714Y-97536000D02*
X109691714Y-97536000D01*
X109800571Y-97463428D01*
X109873142Y-97390857D01*
X109909428Y-97318285D01*
X114263714Y-96483714D02*
X114263714Y-96120857D01*
X114626571Y-96084571D01*
X114590285Y-96120857D01*
X114554000Y-96193428D01*
X114554000Y-96374857D01*
X114590285Y-96447428D01*
X114626571Y-96483714D01*
X114699142Y-96520000D01*
X114880571Y-96520000D01*
X114953142Y-96483714D01*
X114989428Y-96447428D01*
X115025714Y-96374857D01*
X115025714Y-96193428D01*
X114989428Y-96120857D01*
X114953142Y-96084571D01*
X114953142Y-96846571D02*
X114989428Y-96882857D01*
X115025714Y-96846571D01*
X114989428Y-96810285D01*
X114953142Y-96846571D01*
X115025714Y-96846571D01*
X115025714Y-97245714D02*
X115025714Y-97390857D01*
X114989428Y-97463428D01*
X114953142Y-97499714D01*
X114844285Y-97572285D01*
X114699142Y-97608571D01*
X114408857Y-97608571D01*
X114336285Y-97572285D01*
X114300000Y-97536000D01*
X114263714Y-97463428D01*
X114263714Y-97318285D01*
X114300000Y-97245714D01*
X114336285Y-97209428D01*
X114408857Y-97173142D01*
X114590285Y-97173142D01*
X114662857Y-97209428D01*
X114699142Y-97245714D01*
X114735428Y-97318285D01*
X114735428Y-97463428D01*
X114699142Y-97536000D01*
X114662857Y-97572285D01*
X114590285Y-97608571D01*
X115025714Y-97935142D02*
X114263714Y-97935142D01*
X114735428Y-98007714D02*
X115025714Y-98225428D01*
X114517714Y-98225428D02*
X114808000Y-97935142D01*
G04 #@! TO.C,R2*
X102833714Y-97028000D02*
X102470857Y-96774000D01*
X102833714Y-96592571D02*
X102071714Y-96592571D01*
X102071714Y-96882857D01*
X102108000Y-96955428D01*
X102144285Y-96991714D01*
X102216857Y-97028000D01*
X102325714Y-97028000D01*
X102398285Y-96991714D01*
X102434571Y-96955428D01*
X102470857Y-96882857D01*
X102470857Y-96592571D01*
X102144285Y-97318285D02*
X102108000Y-97354571D01*
X102071714Y-97427142D01*
X102071714Y-97608571D01*
X102108000Y-97681142D01*
X102144285Y-97717428D01*
X102216857Y-97753714D01*
X102289428Y-97753714D01*
X102398285Y-97717428D01*
X102833714Y-97282000D01*
X102833714Y-97753714D01*
X106643714Y-96483714D02*
X106643714Y-96120857D01*
X107006571Y-96084571D01*
X106970285Y-96120857D01*
X106934000Y-96193428D01*
X106934000Y-96374857D01*
X106970285Y-96447428D01*
X107006571Y-96483714D01*
X107079142Y-96520000D01*
X107260571Y-96520000D01*
X107333142Y-96483714D01*
X107369428Y-96447428D01*
X107405714Y-96374857D01*
X107405714Y-96193428D01*
X107369428Y-96120857D01*
X107333142Y-96084571D01*
X107333142Y-96846571D02*
X107369428Y-96882857D01*
X107405714Y-96846571D01*
X107369428Y-96810285D01*
X107333142Y-96846571D01*
X107405714Y-96846571D01*
X107405714Y-97245714D02*
X107405714Y-97390857D01*
X107369428Y-97463428D01*
X107333142Y-97499714D01*
X107224285Y-97572285D01*
X107079142Y-97608571D01*
X106788857Y-97608571D01*
X106716285Y-97572285D01*
X106680000Y-97536000D01*
X106643714Y-97463428D01*
X106643714Y-97318285D01*
X106680000Y-97245714D01*
X106716285Y-97209428D01*
X106788857Y-97173142D01*
X106970285Y-97173142D01*
X107042857Y-97209428D01*
X107079142Y-97245714D01*
X107115428Y-97318285D01*
X107115428Y-97463428D01*
X107079142Y-97536000D01*
X107042857Y-97572285D01*
X106970285Y-97608571D01*
X107405714Y-97935142D02*
X106643714Y-97935142D01*
X107115428Y-98007714D02*
X107405714Y-98225428D01*
X106897714Y-98225428D02*
X107188000Y-97935142D01*
G04 #@! TO.C,R3*
X95213714Y-97028000D02*
X94850857Y-96774000D01*
X95213714Y-96592571D02*
X94451714Y-96592571D01*
X94451714Y-96882857D01*
X94488000Y-96955428D01*
X94524285Y-96991714D01*
X94596857Y-97028000D01*
X94705714Y-97028000D01*
X94778285Y-96991714D01*
X94814571Y-96955428D01*
X94850857Y-96882857D01*
X94850857Y-96592571D01*
X94451714Y-97282000D02*
X94451714Y-97753714D01*
X94742000Y-97499714D01*
X94742000Y-97608571D01*
X94778285Y-97681142D01*
X94814571Y-97717428D01*
X94887142Y-97753714D01*
X95068571Y-97753714D01*
X95141142Y-97717428D01*
X95177428Y-97681142D01*
X95213714Y-97608571D01*
X95213714Y-97390857D01*
X95177428Y-97318285D01*
X95141142Y-97282000D01*
X99023714Y-96483714D02*
X99023714Y-96120857D01*
X99386571Y-96084571D01*
X99350285Y-96120857D01*
X99314000Y-96193428D01*
X99314000Y-96374857D01*
X99350285Y-96447428D01*
X99386571Y-96483714D01*
X99459142Y-96520000D01*
X99640571Y-96520000D01*
X99713142Y-96483714D01*
X99749428Y-96447428D01*
X99785714Y-96374857D01*
X99785714Y-96193428D01*
X99749428Y-96120857D01*
X99713142Y-96084571D01*
X99713142Y-96846571D02*
X99749428Y-96882857D01*
X99785714Y-96846571D01*
X99749428Y-96810285D01*
X99713142Y-96846571D01*
X99785714Y-96846571D01*
X99785714Y-97245714D02*
X99785714Y-97390857D01*
X99749428Y-97463428D01*
X99713142Y-97499714D01*
X99604285Y-97572285D01*
X99459142Y-97608571D01*
X99168857Y-97608571D01*
X99096285Y-97572285D01*
X99060000Y-97536000D01*
X99023714Y-97463428D01*
X99023714Y-97318285D01*
X99060000Y-97245714D01*
X99096285Y-97209428D01*
X99168857Y-97173142D01*
X99350285Y-97173142D01*
X99422857Y-97209428D01*
X99459142Y-97245714D01*
X99495428Y-97318285D01*
X99495428Y-97463428D01*
X99459142Y-97536000D01*
X99422857Y-97572285D01*
X99350285Y-97608571D01*
X99785714Y-97935142D02*
X99023714Y-97935142D01*
X99495428Y-98007714D02*
X99785714Y-98225428D01*
X99277714Y-98225428D02*
X99568000Y-97935142D01*
G04 #@! TO.C,R4*
X87593714Y-97028000D02*
X87230857Y-96774000D01*
X87593714Y-96592571D02*
X86831714Y-96592571D01*
X86831714Y-96882857D01*
X86868000Y-96955428D01*
X86904285Y-96991714D01*
X86976857Y-97028000D01*
X87085714Y-97028000D01*
X87158285Y-96991714D01*
X87194571Y-96955428D01*
X87230857Y-96882857D01*
X87230857Y-96592571D01*
X87085714Y-97681142D02*
X87593714Y-97681142D01*
X86795428Y-97499714D02*
X87339714Y-97318285D01*
X87339714Y-97790000D01*
X91403714Y-96483714D02*
X91403714Y-96120857D01*
X91766571Y-96084571D01*
X91730285Y-96120857D01*
X91694000Y-96193428D01*
X91694000Y-96374857D01*
X91730285Y-96447428D01*
X91766571Y-96483714D01*
X91839142Y-96520000D01*
X92020571Y-96520000D01*
X92093142Y-96483714D01*
X92129428Y-96447428D01*
X92165714Y-96374857D01*
X92165714Y-96193428D01*
X92129428Y-96120857D01*
X92093142Y-96084571D01*
X92093142Y-96846571D02*
X92129428Y-96882857D01*
X92165714Y-96846571D01*
X92129428Y-96810285D01*
X92093142Y-96846571D01*
X92165714Y-96846571D01*
X92165714Y-97245714D02*
X92165714Y-97390857D01*
X92129428Y-97463428D01*
X92093142Y-97499714D01*
X91984285Y-97572285D01*
X91839142Y-97608571D01*
X91548857Y-97608571D01*
X91476285Y-97572285D01*
X91440000Y-97536000D01*
X91403714Y-97463428D01*
X91403714Y-97318285D01*
X91440000Y-97245714D01*
X91476285Y-97209428D01*
X91548857Y-97173142D01*
X91730285Y-97173142D01*
X91802857Y-97209428D01*
X91839142Y-97245714D01*
X91875428Y-97318285D01*
X91875428Y-97463428D01*
X91839142Y-97536000D01*
X91802857Y-97572285D01*
X91730285Y-97608571D01*
X92165714Y-97935142D02*
X91403714Y-97935142D01*
X91875428Y-98007714D02*
X92165714Y-98225428D01*
X91657714Y-98225428D02*
X91948000Y-97935142D01*
G04 #@! TO.C,R6*
X139409714Y-103378000D02*
X139046857Y-103124000D01*
X139409714Y-102942571D02*
X138647714Y-102942571D01*
X138647714Y-103232857D01*
X138684000Y-103305428D01*
X138720285Y-103341714D01*
X138792857Y-103378000D01*
X138901714Y-103378000D01*
X138974285Y-103341714D01*
X139010571Y-103305428D01*
X139046857Y-103232857D01*
X139046857Y-102942571D01*
X138647714Y-104031142D02*
X138647714Y-103886000D01*
X138684000Y-103813428D01*
X138720285Y-103777142D01*
X138829142Y-103704571D01*
X138974285Y-103668285D01*
X139264571Y-103668285D01*
X139337142Y-103704571D01*
X139373428Y-103740857D01*
X139409714Y-103813428D01*
X139409714Y-103958571D01*
X139373428Y-104031142D01*
X139337142Y-104067428D01*
X139264571Y-104103714D01*
X139083142Y-104103714D01*
X139010571Y-104067428D01*
X138974285Y-104031142D01*
X138938000Y-103958571D01*
X138938000Y-103813428D01*
X138974285Y-103740857D01*
X139010571Y-103704571D01*
X139083142Y-103668285D01*
X133059714Y-102997000D02*
X133059714Y-102561571D01*
X133059714Y-102779285D02*
X132297714Y-102779285D01*
X132406571Y-102706714D01*
X132479142Y-102634142D01*
X132515428Y-102561571D01*
X132551714Y-103650142D02*
X133059714Y-103650142D01*
X132261428Y-103468714D02*
X132805714Y-103287285D01*
X132805714Y-103759000D01*
X132297714Y-104194428D02*
X132297714Y-104267000D01*
X132334000Y-104339571D01*
X132370285Y-104375857D01*
X132442857Y-104412142D01*
X132588000Y-104448428D01*
X132769428Y-104448428D01*
X132914571Y-104412142D01*
X132987142Y-104375857D01*
X133023428Y-104339571D01*
X133059714Y-104267000D01*
X133059714Y-104194428D01*
X133023428Y-104121857D01*
X132987142Y-104085571D01*
X132914571Y-104049285D01*
X132769428Y-104013000D01*
X132588000Y-104013000D01*
X132442857Y-104049285D01*
X132370285Y-104085571D01*
X132334000Y-104121857D01*
X132297714Y-104194428D01*
G04 #@! TO.C,R7*
X139409714Y-74168000D02*
X139046857Y-73914000D01*
X139409714Y-73732571D02*
X138647714Y-73732571D01*
X138647714Y-74022857D01*
X138684000Y-74095428D01*
X138720285Y-74131714D01*
X138792857Y-74168000D01*
X138901714Y-74168000D01*
X138974285Y-74131714D01*
X139010571Y-74095428D01*
X139046857Y-74022857D01*
X139046857Y-73732571D01*
X138647714Y-74422000D02*
X138647714Y-74930000D01*
X139409714Y-74603428D01*
X133059714Y-73787000D02*
X133059714Y-73351571D01*
X133059714Y-73569285D02*
X132297714Y-73569285D01*
X132406571Y-73496714D01*
X132479142Y-73424142D01*
X132515428Y-73351571D01*
X132551714Y-74440142D02*
X133059714Y-74440142D01*
X132261428Y-74258714D02*
X132805714Y-74077285D01*
X132805714Y-74549000D01*
X132297714Y-74984428D02*
X132297714Y-75057000D01*
X132334000Y-75129571D01*
X132370285Y-75165857D01*
X132442857Y-75202142D01*
X132588000Y-75238428D01*
X132769428Y-75238428D01*
X132914571Y-75202142D01*
X132987142Y-75165857D01*
X133023428Y-75129571D01*
X133059714Y-75057000D01*
X133059714Y-74984428D01*
X133023428Y-74911857D01*
X132987142Y-74875571D01*
X132914571Y-74839285D01*
X132769428Y-74803000D01*
X132588000Y-74803000D01*
X132442857Y-74839285D01*
X132370285Y-74875571D01*
X132334000Y-74911857D01*
X132297714Y-74984428D01*
G04 #@! TO.C,R8*
X139409714Y-70358000D02*
X139046857Y-70104000D01*
X139409714Y-69922571D02*
X138647714Y-69922571D01*
X138647714Y-70212857D01*
X138684000Y-70285428D01*
X138720285Y-70321714D01*
X138792857Y-70358000D01*
X138901714Y-70358000D01*
X138974285Y-70321714D01*
X139010571Y-70285428D01*
X139046857Y-70212857D01*
X139046857Y-69922571D01*
X138974285Y-70793428D02*
X138938000Y-70720857D01*
X138901714Y-70684571D01*
X138829142Y-70648285D01*
X138792857Y-70648285D01*
X138720285Y-70684571D01*
X138684000Y-70720857D01*
X138647714Y-70793428D01*
X138647714Y-70938571D01*
X138684000Y-71011142D01*
X138720285Y-71047428D01*
X138792857Y-71083714D01*
X138829142Y-71083714D01*
X138901714Y-71047428D01*
X138938000Y-71011142D01*
X138974285Y-70938571D01*
X138974285Y-70793428D01*
X139010571Y-70720857D01*
X139046857Y-70684571D01*
X139119428Y-70648285D01*
X139264571Y-70648285D01*
X139337142Y-70684571D01*
X139373428Y-70720857D01*
X139409714Y-70793428D01*
X139409714Y-70938571D01*
X139373428Y-71011142D01*
X139337142Y-71047428D01*
X139264571Y-71083714D01*
X139119428Y-71083714D01*
X139046857Y-71047428D01*
X139010571Y-71011142D01*
X138974285Y-70938571D01*
X133059714Y-69977000D02*
X133059714Y-69541571D01*
X133059714Y-69759285D02*
X132297714Y-69759285D01*
X132406571Y-69686714D01*
X132479142Y-69614142D01*
X132515428Y-69541571D01*
X132551714Y-70630142D02*
X133059714Y-70630142D01*
X132261428Y-70448714D02*
X132805714Y-70267285D01*
X132805714Y-70739000D01*
X132297714Y-71174428D02*
X132297714Y-71247000D01*
X132334000Y-71319571D01*
X132370285Y-71355857D01*
X132442857Y-71392142D01*
X132588000Y-71428428D01*
X132769428Y-71428428D01*
X132914571Y-71392142D01*
X132987142Y-71355857D01*
X133023428Y-71319571D01*
X133059714Y-71247000D01*
X133059714Y-71174428D01*
X133023428Y-71101857D01*
X132987142Y-71065571D01*
X132914571Y-71029285D01*
X132769428Y-70993000D01*
X132588000Y-70993000D01*
X132442857Y-71029285D01*
X132370285Y-71065571D01*
X132334000Y-71101857D01*
X132297714Y-71174428D01*
G04 #@! TO.C,U1*
X116422714Y-97209428D02*
X117039571Y-97209428D01*
X117112142Y-97245714D01*
X117148428Y-97282000D01*
X117184714Y-97354571D01*
X117184714Y-97499714D01*
X117148428Y-97572285D01*
X117112142Y-97608571D01*
X117039571Y-97644857D01*
X116422714Y-97644857D01*
X117184714Y-98406857D02*
X117184714Y-97971428D01*
X117184714Y-98189142D02*
X116422714Y-98189142D01*
X116531571Y-98116571D01*
X116604142Y-98044000D01*
X116640428Y-97971428D01*
G04 #@! TO.C,U2*
X116422714Y-79429428D02*
X117039571Y-79429428D01*
X117112142Y-79465714D01*
X117148428Y-79502000D01*
X117184714Y-79574571D01*
X117184714Y-79719714D01*
X117148428Y-79792285D01*
X117112142Y-79828571D01*
X117039571Y-79864857D01*
X116422714Y-79864857D01*
X116495285Y-80191428D02*
X116459000Y-80227714D01*
X116422714Y-80300285D01*
X116422714Y-80481714D01*
X116459000Y-80554285D01*
X116495285Y-80590571D01*
X116567857Y-80626857D01*
X116640428Y-80626857D01*
X116749285Y-80590571D01*
X117184714Y-80155142D01*
X117184714Y-80626857D01*
G04 #@! TO.C,U3*
D15*
X149364095Y-77548619D02*
X149364095Y-78371095D01*
X149315714Y-78467857D01*
X149267333Y-78516238D01*
X149170571Y-78564619D01*
X148977047Y-78564619D01*
X148880285Y-78516238D01*
X148831904Y-78467857D01*
X148783523Y-78371095D01*
X148783523Y-77548619D01*
X148396476Y-77548619D02*
X147767523Y-77548619D01*
X148106190Y-77935666D01*
X147961047Y-77935666D01*
X147864285Y-77984047D01*
X147815904Y-78032428D01*
X147767523Y-78129190D01*
X147767523Y-78371095D01*
X147815904Y-78467857D01*
X147864285Y-78516238D01*
X147961047Y-78564619D01*
X148251333Y-78564619D01*
X148348095Y-78516238D01*
X148396476Y-78467857D01*
G04 #@! TO.C,U4*
X149364095Y-99138619D02*
X149364095Y-99961095D01*
X149315714Y-100057857D01*
X149267333Y-100106238D01*
X149170571Y-100154619D01*
X148977047Y-100154619D01*
X148880285Y-100106238D01*
X148831904Y-100057857D01*
X148783523Y-99961095D01*
X148783523Y-99138619D01*
X147864285Y-99477285D02*
X147864285Y-100154619D01*
X148106190Y-99090238D02*
X148348095Y-99815952D01*
X147719142Y-99815952D01*
G04 #@! TD*
%LPC*%
D16*
G04 #@! TO.C,J2*
X115010000Y-76400000D03*
X115010000Y-101400000D03*
G04 #@! TD*
G04 #@! TO.C,J1*
X97230000Y-76400000D03*
X97230000Y-101400000D03*
G04 #@! TD*
D17*
G04 #@! TO.C,R5*
X137414000Y-107315000D03*
X134366000Y-107315000D03*
G04 #@! TD*
D18*
G04 #@! TO.C,MDB1*
X130175000Y-71120000D03*
X130175000Y-106680000D03*
X89535000Y-101600000D03*
X89535000Y-76200000D03*
D19*
X88265000Y-106680000D03*
X90805000Y-106680000D03*
X93345000Y-106680000D03*
X95885000Y-106680000D03*
X98425000Y-106680000D03*
X100965000Y-106680000D03*
X103505000Y-106680000D03*
X106045000Y-106680000D03*
X108585000Y-106680000D03*
X111125000Y-106680000D03*
X113665000Y-106680000D03*
X116205000Y-106680000D03*
X118745000Y-106680000D03*
X121285000Y-106680000D03*
X123825000Y-106680000D03*
X126365000Y-106680000D03*
X126365000Y-71120000D03*
X123825000Y-71120000D03*
X121285000Y-71120000D03*
X118745000Y-71120000D03*
X116205000Y-71120000D03*
X113665000Y-71120000D03*
X111125000Y-71120000D03*
X108585000Y-71120000D03*
X106045000Y-71120000D03*
X103505000Y-71120000D03*
X100965000Y-71120000D03*
X98425000Y-71120000D03*
X95885000Y-71120000D03*
D20*
X88265000Y-71120000D03*
D19*
X93345000Y-71120000D03*
X90805000Y-71120000D03*
G04 #@! TD*
D17*
G04 #@! TO.C,C1*
X118491000Y-88900000D03*
X121539000Y-88900000D03*
G04 #@! TD*
G04 #@! TO.C,C2*
X124841000Y-88900000D03*
X127889000Y-88900000D03*
G04 #@! TD*
G04 #@! TO.C,C3*
X113919000Y-92710000D03*
X110871000Y-92710000D03*
G04 #@! TD*
G04 #@! TO.C,C4*
X106299000Y-92710000D03*
X103251000Y-92710000D03*
G04 #@! TD*
G04 #@! TO.C,C5*
X98679000Y-92710000D03*
X95631000Y-92710000D03*
G04 #@! TD*
G04 #@! TO.C,C6*
X88011000Y-92710000D03*
X91059000Y-92710000D03*
G04 #@! TD*
D21*
G04 #@! TO.C,D1*
X103755000Y-75565000D03*
D22*
X107555000Y-76630000D03*
X107555000Y-74500000D03*
G04 #@! TD*
D23*
G04 #@! TO.C,HPS1*
X112395000Y-83235000D03*
D24*
X114675000Y-89535000D03*
X113535000Y-89535000D03*
X111255000Y-89535000D03*
X110115000Y-89535000D03*
G04 #@! TD*
D23*
G04 #@! TO.C,HPS2*
X104775000Y-83235000D03*
D24*
X107055000Y-89535000D03*
X105915000Y-89535000D03*
X103635000Y-89535000D03*
X102495000Y-89535000D03*
G04 #@! TD*
G04 #@! TO.C,HPS3*
X94875000Y-89535000D03*
X96015000Y-89535000D03*
X98295000Y-89535000D03*
X99435000Y-89535000D03*
D23*
X97155000Y-83235000D03*
G04 #@! TD*
D24*
G04 #@! TO.C,HPS4*
X87255000Y-89535000D03*
X88395000Y-89535000D03*
X90675000Y-89535000D03*
X91815000Y-89535000D03*
D23*
X89535000Y-83235000D03*
G04 #@! TD*
D25*
G04 #@! TO.C,L1*
X144780000Y-96520000D03*
X139700000Y-96520000D03*
G04 #@! TD*
G04 #@! TO.C,L2*
X137160000Y-97790000D03*
X132080000Y-97790000D03*
G04 #@! TD*
G04 #@! TO.C,L3*
X132080000Y-95250000D03*
X137160000Y-95250000D03*
G04 #@! TD*
G04 #@! TO.C,L4*
X137160000Y-92710000D03*
X132080000Y-92710000D03*
G04 #@! TD*
G04 #@! TO.C,L5*
X132080000Y-90170000D03*
X137160000Y-90170000D03*
G04 #@! TD*
G04 #@! TO.C,L6*
X137160000Y-87630000D03*
X132080000Y-87630000D03*
G04 #@! TD*
G04 #@! TO.C,L7*
X137160000Y-85090000D03*
X132080000Y-85090000D03*
G04 #@! TD*
G04 #@! TO.C,L8*
X132080000Y-82550000D03*
X137160000Y-82550000D03*
G04 #@! TD*
G04 #@! TO.C,L9*
X132080000Y-80010000D03*
X137160000Y-80010000D03*
G04 #@! TD*
G04 #@! TO.C,L10*
X132080000Y-77470000D03*
X137160000Y-77470000D03*
G04 #@! TD*
G04 #@! TO.C,L11*
X137160000Y-100330000D03*
X132080000Y-100330000D03*
G04 #@! TD*
D26*
G04 #@! TO.C,P1*
X153670000Y-84700000D03*
X153670000Y-93100000D03*
D27*
X146370000Y-84700000D03*
D28*
X146370000Y-88900000D03*
X146370000Y-93100000D03*
X140870000Y-84700000D03*
X140870000Y-88900000D03*
X140870000Y-93100000D03*
G04 #@! TD*
D29*
G04 #@! TO.C,R1*
X112395000Y-98679000D03*
X112395000Y-95631000D03*
G04 #@! TD*
G04 #@! TO.C,R2*
X104775000Y-98679000D03*
X104775000Y-95631000D03*
G04 #@! TD*
G04 #@! TO.C,R3*
X97155000Y-98679000D03*
X97155000Y-95631000D03*
G04 #@! TD*
G04 #@! TO.C,R4*
X89535000Y-95631000D03*
X89535000Y-98679000D03*
G04 #@! TD*
D17*
G04 #@! TO.C,R6*
X134366000Y-103505000D03*
X137414000Y-103505000D03*
G04 #@! TD*
G04 #@! TO.C,R7*
X137414000Y-74295000D03*
X134366000Y-74295000D03*
G04 #@! TD*
G04 #@! TO.C,R8*
X134366000Y-70485000D03*
X137414000Y-70485000D03*
G04 #@! TD*
D30*
G04 #@! TO.C,U1*
X127840000Y-103505000D03*
X127840000Y-102235000D03*
X127840000Y-100965000D03*
X127840000Y-99695000D03*
X127840000Y-98425000D03*
X127840000Y-97155000D03*
X127840000Y-95885000D03*
X127840000Y-94615000D03*
X127840000Y-93345000D03*
X127840000Y-92075000D03*
X118540000Y-92075000D03*
X118540000Y-93345000D03*
X118540000Y-94615000D03*
X118540000Y-95885000D03*
X118540000Y-97155000D03*
X118540000Y-98425000D03*
X118540000Y-99695000D03*
X118540000Y-100965000D03*
X118540000Y-102235000D03*
X118540000Y-103505000D03*
G04 #@! TD*
G04 #@! TO.C,U2*
X118540000Y-85725000D03*
X118540000Y-84455000D03*
X118540000Y-83185000D03*
X118540000Y-81915000D03*
X118540000Y-80645000D03*
X118540000Y-79375000D03*
X118540000Y-78105000D03*
X118540000Y-76835000D03*
X118540000Y-75565000D03*
X118540000Y-74295000D03*
X127840000Y-74295000D03*
X127840000Y-75565000D03*
X127840000Y-76835000D03*
X127840000Y-78105000D03*
X127840000Y-79375000D03*
X127840000Y-80645000D03*
X127840000Y-81915000D03*
X127840000Y-83185000D03*
X127840000Y-84455000D03*
X127840000Y-85725000D03*
G04 #@! TD*
D31*
G04 #@! TO.C,J3*
X153090000Y-72390000D03*
X144090000Y-72390000D03*
G04 #@! TD*
G04 #@! TO.C,J4*
X144090000Y-105410000D03*
X153090000Y-105410000D03*
G04 #@! TD*
D32*
G04 #@! TO.C,U3*
X148590000Y-74565000D03*
X147640000Y-76565000D03*
X149540000Y-76565000D03*
G04 #@! TD*
G04 #@! TO.C,U4*
X147640000Y-101235000D03*
X149540000Y-101235000D03*
X148590000Y-103235000D03*
G04 #@! TD*
M02*
