G04 #@! TF.GenerationSoftware,KiCad,Pcbnew,6.0.0-rc1-unknown-4b44cbe~66~ubuntu18.04.1*
G04 #@! TF.CreationDate,2018-10-29T13:39:10-04:00*
G04 #@! TF.ProjectId,backlight_controller_3x2,6261636B6C696768745F636F6E74726F,1.2*
G04 #@! TF.SameCoordinates,Original*
G04 #@! TF.FileFunction,Legend,Top*
G04 #@! TF.FilePolarity,Positive*
%FSLAX46Y46*%
G04 Gerber Fmt 4.6, Leading zero omitted, Abs format (unit mm)*
G04 Created by KiCad (PCBNEW 6.0.0-rc1-unknown-4b44cbe~66~ubuntu18.04.1) date Mon 29 Oct 2018 01:39:10 PM EDT*
%MOMM*%
%LPD*%
G01*
G04 APERTURE LIST*
%ADD10C,0.317500*%
%ADD11C,0.254000*%
%ADD12C,0.228600*%
%ADD13C,0.127000*%
%ADD14C,0.190500*%
%ADD15C,0.381000*%
%ADD16C,0.400000*%
%ADD17C,0.285750*%
%ADD18C,2.200000*%
%ADD19R,13.000000X3.400000*%
%ADD20R,13.000000X3.400001*%
%ADD21R,2.400000X1.000000*%
%ADD22C,3.556000*%
%ADD23O,1.854200X2.540000*%
%ADD24R,1.854200X2.540000*%
%ADD25O,2.032000X1.524000*%
%ADD26C,4.000000*%
%ADD27R,4.000000X3.000000*%
%ADD28O,4.000000X3.000000*%
%ADD29C,2.500000*%
%ADD30R,2.351600X7.951600*%
%ADD31C,1.601600*%
G04 APERTURE END LIST*
D10*
X141998095Y-81340476D02*
X142058571Y-81280000D01*
X142179523Y-81219523D01*
X142481904Y-81219523D01*
X142602857Y-81280000D01*
X142663333Y-81340476D01*
X142723809Y-81461428D01*
X142723809Y-81582380D01*
X142663333Y-81763809D01*
X141937619Y-82489523D01*
X142723809Y-82489523D01*
X143812380Y-81642857D02*
X143812380Y-82489523D01*
X143510000Y-81159047D02*
X143207619Y-82066190D01*
X143993809Y-82066190D01*
X144296190Y-81219523D02*
X144719523Y-82489523D01*
X145142857Y-81219523D01*
D11*
X134130142Y-103964619D02*
X134468809Y-104980619D01*
X134807476Y-103964619D01*
X135146142Y-104980619D02*
X135146142Y-104303285D01*
X135146142Y-103964619D02*
X135097761Y-104013000D01*
X135146142Y-104061380D01*
X135194523Y-104013000D01*
X135146142Y-103964619D01*
X135146142Y-104061380D01*
X135581571Y-104932238D02*
X135678333Y-104980619D01*
X135871857Y-104980619D01*
X135968619Y-104932238D01*
X136017000Y-104835476D01*
X136017000Y-104787095D01*
X135968619Y-104690333D01*
X135871857Y-104641952D01*
X135726714Y-104641952D01*
X135629952Y-104593571D01*
X135581571Y-104496809D01*
X135581571Y-104448428D01*
X135629952Y-104351666D01*
X135726714Y-104303285D01*
X135871857Y-104303285D01*
X135968619Y-104351666D01*
X136452428Y-104980619D02*
X136452428Y-104303285D01*
X136452428Y-103964619D02*
X136404047Y-104013000D01*
X136452428Y-104061380D01*
X136500809Y-104013000D01*
X136452428Y-103964619D01*
X136452428Y-104061380D01*
X136936238Y-104980619D02*
X136936238Y-103964619D01*
X136936238Y-104351666D02*
X137033000Y-104303285D01*
X137226523Y-104303285D01*
X137323285Y-104351666D01*
X137371666Y-104400047D01*
X137420047Y-104496809D01*
X137420047Y-104787095D01*
X137371666Y-104883857D01*
X137323285Y-104932238D01*
X137226523Y-104980619D01*
X137033000Y-104980619D01*
X136936238Y-104932238D01*
X138000619Y-104980619D02*
X137903857Y-104932238D01*
X137855476Y-104835476D01*
X137855476Y-103964619D01*
X138774714Y-104932238D02*
X138677952Y-104980619D01*
X138484428Y-104980619D01*
X138387666Y-104932238D01*
X138339285Y-104835476D01*
X138339285Y-104448428D01*
X138387666Y-104351666D01*
X138484428Y-104303285D01*
X138677952Y-104303285D01*
X138774714Y-104351666D01*
X138823095Y-104448428D01*
X138823095Y-104545190D01*
X138339285Y-104641952D01*
X133573761Y-106226428D02*
X133718904Y-106274809D01*
X133767285Y-106323190D01*
X133815666Y-106419952D01*
X133815666Y-106565095D01*
X133767285Y-106661857D01*
X133718904Y-106710238D01*
X133622142Y-106758619D01*
X133235095Y-106758619D01*
X133235095Y-105742619D01*
X133573761Y-105742619D01*
X133670523Y-105791000D01*
X133718904Y-105839380D01*
X133767285Y-105936142D01*
X133767285Y-106032904D01*
X133718904Y-106129666D01*
X133670523Y-106178047D01*
X133573761Y-106226428D01*
X133235095Y-106226428D01*
X134686523Y-106758619D02*
X134686523Y-106226428D01*
X134638142Y-106129666D01*
X134541380Y-106081285D01*
X134347857Y-106081285D01*
X134251095Y-106129666D01*
X134686523Y-106710238D02*
X134589761Y-106758619D01*
X134347857Y-106758619D01*
X134251095Y-106710238D01*
X134202714Y-106613476D01*
X134202714Y-106516714D01*
X134251095Y-106419952D01*
X134347857Y-106371571D01*
X134589761Y-106371571D01*
X134686523Y-106323190D01*
X135605761Y-106710238D02*
X135509000Y-106758619D01*
X135315476Y-106758619D01*
X135218714Y-106710238D01*
X135170333Y-106661857D01*
X135121952Y-106565095D01*
X135121952Y-106274809D01*
X135170333Y-106178047D01*
X135218714Y-106129666D01*
X135315476Y-106081285D01*
X135509000Y-106081285D01*
X135605761Y-106129666D01*
X136041190Y-106758619D02*
X136041190Y-105742619D01*
X136137952Y-106371571D02*
X136428238Y-106758619D01*
X136428238Y-106081285D02*
X136041190Y-106468333D01*
X137008809Y-106758619D02*
X136912047Y-106710238D01*
X136863666Y-106613476D01*
X136863666Y-105742619D01*
X137395857Y-106758619D02*
X137395857Y-106081285D01*
X137395857Y-105742619D02*
X137347476Y-105791000D01*
X137395857Y-105839380D01*
X137444238Y-105791000D01*
X137395857Y-105742619D01*
X137395857Y-105839380D01*
X138315095Y-106081285D02*
X138315095Y-106903761D01*
X138266714Y-107000523D01*
X138218333Y-107048904D01*
X138121571Y-107097285D01*
X137976428Y-107097285D01*
X137879666Y-107048904D01*
X138315095Y-106710238D02*
X138218333Y-106758619D01*
X138024809Y-106758619D01*
X137928047Y-106710238D01*
X137879666Y-106661857D01*
X137831285Y-106565095D01*
X137831285Y-106274809D01*
X137879666Y-106178047D01*
X137928047Y-106129666D01*
X138024809Y-106081285D01*
X138218333Y-106081285D01*
X138315095Y-106129666D01*
X138798904Y-106758619D02*
X138798904Y-105742619D01*
X139234333Y-106758619D02*
X139234333Y-106226428D01*
X139185952Y-106129666D01*
X139089190Y-106081285D01*
X138944047Y-106081285D01*
X138847285Y-106129666D01*
X138798904Y-106178047D01*
X139573000Y-106081285D02*
X139960047Y-106081285D01*
X139718142Y-105742619D02*
X139718142Y-106613476D01*
X139766523Y-106710238D01*
X139863285Y-106758619D01*
X139960047Y-106758619D01*
X135382000Y-71960619D02*
X135382000Y-70944619D01*
X136446380Y-71960619D02*
X136107714Y-71476809D01*
X135865809Y-71960619D02*
X135865809Y-70944619D01*
X136252857Y-70944619D01*
X136349619Y-70993000D01*
X136398000Y-71041380D01*
X136446380Y-71138142D01*
X136446380Y-71283285D01*
X136398000Y-71380047D01*
X136349619Y-71428428D01*
X136252857Y-71476809D01*
X135865809Y-71476809D01*
X132938761Y-73206428D02*
X133083904Y-73254809D01*
X133132285Y-73303190D01*
X133180666Y-73399952D01*
X133180666Y-73545095D01*
X133132285Y-73641857D01*
X133083904Y-73690238D01*
X132987142Y-73738619D01*
X132600095Y-73738619D01*
X132600095Y-72722619D01*
X132938761Y-72722619D01*
X133035523Y-72771000D01*
X133083904Y-72819380D01*
X133132285Y-72916142D01*
X133132285Y-73012904D01*
X133083904Y-73109666D01*
X133035523Y-73158047D01*
X132938761Y-73206428D01*
X132600095Y-73206428D01*
X134051523Y-73738619D02*
X134051523Y-73206428D01*
X134003142Y-73109666D01*
X133906380Y-73061285D01*
X133712857Y-73061285D01*
X133616095Y-73109666D01*
X134051523Y-73690238D02*
X133954761Y-73738619D01*
X133712857Y-73738619D01*
X133616095Y-73690238D01*
X133567714Y-73593476D01*
X133567714Y-73496714D01*
X133616095Y-73399952D01*
X133712857Y-73351571D01*
X133954761Y-73351571D01*
X134051523Y-73303190D01*
X134970761Y-73690238D02*
X134874000Y-73738619D01*
X134680476Y-73738619D01*
X134583714Y-73690238D01*
X134535333Y-73641857D01*
X134486952Y-73545095D01*
X134486952Y-73254809D01*
X134535333Y-73158047D01*
X134583714Y-73109666D01*
X134680476Y-73061285D01*
X134874000Y-73061285D01*
X134970761Y-73109666D01*
X135406190Y-73738619D02*
X135406190Y-72722619D01*
X135502952Y-73351571D02*
X135793238Y-73738619D01*
X135793238Y-73061285D02*
X135406190Y-73448333D01*
X136373809Y-73738619D02*
X136277047Y-73690238D01*
X136228666Y-73593476D01*
X136228666Y-72722619D01*
X136760857Y-73738619D02*
X136760857Y-73061285D01*
X136760857Y-72722619D02*
X136712476Y-72771000D01*
X136760857Y-72819380D01*
X136809238Y-72771000D01*
X136760857Y-72722619D01*
X136760857Y-72819380D01*
X137680095Y-73061285D02*
X137680095Y-73883761D01*
X137631714Y-73980523D01*
X137583333Y-74028904D01*
X137486571Y-74077285D01*
X137341428Y-74077285D01*
X137244666Y-74028904D01*
X137680095Y-73690238D02*
X137583333Y-73738619D01*
X137389809Y-73738619D01*
X137293047Y-73690238D01*
X137244666Y-73641857D01*
X137196285Y-73545095D01*
X137196285Y-73254809D01*
X137244666Y-73158047D01*
X137293047Y-73109666D01*
X137389809Y-73061285D01*
X137583333Y-73061285D01*
X137680095Y-73109666D01*
X138163904Y-73738619D02*
X138163904Y-72722619D01*
X138599333Y-73738619D02*
X138599333Y-73206428D01*
X138550952Y-73109666D01*
X138454190Y-73061285D01*
X138309047Y-73061285D01*
X138212285Y-73109666D01*
X138163904Y-73158047D01*
X138938000Y-73061285D02*
X139325047Y-73061285D01*
X139083142Y-72722619D02*
X139083142Y-73593476D01*
X139131523Y-73690238D01*
X139228285Y-73738619D01*
X139325047Y-73738619D01*
X125935619Y-92770476D02*
X125935619Y-93254285D01*
X124919619Y-93254285D01*
X125935619Y-92286666D02*
X125887238Y-92383428D01*
X125838857Y-92431809D01*
X125742095Y-92480190D01*
X125451809Y-92480190D01*
X125355047Y-92431809D01*
X125306666Y-92383428D01*
X125258285Y-92286666D01*
X125258285Y-92141523D01*
X125306666Y-92044761D01*
X125355047Y-91996380D01*
X125451809Y-91948000D01*
X125742095Y-91948000D01*
X125838857Y-91996380D01*
X125887238Y-92044761D01*
X125935619Y-92141523D01*
X125935619Y-92286666D01*
X125258285Y-91609333D02*
X125935619Y-91415809D01*
X125451809Y-91222285D01*
X125935619Y-91028761D01*
X125258285Y-90835238D01*
X124919619Y-89819238D02*
X125935619Y-89480571D01*
X124919619Y-89141904D01*
X125935619Y-88658095D02*
X125887238Y-88754857D01*
X125838857Y-88803238D01*
X125742095Y-88851619D01*
X125451809Y-88851619D01*
X125355047Y-88803238D01*
X125306666Y-88754857D01*
X125258285Y-88658095D01*
X125258285Y-88512952D01*
X125306666Y-88416190D01*
X125355047Y-88367809D01*
X125451809Y-88319428D01*
X125742095Y-88319428D01*
X125838857Y-88367809D01*
X125887238Y-88416190D01*
X125935619Y-88512952D01*
X125935619Y-88658095D01*
X125935619Y-87738857D02*
X125887238Y-87835619D01*
X125790476Y-87884000D01*
X124919619Y-87884000D01*
X125258285Y-87496952D02*
X125258285Y-87109904D01*
X124919619Y-87351809D02*
X125790476Y-87351809D01*
X125887238Y-87303428D01*
X125935619Y-87206666D01*
X125935619Y-87109904D01*
X125935619Y-86335809D02*
X125403428Y-86335809D01*
X125306666Y-86384190D01*
X125258285Y-86480952D01*
X125258285Y-86674476D01*
X125306666Y-86771238D01*
X125887238Y-86335809D02*
X125935619Y-86432571D01*
X125935619Y-86674476D01*
X125887238Y-86771238D01*
X125790476Y-86819619D01*
X125693714Y-86819619D01*
X125596952Y-86771238D01*
X125548571Y-86674476D01*
X125548571Y-86432571D01*
X125500190Y-86335809D01*
X125258285Y-85416571D02*
X126080761Y-85416571D01*
X126177523Y-85464952D01*
X126225904Y-85513333D01*
X126274285Y-85610095D01*
X126274285Y-85755238D01*
X126225904Y-85852000D01*
X125887238Y-85416571D02*
X125935619Y-85513333D01*
X125935619Y-85706857D01*
X125887238Y-85803619D01*
X125838857Y-85852000D01*
X125742095Y-85900380D01*
X125451809Y-85900380D01*
X125355047Y-85852000D01*
X125306666Y-85803619D01*
X125258285Y-85706857D01*
X125258285Y-85513333D01*
X125306666Y-85416571D01*
X125887238Y-84545714D02*
X125935619Y-84642476D01*
X125935619Y-84836000D01*
X125887238Y-84932761D01*
X125790476Y-84981142D01*
X125403428Y-84981142D01*
X125306666Y-84932761D01*
X125258285Y-84836000D01*
X125258285Y-84642476D01*
X125306666Y-84545714D01*
X125403428Y-84497333D01*
X125500190Y-84497333D01*
X125596952Y-84981142D01*
X127616857Y-91536761D02*
X127665238Y-91585142D01*
X127713619Y-91730285D01*
X127713619Y-91827047D01*
X127665238Y-91972190D01*
X127568476Y-92068952D01*
X127471714Y-92117333D01*
X127278190Y-92165714D01*
X127133047Y-92165714D01*
X126939523Y-92117333D01*
X126842761Y-92068952D01*
X126746000Y-91972190D01*
X126697619Y-91827047D01*
X126697619Y-91730285D01*
X126746000Y-91585142D01*
X126794380Y-91536761D01*
X127713619Y-91101333D02*
X126697619Y-91101333D01*
X127713619Y-90665904D02*
X127181428Y-90665904D01*
X127084666Y-90714285D01*
X127036285Y-90811047D01*
X127036285Y-90956190D01*
X127084666Y-91052952D01*
X127133047Y-91101333D01*
X127713619Y-89746666D02*
X127181428Y-89746666D01*
X127084666Y-89795047D01*
X127036285Y-89891809D01*
X127036285Y-90085333D01*
X127084666Y-90182095D01*
X127665238Y-89746666D02*
X127713619Y-89843428D01*
X127713619Y-90085333D01*
X127665238Y-90182095D01*
X127568476Y-90230476D01*
X127471714Y-90230476D01*
X127374952Y-90182095D01*
X127326571Y-90085333D01*
X127326571Y-89843428D01*
X127278190Y-89746666D01*
X127036285Y-89262857D02*
X127713619Y-89262857D01*
X127133047Y-89262857D02*
X127084666Y-89214476D01*
X127036285Y-89117714D01*
X127036285Y-88972571D01*
X127084666Y-88875809D01*
X127181428Y-88827428D01*
X127713619Y-88827428D01*
X127036285Y-88343619D02*
X127713619Y-88343619D01*
X127133047Y-88343619D02*
X127084666Y-88295238D01*
X127036285Y-88198476D01*
X127036285Y-88053333D01*
X127084666Y-87956571D01*
X127181428Y-87908190D01*
X127713619Y-87908190D01*
X127665238Y-87037333D02*
X127713619Y-87134095D01*
X127713619Y-87327619D01*
X127665238Y-87424380D01*
X127568476Y-87472761D01*
X127181428Y-87472761D01*
X127084666Y-87424380D01*
X127036285Y-87327619D01*
X127036285Y-87134095D01*
X127084666Y-87037333D01*
X127181428Y-86988952D01*
X127278190Y-86988952D01*
X127374952Y-87472761D01*
X127713619Y-86408380D02*
X127665238Y-86505142D01*
X127568476Y-86553523D01*
X126697619Y-86553523D01*
X127665238Y-86069714D02*
X127713619Y-85972952D01*
X127713619Y-85779428D01*
X127665238Y-85682666D01*
X127568476Y-85634285D01*
X127520095Y-85634285D01*
X127423333Y-85682666D01*
X127374952Y-85779428D01*
X127374952Y-85924571D01*
X127326571Y-86021333D01*
X127229809Y-86069714D01*
X127181428Y-86069714D01*
X127084666Y-86021333D01*
X127036285Y-85924571D01*
X127036285Y-85779428D01*
X127084666Y-85682666D01*
X108155619Y-93544571D02*
X107139619Y-93544571D01*
X107623428Y-93544571D02*
X107623428Y-92964000D01*
X108155619Y-92964000D02*
X107139619Y-92964000D01*
X108155619Y-92480190D02*
X107478285Y-92480190D01*
X107139619Y-92480190D02*
X107188000Y-92528571D01*
X107236380Y-92480190D01*
X107188000Y-92431809D01*
X107139619Y-92480190D01*
X107236380Y-92480190D01*
X107478285Y-91560952D02*
X108300761Y-91560952D01*
X108397523Y-91609333D01*
X108445904Y-91657714D01*
X108494285Y-91754476D01*
X108494285Y-91899619D01*
X108445904Y-91996380D01*
X108107238Y-91560952D02*
X108155619Y-91657714D01*
X108155619Y-91851238D01*
X108107238Y-91948000D01*
X108058857Y-91996380D01*
X107962095Y-92044761D01*
X107671809Y-92044761D01*
X107575047Y-91996380D01*
X107526666Y-91948000D01*
X107478285Y-91851238D01*
X107478285Y-91657714D01*
X107526666Y-91560952D01*
X108155619Y-91077142D02*
X107139619Y-91077142D01*
X108155619Y-90641714D02*
X107623428Y-90641714D01*
X107526666Y-90690095D01*
X107478285Y-90786857D01*
X107478285Y-90932000D01*
X107526666Y-91028761D01*
X107575047Y-91077142D01*
X107139619Y-89528952D02*
X108155619Y-89190285D01*
X107139619Y-88851619D01*
X108155619Y-88367809D02*
X108107238Y-88464571D01*
X108058857Y-88512952D01*
X107962095Y-88561333D01*
X107671809Y-88561333D01*
X107575047Y-88512952D01*
X107526666Y-88464571D01*
X107478285Y-88367809D01*
X107478285Y-88222666D01*
X107526666Y-88125904D01*
X107575047Y-88077523D01*
X107671809Y-88029142D01*
X107962095Y-88029142D01*
X108058857Y-88077523D01*
X108107238Y-88125904D01*
X108155619Y-88222666D01*
X108155619Y-88367809D01*
X108155619Y-87448571D02*
X108107238Y-87545333D01*
X108010476Y-87593714D01*
X107139619Y-87593714D01*
X107478285Y-87206666D02*
X107478285Y-86819619D01*
X107139619Y-87061523D02*
X108010476Y-87061523D01*
X108107238Y-87013142D01*
X108155619Y-86916380D01*
X108155619Y-86819619D01*
X108155619Y-86045523D02*
X107623428Y-86045523D01*
X107526666Y-86093904D01*
X107478285Y-86190666D01*
X107478285Y-86384190D01*
X107526666Y-86480952D01*
X108107238Y-86045523D02*
X108155619Y-86142285D01*
X108155619Y-86384190D01*
X108107238Y-86480952D01*
X108010476Y-86529333D01*
X107913714Y-86529333D01*
X107816952Y-86480952D01*
X107768571Y-86384190D01*
X107768571Y-86142285D01*
X107720190Y-86045523D01*
X107478285Y-85126285D02*
X108300761Y-85126285D01*
X108397523Y-85174666D01*
X108445904Y-85223047D01*
X108494285Y-85319809D01*
X108494285Y-85464952D01*
X108445904Y-85561714D01*
X108107238Y-85126285D02*
X108155619Y-85223047D01*
X108155619Y-85416571D01*
X108107238Y-85513333D01*
X108058857Y-85561714D01*
X107962095Y-85610095D01*
X107671809Y-85610095D01*
X107575047Y-85561714D01*
X107526666Y-85513333D01*
X107478285Y-85416571D01*
X107478285Y-85223047D01*
X107526666Y-85126285D01*
X108107238Y-84255428D02*
X108155619Y-84352190D01*
X108155619Y-84545714D01*
X108107238Y-84642476D01*
X108010476Y-84690857D01*
X107623428Y-84690857D01*
X107526666Y-84642476D01*
X107478285Y-84545714D01*
X107478285Y-84352190D01*
X107526666Y-84255428D01*
X107623428Y-84207047D01*
X107720190Y-84207047D01*
X107816952Y-84690857D01*
X109836857Y-91536761D02*
X109885238Y-91585142D01*
X109933619Y-91730285D01*
X109933619Y-91827047D01*
X109885238Y-91972190D01*
X109788476Y-92068952D01*
X109691714Y-92117333D01*
X109498190Y-92165714D01*
X109353047Y-92165714D01*
X109159523Y-92117333D01*
X109062761Y-92068952D01*
X108966000Y-91972190D01*
X108917619Y-91827047D01*
X108917619Y-91730285D01*
X108966000Y-91585142D01*
X109014380Y-91536761D01*
X109933619Y-91101333D02*
X108917619Y-91101333D01*
X109933619Y-90665904D02*
X109401428Y-90665904D01*
X109304666Y-90714285D01*
X109256285Y-90811047D01*
X109256285Y-90956190D01*
X109304666Y-91052952D01*
X109353047Y-91101333D01*
X109933619Y-89746666D02*
X109401428Y-89746666D01*
X109304666Y-89795047D01*
X109256285Y-89891809D01*
X109256285Y-90085333D01*
X109304666Y-90182095D01*
X109885238Y-89746666D02*
X109933619Y-89843428D01*
X109933619Y-90085333D01*
X109885238Y-90182095D01*
X109788476Y-90230476D01*
X109691714Y-90230476D01*
X109594952Y-90182095D01*
X109546571Y-90085333D01*
X109546571Y-89843428D01*
X109498190Y-89746666D01*
X109256285Y-89262857D02*
X109933619Y-89262857D01*
X109353047Y-89262857D02*
X109304666Y-89214476D01*
X109256285Y-89117714D01*
X109256285Y-88972571D01*
X109304666Y-88875809D01*
X109401428Y-88827428D01*
X109933619Y-88827428D01*
X109256285Y-88343619D02*
X109933619Y-88343619D01*
X109353047Y-88343619D02*
X109304666Y-88295238D01*
X109256285Y-88198476D01*
X109256285Y-88053333D01*
X109304666Y-87956571D01*
X109401428Y-87908190D01*
X109933619Y-87908190D01*
X109885238Y-87037333D02*
X109933619Y-87134095D01*
X109933619Y-87327619D01*
X109885238Y-87424380D01*
X109788476Y-87472761D01*
X109401428Y-87472761D01*
X109304666Y-87424380D01*
X109256285Y-87327619D01*
X109256285Y-87134095D01*
X109304666Y-87037333D01*
X109401428Y-86988952D01*
X109498190Y-86988952D01*
X109594952Y-87472761D01*
X109933619Y-86408380D02*
X109885238Y-86505142D01*
X109788476Y-86553523D01*
X108917619Y-86553523D01*
X109885238Y-86069714D02*
X109933619Y-85972952D01*
X109933619Y-85779428D01*
X109885238Y-85682666D01*
X109788476Y-85634285D01*
X109740095Y-85634285D01*
X109643333Y-85682666D01*
X109594952Y-85779428D01*
X109594952Y-85924571D01*
X109546571Y-86021333D01*
X109449809Y-86069714D01*
X109401428Y-86069714D01*
X109304666Y-86021333D01*
X109256285Y-85924571D01*
X109256285Y-85779428D01*
X109304666Y-85682666D01*
D12*
X128270000Y-78740000D02*
X128270000Y-99060000D01*
X130810000Y-78740000D02*
X128270000Y-78740000D01*
X128270000Y-99060000D02*
X130810000Y-99060000D01*
X130810000Y-88900000D02*
X128270000Y-88900000D01*
D13*
X129249714Y-87678380D02*
X129249714Y-87920285D01*
X128487714Y-87920285D01*
X129249714Y-87436476D02*
X129213428Y-87484857D01*
X129177142Y-87509047D01*
X129104571Y-87533238D01*
X128886857Y-87533238D01*
X128814285Y-87509047D01*
X128778000Y-87484857D01*
X128741714Y-87436476D01*
X128741714Y-87363904D01*
X128778000Y-87315523D01*
X128814285Y-87291333D01*
X128886857Y-87267142D01*
X129104571Y-87267142D01*
X129177142Y-87291333D01*
X129213428Y-87315523D01*
X129249714Y-87363904D01*
X129249714Y-87436476D01*
X128741714Y-87097809D02*
X129249714Y-87001047D01*
X128886857Y-86904285D01*
X129249714Y-86807523D01*
X128741714Y-86710761D01*
X128487714Y-86202761D02*
X129249714Y-86033428D01*
X128487714Y-85864095D01*
X129249714Y-85622190D02*
X129213428Y-85670571D01*
X129177142Y-85694761D01*
X129104571Y-85718952D01*
X128886857Y-85718952D01*
X128814285Y-85694761D01*
X128778000Y-85670571D01*
X128741714Y-85622190D01*
X128741714Y-85549619D01*
X128778000Y-85501238D01*
X128814285Y-85477047D01*
X128886857Y-85452857D01*
X129104571Y-85452857D01*
X129177142Y-85477047D01*
X129213428Y-85501238D01*
X129249714Y-85549619D01*
X129249714Y-85622190D01*
X129249714Y-85162571D02*
X129213428Y-85210952D01*
X129140857Y-85235142D01*
X128487714Y-85235142D01*
X128741714Y-85041619D02*
X128741714Y-84848095D01*
X128487714Y-84969047D02*
X129140857Y-84969047D01*
X129213428Y-84944857D01*
X129249714Y-84896476D01*
X129249714Y-84848095D01*
X129249714Y-84461047D02*
X128850571Y-84461047D01*
X128778000Y-84485238D01*
X128741714Y-84533619D01*
X128741714Y-84630380D01*
X128778000Y-84678761D01*
X129213428Y-84461047D02*
X129249714Y-84509428D01*
X129249714Y-84630380D01*
X129213428Y-84678761D01*
X129140857Y-84702952D01*
X129068285Y-84702952D01*
X128995714Y-84678761D01*
X128959428Y-84630380D01*
X128959428Y-84509428D01*
X128923142Y-84461047D01*
X128741714Y-84001428D02*
X129358571Y-84001428D01*
X129431142Y-84025619D01*
X129467428Y-84049809D01*
X129503714Y-84098190D01*
X129503714Y-84170761D01*
X129467428Y-84219142D01*
X129213428Y-84001428D02*
X129249714Y-84049809D01*
X129249714Y-84146571D01*
X129213428Y-84194952D01*
X129177142Y-84219142D01*
X129104571Y-84243333D01*
X128886857Y-84243333D01*
X128814285Y-84219142D01*
X128778000Y-84194952D01*
X128741714Y-84146571D01*
X128741714Y-84049809D01*
X128778000Y-84001428D01*
X129213428Y-83566000D02*
X129249714Y-83614380D01*
X129249714Y-83711142D01*
X129213428Y-83759523D01*
X129140857Y-83783714D01*
X128850571Y-83783714D01*
X128778000Y-83759523D01*
X128741714Y-83711142D01*
X128741714Y-83614380D01*
X128778000Y-83566000D01*
X128850571Y-83541809D01*
X128923142Y-83541809D01*
X128995714Y-83783714D01*
X129177142Y-82646761D02*
X129213428Y-82670952D01*
X129249714Y-82743523D01*
X129249714Y-82791904D01*
X129213428Y-82864476D01*
X129140857Y-82912857D01*
X129068285Y-82937047D01*
X128923142Y-82961238D01*
X128814285Y-82961238D01*
X128669142Y-82937047D01*
X128596571Y-82912857D01*
X128524000Y-82864476D01*
X128487714Y-82791904D01*
X128487714Y-82743523D01*
X128524000Y-82670952D01*
X128560285Y-82646761D01*
X129249714Y-82429047D02*
X128487714Y-82429047D01*
X129249714Y-82211333D02*
X128850571Y-82211333D01*
X128778000Y-82235523D01*
X128741714Y-82283904D01*
X128741714Y-82356476D01*
X128778000Y-82404857D01*
X128814285Y-82429047D01*
X129249714Y-81751714D02*
X128850571Y-81751714D01*
X128778000Y-81775904D01*
X128741714Y-81824285D01*
X128741714Y-81921047D01*
X128778000Y-81969428D01*
X129213428Y-81751714D02*
X129249714Y-81800095D01*
X129249714Y-81921047D01*
X129213428Y-81969428D01*
X129140857Y-81993619D01*
X129068285Y-81993619D01*
X128995714Y-81969428D01*
X128959428Y-81921047D01*
X128959428Y-81800095D01*
X128923142Y-81751714D01*
X128741714Y-81509809D02*
X129249714Y-81509809D01*
X128814285Y-81509809D02*
X128778000Y-81485619D01*
X128741714Y-81437238D01*
X128741714Y-81364666D01*
X128778000Y-81316285D01*
X128850571Y-81292095D01*
X129249714Y-81292095D01*
X128741714Y-81050190D02*
X129249714Y-81050190D01*
X128814285Y-81050190D02*
X128778000Y-81026000D01*
X128741714Y-80977619D01*
X128741714Y-80905047D01*
X128778000Y-80856666D01*
X128850571Y-80832476D01*
X129249714Y-80832476D01*
X129213428Y-80397047D02*
X129249714Y-80445428D01*
X129249714Y-80542190D01*
X129213428Y-80590571D01*
X129140857Y-80614761D01*
X128850571Y-80614761D01*
X128778000Y-80590571D01*
X128741714Y-80542190D01*
X128741714Y-80445428D01*
X128778000Y-80397047D01*
X128850571Y-80372857D01*
X128923142Y-80372857D01*
X128995714Y-80614761D01*
X129249714Y-80082571D02*
X129213428Y-80130952D01*
X129140857Y-80155142D01*
X128487714Y-80155142D01*
X129213428Y-79913238D02*
X129249714Y-79864857D01*
X129249714Y-79768095D01*
X129213428Y-79719714D01*
X129140857Y-79695523D01*
X129104571Y-79695523D01*
X129032000Y-79719714D01*
X128995714Y-79768095D01*
X128995714Y-79840666D01*
X128959428Y-79889047D01*
X128886857Y-79913238D01*
X128850571Y-79913238D01*
X128778000Y-79889047D01*
X128741714Y-79840666D01*
X128741714Y-79768095D01*
X128778000Y-79719714D01*
X129249714Y-98225428D02*
X128487714Y-98225428D01*
X128850571Y-98225428D02*
X128850571Y-97935142D01*
X129249714Y-97935142D02*
X128487714Y-97935142D01*
X129249714Y-97693238D02*
X128741714Y-97693238D01*
X128487714Y-97693238D02*
X128524000Y-97717428D01*
X128560285Y-97693238D01*
X128524000Y-97669047D01*
X128487714Y-97693238D01*
X128560285Y-97693238D01*
X128741714Y-97233619D02*
X129358571Y-97233619D01*
X129431142Y-97257809D01*
X129467428Y-97282000D01*
X129503714Y-97330380D01*
X129503714Y-97402952D01*
X129467428Y-97451333D01*
X129213428Y-97233619D02*
X129249714Y-97282000D01*
X129249714Y-97378761D01*
X129213428Y-97427142D01*
X129177142Y-97451333D01*
X129104571Y-97475523D01*
X128886857Y-97475523D01*
X128814285Y-97451333D01*
X128778000Y-97427142D01*
X128741714Y-97378761D01*
X128741714Y-97282000D01*
X128778000Y-97233619D01*
X129249714Y-96991714D02*
X128487714Y-96991714D01*
X129249714Y-96774000D02*
X128850571Y-96774000D01*
X128778000Y-96798190D01*
X128741714Y-96846571D01*
X128741714Y-96919142D01*
X128778000Y-96967523D01*
X128814285Y-96991714D01*
X128487714Y-96217619D02*
X129249714Y-96048285D01*
X128487714Y-95878952D01*
X129249714Y-95637047D02*
X129213428Y-95685428D01*
X129177142Y-95709619D01*
X129104571Y-95733809D01*
X128886857Y-95733809D01*
X128814285Y-95709619D01*
X128778000Y-95685428D01*
X128741714Y-95637047D01*
X128741714Y-95564476D01*
X128778000Y-95516095D01*
X128814285Y-95491904D01*
X128886857Y-95467714D01*
X129104571Y-95467714D01*
X129177142Y-95491904D01*
X129213428Y-95516095D01*
X129249714Y-95564476D01*
X129249714Y-95637047D01*
X129249714Y-95177428D02*
X129213428Y-95225809D01*
X129140857Y-95250000D01*
X128487714Y-95250000D01*
X128741714Y-95056476D02*
X128741714Y-94862952D01*
X128487714Y-94983904D02*
X129140857Y-94983904D01*
X129213428Y-94959714D01*
X129249714Y-94911333D01*
X129249714Y-94862952D01*
X129249714Y-94475904D02*
X128850571Y-94475904D01*
X128778000Y-94500095D01*
X128741714Y-94548476D01*
X128741714Y-94645238D01*
X128778000Y-94693619D01*
X129213428Y-94475904D02*
X129249714Y-94524285D01*
X129249714Y-94645238D01*
X129213428Y-94693619D01*
X129140857Y-94717809D01*
X129068285Y-94717809D01*
X128995714Y-94693619D01*
X128959428Y-94645238D01*
X128959428Y-94524285D01*
X128923142Y-94475904D01*
X128741714Y-94016285D02*
X129358571Y-94016285D01*
X129431142Y-94040476D01*
X129467428Y-94064666D01*
X129503714Y-94113047D01*
X129503714Y-94185619D01*
X129467428Y-94234000D01*
X129213428Y-94016285D02*
X129249714Y-94064666D01*
X129249714Y-94161428D01*
X129213428Y-94209809D01*
X129177142Y-94234000D01*
X129104571Y-94258190D01*
X128886857Y-94258190D01*
X128814285Y-94234000D01*
X128778000Y-94209809D01*
X128741714Y-94161428D01*
X128741714Y-94064666D01*
X128778000Y-94016285D01*
X129213428Y-93580857D02*
X129249714Y-93629238D01*
X129249714Y-93726000D01*
X129213428Y-93774380D01*
X129140857Y-93798571D01*
X128850571Y-93798571D01*
X128778000Y-93774380D01*
X128741714Y-93726000D01*
X128741714Y-93629238D01*
X128778000Y-93580857D01*
X128850571Y-93556666D01*
X128923142Y-93556666D01*
X128995714Y-93798571D01*
X129177142Y-92661619D02*
X129213428Y-92685809D01*
X129249714Y-92758380D01*
X129249714Y-92806761D01*
X129213428Y-92879333D01*
X129140857Y-92927714D01*
X129068285Y-92951904D01*
X128923142Y-92976095D01*
X128814285Y-92976095D01*
X128669142Y-92951904D01*
X128596571Y-92927714D01*
X128524000Y-92879333D01*
X128487714Y-92806761D01*
X128487714Y-92758380D01*
X128524000Y-92685809D01*
X128560285Y-92661619D01*
X129249714Y-92443904D02*
X128487714Y-92443904D01*
X129249714Y-92226190D02*
X128850571Y-92226190D01*
X128778000Y-92250380D01*
X128741714Y-92298761D01*
X128741714Y-92371333D01*
X128778000Y-92419714D01*
X128814285Y-92443904D01*
X129249714Y-91766571D02*
X128850571Y-91766571D01*
X128778000Y-91790761D01*
X128741714Y-91839142D01*
X128741714Y-91935904D01*
X128778000Y-91984285D01*
X129213428Y-91766571D02*
X129249714Y-91814952D01*
X129249714Y-91935904D01*
X129213428Y-91984285D01*
X129140857Y-92008476D01*
X129068285Y-92008476D01*
X128995714Y-91984285D01*
X128959428Y-91935904D01*
X128959428Y-91814952D01*
X128923142Y-91766571D01*
X128741714Y-91524666D02*
X129249714Y-91524666D01*
X128814285Y-91524666D02*
X128778000Y-91500476D01*
X128741714Y-91452095D01*
X128741714Y-91379523D01*
X128778000Y-91331142D01*
X128850571Y-91306952D01*
X129249714Y-91306952D01*
X128741714Y-91065047D02*
X129249714Y-91065047D01*
X128814285Y-91065047D02*
X128778000Y-91040857D01*
X128741714Y-90992476D01*
X128741714Y-90919904D01*
X128778000Y-90871523D01*
X128850571Y-90847333D01*
X129249714Y-90847333D01*
X129213428Y-90411904D02*
X129249714Y-90460285D01*
X129249714Y-90557047D01*
X129213428Y-90605428D01*
X129140857Y-90629619D01*
X128850571Y-90629619D01*
X128778000Y-90605428D01*
X128741714Y-90557047D01*
X128741714Y-90460285D01*
X128778000Y-90411904D01*
X128850571Y-90387714D01*
X128923142Y-90387714D01*
X128995714Y-90629619D01*
X129249714Y-90097428D02*
X129213428Y-90145809D01*
X129140857Y-90170000D01*
X128487714Y-90170000D01*
X129213428Y-89928095D02*
X129249714Y-89879714D01*
X129249714Y-89782952D01*
X129213428Y-89734571D01*
X129140857Y-89710380D01*
X129104571Y-89710380D01*
X129032000Y-89734571D01*
X128995714Y-89782952D01*
X128995714Y-89855523D01*
X128959428Y-89903904D01*
X128886857Y-89928095D01*
X128850571Y-89928095D01*
X128778000Y-89903904D01*
X128741714Y-89855523D01*
X128741714Y-89782952D01*
X128778000Y-89734571D01*
D10*
X139579047Y-74778809D02*
X139458095Y-74718333D01*
X139397619Y-74657857D01*
X139337142Y-74536904D01*
X139337142Y-74476428D01*
X139397619Y-74355476D01*
X139458095Y-74295000D01*
X139579047Y-74234523D01*
X139820952Y-74234523D01*
X139941904Y-74295000D01*
X140002380Y-74355476D01*
X140062857Y-74476428D01*
X140062857Y-74536904D01*
X140002380Y-74657857D01*
X139941904Y-74718333D01*
X139820952Y-74778809D01*
X139579047Y-74778809D01*
X139458095Y-74839285D01*
X139397619Y-74899761D01*
X139337142Y-75020714D01*
X139337142Y-75262619D01*
X139397619Y-75383571D01*
X139458095Y-75444047D01*
X139579047Y-75504523D01*
X139820952Y-75504523D01*
X139941904Y-75444047D01*
X140002380Y-75383571D01*
X140062857Y-75262619D01*
X140062857Y-75020714D01*
X140002380Y-74899761D01*
X139941904Y-74839285D01*
X139820952Y-74778809D01*
X139281958Y-103444523D02*
X139523863Y-103444523D01*
X139644815Y-103384047D01*
X139705291Y-103323571D01*
X139826244Y-103142142D01*
X139886720Y-102900238D01*
X139886720Y-102416428D01*
X139826244Y-102295476D01*
X139765767Y-102235000D01*
X139644815Y-102174523D01*
X139402910Y-102174523D01*
X139281958Y-102235000D01*
X139221482Y-102295476D01*
X139161005Y-102416428D01*
X139161005Y-102718809D01*
X139221482Y-102839761D01*
X139281958Y-102900238D01*
X139402910Y-102960714D01*
X139644815Y-102960714D01*
X139765767Y-102900238D01*
X139826244Y-102839761D01*
X139886720Y-102718809D01*
X129938386Y-97094523D02*
X130059339Y-97094523D01*
X130180291Y-97155000D01*
X130240767Y-97215476D01*
X130301244Y-97336428D01*
X130361720Y-97578333D01*
X130361720Y-97880714D01*
X130301244Y-98122619D01*
X130240767Y-98243571D01*
X130180291Y-98304047D01*
X130059339Y-98364523D01*
X129938386Y-98364523D01*
X129817434Y-98304047D01*
X129756958Y-98243571D01*
X129696482Y-98122619D01*
X129636005Y-97880714D01*
X129636005Y-97578333D01*
X129696482Y-97336428D01*
X129756958Y-97215476D01*
X129817434Y-97155000D01*
X129938386Y-97094523D01*
X130361720Y-95824523D02*
X129636005Y-95824523D01*
X129998863Y-95824523D02*
X129998863Y-94554523D01*
X129877910Y-94735952D01*
X129756958Y-94856904D01*
X129636005Y-94917380D01*
X129636005Y-92135476D02*
X129696482Y-92075000D01*
X129817434Y-92014523D01*
X130119815Y-92014523D01*
X130240767Y-92075000D01*
X130301244Y-92135476D01*
X130361720Y-92256428D01*
X130361720Y-92377380D01*
X130301244Y-92558809D01*
X129575529Y-93284523D01*
X130361720Y-93284523D01*
X129575529Y-89474523D02*
X130361720Y-89474523D01*
X129938386Y-89958333D01*
X130119815Y-89958333D01*
X130240767Y-90018809D01*
X130301244Y-90079285D01*
X130361720Y-90200238D01*
X130361720Y-90502619D01*
X130301244Y-90623571D01*
X130240767Y-90684047D01*
X130119815Y-90744523D01*
X129756958Y-90744523D01*
X129636005Y-90684047D01*
X129575529Y-90623571D01*
X130240767Y-87357857D02*
X130240767Y-88204523D01*
X129938386Y-86874047D02*
X129636005Y-87781190D01*
X130422196Y-87781190D01*
X130301244Y-84394523D02*
X129696482Y-84394523D01*
X129636005Y-84999285D01*
X129696482Y-84938809D01*
X129817434Y-84878333D01*
X130119815Y-84878333D01*
X130240767Y-84938809D01*
X130301244Y-84999285D01*
X130361720Y-85120238D01*
X130361720Y-85422619D01*
X130301244Y-85543571D01*
X130240767Y-85604047D01*
X130119815Y-85664523D01*
X129817434Y-85664523D01*
X129696482Y-85604047D01*
X129636005Y-85543571D01*
X130240767Y-81854523D02*
X129998863Y-81854523D01*
X129877910Y-81915000D01*
X129817434Y-81975476D01*
X129696482Y-82156904D01*
X129636005Y-82398809D01*
X129636005Y-82882619D01*
X129696482Y-83003571D01*
X129756958Y-83064047D01*
X129877910Y-83124523D01*
X130119815Y-83124523D01*
X130240767Y-83064047D01*
X130301244Y-83003571D01*
X130361720Y-82882619D01*
X130361720Y-82580238D01*
X130301244Y-82459285D01*
X130240767Y-82398809D01*
X130119815Y-82338333D01*
X129877910Y-82338333D01*
X129756958Y-82398809D01*
X129696482Y-82459285D01*
X129636005Y-82580238D01*
X129575529Y-79314523D02*
X130422196Y-79314523D01*
X129877910Y-80584523D01*
X129877910Y-77318809D02*
X129756958Y-77258333D01*
X129696482Y-77197857D01*
X129636005Y-77076904D01*
X129636005Y-77016428D01*
X129696482Y-76895476D01*
X129756958Y-76835000D01*
X129877910Y-76774523D01*
X130119815Y-76774523D01*
X130240767Y-76835000D01*
X130301244Y-76895476D01*
X130361720Y-77016428D01*
X130361720Y-77076904D01*
X130301244Y-77197857D01*
X130240767Y-77258333D01*
X130119815Y-77318809D01*
X129877910Y-77318809D01*
X129756958Y-77379285D01*
X129696482Y-77439761D01*
X129636005Y-77560714D01*
X129636005Y-77802619D01*
X129696482Y-77923571D01*
X129756958Y-77984047D01*
X129877910Y-78044523D01*
X130119815Y-78044523D01*
X130240767Y-77984047D01*
X130301244Y-77923571D01*
X130361720Y-77802619D01*
X130361720Y-77560714D01*
X130301244Y-77439761D01*
X130240767Y-77379285D01*
X130119815Y-77318809D01*
X129756958Y-100904523D02*
X129998863Y-100904523D01*
X130119815Y-100844047D01*
X130180291Y-100783571D01*
X130301244Y-100602142D01*
X130361720Y-100360238D01*
X130361720Y-99876428D01*
X130301244Y-99755476D01*
X130240767Y-99695000D01*
X130119815Y-99634523D01*
X129877910Y-99634523D01*
X129756958Y-99695000D01*
X129696482Y-99755476D01*
X129636005Y-99876428D01*
X129636005Y-100178809D01*
X129696482Y-100299761D01*
X129756958Y-100360238D01*
X129877910Y-100420714D01*
X130119815Y-100420714D01*
X130240767Y-100360238D01*
X130301244Y-100299761D01*
X130361720Y-100178809D01*
D12*
X156210000Y-67945000D02*
X85725000Y-67945000D01*
X156210000Y-109855000D02*
X156210000Y-67945000D01*
X85725000Y-109855000D02*
X156210000Y-109855000D01*
X85725000Y-67945000D02*
X85725000Y-109855000D01*
D14*
X89897857Y-109044619D02*
X89897857Y-108028619D01*
X90333285Y-109044619D02*
X90333285Y-108512428D01*
X90284904Y-108415666D01*
X90188142Y-108367285D01*
X90043000Y-108367285D01*
X89946238Y-108415666D01*
X89897857Y-108464047D01*
X90671952Y-108367285D02*
X91059000Y-108367285D01*
X90817095Y-108028619D02*
X90817095Y-108899476D01*
X90865476Y-108996238D01*
X90962238Y-109044619D01*
X91059000Y-109044619D01*
X91252523Y-108367285D02*
X91639571Y-108367285D01*
X91397666Y-108028619D02*
X91397666Y-108899476D01*
X91446047Y-108996238D01*
X91542809Y-109044619D01*
X91639571Y-109044619D01*
X91978238Y-108367285D02*
X91978238Y-109383285D01*
X91978238Y-108415666D02*
X92075000Y-108367285D01*
X92268523Y-108367285D01*
X92365285Y-108415666D01*
X92413666Y-108464047D01*
X92462047Y-108560809D01*
X92462047Y-108851095D01*
X92413666Y-108947857D01*
X92365285Y-108996238D01*
X92268523Y-109044619D01*
X92075000Y-109044619D01*
X91978238Y-108996238D01*
X92849095Y-108996238D02*
X92945857Y-109044619D01*
X93139380Y-109044619D01*
X93236142Y-108996238D01*
X93284523Y-108899476D01*
X93284523Y-108851095D01*
X93236142Y-108754333D01*
X93139380Y-108705952D01*
X92994238Y-108705952D01*
X92897476Y-108657571D01*
X92849095Y-108560809D01*
X92849095Y-108512428D01*
X92897476Y-108415666D01*
X92994238Y-108367285D01*
X93139380Y-108367285D01*
X93236142Y-108415666D01*
X93719952Y-108947857D02*
X93768333Y-108996238D01*
X93719952Y-109044619D01*
X93671571Y-108996238D01*
X93719952Y-108947857D01*
X93719952Y-109044619D01*
X93719952Y-108415666D02*
X93768333Y-108464047D01*
X93719952Y-108512428D01*
X93671571Y-108464047D01*
X93719952Y-108415666D01*
X93719952Y-108512428D01*
X94929476Y-107980238D02*
X94058619Y-109286523D01*
X95993857Y-107980238D02*
X95123000Y-109286523D01*
X96767952Y-108367285D02*
X96767952Y-109189761D01*
X96719571Y-109286523D01*
X96671190Y-109334904D01*
X96574428Y-109383285D01*
X96429285Y-109383285D01*
X96332523Y-109334904D01*
X96767952Y-108996238D02*
X96671190Y-109044619D01*
X96477666Y-109044619D01*
X96380904Y-108996238D01*
X96332523Y-108947857D01*
X96284142Y-108851095D01*
X96284142Y-108560809D01*
X96332523Y-108464047D01*
X96380904Y-108415666D01*
X96477666Y-108367285D01*
X96671190Y-108367285D01*
X96767952Y-108415666D01*
X97251761Y-109044619D02*
X97251761Y-108367285D01*
X97251761Y-108028619D02*
X97203380Y-108077000D01*
X97251761Y-108125380D01*
X97300142Y-108077000D01*
X97251761Y-108028619D01*
X97251761Y-108125380D01*
X97590428Y-108367285D02*
X97977476Y-108367285D01*
X97735571Y-108028619D02*
X97735571Y-108899476D01*
X97783952Y-108996238D01*
X97880714Y-109044619D01*
X97977476Y-109044619D01*
X98316142Y-109044619D02*
X98316142Y-108028619D01*
X98751571Y-109044619D02*
X98751571Y-108512428D01*
X98703190Y-108415666D01*
X98606428Y-108367285D01*
X98461285Y-108367285D01*
X98364523Y-108415666D01*
X98316142Y-108464047D01*
X99670809Y-108367285D02*
X99670809Y-109044619D01*
X99235380Y-108367285D02*
X99235380Y-108899476D01*
X99283761Y-108996238D01*
X99380523Y-109044619D01*
X99525666Y-109044619D01*
X99622428Y-108996238D01*
X99670809Y-108947857D01*
X100154619Y-109044619D02*
X100154619Y-108028619D01*
X100154619Y-108415666D02*
X100251380Y-108367285D01*
X100444904Y-108367285D01*
X100541666Y-108415666D01*
X100590047Y-108464047D01*
X100638428Y-108560809D01*
X100638428Y-108851095D01*
X100590047Y-108947857D01*
X100541666Y-108996238D01*
X100444904Y-109044619D01*
X100251380Y-109044619D01*
X100154619Y-108996238D01*
X101073857Y-108947857D02*
X101122238Y-108996238D01*
X101073857Y-109044619D01*
X101025476Y-108996238D01*
X101073857Y-108947857D01*
X101073857Y-109044619D01*
X101993095Y-108996238D02*
X101896333Y-109044619D01*
X101702809Y-109044619D01*
X101606047Y-108996238D01*
X101557666Y-108947857D01*
X101509285Y-108851095D01*
X101509285Y-108560809D01*
X101557666Y-108464047D01*
X101606047Y-108415666D01*
X101702809Y-108367285D01*
X101896333Y-108367285D01*
X101993095Y-108415666D01*
X102573666Y-109044619D02*
X102476904Y-108996238D01*
X102428523Y-108947857D01*
X102380142Y-108851095D01*
X102380142Y-108560809D01*
X102428523Y-108464047D01*
X102476904Y-108415666D01*
X102573666Y-108367285D01*
X102718809Y-108367285D01*
X102815571Y-108415666D01*
X102863952Y-108464047D01*
X102912333Y-108560809D01*
X102912333Y-108851095D01*
X102863952Y-108947857D01*
X102815571Y-108996238D01*
X102718809Y-109044619D01*
X102573666Y-109044619D01*
X103347761Y-109044619D02*
X103347761Y-108367285D01*
X103347761Y-108464047D02*
X103396142Y-108415666D01*
X103492904Y-108367285D01*
X103638047Y-108367285D01*
X103734809Y-108415666D01*
X103783190Y-108512428D01*
X103783190Y-109044619D01*
X103783190Y-108512428D02*
X103831571Y-108415666D01*
X103928333Y-108367285D01*
X104073476Y-108367285D01*
X104170238Y-108415666D01*
X104218619Y-108512428D01*
X104218619Y-109044619D01*
X105428142Y-107980238D02*
X104557285Y-109286523D01*
X105766809Y-108367285D02*
X105766809Y-109238142D01*
X105718428Y-109334904D01*
X105621666Y-109383285D01*
X105573285Y-109383285D01*
X105766809Y-108028619D02*
X105718428Y-108077000D01*
X105766809Y-108125380D01*
X105815190Y-108077000D01*
X105766809Y-108028619D01*
X105766809Y-108125380D01*
X106686047Y-109044619D02*
X106686047Y-108512428D01*
X106637666Y-108415666D01*
X106540904Y-108367285D01*
X106347380Y-108367285D01*
X106250619Y-108415666D01*
X106686047Y-108996238D02*
X106589285Y-109044619D01*
X106347380Y-109044619D01*
X106250619Y-108996238D01*
X106202238Y-108899476D01*
X106202238Y-108802714D01*
X106250619Y-108705952D01*
X106347380Y-108657571D01*
X106589285Y-108657571D01*
X106686047Y-108609190D01*
X107169857Y-108367285D02*
X107169857Y-109044619D01*
X107169857Y-108464047D02*
X107218238Y-108415666D01*
X107315000Y-108367285D01*
X107460142Y-108367285D01*
X107556904Y-108415666D01*
X107605285Y-108512428D01*
X107605285Y-109044619D01*
X108476142Y-108996238D02*
X108379380Y-109044619D01*
X108185857Y-109044619D01*
X108089095Y-108996238D01*
X108040714Y-108899476D01*
X108040714Y-108512428D01*
X108089095Y-108415666D01*
X108185857Y-108367285D01*
X108379380Y-108367285D01*
X108476142Y-108415666D01*
X108524523Y-108512428D01*
X108524523Y-108609190D01*
X108040714Y-108705952D01*
X109105095Y-109044619D02*
X109008333Y-108996238D01*
X108959952Y-108899476D01*
X108959952Y-108028619D01*
X109492142Y-109044619D02*
X109492142Y-108367285D01*
X109492142Y-108028619D02*
X109443761Y-108077000D01*
X109492142Y-108125380D01*
X109540523Y-108077000D01*
X109492142Y-108028619D01*
X109492142Y-108125380D01*
X110411380Y-109044619D02*
X110411380Y-108512428D01*
X110363000Y-108415666D01*
X110266238Y-108367285D01*
X110072714Y-108367285D01*
X109975952Y-108415666D01*
X110411380Y-108996238D02*
X110314619Y-109044619D01*
X110072714Y-109044619D01*
X109975952Y-108996238D01*
X109927571Y-108899476D01*
X109927571Y-108802714D01*
X109975952Y-108705952D01*
X110072714Y-108657571D01*
X110314619Y-108657571D01*
X110411380Y-108609190D01*
X110895190Y-108657571D02*
X111669285Y-108657571D01*
X112153095Y-109044619D02*
X112153095Y-108367285D01*
X112153095Y-108464047D02*
X112201476Y-108415666D01*
X112298238Y-108367285D01*
X112443380Y-108367285D01*
X112540142Y-108415666D01*
X112588523Y-108512428D01*
X112588523Y-109044619D01*
X112588523Y-108512428D02*
X112636904Y-108415666D01*
X112733666Y-108367285D01*
X112878809Y-108367285D01*
X112975571Y-108415666D01*
X113023952Y-108512428D01*
X113023952Y-109044619D01*
X113652904Y-109044619D02*
X113556142Y-108996238D01*
X113507761Y-108947857D01*
X113459380Y-108851095D01*
X113459380Y-108560809D01*
X113507761Y-108464047D01*
X113556142Y-108415666D01*
X113652904Y-108367285D01*
X113798047Y-108367285D01*
X113894809Y-108415666D01*
X113943190Y-108464047D01*
X113991571Y-108560809D01*
X113991571Y-108851095D01*
X113943190Y-108947857D01*
X113894809Y-108996238D01*
X113798047Y-109044619D01*
X113652904Y-109044619D01*
X114862428Y-109044619D02*
X114862428Y-108028619D01*
X114862428Y-108996238D02*
X114765666Y-109044619D01*
X114572142Y-109044619D01*
X114475380Y-108996238D01*
X114427000Y-108947857D01*
X114378619Y-108851095D01*
X114378619Y-108560809D01*
X114427000Y-108464047D01*
X114475380Y-108415666D01*
X114572142Y-108367285D01*
X114765666Y-108367285D01*
X114862428Y-108415666D01*
X115781666Y-108367285D02*
X115781666Y-109044619D01*
X115346238Y-108367285D02*
X115346238Y-108899476D01*
X115394619Y-108996238D01*
X115491380Y-109044619D01*
X115636523Y-109044619D01*
X115733285Y-108996238D01*
X115781666Y-108947857D01*
X116410619Y-109044619D02*
X116313857Y-108996238D01*
X116265476Y-108899476D01*
X116265476Y-108028619D01*
X117233095Y-109044619D02*
X117233095Y-108512428D01*
X117184714Y-108415666D01*
X117087952Y-108367285D01*
X116894428Y-108367285D01*
X116797666Y-108415666D01*
X117233095Y-108996238D02*
X117136333Y-109044619D01*
X116894428Y-109044619D01*
X116797666Y-108996238D01*
X116749285Y-108899476D01*
X116749285Y-108802714D01*
X116797666Y-108705952D01*
X116894428Y-108657571D01*
X117136333Y-108657571D01*
X117233095Y-108609190D01*
X117716904Y-109044619D02*
X117716904Y-108367285D01*
X117716904Y-108560809D02*
X117765285Y-108464047D01*
X117813666Y-108415666D01*
X117910428Y-108367285D01*
X118007190Y-108367285D01*
X118345857Y-108657571D02*
X119119952Y-108657571D01*
X120039190Y-109044619D02*
X120039190Y-108028619D01*
X120039190Y-108996238D02*
X119942428Y-109044619D01*
X119748904Y-109044619D01*
X119652142Y-108996238D01*
X119603761Y-108947857D01*
X119555380Y-108851095D01*
X119555380Y-108560809D01*
X119603761Y-108464047D01*
X119652142Y-108415666D01*
X119748904Y-108367285D01*
X119942428Y-108367285D01*
X120039190Y-108415666D01*
X120910047Y-108996238D02*
X120813285Y-109044619D01*
X120619761Y-109044619D01*
X120523000Y-108996238D01*
X120474619Y-108899476D01*
X120474619Y-108512428D01*
X120523000Y-108415666D01*
X120619761Y-108367285D01*
X120813285Y-108367285D01*
X120910047Y-108415666D01*
X120958428Y-108512428D01*
X120958428Y-108609190D01*
X120474619Y-108705952D01*
X121297095Y-108367285D02*
X121539000Y-109044619D01*
X121780904Y-108367285D01*
X122167952Y-109044619D02*
X122167952Y-108367285D01*
X122167952Y-108028619D02*
X122119571Y-108077000D01*
X122167952Y-108125380D01*
X122216333Y-108077000D01*
X122167952Y-108028619D01*
X122167952Y-108125380D01*
X123087190Y-108996238D02*
X122990428Y-109044619D01*
X122796904Y-109044619D01*
X122700142Y-108996238D01*
X122651761Y-108947857D01*
X122603380Y-108851095D01*
X122603380Y-108560809D01*
X122651761Y-108464047D01*
X122700142Y-108415666D01*
X122796904Y-108367285D01*
X122990428Y-108367285D01*
X123087190Y-108415666D01*
X123909666Y-108996238D02*
X123812904Y-109044619D01*
X123619380Y-109044619D01*
X123522619Y-108996238D01*
X123474238Y-108899476D01*
X123474238Y-108512428D01*
X123522619Y-108415666D01*
X123619380Y-108367285D01*
X123812904Y-108367285D01*
X123909666Y-108415666D01*
X123958047Y-108512428D01*
X123958047Y-108609190D01*
X123474238Y-108705952D01*
X124345095Y-108996238D02*
X124441857Y-109044619D01*
X124635380Y-109044619D01*
X124732142Y-108996238D01*
X124780523Y-108899476D01*
X124780523Y-108851095D01*
X124732142Y-108754333D01*
X124635380Y-108705952D01*
X124490238Y-108705952D01*
X124393476Y-108657571D01*
X124345095Y-108560809D01*
X124345095Y-108512428D01*
X124393476Y-108415666D01*
X124490238Y-108367285D01*
X124635380Y-108367285D01*
X124732142Y-108415666D01*
D11*
X86184619Y-97294095D02*
X86910333Y-97294095D01*
X87055476Y-97342476D01*
X87152238Y-97439238D01*
X87200619Y-97584380D01*
X87200619Y-97681142D01*
X87200619Y-96374857D02*
X86668428Y-96374857D01*
X86571666Y-96423238D01*
X86523285Y-96520000D01*
X86523285Y-96713523D01*
X86571666Y-96810285D01*
X87152238Y-96374857D02*
X87200619Y-96471619D01*
X87200619Y-96713523D01*
X87152238Y-96810285D01*
X87055476Y-96858666D01*
X86958714Y-96858666D01*
X86861952Y-96810285D01*
X86813571Y-96713523D01*
X86813571Y-96471619D01*
X86765190Y-96374857D01*
X86523285Y-95891047D02*
X87200619Y-95891047D01*
X86620047Y-95891047D02*
X86571666Y-95842666D01*
X86523285Y-95745904D01*
X86523285Y-95600761D01*
X86571666Y-95504000D01*
X86668428Y-95455619D01*
X87200619Y-95455619D01*
X87152238Y-94584761D02*
X87200619Y-94681523D01*
X87200619Y-94875047D01*
X87152238Y-94971809D01*
X87055476Y-95020190D01*
X86668428Y-95020190D01*
X86571666Y-94971809D01*
X86523285Y-94875047D01*
X86523285Y-94681523D01*
X86571666Y-94584761D01*
X86668428Y-94536380D01*
X86765190Y-94536380D01*
X86861952Y-95020190D01*
X87200619Y-93955809D02*
X87152238Y-94052571D01*
X87055476Y-94100952D01*
X86184619Y-94100952D01*
X87200619Y-93568761D02*
X86523285Y-93568761D01*
X86184619Y-93568761D02*
X86233000Y-93617142D01*
X86281380Y-93568761D01*
X86233000Y-93520380D01*
X86184619Y-93568761D01*
X86281380Y-93568761D01*
X87200619Y-92649523D02*
X86668428Y-92649523D01*
X86571666Y-92697904D01*
X86523285Y-92794666D01*
X86523285Y-92988190D01*
X86571666Y-93084952D01*
X87152238Y-92649523D02*
X87200619Y-92746285D01*
X87200619Y-92988190D01*
X87152238Y-93084952D01*
X87055476Y-93133333D01*
X86958714Y-93133333D01*
X86861952Y-93084952D01*
X86813571Y-92988190D01*
X86813571Y-92746285D01*
X86765190Y-92649523D01*
X87200619Y-91391619D02*
X86184619Y-91391619D01*
X86910333Y-91052952D01*
X86184619Y-90714285D01*
X87200619Y-90714285D01*
X87200619Y-90085333D02*
X87152238Y-90182095D01*
X87103857Y-90230476D01*
X87007095Y-90278857D01*
X86716809Y-90278857D01*
X86620047Y-90230476D01*
X86571666Y-90182095D01*
X86523285Y-90085333D01*
X86523285Y-89940190D01*
X86571666Y-89843428D01*
X86620047Y-89795047D01*
X86716809Y-89746666D01*
X87007095Y-89746666D01*
X87103857Y-89795047D01*
X87152238Y-89843428D01*
X87200619Y-89940190D01*
X87200619Y-90085333D01*
X87200619Y-88875809D02*
X86184619Y-88875809D01*
X87152238Y-88875809D02*
X87200619Y-88972571D01*
X87200619Y-89166095D01*
X87152238Y-89262857D01*
X87103857Y-89311238D01*
X87007095Y-89359619D01*
X86716809Y-89359619D01*
X86620047Y-89311238D01*
X86571666Y-89262857D01*
X86523285Y-89166095D01*
X86523285Y-88972571D01*
X86571666Y-88875809D01*
X86523285Y-87956571D02*
X87200619Y-87956571D01*
X86523285Y-88392000D02*
X87055476Y-88392000D01*
X87152238Y-88343619D01*
X87200619Y-88246857D01*
X87200619Y-88101714D01*
X87152238Y-88004952D01*
X87103857Y-87956571D01*
X87200619Y-87327619D02*
X87152238Y-87424380D01*
X87055476Y-87472761D01*
X86184619Y-87472761D01*
X87200619Y-86505142D02*
X86668428Y-86505142D01*
X86571666Y-86553523D01*
X86523285Y-86650285D01*
X86523285Y-86843809D01*
X86571666Y-86940571D01*
X87152238Y-86505142D02*
X87200619Y-86601904D01*
X87200619Y-86843809D01*
X87152238Y-86940571D01*
X87055476Y-86988952D01*
X86958714Y-86988952D01*
X86861952Y-86940571D01*
X86813571Y-86843809D01*
X86813571Y-86601904D01*
X86765190Y-86505142D01*
X87200619Y-86021333D02*
X86523285Y-86021333D01*
X86716809Y-86021333D02*
X86620047Y-85972952D01*
X86571666Y-85924571D01*
X86523285Y-85827809D01*
X86523285Y-85731047D01*
X87200619Y-84618285D02*
X86184619Y-84618285D01*
X86184619Y-84376380D01*
X86233000Y-84231238D01*
X86329761Y-84134476D01*
X86426523Y-84086095D01*
X86620047Y-84037714D01*
X86765190Y-84037714D01*
X86958714Y-84086095D01*
X87055476Y-84134476D01*
X87152238Y-84231238D01*
X87200619Y-84376380D01*
X87200619Y-84618285D01*
X87152238Y-83215238D02*
X87200619Y-83312000D01*
X87200619Y-83505523D01*
X87152238Y-83602285D01*
X87055476Y-83650666D01*
X86668428Y-83650666D01*
X86571666Y-83602285D01*
X86523285Y-83505523D01*
X86523285Y-83312000D01*
X86571666Y-83215238D01*
X86668428Y-83166857D01*
X86765190Y-83166857D01*
X86861952Y-83650666D01*
X86523285Y-82828190D02*
X87200619Y-82586285D01*
X86523285Y-82344380D01*
X87200619Y-81957333D02*
X86523285Y-81957333D01*
X86184619Y-81957333D02*
X86233000Y-82005714D01*
X86281380Y-81957333D01*
X86233000Y-81908952D01*
X86184619Y-81957333D01*
X86281380Y-81957333D01*
X87152238Y-81038095D02*
X87200619Y-81134857D01*
X87200619Y-81328380D01*
X87152238Y-81425142D01*
X87103857Y-81473523D01*
X87007095Y-81521904D01*
X86716809Y-81521904D01*
X86620047Y-81473523D01*
X86571666Y-81425142D01*
X86523285Y-81328380D01*
X86523285Y-81134857D01*
X86571666Y-81038095D01*
X87152238Y-80215619D02*
X87200619Y-80312380D01*
X87200619Y-80505904D01*
X87152238Y-80602666D01*
X87055476Y-80651047D01*
X86668428Y-80651047D01*
X86571666Y-80602666D01*
X86523285Y-80505904D01*
X86523285Y-80312380D01*
X86571666Y-80215619D01*
X86668428Y-80167238D01*
X86765190Y-80167238D01*
X86861952Y-80651047D01*
X88978619Y-96229714D02*
X87962619Y-96229714D01*
X88349666Y-96229714D02*
X88301285Y-96132952D01*
X88301285Y-95939428D01*
X88349666Y-95842666D01*
X88398047Y-95794285D01*
X88494809Y-95745904D01*
X88785095Y-95745904D01*
X88881857Y-95794285D01*
X88930238Y-95842666D01*
X88978619Y-95939428D01*
X88978619Y-96132952D01*
X88930238Y-96229714D01*
X88978619Y-94875047D02*
X88446428Y-94875047D01*
X88349666Y-94923428D01*
X88301285Y-95020190D01*
X88301285Y-95213714D01*
X88349666Y-95310476D01*
X88930238Y-94875047D02*
X88978619Y-94971809D01*
X88978619Y-95213714D01*
X88930238Y-95310476D01*
X88833476Y-95358857D01*
X88736714Y-95358857D01*
X88639952Y-95310476D01*
X88591571Y-95213714D01*
X88591571Y-94971809D01*
X88543190Y-94875047D01*
X88930238Y-93955809D02*
X88978619Y-94052571D01*
X88978619Y-94246095D01*
X88930238Y-94342857D01*
X88881857Y-94391238D01*
X88785095Y-94439619D01*
X88494809Y-94439619D01*
X88398047Y-94391238D01*
X88349666Y-94342857D01*
X88301285Y-94246095D01*
X88301285Y-94052571D01*
X88349666Y-93955809D01*
X88978619Y-93520380D02*
X87962619Y-93520380D01*
X88591571Y-93423619D02*
X88978619Y-93133333D01*
X88301285Y-93133333D02*
X88688333Y-93520380D01*
X88978619Y-92552761D02*
X88930238Y-92649523D01*
X88833476Y-92697904D01*
X87962619Y-92697904D01*
X88978619Y-92165714D02*
X88301285Y-92165714D01*
X87962619Y-92165714D02*
X88011000Y-92214095D01*
X88059380Y-92165714D01*
X88011000Y-92117333D01*
X87962619Y-92165714D01*
X88059380Y-92165714D01*
X88301285Y-91246476D02*
X89123761Y-91246476D01*
X89220523Y-91294857D01*
X89268904Y-91343238D01*
X89317285Y-91440000D01*
X89317285Y-91585142D01*
X89268904Y-91681904D01*
X88930238Y-91246476D02*
X88978619Y-91343238D01*
X88978619Y-91536761D01*
X88930238Y-91633523D01*
X88881857Y-91681904D01*
X88785095Y-91730285D01*
X88494809Y-91730285D01*
X88398047Y-91681904D01*
X88349666Y-91633523D01*
X88301285Y-91536761D01*
X88301285Y-91343238D01*
X88349666Y-91246476D01*
X88978619Y-90762666D02*
X87962619Y-90762666D01*
X88978619Y-90327238D02*
X88446428Y-90327238D01*
X88349666Y-90375619D01*
X88301285Y-90472380D01*
X88301285Y-90617523D01*
X88349666Y-90714285D01*
X88398047Y-90762666D01*
X88301285Y-89988571D02*
X88301285Y-89601523D01*
X87962619Y-89843428D02*
X88833476Y-89843428D01*
X88930238Y-89795047D01*
X88978619Y-89698285D01*
X88978619Y-89601523D01*
X89075380Y-89504761D02*
X89075380Y-88730666D01*
X88930238Y-88053333D02*
X88978619Y-88150095D01*
X88978619Y-88343619D01*
X88930238Y-88440380D01*
X88881857Y-88488761D01*
X88785095Y-88537142D01*
X88494809Y-88537142D01*
X88398047Y-88488761D01*
X88349666Y-88440380D01*
X88301285Y-88343619D01*
X88301285Y-88150095D01*
X88349666Y-88053333D01*
X88978619Y-87472761D02*
X88930238Y-87569523D01*
X88881857Y-87617904D01*
X88785095Y-87666285D01*
X88494809Y-87666285D01*
X88398047Y-87617904D01*
X88349666Y-87569523D01*
X88301285Y-87472761D01*
X88301285Y-87327619D01*
X88349666Y-87230857D01*
X88398047Y-87182476D01*
X88494809Y-87134095D01*
X88785095Y-87134095D01*
X88881857Y-87182476D01*
X88930238Y-87230857D01*
X88978619Y-87327619D01*
X88978619Y-87472761D01*
X88301285Y-86698666D02*
X88978619Y-86698666D01*
X88398047Y-86698666D02*
X88349666Y-86650285D01*
X88301285Y-86553523D01*
X88301285Y-86408380D01*
X88349666Y-86311619D01*
X88446428Y-86263238D01*
X88978619Y-86263238D01*
X88301285Y-85924571D02*
X88301285Y-85537523D01*
X87962619Y-85779428D02*
X88833476Y-85779428D01*
X88930238Y-85731047D01*
X88978619Y-85634285D01*
X88978619Y-85537523D01*
X88978619Y-85198857D02*
X88301285Y-85198857D01*
X88494809Y-85198857D02*
X88398047Y-85150476D01*
X88349666Y-85102095D01*
X88301285Y-85005333D01*
X88301285Y-84908571D01*
X88978619Y-84424761D02*
X88930238Y-84521523D01*
X88881857Y-84569904D01*
X88785095Y-84618285D01*
X88494809Y-84618285D01*
X88398047Y-84569904D01*
X88349666Y-84521523D01*
X88301285Y-84424761D01*
X88301285Y-84279619D01*
X88349666Y-84182857D01*
X88398047Y-84134476D01*
X88494809Y-84086095D01*
X88785095Y-84086095D01*
X88881857Y-84134476D01*
X88930238Y-84182857D01*
X88978619Y-84279619D01*
X88978619Y-84424761D01*
X88978619Y-83505523D02*
X88930238Y-83602285D01*
X88833476Y-83650666D01*
X87962619Y-83650666D01*
X88978619Y-82973333D02*
X88930238Y-83070095D01*
X88833476Y-83118476D01*
X87962619Y-83118476D01*
X88930238Y-82199238D02*
X88978619Y-82296000D01*
X88978619Y-82489523D01*
X88930238Y-82586285D01*
X88833476Y-82634666D01*
X88446428Y-82634666D01*
X88349666Y-82586285D01*
X88301285Y-82489523D01*
X88301285Y-82296000D01*
X88349666Y-82199238D01*
X88446428Y-82150857D01*
X88543190Y-82150857D01*
X88639952Y-82634666D01*
X88978619Y-81715428D02*
X88301285Y-81715428D01*
X88494809Y-81715428D02*
X88398047Y-81667047D01*
X88349666Y-81618666D01*
X88301285Y-81521904D01*
X88301285Y-81425142D01*
X90079285Y-95939428D02*
X91095285Y-95939428D01*
X90127666Y-95939428D02*
X90079285Y-95842666D01*
X90079285Y-95649142D01*
X90127666Y-95552380D01*
X90176047Y-95504000D01*
X90272809Y-95455619D01*
X90563095Y-95455619D01*
X90659857Y-95504000D01*
X90708238Y-95552380D01*
X90756619Y-95649142D01*
X90756619Y-95842666D01*
X90708238Y-95939428D01*
X90756619Y-94584761D02*
X90224428Y-94584761D01*
X90127666Y-94633142D01*
X90079285Y-94729904D01*
X90079285Y-94923428D01*
X90127666Y-95020190D01*
X90708238Y-94584761D02*
X90756619Y-94681523D01*
X90756619Y-94923428D01*
X90708238Y-95020190D01*
X90611476Y-95068571D01*
X90514714Y-95068571D01*
X90417952Y-95020190D01*
X90369571Y-94923428D01*
X90369571Y-94681523D01*
X90321190Y-94584761D01*
X90756619Y-94100952D02*
X90079285Y-94100952D01*
X90272809Y-94100952D02*
X90176047Y-94052571D01*
X90127666Y-94004190D01*
X90079285Y-93907428D01*
X90079285Y-93810666D01*
X90079285Y-93617142D02*
X90079285Y-93230095D01*
X89740619Y-93472000D02*
X90611476Y-93472000D01*
X90708238Y-93423619D01*
X90756619Y-93326857D01*
X90756619Y-93230095D01*
X90853380Y-93133333D02*
X90853380Y-92359238D01*
X90079285Y-92117333D02*
X90756619Y-92117333D01*
X90176047Y-92117333D02*
X90127666Y-92068952D01*
X90079285Y-91972190D01*
X90079285Y-91827047D01*
X90127666Y-91730285D01*
X90224428Y-91681904D01*
X90756619Y-91681904D01*
X90079285Y-90762666D02*
X90756619Y-90762666D01*
X90079285Y-91198095D02*
X90611476Y-91198095D01*
X90708238Y-91149714D01*
X90756619Y-91052952D01*
X90756619Y-90907809D01*
X90708238Y-90811047D01*
X90659857Y-90762666D01*
X90756619Y-90278857D02*
X90079285Y-90278857D01*
X90176047Y-90278857D02*
X90127666Y-90230476D01*
X90079285Y-90133714D01*
X90079285Y-89988571D01*
X90127666Y-89891809D01*
X90224428Y-89843428D01*
X90756619Y-89843428D01*
X90224428Y-89843428D02*
X90127666Y-89795047D01*
X90079285Y-89698285D01*
X90079285Y-89553142D01*
X90127666Y-89456380D01*
X90224428Y-89408000D01*
X90756619Y-89408000D01*
X90756619Y-88924190D02*
X89740619Y-88924190D01*
X90127666Y-88924190D02*
X90079285Y-88827428D01*
X90079285Y-88633904D01*
X90127666Y-88537142D01*
X90176047Y-88488761D01*
X90272809Y-88440380D01*
X90563095Y-88440380D01*
X90659857Y-88488761D01*
X90708238Y-88537142D01*
X90756619Y-88633904D01*
X90756619Y-88827428D01*
X90708238Y-88924190D01*
X90708238Y-87617904D02*
X90756619Y-87714666D01*
X90756619Y-87908190D01*
X90708238Y-88004952D01*
X90611476Y-88053333D01*
X90224428Y-88053333D01*
X90127666Y-88004952D01*
X90079285Y-87908190D01*
X90079285Y-87714666D01*
X90127666Y-87617904D01*
X90224428Y-87569523D01*
X90321190Y-87569523D01*
X90417952Y-88053333D01*
X90756619Y-87134095D02*
X90079285Y-87134095D01*
X90272809Y-87134095D02*
X90176047Y-87085714D01*
X90127666Y-87037333D01*
X90079285Y-86940571D01*
X90079285Y-86843809D01*
X90659857Y-86505142D02*
X90708238Y-86456761D01*
X90756619Y-86505142D01*
X90708238Y-86553523D01*
X90659857Y-86505142D01*
X90756619Y-86505142D01*
X90127666Y-86505142D02*
X90176047Y-86456761D01*
X90224428Y-86505142D01*
X90176047Y-86553523D01*
X90127666Y-86505142D01*
X90224428Y-86505142D01*
X90756619Y-84715047D02*
X90756619Y-85295619D01*
X90756619Y-85005333D02*
X89740619Y-85005333D01*
X89885761Y-85102095D01*
X89982523Y-85198857D01*
X90030904Y-85295619D01*
X89837380Y-84328000D02*
X89789000Y-84279619D01*
X89740619Y-84182857D01*
X89740619Y-83940952D01*
X89789000Y-83844190D01*
X89837380Y-83795809D01*
X89934142Y-83747428D01*
X90030904Y-83747428D01*
X90176047Y-83795809D01*
X90756619Y-84376380D01*
X90756619Y-83747428D01*
X89740619Y-83408761D02*
X89740619Y-82731428D01*
X90756619Y-83166857D01*
X90756619Y-81812190D02*
X90756619Y-82392761D01*
X90756619Y-82102476D02*
X89740619Y-82102476D01*
X89885761Y-82199238D01*
X89982523Y-82295999D01*
X90030904Y-82392761D01*
X92534619Y-96447428D02*
X92534619Y-97028000D01*
X92534619Y-96737714D02*
X91518619Y-96737714D01*
X91663761Y-96834476D01*
X91760523Y-96931238D01*
X91808904Y-97028000D01*
X91518619Y-95818476D02*
X91518619Y-95721714D01*
X91567000Y-95624952D01*
X91615380Y-95576571D01*
X91712142Y-95528190D01*
X91905666Y-95479809D01*
X92147571Y-95479809D01*
X92341095Y-95528190D01*
X92437857Y-95576571D01*
X92486238Y-95624952D01*
X92534619Y-95721714D01*
X92534619Y-95818476D01*
X92486238Y-95915238D01*
X92437857Y-95963619D01*
X92341095Y-96012000D01*
X92147571Y-96060380D01*
X91905666Y-96060380D01*
X91712142Y-96012000D01*
X91615380Y-95963619D01*
X91567000Y-95915238D01*
X91518619Y-95818476D01*
X91470238Y-94318666D02*
X92776523Y-95189523D01*
X91615380Y-94028380D02*
X91567000Y-93980000D01*
X91518619Y-93883238D01*
X91518619Y-93641333D01*
X91567000Y-93544571D01*
X91615380Y-93496190D01*
X91712142Y-93447809D01*
X91808904Y-93447809D01*
X91954047Y-93496190D01*
X92534619Y-94076761D01*
X92534619Y-93447809D01*
X91518619Y-92818857D02*
X91518619Y-92722095D01*
X91567000Y-92625333D01*
X91615380Y-92576952D01*
X91712142Y-92528571D01*
X91905666Y-92480190D01*
X92147571Y-92480190D01*
X92341095Y-92528571D01*
X92437857Y-92576952D01*
X92486238Y-92625333D01*
X92534619Y-92722095D01*
X92534619Y-92818857D01*
X92486238Y-92915619D01*
X92437857Y-92964000D01*
X92341095Y-93012380D01*
X92147571Y-93060761D01*
X91905666Y-93060761D01*
X91712142Y-93012380D01*
X91615380Y-92964000D01*
X91567000Y-92915619D01*
X91518619Y-92818857D01*
X92534619Y-91512571D02*
X92534619Y-92093142D01*
X92534619Y-91802857D02*
X91518619Y-91802857D01*
X91663761Y-91899619D01*
X91760523Y-91996380D01*
X91808904Y-92093142D01*
X91954047Y-90932000D02*
X91905666Y-91028761D01*
X91857285Y-91077142D01*
X91760523Y-91125523D01*
X91712142Y-91125523D01*
X91615380Y-91077142D01*
X91567000Y-91028761D01*
X91518619Y-90932000D01*
X91518619Y-90738476D01*
X91567000Y-90641714D01*
X91615380Y-90593333D01*
X91712142Y-90544952D01*
X91760523Y-90544952D01*
X91857285Y-90593333D01*
X91905666Y-90641714D01*
X91954047Y-90738476D01*
X91954047Y-90932000D01*
X92002428Y-91028761D01*
X92050809Y-91077142D01*
X92147571Y-91125523D01*
X92341095Y-91125523D01*
X92437857Y-91077142D01*
X92486238Y-91028761D01*
X92534619Y-90932000D01*
X92534619Y-90738476D01*
X92486238Y-90641714D01*
X92437857Y-90593333D01*
X92341095Y-90544952D01*
X92147571Y-90544952D01*
X92050809Y-90593333D01*
X92002428Y-90641714D01*
X91954047Y-90738476D01*
X91857285Y-89432190D02*
X92534619Y-89190285D01*
X91857285Y-88948380D01*
X92486238Y-88174285D02*
X92534619Y-88271047D01*
X92534619Y-88464571D01*
X92486238Y-88561333D01*
X92389476Y-88609714D01*
X92002428Y-88609714D01*
X91905666Y-88561333D01*
X91857285Y-88464571D01*
X91857285Y-88271047D01*
X91905666Y-88174285D01*
X92002428Y-88125904D01*
X92099190Y-88125904D01*
X92195952Y-88609714D01*
X92534619Y-87690476D02*
X91857285Y-87690476D01*
X92050809Y-87690476D02*
X91954047Y-87642095D01*
X91905666Y-87593714D01*
X91857285Y-87496952D01*
X91857285Y-87400190D01*
X92534619Y-85755238D02*
X92534619Y-86335809D01*
X92534619Y-86045523D02*
X91518619Y-86045523D01*
X91663761Y-86142285D01*
X91760523Y-86239047D01*
X91808904Y-86335809D01*
X92437857Y-85319809D02*
X92486238Y-85271428D01*
X92534619Y-85319809D01*
X92486238Y-85368190D01*
X92437857Y-85319809D01*
X92534619Y-85319809D01*
X91615380Y-84884380D02*
X91567000Y-84836000D01*
X91518619Y-84739238D01*
X91518619Y-84497333D01*
X91567000Y-84400571D01*
X91615380Y-84352190D01*
X91712142Y-84303809D01*
X91808904Y-84303809D01*
X91954047Y-84352190D01*
X92534619Y-84932761D01*
X92534619Y-84303809D01*
X91518619Y-83191047D02*
X91518619Y-82562095D01*
X91905666Y-82900761D01*
X91905666Y-82755619D01*
X91954047Y-82658857D01*
X92002428Y-82610476D01*
X92099190Y-82562095D01*
X92341095Y-82562095D01*
X92437857Y-82610476D01*
X92486238Y-82658857D01*
X92534619Y-82755619D01*
X92534619Y-83045904D01*
X92486238Y-83142666D01*
X92437857Y-83191047D01*
X92534619Y-82223428D02*
X91857285Y-81691238D01*
X91857285Y-82223428D02*
X92534619Y-81691238D01*
X91615380Y-81352571D02*
X91567000Y-81304190D01*
X91518619Y-81207428D01*
X91518619Y-80965523D01*
X91567000Y-80868761D01*
X91615380Y-80820380D01*
X91712142Y-80772000D01*
X91808904Y-80772000D01*
X91954047Y-80820380D01*
X92534619Y-81400952D01*
X92534619Y-80772000D01*
D15*
G04 #@! TO.C,J2*
X111860000Y-104460000D02*
X124360000Y-104460000D01*
X124360000Y-104460000D02*
X124360000Y-73340000D01*
X124360000Y-73340000D02*
X111860000Y-73340000D01*
X111860000Y-73340000D02*
X111860000Y-104460000D01*
G04 #@! TO.C,J1*
X94080000Y-104460000D02*
X106580000Y-104460000D01*
X106580000Y-104460000D02*
X106580000Y-73340000D01*
X106580000Y-73340000D02*
X94080000Y-73340000D01*
X94080000Y-73340000D02*
X94080000Y-104460000D01*
D12*
G04 #@! TO.C,MDB1*
X132715000Y-71120000D02*
G75*
G03X132715000Y-71120000I-2540000J0D01*
G01*
X132715000Y-106680000D02*
G75*
G03X132715000Y-106680000I-2540000J0D01*
G01*
X92075000Y-101600000D02*
G75*
G03X92075000Y-101600000I-2540000J0D01*
G01*
X92075000Y-76200000D02*
G75*
G03X92075000Y-76200000I-2540000J0D01*
G01*
G04 #@! TO.C,L1*
X142748000Y-96012000D02*
X142748000Y-97028000D01*
X142240000Y-96520000D02*
X143256000Y-96520000D01*
X146050000Y-95250000D02*
X146050000Y-97790000D01*
X146050000Y-97790000D02*
X138430000Y-97790000D01*
X138430000Y-97790000D02*
X138430000Y-95250000D01*
X138430000Y-95250000D02*
X146050000Y-95250000D01*
G04 #@! TO.C,L2*
X138430000Y-99060000D02*
X130810000Y-99060000D01*
X138430000Y-96520000D02*
X138430000Y-99060000D01*
X130810000Y-96520000D02*
X138430000Y-96520000D01*
X130810000Y-99060000D02*
X130810000Y-96520000D01*
X134620000Y-97790000D02*
X133604000Y-97790000D01*
X134112000Y-98298000D02*
X134112000Y-97282000D01*
G04 #@! TO.C,L3*
X134112000Y-95758000D02*
X134112000Y-94742000D01*
X134620000Y-95250000D02*
X133604000Y-95250000D01*
X130810000Y-96520000D02*
X130810000Y-93980000D01*
X130810000Y-93980000D02*
X138430000Y-93980000D01*
X138430000Y-93980000D02*
X138430000Y-96520000D01*
X138430000Y-96520000D02*
X130810000Y-96520000D01*
G04 #@! TO.C,L4*
X138430000Y-93980000D02*
X130810000Y-93980000D01*
X138430000Y-91440000D02*
X138430000Y-93980000D01*
X130810000Y-91440000D02*
X138430000Y-91440000D01*
X130810000Y-93980000D02*
X130810000Y-91440000D01*
X134620000Y-92710000D02*
X133604000Y-92710000D01*
X134112000Y-93218000D02*
X134112000Y-92202000D01*
G04 #@! TO.C,L5*
X134112000Y-90678000D02*
X134112000Y-89662000D01*
X134620000Y-90170000D02*
X133604000Y-90170000D01*
X130810000Y-91440000D02*
X130810000Y-88900000D01*
X130810000Y-88900000D02*
X138430000Y-88900000D01*
X138430000Y-88900000D02*
X138430000Y-91440000D01*
X138430000Y-91440000D02*
X130810000Y-91440000D01*
G04 #@! TO.C,L6*
X138430000Y-88900000D02*
X130810000Y-88900000D01*
X138430000Y-86360000D02*
X138430000Y-88900000D01*
X130810000Y-86360000D02*
X138430000Y-86360000D01*
X130810000Y-88900000D02*
X130810000Y-86360000D01*
X134620000Y-87630000D02*
X133604000Y-87630000D01*
X134112000Y-88138000D02*
X134112000Y-87122000D01*
G04 #@! TO.C,L7*
X138430000Y-86360000D02*
X130810000Y-86360000D01*
X138430000Y-83820000D02*
X138430000Y-86360000D01*
X130810000Y-83820000D02*
X138430000Y-83820000D01*
X130810000Y-86360000D02*
X130810000Y-83820000D01*
X134620000Y-85090000D02*
X133604000Y-85090000D01*
X134112000Y-85598000D02*
X134112000Y-84582000D01*
G04 #@! TO.C,L8*
X134112000Y-83058000D02*
X134112000Y-82042000D01*
X134620000Y-82550000D02*
X133604000Y-82550000D01*
X130810000Y-83820000D02*
X130810000Y-81280000D01*
X130810000Y-81280000D02*
X138430000Y-81280000D01*
X138430000Y-81280000D02*
X138430000Y-83820000D01*
X138430000Y-83820000D02*
X130810000Y-83820000D01*
G04 #@! TO.C,L9*
X134112000Y-80518000D02*
X134112000Y-79502000D01*
X134620000Y-80010000D02*
X133604000Y-80010000D01*
X130810000Y-81280000D02*
X130810000Y-78740000D01*
X130810000Y-78740000D02*
X138430000Y-78740000D01*
X138430000Y-78740000D02*
X138430000Y-81280000D01*
X138430000Y-81280000D02*
X130810000Y-81280000D01*
G04 #@! TO.C,L10*
X134112000Y-77978000D02*
X134112000Y-76962000D01*
X134620000Y-77470000D02*
X133604000Y-77470000D01*
X130810000Y-78740000D02*
X130810000Y-76200000D01*
X130810000Y-76200000D02*
X138430000Y-76200000D01*
X138430000Y-76200000D02*
X138430000Y-78740000D01*
X138430000Y-78740000D02*
X130810000Y-78740000D01*
G04 #@! TO.C,L11*
X138430000Y-101600000D02*
X130810000Y-101600000D01*
X138430000Y-99060000D02*
X138430000Y-101600000D01*
X130810000Y-99060000D02*
X138430000Y-99060000D01*
X130810000Y-101600000D02*
X130810000Y-99060000D01*
X134620000Y-100330000D02*
X133604000Y-100330000D01*
X134112000Y-100838000D02*
X134112000Y-99822000D01*
D16*
G04 #@! TO.C,P1*
X160270000Y-95800000D02*
X160270000Y-82000000D01*
X147470000Y-95800000D02*
X147470000Y-82000000D01*
X147470000Y-95800000D02*
X160270000Y-95800000D01*
X147470000Y-82000000D02*
X160270000Y-82000000D01*
G04 #@! TO.C,J3*
X153690000Y-72390000D02*
G75*
G03X153690000Y-72390000I-5100000J0D01*
G01*
X156590000Y-72390000D02*
G75*
G03X156590000Y-72390000I-8000000J0D01*
G01*
X149590000Y-68490000D02*
G75*
G02X147590000Y-68490000I-1000000J0D01*
G01*
X149592533Y-68490652D02*
G75*
G02X147590001Y-68490001I-1002533J-3899348D01*
G01*
G04 #@! TO.C,J4*
X149592533Y-101510652D02*
G75*
G02X147590001Y-101510001I-1002533J-3899348D01*
G01*
X149590000Y-101510000D02*
G75*
G02X147590000Y-101510000I-1000000J0D01*
G01*
X156590000Y-105410000D02*
G75*
G03X156590000Y-105410000I-8000000J0D01*
G01*
X153690000Y-105410000D02*
G75*
G03X153690000Y-105410000I-5100000J0D01*
G01*
G04 #@! TD*
G04 #@! TO.C,J2*
D11*
X110314619Y-98763666D02*
X111040333Y-98763666D01*
X111185476Y-98812047D01*
X111282238Y-98908809D01*
X111330619Y-99053952D01*
X111330619Y-99150714D01*
X110411380Y-98328238D02*
X110363000Y-98279857D01*
X110314619Y-98183095D01*
X110314619Y-97941190D01*
X110363000Y-97844428D01*
X110411380Y-97796047D01*
X110508142Y-97747666D01*
X110604904Y-97747666D01*
X110750047Y-97796047D01*
X111330619Y-98376619D01*
X111330619Y-97747666D01*
D17*
X116395500Y-81797071D02*
X116395500Y-80654071D01*
X116830928Y-80654071D01*
X116939785Y-80708500D01*
X116994214Y-80762928D01*
X117048642Y-80871785D01*
X117048642Y-81035071D01*
X116994214Y-81143928D01*
X116939785Y-81198357D01*
X116830928Y-81252785D01*
X116395500Y-81252785D01*
X117538500Y-81797071D02*
X117538500Y-80654071D01*
X118082785Y-81797071D02*
X118082785Y-80654071D01*
X118735928Y-81797071D01*
X118735928Y-80654071D01*
X119225785Y-81742642D02*
X119389071Y-81797071D01*
X119661214Y-81797071D01*
X119770071Y-81742642D01*
X119824500Y-81688214D01*
X119878928Y-81579357D01*
X119878928Y-81470500D01*
X119824500Y-81361642D01*
X119770071Y-81307214D01*
X119661214Y-81252785D01*
X119443500Y-81198357D01*
X119334642Y-81143928D01*
X119280214Y-81089500D01*
X119225785Y-80980642D01*
X119225785Y-80871785D01*
X119280214Y-80762928D01*
X119334642Y-80708500D01*
X119443500Y-80654071D01*
X119715642Y-80654071D01*
X119878928Y-80708500D01*
X116259428Y-79892071D02*
X116259428Y-78749071D01*
X116640428Y-79565500D01*
X117021428Y-78749071D01*
X117021428Y-79892071D01*
X117511285Y-79565500D02*
X118055571Y-79565500D01*
X117402428Y-79892071D02*
X117783428Y-78749071D01*
X118164428Y-79892071D01*
X119089714Y-79892071D02*
X118545428Y-79892071D01*
X118545428Y-78749071D01*
X119470714Y-79293357D02*
X119851714Y-79293357D01*
X120015000Y-79892071D02*
X119470714Y-79892071D01*
X119470714Y-78749071D01*
X120015000Y-78749071D01*
G04 #@! TO.C,J1*
D11*
X92534619Y-98763666D02*
X93260333Y-98763666D01*
X93405476Y-98812047D01*
X93502238Y-98908809D01*
X93550619Y-99053952D01*
X93550619Y-99150714D01*
X93550619Y-97747666D02*
X93550619Y-98328238D01*
X93550619Y-98037952D02*
X92534619Y-98037952D01*
X92679761Y-98134714D01*
X92776523Y-98231476D01*
X92824904Y-98328238D01*
D17*
X96764928Y-81742642D02*
X96928214Y-81797071D01*
X97200357Y-81797071D01*
X97309214Y-81742642D01*
X97363642Y-81688214D01*
X97418071Y-81579357D01*
X97418071Y-81470500D01*
X97363642Y-81361642D01*
X97309214Y-81307214D01*
X97200357Y-81252785D01*
X96982642Y-81198357D01*
X96873785Y-81143928D01*
X96819357Y-81089500D01*
X96764928Y-80980642D01*
X96764928Y-80871785D01*
X96819357Y-80762928D01*
X96873785Y-80708500D01*
X96982642Y-80654071D01*
X97254785Y-80654071D01*
X97418071Y-80708500D01*
X98125642Y-80654071D02*
X98343357Y-80654071D01*
X98452214Y-80708500D01*
X98561071Y-80817357D01*
X98615500Y-81035071D01*
X98615500Y-81416071D01*
X98561071Y-81633785D01*
X98452214Y-81742642D01*
X98343357Y-81797071D01*
X98125642Y-81797071D01*
X98016785Y-81742642D01*
X97907928Y-81633785D01*
X97853500Y-81416071D01*
X97853500Y-81035071D01*
X97907928Y-80817357D01*
X98016785Y-80708500D01*
X98125642Y-80654071D01*
X99758500Y-81688214D02*
X99704071Y-81742642D01*
X99540785Y-81797071D01*
X99431928Y-81797071D01*
X99268642Y-81742642D01*
X99159785Y-81633785D01*
X99105357Y-81524928D01*
X99050928Y-81307214D01*
X99050928Y-81143928D01*
X99105357Y-80926214D01*
X99159785Y-80817357D01*
X99268642Y-80708500D01*
X99431928Y-80654071D01*
X99540785Y-80654071D01*
X99704071Y-80708500D01*
X99758500Y-80762928D01*
X100248357Y-81797071D02*
X100248357Y-80654071D01*
X100901500Y-81797071D02*
X100411642Y-81143928D01*
X100901500Y-80654071D02*
X100248357Y-81307214D01*
X101391357Y-81198357D02*
X101772357Y-81198357D01*
X101935642Y-81797071D02*
X101391357Y-81797071D01*
X101391357Y-80654071D01*
X101935642Y-80654071D01*
X102262214Y-80654071D02*
X102915357Y-80654071D01*
X102588785Y-81797071D02*
X102588785Y-80654071D01*
X103241928Y-81742642D02*
X103405214Y-81797071D01*
X103677357Y-81797071D01*
X103786214Y-81742642D01*
X103840642Y-81688214D01*
X103895071Y-81579357D01*
X103895071Y-81470500D01*
X103840642Y-81361642D01*
X103786214Y-81307214D01*
X103677357Y-81252785D01*
X103459642Y-81198357D01*
X103350785Y-81143928D01*
X103296357Y-81089500D01*
X103241928Y-80980642D01*
X103241928Y-80871785D01*
X103296357Y-80762928D01*
X103350785Y-80708500D01*
X103459642Y-80654071D01*
X103731785Y-80654071D01*
X103895071Y-80708500D01*
X97853500Y-79293357D02*
X97472500Y-79293357D01*
X97472500Y-79892071D02*
X97472500Y-78749071D01*
X98016785Y-78749071D01*
X98452214Y-79293357D02*
X98833214Y-79293357D01*
X98996500Y-79892071D02*
X98452214Y-79892071D01*
X98452214Y-78749071D01*
X98996500Y-78749071D01*
X99486357Y-79892071D02*
X99486357Y-78749071D01*
X99867357Y-79565500D01*
X100248357Y-78749071D01*
X100248357Y-79892071D01*
X100738214Y-79565500D02*
X101282500Y-79565500D01*
X100629357Y-79892071D02*
X101010357Y-78749071D01*
X101391357Y-79892071D01*
X102316642Y-79892071D02*
X101772357Y-79892071D01*
X101772357Y-78749071D01*
X102697642Y-79293357D02*
X103078642Y-79293357D01*
X103241928Y-79892071D02*
X102697642Y-79892071D01*
X102697642Y-78749071D01*
X103241928Y-78749071D01*
G04 #@! TO.C,L1*
D14*
X146718110Y-96864714D02*
X146355253Y-96864714D01*
X146355253Y-96102714D01*
X147371253Y-96864714D02*
X146935825Y-96864714D01*
X147153539Y-96864714D02*
X147153539Y-96102714D01*
X147080967Y-96211571D01*
X147008396Y-96284142D01*
X146935825Y-96320428D01*
D11*
X141554476Y-96979619D02*
X141215809Y-96495809D01*
X140973904Y-96979619D02*
X140973904Y-95963619D01*
X141360952Y-95963619D01*
X141457714Y-96012000D01*
X141506095Y-96060380D01*
X141554476Y-96157142D01*
X141554476Y-96302285D01*
X141506095Y-96399047D01*
X141457714Y-96447428D01*
X141360952Y-96495809D01*
X140973904Y-96495809D01*
G04 #@! TO.C,L2*
D14*
X139098110Y-98769714D02*
X138735253Y-98769714D01*
X138735253Y-98007714D01*
X139315825Y-98080285D02*
X139352110Y-98044000D01*
X139424682Y-98007714D01*
X139606110Y-98007714D01*
X139678682Y-98044000D01*
X139714967Y-98080285D01*
X139751253Y-98152857D01*
X139751253Y-98225428D01*
X139714967Y-98334285D01*
X139279539Y-98769714D01*
X139751253Y-98769714D01*
D11*
X135886095Y-97282000D02*
X135789333Y-97233619D01*
X135644190Y-97233619D01*
X135499047Y-97282000D01*
X135402285Y-97378761D01*
X135353904Y-97475523D01*
X135305523Y-97669047D01*
X135305523Y-97814190D01*
X135353904Y-98007714D01*
X135402285Y-98104476D01*
X135499047Y-98201238D01*
X135644190Y-98249619D01*
X135740952Y-98249619D01*
X135886095Y-98201238D01*
X135934476Y-98152857D01*
X135934476Y-97814190D01*
X135740952Y-97814190D01*
G04 #@! TO.C,L3*
X135886095Y-94742000D02*
X135789333Y-94693619D01*
X135644190Y-94693619D01*
X135499047Y-94742000D01*
X135402285Y-94838761D01*
X135353904Y-94935523D01*
X135305523Y-95129047D01*
X135305523Y-95274190D01*
X135353904Y-95467714D01*
X135402285Y-95564476D01*
X135499047Y-95661238D01*
X135644190Y-95709619D01*
X135740952Y-95709619D01*
X135886095Y-95661238D01*
X135934476Y-95612857D01*
X135934476Y-95274190D01*
X135740952Y-95274190D01*
G04 #@! TO.C,L4*
X135886095Y-92202000D02*
X135789333Y-92153619D01*
X135644190Y-92153619D01*
X135499047Y-92202000D01*
X135402285Y-92298761D01*
X135353904Y-92395523D01*
X135305523Y-92589047D01*
X135305523Y-92734190D01*
X135353904Y-92927714D01*
X135402285Y-93024476D01*
X135499047Y-93121238D01*
X135644190Y-93169619D01*
X135740952Y-93169619D01*
X135886095Y-93121238D01*
X135934476Y-93072857D01*
X135934476Y-92734190D01*
X135740952Y-92734190D01*
G04 #@! TO.C,L5*
X135886095Y-89662000D02*
X135789333Y-89613619D01*
X135644190Y-89613619D01*
X135499047Y-89662000D01*
X135402285Y-89758761D01*
X135353904Y-89855523D01*
X135305523Y-90049047D01*
X135305523Y-90194190D01*
X135353904Y-90387714D01*
X135402285Y-90484476D01*
X135499047Y-90581238D01*
X135644190Y-90629619D01*
X135740952Y-90629619D01*
X135886095Y-90581238D01*
X135934476Y-90532857D01*
X135934476Y-90194190D01*
X135740952Y-90194190D01*
G04 #@! TO.C,L6*
X135886095Y-87122000D02*
X135789333Y-87073619D01*
X135644190Y-87073619D01*
X135499047Y-87122000D01*
X135402285Y-87218761D01*
X135353904Y-87315523D01*
X135305523Y-87509047D01*
X135305523Y-87654190D01*
X135353904Y-87847714D01*
X135402285Y-87944476D01*
X135499047Y-88041238D01*
X135644190Y-88089619D01*
X135740952Y-88089619D01*
X135886095Y-88041238D01*
X135934476Y-87992857D01*
X135934476Y-87654190D01*
X135740952Y-87654190D01*
G04 #@! TO.C,L7*
X135886095Y-84582000D02*
X135789333Y-84533619D01*
X135644190Y-84533619D01*
X135499047Y-84582000D01*
X135402285Y-84678761D01*
X135353904Y-84775523D01*
X135305523Y-84969047D01*
X135305523Y-85114190D01*
X135353904Y-85307714D01*
X135402285Y-85404476D01*
X135499047Y-85501238D01*
X135644190Y-85549619D01*
X135740952Y-85549619D01*
X135886095Y-85501238D01*
X135934476Y-85452857D01*
X135934476Y-85114190D01*
X135740952Y-85114190D01*
G04 #@! TO.C,L8*
D14*
X139098110Y-82894714D02*
X138735253Y-82894714D01*
X138735253Y-82132714D01*
X139460967Y-82459285D02*
X139388396Y-82423000D01*
X139352110Y-82386714D01*
X139315825Y-82314142D01*
X139315825Y-82277857D01*
X139352110Y-82205285D01*
X139388396Y-82169000D01*
X139460967Y-82132714D01*
X139606110Y-82132714D01*
X139678682Y-82169000D01*
X139714967Y-82205285D01*
X139751253Y-82277857D01*
X139751253Y-82314142D01*
X139714967Y-82386714D01*
X139678682Y-82423000D01*
X139606110Y-82459285D01*
X139460967Y-82459285D01*
X139388396Y-82495571D01*
X139352110Y-82531857D01*
X139315825Y-82604428D01*
X139315825Y-82749571D01*
X139352110Y-82822142D01*
X139388396Y-82858428D01*
X139460967Y-82894714D01*
X139606110Y-82894714D01*
X139678682Y-82858428D01*
X139714967Y-82822142D01*
X139751253Y-82749571D01*
X139751253Y-82604428D01*
X139714967Y-82531857D01*
X139678682Y-82495571D01*
X139606110Y-82459285D01*
D11*
X135886095Y-82042000D02*
X135789333Y-81993619D01*
X135644190Y-81993619D01*
X135499047Y-82042000D01*
X135402285Y-82138761D01*
X135353904Y-82235523D01*
X135305523Y-82429047D01*
X135305523Y-82574190D01*
X135353904Y-82767714D01*
X135402285Y-82864476D01*
X135499047Y-82961238D01*
X135644190Y-83009619D01*
X135740952Y-83009619D01*
X135886095Y-82961238D01*
X135934476Y-82912857D01*
X135934476Y-82574190D01*
X135740952Y-82574190D01*
G04 #@! TO.C,L9*
D14*
X139098110Y-80354714D02*
X138735253Y-80354714D01*
X138735253Y-79592714D01*
X139388396Y-80354714D02*
X139533539Y-80354714D01*
X139606110Y-80318428D01*
X139642396Y-80282142D01*
X139714967Y-80173285D01*
X139751253Y-80028142D01*
X139751253Y-79737857D01*
X139714967Y-79665285D01*
X139678682Y-79629000D01*
X139606110Y-79592714D01*
X139460967Y-79592714D01*
X139388396Y-79629000D01*
X139352110Y-79665285D01*
X139315825Y-79737857D01*
X139315825Y-79919285D01*
X139352110Y-79991857D01*
X139388396Y-80028142D01*
X139460967Y-80064428D01*
X139606110Y-80064428D01*
X139678682Y-80028142D01*
X139714967Y-79991857D01*
X139751253Y-79919285D01*
D11*
X135886095Y-79502000D02*
X135789333Y-79453619D01*
X135644190Y-79453619D01*
X135499047Y-79502000D01*
X135402285Y-79598761D01*
X135353904Y-79695523D01*
X135305523Y-79889047D01*
X135305523Y-80034190D01*
X135353904Y-80227714D01*
X135402285Y-80324476D01*
X135499047Y-80421238D01*
X135644190Y-80469619D01*
X135740952Y-80469619D01*
X135886095Y-80421238D01*
X135934476Y-80372857D01*
X135934476Y-80034190D01*
X135740952Y-80034190D01*
G04 #@! TO.C,L10*
D14*
X139098110Y-77814714D02*
X138735253Y-77814714D01*
X138735253Y-77052714D01*
X139751253Y-77814714D02*
X139315825Y-77814714D01*
X139533539Y-77814714D02*
X139533539Y-77052714D01*
X139460967Y-77161571D01*
X139388396Y-77234142D01*
X139315825Y-77270428D01*
X140222967Y-77052714D02*
X140295539Y-77052714D01*
X140368110Y-77089000D01*
X140404396Y-77125285D01*
X140440682Y-77197857D01*
X140476967Y-77343000D01*
X140476967Y-77524428D01*
X140440682Y-77669571D01*
X140404396Y-77742142D01*
X140368110Y-77778428D01*
X140295539Y-77814714D01*
X140222967Y-77814714D01*
X140150396Y-77778428D01*
X140114110Y-77742142D01*
X140077825Y-77669571D01*
X140041539Y-77524428D01*
X140041539Y-77343000D01*
X140077825Y-77197857D01*
X140114110Y-77125285D01*
X140150396Y-77089000D01*
X140222967Y-77052714D01*
D11*
X135886095Y-76962000D02*
X135789333Y-76913619D01*
X135644190Y-76913619D01*
X135499047Y-76962000D01*
X135402285Y-77058761D01*
X135353904Y-77155523D01*
X135305523Y-77349047D01*
X135305523Y-77494190D01*
X135353904Y-77687714D01*
X135402285Y-77784476D01*
X135499047Y-77881238D01*
X135644190Y-77929619D01*
X135740952Y-77929619D01*
X135886095Y-77881238D01*
X135934476Y-77832857D01*
X135934476Y-77494190D01*
X135740952Y-77494190D01*
G04 #@! TO.C,L11*
D14*
X139098110Y-100674714D02*
X138735253Y-100674714D01*
X138735253Y-99912714D01*
X139751253Y-100674714D02*
X139315825Y-100674714D01*
X139533539Y-100674714D02*
X139533539Y-99912714D01*
X139460967Y-100021571D01*
X139388396Y-100094142D01*
X139315825Y-100130428D01*
X140476967Y-100674714D02*
X140041539Y-100674714D01*
X140259253Y-100674714D02*
X140259253Y-99912714D01*
X140186682Y-100021571D01*
X140114110Y-100094142D01*
X140041539Y-100130428D01*
D11*
X135886095Y-99822000D02*
X135789333Y-99773619D01*
X135644190Y-99773619D01*
X135499047Y-99822000D01*
X135402285Y-99918761D01*
X135353904Y-100015523D01*
X135305523Y-100209047D01*
X135305523Y-100354190D01*
X135353904Y-100547714D01*
X135402285Y-100644476D01*
X135499047Y-100741238D01*
X135644190Y-100789619D01*
X135740952Y-100789619D01*
X135886095Y-100741238D01*
X135934476Y-100692857D01*
X135934476Y-100354190D01*
X135740952Y-100354190D01*
G04 #@! TO.C,P1*
D14*
X145889889Y-82894714D02*
X145889889Y-82132714D01*
X146180175Y-82132714D01*
X146252746Y-82169000D01*
X146289032Y-82205285D01*
X146325317Y-82277857D01*
X146325317Y-82386714D01*
X146289032Y-82459285D01*
X146252746Y-82495571D01*
X146180175Y-82531857D01*
X145889889Y-82531857D01*
X147051032Y-82894714D02*
X146615603Y-82894714D01*
X146833317Y-82894714D02*
X146833317Y-82132714D01*
X146760746Y-82241571D01*
X146688175Y-82314142D01*
X146615603Y-82350428D01*
G04 #@! TO.C,J3*
D11*
X154601333Y-78818619D02*
X154601333Y-79544333D01*
X154552952Y-79689476D01*
X154456190Y-79786238D01*
X154311047Y-79834619D01*
X154214285Y-79834619D01*
X154988380Y-78818619D02*
X155617333Y-78818619D01*
X155278666Y-79205666D01*
X155423809Y-79205666D01*
X155520571Y-79254047D01*
X155568952Y-79302428D01*
X155617333Y-79399190D01*
X155617333Y-79641095D01*
X155568952Y-79737857D01*
X155520571Y-79786238D01*
X155423809Y-79834619D01*
X155133523Y-79834619D01*
X155036761Y-79786238D01*
X154988380Y-79737857D01*
G04 #@! TO.C,J4*
X154601333Y-97868619D02*
X154601333Y-98594333D01*
X154552952Y-98739476D01*
X154456190Y-98836238D01*
X154311047Y-98884619D01*
X154214285Y-98884619D01*
X155520571Y-98207285D02*
X155520571Y-98884619D01*
X155278666Y-97820238D02*
X155036761Y-98545952D01*
X155665714Y-98545952D01*
G04 #@! TD*
%LPC*%
D18*
G04 #@! TO.C,J2*
X115010000Y-76400000D03*
X115010000Y-101400000D03*
D19*
X118110000Y-103100000D03*
D20*
X118110000Y-74700000D03*
D21*
X116390000Y-94380000D03*
X116390000Y-91640000D03*
X116390000Y-88900000D03*
X116390000Y-86160000D03*
X116390000Y-83420000D03*
X119830000Y-93010000D03*
X119830000Y-90270000D03*
X119830000Y-87530000D03*
X119830000Y-84790000D03*
G04 #@! TD*
D18*
G04 #@! TO.C,J1*
X97230000Y-76400000D03*
X97230000Y-101400000D03*
D19*
X100330000Y-103100000D03*
D20*
X100330000Y-74700000D03*
D21*
X98610000Y-94380000D03*
X98610000Y-91640000D03*
X98610000Y-88900000D03*
X98610000Y-86160000D03*
X98610000Y-83420000D03*
X102050000Y-93010000D03*
X102050000Y-90270000D03*
X102050000Y-87530000D03*
X102050000Y-84790000D03*
G04 #@! TD*
D22*
G04 #@! TO.C,MDB1*
X130175000Y-71120000D03*
X130175000Y-106680000D03*
X89535000Y-101600000D03*
X89535000Y-76200000D03*
D23*
X88265000Y-106680000D03*
X90805000Y-106680000D03*
X93345000Y-106680000D03*
X95885000Y-106680000D03*
X98425000Y-106680000D03*
X100965000Y-106680000D03*
X103505000Y-106680000D03*
X106045000Y-106680000D03*
X108585000Y-106680000D03*
X111125000Y-106680000D03*
X113665000Y-106680000D03*
X116205000Y-106680000D03*
X118745000Y-106680000D03*
X121285000Y-106680000D03*
X123825000Y-106680000D03*
X126365000Y-106680000D03*
X126365000Y-71120000D03*
X123825000Y-71120000D03*
X121285000Y-71120000D03*
X118745000Y-71120000D03*
X116205000Y-71120000D03*
X113665000Y-71120000D03*
X111125000Y-71120000D03*
X108585000Y-71120000D03*
X106045000Y-71120000D03*
X103505000Y-71120000D03*
X100965000Y-71120000D03*
X98425000Y-71120000D03*
X95885000Y-71120000D03*
D24*
X88265000Y-71120000D03*
D23*
X93345000Y-71120000D03*
X90805000Y-71120000D03*
G04 #@! TD*
D25*
G04 #@! TO.C,L1*
X144780000Y-96520000D03*
X139700000Y-96520000D03*
G04 #@! TD*
G04 #@! TO.C,L2*
X137160000Y-97790000D03*
X132080000Y-97790000D03*
G04 #@! TD*
G04 #@! TO.C,L3*
X132080000Y-95250000D03*
X137160000Y-95250000D03*
G04 #@! TD*
G04 #@! TO.C,L4*
X137160000Y-92710000D03*
X132080000Y-92710000D03*
G04 #@! TD*
G04 #@! TO.C,L5*
X132080000Y-90170000D03*
X137160000Y-90170000D03*
G04 #@! TD*
G04 #@! TO.C,L6*
X137160000Y-87630000D03*
X132080000Y-87630000D03*
G04 #@! TD*
G04 #@! TO.C,L7*
X137160000Y-85090000D03*
X132080000Y-85090000D03*
G04 #@! TD*
G04 #@! TO.C,L8*
X132080000Y-82550000D03*
X137160000Y-82550000D03*
G04 #@! TD*
G04 #@! TO.C,L9*
X132080000Y-80010000D03*
X137160000Y-80010000D03*
G04 #@! TD*
G04 #@! TO.C,L10*
X132080000Y-77470000D03*
X137160000Y-77470000D03*
G04 #@! TD*
G04 #@! TO.C,L11*
X137160000Y-100330000D03*
X132080000Y-100330000D03*
G04 #@! TD*
D26*
G04 #@! TO.C,P1*
X153670000Y-84700000D03*
X153670000Y-93100000D03*
D27*
X146370000Y-84700000D03*
D28*
X146370000Y-88900000D03*
X146370000Y-93100000D03*
X140870000Y-84700000D03*
X140870000Y-88900000D03*
X140870000Y-93100000D03*
G04 #@! TD*
D29*
G04 #@! TO.C,J3*
X153090000Y-72390000D03*
X144090000Y-72390000D03*
D30*
X154265000Y-72390000D03*
X142915000Y-72390000D03*
D31*
X146820000Y-74160000D03*
X150360000Y-74160000D03*
X150360000Y-70620000D03*
X146820000Y-70620000D03*
X148590000Y-72390000D03*
G04 #@! TD*
G04 #@! TO.C,J4*
X148590000Y-105410000D03*
X146820000Y-103640000D03*
X150360000Y-103640000D03*
X150360000Y-107180000D03*
X146820000Y-107180000D03*
D30*
X142915000Y-105410000D03*
X154265000Y-105410000D03*
D29*
X144090000Y-105410000D03*
X153090000Y-105410000D03*
G04 #@! TD*
M02*
