G04 #@! TF.GenerationSoftware,KiCad,Pcbnew,6.0.0-rc1-unknown-576a0af~66~ubuntu18.04.1*
G04 #@! TF.CreationDate,2018-10-20T17:19:33-04:00*
G04 #@! TF.ProjectId,backlight_controller_3x2,6261636B6C696768745F636F6E74726F,1.1*
G04 #@! TF.SameCoordinates,Original*
G04 #@! TF.FileFunction,Copper,L1,Top*
G04 #@! TF.FilePolarity,Positive*
%FSLAX46Y46*%
G04 Gerber Fmt 4.6, Leading zero omitted, Abs format (unit mm)*
G04 Created by KiCad (PCBNEW 6.0.0-rc1-unknown-576a0af~66~ubuntu18.04.1) date Sat 20 Oct 2018 05:19:33 PM EDT*
%MOMM*%
%LPD*%
G01*
G04 APERTURE LIST*
G04 #@! TA.AperFunction,NonConductor*
%ADD10C,0.228600*%
G04 #@! TD*
G04 #@! TA.AperFunction,ComponentPad*
%ADD11C,2.200000*%
G04 #@! TD*
G04 #@! TA.AperFunction,SMDPad,CuDef*
%ADD12R,13.000000X3.400000*%
G04 #@! TD*
G04 #@! TA.AperFunction,SMDPad,CuDef*
%ADD13R,13.000000X3.400001*%
G04 #@! TD*
G04 #@! TA.AperFunction,SMDPad,CuDef*
%ADD14R,2.400000X1.000000*%
G04 #@! TD*
G04 #@! TA.AperFunction,ComponentPad*
%ADD15C,3.556000*%
G04 #@! TD*
G04 #@! TA.AperFunction,ComponentPad*
%ADD16O,1.854200X2.540000*%
G04 #@! TD*
G04 #@! TA.AperFunction,ComponentPad*
%ADD17R,1.854200X2.540000*%
G04 #@! TD*
G04 #@! TA.AperFunction,ComponentPad*
%ADD18O,2.032000X1.524000*%
G04 #@! TD*
G04 #@! TA.AperFunction,ComponentPad*
%ADD19C,4.000000*%
G04 #@! TD*
G04 #@! TA.AperFunction,ComponentPad*
%ADD20R,4.000000X3.000000*%
G04 #@! TD*
G04 #@! TA.AperFunction,ComponentPad*
%ADD21O,4.000000X3.000000*%
G04 #@! TD*
G04 #@! TA.AperFunction,ComponentPad*
%ADD22C,1.600000*%
G04 #@! TD*
G04 #@! TA.AperFunction,ComponentPad*
%ADD23C,2.000000*%
G04 #@! TD*
G04 #@! TA.AperFunction,SMDPad,CuDef*
%ADD24R,2.250000X7.850000*%
G04 #@! TD*
G04 #@! TA.AperFunction,BGAPad,CuDef*
%ADD25C,1.500000*%
G04 #@! TD*
G04 #@! TA.AperFunction,ViaPad*
%ADD26C,0.889000*%
G04 #@! TD*
G04 #@! TA.AperFunction,ViaPad*
%ADD27C,0.635000*%
G04 #@! TD*
G04 #@! TA.AperFunction,Conductor*
%ADD28C,0.812800*%
G04 #@! TD*
G04 #@! TA.AperFunction,Conductor*
%ADD29C,0.254000*%
G04 #@! TD*
G04 #@! TA.AperFunction,Conductor*
%ADD30C,0.203200*%
G04 #@! TD*
G04 APERTURE END LIST*
D10*
X156210000Y-67945000D02*
X85725000Y-67945000D01*
X156210000Y-109855000D02*
X156210000Y-67945000D01*
X85725000Y-109855000D02*
X156210000Y-109855000D01*
X85725000Y-67945000D02*
X85725000Y-109855000D01*
D11*
G04 #@! TO.P,J2,*
G04 #@! TO.N,*
X115010000Y-76400000D03*
X115010000Y-101400000D03*
D12*
X118110000Y-103100000D03*
D13*
X118110000Y-74700000D03*
D14*
G04 #@! TO.P,J2,1*
G04 #@! TO.N,GND*
X116390000Y-94380000D03*
G04 #@! TO.P,J2,2*
G04 #@! TO.N,/backlight_3x2/low_voltage_outputs/OUTPUT_0*
X116390000Y-91640000D03*
G04 #@! TO.P,J2,3*
G04 #@! TO.N,GND*
X116390000Y-88900000D03*
G04 #@! TO.P,J2,4*
G04 #@! TO.N,/backlight_3x2/low_voltage_outputs/OUTPUT_1*
X116390000Y-86160000D03*
G04 #@! TO.P,J2,5*
G04 #@! TO.N,GND*
X116390000Y-83420000D03*
G04 #@! TO.P,J2,6*
G04 #@! TO.N,/backlight_3x2/low_voltage_outputs/OUTPUT_2*
X119830000Y-93010000D03*
G04 #@! TO.P,J2,7*
G04 #@! TO.N,GND*
X119830000Y-90270000D03*
G04 #@! TO.P,J2,8*
G04 #@! TO.N,/backlight_3x2/low_voltage_outputs/OUTPUT_3*
X119830000Y-87530000D03*
G04 #@! TO.P,J2,9*
G04 #@! TO.N,GND*
X119830000Y-84790000D03*
G04 #@! TD*
D11*
G04 #@! TO.P,J1,*
G04 #@! TO.N,*
X97230000Y-76400000D03*
X97230000Y-101400000D03*
D12*
X100330000Y-103100000D03*
D13*
X100330000Y-74700000D03*
D14*
G04 #@! TO.P,J1,5*
G04 #@! TO.N,VAA*
X98610000Y-94380000D03*
G04 #@! TO.P,J1,4*
G04 #@! TO.N,/backlight_3x2/high_voltage_outputs/OUTPUT_1*
X98610000Y-91640000D03*
G04 #@! TO.P,J1,3*
G04 #@! TO.N,VAA*
X98610000Y-88900000D03*
G04 #@! TO.P,J1,2*
G04 #@! TO.N,/backlight_3x2/high_voltage_outputs/OUTPUT_0*
X98610000Y-86160000D03*
G04 #@! TO.P,J1,1*
G04 #@! TO.N,VAA*
X98610000Y-83420000D03*
G04 #@! TO.P,J1,9*
X102050000Y-93010000D03*
G04 #@! TO.P,J1,8*
G04 #@! TO.N,/backlight_3x2/high_voltage_outputs/OUTPUT_3*
X102050000Y-90270000D03*
G04 #@! TO.P,J1,7*
G04 #@! TO.N,VAA*
X102050000Y-87530000D03*
G04 #@! TO.P,J1,6*
G04 #@! TO.N,/backlight_3x2/high_voltage_outputs/OUTPUT_2*
X102050000Y-84790000D03*
G04 #@! TD*
D15*
G04 #@! TO.P,MDB1,*
G04 #@! TO.N,*
X130175000Y-71120000D03*
X130175000Y-106680000D03*
X89535000Y-101600000D03*
X89535000Y-76200000D03*
D16*
G04 #@! TO.P,MDB1,AREF*
G04 #@! TO.N,N/C*
X88265000Y-106680000D03*
G04 #@! TO.P,MDB1,VEE*
G04 #@! TO.N,VEE*
X90805000Y-106680000D03*
G04 #@! TO.P,MDB1,AGND*
G04 #@! TO.N,N/C*
X93345000Y-106680000D03*
G04 #@! TO.P,MDB1,3V3*
X95885000Y-106680000D03*
G04 #@! TO.P,MDB1,23*
X98425000Y-106680000D03*
G04 #@! TO.P,MDB1,22*
X100965000Y-106680000D03*
G04 #@! TO.P,MDB1,21*
X103505000Y-106680000D03*
G04 #@! TO.P,MDB1,20*
X106045000Y-106680000D03*
G04 #@! TO.P,MDB1,19*
G04 #@! TO.N,/CHANNEL_9*
X108585000Y-106680000D03*
G04 #@! TO.P,MDB1,18*
G04 #@! TO.N,/CHANNEL_8*
X111125000Y-106680000D03*
G04 #@! TO.P,MDB1,17*
G04 #@! TO.N,/CHANNEL_7*
X113665000Y-106680000D03*
G04 #@! TO.P,MDB1,16*
G04 #@! TO.N,/CHANNEL_6*
X116205000Y-106680000D03*
G04 #@! TO.P,MDB1,15*
G04 #@! TO.N,/CHANNEL_5*
X118745000Y-106680000D03*
G04 #@! TO.P,MDB1,14*
G04 #@! TO.N,/CHANNEL_4*
X121285000Y-106680000D03*
G04 #@! TO.P,MDB1,13*
G04 #@! TO.N,N/C*
X123825000Y-106680000D03*
G04 #@! TO.P,MDB1,DAC*
X126365000Y-106680000D03*
G04 #@! TO.P,MDB1,28*
X126365000Y-71120000D03*
G04 #@! TO.P,MDB1,12*
X123825000Y-71120000D03*
G04 #@! TO.P,MDB1,11*
X121285000Y-71120000D03*
G04 #@! TO.P,MDB1,10*
X118745000Y-71120000D03*
G04 #@! TO.P,MDB1,9*
X116205000Y-71120000D03*
G04 #@! TO.P,MDB1,29*
X113665000Y-71120000D03*
G04 #@! TO.P,MDB1,30*
X111125000Y-71120000D03*
G04 #@! TO.P,MDB1,6*
G04 #@! TO.N,/CHANNEL_3*
X108585000Y-71120000D03*
G04 #@! TO.P,MDB1,5*
G04 #@! TO.N,/CHANNEL_2*
X106045000Y-71120000D03*
G04 #@! TO.P,MDB1,4*
G04 #@! TO.N,/CHANNEL_1*
X103505000Y-71120000D03*
G04 #@! TO.P,MDB1,3*
G04 #@! TO.N,/CHANNEL_0*
X100965000Y-71120000D03*
G04 #@! TO.P,MDB1,2*
G04 #@! TO.N,/~ENABLE*
X98425000Y-71120000D03*
G04 #@! TO.P,MDB1,25*
G04 #@! TO.N,N/C*
X95885000Y-71120000D03*
D17*
G04 #@! TO.P,MDB1,VDD*
G04 #@! TO.N,VDD*
X88265000Y-71120000D03*
D16*
G04 #@! TO.P,MDB1,24*
G04 #@! TO.N,N/C*
X93345000Y-71120000D03*
G04 #@! TO.P,MDB1,GND*
G04 #@! TO.N,GND*
X90805000Y-71120000D03*
G04 #@! TD*
D18*
G04 #@! TO.P,L1,1*
G04 #@! TO.N,VAA*
X144780000Y-96520000D03*
G04 #@! TO.P,L1,2*
G04 #@! TO.N,GND*
X139700000Y-96520000D03*
G04 #@! TD*
G04 #@! TO.P,L2,2*
G04 #@! TO.N,GND*
X137160000Y-97790000D03*
G04 #@! TO.P,L2,1*
G04 #@! TO.N,/backlight_3x2/C_0*
X132080000Y-97790000D03*
G04 #@! TD*
G04 #@! TO.P,L3,1*
G04 #@! TO.N,/backlight_3x2/C_1*
X132080000Y-95250000D03*
G04 #@! TO.P,L3,2*
G04 #@! TO.N,GND*
X137160000Y-95250000D03*
G04 #@! TD*
G04 #@! TO.P,L4,2*
G04 #@! TO.N,GND*
X137160000Y-92710000D03*
G04 #@! TO.P,L4,1*
G04 #@! TO.N,/backlight_3x2/C_2*
X132080000Y-92710000D03*
G04 #@! TD*
G04 #@! TO.P,L5,1*
G04 #@! TO.N,/backlight_3x2/C_3*
X132080000Y-90170000D03*
G04 #@! TO.P,L5,2*
G04 #@! TO.N,GND*
X137160000Y-90170000D03*
G04 #@! TD*
G04 #@! TO.P,L6,2*
G04 #@! TO.N,GND*
X137160000Y-87630000D03*
G04 #@! TO.P,L6,1*
G04 #@! TO.N,/backlight_3x2/C_4*
X132080000Y-87630000D03*
G04 #@! TD*
G04 #@! TO.P,L7,2*
G04 #@! TO.N,GND*
X137160000Y-85090000D03*
G04 #@! TO.P,L7,1*
G04 #@! TO.N,/backlight_3x2/C_5*
X132080000Y-85090000D03*
G04 #@! TD*
G04 #@! TO.P,L8,1*
G04 #@! TO.N,/backlight_3x2/C_6*
X132080000Y-82550000D03*
G04 #@! TO.P,L8,2*
G04 #@! TO.N,GND*
X137160000Y-82550000D03*
G04 #@! TD*
G04 #@! TO.P,L9,1*
G04 #@! TO.N,/backlight_3x2/C_7*
X132080000Y-80010000D03*
G04 #@! TO.P,L9,2*
G04 #@! TO.N,GND*
X137160000Y-80010000D03*
G04 #@! TD*
G04 #@! TO.P,L10,1*
G04 #@! TO.N,/backlight_3x2/C_8*
X132080000Y-77470000D03*
G04 #@! TO.P,L10,2*
G04 #@! TO.N,GND*
X137160000Y-77470000D03*
G04 #@! TD*
G04 #@! TO.P,L11,2*
G04 #@! TO.N,GND*
X137160000Y-100330000D03*
G04 #@! TO.P,L11,1*
G04 #@! TO.N,/backlight_3x2/C_9*
X132080000Y-100330000D03*
G04 #@! TD*
D19*
G04 #@! TO.P,P1,*
G04 #@! TO.N,*
X153670000Y-84700000D03*
X153670000Y-93100000D03*
D20*
G04 #@! TO.P,P1,1*
G04 #@! TO.N,VAA*
X146370000Y-84700000D03*
D21*
G04 #@! TO.P,P1,2*
X146370000Y-88900000D03*
G04 #@! TO.P,P1,3*
X146370000Y-93100000D03*
G04 #@! TO.P,P1,4*
G04 #@! TO.N,GND*
X140870000Y-84700000D03*
G04 #@! TO.P,P1,5*
X140870000Y-88900000D03*
G04 #@! TO.P,P1,6*
X140870000Y-93100000D03*
G04 #@! TD*
D22*
G04 #@! TO.P,J3,*
G04 #@! TO.N,*
X153090000Y-72390000D03*
D23*
X144090000Y-72390000D03*
D24*
X154265000Y-72390000D03*
X142915000Y-72390000D03*
D25*
G04 #@! TO.P,J3,4*
G04 #@! TO.N,N/C*
X146820000Y-74160000D03*
G04 #@! TO.P,J3,3*
G04 #@! TO.N,GND*
X150360000Y-74160000D03*
G04 #@! TO.P,J3,2*
G04 #@! TO.N,/backlight_3x2/backlight_outputs/ir/NPN*
X150360000Y-70620000D03*
G04 #@! TO.P,J3,1*
G04 #@! TO.N,VAA*
X146820000Y-70620000D03*
G04 #@! TO.P,J3,5*
X148590000Y-72390000D03*
G04 #@! TD*
G04 #@! TO.P,J4,5*
G04 #@! TO.N,VAA*
X148590000Y-105410000D03*
G04 #@! TO.P,J4,1*
X146820000Y-103640000D03*
G04 #@! TO.P,J4,2*
G04 #@! TO.N,/backlight_3x2/backlight_outputs/visible/NPN*
X150360000Y-103640000D03*
G04 #@! TO.P,J4,3*
G04 #@! TO.N,GND*
X150360000Y-107180000D03*
G04 #@! TO.P,J4,4*
G04 #@! TO.N,N/C*
X146820000Y-107180000D03*
D24*
G04 #@! TO.P,J4,*
G04 #@! TO.N,*
X142915000Y-105410000D03*
X154265000Y-105410000D03*
D23*
X144090000Y-105410000D03*
D22*
X153090000Y-105410000D03*
G04 #@! TD*
D26*
G04 #@! TO.N,GND*
X125257700Y-94931700D03*
G04 #@! TO.N,VAA*
X105601500Y-79399400D03*
G04 #@! TO.N,/backlight_3x2/high_voltage_outputs/OUTPUT_0*
X108393800Y-84196600D03*
G04 #@! TO.N,/backlight_3x2/high_voltage_outputs/OUTPUT_1*
X100920800Y-91338800D03*
G04 #@! TO.N,/backlight_3x2/high_voltage_outputs/OUTPUT_2*
X99463000Y-87222900D03*
G04 #@! TO.N,/backlight_3x2/high_voltage_outputs/OUTPUT_3*
X93345000Y-86163400D03*
D27*
G04 #@! TO.N,/backlight_3x2/low_voltage_outputs/OUTPUT_3*
X122054700Y-86776200D03*
G04 #@! TO.N,/backlight_3x2/low_voltage_outputs/OUTPUT_2*
X134054700Y-88305200D03*
G04 #@! TO.N,/backlight_3x2/low_voltage_outputs/OUTPUT_1*
X121287200Y-86659500D03*
X129254000Y-83720800D03*
X135602700Y-83720800D03*
G04 #@! TO.N,/backlight_3x2/low_voltage_outputs/OUTPUT_0*
X134119200Y-97021800D03*
G04 #@! TO.N,/backlight_3x2/C_8*
X135577900Y-77373700D03*
G04 #@! TO.N,/backlight_3x2/C_9*
X126545500Y-82585900D03*
G04 #@! TO.N,/backlight_3x2/C_0*
X114131600Y-98357000D03*
G04 #@! TO.N,/backlight_3x2/C_1*
X110177900Y-96135000D03*
G04 #@! TO.N,/backlight_3x2/C_2*
X109587500Y-95682900D03*
G04 #@! TO.N,/backlight_3x2/C_3*
X110045000Y-95086200D03*
G04 #@! TO.N,/CHANNEL_9*
X110663400Y-98547300D03*
X119970800Y-83609800D03*
G04 #@! TO.N,/CHANNEL_8*
X121945600Y-100875700D03*
G04 #@! TO.N,/CHANNEL_3*
X121219800Y-91744800D03*
G04 #@! TO.N,/CHANNEL_2*
X123741500Y-84454600D03*
X120460300Y-91657500D03*
G04 #@! TO.N,/CHANNEL_1*
X109216300Y-73730800D03*
X109047300Y-82403500D03*
X115822600Y-98944100D03*
G04 #@! TO.N,/CHANNEL_0*
X114935000Y-105232000D03*
G04 #@! TO.N,/backlight_3x2/backlight_outputs/ir/NPN*
X149510900Y-73263100D03*
G04 #@! TO.N,/backlight_3x2/backlight_outputs/visible/NPN*
X148742100Y-104209500D03*
G04 #@! TD*
D28*
G04 #@! TO.N,GND*
X119830000Y-90270000D02*
X121563400Y-90270000D01*
X121563400Y-90270000D02*
X122893500Y-88939900D01*
X122893500Y-88939900D02*
X122893500Y-86120100D01*
X122893500Y-86120100D02*
X121563400Y-84790000D01*
X118121600Y-90270000D02*
X119830000Y-90270000D01*
X116390000Y-83420000D02*
X118123400Y-83420000D01*
X121563400Y-82737600D02*
X128126400Y-76174600D01*
X128126400Y-76174600D02*
X137160000Y-76174600D01*
X118123400Y-83420000D02*
X118805800Y-82737600D01*
X118805800Y-82737600D02*
X121563400Y-82737600D01*
X121563400Y-82737600D02*
X121563400Y-84790000D01*
X119830000Y-84790000D02*
X121563400Y-84790000D01*
X116390000Y-83420000D02*
X114656600Y-83420000D01*
X137160000Y-77470000D02*
X137160000Y-76174600D01*
X114656600Y-83420000D02*
X109245000Y-78008400D01*
X109245000Y-78008400D02*
X94666100Y-78008400D01*
X94666100Y-78008400D02*
X90805000Y-74147300D01*
X90805000Y-74147300D02*
X90805000Y-71120000D01*
X117584600Y-93185400D02*
X118121600Y-92648400D01*
X118121600Y-92648400D02*
X118121600Y-90270000D01*
X116390000Y-94380000D02*
X117584600Y-93185400D01*
X117584600Y-93185400D02*
X119071600Y-94672500D01*
X119071600Y-94672500D02*
X124998500Y-94672500D01*
X124998500Y-94672500D02*
X125257700Y-94931700D01*
X118121600Y-90270000D02*
X117760000Y-90270000D01*
X117760000Y-90270000D02*
X116390000Y-88900000D01*
X141790900Y-85945700D02*
X140870000Y-85024800D01*
X140870000Y-85024800D02*
X140870000Y-84700000D01*
X150360000Y-74160000D02*
X150360000Y-84990700D01*
X150360000Y-84990700D02*
X148601300Y-86749400D01*
X148601300Y-86749400D02*
X142594600Y-86749400D01*
X142594600Y-86749400D02*
X141790900Y-85945700D01*
X141790900Y-85945700D02*
X140870000Y-86866600D01*
X140870000Y-88900000D02*
X140870000Y-86866600D01*
X140870000Y-84700000D02*
X138336600Y-84700000D01*
X137160000Y-85090000D02*
X137946600Y-85090000D01*
X137946600Y-85090000D02*
X138336600Y-84700000D01*
X151130000Y-106410000D02*
X150360000Y-107180000D01*
X140870000Y-93100000D02*
X140870000Y-95133400D01*
X145450800Y-95133400D02*
X151765000Y-101447600D01*
X151765000Y-101447600D02*
X151765000Y-104283526D01*
X151130000Y-104918526D02*
X151130000Y-106410000D01*
X140870000Y-95133400D02*
X145450800Y-95133400D01*
X151765000Y-104283526D02*
X151130000Y-104918526D01*
G04 #@! TO.N,VAA*
X98610000Y-83420000D02*
X96876600Y-83420000D01*
X98610000Y-88900000D02*
X96876600Y-88900000D01*
X96876600Y-88900000D02*
X96876600Y-83420000D01*
X102050000Y-88167100D02*
X101317100Y-88900000D01*
X101317100Y-88900000D02*
X98610000Y-88900000D01*
X102050000Y-88167100D02*
X102390300Y-88167100D01*
X102390300Y-88167100D02*
X103783400Y-89560200D01*
X103783400Y-89560200D02*
X103783400Y-93010000D01*
X102050000Y-88167100D02*
X102050000Y-87530000D01*
X102050000Y-93010000D02*
X103783400Y-93010000D01*
X144780000Y-100944200D02*
X140437500Y-100944200D01*
X140437500Y-100944200D02*
X139772800Y-101608900D01*
X139772800Y-101608900D02*
X128639600Y-101608900D01*
X128639600Y-101608900D02*
X126822300Y-99791600D01*
X126822300Y-99791600D02*
X110306700Y-99791600D01*
X110306700Y-99791600D02*
X103783400Y-93268300D01*
X103783400Y-93268300D02*
X103783400Y-93010000D01*
X100102200Y-94380000D02*
X100680000Y-94380000D01*
X100680000Y-94380000D02*
X102050000Y-93010000D01*
X144780000Y-100944200D02*
X144780000Y-101600000D01*
X144780000Y-101600000D02*
X146820000Y-103640000D01*
X144780000Y-96520000D02*
X144780000Y-100944200D01*
X146820000Y-103640000D02*
X148590000Y-105410000D01*
X105601500Y-79399400D02*
X102630600Y-79399400D01*
X102630600Y-79399400D02*
X98610000Y-83420000D01*
X98610000Y-94380000D02*
X100102200Y-94380000D01*
X146370000Y-82666600D02*
X148590000Y-80446600D01*
X148590000Y-80446600D02*
X148590000Y-72390000D01*
X146370000Y-84700000D02*
X146370000Y-82666600D01*
X148590000Y-72390000D02*
X146820000Y-70620000D01*
G04 #@! TO.N,/backlight_3x2/high_voltage_outputs/OUTPUT_0*
X108393800Y-84196600D02*
X107978800Y-83781600D01*
X107978800Y-83781600D02*
X100639500Y-83781600D01*
X100639500Y-83781600D02*
X100341600Y-84079500D01*
X100341600Y-84079500D02*
X100341600Y-84428400D01*
X100341600Y-84428400D02*
X98610000Y-86160000D01*
G04 #@! TO.N,/backlight_3x2/high_voltage_outputs/OUTPUT_1*
X98610000Y-91640000D02*
X100343400Y-91640000D01*
X100920800Y-91338800D02*
X100644600Y-91338800D01*
X100644600Y-91338800D02*
X100343400Y-91640000D01*
G04 #@! TO.N,/backlight_3x2/high_voltage_outputs/OUTPUT_2*
X99463000Y-87222900D02*
X99997700Y-87222900D01*
X99997700Y-87222900D02*
X100318400Y-86902200D01*
X100318400Y-86902200D02*
X100318400Y-86521600D01*
X100318400Y-86521600D02*
X102050000Y-84790000D01*
G04 #@! TO.N,/backlight_3x2/high_voltage_outputs/OUTPUT_3*
X93345000Y-86163400D02*
X93345000Y-86671400D01*
X93345000Y-86671400D02*
X96943600Y-90270000D01*
X96943600Y-90270000D02*
X102050000Y-90270000D01*
D29*
G04 #@! TO.N,/backlight_3x2/low_voltage_outputs/OUTPUT_3*
X122054700Y-86776200D02*
X121300900Y-87530000D01*
X121300900Y-87530000D02*
X119830000Y-87530000D01*
G04 #@! TO.N,/backlight_3x2/low_voltage_outputs/OUTPUT_2*
X134054700Y-88305200D02*
X133214700Y-89145200D01*
X133214700Y-89145200D02*
X126137200Y-89145200D01*
X126137200Y-89145200D02*
X122272400Y-93010000D01*
X122272400Y-93010000D02*
X119830000Y-93010000D01*
G04 #@! TO.N,/backlight_3x2/low_voltage_outputs/OUTPUT_1*
X129254000Y-83720800D02*
X135602700Y-83720800D01*
X116390000Y-86160000D02*
X117844000Y-86160000D01*
X121287200Y-86659500D02*
X118343500Y-86659500D01*
X118343500Y-86659500D02*
X117844000Y-86160000D01*
G04 #@! TO.N,/backlight_3x2/low_voltage_outputs/OUTPUT_0*
X134119200Y-97021800D02*
X133894000Y-96796600D01*
X133894000Y-96796600D02*
X109928300Y-96796600D01*
X109928300Y-96796600D02*
X109027000Y-95895300D01*
X109027000Y-95895300D02*
X109027000Y-95331300D01*
X109027000Y-95331300D02*
X112718300Y-91640000D01*
X112718300Y-91640000D02*
X116390000Y-91640000D01*
D30*
G04 #@! TO.N,/backlight_3x2/C_8*
X132080000Y-77470000D02*
X133324600Y-77470000D01*
X135577900Y-77373700D02*
X133420900Y-77373700D01*
X133420900Y-77373700D02*
X133324600Y-77470000D01*
G04 #@! TO.N,/backlight_3x2/C_9*
X132080000Y-99339400D02*
X132538500Y-99339400D01*
X132538500Y-99339400D02*
X134653200Y-97224700D01*
X134653200Y-97224700D02*
X134653200Y-88166800D01*
X134653200Y-88166800D02*
X132828700Y-86342300D01*
X132828700Y-86342300D02*
X130301900Y-86342300D01*
X130301900Y-86342300D02*
X126545500Y-82585900D01*
X132080000Y-100330000D02*
X132080000Y-99339400D01*
G04 #@! TO.N,/backlight_3x2/C_0*
X132080000Y-97790000D02*
X130835400Y-97790000D01*
X130835400Y-97790000D02*
X130268400Y-98357000D01*
X130268400Y-98357000D02*
X114131600Y-98357000D01*
G04 #@! TO.N,/backlight_3x2/C_1*
X110177900Y-96135000D02*
X110283500Y-96240600D01*
X110283500Y-96240600D02*
X132080000Y-96240600D01*
X132080000Y-95250000D02*
X132080000Y-96240600D01*
G04 #@! TO.N,/backlight_3x2/C_2*
X109587500Y-95682900D02*
X109663100Y-95607300D01*
X109663100Y-95607300D02*
X124585400Y-95607300D01*
X124585400Y-95607300D02*
X124862900Y-95884800D01*
X124862900Y-95884800D02*
X128905200Y-95884800D01*
X128905200Y-95884800D02*
X131089400Y-93700600D01*
X131089400Y-93700600D02*
X132080000Y-93700600D01*
X132080000Y-92710000D02*
X132080000Y-93700600D01*
G04 #@! TO.N,/backlight_3x2/C_3*
X110045000Y-95086200D02*
X110248500Y-95289700D01*
X110248500Y-95289700D02*
X124699300Y-95289700D01*
X124699300Y-95289700D02*
X124989300Y-95579700D01*
X124989300Y-95579700D02*
X126670300Y-95579700D01*
X126670300Y-95579700D02*
X131089400Y-91160600D01*
X131089400Y-91160600D02*
X132080000Y-91160600D01*
X132080000Y-90170000D02*
X132080000Y-91160600D01*
G04 #@! TO.N,/CHANNEL_9*
X119970800Y-83609800D02*
X119509200Y-84071400D01*
X119509200Y-84071400D02*
X118195800Y-84071400D01*
X118195800Y-84071400D02*
X117407200Y-84860000D01*
X117407200Y-84860000D02*
X115613000Y-84860000D01*
X115613000Y-84860000D02*
X108696500Y-91776500D01*
X108696500Y-91776500D02*
X108696500Y-96580400D01*
X108696500Y-96580400D02*
X110663400Y-98547300D01*
G04 #@! TO.N,/CHANNEL_8*
X111125000Y-106680000D02*
X112280700Y-106680000D01*
X121945600Y-100875700D02*
X124373500Y-100875700D01*
X124373500Y-100875700D02*
X124857700Y-101359900D01*
X124857700Y-101359900D02*
X124857700Y-104900800D01*
X124857700Y-104900800D02*
X124754900Y-105003600D01*
X124754900Y-105003600D02*
X118442000Y-105003600D01*
X118442000Y-105003600D02*
X117475000Y-105970600D01*
X117475000Y-105970600D02*
X117475000Y-107377700D01*
X117475000Y-107377700D02*
X116699100Y-108153600D01*
X116699100Y-108153600D02*
X113137900Y-108153600D01*
X113137900Y-108153600D02*
X112280700Y-107296400D01*
X112280700Y-107296400D02*
X112280700Y-106680000D01*
G04 #@! TO.N,/CHANNEL_3*
X121219800Y-91744800D02*
X121462500Y-91744800D01*
X121462500Y-91744800D02*
X125956000Y-87251300D01*
X125956000Y-87251300D02*
X125956000Y-82432800D01*
X125956000Y-82432800D02*
X129344400Y-79044400D01*
X129344400Y-79044400D02*
X137215200Y-79044400D01*
X137215200Y-79044400D02*
X138409300Y-77850300D01*
X138409300Y-77850300D02*
X138409300Y-76552900D01*
X138409300Y-76552900D02*
X135656200Y-73799800D01*
X135656200Y-73799800D02*
X126929900Y-73799800D01*
X126929900Y-73799800D02*
X125926600Y-72796500D01*
X125926600Y-72796500D02*
X110800800Y-72796500D01*
X110800800Y-72796500D02*
X109740700Y-71736400D01*
X109740700Y-71736400D02*
X109740700Y-71120000D01*
X108585000Y-71120000D02*
X109740700Y-71120000D01*
G04 #@! TO.N,/CHANNEL_2*
X120460300Y-91657500D02*
X120931500Y-91186300D01*
X120931500Y-91186300D02*
X121562600Y-91186300D01*
X121562600Y-91186300D02*
X123741500Y-89007400D01*
X123741500Y-89007400D02*
X123741500Y-84454600D01*
G04 #@! TO.N,/CHANNEL_1*
X109047300Y-82403500D02*
X109047300Y-90585400D01*
X109047300Y-90585400D02*
X108377500Y-91255200D01*
X108377500Y-91255200D02*
X108377500Y-96998200D01*
X108377500Y-96998200D02*
X110447600Y-99068300D01*
X110447600Y-99068300D02*
X115698400Y-99068300D01*
X115698400Y-99068300D02*
X115822600Y-98944100D01*
X109216300Y-73730800D02*
X107454300Y-71968800D01*
X107454300Y-71968800D02*
X107454300Y-70571400D01*
X107454300Y-70571400D02*
X106529300Y-69646400D01*
X106529300Y-69646400D02*
X105517900Y-69646400D01*
X105517900Y-69646400D02*
X104660700Y-70503600D01*
X104660700Y-70503600D02*
X104660700Y-71120000D01*
X103505000Y-71120000D02*
X104660700Y-71120000D01*
G04 #@! TO.N,/CHANNEL_0*
X99809300Y-71120000D02*
X99809300Y-70503700D01*
X99809300Y-70503700D02*
X98952000Y-69646400D01*
X98952000Y-69646400D02*
X90300900Y-69646400D01*
X90300900Y-69646400D02*
X89427000Y-70520300D01*
X89427000Y-70520300D02*
X89427000Y-72442900D01*
X89427000Y-72442900D02*
X87528900Y-74341000D01*
X87528900Y-74341000D02*
X87528900Y-96754000D01*
X87528900Y-96754000D02*
X92735000Y-101960100D01*
X92735000Y-101960100D02*
X92735000Y-104101700D01*
X92735000Y-104101700D02*
X93741900Y-105108600D01*
X93741900Y-105108600D02*
X114811600Y-105108600D01*
X114811600Y-105108600D02*
X114935000Y-105232000D01*
X100965000Y-71120000D02*
X99809300Y-71120000D01*
G04 #@! TO.N,/backlight_3x2/backlight_outputs/ir/NPN*
X149510900Y-73263100D02*
X150360000Y-72414000D01*
X150360000Y-72414000D02*
X150360000Y-70620000D01*
G04 #@! TO.N,/backlight_3x2/backlight_outputs/visible/NPN*
X148742100Y-104209500D02*
X149790500Y-104209500D01*
X149790500Y-104209500D02*
X150360000Y-103640000D01*
G04 #@! TD*
D29*
G04 #@! TO.N,VAA*
G36*
X141453331Y-68465000D02*
X141453331Y-76315000D01*
X141478958Y-76443838D01*
X141551939Y-76553061D01*
X141661162Y-76626042D01*
X141790000Y-76651669D01*
X144040000Y-76651669D01*
X144168838Y-76626042D01*
X144278061Y-76553061D01*
X144351042Y-76443838D01*
X144376669Y-76315000D01*
X144376669Y-73945135D01*
X145739800Y-73945135D01*
X145739800Y-74374865D01*
X145904251Y-74771884D01*
X146208116Y-75075749D01*
X146605135Y-75240200D01*
X147034865Y-75240200D01*
X147431884Y-75075749D01*
X147735749Y-74771884D01*
X147900200Y-74374865D01*
X147900200Y-73945135D01*
X147735749Y-73548116D01*
X147431884Y-73244251D01*
X147034865Y-73079800D01*
X146605135Y-73079800D01*
X146208116Y-73244251D01*
X145904251Y-73548116D01*
X145739800Y-73945135D01*
X144376669Y-73945135D01*
X144376669Y-73761712D01*
X144870008Y-73557364D01*
X145257364Y-73170008D01*
X145467000Y-72663902D01*
X145467000Y-72116098D01*
X145257364Y-71609992D01*
X145238889Y-71591517D01*
X146028088Y-71591517D01*
X146096077Y-71832460D01*
X146615171Y-72017201D01*
X147165448Y-71989230D01*
X147279319Y-71942063D01*
X147192799Y-72185171D01*
X147220770Y-72735448D01*
X147377540Y-73113923D01*
X147618483Y-73181912D01*
X148410395Y-72390000D01*
X147618483Y-71598088D01*
X147609329Y-71600671D01*
X147611912Y-71591517D01*
X146820000Y-70799605D01*
X146028088Y-71591517D01*
X145238889Y-71591517D01*
X144870008Y-71222636D01*
X144376669Y-71018288D01*
X144376669Y-70415171D01*
X145422799Y-70415171D01*
X145450770Y-70965448D01*
X145607540Y-71343923D01*
X145848483Y-71411912D01*
X146640395Y-70620000D01*
X146999605Y-70620000D01*
X147791517Y-71411912D01*
X147800671Y-71409329D01*
X147798088Y-71418483D01*
X148590000Y-72210395D01*
X149381912Y-71418483D01*
X149313923Y-71177540D01*
X148794829Y-70992799D01*
X148244552Y-71020770D01*
X148130681Y-71067937D01*
X148217201Y-70824829D01*
X148189230Y-70274552D01*
X148032460Y-69896077D01*
X147791517Y-69828088D01*
X146999605Y-70620000D01*
X146640395Y-70620000D01*
X145848483Y-69828088D01*
X145607540Y-69896077D01*
X145422799Y-70415171D01*
X144376669Y-70415171D01*
X144376669Y-69648483D01*
X146028088Y-69648483D01*
X146820000Y-70440395D01*
X147611912Y-69648483D01*
X147543923Y-69407540D01*
X147024829Y-69222799D01*
X146474552Y-69250770D01*
X146096077Y-69407540D01*
X146028088Y-69648483D01*
X144376669Y-69648483D01*
X144376669Y-68465000D01*
X144361651Y-68389500D01*
X152818349Y-68389500D01*
X152803331Y-68465000D01*
X152803331Y-71018288D01*
X152309992Y-71222636D01*
X151922636Y-71609992D01*
X151713000Y-72116098D01*
X151713000Y-72663902D01*
X151922636Y-73170008D01*
X152309992Y-73557364D01*
X152803331Y-73761712D01*
X152803331Y-76315000D01*
X152828958Y-76443838D01*
X152901939Y-76553061D01*
X153011162Y-76626042D01*
X153140000Y-76651669D01*
X155390000Y-76651669D01*
X155518838Y-76626042D01*
X155628061Y-76553061D01*
X155701042Y-76443838D01*
X155726669Y-76315000D01*
X155726669Y-68465000D01*
X155711651Y-68389500D01*
X155765501Y-68389500D01*
X155765501Y-83669880D01*
X155645448Y-83380048D01*
X154989952Y-82724552D01*
X154133506Y-82369800D01*
X153206494Y-82369800D01*
X152350048Y-82724552D01*
X151694552Y-83380048D01*
X151339800Y-84236494D01*
X151339800Y-85163506D01*
X151694552Y-86019952D01*
X152350048Y-86675448D01*
X153206494Y-87030200D01*
X154133506Y-87030200D01*
X154989952Y-86675448D01*
X155645448Y-86019952D01*
X155765501Y-85730120D01*
X155765500Y-92069880D01*
X155645448Y-91780048D01*
X154989952Y-91124552D01*
X154133506Y-90769800D01*
X153206494Y-90769800D01*
X152350048Y-91124552D01*
X151694552Y-91780048D01*
X151339800Y-92636494D01*
X151339800Y-93563506D01*
X151694552Y-94419952D01*
X152350048Y-95075448D01*
X153206494Y-95430200D01*
X154133506Y-95430200D01*
X154989952Y-95075448D01*
X155645448Y-94419952D01*
X155765500Y-94130120D01*
X155765500Y-109410500D01*
X155711651Y-109410500D01*
X155726669Y-109335000D01*
X155726669Y-101485000D01*
X155701042Y-101356162D01*
X155628061Y-101246939D01*
X155518838Y-101173958D01*
X155390000Y-101148331D01*
X153140000Y-101148331D01*
X153011162Y-101173958D01*
X152901939Y-101246939D01*
X152828958Y-101356162D01*
X152803331Y-101485000D01*
X152803331Y-104038288D01*
X152501600Y-104163269D01*
X152501600Y-101520140D01*
X152516029Y-101447599D01*
X152501600Y-101375057D01*
X152501600Y-101375056D01*
X152458861Y-101160193D01*
X152384290Y-101048590D01*
X152337151Y-100978041D01*
X152337149Y-100978039D01*
X152296058Y-100916542D01*
X152234561Y-100875451D01*
X146594109Y-95235000D01*
X146997000Y-95235000D01*
X147804362Y-95023882D01*
X148469476Y-94519870D01*
X148891084Y-93799696D01*
X148955113Y-93558833D01*
X148842165Y-93227000D01*
X146497000Y-93227000D01*
X146497000Y-93247000D01*
X146243000Y-93247000D01*
X146243000Y-93227000D01*
X143897835Y-93227000D01*
X143784887Y-93558833D01*
X143848916Y-93799696D01*
X144198476Y-94396800D01*
X142704668Y-94396800D01*
X143094010Y-93814108D01*
X143236055Y-93100000D01*
X143094010Y-92385892D01*
X142689500Y-91780500D01*
X142084108Y-91375990D01*
X141550255Y-91269800D01*
X140189745Y-91269800D01*
X139655892Y-91375990D01*
X139050500Y-91780500D01*
X138645990Y-92385892D01*
X138503945Y-93100000D01*
X138645990Y-93814108D01*
X139050500Y-94419500D01*
X139655892Y-94824010D01*
X140133401Y-94918992D01*
X140133401Y-95060851D01*
X140118970Y-95133400D01*
X140176139Y-95420807D01*
X140199089Y-95455155D01*
X140061569Y-95427800D01*
X139338431Y-95427800D01*
X139019845Y-95491171D01*
X138658568Y-95732568D01*
X138417171Y-96093845D01*
X138332403Y-96520000D01*
X138417171Y-96946155D01*
X138658568Y-97307432D01*
X139019845Y-97548829D01*
X139338431Y-97612200D01*
X140061569Y-97612200D01*
X140380155Y-97548829D01*
X140741432Y-97307432D01*
X140982829Y-96946155D01*
X140999355Y-96863070D01*
X143171780Y-96863070D01*
X143186740Y-96937277D01*
X143448370Y-97418026D01*
X143874059Y-97762059D01*
X144399000Y-97917000D01*
X144653000Y-97917000D01*
X144653000Y-96647000D01*
X143294280Y-96647000D01*
X143171780Y-96863070D01*
X140999355Y-96863070D01*
X141067597Y-96520000D01*
X140982829Y-96093845D01*
X140838749Y-95878214D01*
X140870000Y-95884430D01*
X140942544Y-95870000D01*
X143313391Y-95870000D01*
X143186740Y-96102723D01*
X143171780Y-96176930D01*
X143294280Y-96393000D01*
X144653000Y-96393000D01*
X144653000Y-96373000D01*
X144907000Y-96373000D01*
X144907000Y-96393000D01*
X144927000Y-96393000D01*
X144927000Y-96647000D01*
X144907000Y-96647000D01*
X144907000Y-97917000D01*
X145161000Y-97917000D01*
X145685941Y-97762059D01*
X146111630Y-97418026D01*
X146316770Y-97041079D01*
X151028400Y-101752710D01*
X151028400Y-102780767D01*
X150971884Y-102724251D01*
X150574865Y-102559800D01*
X150145135Y-102559800D01*
X149748116Y-102724251D01*
X149444251Y-103028116D01*
X149279800Y-103425135D01*
X149279800Y-103777700D01*
X149226285Y-103777700D01*
X149108992Y-103660407D01*
X148870936Y-103561800D01*
X148613264Y-103561800D01*
X148375208Y-103660407D01*
X148215923Y-103819692D01*
X148189230Y-103294552D01*
X148032460Y-102916077D01*
X147791517Y-102848088D01*
X146999605Y-103640000D01*
X147791517Y-104431912D01*
X147800671Y-104429329D01*
X147798088Y-104438483D01*
X148590000Y-105230395D01*
X148604143Y-105216253D01*
X148783748Y-105395858D01*
X148769605Y-105410000D01*
X149561517Y-106201912D01*
X149802460Y-106133923D01*
X149987201Y-105614829D01*
X149959230Y-105064552D01*
X149802460Y-104686077D01*
X149643777Y-104641300D01*
X149747978Y-104641300D01*
X149790500Y-104649758D01*
X149833022Y-104641300D01*
X149833026Y-104641300D01*
X149915195Y-104624955D01*
X150145135Y-104720200D01*
X150418420Y-104720200D01*
X150393400Y-104845983D01*
X150393400Y-104845986D01*
X150378971Y-104918526D01*
X150393400Y-104991067D01*
X150393401Y-106099800D01*
X150145135Y-106099800D01*
X149748116Y-106264251D01*
X149444251Y-106568116D01*
X149279800Y-106965135D01*
X149279800Y-107394865D01*
X149444251Y-107791884D01*
X149748116Y-108095749D01*
X150145135Y-108260200D01*
X150574865Y-108260200D01*
X150971884Y-108095749D01*
X151275749Y-107791884D01*
X151440200Y-107394865D01*
X151440200Y-107141509D01*
X151599558Y-106982151D01*
X151661058Y-106941058D01*
X151823861Y-106697407D01*
X151866600Y-106482544D01*
X151866600Y-106482540D01*
X151881029Y-106410001D01*
X151866600Y-106337462D01*
X151866600Y-106054725D01*
X151922636Y-106190008D01*
X152309992Y-106577364D01*
X152803331Y-106781712D01*
X152803331Y-109335000D01*
X152818349Y-109410500D01*
X144361651Y-109410500D01*
X144376669Y-109335000D01*
X144376669Y-106965135D01*
X145739800Y-106965135D01*
X145739800Y-107394865D01*
X145904251Y-107791884D01*
X146208116Y-108095749D01*
X146605135Y-108260200D01*
X147034865Y-108260200D01*
X147431884Y-108095749D01*
X147735749Y-107791884D01*
X147900200Y-107394865D01*
X147900200Y-106965135D01*
X147735749Y-106568116D01*
X147549150Y-106381517D01*
X147798088Y-106381517D01*
X147866077Y-106622460D01*
X148385171Y-106807201D01*
X148935448Y-106779230D01*
X149313923Y-106622460D01*
X149381912Y-106381517D01*
X148590000Y-105589605D01*
X147798088Y-106381517D01*
X147549150Y-106381517D01*
X147431884Y-106264251D01*
X147034865Y-106099800D01*
X146605135Y-106099800D01*
X146208116Y-106264251D01*
X145904251Y-106568116D01*
X145739800Y-106965135D01*
X144376669Y-106965135D01*
X144376669Y-106781712D01*
X144870008Y-106577364D01*
X145257364Y-106190008D01*
X145467000Y-105683902D01*
X145467000Y-105136098D01*
X145257364Y-104629992D01*
X145238889Y-104611517D01*
X146028088Y-104611517D01*
X146096077Y-104852460D01*
X146615171Y-105037201D01*
X147165448Y-105009230D01*
X147279319Y-104962063D01*
X147192799Y-105205171D01*
X147220770Y-105755448D01*
X147377540Y-106133923D01*
X147618483Y-106201912D01*
X148410395Y-105410000D01*
X147618483Y-104618088D01*
X147609329Y-104620671D01*
X147611912Y-104611517D01*
X146820000Y-103819605D01*
X146028088Y-104611517D01*
X145238889Y-104611517D01*
X144870008Y-104242636D01*
X144376669Y-104038288D01*
X144376669Y-103435171D01*
X145422799Y-103435171D01*
X145450770Y-103985448D01*
X145607540Y-104363923D01*
X145848483Y-104431912D01*
X146640395Y-103640000D01*
X145848483Y-102848088D01*
X145607540Y-102916077D01*
X145422799Y-103435171D01*
X144376669Y-103435171D01*
X144376669Y-102668483D01*
X146028088Y-102668483D01*
X146820000Y-103460395D01*
X147611912Y-102668483D01*
X147543923Y-102427540D01*
X147024829Y-102242799D01*
X146474552Y-102270770D01*
X146096077Y-102427540D01*
X146028088Y-102668483D01*
X144376669Y-102668483D01*
X144376669Y-101485000D01*
X144351042Y-101356162D01*
X144278061Y-101246939D01*
X144168838Y-101173958D01*
X144040000Y-101148331D01*
X141790000Y-101148331D01*
X141661162Y-101173958D01*
X141551939Y-101246939D01*
X141478958Y-101356162D01*
X141453331Y-101485000D01*
X141453331Y-109335000D01*
X141468349Y-109410500D01*
X86169500Y-109410500D01*
X86169500Y-106213272D01*
X87007700Y-106213272D01*
X87007700Y-107146729D01*
X87080650Y-107513474D01*
X87358539Y-107929362D01*
X87774427Y-108207250D01*
X88265000Y-108304831D01*
X88755574Y-108207250D01*
X89171462Y-107929362D01*
X89449350Y-107513474D01*
X89522300Y-107146728D01*
X89522300Y-106213272D01*
X89547700Y-106213272D01*
X89547700Y-107146729D01*
X89620650Y-107513474D01*
X89898539Y-107929362D01*
X90314427Y-108207250D01*
X90805000Y-108304831D01*
X91295574Y-108207250D01*
X91711462Y-107929362D01*
X91989350Y-107513474D01*
X92062300Y-107146728D01*
X92062300Y-106213271D01*
X91989350Y-105846526D01*
X91711462Y-105430638D01*
X91295573Y-105152750D01*
X90805000Y-105055169D01*
X90314426Y-105152750D01*
X89898538Y-105430638D01*
X89620650Y-105846527D01*
X89547700Y-106213272D01*
X89522300Y-106213272D01*
X89522300Y-106213271D01*
X89449350Y-105846526D01*
X89171462Y-105430638D01*
X88755573Y-105152750D01*
X88265000Y-105055169D01*
X87774426Y-105152750D01*
X87358538Y-105430638D01*
X87080650Y-105846527D01*
X87007700Y-106213272D01*
X86169500Y-106213272D01*
X86169500Y-69850000D01*
X87001231Y-69850000D01*
X87001231Y-72390000D01*
X87026858Y-72518838D01*
X87099839Y-72628061D01*
X87209062Y-72701042D01*
X87337900Y-72726669D01*
X88532573Y-72726669D01*
X87253642Y-74005600D01*
X87217590Y-74029690D01*
X87122154Y-74172521D01*
X87097100Y-74298475D01*
X87097100Y-74298478D01*
X87088642Y-74341000D01*
X87097100Y-74383522D01*
X87097101Y-96711473D01*
X87088642Y-96754000D01*
X87122154Y-96922479D01*
X87193501Y-97029258D01*
X87193503Y-97029260D01*
X87217591Y-97065310D01*
X87253641Y-97089398D01*
X89656043Y-99491800D01*
X89115653Y-99491800D01*
X88340801Y-99812754D01*
X87747754Y-100405801D01*
X87426800Y-101180653D01*
X87426800Y-102019347D01*
X87747754Y-102794199D01*
X88340801Y-103387246D01*
X89115653Y-103708200D01*
X89954347Y-103708200D01*
X90729199Y-103387246D01*
X91322246Y-102794199D01*
X91643200Y-102019347D01*
X91643200Y-101478957D01*
X92303200Y-102138957D01*
X92303201Y-104059173D01*
X92294742Y-104101700D01*
X92328254Y-104270179D01*
X92399601Y-104376958D01*
X92399603Y-104376960D01*
X92423691Y-104413010D01*
X92459740Y-104437097D01*
X93122141Y-105099498D01*
X92854426Y-105152750D01*
X92438538Y-105430638D01*
X92160650Y-105846527D01*
X92087700Y-106213272D01*
X92087700Y-107146729D01*
X92160650Y-107513474D01*
X92438539Y-107929362D01*
X92854427Y-108207250D01*
X93345000Y-108304831D01*
X93835574Y-108207250D01*
X94251462Y-107929362D01*
X94529350Y-107513474D01*
X94602300Y-107146728D01*
X94602300Y-106213271D01*
X94529350Y-105846526D01*
X94324803Y-105540400D01*
X94905197Y-105540400D01*
X94700650Y-105846527D01*
X94627700Y-106213272D01*
X94627700Y-107146729D01*
X94700650Y-107513474D01*
X94978539Y-107929362D01*
X95394427Y-108207250D01*
X95885000Y-108304831D01*
X96375574Y-108207250D01*
X96791462Y-107929362D01*
X97069350Y-107513474D01*
X97142300Y-107146728D01*
X97142300Y-106213271D01*
X97069350Y-105846526D01*
X96864803Y-105540400D01*
X97445197Y-105540400D01*
X97240650Y-105846527D01*
X97167700Y-106213272D01*
X97167700Y-107146729D01*
X97240650Y-107513474D01*
X97518539Y-107929362D01*
X97934427Y-108207250D01*
X98425000Y-108304831D01*
X98915574Y-108207250D01*
X99331462Y-107929362D01*
X99609350Y-107513474D01*
X99682300Y-107146728D01*
X99682300Y-106213271D01*
X99609350Y-105846526D01*
X99404803Y-105540400D01*
X99985197Y-105540400D01*
X99780650Y-105846527D01*
X99707700Y-106213272D01*
X99707700Y-107146729D01*
X99780650Y-107513474D01*
X100058539Y-107929362D01*
X100474427Y-108207250D01*
X100965000Y-108304831D01*
X101455574Y-108207250D01*
X101871462Y-107929362D01*
X102149350Y-107513474D01*
X102222300Y-107146728D01*
X102222300Y-106213271D01*
X102149350Y-105846526D01*
X101944803Y-105540400D01*
X102525197Y-105540400D01*
X102320650Y-105846527D01*
X102247700Y-106213272D01*
X102247700Y-107146729D01*
X102320650Y-107513474D01*
X102598539Y-107929362D01*
X103014427Y-108207250D01*
X103505000Y-108304831D01*
X103995574Y-108207250D01*
X104411462Y-107929362D01*
X104689350Y-107513474D01*
X104762300Y-107146728D01*
X104762300Y-106213271D01*
X104689350Y-105846526D01*
X104484803Y-105540400D01*
X105065197Y-105540400D01*
X104860650Y-105846527D01*
X104787700Y-106213272D01*
X104787700Y-107146729D01*
X104860650Y-107513474D01*
X105138539Y-107929362D01*
X105554427Y-108207250D01*
X106045000Y-108304831D01*
X106535574Y-108207250D01*
X106951462Y-107929362D01*
X107229350Y-107513474D01*
X107302300Y-107146728D01*
X107302300Y-106213271D01*
X107229350Y-105846526D01*
X107024803Y-105540400D01*
X107605197Y-105540400D01*
X107400650Y-105846527D01*
X107327700Y-106213272D01*
X107327700Y-107146729D01*
X107400650Y-107513474D01*
X107678539Y-107929362D01*
X108094427Y-108207250D01*
X108585000Y-108304831D01*
X109075574Y-108207250D01*
X109491462Y-107929362D01*
X109769350Y-107513474D01*
X109842300Y-107146728D01*
X109842300Y-106213271D01*
X109769350Y-105846526D01*
X109564803Y-105540400D01*
X110145197Y-105540400D01*
X109940650Y-105846527D01*
X109867700Y-106213272D01*
X109867700Y-107146729D01*
X109940650Y-107513474D01*
X110218539Y-107929362D01*
X110634427Y-108207250D01*
X111125000Y-108304831D01*
X111615574Y-108207250D01*
X112031462Y-107929362D01*
X112140227Y-107766584D01*
X112802502Y-108428860D01*
X112826590Y-108464910D01*
X112862640Y-108488998D01*
X112862641Y-108488999D01*
X112969420Y-108560346D01*
X113095374Y-108585400D01*
X113095378Y-108585400D01*
X113137900Y-108593858D01*
X113180422Y-108585400D01*
X116656578Y-108585400D01*
X116699100Y-108593858D01*
X116741622Y-108585400D01*
X116741626Y-108585400D01*
X116867580Y-108560346D01*
X117010410Y-108464910D01*
X117034500Y-108428857D01*
X117716555Y-107746802D01*
X117838539Y-107929362D01*
X118254427Y-108207250D01*
X118745000Y-108304831D01*
X119235574Y-108207250D01*
X119651462Y-107929362D01*
X119929350Y-107513474D01*
X120002300Y-107146728D01*
X120002300Y-106213271D01*
X119929350Y-105846526D01*
X119654644Y-105435400D01*
X120375356Y-105435400D01*
X120100650Y-105846527D01*
X120027700Y-106213272D01*
X120027700Y-107146729D01*
X120100650Y-107513474D01*
X120378539Y-107929362D01*
X120794427Y-108207250D01*
X121285000Y-108304831D01*
X121775574Y-108207250D01*
X122191462Y-107929362D01*
X122469350Y-107513474D01*
X122542300Y-107146728D01*
X122542300Y-106213271D01*
X122469350Y-105846526D01*
X122194644Y-105435400D01*
X122915356Y-105435400D01*
X122640650Y-105846527D01*
X122567700Y-106213272D01*
X122567700Y-107146729D01*
X122640650Y-107513474D01*
X122918539Y-107929362D01*
X123334427Y-108207250D01*
X123825000Y-108304831D01*
X124315574Y-108207250D01*
X124731462Y-107929362D01*
X125009350Y-107513474D01*
X125082300Y-107146728D01*
X125082300Y-106213272D01*
X125107700Y-106213272D01*
X125107700Y-107146729D01*
X125180650Y-107513474D01*
X125458539Y-107929362D01*
X125874427Y-108207250D01*
X126365000Y-108304831D01*
X126855574Y-108207250D01*
X127271462Y-107929362D01*
X127549350Y-107513474D01*
X127622300Y-107146728D01*
X127622300Y-106260653D01*
X128066800Y-106260653D01*
X128066800Y-107099347D01*
X128387754Y-107874199D01*
X128980801Y-108467246D01*
X129755653Y-108788200D01*
X130594347Y-108788200D01*
X131369199Y-108467246D01*
X131962246Y-107874199D01*
X132283200Y-107099347D01*
X132283200Y-106260653D01*
X131962246Y-105485801D01*
X131369199Y-104892754D01*
X130594347Y-104571800D01*
X129755653Y-104571800D01*
X128980801Y-104892754D01*
X128387754Y-105485801D01*
X128066800Y-106260653D01*
X127622300Y-106260653D01*
X127622300Y-106213271D01*
X127549350Y-105846526D01*
X127271462Y-105430638D01*
X126855573Y-105152750D01*
X126365000Y-105055169D01*
X125874426Y-105152750D01*
X125458538Y-105430638D01*
X125180650Y-105846527D01*
X125107700Y-106213272D01*
X125082300Y-106213272D01*
X125082300Y-106213271D01*
X125009350Y-105846526D01*
X124738057Y-105440508D01*
X124754900Y-105443858D01*
X124797422Y-105435400D01*
X124797426Y-105435400D01*
X124923380Y-105410346D01*
X125066210Y-105314910D01*
X125090300Y-105278857D01*
X125132957Y-105236200D01*
X125169010Y-105212110D01*
X125264446Y-105069280D01*
X125289500Y-104943326D01*
X125289500Y-104943323D01*
X125297958Y-104900801D01*
X125289500Y-104858279D01*
X125289500Y-101402421D01*
X125297958Y-101359899D01*
X125289500Y-101317375D01*
X125289500Y-101317374D01*
X125264446Y-101191420D01*
X125169010Y-101048590D01*
X125132958Y-101024501D01*
X124708900Y-100600443D01*
X124684810Y-100564390D01*
X124541980Y-100468954D01*
X124416026Y-100443900D01*
X124416022Y-100443900D01*
X124373500Y-100435442D01*
X124330978Y-100443900D01*
X122429785Y-100443900D01*
X122312492Y-100326607D01*
X122074436Y-100228000D01*
X121816764Y-100228000D01*
X121578708Y-100326607D01*
X121396507Y-100508808D01*
X121297900Y-100746864D01*
X121297900Y-101004536D01*
X121322254Y-101063331D01*
X116418584Y-101063331D01*
X116222465Y-100589857D01*
X115820143Y-100187535D01*
X115294484Y-99969800D01*
X114725516Y-99969800D01*
X114199857Y-100187535D01*
X113797535Y-100589857D01*
X113601416Y-101063331D01*
X111610000Y-101063331D01*
X111481162Y-101088958D01*
X111371939Y-101161939D01*
X111298958Y-101271162D01*
X111273331Y-101400000D01*
X111273331Y-104676800D01*
X107166669Y-104676800D01*
X107166669Y-101400000D01*
X107141042Y-101271162D01*
X107068061Y-101161939D01*
X106958838Y-101088958D01*
X106830000Y-101063331D01*
X98638584Y-101063331D01*
X98442465Y-100589857D01*
X98040143Y-100187535D01*
X97514484Y-99969800D01*
X96945516Y-99969800D01*
X96419857Y-100187535D01*
X96017535Y-100589857D01*
X95821416Y-101063331D01*
X93830000Y-101063331D01*
X93701162Y-101088958D01*
X93591939Y-101161939D01*
X93518958Y-101271162D01*
X93493331Y-101400000D01*
X93493331Y-104249374D01*
X93166800Y-103922843D01*
X93166800Y-102002621D01*
X93175258Y-101960099D01*
X93166800Y-101917575D01*
X93166800Y-101917574D01*
X93141746Y-101791620D01*
X93046310Y-101648790D01*
X93010258Y-101624701D01*
X87960700Y-96575143D01*
X87960700Y-94665750D01*
X96775000Y-94665750D01*
X96775000Y-95006309D01*
X96871673Y-95239698D01*
X97050301Y-95418327D01*
X97283690Y-95515000D01*
X98324250Y-95515000D01*
X98483000Y-95356250D01*
X98483000Y-94507000D01*
X98737000Y-94507000D01*
X98737000Y-95356250D01*
X98895750Y-95515000D01*
X99936310Y-95515000D01*
X100169699Y-95418327D01*
X100348327Y-95239698D01*
X100445000Y-95006309D01*
X100445000Y-94665750D01*
X100286250Y-94507000D01*
X98737000Y-94507000D01*
X98483000Y-94507000D01*
X96933750Y-94507000D01*
X96775000Y-94665750D01*
X87960700Y-94665750D01*
X87960700Y-93753691D01*
X96775000Y-93753691D01*
X96775000Y-94094250D01*
X96933750Y-94253000D01*
X98483000Y-94253000D01*
X98483000Y-93403750D01*
X98737000Y-93403750D01*
X98737000Y-94253000D01*
X100286250Y-94253000D01*
X100445000Y-94094250D01*
X100445000Y-94003026D01*
X100490301Y-94048327D01*
X100723690Y-94145000D01*
X101764250Y-94145000D01*
X101923000Y-93986250D01*
X101923000Y-93137000D01*
X102177000Y-93137000D01*
X102177000Y-93986250D01*
X102335750Y-94145000D01*
X103376310Y-94145000D01*
X103609699Y-94048327D01*
X103788327Y-93869698D01*
X103885000Y-93636309D01*
X103885000Y-93295750D01*
X103726250Y-93137000D01*
X102177000Y-93137000D01*
X101923000Y-93137000D01*
X100373750Y-93137000D01*
X100215000Y-93295750D01*
X100215000Y-93386974D01*
X100169699Y-93341673D01*
X99936310Y-93245000D01*
X98895750Y-93245000D01*
X98737000Y-93403750D01*
X98483000Y-93403750D01*
X98324250Y-93245000D01*
X97283690Y-93245000D01*
X97050301Y-93341673D01*
X96871673Y-93520302D01*
X96775000Y-93753691D01*
X87960700Y-93753691D01*
X87960700Y-86009303D01*
X92570300Y-86009303D01*
X92570300Y-86317497D01*
X92608400Y-86409479D01*
X92608400Y-86598860D01*
X92593971Y-86671400D01*
X92608400Y-86743940D01*
X92608400Y-86743944D01*
X92651139Y-86958807D01*
X92713849Y-87052658D01*
X92772849Y-87140958D01*
X92772851Y-87140960D01*
X92813943Y-87202458D01*
X92875440Y-87243549D01*
X96371451Y-90739561D01*
X96412542Y-90801058D01*
X96474039Y-90842149D01*
X96474041Y-90842151D01*
X96565707Y-90903400D01*
X96656193Y-90963861D01*
X96871056Y-91006600D01*
X96871059Y-91006600D01*
X96943600Y-91021029D01*
X97016140Y-91006600D01*
X97102006Y-91006600D01*
X97098958Y-91011162D01*
X97073331Y-91140000D01*
X97073331Y-92140000D01*
X97098958Y-92268838D01*
X97171939Y-92378061D01*
X97281162Y-92451042D01*
X97410000Y-92476669D01*
X99810000Y-92476669D01*
X99938838Y-92451042D01*
X100048061Y-92378061D01*
X100049037Y-92376600D01*
X100217937Y-92376600D01*
X100215000Y-92383691D01*
X100215000Y-92724250D01*
X100373750Y-92883000D01*
X101923000Y-92883000D01*
X101923000Y-92033750D01*
X102177000Y-92033750D01*
X102177000Y-92883000D01*
X103726250Y-92883000D01*
X103885000Y-92724250D01*
X103885000Y-92383691D01*
X103788327Y-92150302D01*
X103609699Y-91971673D01*
X103376310Y-91875000D01*
X102335750Y-91875000D01*
X102177000Y-92033750D01*
X101923000Y-92033750D01*
X101764250Y-91875000D01*
X101480191Y-91875000D01*
X101577559Y-91777632D01*
X101695500Y-91492897D01*
X101695500Y-91184703D01*
X101663177Y-91106669D01*
X103250000Y-91106669D01*
X103378838Y-91081042D01*
X103488061Y-91008061D01*
X103561042Y-90898838D01*
X103586669Y-90770000D01*
X103586669Y-89770000D01*
X103561042Y-89641162D01*
X103488061Y-89531939D01*
X103378838Y-89458958D01*
X103250000Y-89433331D01*
X100850000Y-89433331D01*
X100721162Y-89458958D01*
X100611939Y-89531939D01*
X100610963Y-89533400D01*
X100442063Y-89533400D01*
X100445000Y-89526309D01*
X100445000Y-89185750D01*
X100286250Y-89027000D01*
X98737000Y-89027000D01*
X98737000Y-89047000D01*
X98483000Y-89047000D01*
X98483000Y-89027000D01*
X96933750Y-89027000D01*
X96838030Y-89122720D01*
X95989001Y-88273691D01*
X96775000Y-88273691D01*
X96775000Y-88614250D01*
X96933750Y-88773000D01*
X98483000Y-88773000D01*
X98483000Y-87923750D01*
X98324250Y-87765000D01*
X97283690Y-87765000D01*
X97050301Y-87861673D01*
X96871673Y-88040302D01*
X96775000Y-88273691D01*
X95989001Y-88273691D01*
X94094249Y-86378940D01*
X94119700Y-86317497D01*
X94119700Y-86009303D01*
X94001759Y-85724568D01*
X93783832Y-85506641D01*
X93499097Y-85388700D01*
X93190903Y-85388700D01*
X92906168Y-85506641D01*
X92688241Y-85724568D01*
X92570300Y-86009303D01*
X87960700Y-86009303D01*
X87960700Y-83705750D01*
X96775000Y-83705750D01*
X96775000Y-84046309D01*
X96871673Y-84279698D01*
X97050301Y-84458327D01*
X97283690Y-84555000D01*
X98324250Y-84555000D01*
X98483000Y-84396250D01*
X98483000Y-83547000D01*
X96933750Y-83547000D01*
X96775000Y-83705750D01*
X87960700Y-83705750D01*
X87960700Y-82793691D01*
X96775000Y-82793691D01*
X96775000Y-83134250D01*
X96933750Y-83293000D01*
X98483000Y-83293000D01*
X98483000Y-82443750D01*
X98324250Y-82285000D01*
X97283690Y-82285000D01*
X97050301Y-82381673D01*
X96871673Y-82560302D01*
X96775000Y-82793691D01*
X87960700Y-82793691D01*
X87960700Y-77607145D01*
X88340801Y-77987246D01*
X89115653Y-78308200D01*
X89954347Y-78308200D01*
X90729199Y-77987246D01*
X91322246Y-77394199D01*
X91643200Y-76619347D01*
X91643200Y-76027209D01*
X94093951Y-78477961D01*
X94135042Y-78539458D01*
X94196539Y-78580549D01*
X94196541Y-78580551D01*
X94244506Y-78612600D01*
X94378693Y-78702261D01*
X94593556Y-78745000D01*
X94593559Y-78745000D01*
X94666100Y-78759429D01*
X94738640Y-78745000D01*
X108939891Y-78745000D01*
X114084451Y-83889561D01*
X114125542Y-83951058D01*
X114187039Y-83992149D01*
X114187041Y-83992151D01*
X114278707Y-84053400D01*
X114369193Y-84113861D01*
X114584056Y-84156600D01*
X114584059Y-84156600D01*
X114656599Y-84171029D01*
X114729140Y-84156600D01*
X114950963Y-84156600D01*
X114951939Y-84158061D01*
X115061162Y-84231042D01*
X115190000Y-84256669D01*
X117399874Y-84256669D01*
X117228343Y-84428200D01*
X115655521Y-84428200D01*
X115612999Y-84419742D01*
X115570477Y-84428200D01*
X115570474Y-84428200D01*
X115447562Y-84452649D01*
X115444520Y-84453254D01*
X115337741Y-84524601D01*
X115337740Y-84524602D01*
X115301690Y-84548690D01*
X115277602Y-84584740D01*
X109479100Y-90383243D01*
X109479100Y-82887685D01*
X109596393Y-82770392D01*
X109695000Y-82532336D01*
X109695000Y-82274664D01*
X109596393Y-82036608D01*
X109414192Y-81854407D01*
X109176136Y-81755800D01*
X108918464Y-81755800D01*
X108680408Y-81854407D01*
X108498207Y-82036608D01*
X108399600Y-82274664D01*
X108399600Y-82532336D01*
X108498207Y-82770392D01*
X108615500Y-82887685D01*
X108615500Y-83376591D01*
X108550951Y-83312042D01*
X108509858Y-83250542D01*
X108266207Y-83087739D01*
X108051344Y-83045000D01*
X108051340Y-83045000D01*
X107978800Y-83030571D01*
X107906260Y-83045000D01*
X100712040Y-83045000D01*
X100639499Y-83030571D01*
X100566959Y-83045000D01*
X100566956Y-83045000D01*
X100445000Y-83069259D01*
X100445000Y-82793691D01*
X100348327Y-82560302D01*
X100169699Y-82381673D01*
X99936310Y-82285000D01*
X98895750Y-82285000D01*
X98737000Y-82443750D01*
X98737000Y-83293000D01*
X98757000Y-83293000D01*
X98757000Y-83547000D01*
X98737000Y-83547000D01*
X98737000Y-84396250D01*
X98895750Y-84555000D01*
X99173290Y-84555000D01*
X98404960Y-85323331D01*
X97410000Y-85323331D01*
X97281162Y-85348958D01*
X97171939Y-85421939D01*
X97098958Y-85531162D01*
X97073331Y-85660000D01*
X97073331Y-86660000D01*
X97098958Y-86788838D01*
X97171939Y-86898061D01*
X97281162Y-86971042D01*
X97410000Y-86996669D01*
X98718179Y-86996669D01*
X98688300Y-87068803D01*
X98688300Y-87376997D01*
X98806241Y-87661732D01*
X98909509Y-87765000D01*
X98895750Y-87765000D01*
X98737000Y-87923750D01*
X98737000Y-88773000D01*
X100286250Y-88773000D01*
X100445000Y-88614250D01*
X100445000Y-88523026D01*
X100490301Y-88568327D01*
X100723690Y-88665000D01*
X101764250Y-88665000D01*
X101923000Y-88506250D01*
X101923000Y-87657000D01*
X102177000Y-87657000D01*
X102177000Y-88506250D01*
X102335750Y-88665000D01*
X103376310Y-88665000D01*
X103609699Y-88568327D01*
X103788327Y-88389698D01*
X103885000Y-88156309D01*
X103885000Y-87815750D01*
X103726250Y-87657000D01*
X102177000Y-87657000D01*
X101923000Y-87657000D01*
X101903000Y-87657000D01*
X101903000Y-87403000D01*
X101923000Y-87403000D01*
X101923000Y-86553750D01*
X102177000Y-86553750D01*
X102177000Y-87403000D01*
X103726250Y-87403000D01*
X103885000Y-87244250D01*
X103885000Y-86903691D01*
X103788327Y-86670302D01*
X103609699Y-86491673D01*
X103376310Y-86395000D01*
X102335750Y-86395000D01*
X102177000Y-86553750D01*
X101923000Y-86553750D01*
X101764250Y-86395000D01*
X101486709Y-86395000D01*
X102255041Y-85626669D01*
X103250000Y-85626669D01*
X103378838Y-85601042D01*
X103488061Y-85528061D01*
X103561042Y-85418838D01*
X103586669Y-85290000D01*
X103586669Y-84518200D01*
X107673691Y-84518200D01*
X107698941Y-84543450D01*
X107737041Y-84635432D01*
X107954968Y-84853359D01*
X108239703Y-84971300D01*
X108547897Y-84971300D01*
X108615500Y-84943298D01*
X108615501Y-90406542D01*
X108102243Y-90919800D01*
X108066190Y-90943890D01*
X107970754Y-91086721D01*
X107945700Y-91212675D01*
X107945700Y-91212678D01*
X107937242Y-91255200D01*
X107945700Y-91297722D01*
X107945701Y-96955673D01*
X107937242Y-96998200D01*
X107970754Y-97166679D01*
X108042101Y-97273458D01*
X108042103Y-97273460D01*
X108066191Y-97309510D01*
X108102241Y-97333598D01*
X110112200Y-99343557D01*
X110136290Y-99379610D01*
X110279120Y-99475046D01*
X110405074Y-99500100D01*
X110405078Y-99500100D01*
X110447599Y-99508558D01*
X110490120Y-99500100D01*
X115472383Y-99500100D01*
X115693764Y-99591800D01*
X115951436Y-99591800D01*
X116189492Y-99493193D01*
X116371693Y-99310992D01*
X116470300Y-99072936D01*
X116470300Y-98815264D01*
X116459338Y-98788800D01*
X130225878Y-98788800D01*
X130268400Y-98797258D01*
X130310922Y-98788800D01*
X130310926Y-98788800D01*
X130436880Y-98763746D01*
X130579710Y-98668310D01*
X130603799Y-98632258D01*
X130886385Y-98349673D01*
X131038568Y-98577432D01*
X131399845Y-98818829D01*
X131718431Y-98882200D01*
X132385043Y-98882200D01*
X132359643Y-98907600D01*
X132122526Y-98907600D01*
X132080000Y-98899141D01*
X132037474Y-98907600D01*
X131911520Y-98932654D01*
X131768690Y-99028090D01*
X131673254Y-99170920D01*
X131657541Y-99249912D01*
X131399845Y-99301171D01*
X131038568Y-99542568D01*
X130797171Y-99903845D01*
X130712403Y-100330000D01*
X130797171Y-100756155D01*
X131038568Y-101117432D01*
X131399845Y-101358829D01*
X131718431Y-101422200D01*
X132441569Y-101422200D01*
X132760155Y-101358829D01*
X133121432Y-101117432D01*
X133362829Y-100756155D01*
X133447597Y-100330000D01*
X135792403Y-100330000D01*
X135877171Y-100756155D01*
X136118568Y-101117432D01*
X136479845Y-101358829D01*
X136798431Y-101422200D01*
X137521569Y-101422200D01*
X137840155Y-101358829D01*
X138201432Y-101117432D01*
X138442829Y-100756155D01*
X138527597Y-100330000D01*
X138442829Y-99903845D01*
X138201432Y-99542568D01*
X137840155Y-99301171D01*
X137521569Y-99237800D01*
X136798431Y-99237800D01*
X136479845Y-99301171D01*
X136118568Y-99542568D01*
X135877171Y-99903845D01*
X135792403Y-100330000D01*
X133447597Y-100330000D01*
X133362829Y-99903845D01*
X133121432Y-99542568D01*
X133016262Y-99472295D01*
X134698557Y-97790000D01*
X135792403Y-97790000D01*
X135877171Y-98216155D01*
X136118568Y-98577432D01*
X136479845Y-98818829D01*
X136798431Y-98882200D01*
X137521569Y-98882200D01*
X137840155Y-98818829D01*
X138201432Y-98577432D01*
X138442829Y-98216155D01*
X138527597Y-97790000D01*
X138442829Y-97363845D01*
X138201432Y-97002568D01*
X137840155Y-96761171D01*
X137521569Y-96697800D01*
X136798431Y-96697800D01*
X136479845Y-96761171D01*
X136118568Y-97002568D01*
X135877171Y-97363845D01*
X135792403Y-97790000D01*
X134698557Y-97790000D01*
X134928458Y-97560099D01*
X134964510Y-97536010D01*
X135059946Y-97393180D01*
X135085000Y-97267226D01*
X135085000Y-97267222D01*
X135093458Y-97224701D01*
X135085000Y-97182180D01*
X135085000Y-95250000D01*
X135792403Y-95250000D01*
X135877171Y-95676155D01*
X136118568Y-96037432D01*
X136479845Y-96278829D01*
X136798431Y-96342200D01*
X137521569Y-96342200D01*
X137840155Y-96278829D01*
X138201432Y-96037432D01*
X138442829Y-95676155D01*
X138527597Y-95250000D01*
X138442829Y-94823845D01*
X138201432Y-94462568D01*
X137840155Y-94221171D01*
X137521569Y-94157800D01*
X136798431Y-94157800D01*
X136479845Y-94221171D01*
X136118568Y-94462568D01*
X135877171Y-94823845D01*
X135792403Y-95250000D01*
X135085000Y-95250000D01*
X135085000Y-92710000D01*
X135792403Y-92710000D01*
X135877171Y-93136155D01*
X136118568Y-93497432D01*
X136479845Y-93738829D01*
X136798431Y-93802200D01*
X137521569Y-93802200D01*
X137840155Y-93738829D01*
X138201432Y-93497432D01*
X138442829Y-93136155D01*
X138527597Y-92710000D01*
X138442829Y-92283845D01*
X138201432Y-91922568D01*
X137840155Y-91681171D01*
X137521569Y-91617800D01*
X136798431Y-91617800D01*
X136479845Y-91681171D01*
X136118568Y-91922568D01*
X135877171Y-92283845D01*
X135792403Y-92710000D01*
X135085000Y-92710000D01*
X135085000Y-90170000D01*
X135792403Y-90170000D01*
X135877171Y-90596155D01*
X136118568Y-90957432D01*
X136479845Y-91198829D01*
X136798431Y-91262200D01*
X137521569Y-91262200D01*
X137840155Y-91198829D01*
X138201432Y-90957432D01*
X138442829Y-90596155D01*
X138527597Y-90170000D01*
X138442829Y-89743845D01*
X138201432Y-89382568D01*
X137840155Y-89141171D01*
X137521569Y-89077800D01*
X136798431Y-89077800D01*
X136479845Y-89141171D01*
X136118568Y-89382568D01*
X135877171Y-89743845D01*
X135792403Y-90170000D01*
X135085000Y-90170000D01*
X135085000Y-88209326D01*
X135093459Y-88166800D01*
X135059946Y-87998320D01*
X134988599Y-87891541D01*
X134988598Y-87891540D01*
X134964510Y-87855490D01*
X134928460Y-87831402D01*
X134727058Y-87630000D01*
X135792403Y-87630000D01*
X135877171Y-88056155D01*
X136118568Y-88417432D01*
X136479845Y-88658829D01*
X136798431Y-88722200D01*
X137521569Y-88722200D01*
X137840155Y-88658829D01*
X138201432Y-88417432D01*
X138442829Y-88056155D01*
X138527597Y-87630000D01*
X138442829Y-87203845D01*
X138201432Y-86842568D01*
X137840155Y-86601171D01*
X137521569Y-86537800D01*
X136798431Y-86537800D01*
X136479845Y-86601171D01*
X136118568Y-86842568D01*
X135877171Y-87203845D01*
X135792403Y-87630000D01*
X134727058Y-87630000D01*
X133164100Y-86067042D01*
X133140010Y-86030990D01*
X133015813Y-85948004D01*
X133121432Y-85877432D01*
X133362829Y-85516155D01*
X133447597Y-85090000D01*
X135792403Y-85090000D01*
X135877171Y-85516155D01*
X136118568Y-85877432D01*
X136479845Y-86118829D01*
X136798431Y-86182200D01*
X137521569Y-86182200D01*
X137840155Y-86118829D01*
X138201432Y-85877432D01*
X138288108Y-85747712D01*
X138477658Y-85621058D01*
X138518751Y-85559558D01*
X138641709Y-85436600D01*
X138661019Y-85436600D01*
X139050500Y-86019500D01*
X139655892Y-86424010D01*
X140189745Y-86530200D01*
X140208876Y-86530200D01*
X140176139Y-86579194D01*
X140118971Y-86866600D01*
X140133401Y-86939145D01*
X140133401Y-87081008D01*
X139655892Y-87175990D01*
X139050500Y-87580500D01*
X138645990Y-88185892D01*
X138503945Y-88900000D01*
X138645990Y-89614108D01*
X139050500Y-90219500D01*
X139655892Y-90624010D01*
X140189745Y-90730200D01*
X141550255Y-90730200D01*
X142084108Y-90624010D01*
X142689500Y-90219500D01*
X143094010Y-89614108D01*
X143144787Y-89358833D01*
X143784887Y-89358833D01*
X143848916Y-89599696D01*
X144270524Y-90319870D01*
X144935638Y-90823882D01*
X145609152Y-91000000D01*
X144935638Y-91176118D01*
X144270524Y-91680130D01*
X143848916Y-92400304D01*
X143784887Y-92641167D01*
X143897835Y-92973000D01*
X146243000Y-92973000D01*
X146243000Y-89027000D01*
X146497000Y-89027000D01*
X146497000Y-92973000D01*
X148842165Y-92973000D01*
X148955113Y-92641167D01*
X148891084Y-92400304D01*
X148469476Y-91680130D01*
X147804362Y-91176118D01*
X147130848Y-91000000D01*
X147804362Y-90823882D01*
X148469476Y-90319870D01*
X148891084Y-89599696D01*
X148955113Y-89358833D01*
X148842165Y-89027000D01*
X146497000Y-89027000D01*
X146243000Y-89027000D01*
X143897835Y-89027000D01*
X143784887Y-89358833D01*
X143144787Y-89358833D01*
X143236055Y-88900000D01*
X143094010Y-88185892D01*
X142689500Y-87580500D01*
X142559096Y-87493367D01*
X142594599Y-87500429D01*
X142667138Y-87486000D01*
X144267088Y-87486000D01*
X143848916Y-88200304D01*
X143784887Y-88441167D01*
X143897835Y-88773000D01*
X146243000Y-88773000D01*
X146243000Y-88753000D01*
X146497000Y-88753000D01*
X146497000Y-88773000D01*
X148842165Y-88773000D01*
X148955113Y-88441167D01*
X148891084Y-88200304D01*
X148472912Y-87486000D01*
X148528760Y-87486000D01*
X148601300Y-87500429D01*
X148673840Y-87486000D01*
X148673844Y-87486000D01*
X148888707Y-87443261D01*
X149132358Y-87280458D01*
X149173451Y-87218958D01*
X150829558Y-85562851D01*
X150891058Y-85521758D01*
X151053861Y-85278107D01*
X151096600Y-85063244D01*
X151096600Y-85063240D01*
X151111029Y-84990701D01*
X151096600Y-84918162D01*
X151096600Y-74951033D01*
X151275749Y-74771884D01*
X151440200Y-74374865D01*
X151440200Y-73945135D01*
X151275749Y-73548116D01*
X150971884Y-73244251D01*
X150574865Y-73079800D01*
X150304858Y-73079800D01*
X150635261Y-72749397D01*
X150671310Y-72725310D01*
X150736317Y-72628021D01*
X150766746Y-72582480D01*
X150800259Y-72414000D01*
X150791800Y-72371474D01*
X150791800Y-71610342D01*
X150971884Y-71535749D01*
X151275749Y-71231884D01*
X151440200Y-70834865D01*
X151440200Y-70405135D01*
X151275749Y-70008116D01*
X150971884Y-69704251D01*
X150574865Y-69539800D01*
X150145135Y-69539800D01*
X149748116Y-69704251D01*
X149444251Y-70008116D01*
X149279800Y-70405135D01*
X149279800Y-70834865D01*
X149444251Y-71231884D01*
X149748116Y-71535749D01*
X149928200Y-71610343D01*
X149928200Y-71969640D01*
X149802460Y-71666077D01*
X149561517Y-71598088D01*
X148769605Y-72390000D01*
X148783748Y-72404143D01*
X148604143Y-72583748D01*
X148590000Y-72569605D01*
X147798088Y-73361517D01*
X147866077Y-73602460D01*
X148385171Y-73787201D01*
X148935448Y-73759230D01*
X149045472Y-73713657D01*
X149144008Y-73812193D01*
X149306916Y-73879672D01*
X149279800Y-73945135D01*
X149279800Y-74374865D01*
X149444251Y-74771884D01*
X149623400Y-74951033D01*
X149623401Y-84685590D01*
X149005000Y-85303991D01*
X149005000Y-84985750D01*
X148846250Y-84827000D01*
X146497000Y-84827000D01*
X146497000Y-84847000D01*
X146243000Y-84847000D01*
X146243000Y-84827000D01*
X143893750Y-84827000D01*
X143735000Y-84985750D01*
X143735000Y-86012800D01*
X142899709Y-86012800D01*
X142776382Y-85889473D01*
X143094010Y-85414108D01*
X143236055Y-84700000D01*
X143094010Y-83985892D01*
X142689500Y-83380500D01*
X142230328Y-83073691D01*
X143735000Y-83073691D01*
X143735000Y-84414250D01*
X143893750Y-84573000D01*
X146243000Y-84573000D01*
X146243000Y-82723750D01*
X146497000Y-82723750D01*
X146497000Y-84573000D01*
X148846250Y-84573000D01*
X149005000Y-84414250D01*
X149005000Y-83073691D01*
X148908327Y-82840302D01*
X148729699Y-82661673D01*
X148496310Y-82565000D01*
X146655750Y-82565000D01*
X146497000Y-82723750D01*
X146243000Y-82723750D01*
X146084250Y-82565000D01*
X144243690Y-82565000D01*
X144010301Y-82661673D01*
X143831673Y-82840302D01*
X143735000Y-83073691D01*
X142230328Y-83073691D01*
X142084108Y-82975990D01*
X141550255Y-82869800D01*
X140189745Y-82869800D01*
X139655892Y-82975990D01*
X139050500Y-83380500D01*
X138661019Y-83963400D01*
X138409140Y-83963400D01*
X138336599Y-83948971D01*
X138264059Y-83963400D01*
X138264056Y-83963400D01*
X138049193Y-84006139D01*
X137903494Y-84103492D01*
X137840155Y-84061171D01*
X137521569Y-83997800D01*
X136798431Y-83997800D01*
X136479845Y-84061171D01*
X136118568Y-84302568D01*
X135877171Y-84663845D01*
X135792403Y-85090000D01*
X133447597Y-85090000D01*
X133362829Y-84663845D01*
X133121432Y-84302568D01*
X132935002Y-84178000D01*
X135143915Y-84178000D01*
X135235808Y-84269893D01*
X135473864Y-84368500D01*
X135731536Y-84368500D01*
X135969592Y-84269893D01*
X136151793Y-84087692D01*
X136250400Y-83849636D01*
X136250400Y-83591964D01*
X136155071Y-83361823D01*
X136479845Y-83578829D01*
X136798431Y-83642200D01*
X137521569Y-83642200D01*
X137840155Y-83578829D01*
X138201432Y-83337432D01*
X138442829Y-82976155D01*
X138527597Y-82550000D01*
X138442829Y-82123845D01*
X138201432Y-81762568D01*
X137840155Y-81521171D01*
X137521569Y-81457800D01*
X136798431Y-81457800D01*
X136479845Y-81521171D01*
X136118568Y-81762568D01*
X135877171Y-82123845D01*
X135792403Y-82550000D01*
X135877171Y-82976155D01*
X136084841Y-83286956D01*
X135969592Y-83171707D01*
X135731536Y-83073100D01*
X135473864Y-83073100D01*
X135235808Y-83171707D01*
X135143915Y-83263600D01*
X133170765Y-83263600D01*
X133362829Y-82976155D01*
X133447597Y-82550000D01*
X133362829Y-82123845D01*
X133121432Y-81762568D01*
X132760155Y-81521171D01*
X132441569Y-81457800D01*
X131718431Y-81457800D01*
X131399845Y-81521171D01*
X131038568Y-81762568D01*
X130797171Y-82123845D01*
X130712403Y-82550000D01*
X130797171Y-82976155D01*
X130989235Y-83263600D01*
X129712785Y-83263600D01*
X129620892Y-83171707D01*
X129382836Y-83073100D01*
X129125164Y-83073100D01*
X128887108Y-83171707D01*
X128704907Y-83353908D01*
X128606300Y-83591964D01*
X128606300Y-83849636D01*
X128704907Y-84087692D01*
X128887108Y-84269893D01*
X129125164Y-84368500D01*
X129382836Y-84368500D01*
X129620892Y-84269893D01*
X129712785Y-84178000D01*
X131224998Y-84178000D01*
X131038568Y-84302568D01*
X130797171Y-84663845D01*
X130712403Y-85090000D01*
X130797171Y-85516155D01*
X131038568Y-85877432D01*
X131088058Y-85910500D01*
X130480758Y-85910500D01*
X127193200Y-82622943D01*
X127193200Y-82457064D01*
X127094593Y-82219008D01*
X126937521Y-82061936D01*
X129523257Y-79476200D01*
X130869097Y-79476200D01*
X130797171Y-79583845D01*
X130712403Y-80010000D01*
X130797171Y-80436155D01*
X131038568Y-80797432D01*
X131399845Y-81038829D01*
X131718431Y-81102200D01*
X132441569Y-81102200D01*
X132760155Y-81038829D01*
X133121432Y-80797432D01*
X133362829Y-80436155D01*
X133447597Y-80010000D01*
X133362829Y-79583845D01*
X133290903Y-79476200D01*
X135949097Y-79476200D01*
X135877171Y-79583845D01*
X135792403Y-80010000D01*
X135877171Y-80436155D01*
X136118568Y-80797432D01*
X136479845Y-81038829D01*
X136798431Y-81102200D01*
X137521569Y-81102200D01*
X137840155Y-81038829D01*
X138201432Y-80797432D01*
X138442829Y-80436155D01*
X138527597Y-80010000D01*
X138442829Y-79583845D01*
X138201432Y-79222568D01*
X137869487Y-79000770D01*
X138684558Y-78185699D01*
X138720610Y-78161610D01*
X138816046Y-78018780D01*
X138841100Y-77892826D01*
X138841100Y-77892822D01*
X138849558Y-77850301D01*
X138841100Y-77807780D01*
X138841100Y-76595420D01*
X138849558Y-76552899D01*
X138841100Y-76510378D01*
X138841100Y-76510374D01*
X138816046Y-76384420D01*
X138720610Y-76241590D01*
X138684557Y-76217500D01*
X135991600Y-73524543D01*
X135967510Y-73488490D01*
X135824680Y-73393054D01*
X135698726Y-73368000D01*
X135698722Y-73368000D01*
X135656200Y-73359542D01*
X135613678Y-73368000D01*
X127108757Y-73368000D01*
X126465581Y-72724824D01*
X126855574Y-72647250D01*
X127271462Y-72369362D01*
X127549350Y-71953474D01*
X127622300Y-71586728D01*
X127622300Y-70700653D01*
X128066800Y-70700653D01*
X128066800Y-71539347D01*
X128387754Y-72314199D01*
X128980801Y-72907246D01*
X129755653Y-73228200D01*
X130594347Y-73228200D01*
X131369199Y-72907246D01*
X131962246Y-72314199D01*
X132283200Y-71539347D01*
X132283200Y-70700653D01*
X131962246Y-69925801D01*
X131369199Y-69332754D01*
X130594347Y-69011800D01*
X129755653Y-69011800D01*
X128980801Y-69332754D01*
X128387754Y-69925801D01*
X128066800Y-70700653D01*
X127622300Y-70700653D01*
X127622300Y-70653271D01*
X127549350Y-70286526D01*
X127271462Y-69870638D01*
X126855573Y-69592750D01*
X126365000Y-69495169D01*
X125874426Y-69592750D01*
X125458538Y-69870638D01*
X125180650Y-70286527D01*
X125107700Y-70653272D01*
X125107700Y-71586729D01*
X125180650Y-71953474D01*
X125455424Y-72364700D01*
X124734577Y-72364700D01*
X125009350Y-71953474D01*
X125082300Y-71586728D01*
X125082300Y-70653271D01*
X125009350Y-70286526D01*
X124731462Y-69870638D01*
X124315573Y-69592750D01*
X123825000Y-69495169D01*
X123334426Y-69592750D01*
X122918538Y-69870638D01*
X122640650Y-70286527D01*
X122567700Y-70653272D01*
X122567700Y-71586729D01*
X122640650Y-71953474D01*
X122915424Y-72364700D01*
X122194577Y-72364700D01*
X122469350Y-71953474D01*
X122542300Y-71586728D01*
X122542300Y-70653271D01*
X122469350Y-70286526D01*
X122191462Y-69870638D01*
X121775573Y-69592750D01*
X121285000Y-69495169D01*
X120794426Y-69592750D01*
X120378538Y-69870638D01*
X120100650Y-70286527D01*
X120027700Y-70653272D01*
X120027700Y-71586729D01*
X120100650Y-71953474D01*
X120375424Y-72364700D01*
X119654577Y-72364700D01*
X119929350Y-71953474D01*
X120002300Y-71586728D01*
X120002300Y-70653271D01*
X119929350Y-70286526D01*
X119651462Y-69870638D01*
X119235573Y-69592750D01*
X118745000Y-69495169D01*
X118254426Y-69592750D01*
X117838538Y-69870638D01*
X117560650Y-70286527D01*
X117487700Y-70653272D01*
X117487700Y-71586729D01*
X117560650Y-71953474D01*
X117835424Y-72364700D01*
X117114577Y-72364700D01*
X117389350Y-71953474D01*
X117462300Y-71586728D01*
X117462300Y-70653271D01*
X117389350Y-70286526D01*
X117111462Y-69870638D01*
X116695573Y-69592750D01*
X116205000Y-69495169D01*
X115714426Y-69592750D01*
X115298538Y-69870638D01*
X115020650Y-70286527D01*
X114947700Y-70653272D01*
X114947700Y-71586729D01*
X115020650Y-71953474D01*
X115295424Y-72364700D01*
X114574577Y-72364700D01*
X114849350Y-71953474D01*
X114922300Y-71586728D01*
X114922300Y-70653271D01*
X114849350Y-70286526D01*
X114571462Y-69870638D01*
X114155573Y-69592750D01*
X113665000Y-69495169D01*
X113174426Y-69592750D01*
X112758538Y-69870638D01*
X112480650Y-70286527D01*
X112407700Y-70653272D01*
X112407700Y-71586729D01*
X112480650Y-71953474D01*
X112755424Y-72364700D01*
X112034577Y-72364700D01*
X112309350Y-71953474D01*
X112382300Y-71586728D01*
X112382300Y-70653271D01*
X112309350Y-70286526D01*
X112031462Y-69870638D01*
X111615573Y-69592750D01*
X111125000Y-69495169D01*
X110634426Y-69592750D01*
X110218538Y-69870638D01*
X109940650Y-70286527D01*
X109867700Y-70653272D01*
X109867700Y-70705003D01*
X109842300Y-70699951D01*
X109842300Y-70653271D01*
X109769350Y-70286526D01*
X109491462Y-69870638D01*
X109075573Y-69592750D01*
X108585000Y-69495169D01*
X108094426Y-69592750D01*
X107678538Y-69870638D01*
X107552630Y-70059073D01*
X106864700Y-69371143D01*
X106840610Y-69335090D01*
X106697780Y-69239654D01*
X106571826Y-69214600D01*
X106571822Y-69214600D01*
X106529300Y-69206142D01*
X106486778Y-69214600D01*
X105560422Y-69214600D01*
X105517900Y-69206142D01*
X105475378Y-69214600D01*
X105475374Y-69214600D01*
X105349420Y-69239654D01*
X105242641Y-69311001D01*
X105242640Y-69311002D01*
X105206590Y-69335090D01*
X105182502Y-69371140D01*
X104520227Y-70033416D01*
X104411462Y-69870638D01*
X103995573Y-69592750D01*
X103505000Y-69495169D01*
X103014426Y-69592750D01*
X102598538Y-69870638D01*
X102320650Y-70286527D01*
X102247700Y-70653272D01*
X102247700Y-71586729D01*
X102320650Y-71953474D01*
X102598539Y-72369362D01*
X103014427Y-72647250D01*
X103095272Y-72663331D01*
X101374729Y-72663331D01*
X101455574Y-72647250D01*
X101871462Y-72369362D01*
X102149350Y-71953474D01*
X102222300Y-71586728D01*
X102222300Y-70653271D01*
X102149350Y-70286526D01*
X101871462Y-69870638D01*
X101455573Y-69592750D01*
X100965000Y-69495169D01*
X100474426Y-69592750D01*
X100058538Y-69870638D01*
X99949733Y-70033476D01*
X99287400Y-69371143D01*
X99263310Y-69335090D01*
X99120480Y-69239654D01*
X98994526Y-69214600D01*
X98994522Y-69214600D01*
X98952000Y-69206142D01*
X98909478Y-69214600D01*
X90343421Y-69214600D01*
X90300899Y-69206142D01*
X90258377Y-69214600D01*
X90258374Y-69214600D01*
X90132420Y-69239654D01*
X89989590Y-69335090D01*
X89965500Y-69371143D01*
X89521780Y-69814863D01*
X89503142Y-69721162D01*
X89430161Y-69611939D01*
X89320938Y-69538958D01*
X89192100Y-69513331D01*
X87337900Y-69513331D01*
X87209062Y-69538958D01*
X87099839Y-69611939D01*
X87026858Y-69721162D01*
X87001231Y-69850000D01*
X86169500Y-69850000D01*
X86169500Y-68389500D01*
X141468349Y-68389500D01*
X141453331Y-68465000D01*
X141453331Y-68465000D01*
G37*
X141453331Y-68465000D02*
X141453331Y-76315000D01*
X141478958Y-76443838D01*
X141551939Y-76553061D01*
X141661162Y-76626042D01*
X141790000Y-76651669D01*
X144040000Y-76651669D01*
X144168838Y-76626042D01*
X144278061Y-76553061D01*
X144351042Y-76443838D01*
X144376669Y-76315000D01*
X144376669Y-73945135D01*
X145739800Y-73945135D01*
X145739800Y-74374865D01*
X145904251Y-74771884D01*
X146208116Y-75075749D01*
X146605135Y-75240200D01*
X147034865Y-75240200D01*
X147431884Y-75075749D01*
X147735749Y-74771884D01*
X147900200Y-74374865D01*
X147900200Y-73945135D01*
X147735749Y-73548116D01*
X147431884Y-73244251D01*
X147034865Y-73079800D01*
X146605135Y-73079800D01*
X146208116Y-73244251D01*
X145904251Y-73548116D01*
X145739800Y-73945135D01*
X144376669Y-73945135D01*
X144376669Y-73761712D01*
X144870008Y-73557364D01*
X145257364Y-73170008D01*
X145467000Y-72663902D01*
X145467000Y-72116098D01*
X145257364Y-71609992D01*
X145238889Y-71591517D01*
X146028088Y-71591517D01*
X146096077Y-71832460D01*
X146615171Y-72017201D01*
X147165448Y-71989230D01*
X147279319Y-71942063D01*
X147192799Y-72185171D01*
X147220770Y-72735448D01*
X147377540Y-73113923D01*
X147618483Y-73181912D01*
X148410395Y-72390000D01*
X147618483Y-71598088D01*
X147609329Y-71600671D01*
X147611912Y-71591517D01*
X146820000Y-70799605D01*
X146028088Y-71591517D01*
X145238889Y-71591517D01*
X144870008Y-71222636D01*
X144376669Y-71018288D01*
X144376669Y-70415171D01*
X145422799Y-70415171D01*
X145450770Y-70965448D01*
X145607540Y-71343923D01*
X145848483Y-71411912D01*
X146640395Y-70620000D01*
X146999605Y-70620000D01*
X147791517Y-71411912D01*
X147800671Y-71409329D01*
X147798088Y-71418483D01*
X148590000Y-72210395D01*
X149381912Y-71418483D01*
X149313923Y-71177540D01*
X148794829Y-70992799D01*
X148244552Y-71020770D01*
X148130681Y-71067937D01*
X148217201Y-70824829D01*
X148189230Y-70274552D01*
X148032460Y-69896077D01*
X147791517Y-69828088D01*
X146999605Y-70620000D01*
X146640395Y-70620000D01*
X145848483Y-69828088D01*
X145607540Y-69896077D01*
X145422799Y-70415171D01*
X144376669Y-70415171D01*
X144376669Y-69648483D01*
X146028088Y-69648483D01*
X146820000Y-70440395D01*
X147611912Y-69648483D01*
X147543923Y-69407540D01*
X147024829Y-69222799D01*
X146474552Y-69250770D01*
X146096077Y-69407540D01*
X146028088Y-69648483D01*
X144376669Y-69648483D01*
X144376669Y-68465000D01*
X144361651Y-68389500D01*
X152818349Y-68389500D01*
X152803331Y-68465000D01*
X152803331Y-71018288D01*
X152309992Y-71222636D01*
X151922636Y-71609992D01*
X151713000Y-72116098D01*
X151713000Y-72663902D01*
X151922636Y-73170008D01*
X152309992Y-73557364D01*
X152803331Y-73761712D01*
X152803331Y-76315000D01*
X152828958Y-76443838D01*
X152901939Y-76553061D01*
X153011162Y-76626042D01*
X153140000Y-76651669D01*
X155390000Y-76651669D01*
X155518838Y-76626042D01*
X155628061Y-76553061D01*
X155701042Y-76443838D01*
X155726669Y-76315000D01*
X155726669Y-68465000D01*
X155711651Y-68389500D01*
X155765501Y-68389500D01*
X155765501Y-83669880D01*
X155645448Y-83380048D01*
X154989952Y-82724552D01*
X154133506Y-82369800D01*
X153206494Y-82369800D01*
X152350048Y-82724552D01*
X151694552Y-83380048D01*
X151339800Y-84236494D01*
X151339800Y-85163506D01*
X151694552Y-86019952D01*
X152350048Y-86675448D01*
X153206494Y-87030200D01*
X154133506Y-87030200D01*
X154989952Y-86675448D01*
X155645448Y-86019952D01*
X155765501Y-85730120D01*
X155765500Y-92069880D01*
X155645448Y-91780048D01*
X154989952Y-91124552D01*
X154133506Y-90769800D01*
X153206494Y-90769800D01*
X152350048Y-91124552D01*
X151694552Y-91780048D01*
X151339800Y-92636494D01*
X151339800Y-93563506D01*
X151694552Y-94419952D01*
X152350048Y-95075448D01*
X153206494Y-95430200D01*
X154133506Y-95430200D01*
X154989952Y-95075448D01*
X155645448Y-94419952D01*
X155765500Y-94130120D01*
X155765500Y-109410500D01*
X155711651Y-109410500D01*
X155726669Y-109335000D01*
X155726669Y-101485000D01*
X155701042Y-101356162D01*
X155628061Y-101246939D01*
X155518838Y-101173958D01*
X155390000Y-101148331D01*
X153140000Y-101148331D01*
X153011162Y-101173958D01*
X152901939Y-101246939D01*
X152828958Y-101356162D01*
X152803331Y-101485000D01*
X152803331Y-104038288D01*
X152501600Y-104163269D01*
X152501600Y-101520140D01*
X152516029Y-101447599D01*
X152501600Y-101375057D01*
X152501600Y-101375056D01*
X152458861Y-101160193D01*
X152384290Y-101048590D01*
X152337151Y-100978041D01*
X152337149Y-100978039D01*
X152296058Y-100916542D01*
X152234561Y-100875451D01*
X146594109Y-95235000D01*
X146997000Y-95235000D01*
X147804362Y-95023882D01*
X148469476Y-94519870D01*
X148891084Y-93799696D01*
X148955113Y-93558833D01*
X148842165Y-93227000D01*
X146497000Y-93227000D01*
X146497000Y-93247000D01*
X146243000Y-93247000D01*
X146243000Y-93227000D01*
X143897835Y-93227000D01*
X143784887Y-93558833D01*
X143848916Y-93799696D01*
X144198476Y-94396800D01*
X142704668Y-94396800D01*
X143094010Y-93814108D01*
X143236055Y-93100000D01*
X143094010Y-92385892D01*
X142689500Y-91780500D01*
X142084108Y-91375990D01*
X141550255Y-91269800D01*
X140189745Y-91269800D01*
X139655892Y-91375990D01*
X139050500Y-91780500D01*
X138645990Y-92385892D01*
X138503945Y-93100000D01*
X138645990Y-93814108D01*
X139050500Y-94419500D01*
X139655892Y-94824010D01*
X140133401Y-94918992D01*
X140133401Y-95060851D01*
X140118970Y-95133400D01*
X140176139Y-95420807D01*
X140199089Y-95455155D01*
X140061569Y-95427800D01*
X139338431Y-95427800D01*
X139019845Y-95491171D01*
X138658568Y-95732568D01*
X138417171Y-96093845D01*
X138332403Y-96520000D01*
X138417171Y-96946155D01*
X138658568Y-97307432D01*
X139019845Y-97548829D01*
X139338431Y-97612200D01*
X140061569Y-97612200D01*
X140380155Y-97548829D01*
X140741432Y-97307432D01*
X140982829Y-96946155D01*
X140999355Y-96863070D01*
X143171780Y-96863070D01*
X143186740Y-96937277D01*
X143448370Y-97418026D01*
X143874059Y-97762059D01*
X144399000Y-97917000D01*
X144653000Y-97917000D01*
X144653000Y-96647000D01*
X143294280Y-96647000D01*
X143171780Y-96863070D01*
X140999355Y-96863070D01*
X141067597Y-96520000D01*
X140982829Y-96093845D01*
X140838749Y-95878214D01*
X140870000Y-95884430D01*
X140942544Y-95870000D01*
X143313391Y-95870000D01*
X143186740Y-96102723D01*
X143171780Y-96176930D01*
X143294280Y-96393000D01*
X144653000Y-96393000D01*
X144653000Y-96373000D01*
X144907000Y-96373000D01*
X144907000Y-96393000D01*
X144927000Y-96393000D01*
X144927000Y-96647000D01*
X144907000Y-96647000D01*
X144907000Y-97917000D01*
X145161000Y-97917000D01*
X145685941Y-97762059D01*
X146111630Y-97418026D01*
X146316770Y-97041079D01*
X151028400Y-101752710D01*
X151028400Y-102780767D01*
X150971884Y-102724251D01*
X150574865Y-102559800D01*
X150145135Y-102559800D01*
X149748116Y-102724251D01*
X149444251Y-103028116D01*
X149279800Y-103425135D01*
X149279800Y-103777700D01*
X149226285Y-103777700D01*
X149108992Y-103660407D01*
X148870936Y-103561800D01*
X148613264Y-103561800D01*
X148375208Y-103660407D01*
X148215923Y-103819692D01*
X148189230Y-103294552D01*
X148032460Y-102916077D01*
X147791517Y-102848088D01*
X146999605Y-103640000D01*
X147791517Y-104431912D01*
X147800671Y-104429329D01*
X147798088Y-104438483D01*
X148590000Y-105230395D01*
X148604143Y-105216253D01*
X148783748Y-105395858D01*
X148769605Y-105410000D01*
X149561517Y-106201912D01*
X149802460Y-106133923D01*
X149987201Y-105614829D01*
X149959230Y-105064552D01*
X149802460Y-104686077D01*
X149643777Y-104641300D01*
X149747978Y-104641300D01*
X149790500Y-104649758D01*
X149833022Y-104641300D01*
X149833026Y-104641300D01*
X149915195Y-104624955D01*
X150145135Y-104720200D01*
X150418420Y-104720200D01*
X150393400Y-104845983D01*
X150393400Y-104845986D01*
X150378971Y-104918526D01*
X150393400Y-104991067D01*
X150393401Y-106099800D01*
X150145135Y-106099800D01*
X149748116Y-106264251D01*
X149444251Y-106568116D01*
X149279800Y-106965135D01*
X149279800Y-107394865D01*
X149444251Y-107791884D01*
X149748116Y-108095749D01*
X150145135Y-108260200D01*
X150574865Y-108260200D01*
X150971884Y-108095749D01*
X151275749Y-107791884D01*
X151440200Y-107394865D01*
X151440200Y-107141509D01*
X151599558Y-106982151D01*
X151661058Y-106941058D01*
X151823861Y-106697407D01*
X151866600Y-106482544D01*
X151866600Y-106482540D01*
X151881029Y-106410001D01*
X151866600Y-106337462D01*
X151866600Y-106054725D01*
X151922636Y-106190008D01*
X152309992Y-106577364D01*
X152803331Y-106781712D01*
X152803331Y-109335000D01*
X152818349Y-109410500D01*
X144361651Y-109410500D01*
X144376669Y-109335000D01*
X144376669Y-106965135D01*
X145739800Y-106965135D01*
X145739800Y-107394865D01*
X145904251Y-107791884D01*
X146208116Y-108095749D01*
X146605135Y-108260200D01*
X147034865Y-108260200D01*
X147431884Y-108095749D01*
X147735749Y-107791884D01*
X147900200Y-107394865D01*
X147900200Y-106965135D01*
X147735749Y-106568116D01*
X147549150Y-106381517D01*
X147798088Y-106381517D01*
X147866077Y-106622460D01*
X148385171Y-106807201D01*
X148935448Y-106779230D01*
X149313923Y-106622460D01*
X149381912Y-106381517D01*
X148590000Y-105589605D01*
X147798088Y-106381517D01*
X147549150Y-106381517D01*
X147431884Y-106264251D01*
X147034865Y-106099800D01*
X146605135Y-106099800D01*
X146208116Y-106264251D01*
X145904251Y-106568116D01*
X145739800Y-106965135D01*
X144376669Y-106965135D01*
X144376669Y-106781712D01*
X144870008Y-106577364D01*
X145257364Y-106190008D01*
X145467000Y-105683902D01*
X145467000Y-105136098D01*
X145257364Y-104629992D01*
X145238889Y-104611517D01*
X146028088Y-104611517D01*
X146096077Y-104852460D01*
X146615171Y-105037201D01*
X147165448Y-105009230D01*
X147279319Y-104962063D01*
X147192799Y-105205171D01*
X147220770Y-105755448D01*
X147377540Y-106133923D01*
X147618483Y-106201912D01*
X148410395Y-105410000D01*
X147618483Y-104618088D01*
X147609329Y-104620671D01*
X147611912Y-104611517D01*
X146820000Y-103819605D01*
X146028088Y-104611517D01*
X145238889Y-104611517D01*
X144870008Y-104242636D01*
X144376669Y-104038288D01*
X144376669Y-103435171D01*
X145422799Y-103435171D01*
X145450770Y-103985448D01*
X145607540Y-104363923D01*
X145848483Y-104431912D01*
X146640395Y-103640000D01*
X145848483Y-102848088D01*
X145607540Y-102916077D01*
X145422799Y-103435171D01*
X144376669Y-103435171D01*
X144376669Y-102668483D01*
X146028088Y-102668483D01*
X146820000Y-103460395D01*
X147611912Y-102668483D01*
X147543923Y-102427540D01*
X147024829Y-102242799D01*
X146474552Y-102270770D01*
X146096077Y-102427540D01*
X146028088Y-102668483D01*
X144376669Y-102668483D01*
X144376669Y-101485000D01*
X144351042Y-101356162D01*
X144278061Y-101246939D01*
X144168838Y-101173958D01*
X144040000Y-101148331D01*
X141790000Y-101148331D01*
X141661162Y-101173958D01*
X141551939Y-101246939D01*
X141478958Y-101356162D01*
X141453331Y-101485000D01*
X141453331Y-109335000D01*
X141468349Y-109410500D01*
X86169500Y-109410500D01*
X86169500Y-106213272D01*
X87007700Y-106213272D01*
X87007700Y-107146729D01*
X87080650Y-107513474D01*
X87358539Y-107929362D01*
X87774427Y-108207250D01*
X88265000Y-108304831D01*
X88755574Y-108207250D01*
X89171462Y-107929362D01*
X89449350Y-107513474D01*
X89522300Y-107146728D01*
X89522300Y-106213272D01*
X89547700Y-106213272D01*
X89547700Y-107146729D01*
X89620650Y-107513474D01*
X89898539Y-107929362D01*
X90314427Y-108207250D01*
X90805000Y-108304831D01*
X91295574Y-108207250D01*
X91711462Y-107929362D01*
X91989350Y-107513474D01*
X92062300Y-107146728D01*
X92062300Y-106213271D01*
X91989350Y-105846526D01*
X91711462Y-105430638D01*
X91295573Y-105152750D01*
X90805000Y-105055169D01*
X90314426Y-105152750D01*
X89898538Y-105430638D01*
X89620650Y-105846527D01*
X89547700Y-106213272D01*
X89522300Y-106213272D01*
X89522300Y-106213271D01*
X89449350Y-105846526D01*
X89171462Y-105430638D01*
X88755573Y-105152750D01*
X88265000Y-105055169D01*
X87774426Y-105152750D01*
X87358538Y-105430638D01*
X87080650Y-105846527D01*
X87007700Y-106213272D01*
X86169500Y-106213272D01*
X86169500Y-69850000D01*
X87001231Y-69850000D01*
X87001231Y-72390000D01*
X87026858Y-72518838D01*
X87099839Y-72628061D01*
X87209062Y-72701042D01*
X87337900Y-72726669D01*
X88532573Y-72726669D01*
X87253642Y-74005600D01*
X87217590Y-74029690D01*
X87122154Y-74172521D01*
X87097100Y-74298475D01*
X87097100Y-74298478D01*
X87088642Y-74341000D01*
X87097100Y-74383522D01*
X87097101Y-96711473D01*
X87088642Y-96754000D01*
X87122154Y-96922479D01*
X87193501Y-97029258D01*
X87193503Y-97029260D01*
X87217591Y-97065310D01*
X87253641Y-97089398D01*
X89656043Y-99491800D01*
X89115653Y-99491800D01*
X88340801Y-99812754D01*
X87747754Y-100405801D01*
X87426800Y-101180653D01*
X87426800Y-102019347D01*
X87747754Y-102794199D01*
X88340801Y-103387246D01*
X89115653Y-103708200D01*
X89954347Y-103708200D01*
X90729199Y-103387246D01*
X91322246Y-102794199D01*
X91643200Y-102019347D01*
X91643200Y-101478957D01*
X92303200Y-102138957D01*
X92303201Y-104059173D01*
X92294742Y-104101700D01*
X92328254Y-104270179D01*
X92399601Y-104376958D01*
X92399603Y-104376960D01*
X92423691Y-104413010D01*
X92459740Y-104437097D01*
X93122141Y-105099498D01*
X92854426Y-105152750D01*
X92438538Y-105430638D01*
X92160650Y-105846527D01*
X92087700Y-106213272D01*
X92087700Y-107146729D01*
X92160650Y-107513474D01*
X92438539Y-107929362D01*
X92854427Y-108207250D01*
X93345000Y-108304831D01*
X93835574Y-108207250D01*
X94251462Y-107929362D01*
X94529350Y-107513474D01*
X94602300Y-107146728D01*
X94602300Y-106213271D01*
X94529350Y-105846526D01*
X94324803Y-105540400D01*
X94905197Y-105540400D01*
X94700650Y-105846527D01*
X94627700Y-106213272D01*
X94627700Y-107146729D01*
X94700650Y-107513474D01*
X94978539Y-107929362D01*
X95394427Y-108207250D01*
X95885000Y-108304831D01*
X96375574Y-108207250D01*
X96791462Y-107929362D01*
X97069350Y-107513474D01*
X97142300Y-107146728D01*
X97142300Y-106213271D01*
X97069350Y-105846526D01*
X96864803Y-105540400D01*
X97445197Y-105540400D01*
X97240650Y-105846527D01*
X97167700Y-106213272D01*
X97167700Y-107146729D01*
X97240650Y-107513474D01*
X97518539Y-107929362D01*
X97934427Y-108207250D01*
X98425000Y-108304831D01*
X98915574Y-108207250D01*
X99331462Y-107929362D01*
X99609350Y-107513474D01*
X99682300Y-107146728D01*
X99682300Y-106213271D01*
X99609350Y-105846526D01*
X99404803Y-105540400D01*
X99985197Y-105540400D01*
X99780650Y-105846527D01*
X99707700Y-106213272D01*
X99707700Y-107146729D01*
X99780650Y-107513474D01*
X100058539Y-107929362D01*
X100474427Y-108207250D01*
X100965000Y-108304831D01*
X101455574Y-108207250D01*
X101871462Y-107929362D01*
X102149350Y-107513474D01*
X102222300Y-107146728D01*
X102222300Y-106213271D01*
X102149350Y-105846526D01*
X101944803Y-105540400D01*
X102525197Y-105540400D01*
X102320650Y-105846527D01*
X102247700Y-106213272D01*
X102247700Y-107146729D01*
X102320650Y-107513474D01*
X102598539Y-107929362D01*
X103014427Y-108207250D01*
X103505000Y-108304831D01*
X103995574Y-108207250D01*
X104411462Y-107929362D01*
X104689350Y-107513474D01*
X104762300Y-107146728D01*
X104762300Y-106213271D01*
X104689350Y-105846526D01*
X104484803Y-105540400D01*
X105065197Y-105540400D01*
X104860650Y-105846527D01*
X104787700Y-106213272D01*
X104787700Y-107146729D01*
X104860650Y-107513474D01*
X105138539Y-107929362D01*
X105554427Y-108207250D01*
X106045000Y-108304831D01*
X106535574Y-108207250D01*
X106951462Y-107929362D01*
X107229350Y-107513474D01*
X107302300Y-107146728D01*
X107302300Y-106213271D01*
X107229350Y-105846526D01*
X107024803Y-105540400D01*
X107605197Y-105540400D01*
X107400650Y-105846527D01*
X107327700Y-106213272D01*
X107327700Y-107146729D01*
X107400650Y-107513474D01*
X107678539Y-107929362D01*
X108094427Y-108207250D01*
X108585000Y-108304831D01*
X109075574Y-108207250D01*
X109491462Y-107929362D01*
X109769350Y-107513474D01*
X109842300Y-107146728D01*
X109842300Y-106213271D01*
X109769350Y-105846526D01*
X109564803Y-105540400D01*
X110145197Y-105540400D01*
X109940650Y-105846527D01*
X109867700Y-106213272D01*
X109867700Y-107146729D01*
X109940650Y-107513474D01*
X110218539Y-107929362D01*
X110634427Y-108207250D01*
X111125000Y-108304831D01*
X111615574Y-108207250D01*
X112031462Y-107929362D01*
X112140227Y-107766584D01*
X112802502Y-108428860D01*
X112826590Y-108464910D01*
X112862640Y-108488998D01*
X112862641Y-108488999D01*
X112969420Y-108560346D01*
X113095374Y-108585400D01*
X113095378Y-108585400D01*
X113137900Y-108593858D01*
X113180422Y-108585400D01*
X116656578Y-108585400D01*
X116699100Y-108593858D01*
X116741622Y-108585400D01*
X116741626Y-108585400D01*
X116867580Y-108560346D01*
X117010410Y-108464910D01*
X117034500Y-108428857D01*
X117716555Y-107746802D01*
X117838539Y-107929362D01*
X118254427Y-108207250D01*
X118745000Y-108304831D01*
X119235574Y-108207250D01*
X119651462Y-107929362D01*
X119929350Y-107513474D01*
X120002300Y-107146728D01*
X120002300Y-106213271D01*
X119929350Y-105846526D01*
X119654644Y-105435400D01*
X120375356Y-105435400D01*
X120100650Y-105846527D01*
X120027700Y-106213272D01*
X120027700Y-107146729D01*
X120100650Y-107513474D01*
X120378539Y-107929362D01*
X120794427Y-108207250D01*
X121285000Y-108304831D01*
X121775574Y-108207250D01*
X122191462Y-107929362D01*
X122469350Y-107513474D01*
X122542300Y-107146728D01*
X122542300Y-106213271D01*
X122469350Y-105846526D01*
X122194644Y-105435400D01*
X122915356Y-105435400D01*
X122640650Y-105846527D01*
X122567700Y-106213272D01*
X122567700Y-107146729D01*
X122640650Y-107513474D01*
X122918539Y-107929362D01*
X123334427Y-108207250D01*
X123825000Y-108304831D01*
X124315574Y-108207250D01*
X124731462Y-107929362D01*
X125009350Y-107513474D01*
X125082300Y-107146728D01*
X125082300Y-106213272D01*
X125107700Y-106213272D01*
X125107700Y-107146729D01*
X125180650Y-107513474D01*
X125458539Y-107929362D01*
X125874427Y-108207250D01*
X126365000Y-108304831D01*
X126855574Y-108207250D01*
X127271462Y-107929362D01*
X127549350Y-107513474D01*
X127622300Y-107146728D01*
X127622300Y-106260653D01*
X128066800Y-106260653D01*
X128066800Y-107099347D01*
X128387754Y-107874199D01*
X128980801Y-108467246D01*
X129755653Y-108788200D01*
X130594347Y-108788200D01*
X131369199Y-108467246D01*
X131962246Y-107874199D01*
X132283200Y-107099347D01*
X132283200Y-106260653D01*
X131962246Y-105485801D01*
X131369199Y-104892754D01*
X130594347Y-104571800D01*
X129755653Y-104571800D01*
X128980801Y-104892754D01*
X128387754Y-105485801D01*
X128066800Y-106260653D01*
X127622300Y-106260653D01*
X127622300Y-106213271D01*
X127549350Y-105846526D01*
X127271462Y-105430638D01*
X126855573Y-105152750D01*
X126365000Y-105055169D01*
X125874426Y-105152750D01*
X125458538Y-105430638D01*
X125180650Y-105846527D01*
X125107700Y-106213272D01*
X125082300Y-106213272D01*
X125082300Y-106213271D01*
X125009350Y-105846526D01*
X124738057Y-105440508D01*
X124754900Y-105443858D01*
X124797422Y-105435400D01*
X124797426Y-105435400D01*
X124923380Y-105410346D01*
X125066210Y-105314910D01*
X125090300Y-105278857D01*
X125132957Y-105236200D01*
X125169010Y-105212110D01*
X125264446Y-105069280D01*
X125289500Y-104943326D01*
X125289500Y-104943323D01*
X125297958Y-104900801D01*
X125289500Y-104858279D01*
X125289500Y-101402421D01*
X125297958Y-101359899D01*
X125289500Y-101317375D01*
X125289500Y-101317374D01*
X125264446Y-101191420D01*
X125169010Y-101048590D01*
X125132958Y-101024501D01*
X124708900Y-100600443D01*
X124684810Y-100564390D01*
X124541980Y-100468954D01*
X124416026Y-100443900D01*
X124416022Y-100443900D01*
X124373500Y-100435442D01*
X124330978Y-100443900D01*
X122429785Y-100443900D01*
X122312492Y-100326607D01*
X122074436Y-100228000D01*
X121816764Y-100228000D01*
X121578708Y-100326607D01*
X121396507Y-100508808D01*
X121297900Y-100746864D01*
X121297900Y-101004536D01*
X121322254Y-101063331D01*
X116418584Y-101063331D01*
X116222465Y-100589857D01*
X115820143Y-100187535D01*
X115294484Y-99969800D01*
X114725516Y-99969800D01*
X114199857Y-100187535D01*
X113797535Y-100589857D01*
X113601416Y-101063331D01*
X111610000Y-101063331D01*
X111481162Y-101088958D01*
X111371939Y-101161939D01*
X111298958Y-101271162D01*
X111273331Y-101400000D01*
X111273331Y-104676800D01*
X107166669Y-104676800D01*
X107166669Y-101400000D01*
X107141042Y-101271162D01*
X107068061Y-101161939D01*
X106958838Y-101088958D01*
X106830000Y-101063331D01*
X98638584Y-101063331D01*
X98442465Y-100589857D01*
X98040143Y-100187535D01*
X97514484Y-99969800D01*
X96945516Y-99969800D01*
X96419857Y-100187535D01*
X96017535Y-100589857D01*
X95821416Y-101063331D01*
X93830000Y-101063331D01*
X93701162Y-101088958D01*
X93591939Y-101161939D01*
X93518958Y-101271162D01*
X93493331Y-101400000D01*
X93493331Y-104249374D01*
X93166800Y-103922843D01*
X93166800Y-102002621D01*
X93175258Y-101960099D01*
X93166800Y-101917575D01*
X93166800Y-101917574D01*
X93141746Y-101791620D01*
X93046310Y-101648790D01*
X93010258Y-101624701D01*
X87960700Y-96575143D01*
X87960700Y-94665750D01*
X96775000Y-94665750D01*
X96775000Y-95006309D01*
X96871673Y-95239698D01*
X97050301Y-95418327D01*
X97283690Y-95515000D01*
X98324250Y-95515000D01*
X98483000Y-95356250D01*
X98483000Y-94507000D01*
X98737000Y-94507000D01*
X98737000Y-95356250D01*
X98895750Y-95515000D01*
X99936310Y-95515000D01*
X100169699Y-95418327D01*
X100348327Y-95239698D01*
X100445000Y-95006309D01*
X100445000Y-94665750D01*
X100286250Y-94507000D01*
X98737000Y-94507000D01*
X98483000Y-94507000D01*
X96933750Y-94507000D01*
X96775000Y-94665750D01*
X87960700Y-94665750D01*
X87960700Y-93753691D01*
X96775000Y-93753691D01*
X96775000Y-94094250D01*
X96933750Y-94253000D01*
X98483000Y-94253000D01*
X98483000Y-93403750D01*
X98737000Y-93403750D01*
X98737000Y-94253000D01*
X100286250Y-94253000D01*
X100445000Y-94094250D01*
X100445000Y-94003026D01*
X100490301Y-94048327D01*
X100723690Y-94145000D01*
X101764250Y-94145000D01*
X101923000Y-93986250D01*
X101923000Y-93137000D01*
X102177000Y-93137000D01*
X102177000Y-93986250D01*
X102335750Y-94145000D01*
X103376310Y-94145000D01*
X103609699Y-94048327D01*
X103788327Y-93869698D01*
X103885000Y-93636309D01*
X103885000Y-93295750D01*
X103726250Y-93137000D01*
X102177000Y-93137000D01*
X101923000Y-93137000D01*
X100373750Y-93137000D01*
X100215000Y-93295750D01*
X100215000Y-93386974D01*
X100169699Y-93341673D01*
X99936310Y-93245000D01*
X98895750Y-93245000D01*
X98737000Y-93403750D01*
X98483000Y-93403750D01*
X98324250Y-93245000D01*
X97283690Y-93245000D01*
X97050301Y-93341673D01*
X96871673Y-93520302D01*
X96775000Y-93753691D01*
X87960700Y-93753691D01*
X87960700Y-86009303D01*
X92570300Y-86009303D01*
X92570300Y-86317497D01*
X92608400Y-86409479D01*
X92608400Y-86598860D01*
X92593971Y-86671400D01*
X92608400Y-86743940D01*
X92608400Y-86743944D01*
X92651139Y-86958807D01*
X92713849Y-87052658D01*
X92772849Y-87140958D01*
X92772851Y-87140960D01*
X92813943Y-87202458D01*
X92875440Y-87243549D01*
X96371451Y-90739561D01*
X96412542Y-90801058D01*
X96474039Y-90842149D01*
X96474041Y-90842151D01*
X96565707Y-90903400D01*
X96656193Y-90963861D01*
X96871056Y-91006600D01*
X96871059Y-91006600D01*
X96943600Y-91021029D01*
X97016140Y-91006600D01*
X97102006Y-91006600D01*
X97098958Y-91011162D01*
X97073331Y-91140000D01*
X97073331Y-92140000D01*
X97098958Y-92268838D01*
X97171939Y-92378061D01*
X97281162Y-92451042D01*
X97410000Y-92476669D01*
X99810000Y-92476669D01*
X99938838Y-92451042D01*
X100048061Y-92378061D01*
X100049037Y-92376600D01*
X100217937Y-92376600D01*
X100215000Y-92383691D01*
X100215000Y-92724250D01*
X100373750Y-92883000D01*
X101923000Y-92883000D01*
X101923000Y-92033750D01*
X102177000Y-92033750D01*
X102177000Y-92883000D01*
X103726250Y-92883000D01*
X103885000Y-92724250D01*
X103885000Y-92383691D01*
X103788327Y-92150302D01*
X103609699Y-91971673D01*
X103376310Y-91875000D01*
X102335750Y-91875000D01*
X102177000Y-92033750D01*
X101923000Y-92033750D01*
X101764250Y-91875000D01*
X101480191Y-91875000D01*
X101577559Y-91777632D01*
X101695500Y-91492897D01*
X101695500Y-91184703D01*
X101663177Y-91106669D01*
X103250000Y-91106669D01*
X103378838Y-91081042D01*
X103488061Y-91008061D01*
X103561042Y-90898838D01*
X103586669Y-90770000D01*
X103586669Y-89770000D01*
X103561042Y-89641162D01*
X103488061Y-89531939D01*
X103378838Y-89458958D01*
X103250000Y-89433331D01*
X100850000Y-89433331D01*
X100721162Y-89458958D01*
X100611939Y-89531939D01*
X100610963Y-89533400D01*
X100442063Y-89533400D01*
X100445000Y-89526309D01*
X100445000Y-89185750D01*
X100286250Y-89027000D01*
X98737000Y-89027000D01*
X98737000Y-89047000D01*
X98483000Y-89047000D01*
X98483000Y-89027000D01*
X96933750Y-89027000D01*
X96838030Y-89122720D01*
X95989001Y-88273691D01*
X96775000Y-88273691D01*
X96775000Y-88614250D01*
X96933750Y-88773000D01*
X98483000Y-88773000D01*
X98483000Y-87923750D01*
X98324250Y-87765000D01*
X97283690Y-87765000D01*
X97050301Y-87861673D01*
X96871673Y-88040302D01*
X96775000Y-88273691D01*
X95989001Y-88273691D01*
X94094249Y-86378940D01*
X94119700Y-86317497D01*
X94119700Y-86009303D01*
X94001759Y-85724568D01*
X93783832Y-85506641D01*
X93499097Y-85388700D01*
X93190903Y-85388700D01*
X92906168Y-85506641D01*
X92688241Y-85724568D01*
X92570300Y-86009303D01*
X87960700Y-86009303D01*
X87960700Y-83705750D01*
X96775000Y-83705750D01*
X96775000Y-84046309D01*
X96871673Y-84279698D01*
X97050301Y-84458327D01*
X97283690Y-84555000D01*
X98324250Y-84555000D01*
X98483000Y-84396250D01*
X98483000Y-83547000D01*
X96933750Y-83547000D01*
X96775000Y-83705750D01*
X87960700Y-83705750D01*
X87960700Y-82793691D01*
X96775000Y-82793691D01*
X96775000Y-83134250D01*
X96933750Y-83293000D01*
X98483000Y-83293000D01*
X98483000Y-82443750D01*
X98324250Y-82285000D01*
X97283690Y-82285000D01*
X97050301Y-82381673D01*
X96871673Y-82560302D01*
X96775000Y-82793691D01*
X87960700Y-82793691D01*
X87960700Y-77607145D01*
X88340801Y-77987246D01*
X89115653Y-78308200D01*
X89954347Y-78308200D01*
X90729199Y-77987246D01*
X91322246Y-77394199D01*
X91643200Y-76619347D01*
X91643200Y-76027209D01*
X94093951Y-78477961D01*
X94135042Y-78539458D01*
X94196539Y-78580549D01*
X94196541Y-78580551D01*
X94244506Y-78612600D01*
X94378693Y-78702261D01*
X94593556Y-78745000D01*
X94593559Y-78745000D01*
X94666100Y-78759429D01*
X94738640Y-78745000D01*
X108939891Y-78745000D01*
X114084451Y-83889561D01*
X114125542Y-83951058D01*
X114187039Y-83992149D01*
X114187041Y-83992151D01*
X114278707Y-84053400D01*
X114369193Y-84113861D01*
X114584056Y-84156600D01*
X114584059Y-84156600D01*
X114656599Y-84171029D01*
X114729140Y-84156600D01*
X114950963Y-84156600D01*
X114951939Y-84158061D01*
X115061162Y-84231042D01*
X115190000Y-84256669D01*
X117399874Y-84256669D01*
X117228343Y-84428200D01*
X115655521Y-84428200D01*
X115612999Y-84419742D01*
X115570477Y-84428200D01*
X115570474Y-84428200D01*
X115447562Y-84452649D01*
X115444520Y-84453254D01*
X115337741Y-84524601D01*
X115337740Y-84524602D01*
X115301690Y-84548690D01*
X115277602Y-84584740D01*
X109479100Y-90383243D01*
X109479100Y-82887685D01*
X109596393Y-82770392D01*
X109695000Y-82532336D01*
X109695000Y-82274664D01*
X109596393Y-82036608D01*
X109414192Y-81854407D01*
X109176136Y-81755800D01*
X108918464Y-81755800D01*
X108680408Y-81854407D01*
X108498207Y-82036608D01*
X108399600Y-82274664D01*
X108399600Y-82532336D01*
X108498207Y-82770392D01*
X108615500Y-82887685D01*
X108615500Y-83376591D01*
X108550951Y-83312042D01*
X108509858Y-83250542D01*
X108266207Y-83087739D01*
X108051344Y-83045000D01*
X108051340Y-83045000D01*
X107978800Y-83030571D01*
X107906260Y-83045000D01*
X100712040Y-83045000D01*
X100639499Y-83030571D01*
X100566959Y-83045000D01*
X100566956Y-83045000D01*
X100445000Y-83069259D01*
X100445000Y-82793691D01*
X100348327Y-82560302D01*
X100169699Y-82381673D01*
X99936310Y-82285000D01*
X98895750Y-82285000D01*
X98737000Y-82443750D01*
X98737000Y-83293000D01*
X98757000Y-83293000D01*
X98757000Y-83547000D01*
X98737000Y-83547000D01*
X98737000Y-84396250D01*
X98895750Y-84555000D01*
X99173290Y-84555000D01*
X98404960Y-85323331D01*
X97410000Y-85323331D01*
X97281162Y-85348958D01*
X97171939Y-85421939D01*
X97098958Y-85531162D01*
X97073331Y-85660000D01*
X97073331Y-86660000D01*
X97098958Y-86788838D01*
X97171939Y-86898061D01*
X97281162Y-86971042D01*
X97410000Y-86996669D01*
X98718179Y-86996669D01*
X98688300Y-87068803D01*
X98688300Y-87376997D01*
X98806241Y-87661732D01*
X98909509Y-87765000D01*
X98895750Y-87765000D01*
X98737000Y-87923750D01*
X98737000Y-88773000D01*
X100286250Y-88773000D01*
X100445000Y-88614250D01*
X100445000Y-88523026D01*
X100490301Y-88568327D01*
X100723690Y-88665000D01*
X101764250Y-88665000D01*
X101923000Y-88506250D01*
X101923000Y-87657000D01*
X102177000Y-87657000D01*
X102177000Y-88506250D01*
X102335750Y-88665000D01*
X103376310Y-88665000D01*
X103609699Y-88568327D01*
X103788327Y-88389698D01*
X103885000Y-88156309D01*
X103885000Y-87815750D01*
X103726250Y-87657000D01*
X102177000Y-87657000D01*
X101923000Y-87657000D01*
X101903000Y-87657000D01*
X101903000Y-87403000D01*
X101923000Y-87403000D01*
X101923000Y-86553750D01*
X102177000Y-86553750D01*
X102177000Y-87403000D01*
X103726250Y-87403000D01*
X103885000Y-87244250D01*
X103885000Y-86903691D01*
X103788327Y-86670302D01*
X103609699Y-86491673D01*
X103376310Y-86395000D01*
X102335750Y-86395000D01*
X102177000Y-86553750D01*
X101923000Y-86553750D01*
X101764250Y-86395000D01*
X101486709Y-86395000D01*
X102255041Y-85626669D01*
X103250000Y-85626669D01*
X103378838Y-85601042D01*
X103488061Y-85528061D01*
X103561042Y-85418838D01*
X103586669Y-85290000D01*
X103586669Y-84518200D01*
X107673691Y-84518200D01*
X107698941Y-84543450D01*
X107737041Y-84635432D01*
X107954968Y-84853359D01*
X108239703Y-84971300D01*
X108547897Y-84971300D01*
X108615500Y-84943298D01*
X108615501Y-90406542D01*
X108102243Y-90919800D01*
X108066190Y-90943890D01*
X107970754Y-91086721D01*
X107945700Y-91212675D01*
X107945700Y-91212678D01*
X107937242Y-91255200D01*
X107945700Y-91297722D01*
X107945701Y-96955673D01*
X107937242Y-96998200D01*
X107970754Y-97166679D01*
X108042101Y-97273458D01*
X108042103Y-97273460D01*
X108066191Y-97309510D01*
X108102241Y-97333598D01*
X110112200Y-99343557D01*
X110136290Y-99379610D01*
X110279120Y-99475046D01*
X110405074Y-99500100D01*
X110405078Y-99500100D01*
X110447599Y-99508558D01*
X110490120Y-99500100D01*
X115472383Y-99500100D01*
X115693764Y-99591800D01*
X115951436Y-99591800D01*
X116189492Y-99493193D01*
X116371693Y-99310992D01*
X116470300Y-99072936D01*
X116470300Y-98815264D01*
X116459338Y-98788800D01*
X130225878Y-98788800D01*
X130268400Y-98797258D01*
X130310922Y-98788800D01*
X130310926Y-98788800D01*
X130436880Y-98763746D01*
X130579710Y-98668310D01*
X130603799Y-98632258D01*
X130886385Y-98349673D01*
X131038568Y-98577432D01*
X131399845Y-98818829D01*
X131718431Y-98882200D01*
X132385043Y-98882200D01*
X132359643Y-98907600D01*
X132122526Y-98907600D01*
X132080000Y-98899141D01*
X132037474Y-98907600D01*
X131911520Y-98932654D01*
X131768690Y-99028090D01*
X131673254Y-99170920D01*
X131657541Y-99249912D01*
X131399845Y-99301171D01*
X131038568Y-99542568D01*
X130797171Y-99903845D01*
X130712403Y-100330000D01*
X130797171Y-100756155D01*
X131038568Y-101117432D01*
X131399845Y-101358829D01*
X131718431Y-101422200D01*
X132441569Y-101422200D01*
X132760155Y-101358829D01*
X133121432Y-101117432D01*
X133362829Y-100756155D01*
X133447597Y-100330000D01*
X135792403Y-100330000D01*
X135877171Y-100756155D01*
X136118568Y-101117432D01*
X136479845Y-101358829D01*
X136798431Y-101422200D01*
X137521569Y-101422200D01*
X137840155Y-101358829D01*
X138201432Y-101117432D01*
X138442829Y-100756155D01*
X138527597Y-100330000D01*
X138442829Y-99903845D01*
X138201432Y-99542568D01*
X137840155Y-99301171D01*
X137521569Y-99237800D01*
X136798431Y-99237800D01*
X136479845Y-99301171D01*
X136118568Y-99542568D01*
X135877171Y-99903845D01*
X135792403Y-100330000D01*
X133447597Y-100330000D01*
X133362829Y-99903845D01*
X133121432Y-99542568D01*
X133016262Y-99472295D01*
X134698557Y-97790000D01*
X135792403Y-97790000D01*
X135877171Y-98216155D01*
X136118568Y-98577432D01*
X136479845Y-98818829D01*
X136798431Y-98882200D01*
X137521569Y-98882200D01*
X137840155Y-98818829D01*
X138201432Y-98577432D01*
X138442829Y-98216155D01*
X138527597Y-97790000D01*
X138442829Y-97363845D01*
X138201432Y-97002568D01*
X137840155Y-96761171D01*
X137521569Y-96697800D01*
X136798431Y-96697800D01*
X136479845Y-96761171D01*
X136118568Y-97002568D01*
X135877171Y-97363845D01*
X135792403Y-97790000D01*
X134698557Y-97790000D01*
X134928458Y-97560099D01*
X134964510Y-97536010D01*
X135059946Y-97393180D01*
X135085000Y-97267226D01*
X135085000Y-97267222D01*
X135093458Y-97224701D01*
X135085000Y-97182180D01*
X135085000Y-95250000D01*
X135792403Y-95250000D01*
X135877171Y-95676155D01*
X136118568Y-96037432D01*
X136479845Y-96278829D01*
X136798431Y-96342200D01*
X137521569Y-96342200D01*
X137840155Y-96278829D01*
X138201432Y-96037432D01*
X138442829Y-95676155D01*
X138527597Y-95250000D01*
X138442829Y-94823845D01*
X138201432Y-94462568D01*
X137840155Y-94221171D01*
X137521569Y-94157800D01*
X136798431Y-94157800D01*
X136479845Y-94221171D01*
X136118568Y-94462568D01*
X135877171Y-94823845D01*
X135792403Y-95250000D01*
X135085000Y-95250000D01*
X135085000Y-92710000D01*
X135792403Y-92710000D01*
X135877171Y-93136155D01*
X136118568Y-93497432D01*
X136479845Y-93738829D01*
X136798431Y-93802200D01*
X137521569Y-93802200D01*
X137840155Y-93738829D01*
X138201432Y-93497432D01*
X138442829Y-93136155D01*
X138527597Y-92710000D01*
X138442829Y-92283845D01*
X138201432Y-91922568D01*
X137840155Y-91681171D01*
X137521569Y-91617800D01*
X136798431Y-91617800D01*
X136479845Y-91681171D01*
X136118568Y-91922568D01*
X135877171Y-92283845D01*
X135792403Y-92710000D01*
X135085000Y-92710000D01*
X135085000Y-90170000D01*
X135792403Y-90170000D01*
X135877171Y-90596155D01*
X136118568Y-90957432D01*
X136479845Y-91198829D01*
X136798431Y-91262200D01*
X137521569Y-91262200D01*
X137840155Y-91198829D01*
X138201432Y-90957432D01*
X138442829Y-90596155D01*
X138527597Y-90170000D01*
X138442829Y-89743845D01*
X138201432Y-89382568D01*
X137840155Y-89141171D01*
X137521569Y-89077800D01*
X136798431Y-89077800D01*
X136479845Y-89141171D01*
X136118568Y-89382568D01*
X135877171Y-89743845D01*
X135792403Y-90170000D01*
X135085000Y-90170000D01*
X135085000Y-88209326D01*
X135093459Y-88166800D01*
X135059946Y-87998320D01*
X134988599Y-87891541D01*
X134988598Y-87891540D01*
X134964510Y-87855490D01*
X134928460Y-87831402D01*
X134727058Y-87630000D01*
X135792403Y-87630000D01*
X135877171Y-88056155D01*
X136118568Y-88417432D01*
X136479845Y-88658829D01*
X136798431Y-88722200D01*
X137521569Y-88722200D01*
X137840155Y-88658829D01*
X138201432Y-88417432D01*
X138442829Y-88056155D01*
X138527597Y-87630000D01*
X138442829Y-87203845D01*
X138201432Y-86842568D01*
X137840155Y-86601171D01*
X137521569Y-86537800D01*
X136798431Y-86537800D01*
X136479845Y-86601171D01*
X136118568Y-86842568D01*
X135877171Y-87203845D01*
X135792403Y-87630000D01*
X134727058Y-87630000D01*
X133164100Y-86067042D01*
X133140010Y-86030990D01*
X133015813Y-85948004D01*
X133121432Y-85877432D01*
X133362829Y-85516155D01*
X133447597Y-85090000D01*
X135792403Y-85090000D01*
X135877171Y-85516155D01*
X136118568Y-85877432D01*
X136479845Y-86118829D01*
X136798431Y-86182200D01*
X137521569Y-86182200D01*
X137840155Y-86118829D01*
X138201432Y-85877432D01*
X138288108Y-85747712D01*
X138477658Y-85621058D01*
X138518751Y-85559558D01*
X138641709Y-85436600D01*
X138661019Y-85436600D01*
X139050500Y-86019500D01*
X139655892Y-86424010D01*
X140189745Y-86530200D01*
X140208876Y-86530200D01*
X140176139Y-86579194D01*
X140118971Y-86866600D01*
X140133401Y-86939145D01*
X140133401Y-87081008D01*
X139655892Y-87175990D01*
X139050500Y-87580500D01*
X138645990Y-88185892D01*
X138503945Y-88900000D01*
X138645990Y-89614108D01*
X139050500Y-90219500D01*
X139655892Y-90624010D01*
X140189745Y-90730200D01*
X141550255Y-90730200D01*
X142084108Y-90624010D01*
X142689500Y-90219500D01*
X143094010Y-89614108D01*
X143144787Y-89358833D01*
X143784887Y-89358833D01*
X143848916Y-89599696D01*
X144270524Y-90319870D01*
X144935638Y-90823882D01*
X145609152Y-91000000D01*
X144935638Y-91176118D01*
X144270524Y-91680130D01*
X143848916Y-92400304D01*
X143784887Y-92641167D01*
X143897835Y-92973000D01*
X146243000Y-92973000D01*
X146243000Y-89027000D01*
X146497000Y-89027000D01*
X146497000Y-92973000D01*
X148842165Y-92973000D01*
X148955113Y-92641167D01*
X148891084Y-92400304D01*
X148469476Y-91680130D01*
X147804362Y-91176118D01*
X147130848Y-91000000D01*
X147804362Y-90823882D01*
X148469476Y-90319870D01*
X148891084Y-89599696D01*
X148955113Y-89358833D01*
X148842165Y-89027000D01*
X146497000Y-89027000D01*
X146243000Y-89027000D01*
X143897835Y-89027000D01*
X143784887Y-89358833D01*
X143144787Y-89358833D01*
X143236055Y-88900000D01*
X143094010Y-88185892D01*
X142689500Y-87580500D01*
X142559096Y-87493367D01*
X142594599Y-87500429D01*
X142667138Y-87486000D01*
X144267088Y-87486000D01*
X143848916Y-88200304D01*
X143784887Y-88441167D01*
X143897835Y-88773000D01*
X146243000Y-88773000D01*
X146243000Y-88753000D01*
X146497000Y-88753000D01*
X146497000Y-88773000D01*
X148842165Y-88773000D01*
X148955113Y-88441167D01*
X148891084Y-88200304D01*
X148472912Y-87486000D01*
X148528760Y-87486000D01*
X148601300Y-87500429D01*
X148673840Y-87486000D01*
X148673844Y-87486000D01*
X148888707Y-87443261D01*
X149132358Y-87280458D01*
X149173451Y-87218958D01*
X150829558Y-85562851D01*
X150891058Y-85521758D01*
X151053861Y-85278107D01*
X151096600Y-85063244D01*
X151096600Y-85063240D01*
X151111029Y-84990701D01*
X151096600Y-84918162D01*
X151096600Y-74951033D01*
X151275749Y-74771884D01*
X151440200Y-74374865D01*
X151440200Y-73945135D01*
X151275749Y-73548116D01*
X150971884Y-73244251D01*
X150574865Y-73079800D01*
X150304858Y-73079800D01*
X150635261Y-72749397D01*
X150671310Y-72725310D01*
X150736317Y-72628021D01*
X150766746Y-72582480D01*
X150800259Y-72414000D01*
X150791800Y-72371474D01*
X150791800Y-71610342D01*
X150971884Y-71535749D01*
X151275749Y-71231884D01*
X151440200Y-70834865D01*
X151440200Y-70405135D01*
X151275749Y-70008116D01*
X150971884Y-69704251D01*
X150574865Y-69539800D01*
X150145135Y-69539800D01*
X149748116Y-69704251D01*
X149444251Y-70008116D01*
X149279800Y-70405135D01*
X149279800Y-70834865D01*
X149444251Y-71231884D01*
X149748116Y-71535749D01*
X149928200Y-71610343D01*
X149928200Y-71969640D01*
X149802460Y-71666077D01*
X149561517Y-71598088D01*
X148769605Y-72390000D01*
X148783748Y-72404143D01*
X148604143Y-72583748D01*
X148590000Y-72569605D01*
X147798088Y-73361517D01*
X147866077Y-73602460D01*
X148385171Y-73787201D01*
X148935448Y-73759230D01*
X149045472Y-73713657D01*
X149144008Y-73812193D01*
X149306916Y-73879672D01*
X149279800Y-73945135D01*
X149279800Y-74374865D01*
X149444251Y-74771884D01*
X149623400Y-74951033D01*
X149623401Y-84685590D01*
X149005000Y-85303991D01*
X149005000Y-84985750D01*
X148846250Y-84827000D01*
X146497000Y-84827000D01*
X146497000Y-84847000D01*
X146243000Y-84847000D01*
X146243000Y-84827000D01*
X143893750Y-84827000D01*
X143735000Y-84985750D01*
X143735000Y-86012800D01*
X142899709Y-86012800D01*
X142776382Y-85889473D01*
X143094010Y-85414108D01*
X143236055Y-84700000D01*
X143094010Y-83985892D01*
X142689500Y-83380500D01*
X142230328Y-83073691D01*
X143735000Y-83073691D01*
X143735000Y-84414250D01*
X143893750Y-84573000D01*
X146243000Y-84573000D01*
X146243000Y-82723750D01*
X146497000Y-82723750D01*
X146497000Y-84573000D01*
X148846250Y-84573000D01*
X149005000Y-84414250D01*
X149005000Y-83073691D01*
X148908327Y-82840302D01*
X148729699Y-82661673D01*
X148496310Y-82565000D01*
X146655750Y-82565000D01*
X146497000Y-82723750D01*
X146243000Y-82723750D01*
X146084250Y-82565000D01*
X144243690Y-82565000D01*
X144010301Y-82661673D01*
X143831673Y-82840302D01*
X143735000Y-83073691D01*
X142230328Y-83073691D01*
X142084108Y-82975990D01*
X141550255Y-82869800D01*
X140189745Y-82869800D01*
X139655892Y-82975990D01*
X139050500Y-83380500D01*
X138661019Y-83963400D01*
X138409140Y-83963400D01*
X138336599Y-83948971D01*
X138264059Y-83963400D01*
X138264056Y-83963400D01*
X138049193Y-84006139D01*
X137903494Y-84103492D01*
X137840155Y-84061171D01*
X137521569Y-83997800D01*
X136798431Y-83997800D01*
X136479845Y-84061171D01*
X136118568Y-84302568D01*
X135877171Y-84663845D01*
X135792403Y-85090000D01*
X133447597Y-85090000D01*
X133362829Y-84663845D01*
X133121432Y-84302568D01*
X132935002Y-84178000D01*
X135143915Y-84178000D01*
X135235808Y-84269893D01*
X135473864Y-84368500D01*
X135731536Y-84368500D01*
X135969592Y-84269893D01*
X136151793Y-84087692D01*
X136250400Y-83849636D01*
X136250400Y-83591964D01*
X136155071Y-83361823D01*
X136479845Y-83578829D01*
X136798431Y-83642200D01*
X137521569Y-83642200D01*
X137840155Y-83578829D01*
X138201432Y-83337432D01*
X138442829Y-82976155D01*
X138527597Y-82550000D01*
X138442829Y-82123845D01*
X138201432Y-81762568D01*
X137840155Y-81521171D01*
X137521569Y-81457800D01*
X136798431Y-81457800D01*
X136479845Y-81521171D01*
X136118568Y-81762568D01*
X135877171Y-82123845D01*
X135792403Y-82550000D01*
X135877171Y-82976155D01*
X136084841Y-83286956D01*
X135969592Y-83171707D01*
X135731536Y-83073100D01*
X135473864Y-83073100D01*
X135235808Y-83171707D01*
X135143915Y-83263600D01*
X133170765Y-83263600D01*
X133362829Y-82976155D01*
X133447597Y-82550000D01*
X133362829Y-82123845D01*
X133121432Y-81762568D01*
X132760155Y-81521171D01*
X132441569Y-81457800D01*
X131718431Y-81457800D01*
X131399845Y-81521171D01*
X131038568Y-81762568D01*
X130797171Y-82123845D01*
X130712403Y-82550000D01*
X130797171Y-82976155D01*
X130989235Y-83263600D01*
X129712785Y-83263600D01*
X129620892Y-83171707D01*
X129382836Y-83073100D01*
X129125164Y-83073100D01*
X128887108Y-83171707D01*
X128704907Y-83353908D01*
X128606300Y-83591964D01*
X128606300Y-83849636D01*
X128704907Y-84087692D01*
X128887108Y-84269893D01*
X129125164Y-84368500D01*
X129382836Y-84368500D01*
X129620892Y-84269893D01*
X129712785Y-84178000D01*
X131224998Y-84178000D01*
X131038568Y-84302568D01*
X130797171Y-84663845D01*
X130712403Y-85090000D01*
X130797171Y-85516155D01*
X131038568Y-85877432D01*
X131088058Y-85910500D01*
X130480758Y-85910500D01*
X127193200Y-82622943D01*
X127193200Y-82457064D01*
X127094593Y-82219008D01*
X126937521Y-82061936D01*
X129523257Y-79476200D01*
X130869097Y-79476200D01*
X130797171Y-79583845D01*
X130712403Y-80010000D01*
X130797171Y-80436155D01*
X131038568Y-80797432D01*
X131399845Y-81038829D01*
X131718431Y-81102200D01*
X132441569Y-81102200D01*
X132760155Y-81038829D01*
X133121432Y-80797432D01*
X133362829Y-80436155D01*
X133447597Y-80010000D01*
X133362829Y-79583845D01*
X133290903Y-79476200D01*
X135949097Y-79476200D01*
X135877171Y-79583845D01*
X135792403Y-80010000D01*
X135877171Y-80436155D01*
X136118568Y-80797432D01*
X136479845Y-81038829D01*
X136798431Y-81102200D01*
X137521569Y-81102200D01*
X137840155Y-81038829D01*
X138201432Y-80797432D01*
X138442829Y-80436155D01*
X138527597Y-80010000D01*
X138442829Y-79583845D01*
X138201432Y-79222568D01*
X137869487Y-79000770D01*
X138684558Y-78185699D01*
X138720610Y-78161610D01*
X138816046Y-78018780D01*
X138841100Y-77892826D01*
X138841100Y-77892822D01*
X138849558Y-77850301D01*
X138841100Y-77807780D01*
X138841100Y-76595420D01*
X138849558Y-76552899D01*
X138841100Y-76510378D01*
X138841100Y-76510374D01*
X138816046Y-76384420D01*
X138720610Y-76241590D01*
X138684557Y-76217500D01*
X135991600Y-73524543D01*
X135967510Y-73488490D01*
X135824680Y-73393054D01*
X135698726Y-73368000D01*
X135698722Y-73368000D01*
X135656200Y-73359542D01*
X135613678Y-73368000D01*
X127108757Y-73368000D01*
X126465581Y-72724824D01*
X126855574Y-72647250D01*
X127271462Y-72369362D01*
X127549350Y-71953474D01*
X127622300Y-71586728D01*
X127622300Y-70700653D01*
X128066800Y-70700653D01*
X128066800Y-71539347D01*
X128387754Y-72314199D01*
X128980801Y-72907246D01*
X129755653Y-73228200D01*
X130594347Y-73228200D01*
X131369199Y-72907246D01*
X131962246Y-72314199D01*
X132283200Y-71539347D01*
X132283200Y-70700653D01*
X131962246Y-69925801D01*
X131369199Y-69332754D01*
X130594347Y-69011800D01*
X129755653Y-69011800D01*
X128980801Y-69332754D01*
X128387754Y-69925801D01*
X128066800Y-70700653D01*
X127622300Y-70700653D01*
X127622300Y-70653271D01*
X127549350Y-70286526D01*
X127271462Y-69870638D01*
X126855573Y-69592750D01*
X126365000Y-69495169D01*
X125874426Y-69592750D01*
X125458538Y-69870638D01*
X125180650Y-70286527D01*
X125107700Y-70653272D01*
X125107700Y-71586729D01*
X125180650Y-71953474D01*
X125455424Y-72364700D01*
X124734577Y-72364700D01*
X125009350Y-71953474D01*
X125082300Y-71586728D01*
X125082300Y-70653271D01*
X125009350Y-70286526D01*
X124731462Y-69870638D01*
X124315573Y-69592750D01*
X123825000Y-69495169D01*
X123334426Y-69592750D01*
X122918538Y-69870638D01*
X122640650Y-70286527D01*
X122567700Y-70653272D01*
X122567700Y-71586729D01*
X122640650Y-71953474D01*
X122915424Y-72364700D01*
X122194577Y-72364700D01*
X122469350Y-71953474D01*
X122542300Y-71586728D01*
X122542300Y-70653271D01*
X122469350Y-70286526D01*
X122191462Y-69870638D01*
X121775573Y-69592750D01*
X121285000Y-69495169D01*
X120794426Y-69592750D01*
X120378538Y-69870638D01*
X120100650Y-70286527D01*
X120027700Y-70653272D01*
X120027700Y-71586729D01*
X120100650Y-71953474D01*
X120375424Y-72364700D01*
X119654577Y-72364700D01*
X119929350Y-71953474D01*
X120002300Y-71586728D01*
X120002300Y-70653271D01*
X119929350Y-70286526D01*
X119651462Y-69870638D01*
X119235573Y-69592750D01*
X118745000Y-69495169D01*
X118254426Y-69592750D01*
X117838538Y-69870638D01*
X117560650Y-70286527D01*
X117487700Y-70653272D01*
X117487700Y-71586729D01*
X117560650Y-71953474D01*
X117835424Y-72364700D01*
X117114577Y-72364700D01*
X117389350Y-71953474D01*
X117462300Y-71586728D01*
X117462300Y-70653271D01*
X117389350Y-70286526D01*
X117111462Y-69870638D01*
X116695573Y-69592750D01*
X116205000Y-69495169D01*
X115714426Y-69592750D01*
X115298538Y-69870638D01*
X115020650Y-70286527D01*
X114947700Y-70653272D01*
X114947700Y-71586729D01*
X115020650Y-71953474D01*
X115295424Y-72364700D01*
X114574577Y-72364700D01*
X114849350Y-71953474D01*
X114922300Y-71586728D01*
X114922300Y-70653271D01*
X114849350Y-70286526D01*
X114571462Y-69870638D01*
X114155573Y-69592750D01*
X113665000Y-69495169D01*
X113174426Y-69592750D01*
X112758538Y-69870638D01*
X112480650Y-70286527D01*
X112407700Y-70653272D01*
X112407700Y-71586729D01*
X112480650Y-71953474D01*
X112755424Y-72364700D01*
X112034577Y-72364700D01*
X112309350Y-71953474D01*
X112382300Y-71586728D01*
X112382300Y-70653271D01*
X112309350Y-70286526D01*
X112031462Y-69870638D01*
X111615573Y-69592750D01*
X111125000Y-69495169D01*
X110634426Y-69592750D01*
X110218538Y-69870638D01*
X109940650Y-70286527D01*
X109867700Y-70653272D01*
X109867700Y-70705003D01*
X109842300Y-70699951D01*
X109842300Y-70653271D01*
X109769350Y-70286526D01*
X109491462Y-69870638D01*
X109075573Y-69592750D01*
X108585000Y-69495169D01*
X108094426Y-69592750D01*
X107678538Y-69870638D01*
X107552630Y-70059073D01*
X106864700Y-69371143D01*
X106840610Y-69335090D01*
X106697780Y-69239654D01*
X106571826Y-69214600D01*
X106571822Y-69214600D01*
X106529300Y-69206142D01*
X106486778Y-69214600D01*
X105560422Y-69214600D01*
X105517900Y-69206142D01*
X105475378Y-69214600D01*
X105475374Y-69214600D01*
X105349420Y-69239654D01*
X105242641Y-69311001D01*
X105242640Y-69311002D01*
X105206590Y-69335090D01*
X105182502Y-69371140D01*
X104520227Y-70033416D01*
X104411462Y-69870638D01*
X103995573Y-69592750D01*
X103505000Y-69495169D01*
X103014426Y-69592750D01*
X102598538Y-69870638D01*
X102320650Y-70286527D01*
X102247700Y-70653272D01*
X102247700Y-71586729D01*
X102320650Y-71953474D01*
X102598539Y-72369362D01*
X103014427Y-72647250D01*
X103095272Y-72663331D01*
X101374729Y-72663331D01*
X101455574Y-72647250D01*
X101871462Y-72369362D01*
X102149350Y-71953474D01*
X102222300Y-71586728D01*
X102222300Y-70653271D01*
X102149350Y-70286526D01*
X101871462Y-69870638D01*
X101455573Y-69592750D01*
X100965000Y-69495169D01*
X100474426Y-69592750D01*
X100058538Y-69870638D01*
X99949733Y-70033476D01*
X99287400Y-69371143D01*
X99263310Y-69335090D01*
X99120480Y-69239654D01*
X98994526Y-69214600D01*
X98994522Y-69214600D01*
X98952000Y-69206142D01*
X98909478Y-69214600D01*
X90343421Y-69214600D01*
X90300899Y-69206142D01*
X90258377Y-69214600D01*
X90258374Y-69214600D01*
X90132420Y-69239654D01*
X89989590Y-69335090D01*
X89965500Y-69371143D01*
X89521780Y-69814863D01*
X89503142Y-69721162D01*
X89430161Y-69611939D01*
X89320938Y-69538958D01*
X89192100Y-69513331D01*
X87337900Y-69513331D01*
X87209062Y-69538958D01*
X87099839Y-69611939D01*
X87026858Y-69721162D01*
X87001231Y-69850000D01*
X86169500Y-69850000D01*
X86169500Y-68389500D01*
X141468349Y-68389500D01*
X141453331Y-68465000D01*
G04 #@! TD*
M02*
