M48
;DRILL file {KiCad 6.0.0-rc1-unknown-ab92882~66~ubuntu18.04.1} date Fri Sep 14 10:08:48 2018
;FORMAT={-:-/ absolute / metric / decimal}
FMAT,2
METRIC,TZ
T1C0.381
T2C0.635
T3C0.965
T4C1.000
T5C1.092
T6C1.800
T7C2.200
T8C3.000
T9C3.302
%
G90
G05
M71
T1
X94.69Y-98.078
X99.616Y-98.67
X106.93Y-98.392
X114.126Y-98.849
X116.752Y-97.041
X116.878Y-99.65
X117.29Y-96.439
X126.361Y-99.986
X132.984Y-81.523
X133.014Y-83.594
X134.73Y-100.834
X135.857Y-102.734
X137.277Y-105.275
T2
X87.243Y-87.062
X97.098Y-90.27
X100.818Y-84.79
X101.54Y-91.339
X108.478Y-78.698
X111.389Y-87.016
X124.041Y-83.587
T3
X132.08Y-77.47
X137.16Y-77.47
X132.08Y-80.01
X137.16Y-80.01
X132.08Y-97.79
X137.16Y-97.79
X132.08Y-85.09
X137.16Y-85.09
X132.08Y-82.55
X137.16Y-82.55
X139.7Y-96.52
X144.78Y-96.52
X132.08Y-92.71
X137.16Y-92.71
X132.08Y-100.33
X137.16Y-100.33
X132.08Y-87.63
X137.16Y-87.63
X132.08Y-90.17
X137.16Y-90.17
X132.08Y-95.25
X137.16Y-95.25
T4
X149.362Y-70.622
X149.362Y-74.158
X151.13Y-72.39
X152.898Y-70.622
X152.898Y-74.158
X149.362Y-103.642
X149.362Y-107.178
X151.13Y-105.41
X152.898Y-103.642
X152.898Y-107.178
T5
X88.265Y-71.12
X88.265Y-106.68
X90.805Y-71.12
X90.805Y-106.68
X93.345Y-71.12
X93.345Y-106.68
X95.885Y-71.12
X95.885Y-106.68
X98.425Y-71.12
X98.425Y-106.68
X100.965Y-71.12
X100.965Y-106.68
X103.505Y-71.12
X103.505Y-106.68
X106.045Y-71.12
X106.045Y-106.68
X108.585Y-71.12
X108.585Y-106.68
X111.125Y-71.12
X111.125Y-106.68
X113.665Y-71.12
X113.665Y-106.68
X116.205Y-71.12
X116.205Y-106.68
X118.745Y-71.12
X118.745Y-106.68
X121.285Y-71.12
X121.285Y-106.68
X123.825Y-71.12
X123.825Y-106.68
X126.365Y-71.12
X126.365Y-106.68
T6
X140.87Y-84.7
X140.87Y-88.9
X140.87Y-93.1
X146.37Y-84.7
X146.37Y-88.9
X146.37Y-93.1
X97.992Y-76.4
X97.992Y-101.4
X116.788Y-76.4
X116.788Y-101.4
T7
X144.13Y-72.39
X144.13Y-105.41
T8
X153.67Y-84.7
X153.67Y-93.1
T9
X89.535Y-76.2
X89.535Y-101.6
X130.175Y-71.12
X130.175Y-106.68
T0
M30
