M48
;DRILL file {KiCad 6.0.0-rc1-unknown-4b44cbe~66~ubuntu18.04.1} date Mon 29 Oct 2018 01:39:16 PM EDT
;FORMAT={-:-/ absolute / metric / decimal}
FMAT,2
METRIC
T1C0.381
T2C0.635
T3C0.965
T4C1.092
T5C1.100
T6C1.500
T7C1.800
T8C3.000
T9C3.302
%
G90
G05
M71
T1
X108.581Y-104.393
X108.698Y-95.373
X108.757Y-97.117
X109.103Y-96.014
X109.234Y-94.841
X111.169Y-103.918
X114.783Y-97.79
X116.995Y-84.81
X117.475Y-105.241
X119.07Y-91.232
X123.465Y-88.062
X123.563Y-94.831
X129.368Y-82.43
X130.62Y-100.411
X134.423Y-76.475
X135.758Y-76.501
X148.742Y-104.209
X149.463Y-71.469
T2
X95.775Y-87.168
X99.497Y-87.218
X101.323Y-81.242
X103.099Y-79.454
X108.394Y-84.197
X112.066Y-92.663
X116.699Y-90.27
X121.681Y-84.672
X150.36Y-105.435
T3
X132.08Y-80.01
X137.16Y-80.01
X132.08Y-90.17
X137.16Y-90.17
X132.08Y-82.55
X137.16Y-82.55
X132.08Y-92.71
X137.16Y-92.71
X139.7Y-96.52
X144.78Y-96.52
X132.08Y-97.79
X137.16Y-97.79
X132.08Y-87.63
X137.16Y-87.63
X132.08Y-85.09
X137.16Y-85.09
X132.08Y-95.25
X137.16Y-95.25
X132.08Y-100.33
X137.16Y-100.33
X132.08Y-77.47
X137.16Y-77.47
T4
X88.265Y-71.12
X88.265Y-106.68
X90.805Y-71.12
X90.805Y-106.68
X93.345Y-71.12
X93.345Y-106.68
X95.885Y-71.12
X95.885Y-106.68
X98.425Y-71.12
X98.425Y-106.68
X100.965Y-71.12
X100.965Y-106.68
X103.505Y-71.12
X103.505Y-106.68
X106.045Y-71.12
X106.045Y-106.68
X108.585Y-71.12
X108.585Y-106.68
X111.125Y-71.12
X111.125Y-106.68
X113.665Y-71.12
X113.665Y-106.68
X116.205Y-71.12
X116.205Y-106.68
X118.745Y-71.12
X118.745Y-106.68
X121.285Y-71.12
X121.285Y-106.68
X123.825Y-71.12
X123.825Y-106.68
X126.365Y-71.12
X126.365Y-106.68
T5
X153.09Y-72.39
X153.09Y-105.41
T6
X144.09Y-72.39
X144.09Y-105.41
T7
X115.01Y-76.4
X115.01Y-101.4
X140.87Y-84.7
X140.87Y-88.9
X140.87Y-93.1
X146.37Y-84.7
X146.37Y-88.9
X146.37Y-93.1
X97.23Y-76.4
X97.23Y-101.4
T8
X153.67Y-84.7
X153.67Y-93.1
T9
X89.535Y-76.2
X89.535Y-101.6
X130.175Y-71.12
X130.175Y-106.68
T0
M30
