G04 #@! TF.GenerationSoftware,KiCad,Pcbnew,6.0.0-rc1-unknown-576a0af~66~ubuntu18.04.1*
G04 #@! TF.CreationDate,2018-10-20T17:19:33-04:00*
G04 #@! TF.ProjectId,backlight_controller_3x2,6261636B6C696768745F636F6E74726F,1.1*
G04 #@! TF.SameCoordinates,Original*
G04 #@! TF.FileFunction,Copper,L2,Bot*
G04 #@! TF.FilePolarity,Positive*
%FSLAX46Y46*%
G04 Gerber Fmt 4.6, Leading zero omitted, Abs format (unit mm)*
G04 Created by KiCad (PCBNEW 6.0.0-rc1-unknown-576a0af~66~ubuntu18.04.1) date Sat 20 Oct 2018 05:19:33 PM EDT*
%MOMM*%
%LPD*%
G01*
G04 APERTURE LIST*
G04 #@! TA.AperFunction,NonConductor*
%ADD10C,0.228600*%
G04 #@! TD*
G04 #@! TA.AperFunction,ComponentPad*
%ADD11C,2.200000*%
G04 #@! TD*
G04 #@! TA.AperFunction,SMDPad,CuDef*
%ADD12R,1.270000X2.540000*%
G04 #@! TD*
G04 #@! TA.AperFunction,ComponentPad*
%ADD13C,3.556000*%
G04 #@! TD*
G04 #@! TA.AperFunction,ComponentPad*
%ADD14O,1.854200X2.540000*%
G04 #@! TD*
G04 #@! TA.AperFunction,ComponentPad*
%ADD15R,1.854200X2.540000*%
G04 #@! TD*
G04 #@! TA.AperFunction,SMDPad,CuDef*
%ADD16R,4.960000X3.800000*%
G04 #@! TD*
G04 #@! TA.AperFunction,SMDPad,CuDef*
%ADD17R,1.440000X1.600000*%
G04 #@! TD*
G04 #@! TA.AperFunction,SMDPad,CuDef*
%ADD18R,5.800000X6.400000*%
G04 #@! TD*
G04 #@! TA.AperFunction,SMDPad,CuDef*
%ADD19R,0.800000X2.200000*%
G04 #@! TD*
G04 #@! TA.AperFunction,ComponentPad*
%ADD20O,2.032000X1.524000*%
G04 #@! TD*
G04 #@! TA.AperFunction,ComponentPad*
%ADD21C,4.000000*%
G04 #@! TD*
G04 #@! TA.AperFunction,ComponentPad*
%ADD22R,4.000000X3.000000*%
G04 #@! TD*
G04 #@! TA.AperFunction,ComponentPad*
%ADD23O,4.000000X3.000000*%
G04 #@! TD*
G04 #@! TA.AperFunction,SMDPad,CuDef*
%ADD24R,2.540000X1.270000*%
G04 #@! TD*
G04 #@! TA.AperFunction,SMDPad,CuDef*
%ADD25R,2.000000X0.600000*%
G04 #@! TD*
G04 #@! TA.AperFunction,ComponentPad*
%ADD26C,1.600000*%
G04 #@! TD*
G04 #@! TA.AperFunction,ComponentPad*
%ADD27C,2.000000*%
G04 #@! TD*
G04 #@! TA.AperFunction,SMDPad,CuDef*
%ADD28R,0.800000X0.900000*%
G04 #@! TD*
G04 #@! TA.AperFunction,ViaPad*
%ADD29C,0.889000*%
G04 #@! TD*
G04 #@! TA.AperFunction,ViaPad*
%ADD30C,0.635000*%
G04 #@! TD*
G04 #@! TA.AperFunction,Conductor*
%ADD31C,0.406400*%
G04 #@! TD*
G04 #@! TA.AperFunction,Conductor*
%ADD32C,0.812800*%
G04 #@! TD*
G04 #@! TA.AperFunction,Conductor*
%ADD33C,0.203200*%
G04 #@! TD*
G04 #@! TA.AperFunction,Conductor*
%ADD34C,0.254000*%
G04 #@! TD*
G04 APERTURE END LIST*
D10*
X156210000Y-67945000D02*
X85725000Y-67945000D01*
X156210000Y-109855000D02*
X156210000Y-67945000D01*
X85725000Y-109855000D02*
X156210000Y-109855000D01*
X85725000Y-67945000D02*
X85725000Y-109855000D01*
D11*
G04 #@! TO.P,J2,*
G04 #@! TO.N,*
X115010000Y-76400000D03*
X115010000Y-101400000D03*
G04 #@! TD*
G04 #@! TO.P,J1,*
G04 #@! TO.N,*
X97230000Y-76400000D03*
X97230000Y-101400000D03*
G04 #@! TD*
D12*
G04 #@! TO.P,R5,1*
G04 #@! TO.N,/backlight_3x2/low_power_outputs/OUTPUT_0*
X137414000Y-107315000D03*
G04 #@! TO.P,R5,2*
G04 #@! TO.N,/backlight_3x2/C_4*
X134366000Y-107315000D03*
G04 #@! TD*
D13*
G04 #@! TO.P,MDB1,*
G04 #@! TO.N,*
X130175000Y-71120000D03*
X130175000Y-106680000D03*
X89535000Y-101600000D03*
X89535000Y-76200000D03*
D14*
G04 #@! TO.P,MDB1,AREF*
G04 #@! TO.N,N/C*
X88265000Y-106680000D03*
G04 #@! TO.P,MDB1,VEE*
G04 #@! TO.N,VEE*
X90805000Y-106680000D03*
G04 #@! TO.P,MDB1,AGND*
G04 #@! TO.N,N/C*
X93345000Y-106680000D03*
G04 #@! TO.P,MDB1,3V3*
X95885000Y-106680000D03*
G04 #@! TO.P,MDB1,23*
X98425000Y-106680000D03*
G04 #@! TO.P,MDB1,22*
X100965000Y-106680000D03*
G04 #@! TO.P,MDB1,21*
X103505000Y-106680000D03*
G04 #@! TO.P,MDB1,20*
X106045000Y-106680000D03*
G04 #@! TO.P,MDB1,19*
G04 #@! TO.N,/CHANNEL_9*
X108585000Y-106680000D03*
G04 #@! TO.P,MDB1,18*
G04 #@! TO.N,/CHANNEL_8*
X111125000Y-106680000D03*
G04 #@! TO.P,MDB1,17*
G04 #@! TO.N,/CHANNEL_7*
X113665000Y-106680000D03*
G04 #@! TO.P,MDB1,16*
G04 #@! TO.N,/CHANNEL_6*
X116205000Y-106680000D03*
G04 #@! TO.P,MDB1,15*
G04 #@! TO.N,/CHANNEL_5*
X118745000Y-106680000D03*
G04 #@! TO.P,MDB1,14*
G04 #@! TO.N,/CHANNEL_4*
X121285000Y-106680000D03*
G04 #@! TO.P,MDB1,13*
G04 #@! TO.N,N/C*
X123825000Y-106680000D03*
G04 #@! TO.P,MDB1,DAC*
X126365000Y-106680000D03*
G04 #@! TO.P,MDB1,28*
X126365000Y-71120000D03*
G04 #@! TO.P,MDB1,12*
X123825000Y-71120000D03*
G04 #@! TO.P,MDB1,11*
X121285000Y-71120000D03*
G04 #@! TO.P,MDB1,10*
X118745000Y-71120000D03*
G04 #@! TO.P,MDB1,9*
X116205000Y-71120000D03*
G04 #@! TO.P,MDB1,29*
X113665000Y-71120000D03*
G04 #@! TO.P,MDB1,30*
X111125000Y-71120000D03*
G04 #@! TO.P,MDB1,6*
G04 #@! TO.N,/CHANNEL_3*
X108585000Y-71120000D03*
G04 #@! TO.P,MDB1,5*
G04 #@! TO.N,/CHANNEL_2*
X106045000Y-71120000D03*
G04 #@! TO.P,MDB1,4*
G04 #@! TO.N,/CHANNEL_1*
X103505000Y-71120000D03*
G04 #@! TO.P,MDB1,3*
G04 #@! TO.N,/CHANNEL_0*
X100965000Y-71120000D03*
G04 #@! TO.P,MDB1,2*
G04 #@! TO.N,/~ENABLE*
X98425000Y-71120000D03*
G04 #@! TO.P,MDB1,25*
G04 #@! TO.N,N/C*
X95885000Y-71120000D03*
D15*
G04 #@! TO.P,MDB1,VDD*
G04 #@! TO.N,VDD*
X88265000Y-71120000D03*
D14*
G04 #@! TO.P,MDB1,24*
G04 #@! TO.N,N/C*
X93345000Y-71120000D03*
G04 #@! TO.P,MDB1,GND*
G04 #@! TO.N,GND*
X90805000Y-71120000D03*
G04 #@! TD*
D12*
G04 #@! TO.P,C1,1*
G04 #@! TO.N,VEE*
X118491000Y-88900000D03*
G04 #@! TO.P,C1,2*
G04 #@! TO.N,GND*
X121539000Y-88900000D03*
G04 #@! TD*
G04 #@! TO.P,C2,2*
G04 #@! TO.N,GND*
X124841000Y-88900000D03*
G04 #@! TO.P,C2,1*
G04 #@! TO.N,VEE*
X127889000Y-88900000D03*
G04 #@! TD*
G04 #@! TO.P,C3,1*
G04 #@! TO.N,VDD*
X113919000Y-92710000D03*
G04 #@! TO.P,C3,2*
G04 #@! TO.N,GND*
X110871000Y-92710000D03*
G04 #@! TD*
G04 #@! TO.P,C4,1*
G04 #@! TO.N,VDD*
X106299000Y-92710000D03*
G04 #@! TO.P,C4,2*
G04 #@! TO.N,GND*
X103251000Y-92710000D03*
G04 #@! TD*
G04 #@! TO.P,C5,1*
G04 #@! TO.N,VDD*
X98679000Y-92710000D03*
G04 #@! TO.P,C5,2*
G04 #@! TO.N,GND*
X95631000Y-92710000D03*
G04 #@! TD*
G04 #@! TO.P,C6,2*
G04 #@! TO.N,GND*
X88011000Y-92710000D03*
G04 #@! TO.P,C6,1*
G04 #@! TO.N,VDD*
X91059000Y-92710000D03*
G04 #@! TD*
D16*
G04 #@! TO.P,D1,1*
G04 #@! TO.N,VDD*
X103755000Y-75565000D03*
D17*
G04 #@! TO.P,D1,2*
G04 #@! TO.N,VAA*
X107555000Y-76630000D03*
X107555000Y-74500000D03*
G04 #@! TD*
D18*
G04 #@! TO.P,HPS1,6*
G04 #@! TO.N,/backlight_3x2/high_power_outputs/OUTPUT_0*
X112395000Y-83235000D03*
D19*
G04 #@! TO.P,HPS1,1*
G04 #@! TO.N,VDD*
X114675000Y-89535000D03*
G04 #@! TO.P,HPS1,2*
G04 #@! TO.N,/backlight_3x2/high_power_outputs/high_power_output_0/FAULT*
X113535000Y-89535000D03*
G04 #@! TO.P,HPS1,4*
G04 #@! TO.N,N/C*
X111255000Y-89535000D03*
G04 #@! TO.P,HPS1,5*
G04 #@! TO.N,GND*
X110115000Y-89535000D03*
G04 #@! TD*
D18*
G04 #@! TO.P,HPS2,6*
G04 #@! TO.N,/backlight_3x2/high_power_outputs/OUTPUT_1*
X104775000Y-83235000D03*
D19*
G04 #@! TO.P,HPS2,1*
G04 #@! TO.N,VDD*
X107055000Y-89535000D03*
G04 #@! TO.P,HPS2,2*
G04 #@! TO.N,/backlight_3x2/high_power_outputs/high_power_output_1/FAULT*
X105915000Y-89535000D03*
G04 #@! TO.P,HPS2,4*
G04 #@! TO.N,N/C*
X103635000Y-89535000D03*
G04 #@! TO.P,HPS2,5*
G04 #@! TO.N,GND*
X102495000Y-89535000D03*
G04 #@! TD*
G04 #@! TO.P,HPS3,5*
G04 #@! TO.N,GND*
X94875000Y-89535000D03*
G04 #@! TO.P,HPS3,4*
G04 #@! TO.N,N/C*
X96015000Y-89535000D03*
G04 #@! TO.P,HPS3,2*
G04 #@! TO.N,/backlight_3x2/high_power_outputs/high_power_output_2/FAULT*
X98295000Y-89535000D03*
G04 #@! TO.P,HPS3,1*
G04 #@! TO.N,VDD*
X99435000Y-89535000D03*
D18*
G04 #@! TO.P,HPS3,6*
G04 #@! TO.N,/backlight_3x2/high_power_outputs/OUTPUT_2*
X97155000Y-83235000D03*
G04 #@! TD*
D19*
G04 #@! TO.P,HPS4,5*
G04 #@! TO.N,GND*
X87255000Y-89535000D03*
G04 #@! TO.P,HPS4,4*
G04 #@! TO.N,N/C*
X88395000Y-89535000D03*
G04 #@! TO.P,HPS4,2*
G04 #@! TO.N,/backlight_3x2/high_power_outputs/high_power_output_3/FAULT*
X90675000Y-89535000D03*
G04 #@! TO.P,HPS4,1*
G04 #@! TO.N,VDD*
X91815000Y-89535000D03*
D18*
G04 #@! TO.P,HPS4,6*
G04 #@! TO.N,/backlight_3x2/high_power_outputs/OUTPUT_3*
X89535000Y-83235000D03*
G04 #@! TD*
D20*
G04 #@! TO.P,L1,1*
G04 #@! TO.N,VAA*
X144780000Y-96520000D03*
G04 #@! TO.P,L1,2*
G04 #@! TO.N,GND*
X139700000Y-96520000D03*
G04 #@! TD*
G04 #@! TO.P,L2,2*
G04 #@! TO.N,GND*
X137160000Y-97790000D03*
G04 #@! TO.P,L2,1*
G04 #@! TO.N,/backlight_3x2/C_0*
X132080000Y-97790000D03*
G04 #@! TD*
G04 #@! TO.P,L3,1*
G04 #@! TO.N,/backlight_3x2/C_1*
X132080000Y-95250000D03*
G04 #@! TO.P,L3,2*
G04 #@! TO.N,GND*
X137160000Y-95250000D03*
G04 #@! TD*
G04 #@! TO.P,L4,2*
G04 #@! TO.N,GND*
X137160000Y-92710000D03*
G04 #@! TO.P,L4,1*
G04 #@! TO.N,/backlight_3x2/C_2*
X132080000Y-92710000D03*
G04 #@! TD*
G04 #@! TO.P,L5,1*
G04 #@! TO.N,/backlight_3x2/C_3*
X132080000Y-90170000D03*
G04 #@! TO.P,L5,2*
G04 #@! TO.N,GND*
X137160000Y-90170000D03*
G04 #@! TD*
G04 #@! TO.P,L6,2*
G04 #@! TO.N,GND*
X137160000Y-87630000D03*
G04 #@! TO.P,L6,1*
G04 #@! TO.N,/backlight_3x2/C_4*
X132080000Y-87630000D03*
G04 #@! TD*
G04 #@! TO.P,L7,2*
G04 #@! TO.N,GND*
X137160000Y-85090000D03*
G04 #@! TO.P,L7,1*
G04 #@! TO.N,/backlight_3x2/C_5*
X132080000Y-85090000D03*
G04 #@! TD*
G04 #@! TO.P,L8,1*
G04 #@! TO.N,/backlight_3x2/C_6*
X132080000Y-82550000D03*
G04 #@! TO.P,L8,2*
G04 #@! TO.N,GND*
X137160000Y-82550000D03*
G04 #@! TD*
G04 #@! TO.P,L9,1*
G04 #@! TO.N,/backlight_3x2/C_7*
X132080000Y-80010000D03*
G04 #@! TO.P,L9,2*
G04 #@! TO.N,GND*
X137160000Y-80010000D03*
G04 #@! TD*
G04 #@! TO.P,L10,1*
G04 #@! TO.N,/backlight_3x2/C_8*
X132080000Y-77470000D03*
G04 #@! TO.P,L10,2*
G04 #@! TO.N,GND*
X137160000Y-77470000D03*
G04 #@! TD*
G04 #@! TO.P,L11,2*
G04 #@! TO.N,GND*
X137160000Y-100330000D03*
G04 #@! TO.P,L11,1*
G04 #@! TO.N,/backlight_3x2/C_9*
X132080000Y-100330000D03*
G04 #@! TD*
D21*
G04 #@! TO.P,P1,*
G04 #@! TO.N,*
X153670000Y-84700000D03*
X153670000Y-93100000D03*
D22*
G04 #@! TO.P,P1,1*
G04 #@! TO.N,VAA*
X146370000Y-84700000D03*
D23*
G04 #@! TO.P,P1,2*
X146370000Y-88900000D03*
G04 #@! TO.P,P1,3*
X146370000Y-93100000D03*
G04 #@! TO.P,P1,4*
G04 #@! TO.N,GND*
X140870000Y-84700000D03*
G04 #@! TO.P,P1,5*
X140870000Y-88900000D03*
G04 #@! TO.P,P1,6*
X140870000Y-93100000D03*
G04 #@! TD*
D24*
G04 #@! TO.P,R1,2*
G04 #@! TO.N,/backlight_3x2/C_0*
X112395000Y-98679000D03*
G04 #@! TO.P,R1,1*
G04 #@! TO.N,/backlight_3x2/high_power_outputs/high_power_output_0/FAULT*
X112395000Y-95631000D03*
G04 #@! TD*
G04 #@! TO.P,R2,2*
G04 #@! TO.N,/backlight_3x2/C_1*
X104775000Y-98679000D03*
G04 #@! TO.P,R2,1*
G04 #@! TO.N,/backlight_3x2/high_power_outputs/high_power_output_1/FAULT*
X104775000Y-95631000D03*
G04 #@! TD*
G04 #@! TO.P,R3,2*
G04 #@! TO.N,/backlight_3x2/C_2*
X97155000Y-98679000D03*
G04 #@! TO.P,R3,1*
G04 #@! TO.N,/backlight_3x2/high_power_outputs/high_power_output_2/FAULT*
X97155000Y-95631000D03*
G04 #@! TD*
G04 #@! TO.P,R4,1*
G04 #@! TO.N,/backlight_3x2/high_power_outputs/high_power_output_3/FAULT*
X89535000Y-95631000D03*
G04 #@! TO.P,R4,2*
G04 #@! TO.N,/backlight_3x2/C_3*
X89535000Y-98679000D03*
G04 #@! TD*
D12*
G04 #@! TO.P,R6,2*
G04 #@! TO.N,/backlight_3x2/C_5*
X134366000Y-103505000D03*
G04 #@! TO.P,R6,1*
G04 #@! TO.N,/backlight_3x2/low_power_outputs/OUTPUT_1*
X137414000Y-103505000D03*
G04 #@! TD*
G04 #@! TO.P,R7,1*
G04 #@! TO.N,/backlight_3x2/low_power_outputs/OUTPUT_2*
X137414000Y-74295000D03*
G04 #@! TO.P,R7,2*
G04 #@! TO.N,/backlight_3x2/C_6*
X134366000Y-74295000D03*
G04 #@! TD*
G04 #@! TO.P,R8,2*
G04 #@! TO.N,/backlight_3x2/C_7*
X134366000Y-70485000D03*
G04 #@! TO.P,R8,1*
G04 #@! TO.N,/backlight_3x2/low_power_outputs/OUTPUT_3*
X137414000Y-70485000D03*
G04 #@! TD*
D25*
G04 #@! TO.P,U1,20*
G04 #@! TO.N,VEE*
X127840000Y-103505000D03*
G04 #@! TO.P,U1,19*
G04 #@! TO.N,GND*
X127840000Y-102235000D03*
G04 #@! TO.P,U1,18*
G04 #@! TO.N,/backlight_3x2/C_0*
X127840000Y-100965000D03*
G04 #@! TO.P,U1,17*
G04 #@! TO.N,/backlight_3x2/C_1*
X127840000Y-99695000D03*
G04 #@! TO.P,U1,16*
G04 #@! TO.N,/backlight_3x2/C_2*
X127840000Y-98425000D03*
G04 #@! TO.P,U1,15*
G04 #@! TO.N,/backlight_3x2/C_3*
X127840000Y-97155000D03*
G04 #@! TO.P,U1,14*
G04 #@! TO.N,/backlight_3x2/C_4*
X127840000Y-95885000D03*
G04 #@! TO.P,U1,13*
G04 #@! TO.N,/backlight_3x2/C_5*
X127840000Y-94615000D03*
G04 #@! TO.P,U1,12*
G04 #@! TO.N,/backlight_3x2/C_6*
X127840000Y-93345000D03*
G04 #@! TO.P,U1,11*
G04 #@! TO.N,/backlight_3x2/C_7*
X127840000Y-92075000D03*
G04 #@! TO.P,U1,10*
G04 #@! TO.N,GND*
X118540000Y-92075000D03*
G04 #@! TO.P,U1,9*
G04 #@! TO.N,/CHANNEL_7*
X118540000Y-93345000D03*
G04 #@! TO.P,U1,8*
G04 #@! TO.N,/CHANNEL_6*
X118540000Y-94615000D03*
G04 #@! TO.P,U1,7*
G04 #@! TO.N,/CHANNEL_5*
X118540000Y-95885000D03*
G04 #@! TO.P,U1,6*
G04 #@! TO.N,/CHANNEL_4*
X118540000Y-97155000D03*
G04 #@! TO.P,U1,5*
G04 #@! TO.N,/CHANNEL_3*
X118540000Y-98425000D03*
G04 #@! TO.P,U1,4*
G04 #@! TO.N,/CHANNEL_2*
X118540000Y-99695000D03*
G04 #@! TO.P,U1,3*
G04 #@! TO.N,/CHANNEL_1*
X118540000Y-100965000D03*
G04 #@! TO.P,U1,2*
G04 #@! TO.N,/CHANNEL_0*
X118540000Y-102235000D03*
G04 #@! TO.P,U1,1*
G04 #@! TO.N,/~ENABLE*
X118540000Y-103505000D03*
G04 #@! TD*
G04 #@! TO.P,U2,1*
G04 #@! TO.N,/~ENABLE*
X118540000Y-85725000D03*
G04 #@! TO.P,U2,2*
G04 #@! TO.N,/CHANNEL_8*
X118540000Y-84455000D03*
G04 #@! TO.P,U2,3*
G04 #@! TO.N,/CHANNEL_9*
X118540000Y-83185000D03*
G04 #@! TO.P,U2,4*
G04 #@! TO.N,GND*
X118540000Y-81915000D03*
G04 #@! TO.P,U2,5*
X118540000Y-80645000D03*
G04 #@! TO.P,U2,6*
X118540000Y-79375000D03*
G04 #@! TO.P,U2,7*
X118540000Y-78105000D03*
G04 #@! TO.P,U2,8*
X118540000Y-76835000D03*
G04 #@! TO.P,U2,9*
X118540000Y-75565000D03*
G04 #@! TO.P,U2,10*
X118540000Y-74295000D03*
G04 #@! TO.P,U2,11*
G04 #@! TO.N,N/C*
X127840000Y-74295000D03*
G04 #@! TO.P,U2,12*
X127840000Y-75565000D03*
G04 #@! TO.P,U2,13*
X127840000Y-76835000D03*
G04 #@! TO.P,U2,14*
X127840000Y-78105000D03*
G04 #@! TO.P,U2,15*
X127840000Y-79375000D03*
G04 #@! TO.P,U2,16*
X127840000Y-80645000D03*
G04 #@! TO.P,U2,17*
G04 #@! TO.N,/backlight_3x2/C_9*
X127840000Y-81915000D03*
G04 #@! TO.P,U2,18*
G04 #@! TO.N,/backlight_3x2/C_8*
X127840000Y-83185000D03*
G04 #@! TO.P,U2,19*
G04 #@! TO.N,GND*
X127840000Y-84455000D03*
G04 #@! TO.P,U2,20*
G04 #@! TO.N,VEE*
X127840000Y-85725000D03*
G04 #@! TD*
D26*
G04 #@! TO.P,J3,*
G04 #@! TO.N,*
X153090000Y-72390000D03*
D27*
X144090000Y-72390000D03*
G04 #@! TD*
G04 #@! TO.P,J4,*
G04 #@! TO.N,*
X144090000Y-105410000D03*
D26*
X153090000Y-105410000D03*
G04 #@! TD*
D28*
G04 #@! TO.P,U3,3*
G04 #@! TO.N,/backlight_3x2/backlight_outputs/ir/NPN*
X148590000Y-74565000D03*
G04 #@! TO.P,U3,2*
G04 #@! TO.N,GND*
X147640000Y-76565000D03*
G04 #@! TO.P,U3,1*
G04 #@! TO.N,/backlight_3x2/C_8*
X149540000Y-76565000D03*
G04 #@! TD*
G04 #@! TO.P,U4,1*
G04 #@! TO.N,/backlight_3x2/C_9*
X147640000Y-101235000D03*
G04 #@! TO.P,U4,2*
G04 #@! TO.N,GND*
X149540000Y-101235000D03*
G04 #@! TO.P,U4,3*
G04 #@! TO.N,/backlight_3x2/backlight_outputs/visible/NPN*
X148590000Y-103235000D03*
G04 #@! TD*
D29*
G04 #@! TO.N,GND*
X125257700Y-94931700D03*
G04 #@! TO.N,VAA*
X105601500Y-79399400D03*
G04 #@! TO.N,/backlight_3x2/high_power_outputs/OUTPUT_0*
X108393800Y-84196600D03*
G04 #@! TO.N,/backlight_3x2/high_power_outputs/OUTPUT_1*
X100920800Y-91338800D03*
G04 #@! TO.N,/backlight_3x2/high_power_outputs/OUTPUT_2*
X99463000Y-87222900D03*
G04 #@! TO.N,/backlight_3x2/high_power_outputs/OUTPUT_3*
X93345000Y-86163400D03*
D30*
G04 #@! TO.N,/backlight_3x2/low_power_outputs/OUTPUT_3*
X122054700Y-86776200D03*
G04 #@! TO.N,/backlight_3x2/low_power_outputs/OUTPUT_2*
X134054700Y-88305200D03*
G04 #@! TO.N,/backlight_3x2/low_power_outputs/OUTPUT_1*
X121287200Y-86659500D03*
X129254000Y-83720800D03*
X135602700Y-83720800D03*
G04 #@! TO.N,/backlight_3x2/low_power_outputs/OUTPUT_0*
X134119200Y-97021800D03*
G04 #@! TO.N,/backlight_3x2/C_8*
X135577900Y-77373700D03*
G04 #@! TO.N,/backlight_3x2/C_9*
X126545500Y-82585900D03*
G04 #@! TO.N,/backlight_3x2/C_0*
X114131600Y-98357000D03*
G04 #@! TO.N,/backlight_3x2/C_1*
X110177900Y-96135000D03*
G04 #@! TO.N,/backlight_3x2/C_2*
X109587500Y-95682900D03*
G04 #@! TO.N,/backlight_3x2/C_3*
X110045000Y-95086200D03*
G04 #@! TO.N,/CHANNEL_9*
X110663400Y-98547300D03*
X119970800Y-83609800D03*
G04 #@! TO.N,/CHANNEL_8*
X121945600Y-100875700D03*
G04 #@! TO.N,/CHANNEL_3*
X121219800Y-91744800D03*
G04 #@! TO.N,/CHANNEL_2*
X123741500Y-84454600D03*
X120460300Y-91657500D03*
G04 #@! TO.N,/CHANNEL_1*
X109216300Y-73730800D03*
X109047300Y-82403500D03*
X115822600Y-98944100D03*
G04 #@! TO.N,/CHANNEL_0*
X114935000Y-105232000D03*
G04 #@! TO.N,/backlight_3x2/backlight_outputs/ir/NPN*
X149510900Y-73263100D03*
G04 #@! TO.N,/backlight_3x2/backlight_outputs/visible/NPN*
X148742100Y-104209500D03*
G04 #@! TD*
D31*
G04 #@! TO.N,VEE*
X124497400Y-90726000D02*
X121014000Y-90726000D01*
X121014000Y-90726000D02*
X119456200Y-89168200D01*
X119456200Y-89168200D02*
X119456200Y-88900000D01*
X126923800Y-88900000D02*
X126923800Y-89171400D01*
X126923800Y-89171400D02*
X125369200Y-90726000D01*
X125369200Y-90726000D02*
X124497400Y-90726000D01*
X124849900Y-103505000D02*
X124497400Y-103152500D01*
X124497400Y-103152500D02*
X124497400Y-90726000D01*
X124849900Y-103505000D02*
X126509800Y-103505000D01*
X92062300Y-106680000D02*
X92062300Y-107543900D01*
X92062300Y-107543900D02*
X92803300Y-108284900D01*
X92803300Y-108284900D02*
X121851200Y-108284900D01*
X121851200Y-108284900D02*
X122555000Y-107581100D01*
X122555000Y-107581100D02*
X122555000Y-105799900D01*
X122555000Y-105799900D02*
X124849900Y-103505000D01*
X118491000Y-88900000D02*
X119456200Y-88900000D01*
X127889000Y-88900000D02*
X126923800Y-88900000D01*
X127889000Y-88900000D02*
X128854200Y-88900000D01*
X127840000Y-85725000D02*
X129170200Y-85725000D01*
X129170200Y-85725000D02*
X129170200Y-88584000D01*
X129170200Y-88584000D02*
X128854200Y-88900000D01*
X90805000Y-106680000D02*
X92062300Y-106680000D01*
X127840000Y-103505000D02*
X126509800Y-103505000D01*
D32*
G04 #@! TO.N,GND*
X121539000Y-88900000D02*
X120426700Y-87787700D01*
X120426700Y-87787700D02*
X120426700Y-86352200D01*
X120426700Y-86352200D02*
X120819500Y-85959400D01*
X120819500Y-85959400D02*
X120819500Y-82661100D01*
X120819500Y-82661100D02*
X120073400Y-81915000D01*
X118150100Y-81915000D02*
X117247900Y-81915000D01*
X118540000Y-81915000D02*
X118150100Y-81915000D01*
X118236300Y-80645000D02*
X118150100Y-80731200D01*
X118150100Y-80731200D02*
X118150100Y-81915000D01*
X118236300Y-80645000D02*
X117932500Y-80645000D01*
X118540000Y-80645000D02*
X118236300Y-80645000D01*
X124841000Y-88900000D02*
X124841000Y-85920600D01*
X124841000Y-85920600D02*
X126306600Y-84455000D01*
X127840000Y-84455000D02*
X126306600Y-84455000D01*
X122707400Y-88900000D02*
X124841000Y-88900000D01*
X127840000Y-102235000D02*
X126306600Y-102235000D01*
X125257700Y-94931700D02*
X126306600Y-95980600D01*
X126306600Y-95980600D02*
X126306600Y-102235000D01*
X148606600Y-101235000D02*
X148606600Y-100622500D01*
X148606600Y-100622500D02*
X147917200Y-99933100D01*
X147917200Y-99933100D02*
X145669700Y-99933100D01*
X145669700Y-99933100D02*
X140870000Y-95133400D01*
X149540000Y-101235000D02*
X148606600Y-101235000D01*
X140870000Y-95133400D02*
X140778800Y-95224600D01*
X140778800Y-95224600D02*
X139700000Y-95224600D01*
X115347200Y-87901600D02*
X116703700Y-89258100D01*
X116703700Y-89258100D02*
X116703700Y-91772100D01*
X116703700Y-91772100D02*
X117006600Y-92075000D01*
X117932500Y-80645000D02*
X118014600Y-80562900D01*
X118014600Y-80562900D02*
X118014600Y-79375000D01*
X117773300Y-78105000D02*
X117773300Y-79133700D01*
X117773300Y-79133700D02*
X118014600Y-79375000D01*
X115347200Y-87901600D02*
X110115000Y-87901600D01*
X117247900Y-81915000D02*
X117031600Y-82131300D01*
X117031600Y-82131300D02*
X117031600Y-86217200D01*
X117031600Y-86217200D02*
X115347200Y-87901600D01*
X118540000Y-92075000D02*
X117006600Y-92075000D01*
X137160000Y-97790000D02*
X137160000Y-95250000D01*
X121539000Y-88900000D02*
X122707400Y-88900000D01*
X118540000Y-81915000D02*
X120073400Y-81915000D01*
X137160000Y-92710000D02*
X137160000Y-90170000D01*
X102495000Y-89535000D02*
X102495000Y-87901600D01*
X102495000Y-87901600D02*
X110115000Y-87901600D01*
X102783300Y-92645800D02*
X102495000Y-92357500D01*
X102495000Y-92357500D02*
X102495000Y-89535000D01*
X110115000Y-89535000D02*
X110115000Y-87901600D01*
X137160000Y-92710000D02*
X137160000Y-94005400D01*
X137934700Y-95250000D02*
X137934700Y-94780100D01*
X137934700Y-94780100D02*
X137160000Y-94005400D01*
X137934700Y-95250000D02*
X138709400Y-95250000D01*
X137160000Y-95250000D02*
X137934700Y-95250000D01*
X137160000Y-87630000D02*
X137160000Y-85090000D01*
X137160000Y-90170000D02*
X137160000Y-87630000D01*
X139700000Y-95249600D02*
X139700000Y-95224600D01*
X139700000Y-96520000D02*
X139700000Y-95249600D01*
X138709400Y-95250000D02*
X138709800Y-95249600D01*
X138709800Y-95249600D02*
X139700000Y-95249600D01*
X147640000Y-76565000D02*
X146706600Y-76565000D01*
X140870000Y-84700000D02*
X140870000Y-82666600D01*
X140870000Y-82666600D02*
X146706600Y-76830000D01*
X146706600Y-76830000D02*
X146706600Y-76565000D01*
X140870000Y-93100000D02*
X140870000Y-95133400D01*
X137160000Y-100330000D02*
X137160000Y-97790000D01*
X117773300Y-75565000D02*
X117006600Y-75565000D01*
X118540000Y-75565000D02*
X117773300Y-75565000D01*
X117773300Y-75565000D02*
X117773300Y-76835000D01*
X117773300Y-74295000D02*
X117006600Y-75061700D01*
X117006600Y-75061700D02*
X117006600Y-75565000D01*
X117773300Y-74295000D02*
X117006600Y-74295000D01*
X118540000Y-74295000D02*
X117773300Y-74295000D01*
X118540000Y-76835000D02*
X117773300Y-76835000D01*
X117773300Y-76835000D02*
X117773300Y-78105000D01*
X118540000Y-78105000D02*
X117773300Y-78105000D01*
X118540000Y-79375000D02*
X118014600Y-79375000D01*
X95335300Y-96483400D02*
X95335300Y-94809100D01*
X95335300Y-94809100D02*
X95631000Y-94513400D01*
X102783300Y-92645800D02*
X98653600Y-96775500D01*
X98653600Y-96775500D02*
X95627400Y-96775500D01*
X95627400Y-96775500D02*
X95335300Y-96483400D01*
X95335300Y-96483400D02*
X95023900Y-96794800D01*
X95023900Y-96794800D02*
X88036300Y-96794800D01*
X88036300Y-96794800D02*
X87715300Y-96473800D01*
X87715300Y-96473800D02*
X87715300Y-94809100D01*
X87715300Y-94809100D02*
X88011000Y-94513400D01*
X88011000Y-92710000D02*
X88011000Y-94513400D01*
X87255000Y-89535000D02*
X87255000Y-91954000D01*
X87255000Y-91954000D02*
X88011000Y-92710000D01*
X102783300Y-92645800D02*
X103186800Y-92645800D01*
X103186800Y-92645800D02*
X103251000Y-92710000D01*
X95631000Y-92710000D02*
X95631000Y-94513400D01*
X90805000Y-71120000D02*
X92583400Y-72898400D01*
X92583400Y-72898400D02*
X115610000Y-72898400D01*
X115610000Y-72898400D02*
X117006600Y-74295000D01*
X110115000Y-89535000D02*
X110115000Y-91954000D01*
X110115000Y-91954000D02*
X110871000Y-92710000D01*
X94875000Y-89535000D02*
X94875000Y-91168400D01*
X94875000Y-91168400D02*
X95631000Y-91924400D01*
X95631000Y-91924400D02*
X95631000Y-92710000D01*
X137160000Y-82550000D02*
X137160000Y-85090000D01*
X137160000Y-80010000D02*
X137160000Y-82550000D01*
X137160000Y-77470000D02*
X137160000Y-80010000D01*
D31*
G04 #@! TO.N,VDD*
X106883300Y-91088600D02*
X110079900Y-94285200D01*
X110079900Y-94285200D02*
X110124700Y-94285200D01*
X110124700Y-94285200D02*
X110819900Y-94980400D01*
X110819900Y-94980400D02*
X110819900Y-96392400D01*
X107055000Y-90916900D02*
X106883300Y-91088600D01*
X106883300Y-91088600D02*
X106862100Y-91109800D01*
X106862100Y-91109800D02*
X106299000Y-91109800D01*
X110819900Y-96392400D02*
X111019400Y-96591900D01*
X111019400Y-96591900D02*
X113784700Y-96591900D01*
X113784700Y-96591900D02*
X113970100Y-96406500D01*
X113970100Y-96406500D02*
X113970100Y-94361300D01*
X113970100Y-94361300D02*
X113919000Y-94310200D01*
X110819900Y-96392400D02*
X103529100Y-103683200D01*
X103529100Y-103683200D02*
X88610300Y-103683200D01*
X88610300Y-103683200D02*
X86516800Y-101589700D01*
X86516800Y-101589700D02*
X86516800Y-88306200D01*
X86516800Y-88306200D02*
X86713100Y-88109900D01*
X86713100Y-88109900D02*
X91680500Y-88109900D01*
X91680500Y-88109900D02*
X91815000Y-88244400D01*
X107055000Y-89535000D02*
X107055000Y-90916900D01*
X113919000Y-92710000D02*
X113919000Y-94310200D01*
X99435000Y-88104800D02*
X91954600Y-88104800D01*
X91954600Y-88104800D02*
X91815000Y-88244400D01*
X113919000Y-92710000D02*
X113919000Y-91109800D01*
X100466700Y-75565000D02*
X100466700Y-87297700D01*
X100466700Y-87297700D02*
X99659600Y-88104800D01*
X99659600Y-88104800D02*
X99435000Y-88104800D01*
X113919000Y-91109800D02*
X114530400Y-91109800D01*
X114530400Y-91109800D02*
X114675000Y-90965200D01*
X99435000Y-89535000D02*
X99435000Y-88104800D01*
X89522300Y-71120000D02*
X89522300Y-71984400D01*
X89522300Y-71984400D02*
X91654700Y-74116800D01*
X91654700Y-74116800D02*
X99018500Y-74116800D01*
X99018500Y-74116800D02*
X100466700Y-75565000D01*
X100944800Y-75565000D02*
X100466700Y-75565000D01*
X99435000Y-89535000D02*
X99435000Y-90965200D01*
X98679000Y-92710000D02*
X98679000Y-91109800D01*
X99435000Y-90965200D02*
X98823600Y-90965200D01*
X98823600Y-90965200D02*
X98679000Y-91109800D01*
X91815000Y-89535000D02*
X91815000Y-90965200D01*
X91059000Y-92710000D02*
X91059000Y-91109800D01*
X91815000Y-90965200D02*
X91203600Y-90965200D01*
X91203600Y-90965200D02*
X91059000Y-91109800D01*
X91815000Y-89527600D02*
X91815000Y-89535000D01*
X114675000Y-89535000D02*
X114675000Y-90965200D01*
X106299000Y-92710000D02*
X106299000Y-91109800D01*
X88265000Y-71120000D02*
X89522300Y-71120000D01*
X103755000Y-75565000D02*
X100944800Y-75565000D01*
X91815000Y-89527600D02*
X91815000Y-88244400D01*
D32*
G04 #@! TO.N,VAA*
X146370000Y-93100000D02*
X146370000Y-95133400D01*
X144780000Y-96520000D02*
X144780000Y-95224600D01*
X144780000Y-95224600D02*
X144871200Y-95133400D01*
X144871200Y-95133400D02*
X146370000Y-95133400D01*
X107555000Y-76630000D02*
X107555000Y-77963400D01*
X107555000Y-77963400D02*
X107037500Y-77963400D01*
X107037500Y-77963400D02*
X105601500Y-79399400D01*
X107555000Y-74500000D02*
X107555000Y-76630000D01*
X146370000Y-88900000D02*
X146370000Y-84700000D01*
X146370000Y-93100000D02*
X146370000Y-88900000D01*
G04 #@! TO.N,/backlight_3x2/high_power_outputs/OUTPUT_0*
X112395000Y-83235000D02*
X108961600Y-83235000D01*
X108961600Y-83235000D02*
X108961600Y-83628800D01*
X108961600Y-83628800D02*
X108393800Y-84196600D01*
D33*
G04 #@! TO.N,/backlight_3x2/high_power_outputs/high_power_output_0/FAULT*
X113535000Y-89535000D02*
X113535000Y-90863600D01*
X113535000Y-90863600D02*
X112395000Y-92003600D01*
X112395000Y-92003600D02*
X112395000Y-95631000D01*
D32*
G04 #@! TO.N,/backlight_3x2/high_power_outputs/OUTPUT_1*
X104775000Y-83235000D02*
X104775000Y-86968400D01*
X104775000Y-86968400D02*
X102081100Y-86968400D01*
X102081100Y-86968400D02*
X100920800Y-88128700D01*
X100920800Y-88128700D02*
X100920800Y-91338800D01*
D33*
G04 #@! TO.N,/backlight_3x2/high_power_outputs/high_power_output_1/FAULT*
X105915000Y-89535000D02*
X105915000Y-90863600D01*
X105915000Y-90863600D02*
X104775000Y-92003600D01*
X104775000Y-92003600D02*
X104775000Y-95631000D01*
G04 #@! TO.N,/backlight_3x2/high_power_outputs/high_power_output_2/FAULT*
X98295000Y-89535000D02*
X98295000Y-90863600D01*
X98295000Y-90863600D02*
X97155000Y-92003600D01*
X97155000Y-92003600D02*
X97155000Y-95631000D01*
D32*
G04 #@! TO.N,/backlight_3x2/high_power_outputs/OUTPUT_2*
X97155000Y-83235000D02*
X97155000Y-86968400D01*
X97155000Y-86968400D02*
X99208500Y-86968400D01*
X99208500Y-86968400D02*
X99463000Y-87222900D01*
D33*
G04 #@! TO.N,/backlight_3x2/high_power_outputs/high_power_output_3/FAULT*
X90675000Y-89535000D02*
X90675000Y-90863600D01*
X90675000Y-90863600D02*
X89535000Y-92003600D01*
X89535000Y-92003600D02*
X89535000Y-95631000D01*
D32*
G04 #@! TO.N,/backlight_3x2/high_power_outputs/OUTPUT_3*
X89535000Y-83235000D02*
X92968400Y-83235000D01*
X92968400Y-83235000D02*
X92968400Y-85786800D01*
X92968400Y-85786800D02*
X93345000Y-86163400D01*
D34*
G04 #@! TO.N,/backlight_3x2/low_power_outputs/OUTPUT_3*
X137414000Y-70485000D02*
X136525000Y-70485000D01*
X136525000Y-70485000D02*
X136525000Y-70373900D01*
X136525000Y-70373900D02*
X135137100Y-68986000D01*
X135137100Y-68986000D02*
X133589100Y-68986000D01*
X133589100Y-68986000D02*
X133196800Y-69378300D01*
X133196800Y-69378300D02*
X133196800Y-73177900D01*
X133196800Y-73177900D02*
X128866600Y-77508100D01*
X128866600Y-77508100D02*
X126805500Y-77508100D01*
X126805500Y-77508100D02*
X124341300Y-79972300D01*
X124341300Y-79972300D02*
X124341300Y-84745400D01*
X124341300Y-84745400D02*
X122310500Y-86776200D01*
X122310500Y-86776200D02*
X122054700Y-86776200D01*
G04 #@! TO.N,/backlight_3x2/low_power_outputs/OUTPUT_2*
X137414000Y-74295000D02*
X136525000Y-74295000D01*
X136525000Y-74295000D02*
X136525000Y-75184000D01*
X136525000Y-75184000D02*
X135024600Y-76684400D01*
X135024600Y-76684400D02*
X135024600Y-87335300D01*
X135024600Y-87335300D02*
X134054700Y-88305200D01*
G04 #@! TO.N,/backlight_3x2/low_power_outputs/OUTPUT_1*
X121287200Y-86659500D02*
X121287200Y-86781400D01*
X121287200Y-86781400D02*
X121835100Y-87329300D01*
X121835100Y-87329300D02*
X122533600Y-87329300D01*
X122533600Y-87329300D02*
X126142100Y-83720800D01*
X126142100Y-83720800D02*
X129254000Y-83720800D01*
X137414000Y-103505000D02*
X136525000Y-103505000D01*
X136525000Y-103505000D02*
X135602700Y-102582700D01*
X135602700Y-102582700D02*
X135602700Y-83720800D01*
G04 #@! TO.N,/backlight_3x2/low_power_outputs/OUTPUT_0*
X137414000Y-107315000D02*
X136525000Y-107315000D01*
X136525000Y-107315000D02*
X135246700Y-106036700D01*
X135246700Y-106036700D02*
X135246700Y-98149300D01*
X135246700Y-98149300D02*
X134119200Y-97021800D01*
D33*
G04 #@! TO.N,/backlight_3x2/C_8*
X149540000Y-76565000D02*
X148911400Y-76565000D01*
X148911400Y-76565000D02*
X148214500Y-75868100D01*
X148214500Y-75868100D02*
X137083500Y-75868100D01*
X137083500Y-75868100D02*
X135577900Y-77373700D01*
X132080000Y-77470000D02*
X132080000Y-78460600D01*
X127840000Y-83185000D02*
X129068600Y-83185000D01*
X132080000Y-78460600D02*
X131956200Y-78460600D01*
X131956200Y-78460600D02*
X129068600Y-81348200D01*
X129068600Y-81348200D02*
X129068600Y-83185000D01*
G04 #@! TO.N,/backlight_3x2/C_9*
X127840000Y-81915000D02*
X126611400Y-81915000D01*
X126611400Y-81915000D02*
X126611400Y-82520000D01*
X126611400Y-82520000D02*
X126545500Y-82585900D01*
X147011400Y-101235000D02*
X145703400Y-101235000D01*
X145703400Y-101235000D02*
X138114600Y-108823800D01*
X138114600Y-108823800D02*
X133649100Y-108823800D01*
X133649100Y-108823800D02*
X132377700Y-107552400D01*
X132377700Y-107552400D02*
X132377700Y-101618300D01*
X132377700Y-101618300D02*
X132080000Y-101320600D01*
X147640000Y-101235000D02*
X147011400Y-101235000D01*
X132080000Y-100330000D02*
X132080000Y-101320600D01*
G04 #@! TO.N,/backlight_3x2/C_0*
X132080000Y-97790000D02*
X132080000Y-98780600D01*
X127840000Y-100965000D02*
X129068600Y-100965000D01*
X129068600Y-100965000D02*
X131253000Y-98780600D01*
X131253000Y-98780600D02*
X132080000Y-98780600D01*
X112395000Y-98679000D02*
X113893600Y-98679000D01*
X114131600Y-98357000D02*
X113893600Y-98595000D01*
X113893600Y-98595000D02*
X113893600Y-98679000D01*
G04 #@! TO.N,/backlight_3x2/C_1*
X132080000Y-95250000D02*
X132080000Y-96240600D01*
X127840000Y-99695000D02*
X129068600Y-99695000D01*
X129068600Y-99695000D02*
X129068600Y-99153200D01*
X129068600Y-99153200D02*
X131981200Y-96240600D01*
X131981200Y-96240600D02*
X132080000Y-96240600D01*
X104775000Y-99542600D02*
X106770300Y-99542600D01*
X106770300Y-99542600D02*
X110177900Y-96135000D01*
X104775000Y-98679000D02*
X104775000Y-99542600D01*
G04 #@! TO.N,/backlight_3x2/C_2*
X132080000Y-93700600D02*
X132009800Y-93700600D01*
X132009800Y-93700600D02*
X130810800Y-94899600D01*
X130810800Y-94899600D02*
X130810800Y-96682800D01*
X130810800Y-96682800D02*
X129068600Y-98425000D01*
X98653600Y-98679000D02*
X99492100Y-97840500D01*
X99492100Y-97840500D02*
X107429900Y-97840500D01*
X107429900Y-97840500D02*
X109587500Y-95682900D01*
X97155000Y-98679000D02*
X98653600Y-98679000D01*
X132080000Y-92710000D02*
X132080000Y-93700600D01*
X127840000Y-98425000D02*
X129068600Y-98425000D01*
G04 #@! TO.N,/backlight_3x2/C_3*
X129068600Y-97155000D02*
X130479500Y-95744100D01*
X130479500Y-95744100D02*
X130479500Y-92673500D01*
X130479500Y-92673500D02*
X131992400Y-91160600D01*
X131992400Y-91160600D02*
X132080000Y-91160600D01*
X132080000Y-90170000D02*
X132080000Y-91160600D01*
X127840000Y-97155000D02*
X129068600Y-97155000D01*
X89535000Y-97815400D02*
X89945600Y-97404800D01*
X89945600Y-97404800D02*
X107115500Y-97404800D01*
X107115500Y-97404800D02*
X109434100Y-95086200D01*
X109434100Y-95086200D02*
X110045000Y-95086200D01*
X89535000Y-98679000D02*
X89535000Y-97815400D01*
G04 #@! TO.N,/backlight_3x2/C_4*
X132058800Y-88467100D02*
X133362300Y-89770600D01*
X133362300Y-89770600D02*
X133362300Y-96610400D01*
X133362300Y-96610400D02*
X133293100Y-96679600D01*
X133293100Y-96679600D02*
X133293100Y-97364000D01*
X133293100Y-97364000D02*
X133362300Y-97433200D01*
X133362300Y-97433200D02*
X133362300Y-107174900D01*
X133362300Y-107174900D02*
X133502400Y-107315000D01*
X132058800Y-88467100D02*
X130788400Y-89737500D01*
X130788400Y-89737500D02*
X130788400Y-91740000D01*
X130788400Y-91740000D02*
X130174300Y-92354100D01*
X130174300Y-92354100D02*
X130174300Y-94779300D01*
X130174300Y-94779300D02*
X129068600Y-95885000D01*
X132080000Y-88125300D02*
X132080000Y-88445900D01*
X132080000Y-88445900D02*
X132058800Y-88467100D01*
X127840000Y-95885000D02*
X129068600Y-95885000D01*
X134366000Y-107315000D02*
X133502400Y-107315000D01*
X132080000Y-87630000D02*
X132080000Y-88125300D01*
G04 #@! TO.N,/backlight_3x2/C_5*
X132080000Y-86080600D02*
X132203800Y-86080600D01*
X132203800Y-86080600D02*
X133533700Y-87410500D01*
X133533700Y-87410500D02*
X133533700Y-88521000D01*
X133533700Y-88521000D02*
X133670100Y-88657400D01*
X133670100Y-88657400D02*
X133670100Y-96734100D01*
X133670100Y-96734100D02*
X133598200Y-96806000D01*
X133598200Y-96806000D02*
X133598200Y-97237600D01*
X133598200Y-97237600D02*
X133720700Y-97360100D01*
X133720700Y-97360100D02*
X133720700Y-101361200D01*
X133720700Y-101361200D02*
X133720800Y-101361200D01*
X133720800Y-101361200D02*
X134366000Y-102006400D01*
X132080000Y-86080600D02*
X131963400Y-86080600D01*
X131963400Y-86080600D02*
X130483200Y-87560800D01*
X130483200Y-87560800D02*
X130483200Y-91561700D01*
X130483200Y-91561700D02*
X129068600Y-92976300D01*
X129068600Y-92976300D02*
X129068600Y-94615000D01*
X127840000Y-94615000D02*
X129068600Y-94615000D01*
X132080000Y-85090000D02*
X132080000Y-86080600D01*
X134366000Y-103505000D02*
X134366000Y-102006400D01*
G04 #@! TO.N,/backlight_3x2/C_6*
X132080000Y-82550000D02*
X132080000Y-83540600D01*
X127840000Y-93345000D02*
X128230300Y-93345000D01*
X128230300Y-93345000D02*
X130074700Y-91500600D01*
X130074700Y-91500600D02*
X130074700Y-85462800D01*
X130074700Y-85462800D02*
X131996900Y-83540600D01*
X131996900Y-83540600D02*
X132080000Y-83540600D01*
X134366000Y-74295000D02*
X134366000Y-75793600D01*
X134366000Y-75793600D02*
X134366000Y-79397200D01*
X134366000Y-79397200D02*
X132203800Y-81559400D01*
X132203800Y-81559400D02*
X132080000Y-81559400D01*
X132080000Y-82550000D02*
X132080000Y-81559400D01*
G04 #@! TO.N,/backlight_3x2/C_7*
X134366000Y-70485000D02*
X134366000Y-71983600D01*
X132080000Y-80170500D02*
X133527400Y-78723100D01*
X133527400Y-78723100D02*
X133527400Y-72822200D01*
X133527400Y-72822200D02*
X134366000Y-71983600D01*
X132080000Y-80010000D02*
X132080000Y-80170500D01*
X132080000Y-80505300D02*
X132080000Y-81000600D01*
X132080000Y-80505300D02*
X132080000Y-80170500D01*
X127840000Y-92075000D02*
X129068600Y-92075000D01*
X129068600Y-92075000D02*
X129706200Y-91437400D01*
X129706200Y-91437400D02*
X129706200Y-85399600D01*
X129706200Y-85399600D02*
X130835800Y-84270000D01*
X130835800Y-84270000D02*
X130835800Y-82161700D01*
X130835800Y-82161700D02*
X131996900Y-81000600D01*
X131996900Y-81000600D02*
X132080000Y-81000600D01*
G04 #@! TO.N,/CHANNEL_9*
X119768600Y-83185000D02*
X119768600Y-83407600D01*
X119768600Y-83407600D02*
X119970800Y-83609800D01*
X118540000Y-83185000D02*
X119768600Y-83185000D01*
X108585000Y-106680000D02*
X109740700Y-106680000D01*
X110663400Y-98547300D02*
X109740700Y-99470000D01*
X109740700Y-99470000D02*
X109740700Y-106680000D01*
G04 #@! TO.N,/CHANNEL_8*
X118540000Y-84455000D02*
X119768600Y-84455000D01*
X119768600Y-84455000D02*
X119768600Y-86084900D01*
X119768600Y-86084900D02*
X118726200Y-87127300D01*
X118726200Y-87127300D02*
X118034000Y-87127300D01*
X118034000Y-87127300D02*
X117618700Y-87542600D01*
X117618700Y-87542600D02*
X117618700Y-90288200D01*
X117618700Y-90288200D02*
X117921000Y-90590500D01*
X117921000Y-90590500D02*
X120130400Y-90590500D01*
X120130400Y-90590500D02*
X120706400Y-91166500D01*
X120706400Y-91166500D02*
X121403500Y-91166500D01*
X121403500Y-91166500D02*
X121945600Y-91708600D01*
X121945600Y-91708600D02*
X121945600Y-100875700D01*
G04 #@! TO.N,/CHANNEL_7*
X118540000Y-93345000D02*
X117311400Y-93345000D01*
X117311400Y-93345000D02*
X115148600Y-95507800D01*
X115148600Y-95507800D02*
X115148600Y-98441200D01*
X115148600Y-98441200D02*
X113665000Y-99924800D01*
X113665000Y-99924800D02*
X113665000Y-106680000D01*
G04 #@! TO.N,/CHANNEL_6*
X116205000Y-106680000D02*
X117360700Y-106680000D01*
X118540000Y-94615000D02*
X117311400Y-94615000D01*
X117311400Y-94615000D02*
X116343700Y-95582700D01*
X116343700Y-95582700D02*
X116343700Y-99096500D01*
X116343700Y-99096500D02*
X117445800Y-100198600D01*
X117445800Y-100198600D02*
X119465600Y-100198600D01*
X119465600Y-100198600D02*
X120129300Y-100862300D01*
X120129300Y-100862300D02*
X120129300Y-104001400D01*
X120129300Y-104001400D02*
X119214800Y-104915900D01*
X119214800Y-104915900D02*
X118508400Y-104915900D01*
X118508400Y-104915900D02*
X117360700Y-106063600D01*
X117360700Y-106063600D02*
X117360700Y-106680000D01*
G04 #@! TO.N,/CHANNEL_5*
X119900700Y-106680000D02*
X119900700Y-104876600D01*
X119900700Y-104876600D02*
X120434500Y-104342800D01*
X120434500Y-104342800D02*
X120434500Y-99990600D01*
X120434500Y-99990600D02*
X119372500Y-98928600D01*
X119372500Y-98928600D02*
X117432800Y-98928600D01*
X117432800Y-98928600D02*
X116997500Y-98493300D01*
X116997500Y-98493300D02*
X116997500Y-96198900D01*
X116997500Y-96198900D02*
X117311400Y-95885000D01*
X118745000Y-106680000D02*
X119900700Y-106680000D01*
X118540000Y-95885000D02*
X117311400Y-95885000D01*
G04 #@! TO.N,/CHANNEL_4*
X121285000Y-105181400D02*
X121285000Y-98671400D01*
X121285000Y-98671400D02*
X119768600Y-97155000D01*
X121285000Y-106680000D02*
X121285000Y-105181400D01*
X118540000Y-97155000D02*
X119768600Y-97155000D01*
G04 #@! TO.N,/CHANNEL_3*
X118540000Y-98425000D02*
X118222200Y-98425000D01*
X118222200Y-98425000D02*
X117311400Y-97514200D01*
X117311400Y-97514200D02*
X117311400Y-96795800D01*
X117311400Y-96795800D02*
X117488000Y-96619200D01*
X117488000Y-96619200D02*
X119403500Y-96619200D01*
X119403500Y-96619200D02*
X121219800Y-94802900D01*
X121219800Y-94802900D02*
X121219800Y-91744800D01*
G04 #@! TO.N,/CHANNEL_2*
X107200700Y-71120000D02*
X107200700Y-70503600D01*
X107200700Y-70503600D02*
X108075000Y-69629300D01*
X108075000Y-69629300D02*
X126836200Y-69629300D01*
X126836200Y-69629300D02*
X127839800Y-70632900D01*
X127839800Y-70632900D02*
X127839800Y-71619600D01*
X127839800Y-71619600D02*
X129043600Y-72823400D01*
X129043600Y-72823400D02*
X129043600Y-75966500D01*
X129043600Y-75966500D02*
X128678700Y-76331400D01*
X128678700Y-76331400D02*
X126708100Y-76331400D01*
X126708100Y-76331400D02*
X123741500Y-79298000D01*
X123741500Y-79298000D02*
X123741500Y-84454600D01*
X118540000Y-99695000D02*
X117767500Y-99695000D01*
X117767500Y-99695000D02*
X116685700Y-98613200D01*
X116685700Y-98613200D02*
X116685700Y-96058700D01*
X116685700Y-96058700D02*
X117504900Y-95239500D01*
X117504900Y-95239500D02*
X119548600Y-95239500D01*
X119548600Y-95239500D02*
X120460300Y-94327800D01*
X120460300Y-94327800D02*
X120460300Y-91657500D01*
X106045000Y-71120000D02*
X107200700Y-71120000D01*
G04 #@! TO.N,/CHANNEL_1*
X117311400Y-100965000D02*
X115822600Y-99476200D01*
X115822600Y-99476200D02*
X115822600Y-98944100D01*
X109047300Y-82403500D02*
X109047300Y-73899800D01*
X109047300Y-73899800D02*
X109216300Y-73730800D01*
X118540000Y-100965000D02*
X117311400Y-100965000D01*
G04 #@! TO.N,/CHANNEL_0*
X119768600Y-102235000D02*
X119768600Y-103930400D01*
X119768600Y-103930400D02*
X119393400Y-104305600D01*
X119393400Y-104305600D02*
X115861400Y-104305600D01*
X115861400Y-104305600D02*
X114935000Y-105232000D01*
X118540000Y-102235000D02*
X119768600Y-102235000D01*
G04 #@! TO.N,/~ENABLE*
X118540000Y-85725000D02*
X117313600Y-86951400D01*
X117313600Y-86951400D02*
X117313600Y-90414600D01*
X117313600Y-90414600D02*
X118227700Y-91328700D01*
X118227700Y-91328700D02*
X119388200Y-91328700D01*
X119388200Y-91328700D02*
X119750800Y-91691300D01*
X119750800Y-91691300D02*
X119750800Y-92828400D01*
X117311400Y-103505000D02*
X117311400Y-101396700D01*
X117311400Y-101396700D02*
X115301600Y-99386900D01*
X115301600Y-99386900D02*
X115301600Y-98728300D01*
X115301600Y-98728300D02*
X115758800Y-98271100D01*
X115758800Y-98271100D02*
X115758800Y-95694400D01*
X115758800Y-95694400D02*
X117374000Y-94079200D01*
X117374000Y-94079200D02*
X119478600Y-94079200D01*
X119478600Y-94079200D02*
X119750800Y-93807000D01*
X119750800Y-93807000D02*
X119750800Y-92828400D01*
X119750800Y-92828400D02*
X117372000Y-92828400D01*
X117372000Y-92828400D02*
X114752900Y-95447500D01*
X114752900Y-95447500D02*
X114752900Y-96225300D01*
X114752900Y-96225300D02*
X113558800Y-97419400D01*
X113558800Y-97419400D02*
X111054400Y-97419400D01*
X111054400Y-97419400D02*
X104332500Y-104141300D01*
X104332500Y-104141300D02*
X88412300Y-104141300D01*
X88412300Y-104141300D02*
X86091700Y-101820700D01*
X86091700Y-101820700D02*
X86091700Y-70790500D01*
X86091700Y-70790500D02*
X87252900Y-69629300D01*
X87252900Y-69629300D02*
X96394900Y-69629300D01*
X96394900Y-69629300D02*
X97269300Y-70503700D01*
X97269300Y-70503700D02*
X97269300Y-71120000D01*
X98425000Y-71120000D02*
X97269300Y-71120000D01*
X118540000Y-103505000D02*
X117311400Y-103505000D01*
G04 #@! TO.N,/backlight_3x2/backlight_outputs/ir/NPN*
X148590000Y-74565000D02*
X149218600Y-74565000D01*
X149218600Y-74565000D02*
X149218600Y-73555400D01*
X149218600Y-73555400D02*
X149510900Y-73263100D01*
G04 #@! TO.N,/backlight_3x2/backlight_outputs/visible/NPN*
X148590000Y-103235000D02*
X148590000Y-103913600D01*
X148590000Y-103913600D02*
X148742100Y-104065700D01*
X148742100Y-104065700D02*
X148742100Y-104209500D01*
G04 #@! TD*
D34*
G04 #@! TO.N,GND*
G36*
X155765501Y-83669880D02*
X155645448Y-83380048D01*
X154989952Y-82724552D01*
X154133506Y-82369800D01*
X153206494Y-82369800D01*
X152350048Y-82724552D01*
X151694552Y-83380048D01*
X151339800Y-84236494D01*
X151339800Y-85163506D01*
X151694552Y-86019952D01*
X152350048Y-86675448D01*
X153206494Y-87030200D01*
X154133506Y-87030200D01*
X154989952Y-86675448D01*
X155645448Y-86019952D01*
X155765501Y-85730120D01*
X155765500Y-92069880D01*
X155645448Y-91780048D01*
X154989952Y-91124552D01*
X154133506Y-90769800D01*
X153206494Y-90769800D01*
X152350048Y-91124552D01*
X151694552Y-91780048D01*
X151339800Y-92636494D01*
X151339800Y-93563506D01*
X151694552Y-94419952D01*
X152350048Y-95075448D01*
X153206494Y-95430200D01*
X154133506Y-95430200D01*
X154989952Y-95075448D01*
X155645448Y-94419952D01*
X155765500Y-94130120D01*
X155765500Y-109410500D01*
X86169500Y-109410500D01*
X86169500Y-106213272D01*
X87007700Y-106213272D01*
X87007700Y-107146729D01*
X87080650Y-107513474D01*
X87358539Y-107929362D01*
X87774427Y-108207250D01*
X88265000Y-108304831D01*
X88755574Y-108207250D01*
X89171462Y-107929362D01*
X89449350Y-107513474D01*
X89522300Y-107146728D01*
X89522300Y-106213271D01*
X89449350Y-105846526D01*
X89171462Y-105430638D01*
X88755573Y-105152750D01*
X88265000Y-105055169D01*
X87774426Y-105152750D01*
X87358538Y-105430638D01*
X87080650Y-105846527D01*
X87007700Y-106213272D01*
X86169500Y-106213272D01*
X86169500Y-102509157D01*
X88076902Y-104416560D01*
X88100990Y-104452610D01*
X88137040Y-104476698D01*
X88137041Y-104476699D01*
X88203058Y-104520810D01*
X88243820Y-104548046D01*
X88369774Y-104573100D01*
X88369778Y-104573100D01*
X88412300Y-104581558D01*
X88454822Y-104573100D01*
X104289978Y-104573100D01*
X104332500Y-104581558D01*
X104375022Y-104573100D01*
X104375026Y-104573100D01*
X104500980Y-104548046D01*
X104643810Y-104452610D01*
X104667900Y-104416557D01*
X109308900Y-99775558D01*
X109308901Y-105308655D01*
X109075573Y-105152750D01*
X108585000Y-105055169D01*
X108094426Y-105152750D01*
X107678538Y-105430638D01*
X107400650Y-105846527D01*
X107327700Y-106213272D01*
X107327700Y-107146729D01*
X107400650Y-107513474D01*
X107559695Y-107751500D01*
X107070306Y-107751500D01*
X107229350Y-107513474D01*
X107302300Y-107146728D01*
X107302300Y-106213271D01*
X107229350Y-105846526D01*
X106951462Y-105430638D01*
X106535573Y-105152750D01*
X106045000Y-105055169D01*
X105554426Y-105152750D01*
X105138538Y-105430638D01*
X104860650Y-105846527D01*
X104787700Y-106213272D01*
X104787700Y-107146729D01*
X104860650Y-107513474D01*
X105019695Y-107751500D01*
X104530306Y-107751500D01*
X104689350Y-107513474D01*
X104762300Y-107146728D01*
X104762300Y-106213271D01*
X104689350Y-105846526D01*
X104411462Y-105430638D01*
X103995573Y-105152750D01*
X103505000Y-105055169D01*
X103014426Y-105152750D01*
X102598538Y-105430638D01*
X102320650Y-105846527D01*
X102247700Y-106213272D01*
X102247700Y-107146729D01*
X102320650Y-107513474D01*
X102479695Y-107751500D01*
X101990306Y-107751500D01*
X102149350Y-107513474D01*
X102222300Y-107146728D01*
X102222300Y-106213271D01*
X102149350Y-105846526D01*
X101871462Y-105430638D01*
X101455573Y-105152750D01*
X100965000Y-105055169D01*
X100474426Y-105152750D01*
X100058538Y-105430638D01*
X99780650Y-105846527D01*
X99707700Y-106213272D01*
X99707700Y-107146729D01*
X99780650Y-107513474D01*
X99939695Y-107751500D01*
X99450306Y-107751500D01*
X99609350Y-107513474D01*
X99682300Y-107146728D01*
X99682300Y-106213271D01*
X99609350Y-105846526D01*
X99331462Y-105430638D01*
X98915573Y-105152750D01*
X98425000Y-105055169D01*
X97934426Y-105152750D01*
X97518538Y-105430638D01*
X97240650Y-105846527D01*
X97167700Y-106213272D01*
X97167700Y-107146729D01*
X97240650Y-107513474D01*
X97399695Y-107751500D01*
X96910306Y-107751500D01*
X97069350Y-107513474D01*
X97142300Y-107146728D01*
X97142300Y-106213271D01*
X97069350Y-105846526D01*
X96791462Y-105430638D01*
X96375573Y-105152750D01*
X95885000Y-105055169D01*
X95394426Y-105152750D01*
X94978538Y-105430638D01*
X94700650Y-105846527D01*
X94627700Y-106213272D01*
X94627700Y-107146729D01*
X94700650Y-107513474D01*
X94859695Y-107751500D01*
X94370306Y-107751500D01*
X94529350Y-107513474D01*
X94602300Y-107146728D01*
X94602300Y-106213271D01*
X94529350Y-105846526D01*
X94251462Y-105430638D01*
X93835573Y-105152750D01*
X93345000Y-105055169D01*
X92854426Y-105152750D01*
X92438538Y-105430638D01*
X92160650Y-105846527D01*
X92101490Y-106143946D01*
X92062300Y-106136151D01*
X92047544Y-106139086D01*
X91989350Y-105846526D01*
X91711462Y-105430638D01*
X91295573Y-105152750D01*
X90805000Y-105055169D01*
X90314426Y-105152750D01*
X89898538Y-105430638D01*
X89620650Y-105846527D01*
X89547700Y-106213272D01*
X89547700Y-107146729D01*
X89620650Y-107513474D01*
X89898539Y-107929362D01*
X90314427Y-108207250D01*
X90805000Y-108304831D01*
X91295574Y-108207250D01*
X91695278Y-107940176D01*
X91722275Y-107958215D01*
X92388984Y-108624925D01*
X92418741Y-108669459D01*
X92595178Y-108787351D01*
X92750769Y-108818300D01*
X92750773Y-108818300D01*
X92803299Y-108828748D01*
X92855825Y-108818300D01*
X121798674Y-108818300D01*
X121851200Y-108828748D01*
X121903726Y-108818300D01*
X121903731Y-108818300D01*
X122059322Y-108787351D01*
X122235759Y-108669459D01*
X122265517Y-108624923D01*
X122895029Y-107995413D01*
X122939559Y-107965659D01*
X122949838Y-107950275D01*
X123334427Y-108207250D01*
X123825000Y-108304831D01*
X124315574Y-108207250D01*
X124731462Y-107929362D01*
X125009350Y-107513474D01*
X125082300Y-107146728D01*
X125082300Y-106213272D01*
X125107700Y-106213272D01*
X125107700Y-107146729D01*
X125180650Y-107513474D01*
X125458539Y-107929362D01*
X125874427Y-108207250D01*
X126365000Y-108304831D01*
X126855574Y-108207250D01*
X127271462Y-107929362D01*
X127549350Y-107513474D01*
X127622300Y-107146728D01*
X127622300Y-106213271D01*
X127549350Y-105846526D01*
X127271462Y-105430638D01*
X126855573Y-105152750D01*
X126365000Y-105055169D01*
X125874426Y-105152750D01*
X125458538Y-105430638D01*
X125180650Y-105846527D01*
X125107700Y-106213272D01*
X125082300Y-106213272D01*
X125082300Y-106213271D01*
X125009350Y-105846526D01*
X124731462Y-105430638D01*
X124315573Y-105152750D01*
X124016066Y-105093174D01*
X125070841Y-104038400D01*
X126598825Y-104038400D01*
X126601939Y-104043061D01*
X126711162Y-104116042D01*
X126840000Y-104141669D01*
X128840000Y-104141669D01*
X128968838Y-104116042D01*
X129078061Y-104043061D01*
X129151042Y-103933838D01*
X129176669Y-103805000D01*
X129176669Y-103205000D01*
X129154225Y-103092163D01*
X129199698Y-103073327D01*
X129378327Y-102894699D01*
X129475000Y-102661310D01*
X129475000Y-102520750D01*
X129316250Y-102362000D01*
X127967000Y-102362000D01*
X127967000Y-102382000D01*
X127713000Y-102382000D01*
X127713000Y-102362000D01*
X126363750Y-102362000D01*
X126205000Y-102520750D01*
X126205000Y-102661310D01*
X126301673Y-102894699D01*
X126378574Y-102971600D01*
X125070841Y-102971600D01*
X125030800Y-102931560D01*
X125030800Y-91259400D01*
X125316674Y-91259400D01*
X125369200Y-91269848D01*
X125421726Y-91259400D01*
X125421731Y-91259400D01*
X125577322Y-91228451D01*
X125753759Y-91110559D01*
X125783517Y-91066023D01*
X126917331Y-89932210D01*
X126917331Y-90170000D01*
X126942958Y-90298838D01*
X127015939Y-90408061D01*
X127125162Y-90481042D01*
X127254000Y-90506669D01*
X128524000Y-90506669D01*
X128652838Y-90481042D01*
X128762061Y-90408061D01*
X128835042Y-90298838D01*
X128860669Y-90170000D01*
X128860669Y-89442561D01*
X128906726Y-89433400D01*
X128906731Y-89433400D01*
X129062322Y-89402451D01*
X129238759Y-89284559D01*
X129268517Y-89240023D01*
X129274400Y-89234140D01*
X129274400Y-91258543D01*
X129028872Y-91504071D01*
X128968838Y-91463958D01*
X128840000Y-91438331D01*
X126840000Y-91438331D01*
X126711162Y-91463958D01*
X126601939Y-91536939D01*
X126528958Y-91646162D01*
X126503331Y-91775000D01*
X126503331Y-92375000D01*
X126528958Y-92503838D01*
X126601939Y-92613061D01*
X126711162Y-92686042D01*
X126831609Y-92710000D01*
X126711162Y-92733958D01*
X126601939Y-92806939D01*
X126528958Y-92916162D01*
X126503331Y-93045000D01*
X126503331Y-93645000D01*
X126528958Y-93773838D01*
X126601939Y-93883061D01*
X126711162Y-93956042D01*
X126831609Y-93980000D01*
X126711162Y-94003958D01*
X126601939Y-94076939D01*
X126528958Y-94186162D01*
X126503331Y-94315000D01*
X126503331Y-94915000D01*
X126528958Y-95043838D01*
X126601939Y-95153061D01*
X126711162Y-95226042D01*
X126831609Y-95250000D01*
X126711162Y-95273958D01*
X126601939Y-95346939D01*
X126528958Y-95456162D01*
X126503331Y-95585000D01*
X126503331Y-96185000D01*
X126528958Y-96313838D01*
X126601939Y-96423061D01*
X126711162Y-96496042D01*
X126831609Y-96520000D01*
X126711162Y-96543958D01*
X126601939Y-96616939D01*
X126528958Y-96726162D01*
X126503331Y-96855000D01*
X126503331Y-97455000D01*
X126528958Y-97583838D01*
X126601939Y-97693061D01*
X126711162Y-97766042D01*
X126831609Y-97790000D01*
X126711162Y-97813958D01*
X126601939Y-97886939D01*
X126528958Y-97996162D01*
X126503331Y-98125000D01*
X126503331Y-98725000D01*
X126528958Y-98853838D01*
X126601939Y-98963061D01*
X126711162Y-99036042D01*
X126831609Y-99060000D01*
X126711162Y-99083958D01*
X126601939Y-99156939D01*
X126528958Y-99266162D01*
X126503331Y-99395000D01*
X126503331Y-99995000D01*
X126528958Y-100123838D01*
X126601939Y-100233061D01*
X126711162Y-100306042D01*
X126831609Y-100330000D01*
X126711162Y-100353958D01*
X126601939Y-100426939D01*
X126528958Y-100536162D01*
X126503331Y-100665000D01*
X126503331Y-101265000D01*
X126525775Y-101377837D01*
X126480302Y-101396673D01*
X126301673Y-101575301D01*
X126205000Y-101808690D01*
X126205000Y-101949250D01*
X126363750Y-102108000D01*
X127713000Y-102108000D01*
X127713000Y-102088000D01*
X127967000Y-102088000D01*
X127967000Y-102108000D01*
X129316250Y-102108000D01*
X129475000Y-101949250D01*
X129475000Y-101808690D01*
X129378327Y-101575301D01*
X129199698Y-101396673D01*
X129171170Y-101384856D01*
X129237080Y-101371746D01*
X129379910Y-101276310D01*
X129404000Y-101240258D01*
X130911463Y-99732795D01*
X130797171Y-99903845D01*
X130712403Y-100330000D01*
X130797171Y-100756155D01*
X131038568Y-101117432D01*
X131399845Y-101358829D01*
X131657542Y-101410088D01*
X131673254Y-101489079D01*
X131744601Y-101595858D01*
X131744603Y-101595860D01*
X131768691Y-101631910D01*
X131804741Y-101655998D01*
X131945901Y-101797158D01*
X131945900Y-105469455D01*
X131369199Y-104892754D01*
X130594347Y-104571800D01*
X129755653Y-104571800D01*
X128980801Y-104892754D01*
X128387754Y-105485801D01*
X128066800Y-106260653D01*
X128066800Y-107099347D01*
X128387754Y-107874199D01*
X128980801Y-108467246D01*
X129755653Y-108788200D01*
X130594347Y-108788200D01*
X131369199Y-108467246D01*
X131962246Y-107874199D01*
X132004782Y-107771507D01*
X132066390Y-107863710D01*
X132102442Y-107887799D01*
X133313702Y-109099060D01*
X133337790Y-109135110D01*
X133373840Y-109159198D01*
X133373841Y-109159199D01*
X133480620Y-109230546D01*
X133606574Y-109255600D01*
X133606577Y-109255600D01*
X133649099Y-109264058D01*
X133691621Y-109255600D01*
X138072078Y-109255600D01*
X138114600Y-109264058D01*
X138157122Y-109255600D01*
X138157126Y-109255600D01*
X138283080Y-109230546D01*
X138425910Y-109135110D01*
X138450000Y-109099057D01*
X142412959Y-105136098D01*
X142713000Y-105136098D01*
X142713000Y-105683902D01*
X142922636Y-106190008D01*
X143309992Y-106577364D01*
X143816098Y-106787000D01*
X144363902Y-106787000D01*
X144870008Y-106577364D01*
X145257364Y-106190008D01*
X145467000Y-105683902D01*
X145467000Y-105136098D01*
X151713000Y-105136098D01*
X151713000Y-105683902D01*
X151922636Y-106190008D01*
X152309992Y-106577364D01*
X152816098Y-106787000D01*
X153363902Y-106787000D01*
X153870008Y-106577364D01*
X154257364Y-106190008D01*
X154467000Y-105683902D01*
X154467000Y-105136098D01*
X154257364Y-104629992D01*
X153870008Y-104242636D01*
X153363902Y-104033000D01*
X152816098Y-104033000D01*
X152309992Y-104242636D01*
X151922636Y-104629992D01*
X151713000Y-105136098D01*
X145467000Y-105136098D01*
X145257364Y-104629992D01*
X144870008Y-104242636D01*
X144363902Y-104033000D01*
X143816098Y-104033000D01*
X143309992Y-104242636D01*
X142922636Y-104629992D01*
X142713000Y-105136098D01*
X142412959Y-105136098D01*
X144764057Y-102785000D01*
X147853331Y-102785000D01*
X147853331Y-103685000D01*
X147878958Y-103813838D01*
X147951939Y-103923061D01*
X148061162Y-103996042D01*
X148124254Y-104008591D01*
X148094400Y-104080664D01*
X148094400Y-104338336D01*
X148193007Y-104576392D01*
X148375208Y-104758593D01*
X148613264Y-104857200D01*
X148870936Y-104857200D01*
X149108992Y-104758593D01*
X149291193Y-104576392D01*
X149389800Y-104338336D01*
X149389800Y-104080664D01*
X149291193Y-103842608D01*
X149285573Y-103836988D01*
X149301042Y-103813838D01*
X149326669Y-103685000D01*
X149326669Y-102785000D01*
X149301042Y-102656162D01*
X149228061Y-102546939D01*
X149118838Y-102473958D01*
X148990000Y-102448331D01*
X148190000Y-102448331D01*
X148061162Y-102473958D01*
X147951939Y-102546939D01*
X147878958Y-102656162D01*
X147853331Y-102785000D01*
X144764057Y-102785000D01*
X145882258Y-101666800D01*
X146903331Y-101666800D01*
X146903331Y-101685000D01*
X146928958Y-101813838D01*
X147001939Y-101923061D01*
X147111162Y-101996042D01*
X147240000Y-102021669D01*
X148040000Y-102021669D01*
X148168838Y-101996042D01*
X148278061Y-101923061D01*
X148351042Y-101813838D01*
X148376669Y-101685000D01*
X148376669Y-101520750D01*
X148505000Y-101520750D01*
X148505000Y-101811310D01*
X148601673Y-102044699D01*
X148780302Y-102223327D01*
X149013691Y-102320000D01*
X149254250Y-102320000D01*
X149413000Y-102161250D01*
X149413000Y-101362000D01*
X149667000Y-101362000D01*
X149667000Y-102161250D01*
X149825750Y-102320000D01*
X150066309Y-102320000D01*
X150299698Y-102223327D01*
X150478327Y-102044699D01*
X150575000Y-101811310D01*
X150575000Y-101520750D01*
X150416250Y-101362000D01*
X149667000Y-101362000D01*
X149413000Y-101362000D01*
X148663750Y-101362000D01*
X148505000Y-101520750D01*
X148376669Y-101520750D01*
X148376669Y-100785000D01*
X148351545Y-100658690D01*
X148505000Y-100658690D01*
X148505000Y-100949250D01*
X148663750Y-101108000D01*
X149413000Y-101108000D01*
X149413000Y-100308750D01*
X149667000Y-100308750D01*
X149667000Y-101108000D01*
X150416250Y-101108000D01*
X150575000Y-100949250D01*
X150575000Y-100658690D01*
X150478327Y-100425301D01*
X150299698Y-100246673D01*
X150066309Y-100150000D01*
X149825750Y-100150000D01*
X149667000Y-100308750D01*
X149413000Y-100308750D01*
X149254250Y-100150000D01*
X149013691Y-100150000D01*
X148780302Y-100246673D01*
X148601673Y-100425301D01*
X148505000Y-100658690D01*
X148351545Y-100658690D01*
X148351042Y-100656162D01*
X148278061Y-100546939D01*
X148168838Y-100473958D01*
X148040000Y-100448331D01*
X147240000Y-100448331D01*
X147111162Y-100473958D01*
X147001939Y-100546939D01*
X146928958Y-100656162D01*
X146903331Y-100785000D01*
X146903331Y-100803200D01*
X145745922Y-100803200D01*
X145703400Y-100794742D01*
X145660878Y-100803200D01*
X145660874Y-100803200D01*
X145534920Y-100828254D01*
X145428141Y-100899601D01*
X145428140Y-100899602D01*
X145392090Y-100923690D01*
X145368002Y-100959740D01*
X138385669Y-107942074D01*
X138385669Y-106045000D01*
X138360042Y-105916162D01*
X138287061Y-105806939D01*
X138177838Y-105733958D01*
X138049000Y-105708331D01*
X136779000Y-105708331D01*
X136650162Y-105733958D01*
X136540939Y-105806939D01*
X136467958Y-105916162D01*
X136442331Y-106045000D01*
X136442331Y-106585752D01*
X135703900Y-105847322D01*
X135703900Y-103330478D01*
X136169870Y-103796449D01*
X136195377Y-103834623D01*
X136291507Y-103898855D01*
X136346609Y-103935673D01*
X136442331Y-103954713D01*
X136442331Y-104775000D01*
X136467958Y-104903838D01*
X136540939Y-105013061D01*
X136650162Y-105086042D01*
X136779000Y-105111669D01*
X138049000Y-105111669D01*
X138177838Y-105086042D01*
X138287061Y-105013061D01*
X138360042Y-104903838D01*
X138385669Y-104775000D01*
X138385669Y-102235000D01*
X138360042Y-102106162D01*
X138287061Y-101996939D01*
X138177838Y-101923958D01*
X138049000Y-101898331D01*
X136779000Y-101898331D01*
X136650162Y-101923958D01*
X136540939Y-101996939D01*
X136467958Y-102106162D01*
X136442331Y-102235000D01*
X136442331Y-102775752D01*
X136059900Y-102393322D01*
X136059900Y-101415144D01*
X136254059Y-101572059D01*
X136779000Y-101727000D01*
X137033000Y-101727000D01*
X137033000Y-100457000D01*
X137287000Y-100457000D01*
X137287000Y-101727000D01*
X137541000Y-101727000D01*
X138065941Y-101572059D01*
X138491630Y-101228026D01*
X138753260Y-100747277D01*
X138768220Y-100673070D01*
X138645720Y-100457000D01*
X137287000Y-100457000D01*
X137033000Y-100457000D01*
X137013000Y-100457000D01*
X137013000Y-100203000D01*
X137033000Y-100203000D01*
X137033000Y-97917000D01*
X137287000Y-97917000D01*
X137287000Y-100203000D01*
X138645720Y-100203000D01*
X138768220Y-99986930D01*
X138753260Y-99912723D01*
X138491630Y-99431974D01*
X138065941Y-99087941D01*
X137971277Y-99060000D01*
X138065941Y-99032059D01*
X138491630Y-98688026D01*
X138753260Y-98207277D01*
X138768220Y-98133070D01*
X138645720Y-97917000D01*
X137287000Y-97917000D01*
X137033000Y-97917000D01*
X137013000Y-97917000D01*
X137013000Y-97663000D01*
X137033000Y-97663000D01*
X137033000Y-95377000D01*
X137287000Y-95377000D01*
X137287000Y-97663000D01*
X138645720Y-97663000D01*
X138653817Y-97648718D01*
X138794059Y-97762059D01*
X139319000Y-97917000D01*
X139573000Y-97917000D01*
X139573000Y-96647000D01*
X139827000Y-96647000D01*
X139827000Y-97917000D01*
X140081000Y-97917000D01*
X140605941Y-97762059D01*
X141031630Y-97418026D01*
X141293260Y-96937277D01*
X141308220Y-96863070D01*
X141185720Y-96647000D01*
X139827000Y-96647000D01*
X139573000Y-96647000D01*
X138214280Y-96647000D01*
X138206183Y-96661282D01*
X138065941Y-96547941D01*
X137971277Y-96520000D01*
X143412403Y-96520000D01*
X143497171Y-96946155D01*
X143738568Y-97307432D01*
X144099845Y-97548829D01*
X144418431Y-97612200D01*
X145141569Y-97612200D01*
X145460155Y-97548829D01*
X145821432Y-97307432D01*
X146062829Y-96946155D01*
X146147597Y-96520000D01*
X146062829Y-96093845D01*
X145913261Y-95870000D01*
X146297456Y-95870000D01*
X146370000Y-95884430D01*
X146442544Y-95870000D01*
X146577282Y-95843199D01*
X146657407Y-95827261D01*
X146901058Y-95664458D01*
X147063861Y-95420807D01*
X147098169Y-95248331D01*
X147121030Y-95133400D01*
X147106600Y-95060856D01*
X147106600Y-94918992D01*
X147584108Y-94824010D01*
X148189500Y-94419500D01*
X148594010Y-93814108D01*
X148736055Y-93100000D01*
X148594010Y-92385892D01*
X148189500Y-91780500D01*
X147584108Y-91375990D01*
X147106600Y-91281008D01*
X147106600Y-90718992D01*
X147584108Y-90624010D01*
X148189500Y-90219500D01*
X148594010Y-89614108D01*
X148736055Y-88900000D01*
X148594010Y-88185892D01*
X148189500Y-87580500D01*
X147584108Y-87175990D01*
X147106600Y-87081008D01*
X147106600Y-86536669D01*
X148370000Y-86536669D01*
X148498838Y-86511042D01*
X148608061Y-86438061D01*
X148681042Y-86328838D01*
X148706669Y-86200000D01*
X148706669Y-83200000D01*
X148681042Y-83071162D01*
X148608061Y-82961939D01*
X148498838Y-82888958D01*
X148370000Y-82863331D01*
X144370000Y-82863331D01*
X144241162Y-82888958D01*
X144131939Y-82961939D01*
X144058958Y-83071162D01*
X144033331Y-83200000D01*
X144033331Y-86200000D01*
X144058958Y-86328838D01*
X144131939Y-86438061D01*
X144241162Y-86511042D01*
X144370000Y-86536669D01*
X145633401Y-86536669D01*
X145633400Y-87081008D01*
X145155892Y-87175990D01*
X144550500Y-87580500D01*
X144145990Y-88185892D01*
X144003945Y-88900000D01*
X144145990Y-89614108D01*
X144550500Y-90219500D01*
X145155892Y-90624010D01*
X145633401Y-90718992D01*
X145633400Y-91281008D01*
X145155892Y-91375990D01*
X144550500Y-91780500D01*
X144145990Y-92385892D01*
X144003945Y-93100000D01*
X144145990Y-93814108D01*
X144550500Y-94419500D01*
X144582142Y-94440642D01*
X144340142Y-94602342D01*
X144303612Y-94657014D01*
X144248943Y-94693542D01*
X144207852Y-94755039D01*
X144207849Y-94755042D01*
X144086139Y-94937194D01*
X144028971Y-95224600D01*
X144043401Y-95297145D01*
X144043401Y-95528886D01*
X143738568Y-95732568D01*
X143497171Y-96093845D01*
X143412403Y-96520000D01*
X137971277Y-96520000D01*
X138065941Y-96492059D01*
X138206183Y-96378718D01*
X138214280Y-96393000D01*
X139573000Y-96393000D01*
X139573000Y-95123000D01*
X139319000Y-95123000D01*
X138794059Y-95277941D01*
X138653817Y-95391282D01*
X138645720Y-95377000D01*
X137287000Y-95377000D01*
X137033000Y-95377000D01*
X137013000Y-95377000D01*
X137013000Y-95123000D01*
X137033000Y-95123000D01*
X137033000Y-92837000D01*
X137013000Y-92837000D01*
X137013000Y-92583000D01*
X137033000Y-92583000D01*
X137033000Y-90297000D01*
X137013000Y-90297000D01*
X137013000Y-90043000D01*
X137033000Y-90043000D01*
X137033000Y-87757000D01*
X137013000Y-87757000D01*
X137013000Y-87503000D01*
X137033000Y-87503000D01*
X137033000Y-85217000D01*
X137013000Y-85217000D01*
X137013000Y-84963000D01*
X137033000Y-84963000D01*
X137033000Y-82677000D01*
X137287000Y-82677000D01*
X137287000Y-84963000D01*
X137307000Y-84963000D01*
X137307000Y-85217000D01*
X137287000Y-85217000D01*
X137287000Y-87503000D01*
X137307000Y-87503000D01*
X137307000Y-87757000D01*
X137287000Y-87757000D01*
X137287000Y-90043000D01*
X137307000Y-90043000D01*
X137307000Y-90297000D01*
X137287000Y-90297000D01*
X137287000Y-92583000D01*
X137307000Y-92583000D01*
X137307000Y-92837000D01*
X137287000Y-92837000D01*
X137287000Y-95123000D01*
X138645720Y-95123000D01*
X138768220Y-94906930D01*
X138753260Y-94832723D01*
X138491630Y-94351974D01*
X138065941Y-94007941D01*
X137971277Y-93980000D01*
X138065941Y-93952059D01*
X138332213Y-93736863D01*
X138348916Y-93799696D01*
X138770524Y-94519870D01*
X139435638Y-95023882D01*
X139827000Y-95126220D01*
X139827000Y-96393000D01*
X141185720Y-96393000D01*
X141308220Y-96176930D01*
X141293260Y-96102723D01*
X141031630Y-95621974D01*
X140605941Y-95277941D01*
X140460457Y-95235000D01*
X140743000Y-95235000D01*
X140743000Y-93227000D01*
X140997000Y-93227000D01*
X140997000Y-95235000D01*
X141497000Y-95235000D01*
X142304362Y-95023882D01*
X142969476Y-94519870D01*
X143391084Y-93799696D01*
X143455113Y-93558833D01*
X143342165Y-93227000D01*
X140997000Y-93227000D01*
X140743000Y-93227000D01*
X140723000Y-93227000D01*
X140723000Y-92973000D01*
X140743000Y-92973000D01*
X140743000Y-89027000D01*
X140997000Y-89027000D01*
X140997000Y-92973000D01*
X143342165Y-92973000D01*
X143455113Y-92641167D01*
X143391084Y-92400304D01*
X142969476Y-91680130D01*
X142304362Y-91176118D01*
X141630848Y-91000000D01*
X142304362Y-90823882D01*
X142969476Y-90319870D01*
X143391084Y-89599696D01*
X143455113Y-89358833D01*
X143342165Y-89027000D01*
X140997000Y-89027000D01*
X140743000Y-89027000D01*
X138397835Y-89027000D01*
X138352676Y-89159674D01*
X138065941Y-88927941D01*
X137971277Y-88900000D01*
X138065941Y-88872059D01*
X138352676Y-88640326D01*
X138397835Y-88773000D01*
X140743000Y-88773000D01*
X140743000Y-84827000D01*
X140997000Y-84827000D01*
X140997000Y-88773000D01*
X143342165Y-88773000D01*
X143455113Y-88441167D01*
X143391084Y-88200304D01*
X142969476Y-87480130D01*
X142304362Y-86976118D01*
X141630848Y-86800000D01*
X142304362Y-86623882D01*
X142969476Y-86119870D01*
X143391084Y-85399696D01*
X143455113Y-85158833D01*
X143342165Y-84827000D01*
X140997000Y-84827000D01*
X140743000Y-84827000D01*
X140723000Y-84827000D01*
X140723000Y-84573000D01*
X140743000Y-84573000D01*
X140743000Y-82565000D01*
X140997000Y-82565000D01*
X140997000Y-84573000D01*
X143342165Y-84573000D01*
X143455113Y-84241167D01*
X143391084Y-84000304D01*
X142969476Y-83280130D01*
X142304362Y-82776118D01*
X141497000Y-82565000D01*
X140997000Y-82565000D01*
X140743000Y-82565000D01*
X140243000Y-82565000D01*
X139435638Y-82776118D01*
X138770524Y-83280130D01*
X138348916Y-84000304D01*
X138332213Y-84063137D01*
X138065941Y-83847941D01*
X137971277Y-83820000D01*
X138065941Y-83792059D01*
X138491630Y-83448026D01*
X138753260Y-82967277D01*
X138768220Y-82893070D01*
X138645720Y-82677000D01*
X137287000Y-82677000D01*
X137033000Y-82677000D01*
X135674280Y-82677000D01*
X135551780Y-82893070D01*
X135566740Y-82967277D01*
X135624330Y-83073100D01*
X135481800Y-83073100D01*
X135481800Y-80353070D01*
X135551780Y-80353070D01*
X135566740Y-80427277D01*
X135828370Y-80908026D01*
X136254059Y-81252059D01*
X136348723Y-81280000D01*
X136254059Y-81307941D01*
X135828370Y-81651974D01*
X135566740Y-82132723D01*
X135551780Y-82206930D01*
X135674280Y-82423000D01*
X137033000Y-82423000D01*
X137033000Y-80137000D01*
X137287000Y-80137000D01*
X137287000Y-82423000D01*
X138645720Y-82423000D01*
X138768220Y-82206930D01*
X138753260Y-82132723D01*
X138491630Y-81651974D01*
X138065941Y-81307941D01*
X137971277Y-81280000D01*
X138065941Y-81252059D01*
X138491630Y-80908026D01*
X138753260Y-80427277D01*
X138768220Y-80353070D01*
X138645720Y-80137000D01*
X137287000Y-80137000D01*
X137033000Y-80137000D01*
X135674280Y-80137000D01*
X135551780Y-80353070D01*
X135481800Y-80353070D01*
X135481800Y-78021400D01*
X135639732Y-78021400D01*
X135828370Y-78368026D01*
X136254059Y-78712059D01*
X136348723Y-78740000D01*
X136254059Y-78767941D01*
X135828370Y-79111974D01*
X135566740Y-79592723D01*
X135551780Y-79666930D01*
X135674280Y-79883000D01*
X137033000Y-79883000D01*
X137033000Y-77597000D01*
X137287000Y-77597000D01*
X137287000Y-79883000D01*
X138645720Y-79883000D01*
X138768220Y-79666930D01*
X138753260Y-79592723D01*
X138491630Y-79111974D01*
X138065941Y-78767941D01*
X137971277Y-78740000D01*
X138065941Y-78712059D01*
X138491630Y-78368026D01*
X138753260Y-77887277D01*
X138768220Y-77813070D01*
X138645720Y-77597000D01*
X137287000Y-77597000D01*
X137033000Y-77597000D01*
X137013000Y-77597000D01*
X137013000Y-77343000D01*
X137033000Y-77343000D01*
X137033000Y-77323000D01*
X137287000Y-77323000D01*
X137287000Y-77343000D01*
X138645720Y-77343000D01*
X138768220Y-77126930D01*
X138753260Y-77052723D01*
X138643344Y-76850750D01*
X146605000Y-76850750D01*
X146605000Y-77141310D01*
X146701673Y-77374699D01*
X146880302Y-77553327D01*
X147113691Y-77650000D01*
X147354250Y-77650000D01*
X147513000Y-77491250D01*
X147513000Y-76692000D01*
X146763750Y-76692000D01*
X146605000Y-76850750D01*
X138643344Y-76850750D01*
X138491630Y-76571974D01*
X138154979Y-76299900D01*
X146625650Y-76299900D01*
X146763750Y-76438000D01*
X147513000Y-76438000D01*
X147513000Y-76418000D01*
X147767000Y-76418000D01*
X147767000Y-76438000D01*
X147787000Y-76438000D01*
X147787000Y-76692000D01*
X147767000Y-76692000D01*
X147767000Y-77491250D01*
X147925750Y-77650000D01*
X148166309Y-77650000D01*
X148399698Y-77553327D01*
X148578327Y-77374699D01*
X148675000Y-77141310D01*
X148675000Y-76926363D01*
X148742920Y-76971746D01*
X148803331Y-76983763D01*
X148803331Y-77015000D01*
X148828958Y-77143838D01*
X148901939Y-77253061D01*
X149011162Y-77326042D01*
X149140000Y-77351669D01*
X149940000Y-77351669D01*
X150068838Y-77326042D01*
X150178061Y-77253061D01*
X150251042Y-77143838D01*
X150276669Y-77015000D01*
X150276669Y-76115000D01*
X150251042Y-75986162D01*
X150178061Y-75876939D01*
X150068838Y-75803958D01*
X149940000Y-75778331D01*
X149140000Y-75778331D01*
X149011162Y-75803958D01*
X148901939Y-75876939D01*
X148874725Y-75917668D01*
X148549900Y-75592843D01*
X148525810Y-75556790D01*
X148382980Y-75461354D01*
X148257026Y-75436300D01*
X148257022Y-75436300D01*
X148214500Y-75427842D01*
X148171978Y-75436300D01*
X138385669Y-75436300D01*
X138385669Y-74115000D01*
X147853331Y-74115000D01*
X147853331Y-75015000D01*
X147878958Y-75143838D01*
X147951939Y-75253061D01*
X148061162Y-75326042D01*
X148190000Y-75351669D01*
X148990000Y-75351669D01*
X149118838Y-75326042D01*
X149228061Y-75253061D01*
X149301042Y-75143838D01*
X149326669Y-75015000D01*
X149326669Y-74983763D01*
X149387080Y-74971746D01*
X149529910Y-74876310D01*
X149625346Y-74733480D01*
X149658859Y-74565000D01*
X149650400Y-74522474D01*
X149650400Y-73906383D01*
X149877792Y-73812193D01*
X150059993Y-73629992D01*
X150158600Y-73391936D01*
X150158600Y-73134264D01*
X150059993Y-72896208D01*
X149877792Y-72714007D01*
X149639736Y-72615400D01*
X149382064Y-72615400D01*
X149144008Y-72714007D01*
X148961807Y-72896208D01*
X148863200Y-73134264D01*
X148863200Y-73310076D01*
X148811854Y-73386921D01*
X148778342Y-73555400D01*
X148786801Y-73597927D01*
X148786801Y-73778331D01*
X148190000Y-73778331D01*
X148061162Y-73803958D01*
X147951939Y-73876939D01*
X147878958Y-73986162D01*
X147853331Y-74115000D01*
X138385669Y-74115000D01*
X138385669Y-73025000D01*
X138360042Y-72896162D01*
X138287061Y-72786939D01*
X138177838Y-72713958D01*
X138049000Y-72688331D01*
X136779000Y-72688331D01*
X136650162Y-72713958D01*
X136540939Y-72786939D01*
X136467958Y-72896162D01*
X136442331Y-73025000D01*
X136442331Y-73845287D01*
X136346609Y-73864327D01*
X136195377Y-73965377D01*
X136094327Y-74116609D01*
X136058843Y-74295000D01*
X136067800Y-74340031D01*
X136067801Y-74994620D01*
X134797800Y-76264622D01*
X134797800Y-75901669D01*
X135001000Y-75901669D01*
X135129838Y-75876042D01*
X135239061Y-75803061D01*
X135312042Y-75693838D01*
X135337669Y-75565000D01*
X135337669Y-73025000D01*
X135312042Y-72896162D01*
X135239061Y-72786939D01*
X135129838Y-72713958D01*
X135001000Y-72688331D01*
X134271926Y-72688331D01*
X134641257Y-72319000D01*
X134677310Y-72294910D01*
X134772746Y-72152080D01*
X134779903Y-72116098D01*
X142713000Y-72116098D01*
X142713000Y-72663902D01*
X142922636Y-73170008D01*
X143309992Y-73557364D01*
X143816098Y-73767000D01*
X144363902Y-73767000D01*
X144870008Y-73557364D01*
X145257364Y-73170008D01*
X145467000Y-72663902D01*
X145467000Y-72116098D01*
X151713000Y-72116098D01*
X151713000Y-72663902D01*
X151922636Y-73170008D01*
X152309992Y-73557364D01*
X152816098Y-73767000D01*
X153363902Y-73767000D01*
X153870008Y-73557364D01*
X154257364Y-73170008D01*
X154467000Y-72663902D01*
X154467000Y-72116098D01*
X154257364Y-71609992D01*
X153870008Y-71222636D01*
X153363902Y-71013000D01*
X152816098Y-71013000D01*
X152309992Y-71222636D01*
X151922636Y-71609992D01*
X151713000Y-72116098D01*
X145467000Y-72116098D01*
X145257364Y-71609992D01*
X144870008Y-71222636D01*
X144363902Y-71013000D01*
X143816098Y-71013000D01*
X143309992Y-71222636D01*
X142922636Y-71609992D01*
X142713000Y-72116098D01*
X134779903Y-72116098D01*
X134784763Y-72091669D01*
X135001000Y-72091669D01*
X135129838Y-72066042D01*
X135239061Y-71993061D01*
X135312042Y-71883838D01*
X135337669Y-71755000D01*
X135337669Y-69833147D01*
X136076056Y-70571535D01*
X136094327Y-70663391D01*
X136150844Y-70747974D01*
X136195377Y-70814623D01*
X136346609Y-70915673D01*
X136442331Y-70934713D01*
X136442331Y-71755000D01*
X136467958Y-71883838D01*
X136540939Y-71993061D01*
X136650162Y-72066042D01*
X136779000Y-72091669D01*
X138049000Y-72091669D01*
X138177838Y-72066042D01*
X138287061Y-71993061D01*
X138360042Y-71883838D01*
X138385669Y-71755000D01*
X138385669Y-69215000D01*
X138360042Y-69086162D01*
X138287061Y-68976939D01*
X138177838Y-68903958D01*
X138049000Y-68878331D01*
X136779000Y-68878331D01*
X136650162Y-68903958D01*
X136540939Y-68976939D01*
X136467958Y-69086162D01*
X136442331Y-69215000D01*
X136442331Y-69644652D01*
X135492232Y-68694554D01*
X135466723Y-68656377D01*
X135315491Y-68555327D01*
X135182130Y-68528800D01*
X135137100Y-68519843D01*
X135092070Y-68528800D01*
X133634130Y-68528800D01*
X133589100Y-68519843D01*
X133544070Y-68528800D01*
X133410709Y-68555327D01*
X133259477Y-68656377D01*
X133233970Y-68694552D01*
X132905354Y-69023168D01*
X132867177Y-69048677D01*
X132789861Y-69164390D01*
X132766127Y-69199910D01*
X132730643Y-69378300D01*
X132739600Y-69423330D01*
X132739601Y-72988521D01*
X129176669Y-76551453D01*
X129176669Y-76535000D01*
X129161586Y-76459171D01*
X129318857Y-76301900D01*
X129354910Y-76277810D01*
X129450346Y-76134980D01*
X129475400Y-76009026D01*
X129483859Y-75966500D01*
X129475400Y-75923974D01*
X129475400Y-73112115D01*
X129755653Y-73228200D01*
X130594347Y-73228200D01*
X131369199Y-72907246D01*
X131962246Y-72314199D01*
X132283200Y-71539347D01*
X132283200Y-70700653D01*
X131962246Y-69925801D01*
X131369199Y-69332754D01*
X130594347Y-69011800D01*
X129755653Y-69011800D01*
X128980801Y-69332754D01*
X128387754Y-69925801D01*
X128195991Y-70388758D01*
X128175199Y-70357641D01*
X128175198Y-70357640D01*
X128151110Y-70321590D01*
X128115061Y-70297503D01*
X127171599Y-69354042D01*
X127147510Y-69317990D01*
X127004680Y-69222554D01*
X126878726Y-69197500D01*
X126878722Y-69197500D01*
X126836200Y-69189042D01*
X126793678Y-69197500D01*
X108117522Y-69197500D01*
X108075000Y-69189042D01*
X108032478Y-69197500D01*
X108032474Y-69197500D01*
X107906520Y-69222554D01*
X107799741Y-69293901D01*
X107799740Y-69293902D01*
X107763690Y-69317990D01*
X107739602Y-69354040D01*
X107060227Y-70033416D01*
X106951462Y-69870638D01*
X106535573Y-69592750D01*
X106045000Y-69495169D01*
X105554426Y-69592750D01*
X105138538Y-69870638D01*
X104860650Y-70286527D01*
X104787700Y-70653272D01*
X104787700Y-71586729D01*
X104860650Y-71953474D01*
X105138539Y-72369362D01*
X105554427Y-72647250D01*
X106045000Y-72744831D01*
X106535574Y-72647250D01*
X106951462Y-72369362D01*
X107229350Y-71953474D01*
X107302300Y-71586728D01*
X107302300Y-71540049D01*
X107327700Y-71534997D01*
X107327700Y-71586729D01*
X107400650Y-71953474D01*
X107678539Y-72369362D01*
X108094427Y-72647250D01*
X108585000Y-72744831D01*
X109075574Y-72647250D01*
X109491462Y-72369362D01*
X109769350Y-71953474D01*
X109842300Y-71586728D01*
X109842300Y-70653271D01*
X109769350Y-70286526D01*
X109618725Y-70061100D01*
X110091275Y-70061100D01*
X109940650Y-70286527D01*
X109867700Y-70653272D01*
X109867700Y-71586729D01*
X109940650Y-71953474D01*
X110218539Y-72369362D01*
X110634427Y-72647250D01*
X111125000Y-72744831D01*
X111615574Y-72647250D01*
X112031462Y-72369362D01*
X112309350Y-71953474D01*
X112382300Y-71586728D01*
X112382300Y-70653271D01*
X112309350Y-70286526D01*
X112158725Y-70061100D01*
X112631275Y-70061100D01*
X112480650Y-70286527D01*
X112407700Y-70653272D01*
X112407700Y-71586729D01*
X112480650Y-71953474D01*
X112758539Y-72369362D01*
X113174427Y-72647250D01*
X113665000Y-72744831D01*
X114155574Y-72647250D01*
X114571462Y-72369362D01*
X114849350Y-71953474D01*
X114922300Y-71586728D01*
X114922300Y-70653271D01*
X114849350Y-70286526D01*
X114698725Y-70061100D01*
X115171275Y-70061100D01*
X115020650Y-70286527D01*
X114947700Y-70653272D01*
X114947700Y-71586729D01*
X115020650Y-71953474D01*
X115298539Y-72369362D01*
X115714427Y-72647250D01*
X116205000Y-72744831D01*
X116695574Y-72647250D01*
X117111462Y-72369362D01*
X117389350Y-71953474D01*
X117462300Y-71586728D01*
X117462300Y-70653271D01*
X117389350Y-70286526D01*
X117238725Y-70061100D01*
X117711275Y-70061100D01*
X117560650Y-70286527D01*
X117487700Y-70653272D01*
X117487700Y-71586729D01*
X117560650Y-71953474D01*
X117838539Y-72369362D01*
X118254427Y-72647250D01*
X118745000Y-72744831D01*
X119235574Y-72647250D01*
X119651462Y-72369362D01*
X119929350Y-71953474D01*
X120002300Y-71586728D01*
X120002300Y-70653271D01*
X119929350Y-70286526D01*
X119778725Y-70061100D01*
X120251275Y-70061100D01*
X120100650Y-70286527D01*
X120027700Y-70653272D01*
X120027700Y-71586729D01*
X120100650Y-71953474D01*
X120378539Y-72369362D01*
X120794427Y-72647250D01*
X121285000Y-72744831D01*
X121775574Y-72647250D01*
X122191462Y-72369362D01*
X122469350Y-71953474D01*
X122542300Y-71586728D01*
X122542300Y-70653271D01*
X122469350Y-70286526D01*
X122318725Y-70061100D01*
X122791275Y-70061100D01*
X122640650Y-70286527D01*
X122567700Y-70653272D01*
X122567700Y-71586729D01*
X122640650Y-71953474D01*
X122918539Y-72369362D01*
X123334427Y-72647250D01*
X123825000Y-72744831D01*
X124315574Y-72647250D01*
X124731462Y-72369362D01*
X125009350Y-71953474D01*
X125082300Y-71586728D01*
X125082300Y-70653271D01*
X125009350Y-70286526D01*
X124858725Y-70061100D01*
X125331275Y-70061100D01*
X125180650Y-70286527D01*
X125107700Y-70653272D01*
X125107700Y-71586729D01*
X125180650Y-71953474D01*
X125458539Y-72369362D01*
X125874427Y-72647250D01*
X126365000Y-72744831D01*
X126855574Y-72647250D01*
X127271462Y-72369362D01*
X127549350Y-71953474D01*
X127550865Y-71945860D01*
X127564541Y-71954998D01*
X128611800Y-73002257D01*
X128611800Y-73658331D01*
X126840000Y-73658331D01*
X126711162Y-73683958D01*
X126601939Y-73756939D01*
X126528958Y-73866162D01*
X126503331Y-73995000D01*
X126503331Y-74595000D01*
X126528958Y-74723838D01*
X126601939Y-74833061D01*
X126711162Y-74906042D01*
X126831609Y-74930000D01*
X126711162Y-74953958D01*
X126601939Y-75026939D01*
X126528958Y-75136162D01*
X126503331Y-75265000D01*
X126503331Y-75865000D01*
X126518062Y-75939059D01*
X126432841Y-75996001D01*
X126432840Y-75996002D01*
X126396790Y-76020090D01*
X126372702Y-76056140D01*
X123466243Y-78962600D01*
X123430190Y-78986690D01*
X123334754Y-79129521D01*
X123309700Y-79255475D01*
X123309700Y-79255478D01*
X123301242Y-79298000D01*
X123309700Y-79340522D01*
X123309701Y-83970414D01*
X123192407Y-84087708D01*
X123093800Y-84325764D01*
X123093800Y-84583436D01*
X123192407Y-84821492D01*
X123374608Y-85003693D01*
X123418321Y-85021800D01*
X122274106Y-86166016D01*
X122183536Y-86128500D01*
X121925864Y-86128500D01*
X121746486Y-86202801D01*
X121654092Y-86110407D01*
X121416036Y-86011800D01*
X121158364Y-86011800D01*
X120920308Y-86110407D01*
X120738107Y-86292608D01*
X120639500Y-86530664D01*
X120639500Y-86788336D01*
X120732805Y-87013592D01*
X120544302Y-87091673D01*
X120365673Y-87270301D01*
X120269000Y-87503690D01*
X120269000Y-88614250D01*
X120427750Y-88773000D01*
X121412000Y-88773000D01*
X121412000Y-88753000D01*
X121666000Y-88753000D01*
X121666000Y-88773000D01*
X122650250Y-88773000D01*
X122809000Y-88614250D01*
X122809000Y-87695154D01*
X122863223Y-87658923D01*
X122888732Y-87620746D01*
X123005788Y-87503690D01*
X123571000Y-87503690D01*
X123571000Y-88614250D01*
X123729750Y-88773000D01*
X124714000Y-88773000D01*
X124714000Y-87153750D01*
X124968000Y-87153750D01*
X124968000Y-88773000D01*
X125952250Y-88773000D01*
X126111000Y-88614250D01*
X126111000Y-87503690D01*
X126014327Y-87270301D01*
X125835698Y-87091673D01*
X125602309Y-86995000D01*
X125126750Y-86995000D01*
X124968000Y-87153750D01*
X124714000Y-87153750D01*
X124555250Y-86995000D01*
X124079691Y-86995000D01*
X123846302Y-87091673D01*
X123667673Y-87270301D01*
X123571000Y-87503690D01*
X123005788Y-87503690D01*
X126272614Y-84236864D01*
X126363750Y-84328000D01*
X127713000Y-84328000D01*
X127713000Y-84308000D01*
X127967000Y-84308000D01*
X127967000Y-84328000D01*
X129027389Y-84328000D01*
X129125164Y-84368500D01*
X129382836Y-84368500D01*
X129620892Y-84269893D01*
X129803093Y-84087692D01*
X129901700Y-83849636D01*
X129901700Y-83591964D01*
X129803093Y-83353908D01*
X129620892Y-83171707D01*
X129500400Y-83121797D01*
X129500400Y-81527057D01*
X130763015Y-80264442D01*
X130797171Y-80436155D01*
X131038568Y-80797432D01*
X131368775Y-81018068D01*
X130560541Y-81826302D01*
X130524491Y-81850390D01*
X130500403Y-81886440D01*
X130500401Y-81886442D01*
X130429054Y-81993221D01*
X130395542Y-82161700D01*
X130404001Y-82204227D01*
X130404000Y-84091142D01*
X129430940Y-85064203D01*
X129394891Y-85088290D01*
X129380092Y-85110439D01*
X129475000Y-84881310D01*
X129475000Y-84740750D01*
X129316250Y-84582000D01*
X127967000Y-84582000D01*
X127967000Y-84602000D01*
X127713000Y-84602000D01*
X127713000Y-84582000D01*
X126363750Y-84582000D01*
X126205000Y-84740750D01*
X126205000Y-84881310D01*
X126301673Y-85114699D01*
X126480302Y-85293327D01*
X126525775Y-85312163D01*
X126503331Y-85425000D01*
X126503331Y-86025000D01*
X126528958Y-86153838D01*
X126601939Y-86263061D01*
X126711162Y-86336042D01*
X126840000Y-86361669D01*
X128636800Y-86361669D01*
X128636801Y-87315768D01*
X128524000Y-87293331D01*
X127254000Y-87293331D01*
X127125162Y-87318958D01*
X127015939Y-87391939D01*
X126942958Y-87501162D01*
X126917331Y-87630000D01*
X126917331Y-88357438D01*
X126871269Y-88366600D01*
X126715678Y-88397549D01*
X126539241Y-88515441D01*
X126421349Y-88691878D01*
X126379951Y-88900000D01*
X126390056Y-88950802D01*
X126111000Y-89229859D01*
X126111000Y-89185750D01*
X125952250Y-89027000D01*
X124968000Y-89027000D01*
X124968000Y-89047000D01*
X124714000Y-89047000D01*
X124714000Y-89027000D01*
X123729750Y-89027000D01*
X123571000Y-89185750D01*
X123571000Y-90192600D01*
X122809000Y-90192600D01*
X122809000Y-89185750D01*
X122650250Y-89027000D01*
X121666000Y-89027000D01*
X121666000Y-89047000D01*
X121412000Y-89047000D01*
X121412000Y-89027000D01*
X120427750Y-89027000D01*
X120269000Y-89185750D01*
X120269000Y-89226660D01*
X119990474Y-88948134D01*
X120000049Y-88900000D01*
X119958651Y-88691878D01*
X119840759Y-88515441D01*
X119664322Y-88397549D01*
X119508731Y-88366600D01*
X119462669Y-88357438D01*
X119462669Y-87630000D01*
X119437042Y-87501162D01*
X119364061Y-87391939D01*
X119254838Y-87318958D01*
X119163389Y-87300768D01*
X120043857Y-86420300D01*
X120079910Y-86396210D01*
X120175346Y-86253380D01*
X120200400Y-86127426D01*
X120200400Y-86127423D01*
X120208858Y-86084901D01*
X120200400Y-86042379D01*
X120200400Y-84497526D01*
X120208859Y-84455000D01*
X120175346Y-84286520D01*
X120143747Y-84239229D01*
X120337692Y-84158893D01*
X120519893Y-83976692D01*
X120618500Y-83738636D01*
X120618500Y-83480964D01*
X120519893Y-83242908D01*
X120337692Y-83060707D01*
X120154042Y-82984636D01*
X120079910Y-82873690D01*
X119937080Y-82778254D01*
X119871170Y-82765144D01*
X119899698Y-82753327D01*
X120078327Y-82574699D01*
X120175000Y-82341310D01*
X120175000Y-82200750D01*
X120016250Y-82042000D01*
X118667000Y-82042000D01*
X118667000Y-82062000D01*
X118413000Y-82062000D01*
X118413000Y-82042000D01*
X117063750Y-82042000D01*
X116905000Y-82200750D01*
X116905000Y-82341310D01*
X117001673Y-82574699D01*
X117180302Y-82753327D01*
X117225775Y-82772163D01*
X117203331Y-82885000D01*
X117203331Y-83485000D01*
X117228958Y-83613838D01*
X117301939Y-83723061D01*
X117411162Y-83796042D01*
X117531609Y-83820000D01*
X117411162Y-83843958D01*
X117301939Y-83916939D01*
X117228958Y-84026162D01*
X117203331Y-84155000D01*
X117203331Y-84755000D01*
X117228958Y-84883838D01*
X117301939Y-84993061D01*
X117411162Y-85066042D01*
X117531609Y-85090000D01*
X117411162Y-85113958D01*
X117301939Y-85186939D01*
X117228958Y-85296162D01*
X117203331Y-85425000D01*
X117203331Y-86025000D01*
X117228958Y-86153838D01*
X117301939Y-86263061D01*
X117355496Y-86298847D01*
X117038343Y-86616000D01*
X117002290Y-86640090D01*
X116906854Y-86782921D01*
X116881800Y-86908875D01*
X116881800Y-86908878D01*
X116873342Y-86951400D01*
X116881800Y-86993922D01*
X116881801Y-90372073D01*
X116873342Y-90414600D01*
X116906854Y-90583079D01*
X116978201Y-90689858D01*
X116978203Y-90689860D01*
X117002291Y-90725910D01*
X117038340Y-90749997D01*
X117428343Y-91140000D01*
X117413691Y-91140000D01*
X117180302Y-91236673D01*
X117001673Y-91415301D01*
X116905000Y-91648690D01*
X116905000Y-91789250D01*
X117063750Y-91948000D01*
X118413000Y-91948000D01*
X118413000Y-91928000D01*
X118667000Y-91928000D01*
X118667000Y-91948000D01*
X118687000Y-91948000D01*
X118687000Y-92202000D01*
X118667000Y-92202000D01*
X118667000Y-92222000D01*
X118413000Y-92222000D01*
X118413000Y-92202000D01*
X117063750Y-92202000D01*
X116905000Y-92360750D01*
X116905000Y-92501310D01*
X116958726Y-92631016D01*
X114503500Y-95086243D01*
X114503500Y-94413825D01*
X114513948Y-94361299D01*
X114505071Y-94316669D01*
X114554000Y-94316669D01*
X114682838Y-94291042D01*
X114792061Y-94218061D01*
X114865042Y-94108838D01*
X114890669Y-93980000D01*
X114890669Y-91510589D01*
X114914959Y-91494359D01*
X114944717Y-91449823D01*
X115015023Y-91379517D01*
X115059559Y-91349759D01*
X115177451Y-91173322D01*
X115208400Y-91017731D01*
X115208400Y-91017726D01*
X115218848Y-90965201D01*
X115213723Y-90939437D01*
X115313061Y-90873061D01*
X115386042Y-90763838D01*
X115411669Y-90635000D01*
X115411669Y-88435000D01*
X115386042Y-88306162D01*
X115313061Y-88196939D01*
X115203838Y-88123958D01*
X115075000Y-88098331D01*
X114275000Y-88098331D01*
X114146162Y-88123958D01*
X114105000Y-88151462D01*
X114063838Y-88123958D01*
X113935000Y-88098331D01*
X113135000Y-88098331D01*
X113006162Y-88123958D01*
X112896939Y-88196939D01*
X112823958Y-88306162D01*
X112798331Y-88435000D01*
X112798331Y-90635000D01*
X112823958Y-90763838D01*
X112896939Y-90873061D01*
X112907695Y-90880248D01*
X112141000Y-91646943D01*
X112141000Y-91313690D01*
X112044327Y-91080301D01*
X111865698Y-90901673D01*
X111856156Y-90897720D01*
X111893061Y-90873061D01*
X111966042Y-90763838D01*
X111991669Y-90635000D01*
X111991669Y-88435000D01*
X111966042Y-88306162D01*
X111893061Y-88196939D01*
X111783838Y-88123958D01*
X111655000Y-88098331D01*
X111062866Y-88098331D01*
X111053327Y-88075301D01*
X110874698Y-87896673D01*
X110641309Y-87800000D01*
X110400750Y-87800000D01*
X110242000Y-87958750D01*
X110242000Y-89408000D01*
X110262000Y-89408000D01*
X110262000Y-89662000D01*
X110242000Y-89662000D01*
X110242000Y-89682000D01*
X109988000Y-89682000D01*
X109988000Y-89662000D01*
X109238750Y-89662000D01*
X109080000Y-89820750D01*
X109080000Y-90761310D01*
X109176673Y-90994699D01*
X109355302Y-91173327D01*
X109588691Y-91270000D01*
X109619097Y-91270000D01*
X109601000Y-91313690D01*
X109601000Y-92424250D01*
X109759750Y-92583000D01*
X110744000Y-92583000D01*
X110744000Y-92563000D01*
X110998000Y-92563000D01*
X110998000Y-92583000D01*
X111018000Y-92583000D01*
X111018000Y-92837000D01*
X110998000Y-92837000D01*
X110998000Y-92857000D01*
X110744000Y-92857000D01*
X110744000Y-92837000D01*
X109759750Y-92837000D01*
X109601000Y-92995750D01*
X109601000Y-93051959D01*
X107576798Y-91027758D01*
X107588400Y-90969431D01*
X107588400Y-90969426D01*
X107594464Y-90938942D01*
X107693061Y-90873061D01*
X107766042Y-90763838D01*
X107791669Y-90635000D01*
X107791669Y-88435000D01*
X107766545Y-88308690D01*
X109080000Y-88308690D01*
X109080000Y-89249250D01*
X109238750Y-89408000D01*
X109988000Y-89408000D01*
X109988000Y-87958750D01*
X109829250Y-87800000D01*
X109588691Y-87800000D01*
X109355302Y-87896673D01*
X109176673Y-88075301D01*
X109080000Y-88308690D01*
X107766545Y-88308690D01*
X107766042Y-88306162D01*
X107693061Y-88196939D01*
X107583838Y-88123958D01*
X107455000Y-88098331D01*
X106655000Y-88098331D01*
X106526162Y-88123958D01*
X106485000Y-88151462D01*
X106443838Y-88123958D01*
X106315000Y-88098331D01*
X105515000Y-88098331D01*
X105386162Y-88123958D01*
X105276939Y-88196939D01*
X105203958Y-88306162D01*
X105178331Y-88435000D01*
X105178331Y-90635000D01*
X105203958Y-90763838D01*
X105276939Y-90873061D01*
X105287695Y-90880248D01*
X104521000Y-91646943D01*
X104521000Y-91313690D01*
X104424327Y-91080301D01*
X104245698Y-90901673D01*
X104236156Y-90897720D01*
X104273061Y-90873061D01*
X104346042Y-90763838D01*
X104371669Y-90635000D01*
X104371669Y-88435000D01*
X104346042Y-88306162D01*
X104273061Y-88196939D01*
X104163838Y-88123958D01*
X104035000Y-88098331D01*
X103442866Y-88098331D01*
X103433327Y-88075301D01*
X103254698Y-87896673D01*
X103021309Y-87800000D01*
X102780750Y-87800000D01*
X102622000Y-87958750D01*
X102622000Y-89408000D01*
X102642000Y-89408000D01*
X102642000Y-89662000D01*
X102622000Y-89662000D01*
X102622000Y-89682000D01*
X102368000Y-89682000D01*
X102368000Y-89662000D01*
X102348000Y-89662000D01*
X102348000Y-89408000D01*
X102368000Y-89408000D01*
X102368000Y-87958750D01*
X102250230Y-87840980D01*
X102386210Y-87705000D01*
X104702456Y-87705000D01*
X104775000Y-87719430D01*
X104847544Y-87705000D01*
X104894877Y-87695585D01*
X105062407Y-87662261D01*
X105306058Y-87499458D01*
X105468861Y-87255807D01*
X105505860Y-87069800D01*
X105526030Y-86968400D01*
X105511600Y-86895856D01*
X105511600Y-86771669D01*
X107675000Y-86771669D01*
X107803838Y-86746042D01*
X107913061Y-86673061D01*
X107986042Y-86563838D01*
X108011669Y-86435000D01*
X108011669Y-84876845D01*
X108239703Y-84971300D01*
X108547897Y-84971300D01*
X108832632Y-84853359D01*
X109050559Y-84635432D01*
X109088659Y-84543450D01*
X109158331Y-84473778D01*
X109158331Y-86435000D01*
X109183958Y-86563838D01*
X109256939Y-86673061D01*
X109366162Y-86746042D01*
X109495000Y-86771669D01*
X115295000Y-86771669D01*
X115423838Y-86746042D01*
X115533061Y-86673061D01*
X115606042Y-86563838D01*
X115631669Y-86435000D01*
X115631669Y-80930750D01*
X116905000Y-80930750D01*
X116905000Y-81071310D01*
X116991442Y-81280000D01*
X116905000Y-81488690D01*
X116905000Y-81629250D01*
X117063750Y-81788000D01*
X118413000Y-81788000D01*
X118413000Y-80772000D01*
X118667000Y-80772000D01*
X118667000Y-81788000D01*
X120016250Y-81788000D01*
X120175000Y-81629250D01*
X120175000Y-81488690D01*
X120088558Y-81280000D01*
X120175000Y-81071310D01*
X120175000Y-80930750D01*
X120016250Y-80772000D01*
X118667000Y-80772000D01*
X118413000Y-80772000D01*
X117063750Y-80772000D01*
X116905000Y-80930750D01*
X115631669Y-80930750D01*
X115631669Y-80035000D01*
X115606042Y-79906162D01*
X115533061Y-79796939D01*
X115423838Y-79723958D01*
X115295000Y-79698331D01*
X109495000Y-79698331D01*
X109479100Y-79701494D01*
X109479100Y-79660750D01*
X116905000Y-79660750D01*
X116905000Y-79801310D01*
X116991442Y-80010000D01*
X116905000Y-80218690D01*
X116905000Y-80359250D01*
X117063750Y-80518000D01*
X118413000Y-80518000D01*
X118413000Y-79502000D01*
X118667000Y-79502000D01*
X118667000Y-80518000D01*
X120016250Y-80518000D01*
X120175000Y-80359250D01*
X120175000Y-80218690D01*
X120088558Y-80010000D01*
X120175000Y-79801310D01*
X120175000Y-79660750D01*
X120016250Y-79502000D01*
X118667000Y-79502000D01*
X118413000Y-79502000D01*
X117063750Y-79502000D01*
X116905000Y-79660750D01*
X109479100Y-79660750D01*
X109479100Y-78390750D01*
X116905000Y-78390750D01*
X116905000Y-78531310D01*
X116991442Y-78740000D01*
X116905000Y-78948690D01*
X116905000Y-79089250D01*
X117063750Y-79248000D01*
X118413000Y-79248000D01*
X118413000Y-78232000D01*
X118667000Y-78232000D01*
X118667000Y-79248000D01*
X120016250Y-79248000D01*
X120175000Y-79089250D01*
X120175000Y-78948690D01*
X120088558Y-78740000D01*
X120175000Y-78531310D01*
X120175000Y-78390750D01*
X120016250Y-78232000D01*
X118667000Y-78232000D01*
X118413000Y-78232000D01*
X117063750Y-78232000D01*
X116905000Y-78390750D01*
X109479100Y-78390750D01*
X109479100Y-76115516D01*
X113579800Y-76115516D01*
X113579800Y-76684484D01*
X113797535Y-77210143D01*
X114199857Y-77612465D01*
X114725516Y-77830200D01*
X115294484Y-77830200D01*
X115820143Y-77612465D01*
X116222465Y-77210143D01*
X116259492Y-77120750D01*
X116905000Y-77120750D01*
X116905000Y-77261310D01*
X116991442Y-77470000D01*
X116905000Y-77678690D01*
X116905000Y-77819250D01*
X117063750Y-77978000D01*
X118413000Y-77978000D01*
X118413000Y-76962000D01*
X118667000Y-76962000D01*
X118667000Y-77978000D01*
X120016250Y-77978000D01*
X120175000Y-77819250D01*
X120175000Y-77678690D01*
X120088558Y-77470000D01*
X120175000Y-77261310D01*
X120175000Y-77120750D01*
X120016250Y-76962000D01*
X118667000Y-76962000D01*
X118413000Y-76962000D01*
X117063750Y-76962000D01*
X116905000Y-77120750D01*
X116259492Y-77120750D01*
X116440200Y-76684484D01*
X116440200Y-76115516D01*
X116330531Y-75850750D01*
X116905000Y-75850750D01*
X116905000Y-75991310D01*
X116991442Y-76200000D01*
X116905000Y-76408690D01*
X116905000Y-76549250D01*
X117063750Y-76708000D01*
X118413000Y-76708000D01*
X118413000Y-75692000D01*
X118667000Y-75692000D01*
X118667000Y-76708000D01*
X120016250Y-76708000D01*
X120175000Y-76549250D01*
X120175000Y-76408690D01*
X120088558Y-76200000D01*
X120175000Y-75991310D01*
X120175000Y-75850750D01*
X120016250Y-75692000D01*
X118667000Y-75692000D01*
X118413000Y-75692000D01*
X117063750Y-75692000D01*
X116905000Y-75850750D01*
X116330531Y-75850750D01*
X116222465Y-75589857D01*
X115820143Y-75187535D01*
X115294484Y-74969800D01*
X114725516Y-74969800D01*
X114199857Y-75187535D01*
X113797535Y-75589857D01*
X113579800Y-76115516D01*
X109479100Y-76115516D01*
X109479100Y-74580750D01*
X116905000Y-74580750D01*
X116905000Y-74721310D01*
X116991442Y-74930000D01*
X116905000Y-75138690D01*
X116905000Y-75279250D01*
X117063750Y-75438000D01*
X118413000Y-75438000D01*
X118413000Y-74422000D01*
X118667000Y-74422000D01*
X118667000Y-75438000D01*
X120016250Y-75438000D01*
X120175000Y-75279250D01*
X120175000Y-75138690D01*
X120088558Y-74930000D01*
X120175000Y-74721310D01*
X120175000Y-74580750D01*
X120016250Y-74422000D01*
X118667000Y-74422000D01*
X118413000Y-74422000D01*
X117063750Y-74422000D01*
X116905000Y-74580750D01*
X109479100Y-74580750D01*
X109479100Y-74323010D01*
X109583192Y-74279893D01*
X109765393Y-74097692D01*
X109860249Y-73868690D01*
X116905000Y-73868690D01*
X116905000Y-74009250D01*
X117063750Y-74168000D01*
X118413000Y-74168000D01*
X118413000Y-73518750D01*
X118667000Y-73518750D01*
X118667000Y-74168000D01*
X120016250Y-74168000D01*
X120175000Y-74009250D01*
X120175000Y-73868690D01*
X120078327Y-73635301D01*
X119899698Y-73456673D01*
X119666309Y-73360000D01*
X118825750Y-73360000D01*
X118667000Y-73518750D01*
X118413000Y-73518750D01*
X118254250Y-73360000D01*
X117413691Y-73360000D01*
X117180302Y-73456673D01*
X117001673Y-73635301D01*
X116905000Y-73868690D01*
X109860249Y-73868690D01*
X109864000Y-73859636D01*
X109864000Y-73601964D01*
X109765393Y-73363908D01*
X109583192Y-73181707D01*
X109345136Y-73083100D01*
X109087464Y-73083100D01*
X108849408Y-73181707D01*
X108667207Y-73363908D01*
X108583151Y-73566835D01*
X108513061Y-73461939D01*
X108403838Y-73388958D01*
X108275000Y-73363331D01*
X106835000Y-73363331D01*
X106706162Y-73388958D01*
X106596939Y-73461939D01*
X106546341Y-73537664D01*
X106546042Y-73536162D01*
X106473061Y-73426939D01*
X106363838Y-73353958D01*
X106235000Y-73328331D01*
X101275000Y-73328331D01*
X101146162Y-73353958D01*
X101036939Y-73426939D01*
X100963958Y-73536162D01*
X100938331Y-73665000D01*
X100938331Y-75031600D01*
X100687641Y-75031600D01*
X99432817Y-73776777D01*
X99403059Y-73732241D01*
X99226622Y-73614349D01*
X99071031Y-73583400D01*
X99071026Y-73583400D01*
X99018500Y-73572952D01*
X98965974Y-73583400D01*
X91875641Y-73583400D01*
X91254242Y-72962002D01*
X91285458Y-72954692D01*
X91819769Y-72657273D01*
X92199591Y-72178022D01*
X92232794Y-72061445D01*
X92438539Y-72369362D01*
X92854427Y-72647250D01*
X93345000Y-72744831D01*
X93835574Y-72647250D01*
X94251462Y-72369362D01*
X94529350Y-71953474D01*
X94602300Y-71586728D01*
X94602300Y-70653271D01*
X94529350Y-70286526D01*
X94378725Y-70061100D01*
X94851275Y-70061100D01*
X94700650Y-70286527D01*
X94627700Y-70653272D01*
X94627700Y-71586729D01*
X94700650Y-71953474D01*
X94978539Y-72369362D01*
X95394427Y-72647250D01*
X95885000Y-72744831D01*
X96375574Y-72647250D01*
X96791462Y-72369362D01*
X97069350Y-71953474D01*
X97142300Y-71586728D01*
X97142300Y-71534997D01*
X97167700Y-71540049D01*
X97167700Y-71586729D01*
X97240650Y-71953474D01*
X97518539Y-72369362D01*
X97934427Y-72647250D01*
X98425000Y-72744831D01*
X98915574Y-72647250D01*
X99331462Y-72369362D01*
X99609350Y-71953474D01*
X99682300Y-71586728D01*
X99682300Y-70653272D01*
X99707700Y-70653272D01*
X99707700Y-71586729D01*
X99780650Y-71953474D01*
X100058539Y-72369362D01*
X100474427Y-72647250D01*
X100965000Y-72744831D01*
X101455574Y-72647250D01*
X101871462Y-72369362D01*
X102149350Y-71953474D01*
X102222300Y-71586728D01*
X102222300Y-70653272D01*
X102247700Y-70653272D01*
X102247700Y-71586729D01*
X102320650Y-71953474D01*
X102598539Y-72369362D01*
X103014427Y-72647250D01*
X103505000Y-72744831D01*
X103995574Y-72647250D01*
X104411462Y-72369362D01*
X104689350Y-71953474D01*
X104762300Y-71586728D01*
X104762300Y-70653271D01*
X104689350Y-70286526D01*
X104411462Y-69870638D01*
X103995573Y-69592750D01*
X103505000Y-69495169D01*
X103014426Y-69592750D01*
X102598538Y-69870638D01*
X102320650Y-70286527D01*
X102247700Y-70653272D01*
X102222300Y-70653272D01*
X102222300Y-70653271D01*
X102149350Y-70286526D01*
X101871462Y-69870638D01*
X101455573Y-69592750D01*
X100965000Y-69495169D01*
X100474426Y-69592750D01*
X100058538Y-69870638D01*
X99780650Y-70286527D01*
X99707700Y-70653272D01*
X99682300Y-70653272D01*
X99682300Y-70653271D01*
X99609350Y-70286526D01*
X99331462Y-69870638D01*
X98915573Y-69592750D01*
X98425000Y-69495169D01*
X97934426Y-69592750D01*
X97518538Y-69870638D01*
X97409733Y-70033476D01*
X96730300Y-69354043D01*
X96706210Y-69317990D01*
X96563380Y-69222554D01*
X96437426Y-69197500D01*
X96437422Y-69197500D01*
X96394900Y-69189042D01*
X96352378Y-69197500D01*
X87295422Y-69197500D01*
X87252900Y-69189042D01*
X87210378Y-69197500D01*
X87210374Y-69197500D01*
X87084420Y-69222554D01*
X86977641Y-69293901D01*
X86977640Y-69293902D01*
X86941590Y-69317990D01*
X86917502Y-69354040D01*
X86169500Y-70102043D01*
X86169500Y-68389500D01*
X155765501Y-68389500D01*
X155765501Y-83669880D01*
X155765501Y-83669880D01*
G37*
X155765501Y-83669880D02*
X155645448Y-83380048D01*
X154989952Y-82724552D01*
X154133506Y-82369800D01*
X153206494Y-82369800D01*
X152350048Y-82724552D01*
X151694552Y-83380048D01*
X151339800Y-84236494D01*
X151339800Y-85163506D01*
X151694552Y-86019952D01*
X152350048Y-86675448D01*
X153206494Y-87030200D01*
X154133506Y-87030200D01*
X154989952Y-86675448D01*
X155645448Y-86019952D01*
X155765501Y-85730120D01*
X155765500Y-92069880D01*
X155645448Y-91780048D01*
X154989952Y-91124552D01*
X154133506Y-90769800D01*
X153206494Y-90769800D01*
X152350048Y-91124552D01*
X151694552Y-91780048D01*
X151339800Y-92636494D01*
X151339800Y-93563506D01*
X151694552Y-94419952D01*
X152350048Y-95075448D01*
X153206494Y-95430200D01*
X154133506Y-95430200D01*
X154989952Y-95075448D01*
X155645448Y-94419952D01*
X155765500Y-94130120D01*
X155765500Y-109410500D01*
X86169500Y-109410500D01*
X86169500Y-106213272D01*
X87007700Y-106213272D01*
X87007700Y-107146729D01*
X87080650Y-107513474D01*
X87358539Y-107929362D01*
X87774427Y-108207250D01*
X88265000Y-108304831D01*
X88755574Y-108207250D01*
X89171462Y-107929362D01*
X89449350Y-107513474D01*
X89522300Y-107146728D01*
X89522300Y-106213271D01*
X89449350Y-105846526D01*
X89171462Y-105430638D01*
X88755573Y-105152750D01*
X88265000Y-105055169D01*
X87774426Y-105152750D01*
X87358538Y-105430638D01*
X87080650Y-105846527D01*
X87007700Y-106213272D01*
X86169500Y-106213272D01*
X86169500Y-102509157D01*
X88076902Y-104416560D01*
X88100990Y-104452610D01*
X88137040Y-104476698D01*
X88137041Y-104476699D01*
X88203058Y-104520810D01*
X88243820Y-104548046D01*
X88369774Y-104573100D01*
X88369778Y-104573100D01*
X88412300Y-104581558D01*
X88454822Y-104573100D01*
X104289978Y-104573100D01*
X104332500Y-104581558D01*
X104375022Y-104573100D01*
X104375026Y-104573100D01*
X104500980Y-104548046D01*
X104643810Y-104452610D01*
X104667900Y-104416557D01*
X109308900Y-99775558D01*
X109308901Y-105308655D01*
X109075573Y-105152750D01*
X108585000Y-105055169D01*
X108094426Y-105152750D01*
X107678538Y-105430638D01*
X107400650Y-105846527D01*
X107327700Y-106213272D01*
X107327700Y-107146729D01*
X107400650Y-107513474D01*
X107559695Y-107751500D01*
X107070306Y-107751500D01*
X107229350Y-107513474D01*
X107302300Y-107146728D01*
X107302300Y-106213271D01*
X107229350Y-105846526D01*
X106951462Y-105430638D01*
X106535573Y-105152750D01*
X106045000Y-105055169D01*
X105554426Y-105152750D01*
X105138538Y-105430638D01*
X104860650Y-105846527D01*
X104787700Y-106213272D01*
X104787700Y-107146729D01*
X104860650Y-107513474D01*
X105019695Y-107751500D01*
X104530306Y-107751500D01*
X104689350Y-107513474D01*
X104762300Y-107146728D01*
X104762300Y-106213271D01*
X104689350Y-105846526D01*
X104411462Y-105430638D01*
X103995573Y-105152750D01*
X103505000Y-105055169D01*
X103014426Y-105152750D01*
X102598538Y-105430638D01*
X102320650Y-105846527D01*
X102247700Y-106213272D01*
X102247700Y-107146729D01*
X102320650Y-107513474D01*
X102479695Y-107751500D01*
X101990306Y-107751500D01*
X102149350Y-107513474D01*
X102222300Y-107146728D01*
X102222300Y-106213271D01*
X102149350Y-105846526D01*
X101871462Y-105430638D01*
X101455573Y-105152750D01*
X100965000Y-105055169D01*
X100474426Y-105152750D01*
X100058538Y-105430638D01*
X99780650Y-105846527D01*
X99707700Y-106213272D01*
X99707700Y-107146729D01*
X99780650Y-107513474D01*
X99939695Y-107751500D01*
X99450306Y-107751500D01*
X99609350Y-107513474D01*
X99682300Y-107146728D01*
X99682300Y-106213271D01*
X99609350Y-105846526D01*
X99331462Y-105430638D01*
X98915573Y-105152750D01*
X98425000Y-105055169D01*
X97934426Y-105152750D01*
X97518538Y-105430638D01*
X97240650Y-105846527D01*
X97167700Y-106213272D01*
X97167700Y-107146729D01*
X97240650Y-107513474D01*
X97399695Y-107751500D01*
X96910306Y-107751500D01*
X97069350Y-107513474D01*
X97142300Y-107146728D01*
X97142300Y-106213271D01*
X97069350Y-105846526D01*
X96791462Y-105430638D01*
X96375573Y-105152750D01*
X95885000Y-105055169D01*
X95394426Y-105152750D01*
X94978538Y-105430638D01*
X94700650Y-105846527D01*
X94627700Y-106213272D01*
X94627700Y-107146729D01*
X94700650Y-107513474D01*
X94859695Y-107751500D01*
X94370306Y-107751500D01*
X94529350Y-107513474D01*
X94602300Y-107146728D01*
X94602300Y-106213271D01*
X94529350Y-105846526D01*
X94251462Y-105430638D01*
X93835573Y-105152750D01*
X93345000Y-105055169D01*
X92854426Y-105152750D01*
X92438538Y-105430638D01*
X92160650Y-105846527D01*
X92101490Y-106143946D01*
X92062300Y-106136151D01*
X92047544Y-106139086D01*
X91989350Y-105846526D01*
X91711462Y-105430638D01*
X91295573Y-105152750D01*
X90805000Y-105055169D01*
X90314426Y-105152750D01*
X89898538Y-105430638D01*
X89620650Y-105846527D01*
X89547700Y-106213272D01*
X89547700Y-107146729D01*
X89620650Y-107513474D01*
X89898539Y-107929362D01*
X90314427Y-108207250D01*
X90805000Y-108304831D01*
X91295574Y-108207250D01*
X91695278Y-107940176D01*
X91722275Y-107958215D01*
X92388984Y-108624925D01*
X92418741Y-108669459D01*
X92595178Y-108787351D01*
X92750769Y-108818300D01*
X92750773Y-108818300D01*
X92803299Y-108828748D01*
X92855825Y-108818300D01*
X121798674Y-108818300D01*
X121851200Y-108828748D01*
X121903726Y-108818300D01*
X121903731Y-108818300D01*
X122059322Y-108787351D01*
X122235759Y-108669459D01*
X122265517Y-108624923D01*
X122895029Y-107995413D01*
X122939559Y-107965659D01*
X122949838Y-107950275D01*
X123334427Y-108207250D01*
X123825000Y-108304831D01*
X124315574Y-108207250D01*
X124731462Y-107929362D01*
X125009350Y-107513474D01*
X125082300Y-107146728D01*
X125082300Y-106213272D01*
X125107700Y-106213272D01*
X125107700Y-107146729D01*
X125180650Y-107513474D01*
X125458539Y-107929362D01*
X125874427Y-108207250D01*
X126365000Y-108304831D01*
X126855574Y-108207250D01*
X127271462Y-107929362D01*
X127549350Y-107513474D01*
X127622300Y-107146728D01*
X127622300Y-106213271D01*
X127549350Y-105846526D01*
X127271462Y-105430638D01*
X126855573Y-105152750D01*
X126365000Y-105055169D01*
X125874426Y-105152750D01*
X125458538Y-105430638D01*
X125180650Y-105846527D01*
X125107700Y-106213272D01*
X125082300Y-106213272D01*
X125082300Y-106213271D01*
X125009350Y-105846526D01*
X124731462Y-105430638D01*
X124315573Y-105152750D01*
X124016066Y-105093174D01*
X125070841Y-104038400D01*
X126598825Y-104038400D01*
X126601939Y-104043061D01*
X126711162Y-104116042D01*
X126840000Y-104141669D01*
X128840000Y-104141669D01*
X128968838Y-104116042D01*
X129078061Y-104043061D01*
X129151042Y-103933838D01*
X129176669Y-103805000D01*
X129176669Y-103205000D01*
X129154225Y-103092163D01*
X129199698Y-103073327D01*
X129378327Y-102894699D01*
X129475000Y-102661310D01*
X129475000Y-102520750D01*
X129316250Y-102362000D01*
X127967000Y-102362000D01*
X127967000Y-102382000D01*
X127713000Y-102382000D01*
X127713000Y-102362000D01*
X126363750Y-102362000D01*
X126205000Y-102520750D01*
X126205000Y-102661310D01*
X126301673Y-102894699D01*
X126378574Y-102971600D01*
X125070841Y-102971600D01*
X125030800Y-102931560D01*
X125030800Y-91259400D01*
X125316674Y-91259400D01*
X125369200Y-91269848D01*
X125421726Y-91259400D01*
X125421731Y-91259400D01*
X125577322Y-91228451D01*
X125753759Y-91110559D01*
X125783517Y-91066023D01*
X126917331Y-89932210D01*
X126917331Y-90170000D01*
X126942958Y-90298838D01*
X127015939Y-90408061D01*
X127125162Y-90481042D01*
X127254000Y-90506669D01*
X128524000Y-90506669D01*
X128652838Y-90481042D01*
X128762061Y-90408061D01*
X128835042Y-90298838D01*
X128860669Y-90170000D01*
X128860669Y-89442561D01*
X128906726Y-89433400D01*
X128906731Y-89433400D01*
X129062322Y-89402451D01*
X129238759Y-89284559D01*
X129268517Y-89240023D01*
X129274400Y-89234140D01*
X129274400Y-91258543D01*
X129028872Y-91504071D01*
X128968838Y-91463958D01*
X128840000Y-91438331D01*
X126840000Y-91438331D01*
X126711162Y-91463958D01*
X126601939Y-91536939D01*
X126528958Y-91646162D01*
X126503331Y-91775000D01*
X126503331Y-92375000D01*
X126528958Y-92503838D01*
X126601939Y-92613061D01*
X126711162Y-92686042D01*
X126831609Y-92710000D01*
X126711162Y-92733958D01*
X126601939Y-92806939D01*
X126528958Y-92916162D01*
X126503331Y-93045000D01*
X126503331Y-93645000D01*
X126528958Y-93773838D01*
X126601939Y-93883061D01*
X126711162Y-93956042D01*
X126831609Y-93980000D01*
X126711162Y-94003958D01*
X126601939Y-94076939D01*
X126528958Y-94186162D01*
X126503331Y-94315000D01*
X126503331Y-94915000D01*
X126528958Y-95043838D01*
X126601939Y-95153061D01*
X126711162Y-95226042D01*
X126831609Y-95250000D01*
X126711162Y-95273958D01*
X126601939Y-95346939D01*
X126528958Y-95456162D01*
X126503331Y-95585000D01*
X126503331Y-96185000D01*
X126528958Y-96313838D01*
X126601939Y-96423061D01*
X126711162Y-96496042D01*
X126831609Y-96520000D01*
X126711162Y-96543958D01*
X126601939Y-96616939D01*
X126528958Y-96726162D01*
X126503331Y-96855000D01*
X126503331Y-97455000D01*
X126528958Y-97583838D01*
X126601939Y-97693061D01*
X126711162Y-97766042D01*
X126831609Y-97790000D01*
X126711162Y-97813958D01*
X126601939Y-97886939D01*
X126528958Y-97996162D01*
X126503331Y-98125000D01*
X126503331Y-98725000D01*
X126528958Y-98853838D01*
X126601939Y-98963061D01*
X126711162Y-99036042D01*
X126831609Y-99060000D01*
X126711162Y-99083958D01*
X126601939Y-99156939D01*
X126528958Y-99266162D01*
X126503331Y-99395000D01*
X126503331Y-99995000D01*
X126528958Y-100123838D01*
X126601939Y-100233061D01*
X126711162Y-100306042D01*
X126831609Y-100330000D01*
X126711162Y-100353958D01*
X126601939Y-100426939D01*
X126528958Y-100536162D01*
X126503331Y-100665000D01*
X126503331Y-101265000D01*
X126525775Y-101377837D01*
X126480302Y-101396673D01*
X126301673Y-101575301D01*
X126205000Y-101808690D01*
X126205000Y-101949250D01*
X126363750Y-102108000D01*
X127713000Y-102108000D01*
X127713000Y-102088000D01*
X127967000Y-102088000D01*
X127967000Y-102108000D01*
X129316250Y-102108000D01*
X129475000Y-101949250D01*
X129475000Y-101808690D01*
X129378327Y-101575301D01*
X129199698Y-101396673D01*
X129171170Y-101384856D01*
X129237080Y-101371746D01*
X129379910Y-101276310D01*
X129404000Y-101240258D01*
X130911463Y-99732795D01*
X130797171Y-99903845D01*
X130712403Y-100330000D01*
X130797171Y-100756155D01*
X131038568Y-101117432D01*
X131399845Y-101358829D01*
X131657542Y-101410088D01*
X131673254Y-101489079D01*
X131744601Y-101595858D01*
X131744603Y-101595860D01*
X131768691Y-101631910D01*
X131804741Y-101655998D01*
X131945901Y-101797158D01*
X131945900Y-105469455D01*
X131369199Y-104892754D01*
X130594347Y-104571800D01*
X129755653Y-104571800D01*
X128980801Y-104892754D01*
X128387754Y-105485801D01*
X128066800Y-106260653D01*
X128066800Y-107099347D01*
X128387754Y-107874199D01*
X128980801Y-108467246D01*
X129755653Y-108788200D01*
X130594347Y-108788200D01*
X131369199Y-108467246D01*
X131962246Y-107874199D01*
X132004782Y-107771507D01*
X132066390Y-107863710D01*
X132102442Y-107887799D01*
X133313702Y-109099060D01*
X133337790Y-109135110D01*
X133373840Y-109159198D01*
X133373841Y-109159199D01*
X133480620Y-109230546D01*
X133606574Y-109255600D01*
X133606577Y-109255600D01*
X133649099Y-109264058D01*
X133691621Y-109255600D01*
X138072078Y-109255600D01*
X138114600Y-109264058D01*
X138157122Y-109255600D01*
X138157126Y-109255600D01*
X138283080Y-109230546D01*
X138425910Y-109135110D01*
X138450000Y-109099057D01*
X142412959Y-105136098D01*
X142713000Y-105136098D01*
X142713000Y-105683902D01*
X142922636Y-106190008D01*
X143309992Y-106577364D01*
X143816098Y-106787000D01*
X144363902Y-106787000D01*
X144870008Y-106577364D01*
X145257364Y-106190008D01*
X145467000Y-105683902D01*
X145467000Y-105136098D01*
X151713000Y-105136098D01*
X151713000Y-105683902D01*
X151922636Y-106190008D01*
X152309992Y-106577364D01*
X152816098Y-106787000D01*
X153363902Y-106787000D01*
X153870008Y-106577364D01*
X154257364Y-106190008D01*
X154467000Y-105683902D01*
X154467000Y-105136098D01*
X154257364Y-104629992D01*
X153870008Y-104242636D01*
X153363902Y-104033000D01*
X152816098Y-104033000D01*
X152309992Y-104242636D01*
X151922636Y-104629992D01*
X151713000Y-105136098D01*
X145467000Y-105136098D01*
X145257364Y-104629992D01*
X144870008Y-104242636D01*
X144363902Y-104033000D01*
X143816098Y-104033000D01*
X143309992Y-104242636D01*
X142922636Y-104629992D01*
X142713000Y-105136098D01*
X142412959Y-105136098D01*
X144764057Y-102785000D01*
X147853331Y-102785000D01*
X147853331Y-103685000D01*
X147878958Y-103813838D01*
X147951939Y-103923061D01*
X148061162Y-103996042D01*
X148124254Y-104008591D01*
X148094400Y-104080664D01*
X148094400Y-104338336D01*
X148193007Y-104576392D01*
X148375208Y-104758593D01*
X148613264Y-104857200D01*
X148870936Y-104857200D01*
X149108992Y-104758593D01*
X149291193Y-104576392D01*
X149389800Y-104338336D01*
X149389800Y-104080664D01*
X149291193Y-103842608D01*
X149285573Y-103836988D01*
X149301042Y-103813838D01*
X149326669Y-103685000D01*
X149326669Y-102785000D01*
X149301042Y-102656162D01*
X149228061Y-102546939D01*
X149118838Y-102473958D01*
X148990000Y-102448331D01*
X148190000Y-102448331D01*
X148061162Y-102473958D01*
X147951939Y-102546939D01*
X147878958Y-102656162D01*
X147853331Y-102785000D01*
X144764057Y-102785000D01*
X145882258Y-101666800D01*
X146903331Y-101666800D01*
X146903331Y-101685000D01*
X146928958Y-101813838D01*
X147001939Y-101923061D01*
X147111162Y-101996042D01*
X147240000Y-102021669D01*
X148040000Y-102021669D01*
X148168838Y-101996042D01*
X148278061Y-101923061D01*
X148351042Y-101813838D01*
X148376669Y-101685000D01*
X148376669Y-101520750D01*
X148505000Y-101520750D01*
X148505000Y-101811310D01*
X148601673Y-102044699D01*
X148780302Y-102223327D01*
X149013691Y-102320000D01*
X149254250Y-102320000D01*
X149413000Y-102161250D01*
X149413000Y-101362000D01*
X149667000Y-101362000D01*
X149667000Y-102161250D01*
X149825750Y-102320000D01*
X150066309Y-102320000D01*
X150299698Y-102223327D01*
X150478327Y-102044699D01*
X150575000Y-101811310D01*
X150575000Y-101520750D01*
X150416250Y-101362000D01*
X149667000Y-101362000D01*
X149413000Y-101362000D01*
X148663750Y-101362000D01*
X148505000Y-101520750D01*
X148376669Y-101520750D01*
X148376669Y-100785000D01*
X148351545Y-100658690D01*
X148505000Y-100658690D01*
X148505000Y-100949250D01*
X148663750Y-101108000D01*
X149413000Y-101108000D01*
X149413000Y-100308750D01*
X149667000Y-100308750D01*
X149667000Y-101108000D01*
X150416250Y-101108000D01*
X150575000Y-100949250D01*
X150575000Y-100658690D01*
X150478327Y-100425301D01*
X150299698Y-100246673D01*
X150066309Y-100150000D01*
X149825750Y-100150000D01*
X149667000Y-100308750D01*
X149413000Y-100308750D01*
X149254250Y-100150000D01*
X149013691Y-100150000D01*
X148780302Y-100246673D01*
X148601673Y-100425301D01*
X148505000Y-100658690D01*
X148351545Y-100658690D01*
X148351042Y-100656162D01*
X148278061Y-100546939D01*
X148168838Y-100473958D01*
X148040000Y-100448331D01*
X147240000Y-100448331D01*
X147111162Y-100473958D01*
X147001939Y-100546939D01*
X146928958Y-100656162D01*
X146903331Y-100785000D01*
X146903331Y-100803200D01*
X145745922Y-100803200D01*
X145703400Y-100794742D01*
X145660878Y-100803200D01*
X145660874Y-100803200D01*
X145534920Y-100828254D01*
X145428141Y-100899601D01*
X145428140Y-100899602D01*
X145392090Y-100923690D01*
X145368002Y-100959740D01*
X138385669Y-107942074D01*
X138385669Y-106045000D01*
X138360042Y-105916162D01*
X138287061Y-105806939D01*
X138177838Y-105733958D01*
X138049000Y-105708331D01*
X136779000Y-105708331D01*
X136650162Y-105733958D01*
X136540939Y-105806939D01*
X136467958Y-105916162D01*
X136442331Y-106045000D01*
X136442331Y-106585752D01*
X135703900Y-105847322D01*
X135703900Y-103330478D01*
X136169870Y-103796449D01*
X136195377Y-103834623D01*
X136291507Y-103898855D01*
X136346609Y-103935673D01*
X136442331Y-103954713D01*
X136442331Y-104775000D01*
X136467958Y-104903838D01*
X136540939Y-105013061D01*
X136650162Y-105086042D01*
X136779000Y-105111669D01*
X138049000Y-105111669D01*
X138177838Y-105086042D01*
X138287061Y-105013061D01*
X138360042Y-104903838D01*
X138385669Y-104775000D01*
X138385669Y-102235000D01*
X138360042Y-102106162D01*
X138287061Y-101996939D01*
X138177838Y-101923958D01*
X138049000Y-101898331D01*
X136779000Y-101898331D01*
X136650162Y-101923958D01*
X136540939Y-101996939D01*
X136467958Y-102106162D01*
X136442331Y-102235000D01*
X136442331Y-102775752D01*
X136059900Y-102393322D01*
X136059900Y-101415144D01*
X136254059Y-101572059D01*
X136779000Y-101727000D01*
X137033000Y-101727000D01*
X137033000Y-100457000D01*
X137287000Y-100457000D01*
X137287000Y-101727000D01*
X137541000Y-101727000D01*
X138065941Y-101572059D01*
X138491630Y-101228026D01*
X138753260Y-100747277D01*
X138768220Y-100673070D01*
X138645720Y-100457000D01*
X137287000Y-100457000D01*
X137033000Y-100457000D01*
X137013000Y-100457000D01*
X137013000Y-100203000D01*
X137033000Y-100203000D01*
X137033000Y-97917000D01*
X137287000Y-97917000D01*
X137287000Y-100203000D01*
X138645720Y-100203000D01*
X138768220Y-99986930D01*
X138753260Y-99912723D01*
X138491630Y-99431974D01*
X138065941Y-99087941D01*
X137971277Y-99060000D01*
X138065941Y-99032059D01*
X138491630Y-98688026D01*
X138753260Y-98207277D01*
X138768220Y-98133070D01*
X138645720Y-97917000D01*
X137287000Y-97917000D01*
X137033000Y-97917000D01*
X137013000Y-97917000D01*
X137013000Y-97663000D01*
X137033000Y-97663000D01*
X137033000Y-95377000D01*
X137287000Y-95377000D01*
X137287000Y-97663000D01*
X138645720Y-97663000D01*
X138653817Y-97648718D01*
X138794059Y-97762059D01*
X139319000Y-97917000D01*
X139573000Y-97917000D01*
X139573000Y-96647000D01*
X139827000Y-96647000D01*
X139827000Y-97917000D01*
X140081000Y-97917000D01*
X140605941Y-97762059D01*
X141031630Y-97418026D01*
X141293260Y-96937277D01*
X141308220Y-96863070D01*
X141185720Y-96647000D01*
X139827000Y-96647000D01*
X139573000Y-96647000D01*
X138214280Y-96647000D01*
X138206183Y-96661282D01*
X138065941Y-96547941D01*
X137971277Y-96520000D01*
X143412403Y-96520000D01*
X143497171Y-96946155D01*
X143738568Y-97307432D01*
X144099845Y-97548829D01*
X144418431Y-97612200D01*
X145141569Y-97612200D01*
X145460155Y-97548829D01*
X145821432Y-97307432D01*
X146062829Y-96946155D01*
X146147597Y-96520000D01*
X146062829Y-96093845D01*
X145913261Y-95870000D01*
X146297456Y-95870000D01*
X146370000Y-95884430D01*
X146442544Y-95870000D01*
X146577282Y-95843199D01*
X146657407Y-95827261D01*
X146901058Y-95664458D01*
X147063861Y-95420807D01*
X147098169Y-95248331D01*
X147121030Y-95133400D01*
X147106600Y-95060856D01*
X147106600Y-94918992D01*
X147584108Y-94824010D01*
X148189500Y-94419500D01*
X148594010Y-93814108D01*
X148736055Y-93100000D01*
X148594010Y-92385892D01*
X148189500Y-91780500D01*
X147584108Y-91375990D01*
X147106600Y-91281008D01*
X147106600Y-90718992D01*
X147584108Y-90624010D01*
X148189500Y-90219500D01*
X148594010Y-89614108D01*
X148736055Y-88900000D01*
X148594010Y-88185892D01*
X148189500Y-87580500D01*
X147584108Y-87175990D01*
X147106600Y-87081008D01*
X147106600Y-86536669D01*
X148370000Y-86536669D01*
X148498838Y-86511042D01*
X148608061Y-86438061D01*
X148681042Y-86328838D01*
X148706669Y-86200000D01*
X148706669Y-83200000D01*
X148681042Y-83071162D01*
X148608061Y-82961939D01*
X148498838Y-82888958D01*
X148370000Y-82863331D01*
X144370000Y-82863331D01*
X144241162Y-82888958D01*
X144131939Y-82961939D01*
X144058958Y-83071162D01*
X144033331Y-83200000D01*
X144033331Y-86200000D01*
X144058958Y-86328838D01*
X144131939Y-86438061D01*
X144241162Y-86511042D01*
X144370000Y-86536669D01*
X145633401Y-86536669D01*
X145633400Y-87081008D01*
X145155892Y-87175990D01*
X144550500Y-87580500D01*
X144145990Y-88185892D01*
X144003945Y-88900000D01*
X144145990Y-89614108D01*
X144550500Y-90219500D01*
X145155892Y-90624010D01*
X145633401Y-90718992D01*
X145633400Y-91281008D01*
X145155892Y-91375990D01*
X144550500Y-91780500D01*
X144145990Y-92385892D01*
X144003945Y-93100000D01*
X144145990Y-93814108D01*
X144550500Y-94419500D01*
X144582142Y-94440642D01*
X144340142Y-94602342D01*
X144303612Y-94657014D01*
X144248943Y-94693542D01*
X144207852Y-94755039D01*
X144207849Y-94755042D01*
X144086139Y-94937194D01*
X144028971Y-95224600D01*
X144043401Y-95297145D01*
X144043401Y-95528886D01*
X143738568Y-95732568D01*
X143497171Y-96093845D01*
X143412403Y-96520000D01*
X137971277Y-96520000D01*
X138065941Y-96492059D01*
X138206183Y-96378718D01*
X138214280Y-96393000D01*
X139573000Y-96393000D01*
X139573000Y-95123000D01*
X139319000Y-95123000D01*
X138794059Y-95277941D01*
X138653817Y-95391282D01*
X138645720Y-95377000D01*
X137287000Y-95377000D01*
X137033000Y-95377000D01*
X137013000Y-95377000D01*
X137013000Y-95123000D01*
X137033000Y-95123000D01*
X137033000Y-92837000D01*
X137013000Y-92837000D01*
X137013000Y-92583000D01*
X137033000Y-92583000D01*
X137033000Y-90297000D01*
X137013000Y-90297000D01*
X137013000Y-90043000D01*
X137033000Y-90043000D01*
X137033000Y-87757000D01*
X137013000Y-87757000D01*
X137013000Y-87503000D01*
X137033000Y-87503000D01*
X137033000Y-85217000D01*
X137013000Y-85217000D01*
X137013000Y-84963000D01*
X137033000Y-84963000D01*
X137033000Y-82677000D01*
X137287000Y-82677000D01*
X137287000Y-84963000D01*
X137307000Y-84963000D01*
X137307000Y-85217000D01*
X137287000Y-85217000D01*
X137287000Y-87503000D01*
X137307000Y-87503000D01*
X137307000Y-87757000D01*
X137287000Y-87757000D01*
X137287000Y-90043000D01*
X137307000Y-90043000D01*
X137307000Y-90297000D01*
X137287000Y-90297000D01*
X137287000Y-92583000D01*
X137307000Y-92583000D01*
X137307000Y-92837000D01*
X137287000Y-92837000D01*
X137287000Y-95123000D01*
X138645720Y-95123000D01*
X138768220Y-94906930D01*
X138753260Y-94832723D01*
X138491630Y-94351974D01*
X138065941Y-94007941D01*
X137971277Y-93980000D01*
X138065941Y-93952059D01*
X138332213Y-93736863D01*
X138348916Y-93799696D01*
X138770524Y-94519870D01*
X139435638Y-95023882D01*
X139827000Y-95126220D01*
X139827000Y-96393000D01*
X141185720Y-96393000D01*
X141308220Y-96176930D01*
X141293260Y-96102723D01*
X141031630Y-95621974D01*
X140605941Y-95277941D01*
X140460457Y-95235000D01*
X140743000Y-95235000D01*
X140743000Y-93227000D01*
X140997000Y-93227000D01*
X140997000Y-95235000D01*
X141497000Y-95235000D01*
X142304362Y-95023882D01*
X142969476Y-94519870D01*
X143391084Y-93799696D01*
X143455113Y-93558833D01*
X143342165Y-93227000D01*
X140997000Y-93227000D01*
X140743000Y-93227000D01*
X140723000Y-93227000D01*
X140723000Y-92973000D01*
X140743000Y-92973000D01*
X140743000Y-89027000D01*
X140997000Y-89027000D01*
X140997000Y-92973000D01*
X143342165Y-92973000D01*
X143455113Y-92641167D01*
X143391084Y-92400304D01*
X142969476Y-91680130D01*
X142304362Y-91176118D01*
X141630848Y-91000000D01*
X142304362Y-90823882D01*
X142969476Y-90319870D01*
X143391084Y-89599696D01*
X143455113Y-89358833D01*
X143342165Y-89027000D01*
X140997000Y-89027000D01*
X140743000Y-89027000D01*
X138397835Y-89027000D01*
X138352676Y-89159674D01*
X138065941Y-88927941D01*
X137971277Y-88900000D01*
X138065941Y-88872059D01*
X138352676Y-88640326D01*
X138397835Y-88773000D01*
X140743000Y-88773000D01*
X140743000Y-84827000D01*
X140997000Y-84827000D01*
X140997000Y-88773000D01*
X143342165Y-88773000D01*
X143455113Y-88441167D01*
X143391084Y-88200304D01*
X142969476Y-87480130D01*
X142304362Y-86976118D01*
X141630848Y-86800000D01*
X142304362Y-86623882D01*
X142969476Y-86119870D01*
X143391084Y-85399696D01*
X143455113Y-85158833D01*
X143342165Y-84827000D01*
X140997000Y-84827000D01*
X140743000Y-84827000D01*
X140723000Y-84827000D01*
X140723000Y-84573000D01*
X140743000Y-84573000D01*
X140743000Y-82565000D01*
X140997000Y-82565000D01*
X140997000Y-84573000D01*
X143342165Y-84573000D01*
X143455113Y-84241167D01*
X143391084Y-84000304D01*
X142969476Y-83280130D01*
X142304362Y-82776118D01*
X141497000Y-82565000D01*
X140997000Y-82565000D01*
X140743000Y-82565000D01*
X140243000Y-82565000D01*
X139435638Y-82776118D01*
X138770524Y-83280130D01*
X138348916Y-84000304D01*
X138332213Y-84063137D01*
X138065941Y-83847941D01*
X137971277Y-83820000D01*
X138065941Y-83792059D01*
X138491630Y-83448026D01*
X138753260Y-82967277D01*
X138768220Y-82893070D01*
X138645720Y-82677000D01*
X137287000Y-82677000D01*
X137033000Y-82677000D01*
X135674280Y-82677000D01*
X135551780Y-82893070D01*
X135566740Y-82967277D01*
X135624330Y-83073100D01*
X135481800Y-83073100D01*
X135481800Y-80353070D01*
X135551780Y-80353070D01*
X135566740Y-80427277D01*
X135828370Y-80908026D01*
X136254059Y-81252059D01*
X136348723Y-81280000D01*
X136254059Y-81307941D01*
X135828370Y-81651974D01*
X135566740Y-82132723D01*
X135551780Y-82206930D01*
X135674280Y-82423000D01*
X137033000Y-82423000D01*
X137033000Y-80137000D01*
X137287000Y-80137000D01*
X137287000Y-82423000D01*
X138645720Y-82423000D01*
X138768220Y-82206930D01*
X138753260Y-82132723D01*
X138491630Y-81651974D01*
X138065941Y-81307941D01*
X137971277Y-81280000D01*
X138065941Y-81252059D01*
X138491630Y-80908026D01*
X138753260Y-80427277D01*
X138768220Y-80353070D01*
X138645720Y-80137000D01*
X137287000Y-80137000D01*
X137033000Y-80137000D01*
X135674280Y-80137000D01*
X135551780Y-80353070D01*
X135481800Y-80353070D01*
X135481800Y-78021400D01*
X135639732Y-78021400D01*
X135828370Y-78368026D01*
X136254059Y-78712059D01*
X136348723Y-78740000D01*
X136254059Y-78767941D01*
X135828370Y-79111974D01*
X135566740Y-79592723D01*
X135551780Y-79666930D01*
X135674280Y-79883000D01*
X137033000Y-79883000D01*
X137033000Y-77597000D01*
X137287000Y-77597000D01*
X137287000Y-79883000D01*
X138645720Y-79883000D01*
X138768220Y-79666930D01*
X138753260Y-79592723D01*
X138491630Y-79111974D01*
X138065941Y-78767941D01*
X137971277Y-78740000D01*
X138065941Y-78712059D01*
X138491630Y-78368026D01*
X138753260Y-77887277D01*
X138768220Y-77813070D01*
X138645720Y-77597000D01*
X137287000Y-77597000D01*
X137033000Y-77597000D01*
X137013000Y-77597000D01*
X137013000Y-77343000D01*
X137033000Y-77343000D01*
X137033000Y-77323000D01*
X137287000Y-77323000D01*
X137287000Y-77343000D01*
X138645720Y-77343000D01*
X138768220Y-77126930D01*
X138753260Y-77052723D01*
X138643344Y-76850750D01*
X146605000Y-76850750D01*
X146605000Y-77141310D01*
X146701673Y-77374699D01*
X146880302Y-77553327D01*
X147113691Y-77650000D01*
X147354250Y-77650000D01*
X147513000Y-77491250D01*
X147513000Y-76692000D01*
X146763750Y-76692000D01*
X146605000Y-76850750D01*
X138643344Y-76850750D01*
X138491630Y-76571974D01*
X138154979Y-76299900D01*
X146625650Y-76299900D01*
X146763750Y-76438000D01*
X147513000Y-76438000D01*
X147513000Y-76418000D01*
X147767000Y-76418000D01*
X147767000Y-76438000D01*
X147787000Y-76438000D01*
X147787000Y-76692000D01*
X147767000Y-76692000D01*
X147767000Y-77491250D01*
X147925750Y-77650000D01*
X148166309Y-77650000D01*
X148399698Y-77553327D01*
X148578327Y-77374699D01*
X148675000Y-77141310D01*
X148675000Y-76926363D01*
X148742920Y-76971746D01*
X148803331Y-76983763D01*
X148803331Y-77015000D01*
X148828958Y-77143838D01*
X148901939Y-77253061D01*
X149011162Y-77326042D01*
X149140000Y-77351669D01*
X149940000Y-77351669D01*
X150068838Y-77326042D01*
X150178061Y-77253061D01*
X150251042Y-77143838D01*
X150276669Y-77015000D01*
X150276669Y-76115000D01*
X150251042Y-75986162D01*
X150178061Y-75876939D01*
X150068838Y-75803958D01*
X149940000Y-75778331D01*
X149140000Y-75778331D01*
X149011162Y-75803958D01*
X148901939Y-75876939D01*
X148874725Y-75917668D01*
X148549900Y-75592843D01*
X148525810Y-75556790D01*
X148382980Y-75461354D01*
X148257026Y-75436300D01*
X148257022Y-75436300D01*
X148214500Y-75427842D01*
X148171978Y-75436300D01*
X138385669Y-75436300D01*
X138385669Y-74115000D01*
X147853331Y-74115000D01*
X147853331Y-75015000D01*
X147878958Y-75143838D01*
X147951939Y-75253061D01*
X148061162Y-75326042D01*
X148190000Y-75351669D01*
X148990000Y-75351669D01*
X149118838Y-75326042D01*
X149228061Y-75253061D01*
X149301042Y-75143838D01*
X149326669Y-75015000D01*
X149326669Y-74983763D01*
X149387080Y-74971746D01*
X149529910Y-74876310D01*
X149625346Y-74733480D01*
X149658859Y-74565000D01*
X149650400Y-74522474D01*
X149650400Y-73906383D01*
X149877792Y-73812193D01*
X150059993Y-73629992D01*
X150158600Y-73391936D01*
X150158600Y-73134264D01*
X150059993Y-72896208D01*
X149877792Y-72714007D01*
X149639736Y-72615400D01*
X149382064Y-72615400D01*
X149144008Y-72714007D01*
X148961807Y-72896208D01*
X148863200Y-73134264D01*
X148863200Y-73310076D01*
X148811854Y-73386921D01*
X148778342Y-73555400D01*
X148786801Y-73597927D01*
X148786801Y-73778331D01*
X148190000Y-73778331D01*
X148061162Y-73803958D01*
X147951939Y-73876939D01*
X147878958Y-73986162D01*
X147853331Y-74115000D01*
X138385669Y-74115000D01*
X138385669Y-73025000D01*
X138360042Y-72896162D01*
X138287061Y-72786939D01*
X138177838Y-72713958D01*
X138049000Y-72688331D01*
X136779000Y-72688331D01*
X136650162Y-72713958D01*
X136540939Y-72786939D01*
X136467958Y-72896162D01*
X136442331Y-73025000D01*
X136442331Y-73845287D01*
X136346609Y-73864327D01*
X136195377Y-73965377D01*
X136094327Y-74116609D01*
X136058843Y-74295000D01*
X136067800Y-74340031D01*
X136067801Y-74994620D01*
X134797800Y-76264622D01*
X134797800Y-75901669D01*
X135001000Y-75901669D01*
X135129838Y-75876042D01*
X135239061Y-75803061D01*
X135312042Y-75693838D01*
X135337669Y-75565000D01*
X135337669Y-73025000D01*
X135312042Y-72896162D01*
X135239061Y-72786939D01*
X135129838Y-72713958D01*
X135001000Y-72688331D01*
X134271926Y-72688331D01*
X134641257Y-72319000D01*
X134677310Y-72294910D01*
X134772746Y-72152080D01*
X134779903Y-72116098D01*
X142713000Y-72116098D01*
X142713000Y-72663902D01*
X142922636Y-73170008D01*
X143309992Y-73557364D01*
X143816098Y-73767000D01*
X144363902Y-73767000D01*
X144870008Y-73557364D01*
X145257364Y-73170008D01*
X145467000Y-72663902D01*
X145467000Y-72116098D01*
X151713000Y-72116098D01*
X151713000Y-72663902D01*
X151922636Y-73170008D01*
X152309992Y-73557364D01*
X152816098Y-73767000D01*
X153363902Y-73767000D01*
X153870008Y-73557364D01*
X154257364Y-73170008D01*
X154467000Y-72663902D01*
X154467000Y-72116098D01*
X154257364Y-71609992D01*
X153870008Y-71222636D01*
X153363902Y-71013000D01*
X152816098Y-71013000D01*
X152309992Y-71222636D01*
X151922636Y-71609992D01*
X151713000Y-72116098D01*
X145467000Y-72116098D01*
X145257364Y-71609992D01*
X144870008Y-71222636D01*
X144363902Y-71013000D01*
X143816098Y-71013000D01*
X143309992Y-71222636D01*
X142922636Y-71609992D01*
X142713000Y-72116098D01*
X134779903Y-72116098D01*
X134784763Y-72091669D01*
X135001000Y-72091669D01*
X135129838Y-72066042D01*
X135239061Y-71993061D01*
X135312042Y-71883838D01*
X135337669Y-71755000D01*
X135337669Y-69833147D01*
X136076056Y-70571535D01*
X136094327Y-70663391D01*
X136150844Y-70747974D01*
X136195377Y-70814623D01*
X136346609Y-70915673D01*
X136442331Y-70934713D01*
X136442331Y-71755000D01*
X136467958Y-71883838D01*
X136540939Y-71993061D01*
X136650162Y-72066042D01*
X136779000Y-72091669D01*
X138049000Y-72091669D01*
X138177838Y-72066042D01*
X138287061Y-71993061D01*
X138360042Y-71883838D01*
X138385669Y-71755000D01*
X138385669Y-69215000D01*
X138360042Y-69086162D01*
X138287061Y-68976939D01*
X138177838Y-68903958D01*
X138049000Y-68878331D01*
X136779000Y-68878331D01*
X136650162Y-68903958D01*
X136540939Y-68976939D01*
X136467958Y-69086162D01*
X136442331Y-69215000D01*
X136442331Y-69644652D01*
X135492232Y-68694554D01*
X135466723Y-68656377D01*
X135315491Y-68555327D01*
X135182130Y-68528800D01*
X135137100Y-68519843D01*
X135092070Y-68528800D01*
X133634130Y-68528800D01*
X133589100Y-68519843D01*
X133544070Y-68528800D01*
X133410709Y-68555327D01*
X133259477Y-68656377D01*
X133233970Y-68694552D01*
X132905354Y-69023168D01*
X132867177Y-69048677D01*
X132789861Y-69164390D01*
X132766127Y-69199910D01*
X132730643Y-69378300D01*
X132739600Y-69423330D01*
X132739601Y-72988521D01*
X129176669Y-76551453D01*
X129176669Y-76535000D01*
X129161586Y-76459171D01*
X129318857Y-76301900D01*
X129354910Y-76277810D01*
X129450346Y-76134980D01*
X129475400Y-76009026D01*
X129483859Y-75966500D01*
X129475400Y-75923974D01*
X129475400Y-73112115D01*
X129755653Y-73228200D01*
X130594347Y-73228200D01*
X131369199Y-72907246D01*
X131962246Y-72314199D01*
X132283200Y-71539347D01*
X132283200Y-70700653D01*
X131962246Y-69925801D01*
X131369199Y-69332754D01*
X130594347Y-69011800D01*
X129755653Y-69011800D01*
X128980801Y-69332754D01*
X128387754Y-69925801D01*
X128195991Y-70388758D01*
X128175199Y-70357641D01*
X128175198Y-70357640D01*
X128151110Y-70321590D01*
X128115061Y-70297503D01*
X127171599Y-69354042D01*
X127147510Y-69317990D01*
X127004680Y-69222554D01*
X126878726Y-69197500D01*
X126878722Y-69197500D01*
X126836200Y-69189042D01*
X126793678Y-69197500D01*
X108117522Y-69197500D01*
X108075000Y-69189042D01*
X108032478Y-69197500D01*
X108032474Y-69197500D01*
X107906520Y-69222554D01*
X107799741Y-69293901D01*
X107799740Y-69293902D01*
X107763690Y-69317990D01*
X107739602Y-69354040D01*
X107060227Y-70033416D01*
X106951462Y-69870638D01*
X106535573Y-69592750D01*
X106045000Y-69495169D01*
X105554426Y-69592750D01*
X105138538Y-69870638D01*
X104860650Y-70286527D01*
X104787700Y-70653272D01*
X104787700Y-71586729D01*
X104860650Y-71953474D01*
X105138539Y-72369362D01*
X105554427Y-72647250D01*
X106045000Y-72744831D01*
X106535574Y-72647250D01*
X106951462Y-72369362D01*
X107229350Y-71953474D01*
X107302300Y-71586728D01*
X107302300Y-71540049D01*
X107327700Y-71534997D01*
X107327700Y-71586729D01*
X107400650Y-71953474D01*
X107678539Y-72369362D01*
X108094427Y-72647250D01*
X108585000Y-72744831D01*
X109075574Y-72647250D01*
X109491462Y-72369362D01*
X109769350Y-71953474D01*
X109842300Y-71586728D01*
X109842300Y-70653271D01*
X109769350Y-70286526D01*
X109618725Y-70061100D01*
X110091275Y-70061100D01*
X109940650Y-70286527D01*
X109867700Y-70653272D01*
X109867700Y-71586729D01*
X109940650Y-71953474D01*
X110218539Y-72369362D01*
X110634427Y-72647250D01*
X111125000Y-72744831D01*
X111615574Y-72647250D01*
X112031462Y-72369362D01*
X112309350Y-71953474D01*
X112382300Y-71586728D01*
X112382300Y-70653271D01*
X112309350Y-70286526D01*
X112158725Y-70061100D01*
X112631275Y-70061100D01*
X112480650Y-70286527D01*
X112407700Y-70653272D01*
X112407700Y-71586729D01*
X112480650Y-71953474D01*
X112758539Y-72369362D01*
X113174427Y-72647250D01*
X113665000Y-72744831D01*
X114155574Y-72647250D01*
X114571462Y-72369362D01*
X114849350Y-71953474D01*
X114922300Y-71586728D01*
X114922300Y-70653271D01*
X114849350Y-70286526D01*
X114698725Y-70061100D01*
X115171275Y-70061100D01*
X115020650Y-70286527D01*
X114947700Y-70653272D01*
X114947700Y-71586729D01*
X115020650Y-71953474D01*
X115298539Y-72369362D01*
X115714427Y-72647250D01*
X116205000Y-72744831D01*
X116695574Y-72647250D01*
X117111462Y-72369362D01*
X117389350Y-71953474D01*
X117462300Y-71586728D01*
X117462300Y-70653271D01*
X117389350Y-70286526D01*
X117238725Y-70061100D01*
X117711275Y-70061100D01*
X117560650Y-70286527D01*
X117487700Y-70653272D01*
X117487700Y-71586729D01*
X117560650Y-71953474D01*
X117838539Y-72369362D01*
X118254427Y-72647250D01*
X118745000Y-72744831D01*
X119235574Y-72647250D01*
X119651462Y-72369362D01*
X119929350Y-71953474D01*
X120002300Y-71586728D01*
X120002300Y-70653271D01*
X119929350Y-70286526D01*
X119778725Y-70061100D01*
X120251275Y-70061100D01*
X120100650Y-70286527D01*
X120027700Y-70653272D01*
X120027700Y-71586729D01*
X120100650Y-71953474D01*
X120378539Y-72369362D01*
X120794427Y-72647250D01*
X121285000Y-72744831D01*
X121775574Y-72647250D01*
X122191462Y-72369362D01*
X122469350Y-71953474D01*
X122542300Y-71586728D01*
X122542300Y-70653271D01*
X122469350Y-70286526D01*
X122318725Y-70061100D01*
X122791275Y-70061100D01*
X122640650Y-70286527D01*
X122567700Y-70653272D01*
X122567700Y-71586729D01*
X122640650Y-71953474D01*
X122918539Y-72369362D01*
X123334427Y-72647250D01*
X123825000Y-72744831D01*
X124315574Y-72647250D01*
X124731462Y-72369362D01*
X125009350Y-71953474D01*
X125082300Y-71586728D01*
X125082300Y-70653271D01*
X125009350Y-70286526D01*
X124858725Y-70061100D01*
X125331275Y-70061100D01*
X125180650Y-70286527D01*
X125107700Y-70653272D01*
X125107700Y-71586729D01*
X125180650Y-71953474D01*
X125458539Y-72369362D01*
X125874427Y-72647250D01*
X126365000Y-72744831D01*
X126855574Y-72647250D01*
X127271462Y-72369362D01*
X127549350Y-71953474D01*
X127550865Y-71945860D01*
X127564541Y-71954998D01*
X128611800Y-73002257D01*
X128611800Y-73658331D01*
X126840000Y-73658331D01*
X126711162Y-73683958D01*
X126601939Y-73756939D01*
X126528958Y-73866162D01*
X126503331Y-73995000D01*
X126503331Y-74595000D01*
X126528958Y-74723838D01*
X126601939Y-74833061D01*
X126711162Y-74906042D01*
X126831609Y-74930000D01*
X126711162Y-74953958D01*
X126601939Y-75026939D01*
X126528958Y-75136162D01*
X126503331Y-75265000D01*
X126503331Y-75865000D01*
X126518062Y-75939059D01*
X126432841Y-75996001D01*
X126432840Y-75996002D01*
X126396790Y-76020090D01*
X126372702Y-76056140D01*
X123466243Y-78962600D01*
X123430190Y-78986690D01*
X123334754Y-79129521D01*
X123309700Y-79255475D01*
X123309700Y-79255478D01*
X123301242Y-79298000D01*
X123309700Y-79340522D01*
X123309701Y-83970414D01*
X123192407Y-84087708D01*
X123093800Y-84325764D01*
X123093800Y-84583436D01*
X123192407Y-84821492D01*
X123374608Y-85003693D01*
X123418321Y-85021800D01*
X122274106Y-86166016D01*
X122183536Y-86128500D01*
X121925864Y-86128500D01*
X121746486Y-86202801D01*
X121654092Y-86110407D01*
X121416036Y-86011800D01*
X121158364Y-86011800D01*
X120920308Y-86110407D01*
X120738107Y-86292608D01*
X120639500Y-86530664D01*
X120639500Y-86788336D01*
X120732805Y-87013592D01*
X120544302Y-87091673D01*
X120365673Y-87270301D01*
X120269000Y-87503690D01*
X120269000Y-88614250D01*
X120427750Y-88773000D01*
X121412000Y-88773000D01*
X121412000Y-88753000D01*
X121666000Y-88753000D01*
X121666000Y-88773000D01*
X122650250Y-88773000D01*
X122809000Y-88614250D01*
X122809000Y-87695154D01*
X122863223Y-87658923D01*
X122888732Y-87620746D01*
X123005788Y-87503690D01*
X123571000Y-87503690D01*
X123571000Y-88614250D01*
X123729750Y-88773000D01*
X124714000Y-88773000D01*
X124714000Y-87153750D01*
X124968000Y-87153750D01*
X124968000Y-88773000D01*
X125952250Y-88773000D01*
X126111000Y-88614250D01*
X126111000Y-87503690D01*
X126014327Y-87270301D01*
X125835698Y-87091673D01*
X125602309Y-86995000D01*
X125126750Y-86995000D01*
X124968000Y-87153750D01*
X124714000Y-87153750D01*
X124555250Y-86995000D01*
X124079691Y-86995000D01*
X123846302Y-87091673D01*
X123667673Y-87270301D01*
X123571000Y-87503690D01*
X123005788Y-87503690D01*
X126272614Y-84236864D01*
X126363750Y-84328000D01*
X127713000Y-84328000D01*
X127713000Y-84308000D01*
X127967000Y-84308000D01*
X127967000Y-84328000D01*
X129027389Y-84328000D01*
X129125164Y-84368500D01*
X129382836Y-84368500D01*
X129620892Y-84269893D01*
X129803093Y-84087692D01*
X129901700Y-83849636D01*
X129901700Y-83591964D01*
X129803093Y-83353908D01*
X129620892Y-83171707D01*
X129500400Y-83121797D01*
X129500400Y-81527057D01*
X130763015Y-80264442D01*
X130797171Y-80436155D01*
X131038568Y-80797432D01*
X131368775Y-81018068D01*
X130560541Y-81826302D01*
X130524491Y-81850390D01*
X130500403Y-81886440D01*
X130500401Y-81886442D01*
X130429054Y-81993221D01*
X130395542Y-82161700D01*
X130404001Y-82204227D01*
X130404000Y-84091142D01*
X129430940Y-85064203D01*
X129394891Y-85088290D01*
X129380092Y-85110439D01*
X129475000Y-84881310D01*
X129475000Y-84740750D01*
X129316250Y-84582000D01*
X127967000Y-84582000D01*
X127967000Y-84602000D01*
X127713000Y-84602000D01*
X127713000Y-84582000D01*
X126363750Y-84582000D01*
X126205000Y-84740750D01*
X126205000Y-84881310D01*
X126301673Y-85114699D01*
X126480302Y-85293327D01*
X126525775Y-85312163D01*
X126503331Y-85425000D01*
X126503331Y-86025000D01*
X126528958Y-86153838D01*
X126601939Y-86263061D01*
X126711162Y-86336042D01*
X126840000Y-86361669D01*
X128636800Y-86361669D01*
X128636801Y-87315768D01*
X128524000Y-87293331D01*
X127254000Y-87293331D01*
X127125162Y-87318958D01*
X127015939Y-87391939D01*
X126942958Y-87501162D01*
X126917331Y-87630000D01*
X126917331Y-88357438D01*
X126871269Y-88366600D01*
X126715678Y-88397549D01*
X126539241Y-88515441D01*
X126421349Y-88691878D01*
X126379951Y-88900000D01*
X126390056Y-88950802D01*
X126111000Y-89229859D01*
X126111000Y-89185750D01*
X125952250Y-89027000D01*
X124968000Y-89027000D01*
X124968000Y-89047000D01*
X124714000Y-89047000D01*
X124714000Y-89027000D01*
X123729750Y-89027000D01*
X123571000Y-89185750D01*
X123571000Y-90192600D01*
X122809000Y-90192600D01*
X122809000Y-89185750D01*
X122650250Y-89027000D01*
X121666000Y-89027000D01*
X121666000Y-89047000D01*
X121412000Y-89047000D01*
X121412000Y-89027000D01*
X120427750Y-89027000D01*
X120269000Y-89185750D01*
X120269000Y-89226660D01*
X119990474Y-88948134D01*
X120000049Y-88900000D01*
X119958651Y-88691878D01*
X119840759Y-88515441D01*
X119664322Y-88397549D01*
X119508731Y-88366600D01*
X119462669Y-88357438D01*
X119462669Y-87630000D01*
X119437042Y-87501162D01*
X119364061Y-87391939D01*
X119254838Y-87318958D01*
X119163389Y-87300768D01*
X120043857Y-86420300D01*
X120079910Y-86396210D01*
X120175346Y-86253380D01*
X120200400Y-86127426D01*
X120200400Y-86127423D01*
X120208858Y-86084901D01*
X120200400Y-86042379D01*
X120200400Y-84497526D01*
X120208859Y-84455000D01*
X120175346Y-84286520D01*
X120143747Y-84239229D01*
X120337692Y-84158893D01*
X120519893Y-83976692D01*
X120618500Y-83738636D01*
X120618500Y-83480964D01*
X120519893Y-83242908D01*
X120337692Y-83060707D01*
X120154042Y-82984636D01*
X120079910Y-82873690D01*
X119937080Y-82778254D01*
X119871170Y-82765144D01*
X119899698Y-82753327D01*
X120078327Y-82574699D01*
X120175000Y-82341310D01*
X120175000Y-82200750D01*
X120016250Y-82042000D01*
X118667000Y-82042000D01*
X118667000Y-82062000D01*
X118413000Y-82062000D01*
X118413000Y-82042000D01*
X117063750Y-82042000D01*
X116905000Y-82200750D01*
X116905000Y-82341310D01*
X117001673Y-82574699D01*
X117180302Y-82753327D01*
X117225775Y-82772163D01*
X117203331Y-82885000D01*
X117203331Y-83485000D01*
X117228958Y-83613838D01*
X117301939Y-83723061D01*
X117411162Y-83796042D01*
X117531609Y-83820000D01*
X117411162Y-83843958D01*
X117301939Y-83916939D01*
X117228958Y-84026162D01*
X117203331Y-84155000D01*
X117203331Y-84755000D01*
X117228958Y-84883838D01*
X117301939Y-84993061D01*
X117411162Y-85066042D01*
X117531609Y-85090000D01*
X117411162Y-85113958D01*
X117301939Y-85186939D01*
X117228958Y-85296162D01*
X117203331Y-85425000D01*
X117203331Y-86025000D01*
X117228958Y-86153838D01*
X117301939Y-86263061D01*
X117355496Y-86298847D01*
X117038343Y-86616000D01*
X117002290Y-86640090D01*
X116906854Y-86782921D01*
X116881800Y-86908875D01*
X116881800Y-86908878D01*
X116873342Y-86951400D01*
X116881800Y-86993922D01*
X116881801Y-90372073D01*
X116873342Y-90414600D01*
X116906854Y-90583079D01*
X116978201Y-90689858D01*
X116978203Y-90689860D01*
X117002291Y-90725910D01*
X117038340Y-90749997D01*
X117428343Y-91140000D01*
X117413691Y-91140000D01*
X117180302Y-91236673D01*
X117001673Y-91415301D01*
X116905000Y-91648690D01*
X116905000Y-91789250D01*
X117063750Y-91948000D01*
X118413000Y-91948000D01*
X118413000Y-91928000D01*
X118667000Y-91928000D01*
X118667000Y-91948000D01*
X118687000Y-91948000D01*
X118687000Y-92202000D01*
X118667000Y-92202000D01*
X118667000Y-92222000D01*
X118413000Y-92222000D01*
X118413000Y-92202000D01*
X117063750Y-92202000D01*
X116905000Y-92360750D01*
X116905000Y-92501310D01*
X116958726Y-92631016D01*
X114503500Y-95086243D01*
X114503500Y-94413825D01*
X114513948Y-94361299D01*
X114505071Y-94316669D01*
X114554000Y-94316669D01*
X114682838Y-94291042D01*
X114792061Y-94218061D01*
X114865042Y-94108838D01*
X114890669Y-93980000D01*
X114890669Y-91510589D01*
X114914959Y-91494359D01*
X114944717Y-91449823D01*
X115015023Y-91379517D01*
X115059559Y-91349759D01*
X115177451Y-91173322D01*
X115208400Y-91017731D01*
X115208400Y-91017726D01*
X115218848Y-90965201D01*
X115213723Y-90939437D01*
X115313061Y-90873061D01*
X115386042Y-90763838D01*
X115411669Y-90635000D01*
X115411669Y-88435000D01*
X115386042Y-88306162D01*
X115313061Y-88196939D01*
X115203838Y-88123958D01*
X115075000Y-88098331D01*
X114275000Y-88098331D01*
X114146162Y-88123958D01*
X114105000Y-88151462D01*
X114063838Y-88123958D01*
X113935000Y-88098331D01*
X113135000Y-88098331D01*
X113006162Y-88123958D01*
X112896939Y-88196939D01*
X112823958Y-88306162D01*
X112798331Y-88435000D01*
X112798331Y-90635000D01*
X112823958Y-90763838D01*
X112896939Y-90873061D01*
X112907695Y-90880248D01*
X112141000Y-91646943D01*
X112141000Y-91313690D01*
X112044327Y-91080301D01*
X111865698Y-90901673D01*
X111856156Y-90897720D01*
X111893061Y-90873061D01*
X111966042Y-90763838D01*
X111991669Y-90635000D01*
X111991669Y-88435000D01*
X111966042Y-88306162D01*
X111893061Y-88196939D01*
X111783838Y-88123958D01*
X111655000Y-88098331D01*
X111062866Y-88098331D01*
X111053327Y-88075301D01*
X110874698Y-87896673D01*
X110641309Y-87800000D01*
X110400750Y-87800000D01*
X110242000Y-87958750D01*
X110242000Y-89408000D01*
X110262000Y-89408000D01*
X110262000Y-89662000D01*
X110242000Y-89662000D01*
X110242000Y-89682000D01*
X109988000Y-89682000D01*
X109988000Y-89662000D01*
X109238750Y-89662000D01*
X109080000Y-89820750D01*
X109080000Y-90761310D01*
X109176673Y-90994699D01*
X109355302Y-91173327D01*
X109588691Y-91270000D01*
X109619097Y-91270000D01*
X109601000Y-91313690D01*
X109601000Y-92424250D01*
X109759750Y-92583000D01*
X110744000Y-92583000D01*
X110744000Y-92563000D01*
X110998000Y-92563000D01*
X110998000Y-92583000D01*
X111018000Y-92583000D01*
X111018000Y-92837000D01*
X110998000Y-92837000D01*
X110998000Y-92857000D01*
X110744000Y-92857000D01*
X110744000Y-92837000D01*
X109759750Y-92837000D01*
X109601000Y-92995750D01*
X109601000Y-93051959D01*
X107576798Y-91027758D01*
X107588400Y-90969431D01*
X107588400Y-90969426D01*
X107594464Y-90938942D01*
X107693061Y-90873061D01*
X107766042Y-90763838D01*
X107791669Y-90635000D01*
X107791669Y-88435000D01*
X107766545Y-88308690D01*
X109080000Y-88308690D01*
X109080000Y-89249250D01*
X109238750Y-89408000D01*
X109988000Y-89408000D01*
X109988000Y-87958750D01*
X109829250Y-87800000D01*
X109588691Y-87800000D01*
X109355302Y-87896673D01*
X109176673Y-88075301D01*
X109080000Y-88308690D01*
X107766545Y-88308690D01*
X107766042Y-88306162D01*
X107693061Y-88196939D01*
X107583838Y-88123958D01*
X107455000Y-88098331D01*
X106655000Y-88098331D01*
X106526162Y-88123958D01*
X106485000Y-88151462D01*
X106443838Y-88123958D01*
X106315000Y-88098331D01*
X105515000Y-88098331D01*
X105386162Y-88123958D01*
X105276939Y-88196939D01*
X105203958Y-88306162D01*
X105178331Y-88435000D01*
X105178331Y-90635000D01*
X105203958Y-90763838D01*
X105276939Y-90873061D01*
X105287695Y-90880248D01*
X104521000Y-91646943D01*
X104521000Y-91313690D01*
X104424327Y-91080301D01*
X104245698Y-90901673D01*
X104236156Y-90897720D01*
X104273061Y-90873061D01*
X104346042Y-90763838D01*
X104371669Y-90635000D01*
X104371669Y-88435000D01*
X104346042Y-88306162D01*
X104273061Y-88196939D01*
X104163838Y-88123958D01*
X104035000Y-88098331D01*
X103442866Y-88098331D01*
X103433327Y-88075301D01*
X103254698Y-87896673D01*
X103021309Y-87800000D01*
X102780750Y-87800000D01*
X102622000Y-87958750D01*
X102622000Y-89408000D01*
X102642000Y-89408000D01*
X102642000Y-89662000D01*
X102622000Y-89662000D01*
X102622000Y-89682000D01*
X102368000Y-89682000D01*
X102368000Y-89662000D01*
X102348000Y-89662000D01*
X102348000Y-89408000D01*
X102368000Y-89408000D01*
X102368000Y-87958750D01*
X102250230Y-87840980D01*
X102386210Y-87705000D01*
X104702456Y-87705000D01*
X104775000Y-87719430D01*
X104847544Y-87705000D01*
X104894877Y-87695585D01*
X105062407Y-87662261D01*
X105306058Y-87499458D01*
X105468861Y-87255807D01*
X105505860Y-87069800D01*
X105526030Y-86968400D01*
X105511600Y-86895856D01*
X105511600Y-86771669D01*
X107675000Y-86771669D01*
X107803838Y-86746042D01*
X107913061Y-86673061D01*
X107986042Y-86563838D01*
X108011669Y-86435000D01*
X108011669Y-84876845D01*
X108239703Y-84971300D01*
X108547897Y-84971300D01*
X108832632Y-84853359D01*
X109050559Y-84635432D01*
X109088659Y-84543450D01*
X109158331Y-84473778D01*
X109158331Y-86435000D01*
X109183958Y-86563838D01*
X109256939Y-86673061D01*
X109366162Y-86746042D01*
X109495000Y-86771669D01*
X115295000Y-86771669D01*
X115423838Y-86746042D01*
X115533061Y-86673061D01*
X115606042Y-86563838D01*
X115631669Y-86435000D01*
X115631669Y-80930750D01*
X116905000Y-80930750D01*
X116905000Y-81071310D01*
X116991442Y-81280000D01*
X116905000Y-81488690D01*
X116905000Y-81629250D01*
X117063750Y-81788000D01*
X118413000Y-81788000D01*
X118413000Y-80772000D01*
X118667000Y-80772000D01*
X118667000Y-81788000D01*
X120016250Y-81788000D01*
X120175000Y-81629250D01*
X120175000Y-81488690D01*
X120088558Y-81280000D01*
X120175000Y-81071310D01*
X120175000Y-80930750D01*
X120016250Y-80772000D01*
X118667000Y-80772000D01*
X118413000Y-80772000D01*
X117063750Y-80772000D01*
X116905000Y-80930750D01*
X115631669Y-80930750D01*
X115631669Y-80035000D01*
X115606042Y-79906162D01*
X115533061Y-79796939D01*
X115423838Y-79723958D01*
X115295000Y-79698331D01*
X109495000Y-79698331D01*
X109479100Y-79701494D01*
X109479100Y-79660750D01*
X116905000Y-79660750D01*
X116905000Y-79801310D01*
X116991442Y-80010000D01*
X116905000Y-80218690D01*
X116905000Y-80359250D01*
X117063750Y-80518000D01*
X118413000Y-80518000D01*
X118413000Y-79502000D01*
X118667000Y-79502000D01*
X118667000Y-80518000D01*
X120016250Y-80518000D01*
X120175000Y-80359250D01*
X120175000Y-80218690D01*
X120088558Y-80010000D01*
X120175000Y-79801310D01*
X120175000Y-79660750D01*
X120016250Y-79502000D01*
X118667000Y-79502000D01*
X118413000Y-79502000D01*
X117063750Y-79502000D01*
X116905000Y-79660750D01*
X109479100Y-79660750D01*
X109479100Y-78390750D01*
X116905000Y-78390750D01*
X116905000Y-78531310D01*
X116991442Y-78740000D01*
X116905000Y-78948690D01*
X116905000Y-79089250D01*
X117063750Y-79248000D01*
X118413000Y-79248000D01*
X118413000Y-78232000D01*
X118667000Y-78232000D01*
X118667000Y-79248000D01*
X120016250Y-79248000D01*
X120175000Y-79089250D01*
X120175000Y-78948690D01*
X120088558Y-78740000D01*
X120175000Y-78531310D01*
X120175000Y-78390750D01*
X120016250Y-78232000D01*
X118667000Y-78232000D01*
X118413000Y-78232000D01*
X117063750Y-78232000D01*
X116905000Y-78390750D01*
X109479100Y-78390750D01*
X109479100Y-76115516D01*
X113579800Y-76115516D01*
X113579800Y-76684484D01*
X113797535Y-77210143D01*
X114199857Y-77612465D01*
X114725516Y-77830200D01*
X115294484Y-77830200D01*
X115820143Y-77612465D01*
X116222465Y-77210143D01*
X116259492Y-77120750D01*
X116905000Y-77120750D01*
X116905000Y-77261310D01*
X116991442Y-77470000D01*
X116905000Y-77678690D01*
X116905000Y-77819250D01*
X117063750Y-77978000D01*
X118413000Y-77978000D01*
X118413000Y-76962000D01*
X118667000Y-76962000D01*
X118667000Y-77978000D01*
X120016250Y-77978000D01*
X120175000Y-77819250D01*
X120175000Y-77678690D01*
X120088558Y-77470000D01*
X120175000Y-77261310D01*
X120175000Y-77120750D01*
X120016250Y-76962000D01*
X118667000Y-76962000D01*
X118413000Y-76962000D01*
X117063750Y-76962000D01*
X116905000Y-77120750D01*
X116259492Y-77120750D01*
X116440200Y-76684484D01*
X116440200Y-76115516D01*
X116330531Y-75850750D01*
X116905000Y-75850750D01*
X116905000Y-75991310D01*
X116991442Y-76200000D01*
X116905000Y-76408690D01*
X116905000Y-76549250D01*
X117063750Y-76708000D01*
X118413000Y-76708000D01*
X118413000Y-75692000D01*
X118667000Y-75692000D01*
X118667000Y-76708000D01*
X120016250Y-76708000D01*
X120175000Y-76549250D01*
X120175000Y-76408690D01*
X120088558Y-76200000D01*
X120175000Y-75991310D01*
X120175000Y-75850750D01*
X120016250Y-75692000D01*
X118667000Y-75692000D01*
X118413000Y-75692000D01*
X117063750Y-75692000D01*
X116905000Y-75850750D01*
X116330531Y-75850750D01*
X116222465Y-75589857D01*
X115820143Y-75187535D01*
X115294484Y-74969800D01*
X114725516Y-74969800D01*
X114199857Y-75187535D01*
X113797535Y-75589857D01*
X113579800Y-76115516D01*
X109479100Y-76115516D01*
X109479100Y-74580750D01*
X116905000Y-74580750D01*
X116905000Y-74721310D01*
X116991442Y-74930000D01*
X116905000Y-75138690D01*
X116905000Y-75279250D01*
X117063750Y-75438000D01*
X118413000Y-75438000D01*
X118413000Y-74422000D01*
X118667000Y-74422000D01*
X118667000Y-75438000D01*
X120016250Y-75438000D01*
X120175000Y-75279250D01*
X120175000Y-75138690D01*
X120088558Y-74930000D01*
X120175000Y-74721310D01*
X120175000Y-74580750D01*
X120016250Y-74422000D01*
X118667000Y-74422000D01*
X118413000Y-74422000D01*
X117063750Y-74422000D01*
X116905000Y-74580750D01*
X109479100Y-74580750D01*
X109479100Y-74323010D01*
X109583192Y-74279893D01*
X109765393Y-74097692D01*
X109860249Y-73868690D01*
X116905000Y-73868690D01*
X116905000Y-74009250D01*
X117063750Y-74168000D01*
X118413000Y-74168000D01*
X118413000Y-73518750D01*
X118667000Y-73518750D01*
X118667000Y-74168000D01*
X120016250Y-74168000D01*
X120175000Y-74009250D01*
X120175000Y-73868690D01*
X120078327Y-73635301D01*
X119899698Y-73456673D01*
X119666309Y-73360000D01*
X118825750Y-73360000D01*
X118667000Y-73518750D01*
X118413000Y-73518750D01*
X118254250Y-73360000D01*
X117413691Y-73360000D01*
X117180302Y-73456673D01*
X117001673Y-73635301D01*
X116905000Y-73868690D01*
X109860249Y-73868690D01*
X109864000Y-73859636D01*
X109864000Y-73601964D01*
X109765393Y-73363908D01*
X109583192Y-73181707D01*
X109345136Y-73083100D01*
X109087464Y-73083100D01*
X108849408Y-73181707D01*
X108667207Y-73363908D01*
X108583151Y-73566835D01*
X108513061Y-73461939D01*
X108403838Y-73388958D01*
X108275000Y-73363331D01*
X106835000Y-73363331D01*
X106706162Y-73388958D01*
X106596939Y-73461939D01*
X106546341Y-73537664D01*
X106546042Y-73536162D01*
X106473061Y-73426939D01*
X106363838Y-73353958D01*
X106235000Y-73328331D01*
X101275000Y-73328331D01*
X101146162Y-73353958D01*
X101036939Y-73426939D01*
X100963958Y-73536162D01*
X100938331Y-73665000D01*
X100938331Y-75031600D01*
X100687641Y-75031600D01*
X99432817Y-73776777D01*
X99403059Y-73732241D01*
X99226622Y-73614349D01*
X99071031Y-73583400D01*
X99071026Y-73583400D01*
X99018500Y-73572952D01*
X98965974Y-73583400D01*
X91875641Y-73583400D01*
X91254242Y-72962002D01*
X91285458Y-72954692D01*
X91819769Y-72657273D01*
X92199591Y-72178022D01*
X92232794Y-72061445D01*
X92438539Y-72369362D01*
X92854427Y-72647250D01*
X93345000Y-72744831D01*
X93835574Y-72647250D01*
X94251462Y-72369362D01*
X94529350Y-71953474D01*
X94602300Y-71586728D01*
X94602300Y-70653271D01*
X94529350Y-70286526D01*
X94378725Y-70061100D01*
X94851275Y-70061100D01*
X94700650Y-70286527D01*
X94627700Y-70653272D01*
X94627700Y-71586729D01*
X94700650Y-71953474D01*
X94978539Y-72369362D01*
X95394427Y-72647250D01*
X95885000Y-72744831D01*
X96375574Y-72647250D01*
X96791462Y-72369362D01*
X97069350Y-71953474D01*
X97142300Y-71586728D01*
X97142300Y-71534997D01*
X97167700Y-71540049D01*
X97167700Y-71586729D01*
X97240650Y-71953474D01*
X97518539Y-72369362D01*
X97934427Y-72647250D01*
X98425000Y-72744831D01*
X98915574Y-72647250D01*
X99331462Y-72369362D01*
X99609350Y-71953474D01*
X99682300Y-71586728D01*
X99682300Y-70653272D01*
X99707700Y-70653272D01*
X99707700Y-71586729D01*
X99780650Y-71953474D01*
X100058539Y-72369362D01*
X100474427Y-72647250D01*
X100965000Y-72744831D01*
X101455574Y-72647250D01*
X101871462Y-72369362D01*
X102149350Y-71953474D01*
X102222300Y-71586728D01*
X102222300Y-70653272D01*
X102247700Y-70653272D01*
X102247700Y-71586729D01*
X102320650Y-71953474D01*
X102598539Y-72369362D01*
X103014427Y-72647250D01*
X103505000Y-72744831D01*
X103995574Y-72647250D01*
X104411462Y-72369362D01*
X104689350Y-71953474D01*
X104762300Y-71586728D01*
X104762300Y-70653271D01*
X104689350Y-70286526D01*
X104411462Y-69870638D01*
X103995573Y-69592750D01*
X103505000Y-69495169D01*
X103014426Y-69592750D01*
X102598538Y-69870638D01*
X102320650Y-70286527D01*
X102247700Y-70653272D01*
X102222300Y-70653272D01*
X102222300Y-70653271D01*
X102149350Y-70286526D01*
X101871462Y-69870638D01*
X101455573Y-69592750D01*
X100965000Y-69495169D01*
X100474426Y-69592750D01*
X100058538Y-69870638D01*
X99780650Y-70286527D01*
X99707700Y-70653272D01*
X99682300Y-70653272D01*
X99682300Y-70653271D01*
X99609350Y-70286526D01*
X99331462Y-69870638D01*
X98915573Y-69592750D01*
X98425000Y-69495169D01*
X97934426Y-69592750D01*
X97518538Y-69870638D01*
X97409733Y-70033476D01*
X96730300Y-69354043D01*
X96706210Y-69317990D01*
X96563380Y-69222554D01*
X96437426Y-69197500D01*
X96437422Y-69197500D01*
X96394900Y-69189042D01*
X96352378Y-69197500D01*
X87295422Y-69197500D01*
X87252900Y-69189042D01*
X87210378Y-69197500D01*
X87210374Y-69197500D01*
X87084420Y-69222554D01*
X86977641Y-69293901D01*
X86977640Y-69293902D01*
X86941590Y-69317990D01*
X86917502Y-69354040D01*
X86169500Y-70102043D01*
X86169500Y-68389500D01*
X155765501Y-68389500D01*
X155765501Y-83669880D01*
G36*
X100184201Y-91092719D02*
X100146100Y-91184703D01*
X100146100Y-91492897D01*
X100264041Y-91777632D01*
X100481968Y-91995559D01*
X100766703Y-92113500D01*
X101074897Y-92113500D01*
X101359632Y-91995559D01*
X101577559Y-91777632D01*
X101695500Y-91492897D01*
X101695500Y-91184703D01*
X101659312Y-91097337D01*
X101735302Y-91173327D01*
X101968691Y-91270000D01*
X101999097Y-91270000D01*
X101981000Y-91313690D01*
X101981000Y-92424250D01*
X102139750Y-92583000D01*
X103124000Y-92583000D01*
X103124000Y-92563000D01*
X103378000Y-92563000D01*
X103378000Y-92583000D01*
X103398000Y-92583000D01*
X103398000Y-92837000D01*
X103378000Y-92837000D01*
X103378000Y-94456250D01*
X103536750Y-94615000D01*
X104012309Y-94615000D01*
X104245698Y-94518327D01*
X104343201Y-94420825D01*
X104343201Y-94659331D01*
X103505000Y-94659331D01*
X103376162Y-94684958D01*
X103266939Y-94757939D01*
X103193958Y-94867162D01*
X103168331Y-94996000D01*
X103168331Y-96266000D01*
X103193958Y-96394838D01*
X103266939Y-96504061D01*
X103376162Y-96577042D01*
X103505000Y-96602669D01*
X106045000Y-96602669D01*
X106173838Y-96577042D01*
X106283061Y-96504061D01*
X106356042Y-96394838D01*
X106381669Y-96266000D01*
X106381669Y-94996000D01*
X106356042Y-94867162D01*
X106283061Y-94757939D01*
X106173838Y-94684958D01*
X106045000Y-94659331D01*
X105206800Y-94659331D01*
X105206800Y-92182457D01*
X105327331Y-92061926D01*
X105327331Y-93980000D01*
X105352958Y-94108838D01*
X105425939Y-94218061D01*
X105535162Y-94291042D01*
X105664000Y-94316669D01*
X106934000Y-94316669D01*
X107062838Y-94291042D01*
X107172061Y-94218061D01*
X107245042Y-94108838D01*
X107270669Y-93980000D01*
X107270669Y-92230309D01*
X109627787Y-94587428D01*
X109560815Y-94654400D01*
X109476626Y-94654400D01*
X109434100Y-94645941D01*
X109391574Y-94654400D01*
X109265620Y-94679454D01*
X109122790Y-94774890D01*
X109098700Y-94810943D01*
X106936643Y-96973000D01*
X89988121Y-96973000D01*
X89945599Y-96964542D01*
X89903077Y-96973000D01*
X89903074Y-96973000D01*
X89802825Y-96992941D01*
X89777120Y-96998054D01*
X89670341Y-97069401D01*
X89670340Y-97069402D01*
X89634290Y-97093490D01*
X89610202Y-97129540D01*
X89259740Y-97480003D01*
X89223691Y-97504090D01*
X89199603Y-97540140D01*
X89199601Y-97540142D01*
X89128254Y-97646921D01*
X89116238Y-97707331D01*
X88265000Y-97707331D01*
X88136162Y-97732958D01*
X88026939Y-97805939D01*
X87953958Y-97915162D01*
X87928331Y-98044000D01*
X87928331Y-99314000D01*
X87953958Y-99442838D01*
X88026939Y-99552061D01*
X88136162Y-99625042D01*
X88265000Y-99650669D01*
X88732109Y-99650669D01*
X88340801Y-99812754D01*
X87747754Y-100405801D01*
X87426800Y-101180653D01*
X87426800Y-101745360D01*
X87050200Y-101368760D01*
X87050200Y-94532368D01*
X87249691Y-94615000D01*
X87725250Y-94615000D01*
X87884000Y-94456250D01*
X87884000Y-92837000D01*
X87864000Y-92837000D01*
X87864000Y-92583000D01*
X87884000Y-92583000D01*
X87884000Y-92563000D01*
X88138000Y-92563000D01*
X88138000Y-92583000D01*
X88158000Y-92583000D01*
X88158000Y-92837000D01*
X88138000Y-92837000D01*
X88138000Y-94456250D01*
X88296750Y-94615000D01*
X88772309Y-94615000D01*
X89005698Y-94518327D01*
X89103201Y-94420825D01*
X89103201Y-94659331D01*
X88265000Y-94659331D01*
X88136162Y-94684958D01*
X88026939Y-94757939D01*
X87953958Y-94867162D01*
X87928331Y-94996000D01*
X87928331Y-96266000D01*
X87953958Y-96394838D01*
X88026939Y-96504061D01*
X88136162Y-96577042D01*
X88265000Y-96602669D01*
X90805000Y-96602669D01*
X90933838Y-96577042D01*
X91043061Y-96504061D01*
X91116042Y-96394838D01*
X91141669Y-96266000D01*
X91141669Y-94996000D01*
X91116042Y-94867162D01*
X91043061Y-94757939D01*
X90933838Y-94684958D01*
X90805000Y-94659331D01*
X89966800Y-94659331D01*
X89966800Y-92182457D01*
X90087331Y-92061926D01*
X90087331Y-93980000D01*
X90112958Y-94108838D01*
X90185939Y-94218061D01*
X90295162Y-94291042D01*
X90424000Y-94316669D01*
X91694000Y-94316669D01*
X91822838Y-94291042D01*
X91932061Y-94218061D01*
X92005042Y-94108838D01*
X92030669Y-93980000D01*
X92030669Y-92995750D01*
X94361000Y-92995750D01*
X94361000Y-94106310D01*
X94457673Y-94339699D01*
X94636302Y-94518327D01*
X94869691Y-94615000D01*
X95345250Y-94615000D01*
X95504000Y-94456250D01*
X95504000Y-92837000D01*
X94519750Y-92837000D01*
X94361000Y-92995750D01*
X92030669Y-92995750D01*
X92030669Y-91462608D01*
X92199559Y-91349759D01*
X92317451Y-91173322D01*
X92348400Y-91017731D01*
X92358849Y-90965200D01*
X92353724Y-90939436D01*
X92453061Y-90873061D01*
X92526042Y-90763838D01*
X92551669Y-90635000D01*
X92551669Y-88638200D01*
X93840000Y-88638200D01*
X93840000Y-89249250D01*
X93998750Y-89408000D01*
X94748000Y-89408000D01*
X94748000Y-89388000D01*
X95002000Y-89388000D01*
X95002000Y-89408000D01*
X95022000Y-89408000D01*
X95022000Y-89662000D01*
X95002000Y-89662000D01*
X95002000Y-89682000D01*
X94748000Y-89682000D01*
X94748000Y-89662000D01*
X93998750Y-89662000D01*
X93840000Y-89820750D01*
X93840000Y-90761310D01*
X93936673Y-90994699D01*
X94115302Y-91173327D01*
X94348691Y-91270000D01*
X94379097Y-91270000D01*
X94361000Y-91313690D01*
X94361000Y-92424250D01*
X94519750Y-92583000D01*
X95504000Y-92583000D01*
X95504000Y-92563000D01*
X95758000Y-92563000D01*
X95758000Y-92583000D01*
X95778000Y-92583000D01*
X95778000Y-92837000D01*
X95758000Y-92837000D01*
X95758000Y-94456250D01*
X95916750Y-94615000D01*
X96392309Y-94615000D01*
X96625698Y-94518327D01*
X96723201Y-94420825D01*
X96723201Y-94659331D01*
X95885000Y-94659331D01*
X95756162Y-94684958D01*
X95646939Y-94757939D01*
X95573958Y-94867162D01*
X95548331Y-94996000D01*
X95548331Y-96266000D01*
X95573958Y-96394838D01*
X95646939Y-96504061D01*
X95756162Y-96577042D01*
X95885000Y-96602669D01*
X98425000Y-96602669D01*
X98553838Y-96577042D01*
X98663061Y-96504061D01*
X98736042Y-96394838D01*
X98761669Y-96266000D01*
X98761669Y-94996000D01*
X98736042Y-94867162D01*
X98663061Y-94757939D01*
X98553838Y-94684958D01*
X98425000Y-94659331D01*
X97586800Y-94659331D01*
X97586800Y-92182457D01*
X97707331Y-92061926D01*
X97707331Y-93980000D01*
X97732958Y-94108838D01*
X97805939Y-94218061D01*
X97915162Y-94291042D01*
X98044000Y-94316669D01*
X99314000Y-94316669D01*
X99442838Y-94291042D01*
X99552061Y-94218061D01*
X99625042Y-94108838D01*
X99650669Y-93980000D01*
X99650669Y-92995750D01*
X101981000Y-92995750D01*
X101981000Y-94106310D01*
X102077673Y-94339699D01*
X102256302Y-94518327D01*
X102489691Y-94615000D01*
X102965250Y-94615000D01*
X103124000Y-94456250D01*
X103124000Y-92837000D01*
X102139750Y-92837000D01*
X101981000Y-92995750D01*
X99650669Y-92995750D01*
X99650669Y-91462608D01*
X99819559Y-91349759D01*
X99937451Y-91173322D01*
X99968400Y-91017731D01*
X99978849Y-90965200D01*
X99973724Y-90939436D01*
X100073061Y-90873061D01*
X100146042Y-90763838D01*
X100171669Y-90635000D01*
X100171669Y-88435000D01*
X100157081Y-88361659D01*
X100184200Y-88334540D01*
X100184201Y-91092719D01*
X100184201Y-91092719D01*
G37*
X100184201Y-91092719D02*
X100146100Y-91184703D01*
X100146100Y-91492897D01*
X100264041Y-91777632D01*
X100481968Y-91995559D01*
X100766703Y-92113500D01*
X101074897Y-92113500D01*
X101359632Y-91995559D01*
X101577559Y-91777632D01*
X101695500Y-91492897D01*
X101695500Y-91184703D01*
X101659312Y-91097337D01*
X101735302Y-91173327D01*
X101968691Y-91270000D01*
X101999097Y-91270000D01*
X101981000Y-91313690D01*
X101981000Y-92424250D01*
X102139750Y-92583000D01*
X103124000Y-92583000D01*
X103124000Y-92563000D01*
X103378000Y-92563000D01*
X103378000Y-92583000D01*
X103398000Y-92583000D01*
X103398000Y-92837000D01*
X103378000Y-92837000D01*
X103378000Y-94456250D01*
X103536750Y-94615000D01*
X104012309Y-94615000D01*
X104245698Y-94518327D01*
X104343201Y-94420825D01*
X104343201Y-94659331D01*
X103505000Y-94659331D01*
X103376162Y-94684958D01*
X103266939Y-94757939D01*
X103193958Y-94867162D01*
X103168331Y-94996000D01*
X103168331Y-96266000D01*
X103193958Y-96394838D01*
X103266939Y-96504061D01*
X103376162Y-96577042D01*
X103505000Y-96602669D01*
X106045000Y-96602669D01*
X106173838Y-96577042D01*
X106283061Y-96504061D01*
X106356042Y-96394838D01*
X106381669Y-96266000D01*
X106381669Y-94996000D01*
X106356042Y-94867162D01*
X106283061Y-94757939D01*
X106173838Y-94684958D01*
X106045000Y-94659331D01*
X105206800Y-94659331D01*
X105206800Y-92182457D01*
X105327331Y-92061926D01*
X105327331Y-93980000D01*
X105352958Y-94108838D01*
X105425939Y-94218061D01*
X105535162Y-94291042D01*
X105664000Y-94316669D01*
X106934000Y-94316669D01*
X107062838Y-94291042D01*
X107172061Y-94218061D01*
X107245042Y-94108838D01*
X107270669Y-93980000D01*
X107270669Y-92230309D01*
X109627787Y-94587428D01*
X109560815Y-94654400D01*
X109476626Y-94654400D01*
X109434100Y-94645941D01*
X109391574Y-94654400D01*
X109265620Y-94679454D01*
X109122790Y-94774890D01*
X109098700Y-94810943D01*
X106936643Y-96973000D01*
X89988121Y-96973000D01*
X89945599Y-96964542D01*
X89903077Y-96973000D01*
X89903074Y-96973000D01*
X89802825Y-96992941D01*
X89777120Y-96998054D01*
X89670341Y-97069401D01*
X89670340Y-97069402D01*
X89634290Y-97093490D01*
X89610202Y-97129540D01*
X89259740Y-97480003D01*
X89223691Y-97504090D01*
X89199603Y-97540140D01*
X89199601Y-97540142D01*
X89128254Y-97646921D01*
X89116238Y-97707331D01*
X88265000Y-97707331D01*
X88136162Y-97732958D01*
X88026939Y-97805939D01*
X87953958Y-97915162D01*
X87928331Y-98044000D01*
X87928331Y-99314000D01*
X87953958Y-99442838D01*
X88026939Y-99552061D01*
X88136162Y-99625042D01*
X88265000Y-99650669D01*
X88732109Y-99650669D01*
X88340801Y-99812754D01*
X87747754Y-100405801D01*
X87426800Y-101180653D01*
X87426800Y-101745360D01*
X87050200Y-101368760D01*
X87050200Y-94532368D01*
X87249691Y-94615000D01*
X87725250Y-94615000D01*
X87884000Y-94456250D01*
X87884000Y-92837000D01*
X87864000Y-92837000D01*
X87864000Y-92583000D01*
X87884000Y-92583000D01*
X87884000Y-92563000D01*
X88138000Y-92563000D01*
X88138000Y-92583000D01*
X88158000Y-92583000D01*
X88158000Y-92837000D01*
X88138000Y-92837000D01*
X88138000Y-94456250D01*
X88296750Y-94615000D01*
X88772309Y-94615000D01*
X89005698Y-94518327D01*
X89103201Y-94420825D01*
X89103201Y-94659331D01*
X88265000Y-94659331D01*
X88136162Y-94684958D01*
X88026939Y-94757939D01*
X87953958Y-94867162D01*
X87928331Y-94996000D01*
X87928331Y-96266000D01*
X87953958Y-96394838D01*
X88026939Y-96504061D01*
X88136162Y-96577042D01*
X88265000Y-96602669D01*
X90805000Y-96602669D01*
X90933838Y-96577042D01*
X91043061Y-96504061D01*
X91116042Y-96394838D01*
X91141669Y-96266000D01*
X91141669Y-94996000D01*
X91116042Y-94867162D01*
X91043061Y-94757939D01*
X90933838Y-94684958D01*
X90805000Y-94659331D01*
X89966800Y-94659331D01*
X89966800Y-92182457D01*
X90087331Y-92061926D01*
X90087331Y-93980000D01*
X90112958Y-94108838D01*
X90185939Y-94218061D01*
X90295162Y-94291042D01*
X90424000Y-94316669D01*
X91694000Y-94316669D01*
X91822838Y-94291042D01*
X91932061Y-94218061D01*
X92005042Y-94108838D01*
X92030669Y-93980000D01*
X92030669Y-92995750D01*
X94361000Y-92995750D01*
X94361000Y-94106310D01*
X94457673Y-94339699D01*
X94636302Y-94518327D01*
X94869691Y-94615000D01*
X95345250Y-94615000D01*
X95504000Y-94456250D01*
X95504000Y-92837000D01*
X94519750Y-92837000D01*
X94361000Y-92995750D01*
X92030669Y-92995750D01*
X92030669Y-91462608D01*
X92199559Y-91349759D01*
X92317451Y-91173322D01*
X92348400Y-91017731D01*
X92358849Y-90965200D01*
X92353724Y-90939436D01*
X92453061Y-90873061D01*
X92526042Y-90763838D01*
X92551669Y-90635000D01*
X92551669Y-88638200D01*
X93840000Y-88638200D01*
X93840000Y-89249250D01*
X93998750Y-89408000D01*
X94748000Y-89408000D01*
X94748000Y-89388000D01*
X95002000Y-89388000D01*
X95002000Y-89408000D01*
X95022000Y-89408000D01*
X95022000Y-89662000D01*
X95002000Y-89662000D01*
X95002000Y-89682000D01*
X94748000Y-89682000D01*
X94748000Y-89662000D01*
X93998750Y-89662000D01*
X93840000Y-89820750D01*
X93840000Y-90761310D01*
X93936673Y-90994699D01*
X94115302Y-91173327D01*
X94348691Y-91270000D01*
X94379097Y-91270000D01*
X94361000Y-91313690D01*
X94361000Y-92424250D01*
X94519750Y-92583000D01*
X95504000Y-92583000D01*
X95504000Y-92563000D01*
X95758000Y-92563000D01*
X95758000Y-92583000D01*
X95778000Y-92583000D01*
X95778000Y-92837000D01*
X95758000Y-92837000D01*
X95758000Y-94456250D01*
X95916750Y-94615000D01*
X96392309Y-94615000D01*
X96625698Y-94518327D01*
X96723201Y-94420825D01*
X96723201Y-94659331D01*
X95885000Y-94659331D01*
X95756162Y-94684958D01*
X95646939Y-94757939D01*
X95573958Y-94867162D01*
X95548331Y-94996000D01*
X95548331Y-96266000D01*
X95573958Y-96394838D01*
X95646939Y-96504061D01*
X95756162Y-96577042D01*
X95885000Y-96602669D01*
X98425000Y-96602669D01*
X98553838Y-96577042D01*
X98663061Y-96504061D01*
X98736042Y-96394838D01*
X98761669Y-96266000D01*
X98761669Y-94996000D01*
X98736042Y-94867162D01*
X98663061Y-94757939D01*
X98553838Y-94684958D01*
X98425000Y-94659331D01*
X97586800Y-94659331D01*
X97586800Y-92182457D01*
X97707331Y-92061926D01*
X97707331Y-93980000D01*
X97732958Y-94108838D01*
X97805939Y-94218061D01*
X97915162Y-94291042D01*
X98044000Y-94316669D01*
X99314000Y-94316669D01*
X99442838Y-94291042D01*
X99552061Y-94218061D01*
X99625042Y-94108838D01*
X99650669Y-93980000D01*
X99650669Y-92995750D01*
X101981000Y-92995750D01*
X101981000Y-94106310D01*
X102077673Y-94339699D01*
X102256302Y-94518327D01*
X102489691Y-94615000D01*
X102965250Y-94615000D01*
X103124000Y-94456250D01*
X103124000Y-92837000D01*
X102139750Y-92837000D01*
X101981000Y-92995750D01*
X99650669Y-92995750D01*
X99650669Y-91462608D01*
X99819559Y-91349759D01*
X99937451Y-91173322D01*
X99968400Y-91017731D01*
X99978849Y-90965200D01*
X99973724Y-90939436D01*
X100073061Y-90873061D01*
X100146042Y-90763838D01*
X100171669Y-90635000D01*
X100171669Y-88435000D01*
X100157081Y-88361659D01*
X100184200Y-88334540D01*
X100184201Y-91092719D01*
G36*
X87382000Y-89408000D02*
X87402000Y-89408000D01*
X87402000Y-89662000D01*
X87382000Y-89662000D01*
X87382000Y-89682000D01*
X87128000Y-89682000D01*
X87128000Y-89662000D01*
X87108000Y-89662000D01*
X87108000Y-89408000D01*
X87128000Y-89408000D01*
X87128000Y-89388000D01*
X87382000Y-89388000D01*
X87382000Y-89408000D01*
X87382000Y-89408000D01*
G37*
X87382000Y-89408000D02*
X87402000Y-89408000D01*
X87402000Y-89662000D01*
X87382000Y-89662000D01*
X87382000Y-89682000D01*
X87128000Y-89682000D01*
X87128000Y-89662000D01*
X87108000Y-89662000D01*
X87108000Y-89408000D01*
X87128000Y-89408000D01*
X87128000Y-89388000D01*
X87382000Y-89388000D01*
X87382000Y-89408000D01*
G36*
X90932000Y-70993000D02*
X90952000Y-70993000D01*
X90952000Y-71247000D01*
X90932000Y-71247000D01*
X90932000Y-71267000D01*
X90678000Y-71267000D01*
X90678000Y-71247000D01*
X90658000Y-71247000D01*
X90658000Y-70993000D01*
X90678000Y-70993000D01*
X90678000Y-70973000D01*
X90932000Y-70973000D01*
X90932000Y-70993000D01*
X90932000Y-70993000D01*
G37*
X90932000Y-70993000D02*
X90952000Y-70993000D01*
X90952000Y-71247000D01*
X90932000Y-71247000D01*
X90932000Y-71267000D01*
X90678000Y-71267000D01*
X90678000Y-71247000D01*
X90658000Y-71247000D01*
X90658000Y-70993000D01*
X90678000Y-70993000D01*
X90678000Y-70973000D01*
X90932000Y-70973000D01*
X90932000Y-70993000D01*
G04 #@! TD*
M02*
