G04 #@! TF.GenerationSoftware,KiCad,Pcbnew,6.0.0-rc1-unknown-ab92882~66~ubuntu18.04.1*
G04 #@! TF.CreationDate,2018-09-14T10:08:46-04:00*
G04 #@! TF.ProjectId,backlight_controller_3x2,6261636B6C696768745F636F6E74726F,1.0*
G04 #@! TF.SameCoordinates,Original*
G04 #@! TF.FileFunction,Copper,L1,Top,Signal*
G04 #@! TF.FilePolarity,Positive*
%FSLAX46Y46*%
G04 Gerber Fmt 4.6, Leading zero omitted, Abs format (unit mm)*
G04 Created by KiCad (PCBNEW 6.0.0-rc1-unknown-ab92882~66~ubuntu18.04.1) date Fri Sep 14 10:08:46 2018*
%MOMM*%
%LPD*%
G01*
G04 APERTURE LIST*
G04 #@! TA.AperFunction,NonConductor*
%ADD10C,0.228600*%
G04 #@! TD*
G04 #@! TA.AperFunction,ComponentPad*
%ADD11C,3.556000*%
G04 #@! TD*
G04 #@! TA.AperFunction,ComponentPad*
%ADD12O,1.854200X2.540000*%
G04 #@! TD*
G04 #@! TA.AperFunction,ComponentPad*
%ADD13R,1.854200X2.540000*%
G04 #@! TD*
G04 #@! TA.AperFunction,SMDPad,CuDef*
%ADD14R,7.480000X1.000000*%
G04 #@! TD*
G04 #@! TA.AperFunction,SMDPad,CuDef*
%ADD15R,16.000000X3.400000*%
G04 #@! TD*
G04 #@! TA.AperFunction,ComponentPad*
%ADD16C,2.200000*%
G04 #@! TD*
G04 #@! TA.AperFunction,ComponentPad*
%ADD17O,2.500000X1.500000*%
G04 #@! TD*
G04 #@! TA.AperFunction,ComponentPad*
%ADD18C,3.000000*%
G04 #@! TD*
G04 #@! TA.AperFunction,ComponentPad*
%ADD19O,2.032000X1.524000*%
G04 #@! TD*
G04 #@! TA.AperFunction,ComponentPad*
%ADD20C,4.000000*%
G04 #@! TD*
G04 #@! TA.AperFunction,ComponentPad*
%ADD21R,4.000000X3.000000*%
G04 #@! TD*
G04 #@! TA.AperFunction,ComponentPad*
%ADD22O,4.000000X3.000000*%
G04 #@! TD*
G04 #@! TA.AperFunction,ViaPad*
%ADD23C,0.889000*%
G04 #@! TD*
G04 #@! TA.AperFunction,ViaPad*
%ADD24C,0.635000*%
G04 #@! TD*
G04 #@! TA.AperFunction,Conductor*
%ADD25C,0.812800*%
G04 #@! TD*
G04 #@! TA.AperFunction,Conductor*
%ADD26C,1.625600*%
G04 #@! TD*
G04 #@! TA.AperFunction,Conductor*
%ADD27C,0.254000*%
G04 #@! TD*
G04 #@! TA.AperFunction,Conductor*
%ADD28C,0.203200*%
G04 #@! TD*
G04 APERTURE END LIST*
D10*
X156210000Y-67945000D02*
X85725000Y-67945000D01*
X156210000Y-109855000D02*
X156210000Y-67945000D01*
X85725000Y-109855000D02*
X156210000Y-109855000D01*
X85725000Y-67945000D02*
X85725000Y-109855000D01*
D11*
G04 #@! TO.P,MDB1,*
G04 #@! TO.N,*
X130175000Y-71120000D03*
X130175000Y-106680000D03*
X89535000Y-101600000D03*
X89535000Y-76200000D03*
D12*
G04 #@! TO.P,MDB1,AREF*
G04 #@! TO.N,N/C*
X88265000Y-106680000D03*
G04 #@! TO.P,MDB1,VEE*
G04 #@! TO.N,VEE*
X90805000Y-106680000D03*
G04 #@! TO.P,MDB1,AGND*
G04 #@! TO.N,N/C*
X93345000Y-106680000D03*
G04 #@! TO.P,MDB1,3V3*
X95885000Y-106680000D03*
G04 #@! TO.P,MDB1,23*
X98425000Y-106680000D03*
G04 #@! TO.P,MDB1,22*
X100965000Y-106680000D03*
G04 #@! TO.P,MDB1,21*
X103505000Y-106680000D03*
G04 #@! TO.P,MDB1,20*
X106045000Y-106680000D03*
G04 #@! TO.P,MDB1,19*
G04 #@! TO.N,/CHANNEL_9*
X108585000Y-106680000D03*
G04 #@! TO.P,MDB1,18*
G04 #@! TO.N,/CHANNEL_8*
X111125000Y-106680000D03*
G04 #@! TO.P,MDB1,17*
G04 #@! TO.N,/CHANNEL_7*
X113665000Y-106680000D03*
G04 #@! TO.P,MDB1,16*
G04 #@! TO.N,/CHANNEL_6*
X116205000Y-106680000D03*
G04 #@! TO.P,MDB1,15*
G04 #@! TO.N,/CHANNEL_5*
X118745000Y-106680000D03*
G04 #@! TO.P,MDB1,14*
G04 #@! TO.N,/CHANNEL_4*
X121285000Y-106680000D03*
G04 #@! TO.P,MDB1,13*
G04 #@! TO.N,N/C*
X123825000Y-106680000D03*
G04 #@! TO.P,MDB1,DAC*
X126365000Y-106680000D03*
G04 #@! TO.P,MDB1,28*
X126365000Y-71120000D03*
G04 #@! TO.P,MDB1,12*
X123825000Y-71120000D03*
G04 #@! TO.P,MDB1,11*
X121285000Y-71120000D03*
G04 #@! TO.P,MDB1,10*
X118745000Y-71120000D03*
G04 #@! TO.P,MDB1,9*
X116205000Y-71120000D03*
G04 #@! TO.P,MDB1,29*
X113665000Y-71120000D03*
G04 #@! TO.P,MDB1,30*
X111125000Y-71120000D03*
G04 #@! TO.P,MDB1,6*
G04 #@! TO.N,/CHANNEL_3*
X108585000Y-71120000D03*
G04 #@! TO.P,MDB1,5*
G04 #@! TO.N,/CHANNEL_2*
X106045000Y-71120000D03*
G04 #@! TO.P,MDB1,4*
G04 #@! TO.N,/CHANNEL_1*
X103505000Y-71120000D03*
G04 #@! TO.P,MDB1,3*
G04 #@! TO.N,/CHANNEL_0*
X100965000Y-71120000D03*
G04 #@! TO.P,MDB1,2*
G04 #@! TO.N,/~ENABLE*
X98425000Y-71120000D03*
G04 #@! TO.P,MDB1,25*
G04 #@! TO.N,N/C*
X95885000Y-71120000D03*
D13*
G04 #@! TO.P,MDB1,VDD*
G04 #@! TO.N,VDD*
X88265000Y-71120000D03*
D12*
G04 #@! TO.P,MDB1,24*
G04 #@! TO.N,N/C*
X93345000Y-71120000D03*
G04 #@! TO.P,MDB1,GND*
G04 #@! TO.N,GND*
X90805000Y-71120000D03*
G04 #@! TD*
D14*
G04 #@! TO.P,J1,6*
G04 #@! TO.N,/backlight_3x2/high_power_outputs/OUTPUT_2*
X105352000Y-84790000D03*
G04 #@! TO.P,J1,7*
G04 #@! TO.N,VAA*
X105352000Y-87530000D03*
G04 #@! TO.P,J1,8*
G04 #@! TO.N,/backlight_3x2/high_power_outputs/OUTPUT_3*
X105352000Y-90270000D03*
G04 #@! TO.P,J1,9*
G04 #@! TO.N,VAA*
X105352000Y-93010000D03*
G04 #@! TO.P,J1,1*
X96832000Y-83420000D03*
G04 #@! TO.P,J1,2*
G04 #@! TO.N,/backlight_3x2/high_power_outputs/OUTPUT_0*
X96832000Y-86160000D03*
G04 #@! TO.P,J1,3*
G04 #@! TO.N,VAA*
X96832000Y-88900000D03*
G04 #@! TO.P,J1,4*
G04 #@! TO.N,/backlight_3x2/high_power_outputs/OUTPUT_1*
X96832000Y-91640000D03*
G04 #@! TO.P,J1,5*
G04 #@! TO.N,VAA*
X96832000Y-94380000D03*
D15*
G04 #@! TO.P,J1,*
G04 #@! TO.N,*
X101092000Y-74700000D03*
X101092000Y-103100000D03*
D16*
X97992000Y-101400000D03*
X97992000Y-76400000D03*
G04 #@! TD*
D14*
G04 #@! TO.P,J2,9*
G04 #@! TO.N,GND*
X124148000Y-84790000D03*
G04 #@! TO.P,J2,8*
G04 #@! TO.N,/backlight_3x2/low_power_outputs/OUTPUT_3*
X124148000Y-87530000D03*
G04 #@! TO.P,J2,7*
G04 #@! TO.N,GND*
X124148000Y-90270000D03*
G04 #@! TO.P,J2,6*
G04 #@! TO.N,/backlight_3x2/low_power_outputs/OUTPUT_2*
X124148000Y-93010000D03*
G04 #@! TO.P,J2,5*
G04 #@! TO.N,GND*
X115628000Y-83420000D03*
G04 #@! TO.P,J2,4*
G04 #@! TO.N,/backlight_3x2/low_power_outputs/OUTPUT_1*
X115628000Y-86160000D03*
G04 #@! TO.P,J2,3*
G04 #@! TO.N,GND*
X115628000Y-88900000D03*
G04 #@! TO.P,J2,2*
G04 #@! TO.N,/backlight_3x2/low_power_outputs/OUTPUT_0*
X115628000Y-91640000D03*
G04 #@! TO.P,J2,1*
G04 #@! TO.N,GND*
X115628000Y-94380000D03*
D15*
G04 #@! TO.P,J2,*
G04 #@! TO.N,*
X119888000Y-74700000D03*
X119888000Y-103100000D03*
D16*
X116788000Y-101400000D03*
X116788000Y-76400000D03*
G04 #@! TD*
D17*
G04 #@! TO.P,J3,5*
G04 #@! TO.N,VAA*
X151130000Y-72390000D03*
G04 #@! TO.P,J3,1*
X149362200Y-74157800D03*
G04 #@! TO.P,J3,2*
G04 #@! TO.N,N/C*
X149362200Y-70622200D03*
G04 #@! TO.P,J3,3*
G04 #@! TO.N,GND*
X152897800Y-70622200D03*
G04 #@! TO.P,J3,4*
G04 #@! TO.N,/backlight_3x2/C_8*
X152897800Y-74157800D03*
D18*
G04 #@! TO.P,J3,*
G04 #@! TO.N,*
X144130000Y-72390000D03*
G04 #@! TD*
G04 #@! TO.P,J4,*
G04 #@! TO.N,*
X144130000Y-105410000D03*
D17*
G04 #@! TO.P,J4,4*
G04 #@! TO.N,/backlight_3x2/C_9*
X152897800Y-107177800D03*
G04 #@! TO.P,J4,3*
G04 #@! TO.N,GND*
X152897800Y-103642200D03*
G04 #@! TO.P,J4,2*
G04 #@! TO.N,N/C*
X149362200Y-103642200D03*
G04 #@! TO.P,J4,1*
G04 #@! TO.N,VAA*
X149362200Y-107177800D03*
G04 #@! TO.P,J4,5*
X151130000Y-105410000D03*
G04 #@! TD*
D19*
G04 #@! TO.P,L1,1*
G04 #@! TO.N,VAA*
X144780000Y-96520000D03*
G04 #@! TO.P,L1,2*
G04 #@! TO.N,GND*
X139700000Y-96520000D03*
G04 #@! TD*
G04 #@! TO.P,L2,2*
G04 #@! TO.N,GND*
X137160000Y-97790000D03*
G04 #@! TO.P,L2,1*
G04 #@! TO.N,/backlight_3x2/C_0*
X132080000Y-97790000D03*
G04 #@! TD*
G04 #@! TO.P,L3,1*
G04 #@! TO.N,/backlight_3x2/C_1*
X132080000Y-95250000D03*
G04 #@! TO.P,L3,2*
G04 #@! TO.N,GND*
X137160000Y-95250000D03*
G04 #@! TD*
G04 #@! TO.P,L4,2*
G04 #@! TO.N,GND*
X137160000Y-92710000D03*
G04 #@! TO.P,L4,1*
G04 #@! TO.N,/backlight_3x2/C_2*
X132080000Y-92710000D03*
G04 #@! TD*
G04 #@! TO.P,L5,1*
G04 #@! TO.N,/backlight_3x2/C_3*
X132080000Y-90170000D03*
G04 #@! TO.P,L5,2*
G04 #@! TO.N,GND*
X137160000Y-90170000D03*
G04 #@! TD*
G04 #@! TO.P,L6,2*
G04 #@! TO.N,GND*
X137160000Y-87630000D03*
G04 #@! TO.P,L6,1*
G04 #@! TO.N,/backlight_3x2/C_4*
X132080000Y-87630000D03*
G04 #@! TD*
G04 #@! TO.P,L7,2*
G04 #@! TO.N,GND*
X137160000Y-85090000D03*
G04 #@! TO.P,L7,1*
G04 #@! TO.N,/backlight_3x2/C_5*
X132080000Y-85090000D03*
G04 #@! TD*
G04 #@! TO.P,L8,1*
G04 #@! TO.N,/backlight_3x2/C_6*
X132080000Y-82550000D03*
G04 #@! TO.P,L8,2*
G04 #@! TO.N,GND*
X137160000Y-82550000D03*
G04 #@! TD*
G04 #@! TO.P,L9,1*
G04 #@! TO.N,/backlight_3x2/C_7*
X132080000Y-80010000D03*
G04 #@! TO.P,L9,2*
G04 #@! TO.N,GND*
X137160000Y-80010000D03*
G04 #@! TD*
G04 #@! TO.P,L10,1*
G04 #@! TO.N,/backlight_3x2/C_8*
X132080000Y-77470000D03*
G04 #@! TO.P,L10,2*
G04 #@! TO.N,GND*
X137160000Y-77470000D03*
G04 #@! TD*
G04 #@! TO.P,L11,2*
G04 #@! TO.N,GND*
X137160000Y-100330000D03*
G04 #@! TO.P,L11,1*
G04 #@! TO.N,/backlight_3x2/C_9*
X132080000Y-100330000D03*
G04 #@! TD*
D20*
G04 #@! TO.P,P1,*
G04 #@! TO.N,*
X153670000Y-84700000D03*
X153670000Y-93100000D03*
D21*
G04 #@! TO.P,P1,1*
G04 #@! TO.N,VAA*
X146370000Y-84700000D03*
D22*
G04 #@! TO.P,P1,2*
X146370000Y-88900000D03*
G04 #@! TO.P,P1,3*
X146370000Y-93100000D03*
G04 #@! TO.P,P1,4*
G04 #@! TO.N,GND*
X140870000Y-84700000D03*
G04 #@! TO.P,P1,5*
X140870000Y-88900000D03*
G04 #@! TO.P,P1,6*
X140870000Y-93100000D03*
G04 #@! TD*
D23*
G04 #@! TO.N,GND*
X124041300Y-83586900D03*
X87242800Y-87062100D03*
G04 #@! TO.N,VAA*
X108477700Y-78698400D03*
G04 #@! TO.N,/backlight_3x2/high_power_outputs/OUTPUT_0*
X111389400Y-87016200D03*
G04 #@! TO.N,/backlight_3x2/high_power_outputs/OUTPUT_1*
X101540100Y-91338800D03*
G04 #@! TO.N,/backlight_3x2/high_power_outputs/OUTPUT_2*
X100818100Y-84790000D03*
G04 #@! TO.N,/backlight_3x2/high_power_outputs/OUTPUT_3*
X97098200Y-90270000D03*
D24*
G04 #@! TO.N,/backlight_3x2/low_power_outputs/OUTPUT_3*
X132984400Y-81522600D03*
G04 #@! TO.N,/backlight_3x2/low_power_outputs/OUTPUT_2*
X133013900Y-83594000D03*
G04 #@! TO.N,/backlight_3x2/low_power_outputs/OUTPUT_1*
X134729500Y-100833800D03*
G04 #@! TO.N,/backlight_3x2/low_power_outputs/OUTPUT_0*
X137277400Y-105274600D03*
G04 #@! TO.N,/backlight_3x2/C_9*
X126361400Y-99986300D03*
G04 #@! TO.N,/backlight_3x2/C_0*
X114125600Y-98849200D03*
G04 #@! TO.N,/backlight_3x2/C_1*
X106930500Y-98391800D03*
G04 #@! TO.N,/backlight_3x2/C_2*
X99615800Y-98669700D03*
G04 #@! TO.N,/backlight_3x2/C_3*
X94690400Y-98077900D03*
G04 #@! TO.N,/backlight_3x2/C_5*
X135856800Y-102733900D03*
G04 #@! TO.N,/CHANNEL_3*
X117290400Y-96439400D03*
G04 #@! TO.N,/CHANNEL_2*
X116752000Y-97040700D03*
G04 #@! TO.N,/CHANNEL_0*
X116878400Y-99650300D03*
G04 #@! TD*
D25*
G04 #@! TO.N,GND*
X115628000Y-83420000D02*
X119901400Y-83420000D01*
X121519600Y-85199500D02*
X119901400Y-83581300D01*
X119901400Y-83581300D02*
X119901400Y-83420000D01*
X121519600Y-85199500D02*
X119899600Y-86819500D01*
X119899600Y-86819500D02*
X119899600Y-88900000D01*
X124148000Y-84790000D02*
X121929100Y-84790000D01*
X121929100Y-84790000D02*
X121519600Y-85199500D01*
X124041300Y-83586900D02*
X124148000Y-83693600D01*
X124148000Y-83693600D02*
X124148000Y-84790000D01*
X137160000Y-76174600D02*
X131253700Y-76174600D01*
X131253700Y-76174600D02*
X124041300Y-83387000D01*
X124041300Y-83387000D02*
X124041300Y-83586900D01*
X137160000Y-77470000D02*
X137160000Y-76174600D01*
X119899600Y-88900000D02*
X119901400Y-88900000D01*
X115628000Y-88900000D02*
X119899600Y-88900000D01*
X119901400Y-88900000D02*
X119901400Y-88901800D01*
X119901400Y-88901800D02*
X121269600Y-90270000D01*
X121269600Y-90270000D02*
X124148000Y-90270000D01*
X115628000Y-94380000D02*
X117851000Y-94380000D01*
X117851000Y-94380000D02*
X119876400Y-92354600D01*
X119876400Y-92354600D02*
X119876400Y-91663200D01*
X119876400Y-91663200D02*
X121269600Y-90270000D01*
X90805000Y-71120000D02*
X90805000Y-72923400D01*
X90805000Y-72923400D02*
X89519600Y-72923400D01*
X89519600Y-72923400D02*
X87242800Y-75200200D01*
X87242800Y-75200200D02*
X87242800Y-87062100D01*
G04 #@! TO.N,VAA*
X146370000Y-77433200D02*
X144196600Y-75259800D01*
X144196600Y-75259800D02*
X130772200Y-75259800D01*
X130772200Y-75259800D02*
X127333600Y-78698400D01*
X127333600Y-78698400D02*
X108477700Y-78698400D01*
D26*
X146370000Y-77433200D02*
X146370000Y-77150000D01*
X146370000Y-77150000D02*
X149362000Y-74157800D01*
X149362000Y-74157800D02*
X150246000Y-73273900D01*
X146370000Y-84700000D02*
X146370000Y-77433200D01*
D25*
X101105400Y-83420000D02*
X105827000Y-78698400D01*
X105827000Y-78698400D02*
X108477700Y-78698400D01*
X96832000Y-83420000D02*
X101105400Y-83420000D01*
X105352000Y-87530000D02*
X98202000Y-87530000D01*
X98202000Y-87530000D02*
X96832000Y-88900000D01*
X150246000Y-73273900D02*
X149362200Y-74157700D01*
X149362200Y-74157700D02*
X149362200Y-74157800D01*
D26*
X150246000Y-73273900D02*
X151130000Y-72390000D01*
D25*
X96832000Y-94380000D02*
X92558600Y-94380000D01*
X92558600Y-94380000D02*
X92558600Y-88900000D01*
X105352000Y-93010000D02*
X103982000Y-94380000D01*
X103982000Y-94380000D02*
X96832000Y-94380000D01*
X96832000Y-88900000D02*
X92558600Y-88900000D01*
X96832000Y-83420000D02*
X92558600Y-83420000D01*
X92558600Y-83420000D02*
X92558600Y-88900000D01*
D26*
X146370000Y-88900000D02*
X146370000Y-93100000D01*
X146370000Y-84700000D02*
X146370000Y-88900000D01*
X149362200Y-107177800D02*
X151130000Y-105410000D01*
D25*
X146370000Y-93100000D02*
X146370000Y-94930000D01*
X146370000Y-94930000D02*
X144780000Y-96520000D01*
D26*
X146370000Y-93100000D02*
X147075000Y-93100000D01*
X147075000Y-93100000D02*
X149860000Y-95885000D01*
X149860000Y-95885000D02*
X149860000Y-99695000D01*
X149860000Y-99695000D02*
X146697000Y-102858000D01*
X146697000Y-102858000D02*
X146697000Y-104512000D01*
X146697000Y-104512000D02*
X149362000Y-107178000D01*
X149362000Y-107178000D02*
X149362200Y-107177800D01*
D25*
G04 #@! TO.N,/backlight_3x2/high_power_outputs/OUTPUT_0*
X96832000Y-86160000D02*
X110533200Y-86160000D01*
X110533200Y-86160000D02*
X111389400Y-87016200D01*
G04 #@! TO.N,/backlight_3x2/high_power_outputs/OUTPUT_1*
X96832000Y-91640000D02*
X101105400Y-91640000D01*
X101105400Y-91640000D02*
X101406600Y-91338800D01*
X101406600Y-91338800D02*
X101540100Y-91338800D01*
G04 #@! TO.N,/backlight_3x2/high_power_outputs/OUTPUT_2*
X105352000Y-84790000D02*
X100818100Y-84790000D01*
G04 #@! TO.N,/backlight_3x2/high_power_outputs/OUTPUT_3*
X105352000Y-90270000D02*
X97098200Y-90270000D01*
D27*
G04 #@! TO.N,/backlight_3x2/low_power_outputs/OUTPUT_3*
X124148000Y-87530000D02*
X128142000Y-87530000D01*
X128142000Y-87530000D02*
X128142000Y-84816300D01*
X128142000Y-84816300D02*
X131435700Y-81522600D01*
X131435700Y-81522600D02*
X132984400Y-81522600D01*
G04 #@! TO.N,/backlight_3x2/low_power_outputs/OUTPUT_2*
X124148000Y-93010000D02*
X128142000Y-93010000D01*
X128142000Y-93010000D02*
X128726800Y-92425200D01*
X128726800Y-92425200D02*
X128726800Y-86772100D01*
X128726800Y-86772100D02*
X131904900Y-83594000D01*
X131904900Y-83594000D02*
X133013900Y-83594000D01*
G04 #@! TO.N,/backlight_3x2/low_power_outputs/OUTPUT_1*
X115628000Y-86160000D02*
X113789900Y-86160000D01*
X113789900Y-86160000D02*
X111235100Y-88714800D01*
X111235100Y-88714800D02*
X111235100Y-95187600D01*
X111235100Y-95187600D02*
X111512500Y-95465000D01*
X111512500Y-95465000D02*
X126785200Y-95465000D01*
X126785200Y-95465000D02*
X130041600Y-92208600D01*
X130041600Y-92208600D02*
X130041600Y-90542200D01*
X130041600Y-90542200D02*
X131408800Y-89175000D01*
X131408800Y-89175000D02*
X132814100Y-89175000D01*
X132814100Y-89175000D02*
X134729500Y-91090400D01*
X134729500Y-91090400D02*
X134729500Y-100833800D01*
G04 #@! TO.N,/backlight_3x2/low_power_outputs/OUTPUT_0*
X111634000Y-91640000D02*
X111634000Y-95006500D01*
X111634000Y-95006500D02*
X111736500Y-95109000D01*
X111736500Y-95109000D02*
X126637700Y-95109000D01*
X126637700Y-95109000D02*
X129399500Y-92347200D01*
X129399500Y-92347200D02*
X129399500Y-90608500D01*
X129399500Y-90608500D02*
X131189000Y-88819000D01*
X131189000Y-88819000D02*
X132961600Y-88819000D01*
X132961600Y-88819000D02*
X135310400Y-91167800D01*
X135310400Y-91167800D02*
X135310400Y-103307600D01*
X135310400Y-103307600D02*
X137277400Y-105274600D01*
X115628000Y-91640000D02*
X111634000Y-91640000D01*
D28*
G04 #@! TO.N,/backlight_3x2/C_9*
X132080000Y-100330000D02*
X130835400Y-100330000D01*
X126361400Y-99986300D02*
X130491700Y-99986300D01*
X130491700Y-99986300D02*
X130835400Y-100330000D01*
X132080000Y-101320600D02*
X138973500Y-108214100D01*
X138973500Y-108214100D02*
X150382900Y-108214100D01*
X150382900Y-108214100D02*
X151419200Y-107177800D01*
X132080000Y-100330000D02*
X132080000Y-101320600D01*
X152897800Y-107177800D02*
X151419200Y-107177800D01*
G04 #@! TO.N,/backlight_3x2/C_0*
X130835400Y-97790000D02*
X129776200Y-98849200D01*
X129776200Y-98849200D02*
X114125600Y-98849200D01*
X132080000Y-97790000D02*
X130835400Y-97790000D01*
G04 #@! TO.N,/backlight_3x2/C_1*
X132080000Y-96240600D02*
X131089400Y-96240600D01*
X131089400Y-96240600D02*
X129113400Y-98216600D01*
X129113400Y-98216600D02*
X107105700Y-98216600D01*
X107105700Y-98216600D02*
X106930500Y-98391800D01*
X132080000Y-95250000D02*
X132080000Y-96240600D01*
G04 #@! TO.N,/backlight_3x2/C_2*
X132080000Y-92710000D02*
X132080000Y-93700600D01*
X132080000Y-93700600D02*
X131089400Y-93700600D01*
X131089400Y-93700600D02*
X126919300Y-97870700D01*
X126919300Y-97870700D02*
X100414800Y-97870700D01*
X100414800Y-97870700D02*
X99615800Y-98669700D01*
G04 #@! TO.N,/backlight_3x2/C_3*
X132080000Y-91160600D02*
X131631200Y-91160600D01*
X131631200Y-91160600D02*
X125227800Y-97564000D01*
X125227800Y-97564000D02*
X95204300Y-97564000D01*
X95204300Y-97564000D02*
X94690400Y-98077900D01*
X132080000Y-90170000D02*
X132080000Y-91160600D01*
G04 #@! TO.N,/backlight_3x2/C_5*
X132080000Y-85090000D02*
X132080000Y-86080600D01*
X132080000Y-86080600D02*
X132203800Y-86080600D01*
X132203800Y-86080600D02*
X135856800Y-89733600D01*
X135856800Y-89733600D02*
X135856800Y-102733900D01*
G04 #@! TO.N,/CHANNEL_3*
X108585000Y-72618600D02*
X109063900Y-72618600D01*
X109063900Y-72618600D02*
X109295600Y-72850300D01*
X109295600Y-72850300D02*
X109295600Y-76506100D01*
X109295600Y-76506100D02*
X107751400Y-78050300D01*
X107751400Y-78050300D02*
X97015000Y-78050300D01*
X97015000Y-78050300D02*
X91941700Y-83123600D01*
X91941700Y-83123600D02*
X91941700Y-94629000D01*
X91941700Y-94629000D02*
X93752100Y-96439400D01*
X93752100Y-96439400D02*
X117290400Y-96439400D01*
X108585000Y-71120000D02*
X108585000Y-72618600D01*
G04 #@! TO.N,/CHANNEL_2*
X104889300Y-71120000D02*
X104889300Y-71736300D01*
X104889300Y-71736300D02*
X103829200Y-72796400D01*
X103829200Y-72796400D02*
X92988400Y-72796400D01*
X92988400Y-72796400D02*
X92380200Y-73404600D01*
X92380200Y-73404600D02*
X92380200Y-78357100D01*
X92380200Y-78357100D02*
X91612800Y-79124500D01*
X91612800Y-79124500D02*
X91612800Y-94789500D01*
X91612800Y-94789500D02*
X93864000Y-97040700D01*
X93864000Y-97040700D02*
X116752000Y-97040700D01*
X106045000Y-71120000D02*
X104889300Y-71120000D01*
G04 #@! TO.N,/CHANNEL_0*
X99809300Y-71120000D02*
X99809300Y-70542200D01*
X99809300Y-70542200D02*
X98884900Y-69617800D01*
X98884900Y-69617800D02*
X92858800Y-69617800D01*
X92858800Y-69617800D02*
X92075000Y-70401600D01*
X92075000Y-70401600D02*
X92075000Y-78015100D01*
X92075000Y-78015100D02*
X91307700Y-78782400D01*
X91307700Y-78782400D02*
X91307700Y-95432000D01*
X91307700Y-95432000D02*
X95526000Y-99650300D01*
X95526000Y-99650300D02*
X116878400Y-99650300D01*
X100965000Y-71120000D02*
X99809300Y-71120000D01*
G04 #@! TD*
D27*
G04 #@! TO.N,VAA*
G36*
X155765501Y-83669880D02*
X155645448Y-83380048D01*
X154989952Y-82724552D01*
X154133506Y-82369800D01*
X153206494Y-82369800D01*
X152350048Y-82724552D01*
X151694552Y-83380048D01*
X151339800Y-84236494D01*
X151339800Y-85163506D01*
X151694552Y-86019952D01*
X152350048Y-86675448D01*
X153206494Y-87030200D01*
X154133506Y-87030200D01*
X154989952Y-86675448D01*
X155645448Y-86019952D01*
X155765501Y-85730120D01*
X155765500Y-92069880D01*
X155645448Y-91780048D01*
X154989952Y-91124552D01*
X154133506Y-90769800D01*
X153206494Y-90769800D01*
X152350048Y-91124552D01*
X151694552Y-91780048D01*
X151339800Y-92636494D01*
X151339800Y-93563506D01*
X151694552Y-94419952D01*
X152350048Y-95075448D01*
X153206494Y-95430200D01*
X154133506Y-95430200D01*
X154989952Y-95075448D01*
X155645448Y-94419952D01*
X155765500Y-94130120D01*
X155765500Y-109410500D01*
X86169500Y-109410500D01*
X86169500Y-106213272D01*
X87007700Y-106213272D01*
X87007700Y-107146729D01*
X87080650Y-107513474D01*
X87358539Y-107929362D01*
X87774427Y-108207250D01*
X88265000Y-108304831D01*
X88755574Y-108207250D01*
X89171462Y-107929362D01*
X89449350Y-107513474D01*
X89522300Y-107146728D01*
X89522300Y-106213272D01*
X89547700Y-106213272D01*
X89547700Y-107146729D01*
X89620650Y-107513474D01*
X89898539Y-107929362D01*
X90314427Y-108207250D01*
X90805000Y-108304831D01*
X91295574Y-108207250D01*
X91711462Y-107929362D01*
X91989350Y-107513474D01*
X92062300Y-107146728D01*
X92062300Y-106213271D01*
X91989350Y-105846526D01*
X91711462Y-105430638D01*
X91295573Y-105152750D01*
X90805000Y-105055169D01*
X90314426Y-105152750D01*
X89898538Y-105430638D01*
X89620650Y-105846527D01*
X89547700Y-106213272D01*
X89522300Y-106213272D01*
X89522300Y-106213271D01*
X89449350Y-105846526D01*
X89171462Y-105430638D01*
X88755573Y-105152750D01*
X88265000Y-105055169D01*
X87774426Y-105152750D01*
X87358538Y-105430638D01*
X87080650Y-105846527D01*
X87007700Y-106213272D01*
X86169500Y-106213272D01*
X86169500Y-101180653D01*
X87426800Y-101180653D01*
X87426800Y-102019347D01*
X87747754Y-102794199D01*
X88340801Y-103387246D01*
X89115653Y-103708200D01*
X89954347Y-103708200D01*
X90729199Y-103387246D01*
X91322246Y-102794199D01*
X91643200Y-102019347D01*
X91643200Y-101180653D01*
X91322246Y-100405801D01*
X90729199Y-99812754D01*
X89954347Y-99491800D01*
X89115653Y-99491800D01*
X88340801Y-99812754D01*
X87747754Y-100405801D01*
X87426800Y-101180653D01*
X86169500Y-101180653D01*
X86169500Y-86908003D01*
X86468100Y-86908003D01*
X86468100Y-87216197D01*
X86586041Y-87500932D01*
X86803968Y-87718859D01*
X87088703Y-87836800D01*
X87396897Y-87836800D01*
X87681632Y-87718859D01*
X87899559Y-87500932D01*
X88017500Y-87216197D01*
X88017500Y-86908003D01*
X87979400Y-86816021D01*
X87979400Y-77625845D01*
X88340801Y-77987246D01*
X89115653Y-78308200D01*
X89954347Y-78308200D01*
X90729199Y-77987246D01*
X91322246Y-77394199D01*
X91643200Y-76619347D01*
X91643200Y-75780653D01*
X91322246Y-75005801D01*
X90729199Y-74412754D01*
X89954347Y-74091800D01*
X89392909Y-74091800D01*
X89824709Y-73660000D01*
X90732456Y-73660000D01*
X90805000Y-73674430D01*
X90877544Y-73660000D01*
X91092407Y-73617261D01*
X91336058Y-73454458D01*
X91498861Y-73210807D01*
X91556030Y-72923400D01*
X91541600Y-72850856D01*
X91541600Y-72482860D01*
X91643200Y-72414973D01*
X91643201Y-77836241D01*
X91032442Y-78447001D01*
X90996390Y-78471090D01*
X90900954Y-78613921D01*
X90875900Y-78739875D01*
X90875900Y-78739878D01*
X90867442Y-78782400D01*
X90875900Y-78824922D01*
X90875901Y-95389473D01*
X90867442Y-95432000D01*
X90900954Y-95600479D01*
X90972301Y-95707258D01*
X90972303Y-95707260D01*
X90996391Y-95743310D01*
X91032441Y-95767398D01*
X95190602Y-99925560D01*
X95214690Y-99961610D01*
X95250740Y-99985698D01*
X95250741Y-99985699D01*
X95297874Y-100017192D01*
X95357520Y-100057046D01*
X95483474Y-100082100D01*
X95483477Y-100082100D01*
X95525999Y-100090558D01*
X95568521Y-100082100D01*
X97436400Y-100082100D01*
X97181857Y-100187535D01*
X96779535Y-100589857D01*
X96583416Y-101063331D01*
X93092000Y-101063331D01*
X92963162Y-101088958D01*
X92853939Y-101161939D01*
X92780958Y-101271162D01*
X92755331Y-101400000D01*
X92755331Y-104800000D01*
X92780958Y-104928838D01*
X92853939Y-105038061D01*
X92963162Y-105111042D01*
X93013635Y-105121081D01*
X92854426Y-105152750D01*
X92438538Y-105430638D01*
X92160650Y-105846527D01*
X92087700Y-106213272D01*
X92087700Y-107146729D01*
X92160650Y-107513474D01*
X92438539Y-107929362D01*
X92854427Y-108207250D01*
X93345000Y-108304831D01*
X93835574Y-108207250D01*
X94251462Y-107929362D01*
X94529350Y-107513474D01*
X94602300Y-107146728D01*
X94602300Y-106213271D01*
X94529350Y-105846526D01*
X94251462Y-105430638D01*
X93835573Y-105152750D01*
X93754728Y-105136669D01*
X95475271Y-105136669D01*
X95394426Y-105152750D01*
X94978538Y-105430638D01*
X94700650Y-105846527D01*
X94627700Y-106213272D01*
X94627700Y-107146729D01*
X94700650Y-107513474D01*
X94978539Y-107929362D01*
X95394427Y-108207250D01*
X95885000Y-108304831D01*
X96375574Y-108207250D01*
X96791462Y-107929362D01*
X97069350Y-107513474D01*
X97142300Y-107146728D01*
X97142300Y-106213271D01*
X97069350Y-105846526D01*
X96791462Y-105430638D01*
X96375573Y-105152750D01*
X96294728Y-105136669D01*
X98015271Y-105136669D01*
X97934426Y-105152750D01*
X97518538Y-105430638D01*
X97240650Y-105846527D01*
X97167700Y-106213272D01*
X97167700Y-107146729D01*
X97240650Y-107513474D01*
X97518539Y-107929362D01*
X97934427Y-108207250D01*
X98425000Y-108304831D01*
X98915574Y-108207250D01*
X99331462Y-107929362D01*
X99609350Y-107513474D01*
X99682300Y-107146728D01*
X99682300Y-106213271D01*
X99609350Y-105846526D01*
X99331462Y-105430638D01*
X98915573Y-105152750D01*
X98834728Y-105136669D01*
X100555271Y-105136669D01*
X100474426Y-105152750D01*
X100058538Y-105430638D01*
X99780650Y-105846527D01*
X99707700Y-106213272D01*
X99707700Y-107146729D01*
X99780650Y-107513474D01*
X100058539Y-107929362D01*
X100474427Y-108207250D01*
X100965000Y-108304831D01*
X101455574Y-108207250D01*
X101871462Y-107929362D01*
X102149350Y-107513474D01*
X102222300Y-107146728D01*
X102222300Y-106213271D01*
X102149350Y-105846526D01*
X101871462Y-105430638D01*
X101455573Y-105152750D01*
X101374728Y-105136669D01*
X103095271Y-105136669D01*
X103014426Y-105152750D01*
X102598538Y-105430638D01*
X102320650Y-105846527D01*
X102247700Y-106213272D01*
X102247700Y-107146729D01*
X102320650Y-107513474D01*
X102598539Y-107929362D01*
X103014427Y-108207250D01*
X103505000Y-108304831D01*
X103995574Y-108207250D01*
X104411462Y-107929362D01*
X104689350Y-107513474D01*
X104762300Y-107146728D01*
X104762300Y-106213271D01*
X104689350Y-105846526D01*
X104411462Y-105430638D01*
X103995573Y-105152750D01*
X103914728Y-105136669D01*
X105635271Y-105136669D01*
X105554426Y-105152750D01*
X105138538Y-105430638D01*
X104860650Y-105846527D01*
X104787700Y-106213272D01*
X104787700Y-107146729D01*
X104860650Y-107513474D01*
X105138539Y-107929362D01*
X105554427Y-108207250D01*
X106045000Y-108304831D01*
X106535574Y-108207250D01*
X106951462Y-107929362D01*
X107229350Y-107513474D01*
X107302300Y-107146728D01*
X107302300Y-106213271D01*
X107229350Y-105846526D01*
X106951462Y-105430638D01*
X106535573Y-105152750D01*
X106454728Y-105136669D01*
X108175271Y-105136669D01*
X108094426Y-105152750D01*
X107678538Y-105430638D01*
X107400650Y-105846527D01*
X107327700Y-106213272D01*
X107327700Y-107146729D01*
X107400650Y-107513474D01*
X107678539Y-107929362D01*
X108094427Y-108207250D01*
X108585000Y-108304831D01*
X109075574Y-108207250D01*
X109491462Y-107929362D01*
X109769350Y-107513474D01*
X109842300Y-107146728D01*
X109842300Y-106213272D01*
X109867700Y-106213272D01*
X109867700Y-107146729D01*
X109940650Y-107513474D01*
X110218539Y-107929362D01*
X110634427Y-108207250D01*
X111125000Y-108304831D01*
X111615574Y-108207250D01*
X112031462Y-107929362D01*
X112309350Y-107513474D01*
X112382300Y-107146728D01*
X112382300Y-106213271D01*
X112309350Y-105846526D01*
X112031462Y-105430638D01*
X111615573Y-105152750D01*
X111125000Y-105055169D01*
X110634426Y-105152750D01*
X110218538Y-105430638D01*
X109940650Y-105846527D01*
X109867700Y-106213272D01*
X109842300Y-106213272D01*
X109842300Y-106213271D01*
X109769350Y-105846526D01*
X109491462Y-105430638D01*
X109075573Y-105152750D01*
X108994728Y-105136669D01*
X109092000Y-105136669D01*
X109220838Y-105111042D01*
X109330061Y-105038061D01*
X109403042Y-104928838D01*
X109428669Y-104800000D01*
X109428669Y-101400000D01*
X109403042Y-101271162D01*
X109330061Y-101161939D01*
X109220838Y-101088958D01*
X109092000Y-101063331D01*
X99400584Y-101063331D01*
X99204465Y-100589857D01*
X98802143Y-100187535D01*
X98547600Y-100082100D01*
X116232400Y-100082100D01*
X115977857Y-100187535D01*
X115575535Y-100589857D01*
X115379416Y-101063331D01*
X111888000Y-101063331D01*
X111759162Y-101088958D01*
X111649939Y-101161939D01*
X111576958Y-101271162D01*
X111551331Y-101400000D01*
X111551331Y-104800000D01*
X111576958Y-104928838D01*
X111649939Y-105038061D01*
X111759162Y-105111042D01*
X111888000Y-105136669D01*
X113255271Y-105136669D01*
X113174426Y-105152750D01*
X112758538Y-105430638D01*
X112480650Y-105846527D01*
X112407700Y-106213272D01*
X112407700Y-107146729D01*
X112480650Y-107513474D01*
X112758539Y-107929362D01*
X113174427Y-108207250D01*
X113665000Y-108304831D01*
X114155574Y-108207250D01*
X114571462Y-107929362D01*
X114849350Y-107513474D01*
X114922300Y-107146728D01*
X114922300Y-106213271D01*
X114849350Y-105846526D01*
X114571462Y-105430638D01*
X114155573Y-105152750D01*
X114074728Y-105136669D01*
X115795271Y-105136669D01*
X115714426Y-105152750D01*
X115298538Y-105430638D01*
X115020650Y-105846527D01*
X114947700Y-106213272D01*
X114947700Y-107146729D01*
X115020650Y-107513474D01*
X115298539Y-107929362D01*
X115714427Y-108207250D01*
X116205000Y-108304831D01*
X116695574Y-108207250D01*
X117111462Y-107929362D01*
X117389350Y-107513474D01*
X117462300Y-107146728D01*
X117462300Y-106213271D01*
X117389350Y-105846526D01*
X117111462Y-105430638D01*
X116695573Y-105152750D01*
X116614728Y-105136669D01*
X118335271Y-105136669D01*
X118254426Y-105152750D01*
X117838538Y-105430638D01*
X117560650Y-105846527D01*
X117487700Y-106213272D01*
X117487700Y-107146729D01*
X117560650Y-107513474D01*
X117838539Y-107929362D01*
X118254427Y-108207250D01*
X118745000Y-108304831D01*
X119235574Y-108207250D01*
X119651462Y-107929362D01*
X119929350Y-107513474D01*
X120002300Y-107146728D01*
X120002300Y-106213271D01*
X119929350Y-105846526D01*
X119651462Y-105430638D01*
X119235573Y-105152750D01*
X119154728Y-105136669D01*
X120875271Y-105136669D01*
X120794426Y-105152750D01*
X120378538Y-105430638D01*
X120100650Y-105846527D01*
X120027700Y-106213272D01*
X120027700Y-107146729D01*
X120100650Y-107513474D01*
X120378539Y-107929362D01*
X120794427Y-108207250D01*
X121285000Y-108304831D01*
X121775574Y-108207250D01*
X122191462Y-107929362D01*
X122469350Y-107513474D01*
X122542300Y-107146728D01*
X122542300Y-106213271D01*
X122469350Y-105846526D01*
X122191462Y-105430638D01*
X121775573Y-105152750D01*
X121694728Y-105136669D01*
X123415271Y-105136669D01*
X123334426Y-105152750D01*
X122918538Y-105430638D01*
X122640650Y-105846527D01*
X122567700Y-106213272D01*
X122567700Y-107146729D01*
X122640650Y-107513474D01*
X122918539Y-107929362D01*
X123334427Y-108207250D01*
X123825000Y-108304831D01*
X124315574Y-108207250D01*
X124731462Y-107929362D01*
X125009350Y-107513474D01*
X125082300Y-107146728D01*
X125082300Y-106213271D01*
X125009350Y-105846526D01*
X124731462Y-105430638D01*
X124315573Y-105152750D01*
X124234728Y-105136669D01*
X125955271Y-105136669D01*
X125874426Y-105152750D01*
X125458538Y-105430638D01*
X125180650Y-105846527D01*
X125107700Y-106213272D01*
X125107700Y-107146729D01*
X125180650Y-107513474D01*
X125458539Y-107929362D01*
X125874427Y-108207250D01*
X126365000Y-108304831D01*
X126855574Y-108207250D01*
X127271462Y-107929362D01*
X127549350Y-107513474D01*
X127622300Y-107146728D01*
X127622300Y-106260653D01*
X128066800Y-106260653D01*
X128066800Y-107099347D01*
X128387754Y-107874199D01*
X128980801Y-108467246D01*
X129755653Y-108788200D01*
X130594347Y-108788200D01*
X131369199Y-108467246D01*
X131962246Y-107874199D01*
X132283200Y-107099347D01*
X132283200Y-106260653D01*
X131962246Y-105485801D01*
X131369199Y-104892754D01*
X130594347Y-104571800D01*
X129755653Y-104571800D01*
X128980801Y-104892754D01*
X128387754Y-105485801D01*
X128066800Y-106260653D01*
X127622300Y-106260653D01*
X127622300Y-106213271D01*
X127549350Y-105846526D01*
X127271462Y-105430638D01*
X126855573Y-105152750D01*
X126774728Y-105136669D01*
X127888000Y-105136669D01*
X128016838Y-105111042D01*
X128126061Y-105038061D01*
X128199042Y-104928838D01*
X128224669Y-104800000D01*
X128224669Y-101400000D01*
X128199042Y-101271162D01*
X128126061Y-101161939D01*
X128016838Y-101088958D01*
X127888000Y-101063331D01*
X118196584Y-101063331D01*
X118000465Y-100589857D01*
X117598143Y-100187535D01*
X117357025Y-100087660D01*
X117427493Y-100017192D01*
X117526100Y-99779136D01*
X117526100Y-99521464D01*
X117427493Y-99283408D01*
X117425085Y-99281000D01*
X129733678Y-99281000D01*
X129776200Y-99289458D01*
X129818722Y-99281000D01*
X129818726Y-99281000D01*
X129944680Y-99255946D01*
X130087510Y-99160510D01*
X130111599Y-99124458D01*
X130886385Y-98349673D01*
X131038568Y-98577432D01*
X131399845Y-98818829D01*
X131718431Y-98882200D01*
X132441569Y-98882200D01*
X132760155Y-98818829D01*
X133121432Y-98577432D01*
X133362829Y-98216155D01*
X133447597Y-97790000D01*
X133362829Y-97363845D01*
X133121432Y-97002568D01*
X132760155Y-96761171D01*
X132441569Y-96697800D01*
X131718431Y-96697800D01*
X131399845Y-96761171D01*
X131038568Y-97002568D01*
X130802179Y-97356350D01*
X130792877Y-97358200D01*
X130792874Y-97358200D01*
X130666920Y-97383254D01*
X130560141Y-97454601D01*
X130560140Y-97454602D01*
X130524090Y-97478690D01*
X130500002Y-97514740D01*
X129597343Y-98417400D01*
X129523257Y-98417400D01*
X131268258Y-96672400D01*
X132037474Y-96672400D01*
X132080000Y-96680859D01*
X132248480Y-96647346D01*
X132391310Y-96551910D01*
X132486746Y-96409080D01*
X132502459Y-96330088D01*
X132760155Y-96278829D01*
X133121432Y-96037432D01*
X133362829Y-95676155D01*
X133447597Y-95250000D01*
X133362829Y-94823845D01*
X133121432Y-94462568D01*
X132760155Y-94221171D01*
X132441569Y-94157800D01*
X131718431Y-94157800D01*
X131399845Y-94221171D01*
X131038568Y-94462568D01*
X130797171Y-94823845D01*
X130712403Y-95250000D01*
X130797171Y-95676155D01*
X130908214Y-95842344D01*
X130814141Y-95905201D01*
X130814140Y-95905202D01*
X130778090Y-95929290D01*
X130754002Y-95965340D01*
X128934543Y-97784800D01*
X127615857Y-97784800D01*
X131268258Y-94132400D01*
X132037474Y-94132400D01*
X132080000Y-94140859D01*
X132248480Y-94107346D01*
X132391310Y-94011910D01*
X132486746Y-93869080D01*
X132502459Y-93790088D01*
X132760155Y-93738829D01*
X133121432Y-93497432D01*
X133362829Y-93136155D01*
X133447597Y-92710000D01*
X133362829Y-92283845D01*
X133121432Y-91922568D01*
X132760155Y-91681171D01*
X132441569Y-91617800D01*
X131784658Y-91617800D01*
X131810058Y-91592400D01*
X132037474Y-91592400D01*
X132080000Y-91600859D01*
X132248480Y-91567346D01*
X132391310Y-91471910D01*
X132486746Y-91329080D01*
X132502459Y-91250088D01*
X132760155Y-91198829D01*
X133121432Y-90957432D01*
X133362829Y-90596155D01*
X133400300Y-90407778D01*
X134272300Y-91279778D01*
X134272301Y-100375014D01*
X134180407Y-100466908D01*
X134081800Y-100704964D01*
X134081800Y-100962636D01*
X134180407Y-101200692D01*
X134362608Y-101382893D01*
X134600664Y-101481500D01*
X134853201Y-101481500D01*
X134853201Y-103262565D01*
X134844243Y-103307600D01*
X134879727Y-103485990D01*
X134879728Y-103485991D01*
X134927412Y-103557355D01*
X132734074Y-101364017D01*
X132760155Y-101358829D01*
X133121432Y-101117432D01*
X133362829Y-100756155D01*
X133447597Y-100330000D01*
X133362829Y-99903845D01*
X133121432Y-99542568D01*
X132760155Y-99301171D01*
X132441569Y-99237800D01*
X131718431Y-99237800D01*
X131399845Y-99301171D01*
X131038568Y-99542568D01*
X130886384Y-99770327D01*
X130827100Y-99711043D01*
X130803010Y-99674990D01*
X130660180Y-99579554D01*
X130534226Y-99554500D01*
X130534222Y-99554500D01*
X130491700Y-99546042D01*
X130449178Y-99554500D01*
X126845585Y-99554500D01*
X126728292Y-99437207D01*
X126490236Y-99338600D01*
X126232564Y-99338600D01*
X125994508Y-99437207D01*
X125812307Y-99619408D01*
X125713700Y-99857464D01*
X125713700Y-100115136D01*
X125812307Y-100353192D01*
X125994508Y-100535393D01*
X126232564Y-100634000D01*
X126490236Y-100634000D01*
X126728292Y-100535393D01*
X126845585Y-100418100D01*
X130312843Y-100418100D01*
X130500000Y-100605257D01*
X130524090Y-100641310D01*
X130666920Y-100736746D01*
X130792874Y-100761800D01*
X130792877Y-100761800D01*
X130802179Y-100763650D01*
X131038568Y-101117432D01*
X131399845Y-101358829D01*
X131657542Y-101410088D01*
X131673254Y-101489079D01*
X131744601Y-101595858D01*
X131744603Y-101595860D01*
X131768691Y-101631910D01*
X131804741Y-101655998D01*
X138638100Y-108489357D01*
X138662190Y-108525410D01*
X138805020Y-108620846D01*
X138930974Y-108645900D01*
X138930977Y-108645900D01*
X138973499Y-108654358D01*
X139016021Y-108645900D01*
X150340378Y-108645900D01*
X150382900Y-108654358D01*
X150425422Y-108645900D01*
X150425426Y-108645900D01*
X150551380Y-108620846D01*
X150694210Y-108525410D01*
X150718300Y-108489357D01*
X151471642Y-107736015D01*
X151619019Y-107956581D01*
X151976327Y-108195326D01*
X152291411Y-108258000D01*
X153504189Y-108258000D01*
X153819273Y-108195326D01*
X154176581Y-107956581D01*
X154415326Y-107599273D01*
X154499162Y-107177800D01*
X154415326Y-106756327D01*
X154176581Y-106399019D01*
X153819273Y-106160274D01*
X153504189Y-106097600D01*
X152808839Y-106097600D01*
X152958173Y-105822684D01*
X152972318Y-105751185D01*
X152849656Y-105537000D01*
X151257000Y-105537000D01*
X151257000Y-105557000D01*
X151003000Y-105557000D01*
X151003000Y-105537000D01*
X149410344Y-105537000D01*
X149287682Y-105751185D01*
X149295915Y-105792800D01*
X148735200Y-105792800D01*
X148214851Y-105946828D01*
X147793055Y-106288260D01*
X147534027Y-106765116D01*
X147519882Y-106836615D01*
X147642544Y-107050800D01*
X149235200Y-107050800D01*
X149235200Y-107030800D01*
X149489200Y-107030800D01*
X149489200Y-107050800D01*
X149509200Y-107050800D01*
X149509200Y-107304800D01*
X149489200Y-107304800D01*
X149489200Y-107324800D01*
X149235200Y-107324800D01*
X149235200Y-107304800D01*
X147642544Y-107304800D01*
X147519882Y-107518985D01*
X147534027Y-107590484D01*
X147638221Y-107782300D01*
X139152357Y-107782300D01*
X137292357Y-105922300D01*
X137406236Y-105922300D01*
X137644292Y-105823693D01*
X137826493Y-105641492D01*
X137925100Y-105403436D01*
X137925100Y-105145764D01*
X137883756Y-105045951D01*
X142299800Y-105045951D01*
X142299800Y-105774049D01*
X142578431Y-106446725D01*
X143093275Y-106961569D01*
X143765951Y-107240200D01*
X144494049Y-107240200D01*
X145166725Y-106961569D01*
X145681569Y-106446725D01*
X145960200Y-105774049D01*
X145960200Y-105045951D01*
X145681569Y-104373275D01*
X145166725Y-103858431D01*
X144644697Y-103642200D01*
X147760838Y-103642200D01*
X147844674Y-104063673D01*
X148083419Y-104420981D01*
X148440727Y-104659726D01*
X148755811Y-104722400D01*
X149451161Y-104722400D01*
X149301827Y-104997316D01*
X149287682Y-105068815D01*
X149410344Y-105283000D01*
X151003000Y-105283000D01*
X151003000Y-104025000D01*
X151257000Y-104025000D01*
X151257000Y-105283000D01*
X152849656Y-105283000D01*
X152972318Y-105068815D01*
X152958173Y-104997316D01*
X152808839Y-104722400D01*
X153504189Y-104722400D01*
X153819273Y-104659726D01*
X154176581Y-104420981D01*
X154415326Y-104063673D01*
X154499162Y-103642200D01*
X154415326Y-103220727D01*
X154176581Y-102863419D01*
X153819273Y-102624674D01*
X153504189Y-102562000D01*
X152291411Y-102562000D01*
X151976327Y-102624674D01*
X151619019Y-102863419D01*
X151380274Y-103220727D01*
X151296438Y-103642200D01*
X151372581Y-104025000D01*
X151257000Y-104025000D01*
X151003000Y-104025000D01*
X150887419Y-104025000D01*
X150963562Y-103642200D01*
X150879726Y-103220727D01*
X150640981Y-102863419D01*
X150283673Y-102624674D01*
X149968589Y-102562000D01*
X148755811Y-102562000D01*
X148440727Y-102624674D01*
X148083419Y-102863419D01*
X147844674Y-103220727D01*
X147760838Y-103642200D01*
X144644697Y-103642200D01*
X144494049Y-103579800D01*
X143765951Y-103579800D01*
X143093275Y-103858431D01*
X142578431Y-104373275D01*
X142299800Y-105045951D01*
X137883756Y-105045951D01*
X137826493Y-104907708D01*
X137644292Y-104725507D01*
X137406236Y-104626900D01*
X137276279Y-104626900D01*
X136017698Y-103368319D01*
X136223692Y-103282993D01*
X136405893Y-103100792D01*
X136504500Y-102862736D01*
X136504500Y-102605064D01*
X136405893Y-102367008D01*
X136288600Y-102249715D01*
X136288600Y-101231043D01*
X136479845Y-101358829D01*
X136798431Y-101422200D01*
X137521569Y-101422200D01*
X137840155Y-101358829D01*
X138201432Y-101117432D01*
X138442829Y-100756155D01*
X138527597Y-100330000D01*
X138442829Y-99903845D01*
X138201432Y-99542568D01*
X137840155Y-99301171D01*
X137521569Y-99237800D01*
X136798431Y-99237800D01*
X136479845Y-99301171D01*
X136288600Y-99428957D01*
X136288600Y-98691043D01*
X136479845Y-98818829D01*
X136798431Y-98882200D01*
X137521569Y-98882200D01*
X137840155Y-98818829D01*
X138201432Y-98577432D01*
X138442829Y-98216155D01*
X138527597Y-97790000D01*
X138442829Y-97363845D01*
X138201432Y-97002568D01*
X137840155Y-96761171D01*
X137521569Y-96697800D01*
X136798431Y-96697800D01*
X136479845Y-96761171D01*
X136288600Y-96888957D01*
X136288600Y-96520000D01*
X138332403Y-96520000D01*
X138417171Y-96946155D01*
X138658568Y-97307432D01*
X139019845Y-97548829D01*
X139338431Y-97612200D01*
X140061569Y-97612200D01*
X140380155Y-97548829D01*
X140741432Y-97307432D01*
X140982829Y-96946155D01*
X140999355Y-96863070D01*
X143171780Y-96863070D01*
X143186740Y-96937277D01*
X143448370Y-97418026D01*
X143874059Y-97762059D01*
X144399000Y-97917000D01*
X144653000Y-97917000D01*
X144653000Y-96647000D01*
X144907000Y-96647000D01*
X144907000Y-97917000D01*
X145161000Y-97917000D01*
X145685941Y-97762059D01*
X146111630Y-97418026D01*
X146373260Y-96937277D01*
X146388220Y-96863070D01*
X146265720Y-96647000D01*
X144907000Y-96647000D01*
X144653000Y-96647000D01*
X143294280Y-96647000D01*
X143171780Y-96863070D01*
X140999355Y-96863070D01*
X141067597Y-96520000D01*
X140999356Y-96176930D01*
X143171780Y-96176930D01*
X143294280Y-96393000D01*
X144653000Y-96393000D01*
X144653000Y-95123000D01*
X144907000Y-95123000D01*
X144907000Y-96393000D01*
X146265720Y-96393000D01*
X146388220Y-96176930D01*
X146373260Y-96102723D01*
X146111630Y-95621974D01*
X145685941Y-95277941D01*
X145161000Y-95123000D01*
X144907000Y-95123000D01*
X144653000Y-95123000D01*
X144399000Y-95123000D01*
X143874059Y-95277941D01*
X143448370Y-95621974D01*
X143186740Y-96102723D01*
X143171780Y-96176930D01*
X140999356Y-96176930D01*
X140982829Y-96093845D01*
X140741432Y-95732568D01*
X140380155Y-95491171D01*
X140061569Y-95427800D01*
X139338431Y-95427800D01*
X139019845Y-95491171D01*
X138658568Y-95732568D01*
X138417171Y-96093845D01*
X138332403Y-96520000D01*
X136288600Y-96520000D01*
X136288600Y-96151043D01*
X136479845Y-96278829D01*
X136798431Y-96342200D01*
X137521569Y-96342200D01*
X137840155Y-96278829D01*
X138201432Y-96037432D01*
X138442829Y-95676155D01*
X138527597Y-95250000D01*
X138442829Y-94823845D01*
X138201432Y-94462568D01*
X137840155Y-94221171D01*
X137521569Y-94157800D01*
X136798431Y-94157800D01*
X136479845Y-94221171D01*
X136288600Y-94348957D01*
X136288600Y-93611043D01*
X136479845Y-93738829D01*
X136798431Y-93802200D01*
X137521569Y-93802200D01*
X137840155Y-93738829D01*
X138201432Y-93497432D01*
X138442829Y-93136155D01*
X138450020Y-93100000D01*
X138503945Y-93100000D01*
X138645990Y-93814108D01*
X139050500Y-94419500D01*
X139655892Y-94824010D01*
X140189745Y-94930200D01*
X141550255Y-94930200D01*
X142084108Y-94824010D01*
X142689500Y-94419500D01*
X143094010Y-93814108D01*
X143144787Y-93558833D01*
X143784887Y-93558833D01*
X143848916Y-93799696D01*
X144270524Y-94519870D01*
X144935638Y-95023882D01*
X145743000Y-95235000D01*
X146243000Y-95235000D01*
X146243000Y-93227000D01*
X146497000Y-93227000D01*
X146497000Y-95235000D01*
X146997000Y-95235000D01*
X147804362Y-95023882D01*
X148469476Y-94519870D01*
X148891084Y-93799696D01*
X148955113Y-93558833D01*
X148842165Y-93227000D01*
X146497000Y-93227000D01*
X146243000Y-93227000D01*
X143897835Y-93227000D01*
X143784887Y-93558833D01*
X143144787Y-93558833D01*
X143236055Y-93100000D01*
X143094010Y-92385892D01*
X142689500Y-91780500D01*
X142084108Y-91375990D01*
X141550255Y-91269800D01*
X140189745Y-91269800D01*
X139655892Y-91375990D01*
X139050500Y-91780500D01*
X138645990Y-92385892D01*
X138503945Y-93100000D01*
X138450020Y-93100000D01*
X138527597Y-92710000D01*
X138442829Y-92283845D01*
X138201432Y-91922568D01*
X137840155Y-91681171D01*
X137521569Y-91617800D01*
X136798431Y-91617800D01*
X136479845Y-91681171D01*
X136288600Y-91808957D01*
X136288600Y-91071043D01*
X136479845Y-91198829D01*
X136798431Y-91262200D01*
X137521569Y-91262200D01*
X137840155Y-91198829D01*
X138201432Y-90957432D01*
X138442829Y-90596155D01*
X138527597Y-90170000D01*
X138442829Y-89743845D01*
X138201432Y-89382568D01*
X137840155Y-89141171D01*
X137521569Y-89077800D01*
X136798431Y-89077800D01*
X136479845Y-89141171D01*
X136118568Y-89382568D01*
X136117710Y-89383852D01*
X135633858Y-88900000D01*
X138503945Y-88900000D01*
X138645990Y-89614108D01*
X139050500Y-90219500D01*
X139655892Y-90624010D01*
X140189745Y-90730200D01*
X141550255Y-90730200D01*
X142084108Y-90624010D01*
X142689500Y-90219500D01*
X143094010Y-89614108D01*
X143144787Y-89358833D01*
X143784887Y-89358833D01*
X143848916Y-89599696D01*
X144270524Y-90319870D01*
X144935638Y-90823882D01*
X145609152Y-91000000D01*
X144935638Y-91176118D01*
X144270524Y-91680130D01*
X143848916Y-92400304D01*
X143784887Y-92641167D01*
X143897835Y-92973000D01*
X146243000Y-92973000D01*
X146243000Y-89027000D01*
X146497000Y-89027000D01*
X146497000Y-92973000D01*
X148842165Y-92973000D01*
X148955113Y-92641167D01*
X148891084Y-92400304D01*
X148469476Y-91680130D01*
X147804362Y-91176118D01*
X147130848Y-91000000D01*
X147804362Y-90823882D01*
X148469476Y-90319870D01*
X148891084Y-89599696D01*
X148955113Y-89358833D01*
X148842165Y-89027000D01*
X146497000Y-89027000D01*
X146243000Y-89027000D01*
X143897835Y-89027000D01*
X143784887Y-89358833D01*
X143144787Y-89358833D01*
X143236055Y-88900000D01*
X143094010Y-88185892D01*
X142689500Y-87580500D01*
X142084108Y-87175990D01*
X141550255Y-87069800D01*
X140189745Y-87069800D01*
X139655892Y-87175990D01*
X139050500Y-87580500D01*
X138645990Y-88185892D01*
X138503945Y-88900000D01*
X135633858Y-88900000D01*
X134363858Y-87630000D01*
X135792403Y-87630000D01*
X135877171Y-88056155D01*
X136118568Y-88417432D01*
X136479845Y-88658829D01*
X136798431Y-88722200D01*
X137521569Y-88722200D01*
X137840155Y-88658829D01*
X138201432Y-88417432D01*
X138442829Y-88056155D01*
X138527597Y-87630000D01*
X138442829Y-87203845D01*
X138201432Y-86842568D01*
X137840155Y-86601171D01*
X137521569Y-86537800D01*
X136798431Y-86537800D01*
X136479845Y-86601171D01*
X136118568Y-86842568D01*
X135877171Y-87203845D01*
X135792403Y-87630000D01*
X134363858Y-87630000D01*
X132815623Y-86081766D01*
X133121432Y-85877432D01*
X133362829Y-85516155D01*
X133447597Y-85090000D01*
X135792403Y-85090000D01*
X135877171Y-85516155D01*
X136118568Y-85877432D01*
X136479845Y-86118829D01*
X136798431Y-86182200D01*
X137521569Y-86182200D01*
X137840155Y-86118829D01*
X138201432Y-85877432D01*
X138442829Y-85516155D01*
X138527597Y-85090000D01*
X138450021Y-84700000D01*
X138503945Y-84700000D01*
X138645990Y-85414108D01*
X139050500Y-86019500D01*
X139655892Y-86424010D01*
X140189745Y-86530200D01*
X141550255Y-86530200D01*
X142084108Y-86424010D01*
X142689500Y-86019500D01*
X143094010Y-85414108D01*
X143179215Y-84985750D01*
X143735000Y-84985750D01*
X143735000Y-86326309D01*
X143831673Y-86559698D01*
X144010301Y-86738327D01*
X144243690Y-86835000D01*
X145475304Y-86835000D01*
X144935638Y-86976118D01*
X144270524Y-87480130D01*
X143848916Y-88200304D01*
X143784887Y-88441167D01*
X143897835Y-88773000D01*
X146243000Y-88773000D01*
X146243000Y-86765000D01*
X146154250Y-86765000D01*
X146243000Y-86676250D01*
X146243000Y-84827000D01*
X146497000Y-84827000D01*
X146497000Y-86676250D01*
X146585750Y-86765000D01*
X146497000Y-86765000D01*
X146497000Y-88773000D01*
X148842165Y-88773000D01*
X148955113Y-88441167D01*
X148891084Y-88200304D01*
X148469476Y-87480130D01*
X147804362Y-86976118D01*
X147264696Y-86835000D01*
X148496310Y-86835000D01*
X148729699Y-86738327D01*
X148908327Y-86559698D01*
X149005000Y-86326309D01*
X149005000Y-84985750D01*
X148846250Y-84827000D01*
X146497000Y-84827000D01*
X146243000Y-84827000D01*
X143893750Y-84827000D01*
X143735000Y-84985750D01*
X143179215Y-84985750D01*
X143236055Y-84700000D01*
X143094010Y-83985892D01*
X142689500Y-83380500D01*
X142230328Y-83073691D01*
X143735000Y-83073691D01*
X143735000Y-84414250D01*
X143893750Y-84573000D01*
X146243000Y-84573000D01*
X146243000Y-82723750D01*
X146497000Y-82723750D01*
X146497000Y-84573000D01*
X148846250Y-84573000D01*
X149005000Y-84414250D01*
X149005000Y-83073691D01*
X148908327Y-82840302D01*
X148729699Y-82661673D01*
X148496310Y-82565000D01*
X146655750Y-82565000D01*
X146497000Y-82723750D01*
X146243000Y-82723750D01*
X146084250Y-82565000D01*
X144243690Y-82565000D01*
X144010301Y-82661673D01*
X143831673Y-82840302D01*
X143735000Y-83073691D01*
X142230328Y-83073691D01*
X142084108Y-82975990D01*
X141550255Y-82869800D01*
X140189745Y-82869800D01*
X139655892Y-82975990D01*
X139050500Y-83380500D01*
X138645990Y-83985892D01*
X138503945Y-84700000D01*
X138450021Y-84700000D01*
X138442829Y-84663845D01*
X138201432Y-84302568D01*
X137840155Y-84061171D01*
X137521569Y-83997800D01*
X136798431Y-83997800D01*
X136479845Y-84061171D01*
X136118568Y-84302568D01*
X135877171Y-84663845D01*
X135792403Y-85090000D01*
X133447597Y-85090000D01*
X133362829Y-84663845D01*
X133121432Y-84302568D01*
X133030336Y-84241700D01*
X133142736Y-84241700D01*
X133380792Y-84143093D01*
X133562993Y-83960892D01*
X133661600Y-83722836D01*
X133661600Y-83465164D01*
X133562993Y-83227108D01*
X133380792Y-83044907D01*
X133330743Y-83024176D01*
X133362829Y-82976155D01*
X133447597Y-82550000D01*
X135792403Y-82550000D01*
X135877171Y-82976155D01*
X136118568Y-83337432D01*
X136479845Y-83578829D01*
X136798431Y-83642200D01*
X137521569Y-83642200D01*
X137840155Y-83578829D01*
X138201432Y-83337432D01*
X138442829Y-82976155D01*
X138527597Y-82550000D01*
X138442829Y-82123845D01*
X138201432Y-81762568D01*
X137840155Y-81521171D01*
X137521569Y-81457800D01*
X136798431Y-81457800D01*
X136479845Y-81521171D01*
X136118568Y-81762568D01*
X135877171Y-82123845D01*
X135792403Y-82550000D01*
X133447597Y-82550000D01*
X133362829Y-82123845D01*
X133333035Y-82079255D01*
X133351292Y-82071693D01*
X133533493Y-81889492D01*
X133632100Y-81651436D01*
X133632100Y-81393764D01*
X133533493Y-81155708D01*
X133351292Y-80973507D01*
X133113236Y-80874900D01*
X133005493Y-80874900D01*
X133121432Y-80797432D01*
X133362829Y-80436155D01*
X133447597Y-80010000D01*
X135792403Y-80010000D01*
X135877171Y-80436155D01*
X136118568Y-80797432D01*
X136479845Y-81038829D01*
X136798431Y-81102200D01*
X137521569Y-81102200D01*
X137840155Y-81038829D01*
X138201432Y-80797432D01*
X138442829Y-80436155D01*
X138527597Y-80010000D01*
X138442829Y-79583845D01*
X138201432Y-79222568D01*
X137840155Y-78981171D01*
X137521569Y-78917800D01*
X136798431Y-78917800D01*
X136479845Y-78981171D01*
X136118568Y-79222568D01*
X135877171Y-79583845D01*
X135792403Y-80010000D01*
X133447597Y-80010000D01*
X133362829Y-79583845D01*
X133121432Y-79222568D01*
X132760155Y-78981171D01*
X132441569Y-78917800D01*
X131718431Y-78917800D01*
X131399845Y-78981171D01*
X131038568Y-79222568D01*
X130797171Y-79583845D01*
X130712403Y-80010000D01*
X130797171Y-80436155D01*
X131038568Y-80797432D01*
X131399845Y-81038829D01*
X131533426Y-81065400D01*
X131480729Y-81065400D01*
X131435699Y-81056443D01*
X131257309Y-81091927D01*
X131106077Y-81192977D01*
X131080570Y-81231151D01*
X128179623Y-84132099D01*
X128126061Y-84051939D01*
X128016838Y-83978958D01*
X127888000Y-83953331D01*
X124884600Y-83953331D01*
X124884600Y-83766140D01*
X124899029Y-83693600D01*
X124884600Y-83621060D01*
X124884600Y-83621056D01*
X124878686Y-83591323D01*
X130760120Y-77709890D01*
X130797171Y-77896155D01*
X131038568Y-78257432D01*
X131399845Y-78498829D01*
X131718431Y-78562200D01*
X132441569Y-78562200D01*
X132760155Y-78498829D01*
X133121432Y-78257432D01*
X133362829Y-77896155D01*
X133447597Y-77470000D01*
X133362829Y-77043845D01*
X133274199Y-76911200D01*
X135965801Y-76911200D01*
X135877171Y-77043845D01*
X135792403Y-77470000D01*
X135877171Y-77896155D01*
X136118568Y-78257432D01*
X136479845Y-78498829D01*
X136798431Y-78562200D01*
X137521569Y-78562200D01*
X137840155Y-78498829D01*
X138201432Y-78257432D01*
X138442829Y-77896155D01*
X138527597Y-77470000D01*
X138442829Y-77043845D01*
X138201432Y-76682568D01*
X137896600Y-76478886D01*
X137896600Y-76247144D01*
X137911030Y-76174600D01*
X137853861Y-75887193D01*
X137691058Y-75643542D01*
X137447407Y-75480739D01*
X137232544Y-75438000D01*
X137160000Y-75423570D01*
X137087456Y-75438000D01*
X131326240Y-75438000D01*
X131253700Y-75423571D01*
X131181159Y-75438000D01*
X131181156Y-75438000D01*
X130966293Y-75480739D01*
X130784141Y-75602449D01*
X130784139Y-75602451D01*
X130722642Y-75643542D01*
X130681551Y-75705039D01*
X123571742Y-82814849D01*
X123510242Y-82855942D01*
X123347439Y-83099594D01*
X123304700Y-83314457D01*
X123304700Y-83314460D01*
X123294612Y-83365176D01*
X123266600Y-83432803D01*
X123266600Y-83740997D01*
X123354552Y-83953331D01*
X121315140Y-83953331D01*
X120620305Y-83258496D01*
X120595261Y-83132593D01*
X120432458Y-82888942D01*
X120188807Y-82726139D01*
X119973944Y-82683400D01*
X119901400Y-82668970D01*
X119828856Y-82683400D01*
X119607037Y-82683400D01*
X119606061Y-82681939D01*
X119496838Y-82608958D01*
X119368000Y-82583331D01*
X111888000Y-82583331D01*
X111759162Y-82608958D01*
X111649939Y-82681939D01*
X111576958Y-82791162D01*
X111551331Y-82920000D01*
X111551331Y-83920000D01*
X111576958Y-84048838D01*
X111649939Y-84158061D01*
X111759162Y-84231042D01*
X111888000Y-84256669D01*
X119368000Y-84256669D01*
X119496838Y-84231042D01*
X119504388Y-84225997D01*
X120071331Y-84792940D01*
X120071331Y-85290000D01*
X120096958Y-85418838D01*
X120161684Y-85515707D01*
X119704669Y-85972722D01*
X119704669Y-85660000D01*
X119679042Y-85531162D01*
X119606061Y-85421939D01*
X119496838Y-85348958D01*
X119368000Y-85323331D01*
X111888000Y-85323331D01*
X111759162Y-85348958D01*
X111649939Y-85421939D01*
X111576958Y-85531162D01*
X111551331Y-85660000D01*
X111551331Y-86136421D01*
X111105351Y-85690442D01*
X111064258Y-85628942D01*
X110820607Y-85466139D01*
X110605744Y-85423400D01*
X110605740Y-85423400D01*
X110533200Y-85408971D01*
X110460660Y-85423400D01*
X109399994Y-85423400D01*
X109403042Y-85418838D01*
X109428669Y-85290000D01*
X109428669Y-84290000D01*
X109403042Y-84161162D01*
X109330061Y-84051939D01*
X109220838Y-83978958D01*
X109092000Y-83953331D01*
X101612000Y-83953331D01*
X101483162Y-83978958D01*
X101373939Y-84051939D01*
X101372963Y-84053400D01*
X101204063Y-84053400D01*
X101207000Y-84046309D01*
X101207000Y-83705750D01*
X101048250Y-83547000D01*
X96959000Y-83547000D01*
X96959000Y-84396250D01*
X97117750Y-84555000D01*
X100076911Y-84555000D01*
X100043400Y-84635903D01*
X100043400Y-84944097D01*
X100161341Y-85228832D01*
X100255840Y-85323331D01*
X93092000Y-85323331D01*
X92963162Y-85348958D01*
X92853939Y-85421939D01*
X92780958Y-85531162D01*
X92755331Y-85660000D01*
X92755331Y-86660000D01*
X92780958Y-86788838D01*
X92853939Y-86898061D01*
X92963162Y-86971042D01*
X93092000Y-86996669D01*
X100572000Y-86996669D01*
X100700838Y-86971042D01*
X100810061Y-86898061D01*
X100811037Y-86896600D01*
X100979937Y-86896600D01*
X100977000Y-86903691D01*
X100977000Y-87244250D01*
X101135750Y-87403000D01*
X105225000Y-87403000D01*
X105225000Y-87383000D01*
X105479000Y-87383000D01*
X105479000Y-87403000D01*
X109568250Y-87403000D01*
X109727000Y-87244250D01*
X109727000Y-86903691D01*
X109724063Y-86896600D01*
X110228091Y-86896600D01*
X110694541Y-87363051D01*
X110732641Y-87455032D01*
X110950568Y-87672959D01*
X111235303Y-87790900D01*
X111512422Y-87790900D01*
X110943654Y-88359668D01*
X110905477Y-88385177D01*
X110835853Y-88489377D01*
X110804427Y-88536410D01*
X110768943Y-88714800D01*
X110777900Y-88759830D01*
X110777901Y-95142565D01*
X110768943Y-95187600D01*
X110804427Y-95365990D01*
X110879970Y-95479048D01*
X110905478Y-95517223D01*
X110943652Y-95542730D01*
X111157368Y-95756446D01*
X111182877Y-95794623D01*
X111326078Y-95890307D01*
X111334109Y-95895673D01*
X111512500Y-95931157D01*
X111557530Y-95922200D01*
X116891615Y-95922200D01*
X116806215Y-96007600D01*
X93930957Y-96007600D01*
X93438357Y-95515000D01*
X96546250Y-95515000D01*
X96705000Y-95356250D01*
X96705000Y-94507000D01*
X96959000Y-94507000D01*
X96959000Y-95356250D01*
X97117750Y-95515000D01*
X100698310Y-95515000D01*
X100931699Y-95418327D01*
X101110327Y-95239698D01*
X101207000Y-95006309D01*
X101207000Y-94665750D01*
X101048250Y-94507000D01*
X96959000Y-94507000D01*
X96705000Y-94507000D01*
X92615750Y-94507000D01*
X92523054Y-94599697D01*
X92373500Y-94450143D01*
X92373500Y-93753691D01*
X92457000Y-93753691D01*
X92457000Y-94094250D01*
X92615750Y-94253000D01*
X96705000Y-94253000D01*
X96705000Y-93403750D01*
X96959000Y-93403750D01*
X96959000Y-94253000D01*
X101048250Y-94253000D01*
X101207000Y-94094250D01*
X101207000Y-94003026D01*
X101252301Y-94048327D01*
X101485690Y-94145000D01*
X105066250Y-94145000D01*
X105225000Y-93986250D01*
X105225000Y-93137000D01*
X105479000Y-93137000D01*
X105479000Y-93986250D01*
X105637750Y-94145000D01*
X109218310Y-94145000D01*
X109451699Y-94048327D01*
X109630327Y-93869698D01*
X109727000Y-93636309D01*
X109727000Y-93295750D01*
X109568250Y-93137000D01*
X105479000Y-93137000D01*
X105225000Y-93137000D01*
X101135750Y-93137000D01*
X100977000Y-93295750D01*
X100977000Y-93386974D01*
X100931699Y-93341673D01*
X100698310Y-93245000D01*
X97117750Y-93245000D01*
X96959000Y-93403750D01*
X96705000Y-93403750D01*
X96546250Y-93245000D01*
X92965690Y-93245000D01*
X92732301Y-93341673D01*
X92553673Y-93520302D01*
X92457000Y-93753691D01*
X92373500Y-93753691D01*
X92373500Y-89185750D01*
X92457000Y-89185750D01*
X92457000Y-89526309D01*
X92553673Y-89759698D01*
X92732301Y-89938327D01*
X92965690Y-90035000D01*
X96357011Y-90035000D01*
X96323500Y-90115903D01*
X96323500Y-90424097D01*
X96441441Y-90708832D01*
X96535940Y-90803331D01*
X93092000Y-90803331D01*
X92963162Y-90828958D01*
X92853939Y-90901939D01*
X92780958Y-91011162D01*
X92755331Y-91140000D01*
X92755331Y-92140000D01*
X92780958Y-92268838D01*
X92853939Y-92378061D01*
X92963162Y-92451042D01*
X93092000Y-92476669D01*
X100572000Y-92476669D01*
X100700838Y-92451042D01*
X100810061Y-92378061D01*
X100811037Y-92376600D01*
X100979937Y-92376600D01*
X100977000Y-92383691D01*
X100977000Y-92724250D01*
X101135750Y-92883000D01*
X105225000Y-92883000D01*
X105225000Y-92033750D01*
X105479000Y-92033750D01*
X105479000Y-92883000D01*
X109568250Y-92883000D01*
X109727000Y-92724250D01*
X109727000Y-92383691D01*
X109630327Y-92150302D01*
X109451699Y-91971673D01*
X109218310Y-91875000D01*
X105637750Y-91875000D01*
X105479000Y-92033750D01*
X105225000Y-92033750D01*
X105066250Y-91875000D01*
X102099491Y-91875000D01*
X102196859Y-91777632D01*
X102314800Y-91492897D01*
X102314800Y-91184703D01*
X102282477Y-91106669D01*
X109092000Y-91106669D01*
X109220838Y-91081042D01*
X109330061Y-91008061D01*
X109403042Y-90898838D01*
X109428669Y-90770000D01*
X109428669Y-89770000D01*
X109403042Y-89641162D01*
X109330061Y-89531939D01*
X109220838Y-89458958D01*
X109092000Y-89433331D01*
X101612000Y-89433331D01*
X101483162Y-89458958D01*
X101373939Y-89531939D01*
X101372963Y-89533400D01*
X101204063Y-89533400D01*
X101207000Y-89526309D01*
X101207000Y-89185750D01*
X101048250Y-89027000D01*
X96959000Y-89027000D01*
X96959000Y-89047000D01*
X96705000Y-89047000D01*
X96705000Y-89027000D01*
X92615750Y-89027000D01*
X92457000Y-89185750D01*
X92373500Y-89185750D01*
X92373500Y-88273691D01*
X92457000Y-88273691D01*
X92457000Y-88614250D01*
X92615750Y-88773000D01*
X96705000Y-88773000D01*
X96705000Y-87923750D01*
X96959000Y-87923750D01*
X96959000Y-88773000D01*
X101048250Y-88773000D01*
X101207000Y-88614250D01*
X101207000Y-88523026D01*
X101252301Y-88568327D01*
X101485690Y-88665000D01*
X105066250Y-88665000D01*
X105225000Y-88506250D01*
X105225000Y-87657000D01*
X105479000Y-87657000D01*
X105479000Y-88506250D01*
X105637750Y-88665000D01*
X109218310Y-88665000D01*
X109451699Y-88568327D01*
X109630327Y-88389698D01*
X109727000Y-88156309D01*
X109727000Y-87815750D01*
X109568250Y-87657000D01*
X105479000Y-87657000D01*
X105225000Y-87657000D01*
X101135750Y-87657000D01*
X100977000Y-87815750D01*
X100977000Y-87906974D01*
X100931699Y-87861673D01*
X100698310Y-87765000D01*
X97117750Y-87765000D01*
X96959000Y-87923750D01*
X96705000Y-87923750D01*
X96546250Y-87765000D01*
X92965690Y-87765000D01*
X92732301Y-87861673D01*
X92553673Y-88040302D01*
X92457000Y-88273691D01*
X92373500Y-88273691D01*
X92373500Y-83705750D01*
X92457000Y-83705750D01*
X92457000Y-84046309D01*
X92553673Y-84279698D01*
X92732301Y-84458327D01*
X92965690Y-84555000D01*
X96546250Y-84555000D01*
X96705000Y-84396250D01*
X96705000Y-83547000D01*
X92615750Y-83547000D01*
X92457000Y-83705750D01*
X92373500Y-83705750D01*
X92373500Y-83302457D01*
X92499354Y-83176604D01*
X92615750Y-83293000D01*
X96705000Y-83293000D01*
X96705000Y-82443750D01*
X96959000Y-82443750D01*
X96959000Y-83293000D01*
X101048250Y-83293000D01*
X101207000Y-83134250D01*
X101207000Y-82793691D01*
X101110327Y-82560302D01*
X100931699Y-82381673D01*
X100698310Y-82285000D01*
X97117750Y-82285000D01*
X96959000Y-82443750D01*
X96705000Y-82443750D01*
X96546250Y-82285000D01*
X93390957Y-82285000D01*
X97193858Y-78482100D01*
X107708878Y-78482100D01*
X107751400Y-78490558D01*
X107793922Y-78482100D01*
X107793926Y-78482100D01*
X107919880Y-78457046D01*
X108062710Y-78361610D01*
X108086800Y-78325557D01*
X109570857Y-76841500D01*
X109606910Y-76817410D01*
X109702346Y-76674580D01*
X109727400Y-76548626D01*
X109735859Y-76506100D01*
X109727400Y-76463574D01*
X109727400Y-73000000D01*
X111551331Y-73000000D01*
X111551331Y-76400000D01*
X111576958Y-76528838D01*
X111649939Y-76638061D01*
X111759162Y-76711042D01*
X111888000Y-76736669D01*
X115379416Y-76736669D01*
X115575535Y-77210143D01*
X115977857Y-77612465D01*
X116503516Y-77830200D01*
X117072484Y-77830200D01*
X117598143Y-77612465D01*
X118000465Y-77210143D01*
X118196584Y-76736669D01*
X127888000Y-76736669D01*
X128016838Y-76711042D01*
X128126061Y-76638061D01*
X128199042Y-76528838D01*
X128224669Y-76400000D01*
X128224669Y-74498985D01*
X147519882Y-74498985D01*
X147534027Y-74570484D01*
X147793055Y-75047340D01*
X148214851Y-75388772D01*
X148735200Y-75542800D01*
X149235200Y-75542800D01*
X149235200Y-74284800D01*
X149489200Y-74284800D01*
X149489200Y-75542800D01*
X149989200Y-75542800D01*
X150509549Y-75388772D01*
X150931345Y-75047340D01*
X151190373Y-74570484D01*
X151204518Y-74498985D01*
X151081856Y-74284800D01*
X149489200Y-74284800D01*
X149235200Y-74284800D01*
X147642544Y-74284800D01*
X147519882Y-74498985D01*
X128224669Y-74498985D01*
X128224669Y-73000000D01*
X128199042Y-72871162D01*
X128126061Y-72761939D01*
X128016838Y-72688958D01*
X127888000Y-72663331D01*
X126774729Y-72663331D01*
X126855574Y-72647250D01*
X127271462Y-72369362D01*
X127549350Y-71953474D01*
X127622300Y-71586728D01*
X127622300Y-70700653D01*
X128066800Y-70700653D01*
X128066800Y-71539347D01*
X128387754Y-72314199D01*
X128980801Y-72907246D01*
X129755653Y-73228200D01*
X130594347Y-73228200D01*
X131369199Y-72907246D01*
X131962246Y-72314199D01*
X132081642Y-72025951D01*
X142299800Y-72025951D01*
X142299800Y-72754049D01*
X142578431Y-73426725D01*
X143093275Y-73941569D01*
X143765951Y-74220200D01*
X144494049Y-74220200D01*
X145166725Y-73941569D01*
X145291679Y-73816615D01*
X147519882Y-73816615D01*
X147642544Y-74030800D01*
X149235200Y-74030800D01*
X149235200Y-74010800D01*
X149489200Y-74010800D01*
X149489200Y-74030800D01*
X151081856Y-74030800D01*
X151204518Y-73816615D01*
X151196285Y-73775000D01*
X151372581Y-73775000D01*
X151296438Y-74157800D01*
X151380274Y-74579273D01*
X151619019Y-74936581D01*
X151976327Y-75175326D01*
X152291411Y-75238000D01*
X153504189Y-75238000D01*
X153819273Y-75175326D01*
X154176581Y-74936581D01*
X154415326Y-74579273D01*
X154499162Y-74157800D01*
X154415326Y-73736327D01*
X154176581Y-73379019D01*
X153819273Y-73140274D01*
X153504189Y-73077600D01*
X152808839Y-73077600D01*
X152958173Y-72802684D01*
X152972318Y-72731185D01*
X152849656Y-72517000D01*
X151257000Y-72517000D01*
X151257000Y-72537000D01*
X151003000Y-72537000D01*
X151003000Y-72517000D01*
X149410344Y-72517000D01*
X149287682Y-72731185D01*
X149295915Y-72772800D01*
X148735200Y-72772800D01*
X148214851Y-72926828D01*
X147793055Y-73268260D01*
X147534027Y-73745116D01*
X147519882Y-73816615D01*
X145291679Y-73816615D01*
X145681569Y-73426725D01*
X145960200Y-72754049D01*
X145960200Y-72025951D01*
X145681569Y-71353275D01*
X145166725Y-70838431D01*
X144644697Y-70622200D01*
X147760838Y-70622200D01*
X147844674Y-71043673D01*
X148083419Y-71400981D01*
X148440727Y-71639726D01*
X148755811Y-71702400D01*
X149451161Y-71702400D01*
X149301827Y-71977316D01*
X149287682Y-72048815D01*
X149410344Y-72263000D01*
X151003000Y-72263000D01*
X151003000Y-71005000D01*
X151257000Y-71005000D01*
X151257000Y-72263000D01*
X152849656Y-72263000D01*
X152972318Y-72048815D01*
X152958173Y-71977316D01*
X152808839Y-71702400D01*
X153504189Y-71702400D01*
X153819273Y-71639726D01*
X154176581Y-71400981D01*
X154415326Y-71043673D01*
X154499162Y-70622200D01*
X154415326Y-70200727D01*
X154176581Y-69843419D01*
X153819273Y-69604674D01*
X153504189Y-69542000D01*
X152291411Y-69542000D01*
X151976327Y-69604674D01*
X151619019Y-69843419D01*
X151380274Y-70200727D01*
X151296438Y-70622200D01*
X151372581Y-71005000D01*
X151257000Y-71005000D01*
X151003000Y-71005000D01*
X150887419Y-71005000D01*
X150963562Y-70622200D01*
X150879726Y-70200727D01*
X150640981Y-69843419D01*
X150283673Y-69604674D01*
X149968589Y-69542000D01*
X148755811Y-69542000D01*
X148440727Y-69604674D01*
X148083419Y-69843419D01*
X147844674Y-70200727D01*
X147760838Y-70622200D01*
X144644697Y-70622200D01*
X144494049Y-70559800D01*
X143765951Y-70559800D01*
X143093275Y-70838431D01*
X142578431Y-71353275D01*
X142299800Y-72025951D01*
X132081642Y-72025951D01*
X132283200Y-71539347D01*
X132283200Y-70700653D01*
X131962246Y-69925801D01*
X131369199Y-69332754D01*
X130594347Y-69011800D01*
X129755653Y-69011800D01*
X128980801Y-69332754D01*
X128387754Y-69925801D01*
X128066800Y-70700653D01*
X127622300Y-70700653D01*
X127622300Y-70653271D01*
X127549350Y-70286526D01*
X127271462Y-69870638D01*
X126855573Y-69592750D01*
X126365000Y-69495169D01*
X125874426Y-69592750D01*
X125458538Y-69870638D01*
X125180650Y-70286527D01*
X125107700Y-70653272D01*
X125107700Y-71586729D01*
X125180650Y-71953474D01*
X125458539Y-72369362D01*
X125874427Y-72647250D01*
X125955272Y-72663331D01*
X124234729Y-72663331D01*
X124315574Y-72647250D01*
X124731462Y-72369362D01*
X125009350Y-71953474D01*
X125082300Y-71586728D01*
X125082300Y-70653271D01*
X125009350Y-70286526D01*
X124731462Y-69870638D01*
X124315573Y-69592750D01*
X123825000Y-69495169D01*
X123334426Y-69592750D01*
X122918538Y-69870638D01*
X122640650Y-70286527D01*
X122567700Y-70653272D01*
X122567700Y-71586729D01*
X122640650Y-71953474D01*
X122918539Y-72369362D01*
X123334427Y-72647250D01*
X123415272Y-72663331D01*
X121694729Y-72663331D01*
X121775574Y-72647250D01*
X122191462Y-72369362D01*
X122469350Y-71953474D01*
X122542300Y-71586728D01*
X122542300Y-70653271D01*
X122469350Y-70286526D01*
X122191462Y-69870638D01*
X121775573Y-69592750D01*
X121285000Y-69495169D01*
X120794426Y-69592750D01*
X120378538Y-69870638D01*
X120100650Y-70286527D01*
X120027700Y-70653272D01*
X120027700Y-71586729D01*
X120100650Y-71953474D01*
X120378539Y-72369362D01*
X120794427Y-72647250D01*
X120875272Y-72663331D01*
X119154729Y-72663331D01*
X119235574Y-72647250D01*
X119651462Y-72369362D01*
X119929350Y-71953474D01*
X120002300Y-71586728D01*
X120002300Y-70653271D01*
X119929350Y-70286526D01*
X119651462Y-69870638D01*
X119235573Y-69592750D01*
X118745000Y-69495169D01*
X118254426Y-69592750D01*
X117838538Y-69870638D01*
X117560650Y-70286527D01*
X117487700Y-70653272D01*
X117487700Y-71586729D01*
X117560650Y-71953474D01*
X117838539Y-72369362D01*
X118254427Y-72647250D01*
X118335272Y-72663331D01*
X116614729Y-72663331D01*
X116695574Y-72647250D01*
X117111462Y-72369362D01*
X117389350Y-71953474D01*
X117462300Y-71586728D01*
X117462300Y-70653271D01*
X117389350Y-70286526D01*
X117111462Y-69870638D01*
X116695573Y-69592750D01*
X116205000Y-69495169D01*
X115714426Y-69592750D01*
X115298538Y-69870638D01*
X115020650Y-70286527D01*
X114947700Y-70653272D01*
X114947700Y-71586729D01*
X115020650Y-71953474D01*
X115298539Y-72369362D01*
X115714427Y-72647250D01*
X115795272Y-72663331D01*
X114074729Y-72663331D01*
X114155574Y-72647250D01*
X114571462Y-72369362D01*
X114849350Y-71953474D01*
X114922300Y-71586728D01*
X114922300Y-70653271D01*
X114849350Y-70286526D01*
X114571462Y-69870638D01*
X114155573Y-69592750D01*
X113665000Y-69495169D01*
X113174426Y-69592750D01*
X112758538Y-69870638D01*
X112480650Y-70286527D01*
X112407700Y-70653272D01*
X112407700Y-71586729D01*
X112480650Y-71953474D01*
X112758539Y-72369362D01*
X113174427Y-72647250D01*
X113255272Y-72663331D01*
X111888000Y-72663331D01*
X111759162Y-72688958D01*
X111649939Y-72761939D01*
X111576958Y-72871162D01*
X111551331Y-73000000D01*
X109727400Y-73000000D01*
X109727400Y-72892821D01*
X109735858Y-72850299D01*
X109727400Y-72807775D01*
X109727400Y-72807774D01*
X109702346Y-72681820D01*
X109606910Y-72538990D01*
X109570856Y-72514899D01*
X109451812Y-72395855D01*
X109491462Y-72369362D01*
X109769350Y-71953474D01*
X109842300Y-71586728D01*
X109842300Y-70653272D01*
X109867700Y-70653272D01*
X109867700Y-71586729D01*
X109940650Y-71953474D01*
X110218539Y-72369362D01*
X110634427Y-72647250D01*
X111125000Y-72744831D01*
X111615574Y-72647250D01*
X112031462Y-72369362D01*
X112309350Y-71953474D01*
X112382300Y-71586728D01*
X112382300Y-70653271D01*
X112309350Y-70286526D01*
X112031462Y-69870638D01*
X111615573Y-69592750D01*
X111125000Y-69495169D01*
X110634426Y-69592750D01*
X110218538Y-69870638D01*
X109940650Y-70286527D01*
X109867700Y-70653272D01*
X109842300Y-70653272D01*
X109842300Y-70653271D01*
X109769350Y-70286526D01*
X109491462Y-69870638D01*
X109075573Y-69592750D01*
X108585000Y-69495169D01*
X108094426Y-69592750D01*
X107678538Y-69870638D01*
X107400650Y-70286527D01*
X107327700Y-70653272D01*
X107327700Y-71586729D01*
X107400650Y-71953474D01*
X107678539Y-72369362D01*
X108094427Y-72647250D01*
X108152747Y-72658851D01*
X108153639Y-72663331D01*
X106454729Y-72663331D01*
X106535574Y-72647250D01*
X106951462Y-72369362D01*
X107229350Y-71953474D01*
X107302300Y-71586728D01*
X107302300Y-70653271D01*
X107229350Y-70286526D01*
X106951462Y-69870638D01*
X106535573Y-69592750D01*
X106045000Y-69495169D01*
X105554426Y-69592750D01*
X105138538Y-69870638D01*
X104860650Y-70286527D01*
X104787700Y-70653272D01*
X104787700Y-70699951D01*
X104762300Y-70705003D01*
X104762300Y-70653271D01*
X104689350Y-70286526D01*
X104411462Y-69870638D01*
X103995573Y-69592750D01*
X103505000Y-69495169D01*
X103014426Y-69592750D01*
X102598538Y-69870638D01*
X102320650Y-70286527D01*
X102247700Y-70653272D01*
X102247700Y-71586729D01*
X102320650Y-71953474D01*
X102595357Y-72364600D01*
X101874644Y-72364600D01*
X102149350Y-71953474D01*
X102222300Y-71586728D01*
X102222300Y-70653271D01*
X102149350Y-70286526D01*
X101871462Y-69870638D01*
X101455573Y-69592750D01*
X100965000Y-69495169D01*
X100474426Y-69592750D01*
X100058538Y-69870638D01*
X99934312Y-70056555D01*
X99220299Y-69342542D01*
X99196210Y-69306490D01*
X99053380Y-69211054D01*
X98927426Y-69186000D01*
X98927422Y-69186000D01*
X98884900Y-69177542D01*
X98842378Y-69186000D01*
X92901326Y-69186000D01*
X92858800Y-69177541D01*
X92816274Y-69186000D01*
X92690320Y-69211054D01*
X92547490Y-69306490D01*
X92523400Y-69342543D01*
X91825154Y-70040789D01*
X91711462Y-69870638D01*
X91295573Y-69592750D01*
X90805000Y-69495169D01*
X90314426Y-69592750D01*
X89898538Y-69870638D01*
X89620650Y-70286527D01*
X89547700Y-70653272D01*
X89547700Y-71586729D01*
X89620650Y-71953474D01*
X89776554Y-72186800D01*
X89592138Y-72186800D01*
X89528769Y-72174195D01*
X89528769Y-69850000D01*
X89503142Y-69721162D01*
X89430161Y-69611939D01*
X89320938Y-69538958D01*
X89192100Y-69513331D01*
X87337900Y-69513331D01*
X87209062Y-69538958D01*
X87099839Y-69611939D01*
X87026858Y-69721162D01*
X87001231Y-69850000D01*
X87001231Y-72390000D01*
X87026858Y-72518838D01*
X87099839Y-72628061D01*
X87209062Y-72701042D01*
X87337900Y-72726669D01*
X88674622Y-72726669D01*
X86773242Y-74628049D01*
X86711742Y-74669142D01*
X86548939Y-74912794D01*
X86506200Y-75127657D01*
X86506200Y-75127660D01*
X86491771Y-75200200D01*
X86506200Y-75272740D01*
X86506201Y-86816019D01*
X86468100Y-86908003D01*
X86169500Y-86908003D01*
X86169500Y-68389500D01*
X155765501Y-68389500D01*
X155765501Y-83669880D01*
X155765501Y-83669880D01*
G37*
X155765501Y-83669880D02*
X155645448Y-83380048D01*
X154989952Y-82724552D01*
X154133506Y-82369800D01*
X153206494Y-82369800D01*
X152350048Y-82724552D01*
X151694552Y-83380048D01*
X151339800Y-84236494D01*
X151339800Y-85163506D01*
X151694552Y-86019952D01*
X152350048Y-86675448D01*
X153206494Y-87030200D01*
X154133506Y-87030200D01*
X154989952Y-86675448D01*
X155645448Y-86019952D01*
X155765501Y-85730120D01*
X155765500Y-92069880D01*
X155645448Y-91780048D01*
X154989952Y-91124552D01*
X154133506Y-90769800D01*
X153206494Y-90769800D01*
X152350048Y-91124552D01*
X151694552Y-91780048D01*
X151339800Y-92636494D01*
X151339800Y-93563506D01*
X151694552Y-94419952D01*
X152350048Y-95075448D01*
X153206494Y-95430200D01*
X154133506Y-95430200D01*
X154989952Y-95075448D01*
X155645448Y-94419952D01*
X155765500Y-94130120D01*
X155765500Y-109410500D01*
X86169500Y-109410500D01*
X86169500Y-106213272D01*
X87007700Y-106213272D01*
X87007700Y-107146729D01*
X87080650Y-107513474D01*
X87358539Y-107929362D01*
X87774427Y-108207250D01*
X88265000Y-108304831D01*
X88755574Y-108207250D01*
X89171462Y-107929362D01*
X89449350Y-107513474D01*
X89522300Y-107146728D01*
X89522300Y-106213272D01*
X89547700Y-106213272D01*
X89547700Y-107146729D01*
X89620650Y-107513474D01*
X89898539Y-107929362D01*
X90314427Y-108207250D01*
X90805000Y-108304831D01*
X91295574Y-108207250D01*
X91711462Y-107929362D01*
X91989350Y-107513474D01*
X92062300Y-107146728D01*
X92062300Y-106213271D01*
X91989350Y-105846526D01*
X91711462Y-105430638D01*
X91295573Y-105152750D01*
X90805000Y-105055169D01*
X90314426Y-105152750D01*
X89898538Y-105430638D01*
X89620650Y-105846527D01*
X89547700Y-106213272D01*
X89522300Y-106213272D01*
X89522300Y-106213271D01*
X89449350Y-105846526D01*
X89171462Y-105430638D01*
X88755573Y-105152750D01*
X88265000Y-105055169D01*
X87774426Y-105152750D01*
X87358538Y-105430638D01*
X87080650Y-105846527D01*
X87007700Y-106213272D01*
X86169500Y-106213272D01*
X86169500Y-101180653D01*
X87426800Y-101180653D01*
X87426800Y-102019347D01*
X87747754Y-102794199D01*
X88340801Y-103387246D01*
X89115653Y-103708200D01*
X89954347Y-103708200D01*
X90729199Y-103387246D01*
X91322246Y-102794199D01*
X91643200Y-102019347D01*
X91643200Y-101180653D01*
X91322246Y-100405801D01*
X90729199Y-99812754D01*
X89954347Y-99491800D01*
X89115653Y-99491800D01*
X88340801Y-99812754D01*
X87747754Y-100405801D01*
X87426800Y-101180653D01*
X86169500Y-101180653D01*
X86169500Y-86908003D01*
X86468100Y-86908003D01*
X86468100Y-87216197D01*
X86586041Y-87500932D01*
X86803968Y-87718859D01*
X87088703Y-87836800D01*
X87396897Y-87836800D01*
X87681632Y-87718859D01*
X87899559Y-87500932D01*
X88017500Y-87216197D01*
X88017500Y-86908003D01*
X87979400Y-86816021D01*
X87979400Y-77625845D01*
X88340801Y-77987246D01*
X89115653Y-78308200D01*
X89954347Y-78308200D01*
X90729199Y-77987246D01*
X91322246Y-77394199D01*
X91643200Y-76619347D01*
X91643200Y-75780653D01*
X91322246Y-75005801D01*
X90729199Y-74412754D01*
X89954347Y-74091800D01*
X89392909Y-74091800D01*
X89824709Y-73660000D01*
X90732456Y-73660000D01*
X90805000Y-73674430D01*
X90877544Y-73660000D01*
X91092407Y-73617261D01*
X91336058Y-73454458D01*
X91498861Y-73210807D01*
X91556030Y-72923400D01*
X91541600Y-72850856D01*
X91541600Y-72482860D01*
X91643200Y-72414973D01*
X91643201Y-77836241D01*
X91032442Y-78447001D01*
X90996390Y-78471090D01*
X90900954Y-78613921D01*
X90875900Y-78739875D01*
X90875900Y-78739878D01*
X90867442Y-78782400D01*
X90875900Y-78824922D01*
X90875901Y-95389473D01*
X90867442Y-95432000D01*
X90900954Y-95600479D01*
X90972301Y-95707258D01*
X90972303Y-95707260D01*
X90996391Y-95743310D01*
X91032441Y-95767398D01*
X95190602Y-99925560D01*
X95214690Y-99961610D01*
X95250740Y-99985698D01*
X95250741Y-99985699D01*
X95297874Y-100017192D01*
X95357520Y-100057046D01*
X95483474Y-100082100D01*
X95483477Y-100082100D01*
X95525999Y-100090558D01*
X95568521Y-100082100D01*
X97436400Y-100082100D01*
X97181857Y-100187535D01*
X96779535Y-100589857D01*
X96583416Y-101063331D01*
X93092000Y-101063331D01*
X92963162Y-101088958D01*
X92853939Y-101161939D01*
X92780958Y-101271162D01*
X92755331Y-101400000D01*
X92755331Y-104800000D01*
X92780958Y-104928838D01*
X92853939Y-105038061D01*
X92963162Y-105111042D01*
X93013635Y-105121081D01*
X92854426Y-105152750D01*
X92438538Y-105430638D01*
X92160650Y-105846527D01*
X92087700Y-106213272D01*
X92087700Y-107146729D01*
X92160650Y-107513474D01*
X92438539Y-107929362D01*
X92854427Y-108207250D01*
X93345000Y-108304831D01*
X93835574Y-108207250D01*
X94251462Y-107929362D01*
X94529350Y-107513474D01*
X94602300Y-107146728D01*
X94602300Y-106213271D01*
X94529350Y-105846526D01*
X94251462Y-105430638D01*
X93835573Y-105152750D01*
X93754728Y-105136669D01*
X95475271Y-105136669D01*
X95394426Y-105152750D01*
X94978538Y-105430638D01*
X94700650Y-105846527D01*
X94627700Y-106213272D01*
X94627700Y-107146729D01*
X94700650Y-107513474D01*
X94978539Y-107929362D01*
X95394427Y-108207250D01*
X95885000Y-108304831D01*
X96375574Y-108207250D01*
X96791462Y-107929362D01*
X97069350Y-107513474D01*
X97142300Y-107146728D01*
X97142300Y-106213271D01*
X97069350Y-105846526D01*
X96791462Y-105430638D01*
X96375573Y-105152750D01*
X96294728Y-105136669D01*
X98015271Y-105136669D01*
X97934426Y-105152750D01*
X97518538Y-105430638D01*
X97240650Y-105846527D01*
X97167700Y-106213272D01*
X97167700Y-107146729D01*
X97240650Y-107513474D01*
X97518539Y-107929362D01*
X97934427Y-108207250D01*
X98425000Y-108304831D01*
X98915574Y-108207250D01*
X99331462Y-107929362D01*
X99609350Y-107513474D01*
X99682300Y-107146728D01*
X99682300Y-106213271D01*
X99609350Y-105846526D01*
X99331462Y-105430638D01*
X98915573Y-105152750D01*
X98834728Y-105136669D01*
X100555271Y-105136669D01*
X100474426Y-105152750D01*
X100058538Y-105430638D01*
X99780650Y-105846527D01*
X99707700Y-106213272D01*
X99707700Y-107146729D01*
X99780650Y-107513474D01*
X100058539Y-107929362D01*
X100474427Y-108207250D01*
X100965000Y-108304831D01*
X101455574Y-108207250D01*
X101871462Y-107929362D01*
X102149350Y-107513474D01*
X102222300Y-107146728D01*
X102222300Y-106213271D01*
X102149350Y-105846526D01*
X101871462Y-105430638D01*
X101455573Y-105152750D01*
X101374728Y-105136669D01*
X103095271Y-105136669D01*
X103014426Y-105152750D01*
X102598538Y-105430638D01*
X102320650Y-105846527D01*
X102247700Y-106213272D01*
X102247700Y-107146729D01*
X102320650Y-107513474D01*
X102598539Y-107929362D01*
X103014427Y-108207250D01*
X103505000Y-108304831D01*
X103995574Y-108207250D01*
X104411462Y-107929362D01*
X104689350Y-107513474D01*
X104762300Y-107146728D01*
X104762300Y-106213271D01*
X104689350Y-105846526D01*
X104411462Y-105430638D01*
X103995573Y-105152750D01*
X103914728Y-105136669D01*
X105635271Y-105136669D01*
X105554426Y-105152750D01*
X105138538Y-105430638D01*
X104860650Y-105846527D01*
X104787700Y-106213272D01*
X104787700Y-107146729D01*
X104860650Y-107513474D01*
X105138539Y-107929362D01*
X105554427Y-108207250D01*
X106045000Y-108304831D01*
X106535574Y-108207250D01*
X106951462Y-107929362D01*
X107229350Y-107513474D01*
X107302300Y-107146728D01*
X107302300Y-106213271D01*
X107229350Y-105846526D01*
X106951462Y-105430638D01*
X106535573Y-105152750D01*
X106454728Y-105136669D01*
X108175271Y-105136669D01*
X108094426Y-105152750D01*
X107678538Y-105430638D01*
X107400650Y-105846527D01*
X107327700Y-106213272D01*
X107327700Y-107146729D01*
X107400650Y-107513474D01*
X107678539Y-107929362D01*
X108094427Y-108207250D01*
X108585000Y-108304831D01*
X109075574Y-108207250D01*
X109491462Y-107929362D01*
X109769350Y-107513474D01*
X109842300Y-107146728D01*
X109842300Y-106213272D01*
X109867700Y-106213272D01*
X109867700Y-107146729D01*
X109940650Y-107513474D01*
X110218539Y-107929362D01*
X110634427Y-108207250D01*
X111125000Y-108304831D01*
X111615574Y-108207250D01*
X112031462Y-107929362D01*
X112309350Y-107513474D01*
X112382300Y-107146728D01*
X112382300Y-106213271D01*
X112309350Y-105846526D01*
X112031462Y-105430638D01*
X111615573Y-105152750D01*
X111125000Y-105055169D01*
X110634426Y-105152750D01*
X110218538Y-105430638D01*
X109940650Y-105846527D01*
X109867700Y-106213272D01*
X109842300Y-106213272D01*
X109842300Y-106213271D01*
X109769350Y-105846526D01*
X109491462Y-105430638D01*
X109075573Y-105152750D01*
X108994728Y-105136669D01*
X109092000Y-105136669D01*
X109220838Y-105111042D01*
X109330061Y-105038061D01*
X109403042Y-104928838D01*
X109428669Y-104800000D01*
X109428669Y-101400000D01*
X109403042Y-101271162D01*
X109330061Y-101161939D01*
X109220838Y-101088958D01*
X109092000Y-101063331D01*
X99400584Y-101063331D01*
X99204465Y-100589857D01*
X98802143Y-100187535D01*
X98547600Y-100082100D01*
X116232400Y-100082100D01*
X115977857Y-100187535D01*
X115575535Y-100589857D01*
X115379416Y-101063331D01*
X111888000Y-101063331D01*
X111759162Y-101088958D01*
X111649939Y-101161939D01*
X111576958Y-101271162D01*
X111551331Y-101400000D01*
X111551331Y-104800000D01*
X111576958Y-104928838D01*
X111649939Y-105038061D01*
X111759162Y-105111042D01*
X111888000Y-105136669D01*
X113255271Y-105136669D01*
X113174426Y-105152750D01*
X112758538Y-105430638D01*
X112480650Y-105846527D01*
X112407700Y-106213272D01*
X112407700Y-107146729D01*
X112480650Y-107513474D01*
X112758539Y-107929362D01*
X113174427Y-108207250D01*
X113665000Y-108304831D01*
X114155574Y-108207250D01*
X114571462Y-107929362D01*
X114849350Y-107513474D01*
X114922300Y-107146728D01*
X114922300Y-106213271D01*
X114849350Y-105846526D01*
X114571462Y-105430638D01*
X114155573Y-105152750D01*
X114074728Y-105136669D01*
X115795271Y-105136669D01*
X115714426Y-105152750D01*
X115298538Y-105430638D01*
X115020650Y-105846527D01*
X114947700Y-106213272D01*
X114947700Y-107146729D01*
X115020650Y-107513474D01*
X115298539Y-107929362D01*
X115714427Y-108207250D01*
X116205000Y-108304831D01*
X116695574Y-108207250D01*
X117111462Y-107929362D01*
X117389350Y-107513474D01*
X117462300Y-107146728D01*
X117462300Y-106213271D01*
X117389350Y-105846526D01*
X117111462Y-105430638D01*
X116695573Y-105152750D01*
X116614728Y-105136669D01*
X118335271Y-105136669D01*
X118254426Y-105152750D01*
X117838538Y-105430638D01*
X117560650Y-105846527D01*
X117487700Y-106213272D01*
X117487700Y-107146729D01*
X117560650Y-107513474D01*
X117838539Y-107929362D01*
X118254427Y-108207250D01*
X118745000Y-108304831D01*
X119235574Y-108207250D01*
X119651462Y-107929362D01*
X119929350Y-107513474D01*
X120002300Y-107146728D01*
X120002300Y-106213271D01*
X119929350Y-105846526D01*
X119651462Y-105430638D01*
X119235573Y-105152750D01*
X119154728Y-105136669D01*
X120875271Y-105136669D01*
X120794426Y-105152750D01*
X120378538Y-105430638D01*
X120100650Y-105846527D01*
X120027700Y-106213272D01*
X120027700Y-107146729D01*
X120100650Y-107513474D01*
X120378539Y-107929362D01*
X120794427Y-108207250D01*
X121285000Y-108304831D01*
X121775574Y-108207250D01*
X122191462Y-107929362D01*
X122469350Y-107513474D01*
X122542300Y-107146728D01*
X122542300Y-106213271D01*
X122469350Y-105846526D01*
X122191462Y-105430638D01*
X121775573Y-105152750D01*
X121694728Y-105136669D01*
X123415271Y-105136669D01*
X123334426Y-105152750D01*
X122918538Y-105430638D01*
X122640650Y-105846527D01*
X122567700Y-106213272D01*
X122567700Y-107146729D01*
X122640650Y-107513474D01*
X122918539Y-107929362D01*
X123334427Y-108207250D01*
X123825000Y-108304831D01*
X124315574Y-108207250D01*
X124731462Y-107929362D01*
X125009350Y-107513474D01*
X125082300Y-107146728D01*
X125082300Y-106213271D01*
X125009350Y-105846526D01*
X124731462Y-105430638D01*
X124315573Y-105152750D01*
X124234728Y-105136669D01*
X125955271Y-105136669D01*
X125874426Y-105152750D01*
X125458538Y-105430638D01*
X125180650Y-105846527D01*
X125107700Y-106213272D01*
X125107700Y-107146729D01*
X125180650Y-107513474D01*
X125458539Y-107929362D01*
X125874427Y-108207250D01*
X126365000Y-108304831D01*
X126855574Y-108207250D01*
X127271462Y-107929362D01*
X127549350Y-107513474D01*
X127622300Y-107146728D01*
X127622300Y-106260653D01*
X128066800Y-106260653D01*
X128066800Y-107099347D01*
X128387754Y-107874199D01*
X128980801Y-108467246D01*
X129755653Y-108788200D01*
X130594347Y-108788200D01*
X131369199Y-108467246D01*
X131962246Y-107874199D01*
X132283200Y-107099347D01*
X132283200Y-106260653D01*
X131962246Y-105485801D01*
X131369199Y-104892754D01*
X130594347Y-104571800D01*
X129755653Y-104571800D01*
X128980801Y-104892754D01*
X128387754Y-105485801D01*
X128066800Y-106260653D01*
X127622300Y-106260653D01*
X127622300Y-106213271D01*
X127549350Y-105846526D01*
X127271462Y-105430638D01*
X126855573Y-105152750D01*
X126774728Y-105136669D01*
X127888000Y-105136669D01*
X128016838Y-105111042D01*
X128126061Y-105038061D01*
X128199042Y-104928838D01*
X128224669Y-104800000D01*
X128224669Y-101400000D01*
X128199042Y-101271162D01*
X128126061Y-101161939D01*
X128016838Y-101088958D01*
X127888000Y-101063331D01*
X118196584Y-101063331D01*
X118000465Y-100589857D01*
X117598143Y-100187535D01*
X117357025Y-100087660D01*
X117427493Y-100017192D01*
X117526100Y-99779136D01*
X117526100Y-99521464D01*
X117427493Y-99283408D01*
X117425085Y-99281000D01*
X129733678Y-99281000D01*
X129776200Y-99289458D01*
X129818722Y-99281000D01*
X129818726Y-99281000D01*
X129944680Y-99255946D01*
X130087510Y-99160510D01*
X130111599Y-99124458D01*
X130886385Y-98349673D01*
X131038568Y-98577432D01*
X131399845Y-98818829D01*
X131718431Y-98882200D01*
X132441569Y-98882200D01*
X132760155Y-98818829D01*
X133121432Y-98577432D01*
X133362829Y-98216155D01*
X133447597Y-97790000D01*
X133362829Y-97363845D01*
X133121432Y-97002568D01*
X132760155Y-96761171D01*
X132441569Y-96697800D01*
X131718431Y-96697800D01*
X131399845Y-96761171D01*
X131038568Y-97002568D01*
X130802179Y-97356350D01*
X130792877Y-97358200D01*
X130792874Y-97358200D01*
X130666920Y-97383254D01*
X130560141Y-97454601D01*
X130560140Y-97454602D01*
X130524090Y-97478690D01*
X130500002Y-97514740D01*
X129597343Y-98417400D01*
X129523257Y-98417400D01*
X131268258Y-96672400D01*
X132037474Y-96672400D01*
X132080000Y-96680859D01*
X132248480Y-96647346D01*
X132391310Y-96551910D01*
X132486746Y-96409080D01*
X132502459Y-96330088D01*
X132760155Y-96278829D01*
X133121432Y-96037432D01*
X133362829Y-95676155D01*
X133447597Y-95250000D01*
X133362829Y-94823845D01*
X133121432Y-94462568D01*
X132760155Y-94221171D01*
X132441569Y-94157800D01*
X131718431Y-94157800D01*
X131399845Y-94221171D01*
X131038568Y-94462568D01*
X130797171Y-94823845D01*
X130712403Y-95250000D01*
X130797171Y-95676155D01*
X130908214Y-95842344D01*
X130814141Y-95905201D01*
X130814140Y-95905202D01*
X130778090Y-95929290D01*
X130754002Y-95965340D01*
X128934543Y-97784800D01*
X127615857Y-97784800D01*
X131268258Y-94132400D01*
X132037474Y-94132400D01*
X132080000Y-94140859D01*
X132248480Y-94107346D01*
X132391310Y-94011910D01*
X132486746Y-93869080D01*
X132502459Y-93790088D01*
X132760155Y-93738829D01*
X133121432Y-93497432D01*
X133362829Y-93136155D01*
X133447597Y-92710000D01*
X133362829Y-92283845D01*
X133121432Y-91922568D01*
X132760155Y-91681171D01*
X132441569Y-91617800D01*
X131784658Y-91617800D01*
X131810058Y-91592400D01*
X132037474Y-91592400D01*
X132080000Y-91600859D01*
X132248480Y-91567346D01*
X132391310Y-91471910D01*
X132486746Y-91329080D01*
X132502459Y-91250088D01*
X132760155Y-91198829D01*
X133121432Y-90957432D01*
X133362829Y-90596155D01*
X133400300Y-90407778D01*
X134272300Y-91279778D01*
X134272301Y-100375014D01*
X134180407Y-100466908D01*
X134081800Y-100704964D01*
X134081800Y-100962636D01*
X134180407Y-101200692D01*
X134362608Y-101382893D01*
X134600664Y-101481500D01*
X134853201Y-101481500D01*
X134853201Y-103262565D01*
X134844243Y-103307600D01*
X134879727Y-103485990D01*
X134879728Y-103485991D01*
X134927412Y-103557355D01*
X132734074Y-101364017D01*
X132760155Y-101358829D01*
X133121432Y-101117432D01*
X133362829Y-100756155D01*
X133447597Y-100330000D01*
X133362829Y-99903845D01*
X133121432Y-99542568D01*
X132760155Y-99301171D01*
X132441569Y-99237800D01*
X131718431Y-99237800D01*
X131399845Y-99301171D01*
X131038568Y-99542568D01*
X130886384Y-99770327D01*
X130827100Y-99711043D01*
X130803010Y-99674990D01*
X130660180Y-99579554D01*
X130534226Y-99554500D01*
X130534222Y-99554500D01*
X130491700Y-99546042D01*
X130449178Y-99554500D01*
X126845585Y-99554500D01*
X126728292Y-99437207D01*
X126490236Y-99338600D01*
X126232564Y-99338600D01*
X125994508Y-99437207D01*
X125812307Y-99619408D01*
X125713700Y-99857464D01*
X125713700Y-100115136D01*
X125812307Y-100353192D01*
X125994508Y-100535393D01*
X126232564Y-100634000D01*
X126490236Y-100634000D01*
X126728292Y-100535393D01*
X126845585Y-100418100D01*
X130312843Y-100418100D01*
X130500000Y-100605257D01*
X130524090Y-100641310D01*
X130666920Y-100736746D01*
X130792874Y-100761800D01*
X130792877Y-100761800D01*
X130802179Y-100763650D01*
X131038568Y-101117432D01*
X131399845Y-101358829D01*
X131657542Y-101410088D01*
X131673254Y-101489079D01*
X131744601Y-101595858D01*
X131744603Y-101595860D01*
X131768691Y-101631910D01*
X131804741Y-101655998D01*
X138638100Y-108489357D01*
X138662190Y-108525410D01*
X138805020Y-108620846D01*
X138930974Y-108645900D01*
X138930977Y-108645900D01*
X138973499Y-108654358D01*
X139016021Y-108645900D01*
X150340378Y-108645900D01*
X150382900Y-108654358D01*
X150425422Y-108645900D01*
X150425426Y-108645900D01*
X150551380Y-108620846D01*
X150694210Y-108525410D01*
X150718300Y-108489357D01*
X151471642Y-107736015D01*
X151619019Y-107956581D01*
X151976327Y-108195326D01*
X152291411Y-108258000D01*
X153504189Y-108258000D01*
X153819273Y-108195326D01*
X154176581Y-107956581D01*
X154415326Y-107599273D01*
X154499162Y-107177800D01*
X154415326Y-106756327D01*
X154176581Y-106399019D01*
X153819273Y-106160274D01*
X153504189Y-106097600D01*
X152808839Y-106097600D01*
X152958173Y-105822684D01*
X152972318Y-105751185D01*
X152849656Y-105537000D01*
X151257000Y-105537000D01*
X151257000Y-105557000D01*
X151003000Y-105557000D01*
X151003000Y-105537000D01*
X149410344Y-105537000D01*
X149287682Y-105751185D01*
X149295915Y-105792800D01*
X148735200Y-105792800D01*
X148214851Y-105946828D01*
X147793055Y-106288260D01*
X147534027Y-106765116D01*
X147519882Y-106836615D01*
X147642544Y-107050800D01*
X149235200Y-107050800D01*
X149235200Y-107030800D01*
X149489200Y-107030800D01*
X149489200Y-107050800D01*
X149509200Y-107050800D01*
X149509200Y-107304800D01*
X149489200Y-107304800D01*
X149489200Y-107324800D01*
X149235200Y-107324800D01*
X149235200Y-107304800D01*
X147642544Y-107304800D01*
X147519882Y-107518985D01*
X147534027Y-107590484D01*
X147638221Y-107782300D01*
X139152357Y-107782300D01*
X137292357Y-105922300D01*
X137406236Y-105922300D01*
X137644292Y-105823693D01*
X137826493Y-105641492D01*
X137925100Y-105403436D01*
X137925100Y-105145764D01*
X137883756Y-105045951D01*
X142299800Y-105045951D01*
X142299800Y-105774049D01*
X142578431Y-106446725D01*
X143093275Y-106961569D01*
X143765951Y-107240200D01*
X144494049Y-107240200D01*
X145166725Y-106961569D01*
X145681569Y-106446725D01*
X145960200Y-105774049D01*
X145960200Y-105045951D01*
X145681569Y-104373275D01*
X145166725Y-103858431D01*
X144644697Y-103642200D01*
X147760838Y-103642200D01*
X147844674Y-104063673D01*
X148083419Y-104420981D01*
X148440727Y-104659726D01*
X148755811Y-104722400D01*
X149451161Y-104722400D01*
X149301827Y-104997316D01*
X149287682Y-105068815D01*
X149410344Y-105283000D01*
X151003000Y-105283000D01*
X151003000Y-104025000D01*
X151257000Y-104025000D01*
X151257000Y-105283000D01*
X152849656Y-105283000D01*
X152972318Y-105068815D01*
X152958173Y-104997316D01*
X152808839Y-104722400D01*
X153504189Y-104722400D01*
X153819273Y-104659726D01*
X154176581Y-104420981D01*
X154415326Y-104063673D01*
X154499162Y-103642200D01*
X154415326Y-103220727D01*
X154176581Y-102863419D01*
X153819273Y-102624674D01*
X153504189Y-102562000D01*
X152291411Y-102562000D01*
X151976327Y-102624674D01*
X151619019Y-102863419D01*
X151380274Y-103220727D01*
X151296438Y-103642200D01*
X151372581Y-104025000D01*
X151257000Y-104025000D01*
X151003000Y-104025000D01*
X150887419Y-104025000D01*
X150963562Y-103642200D01*
X150879726Y-103220727D01*
X150640981Y-102863419D01*
X150283673Y-102624674D01*
X149968589Y-102562000D01*
X148755811Y-102562000D01*
X148440727Y-102624674D01*
X148083419Y-102863419D01*
X147844674Y-103220727D01*
X147760838Y-103642200D01*
X144644697Y-103642200D01*
X144494049Y-103579800D01*
X143765951Y-103579800D01*
X143093275Y-103858431D01*
X142578431Y-104373275D01*
X142299800Y-105045951D01*
X137883756Y-105045951D01*
X137826493Y-104907708D01*
X137644292Y-104725507D01*
X137406236Y-104626900D01*
X137276279Y-104626900D01*
X136017698Y-103368319D01*
X136223692Y-103282993D01*
X136405893Y-103100792D01*
X136504500Y-102862736D01*
X136504500Y-102605064D01*
X136405893Y-102367008D01*
X136288600Y-102249715D01*
X136288600Y-101231043D01*
X136479845Y-101358829D01*
X136798431Y-101422200D01*
X137521569Y-101422200D01*
X137840155Y-101358829D01*
X138201432Y-101117432D01*
X138442829Y-100756155D01*
X138527597Y-100330000D01*
X138442829Y-99903845D01*
X138201432Y-99542568D01*
X137840155Y-99301171D01*
X137521569Y-99237800D01*
X136798431Y-99237800D01*
X136479845Y-99301171D01*
X136288600Y-99428957D01*
X136288600Y-98691043D01*
X136479845Y-98818829D01*
X136798431Y-98882200D01*
X137521569Y-98882200D01*
X137840155Y-98818829D01*
X138201432Y-98577432D01*
X138442829Y-98216155D01*
X138527597Y-97790000D01*
X138442829Y-97363845D01*
X138201432Y-97002568D01*
X137840155Y-96761171D01*
X137521569Y-96697800D01*
X136798431Y-96697800D01*
X136479845Y-96761171D01*
X136288600Y-96888957D01*
X136288600Y-96520000D01*
X138332403Y-96520000D01*
X138417171Y-96946155D01*
X138658568Y-97307432D01*
X139019845Y-97548829D01*
X139338431Y-97612200D01*
X140061569Y-97612200D01*
X140380155Y-97548829D01*
X140741432Y-97307432D01*
X140982829Y-96946155D01*
X140999355Y-96863070D01*
X143171780Y-96863070D01*
X143186740Y-96937277D01*
X143448370Y-97418026D01*
X143874059Y-97762059D01*
X144399000Y-97917000D01*
X144653000Y-97917000D01*
X144653000Y-96647000D01*
X144907000Y-96647000D01*
X144907000Y-97917000D01*
X145161000Y-97917000D01*
X145685941Y-97762059D01*
X146111630Y-97418026D01*
X146373260Y-96937277D01*
X146388220Y-96863070D01*
X146265720Y-96647000D01*
X144907000Y-96647000D01*
X144653000Y-96647000D01*
X143294280Y-96647000D01*
X143171780Y-96863070D01*
X140999355Y-96863070D01*
X141067597Y-96520000D01*
X140999356Y-96176930D01*
X143171780Y-96176930D01*
X143294280Y-96393000D01*
X144653000Y-96393000D01*
X144653000Y-95123000D01*
X144907000Y-95123000D01*
X144907000Y-96393000D01*
X146265720Y-96393000D01*
X146388220Y-96176930D01*
X146373260Y-96102723D01*
X146111630Y-95621974D01*
X145685941Y-95277941D01*
X145161000Y-95123000D01*
X144907000Y-95123000D01*
X144653000Y-95123000D01*
X144399000Y-95123000D01*
X143874059Y-95277941D01*
X143448370Y-95621974D01*
X143186740Y-96102723D01*
X143171780Y-96176930D01*
X140999356Y-96176930D01*
X140982829Y-96093845D01*
X140741432Y-95732568D01*
X140380155Y-95491171D01*
X140061569Y-95427800D01*
X139338431Y-95427800D01*
X139019845Y-95491171D01*
X138658568Y-95732568D01*
X138417171Y-96093845D01*
X138332403Y-96520000D01*
X136288600Y-96520000D01*
X136288600Y-96151043D01*
X136479845Y-96278829D01*
X136798431Y-96342200D01*
X137521569Y-96342200D01*
X137840155Y-96278829D01*
X138201432Y-96037432D01*
X138442829Y-95676155D01*
X138527597Y-95250000D01*
X138442829Y-94823845D01*
X138201432Y-94462568D01*
X137840155Y-94221171D01*
X137521569Y-94157800D01*
X136798431Y-94157800D01*
X136479845Y-94221171D01*
X136288600Y-94348957D01*
X136288600Y-93611043D01*
X136479845Y-93738829D01*
X136798431Y-93802200D01*
X137521569Y-93802200D01*
X137840155Y-93738829D01*
X138201432Y-93497432D01*
X138442829Y-93136155D01*
X138450020Y-93100000D01*
X138503945Y-93100000D01*
X138645990Y-93814108D01*
X139050500Y-94419500D01*
X139655892Y-94824010D01*
X140189745Y-94930200D01*
X141550255Y-94930200D01*
X142084108Y-94824010D01*
X142689500Y-94419500D01*
X143094010Y-93814108D01*
X143144787Y-93558833D01*
X143784887Y-93558833D01*
X143848916Y-93799696D01*
X144270524Y-94519870D01*
X144935638Y-95023882D01*
X145743000Y-95235000D01*
X146243000Y-95235000D01*
X146243000Y-93227000D01*
X146497000Y-93227000D01*
X146497000Y-95235000D01*
X146997000Y-95235000D01*
X147804362Y-95023882D01*
X148469476Y-94519870D01*
X148891084Y-93799696D01*
X148955113Y-93558833D01*
X148842165Y-93227000D01*
X146497000Y-93227000D01*
X146243000Y-93227000D01*
X143897835Y-93227000D01*
X143784887Y-93558833D01*
X143144787Y-93558833D01*
X143236055Y-93100000D01*
X143094010Y-92385892D01*
X142689500Y-91780500D01*
X142084108Y-91375990D01*
X141550255Y-91269800D01*
X140189745Y-91269800D01*
X139655892Y-91375990D01*
X139050500Y-91780500D01*
X138645990Y-92385892D01*
X138503945Y-93100000D01*
X138450020Y-93100000D01*
X138527597Y-92710000D01*
X138442829Y-92283845D01*
X138201432Y-91922568D01*
X137840155Y-91681171D01*
X137521569Y-91617800D01*
X136798431Y-91617800D01*
X136479845Y-91681171D01*
X136288600Y-91808957D01*
X136288600Y-91071043D01*
X136479845Y-91198829D01*
X136798431Y-91262200D01*
X137521569Y-91262200D01*
X137840155Y-91198829D01*
X138201432Y-90957432D01*
X138442829Y-90596155D01*
X138527597Y-90170000D01*
X138442829Y-89743845D01*
X138201432Y-89382568D01*
X137840155Y-89141171D01*
X137521569Y-89077800D01*
X136798431Y-89077800D01*
X136479845Y-89141171D01*
X136118568Y-89382568D01*
X136117710Y-89383852D01*
X135633858Y-88900000D01*
X138503945Y-88900000D01*
X138645990Y-89614108D01*
X139050500Y-90219500D01*
X139655892Y-90624010D01*
X140189745Y-90730200D01*
X141550255Y-90730200D01*
X142084108Y-90624010D01*
X142689500Y-90219500D01*
X143094010Y-89614108D01*
X143144787Y-89358833D01*
X143784887Y-89358833D01*
X143848916Y-89599696D01*
X144270524Y-90319870D01*
X144935638Y-90823882D01*
X145609152Y-91000000D01*
X144935638Y-91176118D01*
X144270524Y-91680130D01*
X143848916Y-92400304D01*
X143784887Y-92641167D01*
X143897835Y-92973000D01*
X146243000Y-92973000D01*
X146243000Y-89027000D01*
X146497000Y-89027000D01*
X146497000Y-92973000D01*
X148842165Y-92973000D01*
X148955113Y-92641167D01*
X148891084Y-92400304D01*
X148469476Y-91680130D01*
X147804362Y-91176118D01*
X147130848Y-91000000D01*
X147804362Y-90823882D01*
X148469476Y-90319870D01*
X148891084Y-89599696D01*
X148955113Y-89358833D01*
X148842165Y-89027000D01*
X146497000Y-89027000D01*
X146243000Y-89027000D01*
X143897835Y-89027000D01*
X143784887Y-89358833D01*
X143144787Y-89358833D01*
X143236055Y-88900000D01*
X143094010Y-88185892D01*
X142689500Y-87580500D01*
X142084108Y-87175990D01*
X141550255Y-87069800D01*
X140189745Y-87069800D01*
X139655892Y-87175990D01*
X139050500Y-87580500D01*
X138645990Y-88185892D01*
X138503945Y-88900000D01*
X135633858Y-88900000D01*
X134363858Y-87630000D01*
X135792403Y-87630000D01*
X135877171Y-88056155D01*
X136118568Y-88417432D01*
X136479845Y-88658829D01*
X136798431Y-88722200D01*
X137521569Y-88722200D01*
X137840155Y-88658829D01*
X138201432Y-88417432D01*
X138442829Y-88056155D01*
X138527597Y-87630000D01*
X138442829Y-87203845D01*
X138201432Y-86842568D01*
X137840155Y-86601171D01*
X137521569Y-86537800D01*
X136798431Y-86537800D01*
X136479845Y-86601171D01*
X136118568Y-86842568D01*
X135877171Y-87203845D01*
X135792403Y-87630000D01*
X134363858Y-87630000D01*
X132815623Y-86081766D01*
X133121432Y-85877432D01*
X133362829Y-85516155D01*
X133447597Y-85090000D01*
X135792403Y-85090000D01*
X135877171Y-85516155D01*
X136118568Y-85877432D01*
X136479845Y-86118829D01*
X136798431Y-86182200D01*
X137521569Y-86182200D01*
X137840155Y-86118829D01*
X138201432Y-85877432D01*
X138442829Y-85516155D01*
X138527597Y-85090000D01*
X138450021Y-84700000D01*
X138503945Y-84700000D01*
X138645990Y-85414108D01*
X139050500Y-86019500D01*
X139655892Y-86424010D01*
X140189745Y-86530200D01*
X141550255Y-86530200D01*
X142084108Y-86424010D01*
X142689500Y-86019500D01*
X143094010Y-85414108D01*
X143179215Y-84985750D01*
X143735000Y-84985750D01*
X143735000Y-86326309D01*
X143831673Y-86559698D01*
X144010301Y-86738327D01*
X144243690Y-86835000D01*
X145475304Y-86835000D01*
X144935638Y-86976118D01*
X144270524Y-87480130D01*
X143848916Y-88200304D01*
X143784887Y-88441167D01*
X143897835Y-88773000D01*
X146243000Y-88773000D01*
X146243000Y-86765000D01*
X146154250Y-86765000D01*
X146243000Y-86676250D01*
X146243000Y-84827000D01*
X146497000Y-84827000D01*
X146497000Y-86676250D01*
X146585750Y-86765000D01*
X146497000Y-86765000D01*
X146497000Y-88773000D01*
X148842165Y-88773000D01*
X148955113Y-88441167D01*
X148891084Y-88200304D01*
X148469476Y-87480130D01*
X147804362Y-86976118D01*
X147264696Y-86835000D01*
X148496310Y-86835000D01*
X148729699Y-86738327D01*
X148908327Y-86559698D01*
X149005000Y-86326309D01*
X149005000Y-84985750D01*
X148846250Y-84827000D01*
X146497000Y-84827000D01*
X146243000Y-84827000D01*
X143893750Y-84827000D01*
X143735000Y-84985750D01*
X143179215Y-84985750D01*
X143236055Y-84700000D01*
X143094010Y-83985892D01*
X142689500Y-83380500D01*
X142230328Y-83073691D01*
X143735000Y-83073691D01*
X143735000Y-84414250D01*
X143893750Y-84573000D01*
X146243000Y-84573000D01*
X146243000Y-82723750D01*
X146497000Y-82723750D01*
X146497000Y-84573000D01*
X148846250Y-84573000D01*
X149005000Y-84414250D01*
X149005000Y-83073691D01*
X148908327Y-82840302D01*
X148729699Y-82661673D01*
X148496310Y-82565000D01*
X146655750Y-82565000D01*
X146497000Y-82723750D01*
X146243000Y-82723750D01*
X146084250Y-82565000D01*
X144243690Y-82565000D01*
X144010301Y-82661673D01*
X143831673Y-82840302D01*
X143735000Y-83073691D01*
X142230328Y-83073691D01*
X142084108Y-82975990D01*
X141550255Y-82869800D01*
X140189745Y-82869800D01*
X139655892Y-82975990D01*
X139050500Y-83380500D01*
X138645990Y-83985892D01*
X138503945Y-84700000D01*
X138450021Y-84700000D01*
X138442829Y-84663845D01*
X138201432Y-84302568D01*
X137840155Y-84061171D01*
X137521569Y-83997800D01*
X136798431Y-83997800D01*
X136479845Y-84061171D01*
X136118568Y-84302568D01*
X135877171Y-84663845D01*
X135792403Y-85090000D01*
X133447597Y-85090000D01*
X133362829Y-84663845D01*
X133121432Y-84302568D01*
X133030336Y-84241700D01*
X133142736Y-84241700D01*
X133380792Y-84143093D01*
X133562993Y-83960892D01*
X133661600Y-83722836D01*
X133661600Y-83465164D01*
X133562993Y-83227108D01*
X133380792Y-83044907D01*
X133330743Y-83024176D01*
X133362829Y-82976155D01*
X133447597Y-82550000D01*
X135792403Y-82550000D01*
X135877171Y-82976155D01*
X136118568Y-83337432D01*
X136479845Y-83578829D01*
X136798431Y-83642200D01*
X137521569Y-83642200D01*
X137840155Y-83578829D01*
X138201432Y-83337432D01*
X138442829Y-82976155D01*
X138527597Y-82550000D01*
X138442829Y-82123845D01*
X138201432Y-81762568D01*
X137840155Y-81521171D01*
X137521569Y-81457800D01*
X136798431Y-81457800D01*
X136479845Y-81521171D01*
X136118568Y-81762568D01*
X135877171Y-82123845D01*
X135792403Y-82550000D01*
X133447597Y-82550000D01*
X133362829Y-82123845D01*
X133333035Y-82079255D01*
X133351292Y-82071693D01*
X133533493Y-81889492D01*
X133632100Y-81651436D01*
X133632100Y-81393764D01*
X133533493Y-81155708D01*
X133351292Y-80973507D01*
X133113236Y-80874900D01*
X133005493Y-80874900D01*
X133121432Y-80797432D01*
X133362829Y-80436155D01*
X133447597Y-80010000D01*
X135792403Y-80010000D01*
X135877171Y-80436155D01*
X136118568Y-80797432D01*
X136479845Y-81038829D01*
X136798431Y-81102200D01*
X137521569Y-81102200D01*
X137840155Y-81038829D01*
X138201432Y-80797432D01*
X138442829Y-80436155D01*
X138527597Y-80010000D01*
X138442829Y-79583845D01*
X138201432Y-79222568D01*
X137840155Y-78981171D01*
X137521569Y-78917800D01*
X136798431Y-78917800D01*
X136479845Y-78981171D01*
X136118568Y-79222568D01*
X135877171Y-79583845D01*
X135792403Y-80010000D01*
X133447597Y-80010000D01*
X133362829Y-79583845D01*
X133121432Y-79222568D01*
X132760155Y-78981171D01*
X132441569Y-78917800D01*
X131718431Y-78917800D01*
X131399845Y-78981171D01*
X131038568Y-79222568D01*
X130797171Y-79583845D01*
X130712403Y-80010000D01*
X130797171Y-80436155D01*
X131038568Y-80797432D01*
X131399845Y-81038829D01*
X131533426Y-81065400D01*
X131480729Y-81065400D01*
X131435699Y-81056443D01*
X131257309Y-81091927D01*
X131106077Y-81192977D01*
X131080570Y-81231151D01*
X128179623Y-84132099D01*
X128126061Y-84051939D01*
X128016838Y-83978958D01*
X127888000Y-83953331D01*
X124884600Y-83953331D01*
X124884600Y-83766140D01*
X124899029Y-83693600D01*
X124884600Y-83621060D01*
X124884600Y-83621056D01*
X124878686Y-83591323D01*
X130760120Y-77709890D01*
X130797171Y-77896155D01*
X131038568Y-78257432D01*
X131399845Y-78498829D01*
X131718431Y-78562200D01*
X132441569Y-78562200D01*
X132760155Y-78498829D01*
X133121432Y-78257432D01*
X133362829Y-77896155D01*
X133447597Y-77470000D01*
X133362829Y-77043845D01*
X133274199Y-76911200D01*
X135965801Y-76911200D01*
X135877171Y-77043845D01*
X135792403Y-77470000D01*
X135877171Y-77896155D01*
X136118568Y-78257432D01*
X136479845Y-78498829D01*
X136798431Y-78562200D01*
X137521569Y-78562200D01*
X137840155Y-78498829D01*
X138201432Y-78257432D01*
X138442829Y-77896155D01*
X138527597Y-77470000D01*
X138442829Y-77043845D01*
X138201432Y-76682568D01*
X137896600Y-76478886D01*
X137896600Y-76247144D01*
X137911030Y-76174600D01*
X137853861Y-75887193D01*
X137691058Y-75643542D01*
X137447407Y-75480739D01*
X137232544Y-75438000D01*
X137160000Y-75423570D01*
X137087456Y-75438000D01*
X131326240Y-75438000D01*
X131253700Y-75423571D01*
X131181159Y-75438000D01*
X131181156Y-75438000D01*
X130966293Y-75480739D01*
X130784141Y-75602449D01*
X130784139Y-75602451D01*
X130722642Y-75643542D01*
X130681551Y-75705039D01*
X123571742Y-82814849D01*
X123510242Y-82855942D01*
X123347439Y-83099594D01*
X123304700Y-83314457D01*
X123304700Y-83314460D01*
X123294612Y-83365176D01*
X123266600Y-83432803D01*
X123266600Y-83740997D01*
X123354552Y-83953331D01*
X121315140Y-83953331D01*
X120620305Y-83258496D01*
X120595261Y-83132593D01*
X120432458Y-82888942D01*
X120188807Y-82726139D01*
X119973944Y-82683400D01*
X119901400Y-82668970D01*
X119828856Y-82683400D01*
X119607037Y-82683400D01*
X119606061Y-82681939D01*
X119496838Y-82608958D01*
X119368000Y-82583331D01*
X111888000Y-82583331D01*
X111759162Y-82608958D01*
X111649939Y-82681939D01*
X111576958Y-82791162D01*
X111551331Y-82920000D01*
X111551331Y-83920000D01*
X111576958Y-84048838D01*
X111649939Y-84158061D01*
X111759162Y-84231042D01*
X111888000Y-84256669D01*
X119368000Y-84256669D01*
X119496838Y-84231042D01*
X119504388Y-84225997D01*
X120071331Y-84792940D01*
X120071331Y-85290000D01*
X120096958Y-85418838D01*
X120161684Y-85515707D01*
X119704669Y-85972722D01*
X119704669Y-85660000D01*
X119679042Y-85531162D01*
X119606061Y-85421939D01*
X119496838Y-85348958D01*
X119368000Y-85323331D01*
X111888000Y-85323331D01*
X111759162Y-85348958D01*
X111649939Y-85421939D01*
X111576958Y-85531162D01*
X111551331Y-85660000D01*
X111551331Y-86136421D01*
X111105351Y-85690442D01*
X111064258Y-85628942D01*
X110820607Y-85466139D01*
X110605744Y-85423400D01*
X110605740Y-85423400D01*
X110533200Y-85408971D01*
X110460660Y-85423400D01*
X109399994Y-85423400D01*
X109403042Y-85418838D01*
X109428669Y-85290000D01*
X109428669Y-84290000D01*
X109403042Y-84161162D01*
X109330061Y-84051939D01*
X109220838Y-83978958D01*
X109092000Y-83953331D01*
X101612000Y-83953331D01*
X101483162Y-83978958D01*
X101373939Y-84051939D01*
X101372963Y-84053400D01*
X101204063Y-84053400D01*
X101207000Y-84046309D01*
X101207000Y-83705750D01*
X101048250Y-83547000D01*
X96959000Y-83547000D01*
X96959000Y-84396250D01*
X97117750Y-84555000D01*
X100076911Y-84555000D01*
X100043400Y-84635903D01*
X100043400Y-84944097D01*
X100161341Y-85228832D01*
X100255840Y-85323331D01*
X93092000Y-85323331D01*
X92963162Y-85348958D01*
X92853939Y-85421939D01*
X92780958Y-85531162D01*
X92755331Y-85660000D01*
X92755331Y-86660000D01*
X92780958Y-86788838D01*
X92853939Y-86898061D01*
X92963162Y-86971042D01*
X93092000Y-86996669D01*
X100572000Y-86996669D01*
X100700838Y-86971042D01*
X100810061Y-86898061D01*
X100811037Y-86896600D01*
X100979937Y-86896600D01*
X100977000Y-86903691D01*
X100977000Y-87244250D01*
X101135750Y-87403000D01*
X105225000Y-87403000D01*
X105225000Y-87383000D01*
X105479000Y-87383000D01*
X105479000Y-87403000D01*
X109568250Y-87403000D01*
X109727000Y-87244250D01*
X109727000Y-86903691D01*
X109724063Y-86896600D01*
X110228091Y-86896600D01*
X110694541Y-87363051D01*
X110732641Y-87455032D01*
X110950568Y-87672959D01*
X111235303Y-87790900D01*
X111512422Y-87790900D01*
X110943654Y-88359668D01*
X110905477Y-88385177D01*
X110835853Y-88489377D01*
X110804427Y-88536410D01*
X110768943Y-88714800D01*
X110777900Y-88759830D01*
X110777901Y-95142565D01*
X110768943Y-95187600D01*
X110804427Y-95365990D01*
X110879970Y-95479048D01*
X110905478Y-95517223D01*
X110943652Y-95542730D01*
X111157368Y-95756446D01*
X111182877Y-95794623D01*
X111326078Y-95890307D01*
X111334109Y-95895673D01*
X111512500Y-95931157D01*
X111557530Y-95922200D01*
X116891615Y-95922200D01*
X116806215Y-96007600D01*
X93930957Y-96007600D01*
X93438357Y-95515000D01*
X96546250Y-95515000D01*
X96705000Y-95356250D01*
X96705000Y-94507000D01*
X96959000Y-94507000D01*
X96959000Y-95356250D01*
X97117750Y-95515000D01*
X100698310Y-95515000D01*
X100931699Y-95418327D01*
X101110327Y-95239698D01*
X101207000Y-95006309D01*
X101207000Y-94665750D01*
X101048250Y-94507000D01*
X96959000Y-94507000D01*
X96705000Y-94507000D01*
X92615750Y-94507000D01*
X92523054Y-94599697D01*
X92373500Y-94450143D01*
X92373500Y-93753691D01*
X92457000Y-93753691D01*
X92457000Y-94094250D01*
X92615750Y-94253000D01*
X96705000Y-94253000D01*
X96705000Y-93403750D01*
X96959000Y-93403750D01*
X96959000Y-94253000D01*
X101048250Y-94253000D01*
X101207000Y-94094250D01*
X101207000Y-94003026D01*
X101252301Y-94048327D01*
X101485690Y-94145000D01*
X105066250Y-94145000D01*
X105225000Y-93986250D01*
X105225000Y-93137000D01*
X105479000Y-93137000D01*
X105479000Y-93986250D01*
X105637750Y-94145000D01*
X109218310Y-94145000D01*
X109451699Y-94048327D01*
X109630327Y-93869698D01*
X109727000Y-93636309D01*
X109727000Y-93295750D01*
X109568250Y-93137000D01*
X105479000Y-93137000D01*
X105225000Y-93137000D01*
X101135750Y-93137000D01*
X100977000Y-93295750D01*
X100977000Y-93386974D01*
X100931699Y-93341673D01*
X100698310Y-93245000D01*
X97117750Y-93245000D01*
X96959000Y-93403750D01*
X96705000Y-93403750D01*
X96546250Y-93245000D01*
X92965690Y-93245000D01*
X92732301Y-93341673D01*
X92553673Y-93520302D01*
X92457000Y-93753691D01*
X92373500Y-93753691D01*
X92373500Y-89185750D01*
X92457000Y-89185750D01*
X92457000Y-89526309D01*
X92553673Y-89759698D01*
X92732301Y-89938327D01*
X92965690Y-90035000D01*
X96357011Y-90035000D01*
X96323500Y-90115903D01*
X96323500Y-90424097D01*
X96441441Y-90708832D01*
X96535940Y-90803331D01*
X93092000Y-90803331D01*
X92963162Y-90828958D01*
X92853939Y-90901939D01*
X92780958Y-91011162D01*
X92755331Y-91140000D01*
X92755331Y-92140000D01*
X92780958Y-92268838D01*
X92853939Y-92378061D01*
X92963162Y-92451042D01*
X93092000Y-92476669D01*
X100572000Y-92476669D01*
X100700838Y-92451042D01*
X100810061Y-92378061D01*
X100811037Y-92376600D01*
X100979937Y-92376600D01*
X100977000Y-92383691D01*
X100977000Y-92724250D01*
X101135750Y-92883000D01*
X105225000Y-92883000D01*
X105225000Y-92033750D01*
X105479000Y-92033750D01*
X105479000Y-92883000D01*
X109568250Y-92883000D01*
X109727000Y-92724250D01*
X109727000Y-92383691D01*
X109630327Y-92150302D01*
X109451699Y-91971673D01*
X109218310Y-91875000D01*
X105637750Y-91875000D01*
X105479000Y-92033750D01*
X105225000Y-92033750D01*
X105066250Y-91875000D01*
X102099491Y-91875000D01*
X102196859Y-91777632D01*
X102314800Y-91492897D01*
X102314800Y-91184703D01*
X102282477Y-91106669D01*
X109092000Y-91106669D01*
X109220838Y-91081042D01*
X109330061Y-91008061D01*
X109403042Y-90898838D01*
X109428669Y-90770000D01*
X109428669Y-89770000D01*
X109403042Y-89641162D01*
X109330061Y-89531939D01*
X109220838Y-89458958D01*
X109092000Y-89433331D01*
X101612000Y-89433331D01*
X101483162Y-89458958D01*
X101373939Y-89531939D01*
X101372963Y-89533400D01*
X101204063Y-89533400D01*
X101207000Y-89526309D01*
X101207000Y-89185750D01*
X101048250Y-89027000D01*
X96959000Y-89027000D01*
X96959000Y-89047000D01*
X96705000Y-89047000D01*
X96705000Y-89027000D01*
X92615750Y-89027000D01*
X92457000Y-89185750D01*
X92373500Y-89185750D01*
X92373500Y-88273691D01*
X92457000Y-88273691D01*
X92457000Y-88614250D01*
X92615750Y-88773000D01*
X96705000Y-88773000D01*
X96705000Y-87923750D01*
X96959000Y-87923750D01*
X96959000Y-88773000D01*
X101048250Y-88773000D01*
X101207000Y-88614250D01*
X101207000Y-88523026D01*
X101252301Y-88568327D01*
X101485690Y-88665000D01*
X105066250Y-88665000D01*
X105225000Y-88506250D01*
X105225000Y-87657000D01*
X105479000Y-87657000D01*
X105479000Y-88506250D01*
X105637750Y-88665000D01*
X109218310Y-88665000D01*
X109451699Y-88568327D01*
X109630327Y-88389698D01*
X109727000Y-88156309D01*
X109727000Y-87815750D01*
X109568250Y-87657000D01*
X105479000Y-87657000D01*
X105225000Y-87657000D01*
X101135750Y-87657000D01*
X100977000Y-87815750D01*
X100977000Y-87906974D01*
X100931699Y-87861673D01*
X100698310Y-87765000D01*
X97117750Y-87765000D01*
X96959000Y-87923750D01*
X96705000Y-87923750D01*
X96546250Y-87765000D01*
X92965690Y-87765000D01*
X92732301Y-87861673D01*
X92553673Y-88040302D01*
X92457000Y-88273691D01*
X92373500Y-88273691D01*
X92373500Y-83705750D01*
X92457000Y-83705750D01*
X92457000Y-84046309D01*
X92553673Y-84279698D01*
X92732301Y-84458327D01*
X92965690Y-84555000D01*
X96546250Y-84555000D01*
X96705000Y-84396250D01*
X96705000Y-83547000D01*
X92615750Y-83547000D01*
X92457000Y-83705750D01*
X92373500Y-83705750D01*
X92373500Y-83302457D01*
X92499354Y-83176604D01*
X92615750Y-83293000D01*
X96705000Y-83293000D01*
X96705000Y-82443750D01*
X96959000Y-82443750D01*
X96959000Y-83293000D01*
X101048250Y-83293000D01*
X101207000Y-83134250D01*
X101207000Y-82793691D01*
X101110327Y-82560302D01*
X100931699Y-82381673D01*
X100698310Y-82285000D01*
X97117750Y-82285000D01*
X96959000Y-82443750D01*
X96705000Y-82443750D01*
X96546250Y-82285000D01*
X93390957Y-82285000D01*
X97193858Y-78482100D01*
X107708878Y-78482100D01*
X107751400Y-78490558D01*
X107793922Y-78482100D01*
X107793926Y-78482100D01*
X107919880Y-78457046D01*
X108062710Y-78361610D01*
X108086800Y-78325557D01*
X109570857Y-76841500D01*
X109606910Y-76817410D01*
X109702346Y-76674580D01*
X109727400Y-76548626D01*
X109735859Y-76506100D01*
X109727400Y-76463574D01*
X109727400Y-73000000D01*
X111551331Y-73000000D01*
X111551331Y-76400000D01*
X111576958Y-76528838D01*
X111649939Y-76638061D01*
X111759162Y-76711042D01*
X111888000Y-76736669D01*
X115379416Y-76736669D01*
X115575535Y-77210143D01*
X115977857Y-77612465D01*
X116503516Y-77830200D01*
X117072484Y-77830200D01*
X117598143Y-77612465D01*
X118000465Y-77210143D01*
X118196584Y-76736669D01*
X127888000Y-76736669D01*
X128016838Y-76711042D01*
X128126061Y-76638061D01*
X128199042Y-76528838D01*
X128224669Y-76400000D01*
X128224669Y-74498985D01*
X147519882Y-74498985D01*
X147534027Y-74570484D01*
X147793055Y-75047340D01*
X148214851Y-75388772D01*
X148735200Y-75542800D01*
X149235200Y-75542800D01*
X149235200Y-74284800D01*
X149489200Y-74284800D01*
X149489200Y-75542800D01*
X149989200Y-75542800D01*
X150509549Y-75388772D01*
X150931345Y-75047340D01*
X151190373Y-74570484D01*
X151204518Y-74498985D01*
X151081856Y-74284800D01*
X149489200Y-74284800D01*
X149235200Y-74284800D01*
X147642544Y-74284800D01*
X147519882Y-74498985D01*
X128224669Y-74498985D01*
X128224669Y-73000000D01*
X128199042Y-72871162D01*
X128126061Y-72761939D01*
X128016838Y-72688958D01*
X127888000Y-72663331D01*
X126774729Y-72663331D01*
X126855574Y-72647250D01*
X127271462Y-72369362D01*
X127549350Y-71953474D01*
X127622300Y-71586728D01*
X127622300Y-70700653D01*
X128066800Y-70700653D01*
X128066800Y-71539347D01*
X128387754Y-72314199D01*
X128980801Y-72907246D01*
X129755653Y-73228200D01*
X130594347Y-73228200D01*
X131369199Y-72907246D01*
X131962246Y-72314199D01*
X132081642Y-72025951D01*
X142299800Y-72025951D01*
X142299800Y-72754049D01*
X142578431Y-73426725D01*
X143093275Y-73941569D01*
X143765951Y-74220200D01*
X144494049Y-74220200D01*
X145166725Y-73941569D01*
X145291679Y-73816615D01*
X147519882Y-73816615D01*
X147642544Y-74030800D01*
X149235200Y-74030800D01*
X149235200Y-74010800D01*
X149489200Y-74010800D01*
X149489200Y-74030800D01*
X151081856Y-74030800D01*
X151204518Y-73816615D01*
X151196285Y-73775000D01*
X151372581Y-73775000D01*
X151296438Y-74157800D01*
X151380274Y-74579273D01*
X151619019Y-74936581D01*
X151976327Y-75175326D01*
X152291411Y-75238000D01*
X153504189Y-75238000D01*
X153819273Y-75175326D01*
X154176581Y-74936581D01*
X154415326Y-74579273D01*
X154499162Y-74157800D01*
X154415326Y-73736327D01*
X154176581Y-73379019D01*
X153819273Y-73140274D01*
X153504189Y-73077600D01*
X152808839Y-73077600D01*
X152958173Y-72802684D01*
X152972318Y-72731185D01*
X152849656Y-72517000D01*
X151257000Y-72517000D01*
X151257000Y-72537000D01*
X151003000Y-72537000D01*
X151003000Y-72517000D01*
X149410344Y-72517000D01*
X149287682Y-72731185D01*
X149295915Y-72772800D01*
X148735200Y-72772800D01*
X148214851Y-72926828D01*
X147793055Y-73268260D01*
X147534027Y-73745116D01*
X147519882Y-73816615D01*
X145291679Y-73816615D01*
X145681569Y-73426725D01*
X145960200Y-72754049D01*
X145960200Y-72025951D01*
X145681569Y-71353275D01*
X145166725Y-70838431D01*
X144644697Y-70622200D01*
X147760838Y-70622200D01*
X147844674Y-71043673D01*
X148083419Y-71400981D01*
X148440727Y-71639726D01*
X148755811Y-71702400D01*
X149451161Y-71702400D01*
X149301827Y-71977316D01*
X149287682Y-72048815D01*
X149410344Y-72263000D01*
X151003000Y-72263000D01*
X151003000Y-71005000D01*
X151257000Y-71005000D01*
X151257000Y-72263000D01*
X152849656Y-72263000D01*
X152972318Y-72048815D01*
X152958173Y-71977316D01*
X152808839Y-71702400D01*
X153504189Y-71702400D01*
X153819273Y-71639726D01*
X154176581Y-71400981D01*
X154415326Y-71043673D01*
X154499162Y-70622200D01*
X154415326Y-70200727D01*
X154176581Y-69843419D01*
X153819273Y-69604674D01*
X153504189Y-69542000D01*
X152291411Y-69542000D01*
X151976327Y-69604674D01*
X151619019Y-69843419D01*
X151380274Y-70200727D01*
X151296438Y-70622200D01*
X151372581Y-71005000D01*
X151257000Y-71005000D01*
X151003000Y-71005000D01*
X150887419Y-71005000D01*
X150963562Y-70622200D01*
X150879726Y-70200727D01*
X150640981Y-69843419D01*
X150283673Y-69604674D01*
X149968589Y-69542000D01*
X148755811Y-69542000D01*
X148440727Y-69604674D01*
X148083419Y-69843419D01*
X147844674Y-70200727D01*
X147760838Y-70622200D01*
X144644697Y-70622200D01*
X144494049Y-70559800D01*
X143765951Y-70559800D01*
X143093275Y-70838431D01*
X142578431Y-71353275D01*
X142299800Y-72025951D01*
X132081642Y-72025951D01*
X132283200Y-71539347D01*
X132283200Y-70700653D01*
X131962246Y-69925801D01*
X131369199Y-69332754D01*
X130594347Y-69011800D01*
X129755653Y-69011800D01*
X128980801Y-69332754D01*
X128387754Y-69925801D01*
X128066800Y-70700653D01*
X127622300Y-70700653D01*
X127622300Y-70653271D01*
X127549350Y-70286526D01*
X127271462Y-69870638D01*
X126855573Y-69592750D01*
X126365000Y-69495169D01*
X125874426Y-69592750D01*
X125458538Y-69870638D01*
X125180650Y-70286527D01*
X125107700Y-70653272D01*
X125107700Y-71586729D01*
X125180650Y-71953474D01*
X125458539Y-72369362D01*
X125874427Y-72647250D01*
X125955272Y-72663331D01*
X124234729Y-72663331D01*
X124315574Y-72647250D01*
X124731462Y-72369362D01*
X125009350Y-71953474D01*
X125082300Y-71586728D01*
X125082300Y-70653271D01*
X125009350Y-70286526D01*
X124731462Y-69870638D01*
X124315573Y-69592750D01*
X123825000Y-69495169D01*
X123334426Y-69592750D01*
X122918538Y-69870638D01*
X122640650Y-70286527D01*
X122567700Y-70653272D01*
X122567700Y-71586729D01*
X122640650Y-71953474D01*
X122918539Y-72369362D01*
X123334427Y-72647250D01*
X123415272Y-72663331D01*
X121694729Y-72663331D01*
X121775574Y-72647250D01*
X122191462Y-72369362D01*
X122469350Y-71953474D01*
X122542300Y-71586728D01*
X122542300Y-70653271D01*
X122469350Y-70286526D01*
X122191462Y-69870638D01*
X121775573Y-69592750D01*
X121285000Y-69495169D01*
X120794426Y-69592750D01*
X120378538Y-69870638D01*
X120100650Y-70286527D01*
X120027700Y-70653272D01*
X120027700Y-71586729D01*
X120100650Y-71953474D01*
X120378539Y-72369362D01*
X120794427Y-72647250D01*
X120875272Y-72663331D01*
X119154729Y-72663331D01*
X119235574Y-72647250D01*
X119651462Y-72369362D01*
X119929350Y-71953474D01*
X120002300Y-71586728D01*
X120002300Y-70653271D01*
X119929350Y-70286526D01*
X119651462Y-69870638D01*
X119235573Y-69592750D01*
X118745000Y-69495169D01*
X118254426Y-69592750D01*
X117838538Y-69870638D01*
X117560650Y-70286527D01*
X117487700Y-70653272D01*
X117487700Y-71586729D01*
X117560650Y-71953474D01*
X117838539Y-72369362D01*
X118254427Y-72647250D01*
X118335272Y-72663331D01*
X116614729Y-72663331D01*
X116695574Y-72647250D01*
X117111462Y-72369362D01*
X117389350Y-71953474D01*
X117462300Y-71586728D01*
X117462300Y-70653271D01*
X117389350Y-70286526D01*
X117111462Y-69870638D01*
X116695573Y-69592750D01*
X116205000Y-69495169D01*
X115714426Y-69592750D01*
X115298538Y-69870638D01*
X115020650Y-70286527D01*
X114947700Y-70653272D01*
X114947700Y-71586729D01*
X115020650Y-71953474D01*
X115298539Y-72369362D01*
X115714427Y-72647250D01*
X115795272Y-72663331D01*
X114074729Y-72663331D01*
X114155574Y-72647250D01*
X114571462Y-72369362D01*
X114849350Y-71953474D01*
X114922300Y-71586728D01*
X114922300Y-70653271D01*
X114849350Y-70286526D01*
X114571462Y-69870638D01*
X114155573Y-69592750D01*
X113665000Y-69495169D01*
X113174426Y-69592750D01*
X112758538Y-69870638D01*
X112480650Y-70286527D01*
X112407700Y-70653272D01*
X112407700Y-71586729D01*
X112480650Y-71953474D01*
X112758539Y-72369362D01*
X113174427Y-72647250D01*
X113255272Y-72663331D01*
X111888000Y-72663331D01*
X111759162Y-72688958D01*
X111649939Y-72761939D01*
X111576958Y-72871162D01*
X111551331Y-73000000D01*
X109727400Y-73000000D01*
X109727400Y-72892821D01*
X109735858Y-72850299D01*
X109727400Y-72807775D01*
X109727400Y-72807774D01*
X109702346Y-72681820D01*
X109606910Y-72538990D01*
X109570856Y-72514899D01*
X109451812Y-72395855D01*
X109491462Y-72369362D01*
X109769350Y-71953474D01*
X109842300Y-71586728D01*
X109842300Y-70653272D01*
X109867700Y-70653272D01*
X109867700Y-71586729D01*
X109940650Y-71953474D01*
X110218539Y-72369362D01*
X110634427Y-72647250D01*
X111125000Y-72744831D01*
X111615574Y-72647250D01*
X112031462Y-72369362D01*
X112309350Y-71953474D01*
X112382300Y-71586728D01*
X112382300Y-70653271D01*
X112309350Y-70286526D01*
X112031462Y-69870638D01*
X111615573Y-69592750D01*
X111125000Y-69495169D01*
X110634426Y-69592750D01*
X110218538Y-69870638D01*
X109940650Y-70286527D01*
X109867700Y-70653272D01*
X109842300Y-70653272D01*
X109842300Y-70653271D01*
X109769350Y-70286526D01*
X109491462Y-69870638D01*
X109075573Y-69592750D01*
X108585000Y-69495169D01*
X108094426Y-69592750D01*
X107678538Y-69870638D01*
X107400650Y-70286527D01*
X107327700Y-70653272D01*
X107327700Y-71586729D01*
X107400650Y-71953474D01*
X107678539Y-72369362D01*
X108094427Y-72647250D01*
X108152747Y-72658851D01*
X108153639Y-72663331D01*
X106454729Y-72663331D01*
X106535574Y-72647250D01*
X106951462Y-72369362D01*
X107229350Y-71953474D01*
X107302300Y-71586728D01*
X107302300Y-70653271D01*
X107229350Y-70286526D01*
X106951462Y-69870638D01*
X106535573Y-69592750D01*
X106045000Y-69495169D01*
X105554426Y-69592750D01*
X105138538Y-69870638D01*
X104860650Y-70286527D01*
X104787700Y-70653272D01*
X104787700Y-70699951D01*
X104762300Y-70705003D01*
X104762300Y-70653271D01*
X104689350Y-70286526D01*
X104411462Y-69870638D01*
X103995573Y-69592750D01*
X103505000Y-69495169D01*
X103014426Y-69592750D01*
X102598538Y-69870638D01*
X102320650Y-70286527D01*
X102247700Y-70653272D01*
X102247700Y-71586729D01*
X102320650Y-71953474D01*
X102595357Y-72364600D01*
X101874644Y-72364600D01*
X102149350Y-71953474D01*
X102222300Y-71586728D01*
X102222300Y-70653271D01*
X102149350Y-70286526D01*
X101871462Y-69870638D01*
X101455573Y-69592750D01*
X100965000Y-69495169D01*
X100474426Y-69592750D01*
X100058538Y-69870638D01*
X99934312Y-70056555D01*
X99220299Y-69342542D01*
X99196210Y-69306490D01*
X99053380Y-69211054D01*
X98927426Y-69186000D01*
X98927422Y-69186000D01*
X98884900Y-69177542D01*
X98842378Y-69186000D01*
X92901326Y-69186000D01*
X92858800Y-69177541D01*
X92816274Y-69186000D01*
X92690320Y-69211054D01*
X92547490Y-69306490D01*
X92523400Y-69342543D01*
X91825154Y-70040789D01*
X91711462Y-69870638D01*
X91295573Y-69592750D01*
X90805000Y-69495169D01*
X90314426Y-69592750D01*
X89898538Y-69870638D01*
X89620650Y-70286527D01*
X89547700Y-70653272D01*
X89547700Y-71586729D01*
X89620650Y-71953474D01*
X89776554Y-72186800D01*
X89592138Y-72186800D01*
X89528769Y-72174195D01*
X89528769Y-69850000D01*
X89503142Y-69721162D01*
X89430161Y-69611939D01*
X89320938Y-69538958D01*
X89192100Y-69513331D01*
X87337900Y-69513331D01*
X87209062Y-69538958D01*
X87099839Y-69611939D01*
X87026858Y-69721162D01*
X87001231Y-69850000D01*
X87001231Y-72390000D01*
X87026858Y-72518838D01*
X87099839Y-72628061D01*
X87209062Y-72701042D01*
X87337900Y-72726669D01*
X88674622Y-72726669D01*
X86773242Y-74628049D01*
X86711742Y-74669142D01*
X86548939Y-74912794D01*
X86506200Y-75127657D01*
X86506200Y-75127660D01*
X86491771Y-75200200D01*
X86506200Y-75272740D01*
X86506201Y-86816019D01*
X86468100Y-86908003D01*
X86169500Y-86908003D01*
X86169500Y-68389500D01*
X155765501Y-68389500D01*
X155765501Y-83669880D01*
G04 #@! TD*
M02*
