M48
;DRILL file {KiCad 6.0.0-rc1-unknown-576a0af~66~ubuntu18.04.1} date Sat 20 Oct 2018 05:19:35 PM EDT
;FORMAT={-:-/ absolute / metric / decimal}
FMAT,2
METRIC
T1C0.381
T2C0.635
T3C0.965
T4C1.092
T5C1.100
T6C1.500
T7C1.800
T8C3.000
T9C3.302
%
G90
G05
M71
T1
X109.047Y-82.403
X109.216Y-73.731
X109.587Y-95.683
X110.045Y-95.086
X110.178Y-96.135
X110.663Y-98.547
X114.132Y-98.357
X114.935Y-105.232
X115.823Y-98.944
X119.971Y-83.61
X120.46Y-91.657
X121.22Y-91.745
X121.287Y-86.659
X121.946Y-100.876
X122.055Y-86.776
X123.741Y-84.455
X126.545Y-82.586
X129.254Y-83.721
X134.055Y-88.305
X134.119Y-97.022
X135.578Y-77.374
X135.603Y-83.721
X148.742Y-104.209
X149.511Y-73.263
T2
X93.345Y-86.163
X99.463Y-87.223
X100.921Y-91.339
X105.602Y-79.399
X108.394Y-84.197
X125.258Y-94.932
T3
X132.08Y-97.79
X137.16Y-97.79
X139.7Y-96.52
X144.78Y-96.52
X132.08Y-85.09
X137.16Y-85.09
X132.08Y-90.17
X137.16Y-90.17
X132.08Y-87.63
X137.16Y-87.63
X132.08Y-100.33
X137.16Y-100.33
X132.08Y-77.47
X137.16Y-77.47
X132.08Y-92.71
X137.16Y-92.71
X132.08Y-80.01
X137.16Y-80.01
X132.08Y-95.25
X137.16Y-95.25
X132.08Y-82.55
X137.16Y-82.55
T4
X88.265Y-71.12
X88.265Y-106.68
X90.805Y-71.12
X90.805Y-106.68
X93.345Y-71.12
X93.345Y-106.68
X95.885Y-71.12
X95.885Y-106.68
X98.425Y-71.12
X98.425Y-106.68
X100.965Y-71.12
X100.965Y-106.68
X103.505Y-71.12
X103.505Y-106.68
X106.045Y-71.12
X106.045Y-106.68
X108.585Y-71.12
X108.585Y-106.68
X111.125Y-71.12
X111.125Y-106.68
X113.665Y-71.12
X113.665Y-106.68
X116.205Y-71.12
X116.205Y-106.68
X118.745Y-71.12
X118.745Y-106.68
X121.285Y-71.12
X121.285Y-106.68
X123.825Y-71.12
X123.825Y-106.68
X126.365Y-71.12
X126.365Y-106.68
T5
X153.09Y-72.39
X153.09Y-105.41
T6
X144.09Y-72.39
X144.09Y-105.41
T7
X97.23Y-76.4
X97.23Y-101.4
X140.87Y-84.7
X140.87Y-88.9
X140.87Y-93.1
X146.37Y-84.7
X146.37Y-88.9
X146.37Y-93.1
X115.01Y-76.4
X115.01Y-101.4
T8
X153.67Y-84.7
X153.67Y-93.1
T9
X89.535Y-76.2
X89.535Y-101.6
X130.175Y-71.12
X130.175Y-106.68
T0
M30
